<?xml version="1.0" encoding="iso-8859-1"?>
<!-- Generator: Adobe Illustrator 9.0, SVG Export Plug-In  -->
<!DOCTYPE svg PUBLIC "-//W3C//DTD SVG 20000303 Stylable//EN"   "http://www.w3.org/TR/2000/03/WD-SVG-20000303/DTD/svg-20000303-stylable.dtd" [
	<!ENTITY st0 "fill:#A6A698;stroke:none;">
	<!ENTITY st1 "fill:url(#aigrd1);stroke:none;">
	<!ENTITY st2 "fill:#000000;stroke:none;">
	<!ENTITY st3 "fill:url(#aigrd9);stroke:none;">
	<!ENTITY st4 "fill:url(#aigrd6);stroke:none;">
	<!ENTITY st5 "fill:url(#aigrd3);stroke:none;">
	<!ENTITY st6 "opacity:0.7;stroke:none;">
	<!ENTITY st7 "opacity:0.35;stroke:none;">
	<!ENTITY st8 "fill-rule:evenodd;clip-rule:evenodd;fill:url(#aigrd10);stroke:none;">
	<!ENTITY st9 "fill-rule:nonzero;clip-rule:nonzero;fill:#FFFFFF;stroke:#000000;stroke-miterlimit:4;">
	<!ENTITY st10 "fill:url(#aigrd8);stroke:none;">
	<!ENTITY st11 "fill:#FFFFFF;stroke:none;">
	<!ENTITY st12 "fill:url(#aigrd5);stroke:none;">
	<!ENTITY st13 "fill:url(#aigrd2);stroke:none;">
	<!ENTITY st14 "fill:none;stroke:none;">
	<!ENTITY st15 "fill-rule:nonzero;clip-rule:nonzero;stroke:#000000;stroke-miterlimit:4;">
	<!ENTITY st16 "fill:url(#aigrd7);stroke:none;">
	<!ENTITY st17 "stroke:none;">
	<!ENTITY st18 "fill:url(#aigrd4);stroke:none;">
]>
<svg  width="52pt" height="48pt" viewBox="0 0 52 48" xml:space="preserve">
	<g id="Layer_x0020_2" style="&st15;">
		<path style="&st7;" d="M49.5,30.5c-4.3-2.6-22.9-5.3-22.9-5.3S6.7,32.3,5.2,32.9c-1.5,0.6-1.9,2.4-0.3,2.9l12.5,5.1c0,0.1,0,0.2,0,0.3c0,2.6,4.5,4.8,10,4.8c5.5,0,10-2.1,10-4.8c0-0.9-0.6-1.8-1.5-2.5C41.7,37,47.8,35,50,33.6c1.6-1,0.9-2.3-0.5-3.1z"/>
		<path style="&st17;" d="M30.9,2.4l0,0c0,0-4.3,2.3-4.9,2.6c-0.2,0-5,0.1-5,0.1L3.5,12.4l0,0c-0.6,0.2-1.7,1-1.7,3l0,0.3c0,0,1.1,17.6,1.1,17.7c0,0.5,0.1,1.4,0.7,2.2c0.6,0.8,1.4,1.2,1.7,1.3c6.3,2.5,15.9,6.3,16.4,6.5c0.8,0.4,1.7,0.4,2,0.4h0l0.1,0
			c0.3,0,1.1-0.1,2-0.6L40,34.8c0.5-0.3,1.5-0.9,1.9-1.9c0.3-0.8,0.4-1.5,0.4-1.8h0l0.5-17.5l0,0c0-1.3-0.5-2.2-1-2.6c0,0-0.5-0.6-0.5-0.6l0,0c0,0,0,0-0.1-0.1l0,0L34.5,3c-0.5-0.6-1.3-1-2.1-1c-0.7,0-1.3,0.3-1.5,0.4z"/>
		<linearGradient id="aigrd1" gradientUnits="userSpaceOnUse" x1="21.8149" y1="18.791" x2="21.8149" y2="11.4975">
			<stop  offset="0" style="stop-color:#989C80"/>
			<stop  offset="1" style="stop-color:#000000"/>
		</linearGradient>
		<path style="&st1;" d="M4,14.3l19.4,6.5l16.3-8.4l-0.3-0.1L21.1,7.2L4,14.3z"/>
		<linearGradient id="aigrd2" gradientUnits="userSpaceOnUse" x1="14.271" y1="27.6201" x2="19.2548" y2="40.3968">
			<stop  offset="0" style="stop-color:#DEDFCE"/>
			<stop  offset="1" style="stop-color:#C2C4B5"/>
		</linearGradient>
		<path style="&st13;" d="M5.7,34.5c0,0,16,6.3,16.5,6.5c0.5,0.2,1.1,0.2,1.1,0.2V20.8L4,14.3c0,0-0.4,0.1-0.3,1.1l1.1,17.7c0,0,0,0.5,0.2,0.9c0.3,0.4,0.7,0.5,0.7,0.5z"/>
		<linearGradient id="aigrd3" gradientUnits="userSpaceOnUse" x1="41.3486" y1="36.627" x2="14.9041" y2="10.1823">
			<stop  offset="0" style="stop-color:#989C80"/>
			<stop  offset="0.1523" style="stop-color:#91957A"/>
			<stop  offset="0.3784" style="stop-color:#7D8169"/>
			<stop  offset="0.6506" style="stop-color:#5D604E"/>
			<stop  offset="0.9562" style="stop-color:#313229"/>
			<stop  offset="1" style="stop-color:#2A2B23"/>
		</linearGradient>
		<path style="&st5;" d="M39.7,12.4c0,0,0.3,0.2,0.3,1l-0.5,17.4c0,0,0,0.5-0.2,0.9s-0.9,0.8-0.9,0.8l-14.2,8.4c-0.4,0.3-0.9,0.3-0.9,0.3V20.8l16.3-8.4z"/>
		<linearGradient id="aigrd4" gradientUnits="userSpaceOnUse" x1="17.2153" y1="11.0308" x2="17.9305" y2="13.5709">
			<stop  offset="0" style="stop-color:#EFEFE0"/>
			<stop  offset="1" style="stop-color:#FFFFFF"/>
		</linearGradient>
		<path style="&st18;" d="M4,14.3l10.7,0.9L30.2,7l-9.2,0.3L4,14.3z"/>
		<linearGradient id="aigrd5" gradientUnits="userSpaceOnUse" x1="39.6064" y1="12.7388" x2="38.4829" y2="11.6152">
			<stop  offset="0" style="stop-color:#989C80"/>
			<stop  offset="1" style="stop-color:#000000"/>
		</linearGradient>
		<path style="&st12;" d="M39.1,11.8l-0.1,0.9l0.6-0.3l-0.5-0.6z"/>
		<linearGradient id="aigrd6" gradientUnits="userSpaceOnUse" x1="33.5479" y1="17.6787" x2="2.1251" y2="-10.9319">
			<stop  offset="0" style="stop-color:#989C80"/>
			<stop  offset="1" style="stop-color:#000000"/>
		</linearGradient>
		<path style="&st4;" d="M39,12.7l-14.6,7.5c0,0-0.6,0.3-1,0.2c-0.4,0-0.7-0.4-0.7-0.4l-6.9-6.8c0,0-0.1-0.1-0.1-0.4c0-0.3,0.4-0.4,0.4-0.4l15.4-8.3c0,0,0.2-0.1,0.5-0.1c0.2,0,0.3,0.2,0.3,0.2l6.7,7.4c0,0,0.3,0.3,0.3,0.6c0,0.2-0.3,0.4-0.3,0.4z"/>
		<linearGradient id="aigrd7" gradientUnits="userSpaceOnUse" x1="29.2852" y1="15.0762" x2="22.3922" y2="7.4822">
			<stop  offset="0" style="stop-color:#F2F2E1"/>
			<stop  offset="1" style="stop-color:#FFFFFF"/>
		</linearGradient>
		<path style="&st16;" d="M24.7,20c0,0-0.6,0.5-1.1,0l-6.7-6.7c-0.2-0.2-0.2-0.4,0.1-0.5l14.4-8.5c0,0-15.1,8-15.3,8.2c-0.4,0.2-0.5,0.6-0.2,1c0.2,0.2,5.2,5.1,7,6.8c0.4,0.4-0.4,0.3-0.4,0.3s1.9,0.6,2.3-0.5z"/>
		<linearGradient id="aigrd8" gradientUnits="userSpaceOnUse" x1="33.6191" y1="17.5991" x2="24.3932" y2="22.116">
			<stop  offset="0" style="stop-color:#919186"/>
			<stop  offset="1" style="stop-color:#F3F4E4"/>
		</linearGradient>
		<path style="&st10;" d="M23.8,40c0.2-4.8,0.1-16.5,0.1-16.9c0-0.5-0.1-2.1,1.2-2.9l14.2-7.8L24,20.4c-1.1,0.5-2-0.1-3.9-0.7c0.1,0.1-15.7-5.4-15.7-5.4s-0.9-0.4-0.8,0.8l1.2,18.2c0,0.5,0.4,1,0.9,1.2c-0.4-0.3-0.6-0.8-0.7-1.1L3.9,15.3C3.9,15,4,14.9,4.2,15
			c0,0,16.9,5.8,17.4,5.9c1.1,0.4,0.9,1.8,1,2.2c0,0.3,0.5,17.1,0.5,17.1s0.7,1.3,0.8-0.2z"/>
		<path style="&st11;" d="M6.3,13.9l14.7-6.6L4,14.3l1.3,0.1l9.4,0.8l-8.3-1.3z"/>
		<path style="&st0;" d="M39.5,30.8L39.9,16l-1,14.9c0,0.3-0.1,0.5-0.3,0.6L34.3,35c0,0,4.2-2.5,4.5-2.7c0.3-0.2,0.7-0.6,0.7-1.5z"/>
		<linearGradient id="aigrd9" gradientUnits="userSpaceOnUse" x1="23.7305" y1="41.209" x2="23.0389" y2="40.0667">
			<stop  offset="0" style="stop-color:#63635C"/>
			<stop  offset="1" style="stop-color:#F3F4E4"/>
		</linearGradient>
		<path style="&st3;" d="M22,40.9c1.1,0.6,1.8,0.3,2.9-0.3c0,0-1.1-0.1-1.1-1.2c-0.1-0.1-0.8,0.1-0.8,0c0,1-0.5,1.6-1,1.6z"/>
	</g>
	<g id="Layer_x0020_3" style="&st15;">
		<path style="&st14;" d="M52,48H0V0h52v48z"/>
	</g>
	<g id="Layer_x0020_4" style="&st9;">
		<path style="&st2;" d="M12.8,35.7c0,5.7,4.6,10.3,10.3,10.3c5.7,0,10.3-4.6,10.3-10.3s-4.6-10.3-10.3-10.3c-5.7,0-10.3,4.6-10.3,10.3z"/>
		<radialGradient id="aigrd10" cx="20.0034" cy="31.7676" r="12.8059" fx="20.0034" fy="31.7676" gradientUnits="userSpaceOnUse">
			<stop  offset="0" style="stop-color:#FED182"/>
			<stop  offset="0.2809" style="stop-color:#FFB310"/>
			<stop  offset="1" style="stop-color:#996E04"/>
		</radialGradient>
		<path style="&st8;" d="M31.7,35.5c0,4.8-3.9,8.8-8.8,8.8c-4.8,0-8.8-3.9-8.8-8.8s3.9-8.8,8.8-8.8c4.8,0,8.8,3.9,8.8,8.8z"/>
		<g style="&st6;">
			<path d="M19.1,32.7c0-0.7,0-0.8,0.2-1c0.2-0.2,0.4-0.3,0.6-0.3c0.3,0,0.5,0.1,0.7,0.4c0.1,0.2,0.1,0.2,0.1,0.9v4.2c0,0.5,0,0.7-0.2,0.8c-0.1,0.2-0.4,0.3-0.6,0.3c-0.4,0-0.6-0.2-0.8-0.7c-0.3,0.5-0.6,0.7-1.1,0.7c-0.4,0-0.8-0.2-1-0.5c-0.2-0.4-0.3-0.6-0.3-2
				c0-1.4,0-1.6,0.3-2c0.2-0.2,0.5-0.4,0.9-0.4c0.5,0,0.8,0.2,1.1,0.6v-1z M18.3,35.6c0,0.7,0,0.9,0.1,1c0,0.1,0.2,0.2,0.3,0.2c0.4,0,0.4-0.2,0.4-1.2c0-0.6,0-0.9-0.1-1c-0.1-0.1-0.2-0.2-0.3-0.2c-0.4,0-0.4,0.2-0.4,1.2z"/>
			<path d="M22.8,36c0,0.4,0,0.5,0,0.6c0,0.3,0.2,0.5,0.4,0.5c0.2,0,0.3-0.1,0.3-0.2c0,0,0-0.1,0.1-0.3c0-0.2,0.3-0.4,0.6-0.4c0.4,0,0.7,0.2,0.7,0.6c0,0.7-0.7,1.2-1.7,1.2c-0.7,0-1.2-0.2-1.6-0.6c-0.3-0.4-0.4-0.8-0.4-1.7c0-1.2,0.1-1.7,0.5-2.1
				c0.3-0.3,0.9-0.5,1.5-0.5c1.3,0,1.9,0.6,1.9,1.9c0,0.7-0.2,0.9-0.8,0.9h-1.5z M23.6,35c0-0.6-0.1-0.8-0.4-0.8c-0.3,0-0.4,0.2-0.4,0.6V35h0.8z"/>
			<path d="M27.2,33.8c0.3-0.5,0.6-0.6,1.1-0.6c0.4,0,0.7,0.2,0.9,0.4c0.3,0.3,0.3,0.8,0.3,2c0,1.3,0,1.7-0.3,2.1c-0.2,0.3-0.5,0.5-0.9,0.5c-0.5,0-0.9-0.2-1.1-0.7c-0.1,0.5-0.3,0.7-0.8,0.7c-0.3,0-0.5-0.1-0.6-0.3c-0.1-0.2-0.2-0.4-0.2-0.8v-4.2c0-0.7,0-0.8,0.2-1
				c0.2-0.2,0.4-0.3,0.6-0.3c0.3,0,0.5,0.1,0.7,0.4c0.1,0.2,0.1,0.2,0.1,0.9v1.1z M27.2,34.7c0,0.1,0,0.5,0,1c0,0.7,0,0.9,0.1,1c0,0.1,0.2,0.2,0.3,0.2c0.2,0,0.3-0.1,0.3-0.2c0-0.1,0.1-0.5,0.1-1.1c0-0.9-0.1-1.1-0.4-1.1c-0.2,0-0.4,0.1-0.4,0.3z"/>
		</g>
	</g>
</svg>
