<?xml version="1.0" encoding="UTF-8" standalone="no"?>
<!-- Created with Inkscape (http://www.inkscape.org/) -->
<svg
   xmlns:dc="http://purl.org/dc/elements/1.1/"
   xmlns:cc="http://web.resource.org/cc/"
   xmlns:rdf="http://www.w3.org/1999/02/22-rdf-syntax-ns#"
   xmlns:svg="http://www.w3.org/2000/svg"
   xmlns="http://www.w3.org/2000/svg"
   xmlns:xlink="http://www.w3.org/1999/xlink"
   xmlns:sodipodi="http://sodipodi.sourceforge.net/DTD/sodipodi-0.dtd"
   xmlns:inkscape="http://www.inkscape.org/namespaces/inkscape"
   version="1.0"
   x="0.0000000"
   y="0.0000000"
   width="48.000000px"
   height="48.000000px"
   id="svg1"
   sodipodi:version="0.32"
   inkscape:version="0.45+devel"
   sodipodi:docname="folder-open.svg"
   sodipodi:docbase="/home/lapo/Icone/cvs/gnome-icon-theme/scalable/places"
   inkscape:output_extension="org.inkscape.output.svg.inkscape">
  <metadata
     id="metadata162">
    <rdf:RDF>
      <cc:Work
         rdf:about="">
        <dc:format>image/svg+xml</dc:format>
        <dc:type
           rdf:resource="http://purl.org/dc/dcmitype/StillImage" />
        <dc:title>Folder</dc:title>
        <dc:creator>
          <cc:Agent>
            <dc:title>Jakub Steiner</dc:title>
          </cc:Agent>
        </dc:creator>
        <dc:date>2005-02-01</dc:date>
        <cc:license
           rdf:resource="http://creativecommons.org/licenses/GPL/2.0/" />
        <dc:identifier>http://jimmac.musichall.cz/</dc:identifier>
        <dc:subject>
          <rdf:Bag>
            <rdf:li>folder</rdf:li>
            <rdf:li>directory</rdf:li>
            <rdf:li>storage</rdf:li>
          </rdf:Bag>
        </dc:subject>
        <dc:contributor>
          <cc:Agent>
            <dc:title>Ulisse Perusin</dc:title>
          </cc:Agent>
        </dc:contributor>
      </cc:Work>
      <cc:License
         rdf:about="http://creativecommons.org/licenses/GPL/2.0/">
        <cc:permits
           rdf:resource="http://web.resource.org/cc/Reproduction" />
        <cc:permits
           rdf:resource="http://web.resource.org/cc/Distribution" />
        <cc:requires
           rdf:resource="http://web.resource.org/cc/Notice" />
        <cc:permits
           rdf:resource="http://web.resource.org/cc/DerivativeWorks" />
        <cc:requires
           rdf:resource="http://web.resource.org/cc/ShareAlike" />
        <cc:requires
           rdf:resource="http://web.resource.org/cc/SourceCode" />
      </cc:License>
    </rdf:RDF>
  </metadata>
  <sodipodi:namedview
     id="base"
     pagecolor="#ffffff"
     bordercolor="#e76f6f"
     borderopacity="0.38039216"
     inkscape:pageopacity="0.0"
     inkscape:pageshadow="2"
     inkscape:window-width="1014"
     inkscape:window-height="678"
     inkscape:cy="22.204366"
     inkscape:cx="31.806413"
     inkscape:zoom="1"
     inkscape:document-units="px"
     showgrid="false"
     inkscape:window-x="43"
     inkscape:window-y="125"
     inkscape:current-layer="layer2"
     inkscape:showpageshadow="false"
     inkscape:object-paths="true"
     inkscape:object-nodes="true"
     objecttolerance="7"
     gridtolerance="7"
     guidetolerance="7">
    <inkscape:grid
       type="xygrid"
       id="grid5404"
       spacingx="0.5px"
       spacingy="0.5px"
       empspacing="2" />
  </sodipodi:namedview>
  <defs
     id="defs3">
    <linearGradient
       inkscape:collect="always"
       id="linearGradient5990">
      <stop
         style="stop-color:#5f615c;stop-opacity:1"
         offset="0"
         id="stop5992" />
      <stop
         style="stop-color:#50524f;stop-opacity:1"
         offset="1"
         id="stop5994" />
    </linearGradient>
    <linearGradient
       id="linearGradient5984"
       inkscape:collect="always">
      <stop
         id="stop5986"
         offset="0"
         style="stop-color:#5f615c;stop-opacity:1" />
      <stop
         id="stop5988"
         offset="1"
         style="stop-color:#555753;stop-opacity:1" />
    </linearGradient>
    <linearGradient
       inkscape:collect="always"
       id="linearGradient6016">
      <stop
         style="stop-color:#000000;stop-opacity:1;"
         offset="0"
         id="stop6018" />
      <stop
         style="stop-color:#000000;stop-opacity:0;"
         offset="1"
         id="stop6020" />
    </linearGradient>
    <linearGradient
       id="linearGradient5985">
      <stop
         style="stop-color:#ffffff;stop-opacity:1;"
         offset="0"
         id="stop5987" />
      <stop
         style="stop-color:#ffffff;stop-opacity:0.13333334;"
         offset="1"
         id="stop5989" />
    </linearGradient>
    <linearGradient
       id="linearGradient4734">
      <stop
         style="stop-color:#cecfbf;stop-opacity:1"
         offset="0"
         id="stop4736" />
      <stop
         id="stop5982"
         offset="0.73866642"
         style="stop-color:#adae95;stop-opacity:1;" />
      <stop
         style="stop-color:#949575;stop-opacity:1;"
         offset="1"
         id="stop4738" />
    </linearGradient>
    <linearGradient
       id="linearGradient235">
      <stop
         style="stop-color:#4f4f46;stop-opacity:1"
         offset="0.0000000"
         id="stop236" />
      <stop
         style="stop-color:#a7a997;stop-opacity:1"
         offset="1.0000000"
         id="stop237" />
    </linearGradient>
    <linearGradient
       inkscape:collect="always"
       xlink:href="#linearGradient235"
       id="linearGradient253"
       gradientTransform="matrix(1.0732403,0,0,0.9371473,-1.1247905,3.7529185e-2)"
       x1="25.273735"
       y1="46.91095"
       x2="24.983023"
       y2="8.3744106"
       gradientUnits="userSpaceOnUse" />
    <linearGradient
       inkscape:collect="always"
       xlink:href="#linearGradient4734"
       id="linearGradient4740"
       x1="28"
       y1="9.28125"
       x2="28.012375"
       y2="37.983109"
       gradientUnits="userSpaceOnUse"
       gradientTransform="matrix(1,0,0,0.7037037,4,12)" />
    <linearGradient
       inkscape:collect="always"
       xlink:href="#linearGradient5990"
       id="linearGradient6045"
       x1="19"
       y1="25"
       x2="7"
       y2="37"
       gradientUnits="userSpaceOnUse"
       gradientTransform="matrix(1,0,0,0.7037037,2,12)" />
    <linearGradient
       inkscape:collect="always"
       xlink:href="#linearGradient5984"
       id="linearGradient6053"
       x1="6"
       y1="9"
       x2="5.7599545"
       y2="27.345419"
       gradientUnits="userSpaceOnUse"
       gradientTransform="translate(1,0)" />
    <radialGradient
       inkscape:collect="always"
       xlink:href="#linearGradient6016"
       id="radialGradient6664"
       gradientUnits="userSpaceOnUse"
       gradientTransform="matrix(1,0,0,0.8571429,0,7.7142857)"
       cx="7.5"
       cy="54"
       fx="7.5"
       fy="54"
       r="3.5" />
    <linearGradient
       inkscape:collect="always"
       xlink:href="#linearGradient6016"
       id="linearGradient6666"
       gradientUnits="userSpaceOnUse"
       gradientTransform="matrix(0.974359,0,0,0.9999324,-0.8974359,-2.9973634)"
       spreadMethod="reflect"
       x1="24.027025"
       y1="42.500237"
       x2="24.038048"
       y2="39.000473" />
    <radialGradient
       inkscape:collect="always"
       xlink:href="#linearGradient6016"
       id="radialGradient6668"
       gradientUnits="userSpaceOnUse"
       gradientTransform="matrix(1,0,0,0.8571429,0,7.7142857)"
       cx="7.5"
       cy="54"
       fx="7.5"
       fy="54"
       r="3.5" />
    <linearGradient
       inkscape:collect="always"
       xlink:href="#linearGradient5985"
       id="linearGradient5987"
       gradientUnits="userSpaceOnUse"
       x1="10"
       y1="9"
       x2="22.25"
       y2="37.000473"
       gradientTransform="translate(1,0)" />
    <linearGradient
       inkscape:collect="always"
       xlink:href="#linearGradient5985"
       id="linearGradient6054"
       gradientUnits="userSpaceOnUse"
       gradientTransform="matrix(1,0,0,0.7110935,2,11.800699)"
       x1="23"
       y1="16"
       x2="30"
       y2="30" />
  </defs>
  <g
     inkscape:groupmode="layer"
     id="layer1"
     inkscape:label="pixmap"
     style="display:inline" />
  <g
     inkscape:groupmode="layer"
     id="layer2"
     inkscape:label="vectors"
     style="display:inline">
    <g
       id="g6659"
       style="opacity:0.20392157"
       transform="translate(1,1)">
      <path
         sodipodi:end="4.712389"
         sodipodi:start="1.5707963"
         transform="matrix(0.8571428,0,0,1.1665878,-3.4285713,-23.495778)"
         d="M 7.5000001,57 A 3.5,3 0 1 1 7.5000001,51 L 7.5,54 z"
         sodipodi:ry="3"
         sodipodi:rx="3.5"
         sodipodi:cy="54"
         sodipodi:cx="7.5"
         id="path5429"
         style="opacity:1;fill:url(#radialGradient6664);fill-opacity:1;stroke:none;stroke-width:1;stroke-linecap:round;stroke-linejoin:miter;stroke-miterlimit:4;stroke-dasharray:none;stroke-opacity:1"
         sodipodi:type="arc" />
      <rect
         y="36.000473"
         x="3.0000002"
         height="6.999527"
         width="38"
         id="rect6024"
         style="opacity:1;fill:url(#linearGradient6666);fill-opacity:1;stroke:none;stroke-width:1;stroke-linecap:round;stroke-linejoin:miter;stroke-miterlimit:4;stroke-dasharray:none;stroke-opacity:1" />
      <path
         sodipodi:end="4.712389"
         sodipodi:start="1.5707963"
         transform="matrix(-0.8571428,0,0,1.1665878,47.428571,-23.495506)"
         d="M 7.5000001,57 A 3.5,3 0 1 1 7.5000001,51 L 7.5,54 z"
         sodipodi:ry="3"
         sodipodi:rx="3.5"
         sodipodi:cy="54"
         sodipodi:cx="7.5"
         id="path6034"
         style="opacity:1;fill:url(#radialGradient6668);fill-opacity:1;stroke:none;stroke-width:1;stroke-linecap:round;stroke-linejoin:miter;stroke-miterlimit:4;stroke-dasharray:none;stroke-opacity:1"
         sodipodi:type="arc" />
    </g>
    <path
       d="M 4.5,6.5 C 4.0328784,6.5 3.5,7.0079308 3.5,7.5 L 3.5,38.5 C 3.5,40 4.5,40.5 7.5,40.5 L 40.5,39.5 C 41,39.5 41.5,39 41.5,38.5 L 41.5,10.5 C 41.5,9.9564016 41.001072,9.5 40.5,9.5 L 23.5,9.5 C 23.161432,9.5 22.698713,9.2731791 22.5,9 L 20,7 C 19.78113,6.6991106 19.372916,6.5 19,6.5 L 4.5,6.5 z"
       style="fill:url(#linearGradient253);fill-opacity:1;fill-rule:evenodd;stroke:url(#linearGradient6053);stroke-width:1;stroke-miterlimit:4;stroke-opacity:1"
       id="path895"
       sodipodi:nodetypes="ccccccccccccc" />
    <path
       style="opacity:0.34901961;fill:none;fill-opacity:1;fill-rule:evenodd;stroke:url(#linearGradient5987);stroke-width:1;stroke-linejoin:round;stroke-miterlimit:4;stroke-opacity:1;display:inline"
       d="M 4.5,7.5 C 4.5006383,17.935557 4.4987222,28.371118 4.5009601,38.806672 C 5.2575446,39.780492 6.9372199,39.409865 8.1036905,39.482228 C 19.235798,39.155125 29.36787,38.82557 40.5,38.5 C 40.5,29.166667 40.5,19.833333 40.5,10.5 C 34.417352,10.492699 29.334057,10.514619 23.251814,10.489009 C 22.092661,10.332368 21.398305,9.2533341 20.460178,8.6493924 C 19.779767,8.23613 19.281507,7.3341686 18.396048,7.5 C 13.764032,7.5 9.132016,7.5 4.5,7.5 z"
       id="path6021"
       sodipodi:nodetypes="ccccccccc" />
    <g
       id="g891"
       transform="matrix(0.186703,0,0,0.186703,-19.1073,57.62299)" />
    <path
       style="color:#000000;fill:url(#linearGradient4740);fill-opacity:1;fill-rule:evenodd;stroke:url(#linearGradient6045);stroke-width:0.99999988;stroke-linecap:butt;stroke-linejoin:round;marker:none;marker-start:none;marker-mid:none;marker-end:none;stroke-miterlimit:4;stroke-dashoffset:0;stroke-opacity:1;visibility:visible;display:inline;overflow:visible"
       d="M 11.5,23.5 L 20.015625,23.5 C 20.757359,23.5 21.180803,23.258941 21.5,22.90625 C 21.636743,22.755158 22.410308,22.295536 22.5,22.203704 C 22.798787,21.897786 23.430935,21.5 24,21.5 L 45,21.5 C 45.802837,21.5 46.5,21.992815 46.5,22.555555 L 43.5,38.037037 C 43.5,39.444444 42,40.5 39.5,40.5 L 7.5,40.5 C 7.0692612,40.492448 6,40.5 5.4865176,40.228752 C 6.0337955,40.273454 6.5,39.796297 6.5,39.444444 L 8.5,26.425926 C 8.5,25.37037 9.6326086,23.5 11.5,23.5 z"
       id="rect337"
       sodipodi:nodetypes="czzszccccccccc"
       inkscape:r_cx="true"
       inkscape:r_cy="true" />
    <path
       style="opacity:0.65490196;color:#000000;fill:url(#linearGradient6054);fill-opacity:1;fill-rule:evenodd;stroke:none;stroke-width:0.99999988;stroke-linecap:butt;stroke-linejoin:round;marker:none;stroke-miterlimit:4;stroke-dashoffset:0;stroke-opacity:1;visibility:visible;display:inline;overflow:visible"
       d="M 44.75,22.000446 C 37.523083,22.053065 31.291282,22.0073 24.0625,22.022667 C 22.253436,22.40492 22.557162,23.220889 21,24 C 19.342285,24.096699 17.675654,24.012634 15.602887,24.043721 C 14.160215,24.041875 12.561501,24.056642 11.175208,24.071457 C 10.092424,24.253233 9.2728198,25.307185 9,26.022569 L 7.0625,39.288906 C 6.9826491,39.619015 6.9679799,39.847175 6.75,40 L 40.274616,39.991118 C 42.634852,39.884534 43.217256,38.336563 43.216328,36.951459 C 44.142243,32.374982 45.07507,27.088122 46,22.511545 C 45.976065,22.042872 45.365262,21.994456 44.75,22.000446 z M 45,23 L 42.03125,37.866719 C 42.246705,38.993817 40.565176,39.195872 39.129756,38.979358 C 28.42047,39.015272 18.706187,38.940541 8,39 C 8.6758947,34.75748 9.2786021,31.236005 10,27 C 10.430097,25.170296 13.133314,25.473163 15,25.5 C 17.395559,25.554195 21,25.75 22,24.900015 C 23.071204,24.037404 23.197593,23 25.5,23 L 45,23 z"
       id="path6035"
       sodipodi:nodetypes="ccccccccccccccccccccc" />
    <path
       sodipodi:type="arc"
       style="opacity:1;fill:#ffffff;fill-opacity:1;stroke:none;stroke-width:1;stroke-linecap:round;stroke-linejoin:round;stroke-miterlimit:4;stroke-dasharray:none;stroke-opacity:1"
       id="path5401"
       sodipodi:cx="6.609375"
       sodipodi:cy="10"
       sodipodi:rx="0.609375"
       sodipodi:ry="0.5"
       d="M 7.21875,10 A 0.609375,0.5 0 1 1 6,10 A 0.609375,0.5 0 1 1 7.21875,10 z"
       transform="matrix(1.2307692,0,0,1.5,-3.5922052,-7.4014558)" />
  </g>
</svg>
