<?xml version="1.0" encoding="UTF-8" standalone="no"?>
<!-- Created with Inkscape (http://www.inkscape.org/) -->
<svg
   xmlns:dc="http://purl.org/dc/elements/1.1/"
   xmlns:cc="http://creativecommons.org/ns#"
   xmlns:rdf="http://www.w3.org/1999/02/22-rdf-syntax-ns#"
   xmlns:svg="http://www.w3.org/2000/svg"
   xmlns="http://www.w3.org/2000/svg"
   xmlns:xlink="http://www.w3.org/1999/xlink"
   xmlns:sodipodi="http://sodipodi.sourceforge.net/DTD/sodipodi-0.dtd"
   xmlns:inkscape="http://www.inkscape.org/namespaces/inkscape"
   version="1.0"
   x="0.0000000"
   y="0.0000000"
   width="48.000000px"
   height="48.000000px"
   id="svg1"
   sodipodi:version="0.32"
   inkscape:version="0.45+devel"
   sodipodi:docname="folder-remote-ftp.svg"
   sodipodi:docbase="/home/lapo/Icone/cvs/gnome-icon-theme/scalable/places"
   inkscape:output_extension="org.inkscape.output.svg.inkscape">
  <metadata
     id="metadata162">
    <rdf:RDF>
      <cc:Work
         rdf:about="">
        <dc:format>image/svg+xml</dc:format>
        <dc:type
           rdf:resource="http://purl.org/dc/dcmitype/StillImage" />
        <dc:title>Folder-remote</dc:title>
        <dc:creator>
          <cc:Agent>
            <dc:title>Jakub Steiner</dc:title>
          </cc:Agent>
        </dc:creator>
        <dc:date>2005-02-01</dc:date>
        <cc:license
           rdf:resource="http://creativecommons.org/licenses/GPL/2.0/" />
        <dc:identifier>http://jimmac.musichall.cz/</dc:identifier>
        <dc:subject>
          <rdf:Bag>
            <rdf:li>folder</rdf:li>
            <rdf:li>directory</rdf:li>
            <rdf:li>storage</rdf:li>
            <rdf:li>remote</rdf:li>
            <rdf:li>network</rdf:li>
          </rdf:Bag>
        </dc:subject>
        <dc:contributor>
          <cc:Agent>
            <dc:title>Ulisse Perusin</dc:title>
          </cc:Agent>
        </dc:contributor>
      </cc:Work>
      <cc:License
         rdf:about="http://creativecommons.org/licenses/GPL/2.0/">
        <cc:permits
           rdf:resource="http://web.resource.org/cc/Reproduction" />
        <cc:permits
           rdf:resource="http://web.resource.org/cc/Distribution" />
        <cc:requires
           rdf:resource="http://web.resource.org/cc/Notice" />
        <cc:permits
           rdf:resource="http://web.resource.org/cc/DerivativeWorks" />
        <cc:requires
           rdf:resource="http://web.resource.org/cc/ShareAlike" />
        <cc:requires
           rdf:resource="http://web.resource.org/cc/SourceCode" />
      </cc:License>
    </rdf:RDF>
  </metadata>
  <sodipodi:namedview
     id="base"
     pagecolor="#ffffff"
     bordercolor="#e76f6f"
     borderopacity="0.38039216"
     inkscape:pageopacity="0.0"
     inkscape:pageshadow="2"
     inkscape:window-width="1014"
     inkscape:window-height="678"
     inkscape:cy="8.1505258"
     inkscape:cx="22.174882"
     inkscape:zoom="1"
     inkscape:document-units="px"
     showgrid="false"
     inkscape:window-x="43"
     inkscape:window-y="125"
     inkscape:current-layer="layer2"
     inkscape:showpageshadow="false"
     inkscape:object-paths="true"
     inkscape:object-nodes="true"
     objecttolerance="7"
     gridtolerance="7"
     guidetolerance="7">
    <inkscape:grid
       type="xygrid"
       id="grid5404"
       spacingx="0.5px"
       spacingy="0.5px"
       empspacing="2" />
  </sodipodi:namedview>
  <defs
     id="defs3">
    <linearGradient
       id="linearGradient6026">
      <stop
         id="stop6028"
         offset="0"
         style="stop-color:#ffffff;stop-opacity:1;" />
      <stop
         id="stop6030"
         offset="1"
         style="stop-color:#ffffff;stop-opacity:0.133" />
    </linearGradient>
    <linearGradient
       id="linearGradient10997">
      <stop
         id="stop10999"
         offset="0"
         style="stop-color:#000000;stop-opacity:1;" />
      <stop
         id="stop11001"
         offset="1"
         style="stop-color:#000000;stop-opacity:0;" />
    </linearGradient>
    <linearGradient
       gradientUnits="userSpaceOnUse"
       y2="8.1000004"
       x2="19.387241"
       y1="6.1438289"
       x1="19.489662"
       id="linearGradient11003"
       xlink:href="#linearGradient10997"
       inkscape:collect="always" />
    <linearGradient
       id="linearGradient264">
      <stop
         style="stop-color:#000000;stop-opacity:0.50299400;"
         offset="0.0000000"
         id="stop265" />
      <stop
         style="stop-color:#000000;stop-opacity:0.0000000;"
         offset="1.0000000"
         id="stop266" />
    </linearGradient>
    <linearGradient
       y2="31.490198"
       x2="28.783722"
       y1="29.943159"
       x1="28.632685"
       gradientTransform="matrix(0.810817,0,0,1.233324,0.416832,-1.320616)"
       gradientUnits="userSpaceOnUse"
       id="linearGradient1437"
       xlink:href="#linearGradient264"
       inkscape:collect="always" />
    <linearGradient
       id="linearGradient218">
      <stop
         style="stop-color:#ffffff;stop-opacity:0.44910181;"
         offset="0.0000000"
         id="stop219" />
      <stop
         style="stop-color:#ffffff;stop-opacity:0.0000000;"
         offset="1.0000000"
         id="stop222" />
    </linearGradient>
    <linearGradient
       y2="22.227985"
       x2="38.105118"
       y1="22.227985"
       x1="36.373066"
       gradientTransform="matrix(1.138691,0,0,2.0382373,-20.05122,-7.9282251)"
       gradientUnits="userSpaceOnUse"
       id="linearGradient1439"
       xlink:href="#linearGradient218"
       inkscape:collect="always" />
    <linearGradient
       id="linearGradient204">
      <stop
         style="stop-color:#7a7a7a;stop-opacity:1.0000000;"
         offset="0.0000000"
         id="stop205" />
      <stop
         style="stop-color:#c5c5c5;stop-opacity:1.0000000;"
         offset="0.19801980"
         id="stop207" />
      <stop
         style="stop-color:#626262;stop-opacity:1.0000000;"
         offset="0.59900987"
         id="stop208" />
      <stop
         style="stop-color:#888888;stop-opacity:1.0000000;"
         offset="1.0000000"
         id="stop206" />
    </linearGradient>
    <linearGradient
       inkscape:collect="always"
       xlink:href="#linearGradient204"
       id="linearGradient203"
       gradientTransform="matrix(0.983801,0,0,1.016466,0.416832,0.407937)"
       x1="23.100046"
       y1="38.296745"
       x2="23.100046"
       y2="43.915466"
       gradientUnits="userSpaceOnUse" />
    <linearGradient
       id="linearGradient178">
      <stop
         style="stop-color:#ffffff;stop-opacity:0.0000000;"
         offset="0.0000000"
         id="stop179" />
      <stop
         style="stop-color:#ffffff;stop-opacity:0.70658684;"
         offset="0.10827128"
         id="stop180" />
      <stop
         style="stop-color:#ffffff;stop-opacity:0.70658684;"
         offset="0.92053902"
         id="stop181" />
      <stop
         style="stop-color:#ffffff;stop-opacity:0.0000000;"
         offset="1.0000000"
         id="stop182" />
    </linearGradient>
    <linearGradient
       y2="117.82710"
       x2="15.343062"
       y1="117.82710"
       x1="1.6422368"
       gradientTransform="matrix(2.740165,0,0,0.147685,0.3726378,24.07377)"
       gradientUnits="userSpaceOnUse"
       id="linearGradient1441"
       xlink:href="#linearGradient178"
       inkscape:collect="always" />
    <linearGradient
       y2="372.57819"
       x2="5.0856376"
       y1="372.57819"
       x1="0.61210024"
       gradientTransform="matrix(8.168597,0,0,0.228621,0.3387539,-36.925303)"
       gradientUnits="userSpaceOnUse"
       id="linearGradient1443"
       xlink:href="#linearGradient272"
       inkscape:collect="always" />
    <linearGradient
       id="linearGradient272">
      <stop
         style="stop-color:#474747;stop-opacity:0.0000000;"
         offset="0.0000000"
         id="stop273" />
      <stop
         style="stop-color:#474747;stop-opacity:1.0000000;"
         offset="0.10000000"
         id="stop275" />
      <stop
         style="stop-color:#474747;stop-opacity:1.0000000;"
         offset="0.89999998"
         id="stop276" />
      <stop
         style="stop-color:#474747;stop-opacity:0.0000000;"
         offset="1.0000000"
         id="stop274" />
    </linearGradient>
    <linearGradient
       y2="372.57819"
       x2="5.0856376"
       y1="372.57819"
       x1="0.61210024"
       gradientTransform="matrix(8.168597,0,0,0.22121,0.5674926,-38.275253)"
       gradientUnits="userSpaceOnUse"
       id="linearGradient1445"
       xlink:href="#linearGradient272"
       inkscape:collect="always" />
    <linearGradient
       id="linearGradient158">
      <stop
         style="stop-color:#686868;stop-opacity:0.0000000;"
         offset="0.0000000"
         id="stop159" />
      <stop
         style="stop-color:#686868;stop-opacity:1.0000000;"
         offset="0.23762377"
         id="stop162" />
      <stop
         style="stop-color:#686868;stop-opacity:1.0000000;"
         offset="0.78109992"
         id="stop163" />
      <stop
         style="stop-color:#686868;stop-opacity:0.0000000;"
         offset="1.0000000"
         id="stop160" />
    </linearGradient>
    <linearGradient
       y2="117.82710"
       x2="15.343062"
       y1="117.82710"
       x1="1.6422368"
       gradientTransform="matrix(2.740165,0,0,0.364942,0.416832,-0.592062)"
       gradientUnits="userSpaceOnUse"
       id="linearGradient1447"
       xlink:href="#linearGradient158"
       inkscape:collect="always" />
    <linearGradient
       inkscape:collect="always"
       id="linearGradient5990">
      <stop
         style="stop-color:#5f615c;stop-opacity:1"
         offset="0"
         id="stop5992" />
      <stop
         style="stop-color:#50524f;stop-opacity:1"
         offset="1"
         id="stop5994" />
    </linearGradient>
    <linearGradient
       id="linearGradient5984"
       inkscape:collect="always">
      <stop
         id="stop5986"
         offset="0"
         style="stop-color:#5f615c;stop-opacity:1" />
      <stop
         id="stop5988"
         offset="1"
         style="stop-color:#50524f;stop-opacity:1" />
    </linearGradient>
    <linearGradient
       id="linearGradient5985">
      <stop
         style="stop-color:#ffffff;stop-opacity:1;"
         offset="0"
         id="stop5987" />
      <stop
         style="stop-color:#ffffff;stop-opacity:0.13333334;"
         offset="1"
         id="stop5989" />
    </linearGradient>
    <linearGradient
       id="linearGradient4734">
      <stop
         style="stop-color:#cecfbf;stop-opacity:1"
         offset="0"
         id="stop4736" />
      <stop
         id="stop5982"
         offset="0.69824016"
         style="stop-color:#adae95;stop-opacity:1;" />
      <stop
         style="stop-color:#949575;stop-opacity:1;"
         offset="1"
         id="stop4738" />
    </linearGradient>
    <linearGradient
       id="linearGradient235">
      <stop
         style="stop-color:#4f4f46;stop-opacity:1"
         offset="0.0000000"
         id="stop236" />
      <stop
         style="stop-color:#a7a997;stop-opacity:1"
         offset="1.0000000"
         id="stop237" />
    </linearGradient>
    <linearGradient
       inkscape:collect="always"
       xlink:href="#linearGradient235"
       id="linearGradient253"
       gradientTransform="matrix(1.0732403,0,0,0.9371473,-1.1247905,-3.9624708)"
       x1="25.273735"
       y1="46.91095"
       x2="24.983023"
       y2="8.3744106"
       gradientUnits="userSpaceOnUse" />
    <linearGradient
       inkscape:collect="always"
       xlink:href="#linearGradient4734"
       id="linearGradient4740"
       x1="28"
       y1="18"
       x2="28.016411"
       y2="38.807583"
       gradientUnits="userSpaceOnUse"
       gradientTransform="translate(4,-4)" />
    <linearGradient
       inkscape:collect="always"
       xlink:href="#linearGradient5990"
       id="linearGradient6045"
       x1="19"
       y1="25"
       x2="7"
       y2="37"
       gradientUnits="userSpaceOnUse"
       gradientTransform="translate(2,-4)" />
    <linearGradient
       inkscape:collect="always"
       xlink:href="#linearGradient5984"
       id="linearGradient6053"
       x1="6"
       y1="9"
       x2="5.7599545"
       y2="27.345419"
       gradientUnits="userSpaceOnUse"
       gradientTransform="translate(1,-4)" />
    <linearGradient
       inkscape:collect="always"
       xlink:href="#linearGradient6026"
       id="linearGradient5987"
       gradientUnits="userSpaceOnUse"
       x1="10"
       y1="9"
       x2="25"
       y2="32"
       gradientTransform="translate(1,-4)" />
    <linearGradient
       inkscape:collect="always"
       xlink:href="#linearGradient5985"
       id="linearGradient6054"
       gradientUnits="userSpaceOnUse"
       gradientTransform="translate(2,-4)"
       x1="23"
       y1="16"
       x2="30"
       y2="30" />
    <linearGradient
       id="linearGradient2510"
       inkscape:collect="always">
      <stop
         id="stop2512"
         offset="0"
         style="stop-color:#ffffff;stop-opacity:1;" />
      <stop
         id="stop2514"
         offset="1"
         style="stop-color:#ffffff;stop-opacity:0;" />
    </linearGradient>
    <linearGradient
       id="linearGradient2540"
       inkscape:collect="always">
      <stop
         id="stop2542"
         offset="0"
         style="stop-color:#e9b96e;stop-opacity:1;" />
      <stop
         id="stop2544"
         offset="1"
         style="stop-color:#fafaf9;stop-opacity:1" />
    </linearGradient>
    <linearGradient
       id="linearGradient2564"
       inkscape:collect="always">
      <stop
         id="stop2566"
         offset="0"
         style="stop-color:#e9b96e;stop-opacity:1;" />
      <stop
         id="stop2568"
         offset="1"
         style="stop-color:#eeeeec" />
    </linearGradient>
    <linearGradient
       id="linearGradient3559">
      <stop
         id="stop3561"
         offset="0"
         style="stop-color:#ffffff;stop-opacity:1;" />
      <stop
         id="stop3563"
         offset="1"
         style="stop-color:#ffffff;stop-opacity:0;" />
    </linearGradient>
    <linearGradient
       inkscape:collect="always"
       xlink:href="#linearGradient2540"
       id="linearGradient5911"
       gradientUnits="userSpaceOnUse"
       gradientTransform="translate(-13.5,-10.12505)"
       x1="52.664932"
       y1="24.478603"
       x2="32.946236"
       y2="31.704353" />
    <linearGradient
       inkscape:collect="always"
       xlink:href="#linearGradient2564"
       id="linearGradient5913"
       gradientUnits="userSpaceOnUse"
       gradientTransform="translate(-13.5,-10.12505)"
       x1="43.487064"
       y1="31.5"
       x2="43.487064"
       y2="43.580666" />
    <linearGradient
       inkscape:collect="always"
       xlink:href="#linearGradient2510"
       id="linearGradient5915"
       gradientUnits="userSpaceOnUse"
       gradientTransform="translate(-13.5,-10.12505)"
       x1="31.781908"
       y1="29.868977"
       x2="31.781908"
       y2="48.89423" />
    <linearGradient
       inkscape:collect="always"
       xlink:href="#linearGradient3559"
       id="linearGradient5917"
       gradientUnits="userSpaceOnUse"
       x1="30.535336"
       y1="32.443649"
       x2="32.351418"
       y2="32.399456" />
    <linearGradient
       inkscape:collect="always"
       xlink:href="#linearGradient3559"
       id="linearGradient5919"
       gradientUnits="userSpaceOnUse"
       gradientTransform="translate(-2,0)"
       x1="30.535336"
       y1="32.443649"
       x2="32.351418"
       y2="32.399456" />
    <linearGradient
       inkscape:collect="always"
       xlink:href="#linearGradient3559"
       id="linearGradient5921"
       gradientUnits="userSpaceOnUse"
       gradientTransform="translate(-4,0)"
       x1="30.535336"
       y1="32.443649"
       x2="32.351418"
       y2="32.399456" />
  </defs>
  <g
     inkscape:groupmode="layer"
     id="layer1"
     inkscape:label="pixmap"
     style="display:inline" />
  <g
     inkscape:groupmode="layer"
     id="layer2"
     inkscape:label="vectors"
     style="display:inline">
    <g
       style="display:inline"
       id="g3999"
       transform="translate(0.66126,1.35713)"
       inkscape:r_cx="true"
       inkscape:r_cy="true">
      <g
         inkscape:label="Folder"
         id="g4001"
         inkscape:r_cx="true"
         inkscape:r_cy="true">
        <rect
           style="color:#000000;fill:url(#linearGradient1447);fill-opacity:1;fill-rule:nonzero;stroke:none;stroke-width:1;stroke-linecap:butt;stroke-linejoin:miter;marker:none;marker-start:none;marker-mid:none;marker-end:none;stroke-miterlimit:4;stroke-dashoffset:0;stroke-opacity:1;visibility:visible;display:block;overflow:visible"
           id="rect69"
           width="36.542522"
           height="4"
           x="5.4168181"
           y="40.407959"
           inkscape:r_cx="true"
           inkscape:r_cy="true" />
        <rect
           style="color:#000000;fill:url(#linearGradient1445);fill-opacity:1;fill-rule:nonzero;stroke:none;stroke-width:1;stroke-linecap:butt;stroke-linejoin:miter;marker:none;marker-start:none;marker-mid:none;marker-end:none;stroke-miterlimit:4;stroke-dashoffset:0;stroke-opacity:1;visibility:visible;display:block;overflow:visible"
           id="rect255"
           width="36.542522"
           height="0.98959237"
           x="5.5674787"
           y="43.648075"
           inkscape:r_cx="true"
           inkscape:r_cy="true" />
        <rect
           style="color:#000000;fill:url(#linearGradient1443);fill-opacity:1;fill-rule:nonzero;stroke:none;stroke-width:1;stroke-linecap:butt;stroke-linejoin:miter;marker:none;marker-start:none;marker-mid:none;marker-end:none;stroke-miterlimit:4;stroke-dashoffset:0;stroke-opacity:1;visibility:visible;display:block;overflow:visible"
           id="rect250"
           width="36.542522"
           height="1.022747"
           x="5.3387399"
           y="39.642872"
           inkscape:r_cx="true"
           inkscape:r_cy="true" />
        <rect
           style="color:#000000;fill:url(#linearGradient1441);fill-opacity:1;fill-rule:nonzero;stroke:none;stroke-width:1;stroke-linecap:butt;stroke-linejoin:miter;marker:none;marker-start:none;marker-mid:none;marker-end:none;stroke-miterlimit:4;stroke-dashoffset:0;stroke-opacity:1;visibility:visible;display:block;overflow:visible"
           id="rect176"
           width="36.542522"
           height="1.6187184"
           x="5.3726239"
           y="40.665619"
           inkscape:r_cx="true"
           inkscape:r_cy="true" />
        <path
           style="color:#000000;fill:url(#linearGradient203);fill-opacity:1;fill-rule:nonzero;stroke:#434343;stroke-width:1;stroke-linecap:butt;stroke-linejoin:miter;marker:none;marker-start:none;marker-mid:none;marker-end:none;stroke-miterlimit:4;stroke-dashoffset:0;stroke-opacity:1;visibility:visible;display:block;overflow:visible"
           d="M 20.83874,31.14287 L 20.83874,39.14287 L 17.33874,39.14287 C 16.55526,39.14287 15.83874,39.882139 15.83874,40.665619 L 15.816643,43.648075 C 15.816643,44.431545 16.55526,45.14287 17.33874,45.14287 L 29.33874,45.14287 C 30.12221,45.14287 30.83874,44.42634 30.83874,43.64287 L 30.83874,40.64287 C 30.83874,39.85939 30.12221,39.14287 29.33874,39.14287 L 25.83874,39.14287 L 25.83874,31.14287 L 20.83874,31.14287 z"
           id="rect183"
           inkscape:r_cx="true"
           inkscape:r_cy="true"
           sodipodi:nodetypes="ccccccccccccc" />
        <rect
           style="color:#000000;fill:url(#linearGradient1439);fill-opacity:1;fill-rule:nonzero;stroke:none;stroke-width:1;stroke-linecap:butt;stroke-linejoin:miter;marker:none;marker-start:none;marker-mid:none;marker-end:none;stroke-miterlimit:4;stroke-dashoffset:0;stroke-opacity:1;visibility:visible;display:block;overflow:visible"
           id="rect209"
           width="1.9722718"
           height="3.5303302"
           x="21.366468"
           y="35.612541"
           rx="0.29955584"
           ry="0.35251033"
           inkscape:r_cx="true"
           inkscape:r_cy="true" />
        <path
           style="color:#000000;fill:url(#linearGradient1437);fill-opacity:1;fill-rule:nonzero;stroke:none;stroke-width:1;stroke-linecap:butt;stroke-linejoin:miter;marker:none;marker-start:none;marker-mid:none;marker-end:none;stroke-miterlimit:4;stroke-dashoffset:0;stroke-opacity:1;visibility:visible;display:block;overflow:visible"
           d="M 26.510579,35.507514 L 21.377077,35.14287 C 21.377077,35.14287 21.33874,37.15849 21.33874,37.64287 C 21.88561,35.86162 26.510579,35.507514 26.510579,35.507514 z"
           id="path258"
           sodipodi:nodetypes="cccc"
           inkscape:r_cx="true"
           inkscape:r_cy="true" />
        <g
           transform="translate(-0.610968,0.736037)"
           id="g236"
           style="fill:#ffffff;fill-opacity:0.72023806"
           inkscape:r_cx="true"
           inkscape:r_cy="true">
          <rect
             style="color:#000000;fill-rule:nonzero;stroke:none;stroke-width:1.13999999;stroke-linecap:round;stroke-linejoin:round;marker:none;marker-start:none;marker-mid:none;marker-end:none;stroke-miterlimit:4;stroke-dashoffset:0;stroke-opacity:1;visibility:visible;display:block;overflow:visible"
             id="rect226"
             width="9.999999"
             height="1"
             x="19.949709"
             y="39.906834"
             rx="0.49999994"
             ry="0.5"
             inkscape:r_cx="true"
             inkscape:r_cy="true" />
          <path
             sodipodi:type="arc"
             style="color:#000000;fill-rule:nonzero;stroke:none;stroke-width:1.13999999;stroke-linecap:round;stroke-linejoin:round;marker:none;marker-start:none;marker-mid:none;marker-end:none;stroke-miterlimit:4;stroke-dashoffset:0;stroke-opacity:1;visibility:visible;display:block;overflow:visible"
             id="path235"
             sodipodi:cx="18.46875"
             sodipodi:cy="40.625"
             sodipodi:rx="0.53125"
             sodipodi:ry="0.53125"
             d="M 19,40.625 A 0.53125,0.53125 0 1 1 17.9375,40.625 A 0.53125,0.53125 0 1 1 19,40.625 z"
             transform="translate(1.2208e-2,-0.186917)"
             inkscape:r_cx="true"
             inkscape:r_cy="true" />
        </g>
        <g
           transform="translate(1.237435,-4.090477)"
           id="g17906"
           inkscape:r_cx="true"
           inkscape:r_cy="true">
          <g
             style="fill:#ffffff;fill-opacity:0.75706213;fill-rule:nonzero;stroke:none;stroke-width:0.99946535;stroke-miterlimit:4"
             id="g17962"
             transform="matrix(1.040764,0,5.449252e-2,1.040764,-8.670199,2.670594)"
             inkscape:export-filename="/home/jimmac/ximian_art/icons/nautilus/suse93/gnome-fs-directory.png"
             inkscape:export-xdpi="74.800003"
             inkscape:export-ydpi="74.800003"
             inkscape:r_cx="true"
             inkscape:r_cy="true" />
          <g
             inkscape:export-ydpi="74.800003"
             inkscape:export-xdpi="74.800003"
             inkscape:export-filename="/home/jimmac/ximian_art/icons/nautilus/suse93/gnome-fs-directory.png"
             style="opacity:0.41477272;fill:url(#linearGradient11003);fill-opacity:1;fill-rule:nonzero;stroke:#000000;stroke-miterlimit:4"
             transform="matrix(1.040764,0,5.449252e-2,1.365642,-8.358528,0.921788)"
             id="g17982"
             inkscape:r_cx="true"
             inkscape:r_cy="true" />
        </g>
      </g>
      <g
         inkscape:label="pattern"
         id="g4038"
         inkscape:r_cx="true"
         inkscape:r_cy="true" />
    </g>
    <path
       d="M 4.5,2.5 C 4.0328784,2.5 3.5,3.0079308 3.5,3.5 L 3.5,34.5 C 3.5,36 4.5,36.5 7.5,36.5 L 40.5,35.5 C 41,35.5 41.5,35 41.5,34.5 L 41.5,6.5 C 41.5,5.9564016 41.001072,5.5 40.5,5.5 L 23.5,5.5 C 23.161432,5.5 22.698713,5.2731791 22.5,5 L 20,3 C 19.78113,2.6991106 19.372916,2.5 19,2.5 L 4.5,2.5 z"
       style="fill:url(#linearGradient253);fill-opacity:1;fill-rule:evenodd;stroke:url(#linearGradient6053);stroke-width:1;stroke-miterlimit:4;stroke-opacity:1"
       id="path895"
       sodipodi:nodetypes="ccccccccccccc" />
    <path
       style="opacity:0.34999999999999998;fill:none;fill-opacity:1;fill-rule:evenodd;stroke:url(#linearGradient5987);stroke-width:1;stroke-linejoin:round;stroke-miterlimit:4;stroke-opacity:1;display:inline"
       d="M 4.5,3.5 C 4.5006383,13.935557 4.4987222,24.371118 4.5009601,34.806672 C 5.2575446,35.780492 6.9372199,35.409865 8.1036905,35.482228 C 19.235798,35.155125 29.36787,34.82557 40.5,34.5 C 40.5,25.166667 40.5,15.833333 40.5,6.5 C 34.417352,6.492699 29.334057,6.514619 23.251814,6.489009 C 22.092661,6.332368 21.398305,5.2533341 20.460178,4.6493924 C 19.779767,4.23613 19.281507,3.3341686 18.396048,3.5 C 13.764032,3.5 9.132016,3.5 4.5,3.5 z"
       id="path6021"
       sodipodi:nodetypes="ccccccccc" />
    <g
       id="g891"
       transform="matrix(0.186703,0,0,0.186703,-19.1073,57.62299)" />
    <path
       style="color:#000000;fill:url(#linearGradient4740);fill-opacity:1;fill-rule:evenodd;stroke:url(#linearGradient6045);stroke-width:0.99999988;stroke-linecap:butt;stroke-linejoin:round;marker:none;marker-start:none;marker-mid:none;marker-end:none;stroke-miterlimit:4;stroke-dashoffset:0;stroke-opacity:1;visibility:visible;display:inline;overflow:visible"
       d="M 11.5,13.5 L 19.5,13.5 C 20.241734,13.5 21.180803,13.001193 21.5,12.5 C 21.636743,12.285291 22.410308,10.630498 22.5,10.5 C 22.798787,10.065276 23.430935,9.5 24,9.5 L 45,9.5 C 45.802837,9.5 46.5,10.200315 46.5,11 L 43.5,33 C 43.5,35 42,36.5 39.5,36.5 L 7.5,36.5 C 7.0692612,36.489268 6,36.5 5.2765953,36.346561 C 5.8238732,36.410086 6.5,35.5 6.5,35 L 8.5,16.5 C 8.5,15 9.6326086,13.5 11.5,13.5 z"
       id="rect337"
       sodipodi:nodetypes="czzszccccccccc"
       inkscape:r_cx="true"
       inkscape:r_cy="true" />
    <path
       style="opacity:0.65;color:#000000;fill:url(#linearGradient6054);fill-opacity:1;fill-rule:evenodd;stroke:none;stroke-width:0.99999987999999995;stroke-linecap:butt;stroke-linejoin:round;marker:none;stroke-miterlimit:4;stroke-dashoffset:0;stroke-opacity:1;visibility:visible;display:inline;overflow:visible"
       d="M 44.6875,9.96875 C 37.460583,10.042748 31.228782,9.978389 24,10 C 22.190936,10.537556 22.52554,13.241846 20.671503,13.731052 C 18.980127,14.264665 17.5,14 15.43064,14.003474 C 13.987968,14.000878 12.389254,14.021644 11.002961,14.042479 C 9.9201775,14.298107 9.2728198,14.993967 9,16 L 7,35 C 6.9201491,35.464227 6.9054799,35.785085 6.6875,36 L 40.212116,35.987509 C 42.572352,35.837622 43.217256,33.316984 43.216328,31.369132 C 44.142243,24.933303 45.07507,17.498471 46,11.0625 C 45.976065,10.403413 45.302762,9.960326 44.6875,9.96875 z M 45,11 L 42.03125,32.65625 C 42.246705,34.24127 40.565176,35.306703 39.129756,35.002223 C 28.42047,35.052727 18.706187,34.947635 8,35.03125 C 8.6758947,29.065059 9.3485051,23.092092 10.069903,17.135061 C 10.840351,15.020755 13.737231,16.367177 15.447317,16.004647 C 17.721273,15.863813 20.353893,16.539351 22.2446,14.927471 C 23.315804,13.714394 23.197593,11 25.5,11 L 45,11 z"
       id="path6035"
       sodipodi:nodetypes="ccccccccccccccccccccc" />
    <path
       sodipodi:type="arc"
       style="opacity:1;fill:#ffffff;fill-opacity:1;stroke:none;stroke-width:1;stroke-linecap:round;stroke-linejoin:round;stroke-miterlimit:4;stroke-dasharray:none;stroke-opacity:1"
       id="path5401"
       sodipodi:cx="6.609375"
       sodipodi:cy="10"
       sodipodi:rx="0.609375"
       sodipodi:ry="0.5"
       d="M 7.21875,10 A 0.609375,0.5 0 1 1 6,10 A 0.609375,0.5 0 1 1 7.21875,10 z"
       transform="matrix(1.2307692,0,0,1.5,-3.5922052,-11.401456)" />
    <g
       id="layer6"
       inkscape:label="FTP"
       style="display:inline"
       transform="translate(-1.0915172,-3.1628418e-7)">
      <g
         id="g1467"
         transform="translate(0,-2.999902)">
        <g
           transform="matrix(0.991005,0,0.123875,1,12.04123,10.12495)"
           id="g2602">
          <path
             style="opacity:1;fill:url(#linearGradient5911);fill-opacity:1;fill-rule:nonzero;stroke:#8f5902;stroke-width:1.00452816;stroke-linecap:round;stroke-linejoin:round;marker:none;marker-start:none;marker-mid:none;marker-end:none;stroke-miterlimit:4;stroke-dasharray:none;stroke-dashoffset:0;stroke-opacity:1;visibility:visible;display:inline;overflow:visible"
             d="M 19.03125,18.374952 L 18.03125,21.374952 L 18.03125,30.374952 C 18.03125,30.383687 18.031032,30.397521 18.03125,30.406202 C 18.035159,30.483814 18.042161,30.58427 18.0625,30.656202 C 18.091897,30.751113 18.164453,30.856949 18.21875,30.937452 C 18.228112,30.950635 18.24003,30.987252 18.25,30.999952 C 18.255133,31.006177 18.275971,31.025104 18.28125,31.031202 C 18.302937,31.055073 18.351129,31.103265 18.375,31.124952 C 18.381098,31.130231 18.400025,31.151069 18.40625,31.156202 C 18.41895,31.166172 18.455567,31.17809 18.46875,31.187452 C 18.549253,31.241749 18.655089,31.314305 18.75,31.343702 C 18.821932,31.364041 18.922388,31.371043 19,31.374952 C 19.008681,31.37517 19.022515,31.374952 19.03125,31.374952 L 29.96875,31.374952 C 29.977485,31.374952 29.991319,31.37517 30,31.374952 C 30.077612,31.371043 30.178068,31.364041 30.25,31.343702 C 30.344911,31.314305 30.450747,31.241749 30.53125,31.187452 C 30.544433,31.17809 30.58105,31.166172 30.59375,31.156202 C 30.599975,31.151069 30.618902,31.130231 30.625,31.124952 C 30.648871,31.103265 30.697063,31.055073 30.71875,31.031202 C 30.724029,31.025104 30.744867,31.006177 30.75,30.999952 C 30.75997,30.987252 30.771888,30.950635 30.78125,30.937452 C 30.835547,30.856949 30.908103,30.751113 30.9375,30.656202 C 30.957839,30.58427 30.964841,30.483814 30.96875,30.406202 C 30.968968,30.397521 30.96875,30.383687 30.96875,30.374952 L 30.96875,21.374952 L 29.96875,18.374952 L 19.03125,18.374952 z"
             id="path2588"
             sodipodi:nodetypes="cccssssssssssccsssssssssscccc" />
          <rect
             style="opacity:1;fill:url(#linearGradient5913);fill-opacity:1;fill-rule:nonzero;stroke:none;stroke-width:1;stroke-linecap:round;stroke-linejoin:round;marker:none;marker-start:none;marker-mid:none;marker-end:none;stroke-miterlimit:4;stroke-dasharray:none;stroke-dashoffset:0;stroke-opacity:1;visibility:visible;display:inline;overflow:visible"
             id="rect2590"
             width="12"
             height="9.5"
             x="18.5"
             y="21.374952"
             rx="0.62433439"
             ry="0.61394072" />
          <path
             style="opacity:0.8;fill:none;fill-opacity:1;fill-rule:nonzero;stroke:url(#linearGradient5915);stroke-width:1.00452816;stroke-linecap:round;stroke-linejoin:round;marker:none;marker-start:none;marker-mid:none;marker-end:none;stroke-miterlimit:4;stroke-dasharray:none;stroke-dashoffset:0;stroke-opacity:1;visibility:visible;display:inline;overflow:visible"
             d="M 19.734835,19.374952 L 19,21.374952 L 19,30.374952 L 30,30.374952 L 30,21.374952 L 29.243068,19.374952 L 19.734835,19.374952 z"
             id="path2592"
             sodipodi:nodetypes="ccccccc" />
          <path
             style="fill:none;fill-opacity:0.75;fill-rule:evenodd;stroke:#ffffff;stroke-width:1.00452816;stroke-linecap:round;stroke-linejoin:miter;stroke-miterlimit:4;stroke-dasharray:none;stroke-opacity:1;display:inline"
             d="M 19,21.374952 L 30,21.374952"
             id="path2594"
             sodipodi:nodetypes="cc" />
        </g>
        <path
           style="opacity:1;fill:none;fill-opacity:1;fill-rule:nonzero;stroke:url(#linearGradient5917);stroke-width:1.00000012;stroke-linecap:round;stroke-linejoin:round;marker:none;marker-start:none;marker-mid:none;marker-end:none;stroke-miterlimit:4;stroke-dasharray:none;stroke-dashoffset:0;stroke-opacity:1;visibility:visible;display:inline;overflow:visible"
           d="M 31.177491,28.499902 L 30.558111,31.499902 L 31.672986,40.499902 C 31.674068,40.508637 31.675566,40.522471 31.676857,40.531152 C 31.690345,40.608764 31.709728,40.70922 31.738795,40.781152 C 31.779685,40.876063 31.864698,40.981899 31.928479,41.062402 C 31.93939,41.075585 31.955737,41.112202 31.96719,41.124902 C 31.973048,41.131127 31.996043,41.150054 32.00203,41.156152 C 32.026479,41.180023 32.080208,41.228215 32.10655,41.249902 C 32.113247,41.255181 32.134585,41.276019 32.14139,41.281152 C 32.155211,41.291122 32.192975,41.30304 32.207199,41.312402 C 32.293704,41.366699 32.407576,41.439255 32.505275,41.468652 C 32.579079,41.488991 32.679499,41.495993 32.756897,41.499902 C 32.765527,41.50012 32.77921,41.499902 32.787866,41.499902 L 43.626983,41.499902 C 43.63564,41.499902 43.649376,41.50012 43.657952,41.499902 C 43.734382,41.495993 43.833067,41.488991 43.901832,41.468652 C 43.992248,41.439255 44.088144,41.366699 44.161197,41.312402 C 44.173102,41.30304 44.207913,41.291122 44.219264,41.281152 C 44.224797,41.276019 44.240972,41.255181 44.246362,41.249902 C 44.267331,41.228215 44.30912,41.180023 44.327655,41.156152 C 44.332131,41.150054 44.350437,41.131127 44.354753,41.124902 C 44.36306,41.112202 44.370335,41.075585 44.37798,41.062402 C 44.421816,40.981899 44.480609,40.876063 44.497984,40.781152 C 44.50923,40.70922 44.503725,40.608764 44.497984,40.531152 C 44.497125,40.522471 44.495195,40.508637 44.494113,40.499902 L 43.379238,31.499902 L 42.016608,28.499902 L 31.177491,28.499902 z"
           id="path3553"
           sodipodi:nodetypes="cccssssssssssccsssssssssscccc" />
        <path
           style="opacity:0.7;fill:none;fill-opacity:1;fill-rule:nonzero;stroke:url(#linearGradient5919);stroke-width:1.00000012;stroke-linecap:round;stroke-linejoin:round;marker:none;marker-start:none;marker-mid:none;marker-end:none;stroke-miterlimit:4;stroke-dasharray:none;stroke-dashoffset:0;stroke-opacity:1;visibility:visible;display:inline;overflow:visible"
           d="M 29.177491,28.499902 L 28.558111,31.499902 L 29.672986,40.499902 C 29.674068,40.508637 29.675566,40.522471 29.676857,40.531152 C 29.690345,40.608764 29.709728,40.70922 29.738795,40.781152 C 29.779685,40.876063 29.864698,40.981899 29.928479,41.062402 C 29.93939,41.075585 29.955737,41.112202 29.96719,41.124902 C 29.973048,41.131127 29.996043,41.150054 30.00203,41.156152 C 30.026479,41.180023 30.080208,41.228215 30.10655,41.249902 C 30.113247,41.255181 30.134585,41.276019 30.14139,41.281152 C 30.155211,41.291122 30.192975,41.30304 30.207199,41.312402 C 30.293704,41.366699 30.407576,41.439255 30.505275,41.468652 C 30.579079,41.488991 30.679499,41.495993 30.756897,41.499902 C 30.765527,41.50012 30.77921,41.499902 30.787866,41.499902 L 41.626983,41.499902 C 41.63564,41.499902 41.649376,41.50012 41.657952,41.499902 C 41.734382,41.495993 41.833067,41.488991 41.901832,41.468652 C 41.992248,41.439255 42.088144,41.366699 42.161197,41.312402 C 42.173102,41.30304 42.207913,41.291122 42.219264,41.281152 C 42.224797,41.276019 42.240972,41.255181 42.246362,41.249902 C 42.267331,41.228215 42.30912,41.180023 42.327655,41.156152 C 42.332131,41.150054 42.350437,41.131127 42.354753,41.124902 C 42.36306,41.112202 42.370335,41.075585 42.37798,41.062402 C 42.421816,40.981899 42.480609,40.876063 42.497984,40.781152 C 42.50923,40.70922 42.503725,40.608764 42.497984,40.531152 C 42.497125,40.522471 42.495195,40.508637 42.494113,40.499902 L 41.379238,31.499902 L 40.016608,28.499902 L 29.177491,28.499902 z"
           id="path3575"
           sodipodi:nodetypes="cccssssssssssccsssssssssscccc" />
        <path
           style="opacity:0.4;fill:none;fill-opacity:1;fill-rule:nonzero;stroke:url(#linearGradient5921);stroke-width:1.00000012;stroke-linecap:round;stroke-linejoin:round;marker:none;marker-start:none;marker-mid:none;marker-end:none;stroke-miterlimit:4;stroke-dasharray:none;stroke-dashoffset:0;stroke-opacity:1;visibility:visible;display:inline;overflow:visible"
           d="M 27.177491,28.499902 L 26.558111,31.499902 L 27.672986,40.499902 C 27.674068,40.508637 27.675566,40.522471 27.676857,40.531152 C 27.690345,40.608764 27.709728,40.70922 27.738795,40.781152 C 27.779685,40.876063 27.864698,40.981899 27.928479,41.062402 C 27.93939,41.075585 27.955737,41.112202 27.96719,41.124902 C 27.973048,41.131127 27.996043,41.150054 28.00203,41.156152 C 28.026479,41.180023 28.080208,41.228215 28.10655,41.249902 C 28.113247,41.255181 28.134585,41.276019 28.14139,41.281152 C 28.155211,41.291122 28.192975,41.30304 28.207199,41.312402 C 28.293704,41.366699 28.407576,41.439255 28.505275,41.468652 C 28.579079,41.488991 28.679499,41.495993 28.756897,41.499902 C 28.765527,41.50012 28.77921,41.499902 28.787866,41.499902 L 39.626983,41.499902 C 39.63564,41.499902 39.649376,41.50012 39.657952,41.499902 C 39.734382,41.495993 39.833067,41.488991 39.901832,41.468652 C 39.992248,41.439255 40.088144,41.366699 40.161197,41.312402 C 40.173102,41.30304 40.207913,41.291122 40.219264,41.281152 C 40.224797,41.276019 40.240972,41.255181 40.246362,41.249902 C 40.267331,41.228215 40.30912,41.180023 40.327655,41.156152 C 40.332131,41.150054 40.350437,41.131127 40.354753,41.124902 C 40.36306,41.112202 40.370335,41.075585 40.37798,41.062402 C 40.421816,40.981899 40.480609,40.876063 40.497984,40.781152 C 40.50923,40.70922 40.503725,40.608764 40.497984,40.531152 C 40.497125,40.522471 40.495195,40.508637 40.494113,40.499902 L 39.379238,31.499902 L 38.016608,28.499902 L 27.177491,28.499902 z"
           id="path3595"
           sodipodi:nodetypes="cccssssssssssccsssssssssscccc" />
      </g>
    </g>
  </g>
</svg>
