<?xml version="1.0" encoding="UTF-8" standalone="no"?>
<!-- Generator: Adobe Illustrator 9.0, SVG Export Plug-In  -->
<svg
   xmlns:dc="http://purl.org/dc/elements/1.1/"
   xmlns:cc="http://web.resource.org/cc/"
   xmlns:rdf="http://www.w3.org/1999/02/22-rdf-syntax-ns#"
   xmlns:svg="http://www.w3.org/2000/svg"
   xmlns="http://www.w3.org/2000/svg"
   xmlns:sodipodi="http://inkscape.sourceforge.net/DTD/sodipodi-0.dtd"
   xmlns:inkscape="http://www.inkscape.org/namespaces/inkscape"
   width="24pt"
   height="24pt"
   viewBox="0 0 24 24"
   xml:space="preserve"
   id="svg2"
   sodipodi:version="0.32"
   inkscape:version="0.42+devel"
   sodipodi:docname="gtk-close.svg"
   sodipodi:docbase="/home/cschalle/gnome/gnome-themes-extras/Gorilla/icons/scalable/stock"><metadata
   id="metadata21"><rdf:RDF><cc:Work
       rdf:about=""><dc:format>image/svg+xml</dc:format><dc:type
         rdf:resource="http://purl.org/dc/dcmitype/StillImage" /></cc:Work></rdf:RDF></metadata><defs
   id="defs19" /><sodipodi:namedview
   inkscape:cy="28.359468"
   inkscape:cx="0.86374014"
   inkscape:zoom="4.7154422"
   inkscape:window-height="553"
   inkscape:window-width="814"
   inkscape:pageshadow="2"
   inkscape:pageopacity="0.0"
   borderopacity="1.0"
   bordercolor="#666666"
   pagecolor="#ffffff"
   id="base"
   inkscape:window-x="237"
   inkscape:window-y="288"
   inkscape:current-layer="svg2" />
	<g
   id="Layer_x0020_3"
   style="fill-rule:nonzero;stroke:#000000;stroke-miterlimit:4"
   transform="matrix(0.724310,0.000000,0.000000,0.724310,3.053796,3.562762)">
		<path
   style="fill-rule:evenodd;stroke-width:2.89120007"
   d="M 15.8,11.9 L 19.7,8 C 20.8,6.9 20.8,5.2 19.7,4.1 C 18.6,3 16.9,3 15.8,4.1 L 11.9,8 L 8,4.1 C 6.9,3 5.1,3 4.1,4.1 C 3,5.2 3,7 4.1,8 L 8,11.9 L 4.1,15.8 C 3,16.9 3,18.6 4.1,19.7 C 5.2,20.8 6.9,20.8 8,19.7 L 11.9,15.8 L 15.8,19.7 C 16.9,20.8 18.6,20.8 19.7,19.7 C 20.8,18.6 20.8,16.9 19.7,15.8 L 15.8,11.9 L 15.8,11.9 z "
   id="path5" />
		<radialGradient
   id="aigrd1"
   cx="3.1196001"
   cy="0.88529998"
   r="43.995499"
   fx="3.1196001"
   fy="0.88529998"
   gradientUnits="userSpaceOnUse">
			<stop
   offset="0"
   style="stop-color:#FED182"
   id="stop8" />
			<stop
   offset="0.2809"
   style="stop-color:#FFB310"
   id="stop10" />
			<stop
   offset="1"
   style="stop-color:#996E04"
   id="stop12" />
		</radialGradient>
		<path
   style="fill:url(#aigrd1);fill-rule:evenodd;stroke:none"
   d="M 15.8,11.9 L 19.7,8 C 20.8,6.9 20.8,5.2 19.7,4.1 C 18.6,3 16.9,3 15.8,4.1 L 11.9,8 L 8,4.1 C 6.9,3 5.1,3 4.1,4.1 C 3,5.2 3,7 4.1,8 L 8,11.9 L 4.1,15.8 C 3,16.9 3,18.6 4.1,19.7 C 5.2,20.8 6.9,20.8 8,19.7 L 11.9,15.8 L 15.8,19.7 C 16.9,20.8 18.6,20.8 19.7,19.7 C 20.8,18.6 20.8,16.9 19.7,15.8 L 15.8,11.9 L 15.8,11.9 z "
   id="path14" />
		<path
   style="fill:none;stroke:none"
   d="M 24,24 L 0,24 L 0,0 L 24,0 L 24,24 z "
   id="path16" />
	</g>
</svg>