<?xml version="1.0" encoding="utf-8"?>
<!-- Generator: Adobe Illustrator 10.0.3, SVG Export Plug-In . SVG Version: 3.0.0 Build 77)  -->
<!DOCTYPE svg PUBLIC "-//W3C//DTD SVG 1.0//EN"    "http://www.w3.org/TR/2001/REC-SVG-20010904/DTD/svg10.dtd" [
	<!ENTITY ns_flows "http://ns.adobe.com/Flows/1.0/">
	<!ENTITY ns_extend "http://ns.adobe.com/Extensibility/1.0/">
	<!ENTITY ns_ai "http://ns.adobe.com/AdobeIllustrator/10.0/">
	<!ENTITY ns_svg "http://www.w3.org/2000/svg">
	<!ENTITY ns_xlink "http://www.w3.org/1999/xlink">
]>
<svg  xmlns:x="&ns_extend;" xmlns:i="&ns_ai;" xmlns:graph="&ns_graphs;"
	 xmlns="&ns_svg;" xmlns:xlink="&ns_xlink;" xmlns:a="http://ns.adobe.com/AdobeSVGViewerExtensions/3.0/" width="125" height="121"
	 viewBox="-0.341 0.282 125 121" overflow="visible" enable-background="new -0.341 0.282 125 121" xml:space="preserve">
	<filter  id="AI_GaussianBlur_4">
		<feGaussianBlur  stdDeviation="4"></feGaussianBlur>
	</filter>
	<g id="Layer_1_2_">
		<path d="M19.171,7.876c-0.191,0.038-0.402,0.08-0.402,0.08l-6.089,7.252l0.122-0.138l-2.033,2.421l0.107-0.137l-0.373,0.443
			c0,0,0.028,0.026,0.029,0.027c-4.5,6.203-6.783,14.676-6.783,25.193c0,0.197,0.002,0.396,0.003,0.596
			c0.147,18.091,7.583,38.254,19.892,53.937c0.001,0.001,1.425,1.81,1.425,1.81l0.152,0.123c1.942,1.745,5.101,2.033,5.714,2.072
			l1.055,0.069c0,0,13.344-9.374,17.193-12.079c1.877,2.982,10.506,16.693,10.506,16.693s0-7.913,0-9.464
			c1.114-1.253,5.602-6.301,5.602-6.301V61.133L39.438,48.889l-8.239,10.097c0,0,3.28,5.719,4.728,8.241
			c-1.223,0.881-1.683,1.213-2.972,2.143c-2.875-4.603-8.738-16.312-8.738-30.489c0-0.133,0.001-0.266,0.002-0.397
			c0.041-5.386,0.987-9.878,2.758-13.426c7.509-5.008,18.127-3.052,22.394-1.96c0.122,0.039,4.309,1.366,4.309,1.366
			c1.554,0.61,2.798,0.401,3.567,0.118l0.704-0.259l6.87-7.707l0.098-0.14c0.934-1.324,1.227-3.239,0.802-5.256
			c-0.474-2.251-1.693-4.111-3.345-5.104l-0.977-0.602c-1.3-0.809-2.643-1.645-4.65-2.44C45.897-1.225,29.727-2.425,19.171,7.876z"
			/>
		<g filter="url(#AI_GaussianBlur_4)"  a:adobe-knockout="true">
			<path opacity="0.2"  a:adobe-knockout="false" d="M10.443,92.177c1.272-9.353,25.683-13.753,54.521-9.83
				c28.839,3.926,51.185,14.688,49.912,24.04c-1.272,9.354-25.683,13.755-54.52,9.831C31.518,112.294,9.171,101.53,10.443,92.177z"
				/>
		</g>
		<g>
			<linearGradient id="XMLID_2_" gradientUnits="userSpaceOnUse" x1="31.1426" y1="69.4365" x2="22.9194" y2="47.0509">
				<stop  offset="0" style="stop-color:#FF0000"/>
				<stop  offset="1" style="stop-color:#8D0303"/>
			</linearGradient>
			<path fill="url(#XMLID_2_)" d="M15.616,44.964c-0.147,19.172,9.751,33.921,11.08,35.081l14.185-10.229l-1.008-1.738l-7.575,5.463
				c-1.33-1.16-11.229-15.91-11.08-35.082c0.051-6.574,1.316-11.586,3.367-15.393C19.397,26.854,15.704,33.591,15.616,44.964z"/>
			<linearGradient id="XMLID_3_" gradientUnits="userSpaceOnUse" x1="39.6729" y1="69.3936" x2="33.5047" y2="73.963">
				<stop  offset="0" style="stop-color:#FF0000"/>
				<stop  offset="1" style="stop-color:#FF6666"/>
			</linearGradient>
			<path fill="url(#XMLID_3_)" d="M26.696,80.045l14.185-10.229l-1.008-1.738l-7.575,5.463L26.696,80.045z"/>
			<linearGradient id="XMLID_4_" gradientUnits="userSpaceOnUse" x1="35.0234" y1="74.1104" x2="62.29" y2="74.1104">
				<stop  offset="0" style="stop-color:#FF0000"/>
				<stop  offset="1" style="stop-color:#8D0303"/>
			</linearGradient>
			<path fill="url(#XMLID_4_)" d="M35.023,59.116l21.665,10.42l0.018,26.079l5.584-6.281V63.03L40.276,52.604L35.023,59.116z"/>
			<linearGradient id="XMLID_5_" gradientUnits="userSpaceOnUse" x1="58.8467" y1="70.5176" x2="59.7604" y2="82.8554">
				<stop  offset="0" style="stop-color:#FF0000"/>
				<stop  offset="1" style="stop-color:#8D0303"/>
			</linearGradient>
			<path fill="url(#XMLID_5_)" d="M56.688,69.536l0.018,26.079l5.584-6.281V63.03L56.688,69.536z"/>
		</g>
		<linearGradient id="XMLID_6_" gradientUnits="userSpaceOnUse" x1="51.2148" y1="12.5586" x2="23.573" y2="11.8731">
			<stop  offset="0" style="stop-color:#FF0000"/>
			<stop  offset="1" style="stop-color:#FF6666"/>
		</linearGradient>
		<path fill="url(#XMLID_6_)" d="M60.829,8.688c-1.703-1.024-2.971-1.946-5.188-2.824c-10.386-4.114-25.703-5.086-35.057,4.791
			l-0.197,0.039L12.8,19.728l5.336-5.336c7.714-5.633,18.016-5.854,26.6-3.715l11.609,11.219l6.121-7.149
			C63.468,13.326,62.715,9.822,60.829,8.688z"/>
		<linearGradient id="XMLID_7_" gradientUnits="userSpaceOnUse" x1="55.2197" y1="11.8311" x2="58.4186" y2="17.0857">
			<stop  offset="0" style="stop-color:#FF0000"/>
			<stop  offset="1" style="stop-color:#8D0303"/>
		</linearGradient>
		<path fill="url(#XMLID_7_)" d="M60.829,8.688c-1.703-1.024-10.908,6.999-10.908,6.999l6.424,6.209l6.121-7.149
			C63.468,13.326,62.715,9.822,60.829,8.688z"/>
		<linearGradient id="XMLID_8_" gradientUnits="userSpaceOnUse" x1="37.0176" y1="55.1729" x2="64.8667" y2="40.6295">
			<stop  offset="0" style="stop-color:#FF0000"/>
			<stop  offset="1" style="stop-color:#FF6666"/>
		</linearGradient>
		<path fill="url(#XMLID_8_)" d="M27.226,97.251C14.935,82.304,6.903,62.222,6.752,43.589C6.456,7.084,34.085,6.047,50.041,12.368
			c2.216,0.878,3.484,1.799,5.188,2.824c2.644,1.591,3.081,7.863-0.46,6.477c-10.785-4.227-38.908-8.364-39.152,23.295
			c-0.147,19.172,9.751,33.921,11.08,35.081l14.185-10.229l-6.205-10.706l22.013,10.427v26.303l-6.647-10.562L31.13,98.562
			C31.13,98.562,28.493,98.39,27.226,97.251z"/>
		<linearGradient id="XMLID_9_" gradientUnits="userSpaceOnUse" x1="43.1572" y1="80.5908" x2="53.6782" y2="67.5944">
			<stop  offset="0" style="stop-color:#FF0000"/>
			<stop  offset="1" style="stop-color:#FF6666"/>
		</linearGradient>
		<path fill="url(#XMLID_9_)" d="M27.226,97.251c-12.291-14.947-1.858-18.366-0.529-17.206l14.185-10.229l-6.205-10.706
			l22.013,10.427v26.303l-6.647-10.562L31.13,98.562C31.13,98.562,28.493,98.39,27.226,97.251z"/>
		<path d="M74.823,15.33c0,0-12.472,8.761-16.326,11.469c-1.883-3.002-4.721-4.667-4.721-4.667l-6.646-1.596l-5.188,4.624v30.035
			L68.19,67.42l8.476-9.84c0,0-3.422-5.906-4.905-8.466c1.221-0.88,1.676-1.208,2.961-2.135c2.875,4.604,8.738,16.315,8.738,30.491
			c0,0.132,0,0.263-0.001,0.395c-0.041,5.324-0.933,9.796-2.644,13.299c-8.289,5.632-21.122,3.002-26.853,0.756
			c-1.865-0.731-3.69-0.46-5.005,0.745l-0.131,0.12l-5.906,6.862l-0.1,0.14c-0.965,1.305-1.287,3.214-0.885,5.238
			c0.457,2.297,1.684,4.194,3.363,5.205l0.977,0.601c1.301,0.81,2.645,1.646,4.651,2.441c12.358,4.895,28.918,4.822,38.731-5.99
			c0.015,0.011,0.195,0.14,0.195,0.14l5.987-7.229c5.45-6.385,8.179-15.635,8.083-27.46c-0.153-18.854-8.062-39.617-21.156-55.543
			l-0.144-0.175l-0.168-0.151c-1.941-1.744-5.101-2.033-5.714-2.072l-1.055-0.069L74.823,15.33z"/>
		<linearGradient id="XMLID_10_" gradientUnits="userSpaceOnUse" x1="45.2256" y1="99.0967" x2="83.0518" y2="99.0967">
			<stop  offset="0" style="stop-color:#0D65FF"/>
			<stop  offset="1" style="stop-color:#000077"/>
		</linearGradient>
		<path fill="url(#XMLID_10_)" d="M83.052,93.315c-9.252,6.76-23.272,4.105-30.184,1.397c-0.852-0.334-1.468-0.217-1.884,0.164
			l-5.759,6.69l7.899,3.311l11.108-0.836C71.534,103.698,78.913,100.999,83.052,93.315z"/>
		<linearGradient id="XMLID_11_" gradientUnits="userSpaceOnUse" x1="73.4619" y1="55.7881" x2="65.1063" y2="56.0977">
			<stop  offset="0" style="stop-color:#0D65FF"/>
			<stop  offset="1" style="stop-color:#000077"/>
		</linearGradient>
		<path fill="url(#XMLID_11_)" d="M67.399,63.742l5.602-6.505l-5.197-8.968l-6.608,4.767L67.399,63.742z"/>
		<linearGradient id="XMLID_12_" gradientUnits="userSpaceOnUse" x1="93.0752" y1="65.1152" x2="72.0315" y2="67.9005">
			<stop  offset="0" style="stop-color:#0D65FF"/>
			<stop  offset="1" style="stop-color:#0808FF"/>
		</linearGradient>
		<path fill="url(#XMLID_12_)" d="M74.851,25.601c12.29,14.947,20.322,35.029,20.473,53.662
			c0.297,36.506-27.332,37.541-43.289,31.221c-2.215-0.878-3.484-1.799-5.188-2.824c-2.643-1.59-3.08-7.863,0.461-6.476
			c10.785,4.226,38.907,8.362,39.151-23.296c0.147-19.172-9.751-33.921-11.08-35.081L61.195,53.036l6.204,10.706l-22.456-10.46
			v-27.01l7.091,11.303L70.946,24.29C70.946,24.29,73.583,24.462,74.851,25.601z"/>
		<linearGradient id="XMLID_13_" gradientUnits="userSpaceOnUse" x1="93.6289" y1="52.25" x2="82.7976" y2="57.2015">
			<stop  offset="0" style="stop-color:#6666FF"/>
			<stop  offset="1" style="stop-color:#080886"/>
		</linearGradient>
		<path fill="url(#XMLID_13_)" d="M100.925,72.757c-0.151-18.631-8.184-38.715-20.474-53.662c-1.267-1.138-3.903-1.311-3.903-1.311
			L57.636,31.071l-4.656-7.61l-4.85-0.889l-3.187,3.7l7.091,11.303L70.946,24.29c0,0,2.637,0.172,3.904,1.311
			c12.29,14.947,20.322,35.029,20.473,53.662c0.064,7.848-1.172,14.043-3.299,18.887l-4.48,7.358l5.987-7.229
			C98.081,92.948,101.022,84.784,100.925,72.757z"/>
		<path fill="#0D65FF" d="M76.548,17.784L57.636,31.071l-5.602,6.504L70.946,24.29L76.548,17.784z"/>
		<linearGradient id="XMLID_14_" gradientUnits="userSpaceOnUse" x1="64.5752" y1="51.7236" x2="99.2356" y2="70.6008">
			<stop  offset="0" style="stop-color:#0D65FF"/>
			<stop  offset="1" style="stop-color:#000077"/>
		</linearGradient>
		<path fill="url(#XMLID_14_)" d="M100.925,72.757c-0.151-18.631-8.184-38.715-20.474-53.662c-1.267-1.138-3.903-1.311-3.903-1.311
			l-5.602,6.506c0,0,2.637,0.172,3.904,1.311c12.29,14.947,20.322,35.029,20.473,53.662c0.064,7.848-1.172,14.043-3.299,18.887
			l-4.48,7.358l5.987-7.229C98.081,92.948,101.022,84.784,100.925,72.757z"/>
	</g>
</svg>
