<?xml version="1.0" encoding="UTF-8" standalone="no"?>
<!DOCTYPE svg PUBLIC "-//W3C//DTD SVG 20010904//EN"
"http://www.w3.org/TR/2001/REC-SVG-20010904/DTD/svg10.dtd"
[
 <!ATTLIST svg
  xmlns:xlink CDATA #FIXED "http://www.w3.org/1999/xlink">
]>
<!-- Created with Sodipodi ("http://www.sodipodi.com/") -->
<svg
   xmlns="http://www.w3.org/2000/svg"
   xmlns:xlink="http://www.w3.org/1999/xlink"
   version="1"
   x="0.00000000"
   y="0.00000000"
   width="90.0000000"
   height="118.000000"
   viewBox="0.414 -0.448 90 118"
   id="svg548">
  <defs
     id="defs732" />
  <rect
     width="32.1139259"
     height="20.1645584"
     ry="3.44272685"
     x="22.0722275"
     y="67.1406097"
     style="font-size:12;fill-rule:evenodd;stroke-width:1pt;"
     id="rect976" />
  <path
     d="M 36.441 4.021 C 53.829 4.021 67.925 18.117 67.925 35.505 C 67.925 52.893 53.829 66.989 36.441 66.989 C 19.053 66.989 4.958 52.892 4.958 35.504 C 4.958 18.116 19.053 4.021 36.441 4.021 z "
     transform="matrix(1.124538,0.000000,0.000000,1.130467,-3.231383,-1.271441)"
     style="font-size:12;fill:#000031;"
     id="path563" />
  <path
     d="M 90.271 102.633 L 38.208 102.633 L 38.208 117.161 L 90.27 117.161 L 90.27 102.633 L 90.271 102.633 z "
     style="font-size:12;opacity:0.2;"
     id="path676" />
  <path
     d="M 29.512 107.597 L 29.512 106.535 L 28.118 106.535 L 28.118 107.597 C 28.118 112.96 32.55 117.161 38.208 117.161 C 43.868 117.161 48.299 112.96 48.299 107.597 L 48.299 106.535 L 46.904 106.535 L 46.904 107.597 "
     style="font-size:12;"
     id="path677" />
  <g
     style="font-size:12;"
     id="g687">
    <linearGradient
       x1="21.7392998"
       y1="94.1436005"
       x2="54.3349991"
       y2="94.1436005"
       id="XMLID_2_"
       gradientUnits="userSpaceOnUse"
       spreadMethod="pad">
      <stop
         style="stop-color:#c2c2c2;stop-opacity:1;"
         offset="0.02230000"
         id="stop689" />
      <stop
         style="stop-color:#ffffff;stop-opacity:1;"
         offset="0.38550001"
         id="stop690" />
      <stop
         style="stop-color:#000000;stop-opacity:1;"
         offset="1.00000000"
         id="stop691" />
      <a:midPointStop
         offset="0.0223"
         style="stop-color:#C2C2C2"
         id="midPointStop692" />
      <a:midPointStop
         offset="0.5"
         style="stop-color:#C2C2C2"
         id="midPointStop693" />
      <a:midPointStop
         offset="0.3855"
         style="stop-color:#FFFFFF"
         id="midPointStop694" />
      <a:midPointStop
         offset="0.5"
         style="stop-color:#FFFFFF"
         id="midPointStop695" />
      <a:midPointStop
         offset="1"
         style="stop-color:#000000"
         id="midPointStop696" />
    </linearGradient>
    <path
       d="M 21.739 77.902 C 21.739 83.252 29.037 87.588 38.037 87.588 C 47.037 87.588 54.335 83.252 54.335 77.902 L 54.335 100.698 C 54.335 106.048 47.037 110.385 38.037 110.385 C 29.037 110.385 21.739 106.048 21.739 100.698 L 21.739 77.902 L 21.739 77.902 z "
       style="fill:url(#XMLID_2_);"
       id="path697" />
  </g>
  <path
     d="M 76.073 38.036 C 76.073 17.062 59.011 0 38.037 0 C 17.062 0 0 17.062 0 38.036 C 0 50.675 6.255 62.436 16.734 69.535 C 20.156 72.37 19.942 75.599 19.931 75.736 L 19.925 75.807 L 19.922 75.902 L 19.922 100.959 C 19.922 107.409 27.878 112.461 38.036 112.461 C 48.193 112.461 56.149 107.409 56.149 100.959 L 56.149 75.902 L 56.147 75.807 L 56.141 75.736 C 56.13 75.599 55.916 72.37 59.338 69.535 C 69.819 62.437 76.073 50.675 76.073 38.036 z M 57.188 66.611 L 57.114 66.661 L 57.045 66.718 C 52.418 70.536 52.469 75.126 52.519 75.957 L 52.519 100.959 C 52.519 105.226 45.887 108.829 38.038 108.829 C 30.189 108.829 23.557 105.225 23.557 100.959 L 23.557 75.957 C 23.607 75.126 23.658 70.536 19.031 66.718 L 18.962 66.661 L 18.887 66.611 C 9.335 60.196 3.633 49.515 3.633 38.036 C 3.633 19.065 19.066 3.633 38.037 3.633 C 57.008 3.633 72.441 19.066 72.441 38.036 C 72.441 49.515 66.739 60.196 57.188 66.611 z "
     style="font-size:12;"
     id="path698" />
  <g
     style="font-size:12;"
     id="g727">
    <path
       d="M 53.124 91.931 L 53.124 93.141 C 53.124 97.736 46.216 101.617 38.037 101.617 C 29.858 101.617 22.95 97.735 22.95 93.141 L 22.95 91.931 L 20.528 91.931 L 20.528 93.141 C 20.528 99.251 28.218 104.038 38.037 104.038 C 47.856 104.038 55.546 99.251 55.546 93.141 L 55.546 91.931 L 53.124 91.931 L 53.124 91.931 z "
       id="path728" />
    <path
       d="M 53.124 84.374 L 53.124 85.585 C 53.124 90.178 46.216 94.059 38.037 94.059 C 29.858 94.059 22.95 90.178 22.95 85.585 L 22.95 84.374 L 20.528 84.374 L 20.528 85.585 C 20.528 91.694 28.218 96.481 38.037 96.481 C 47.856 96.481 55.546 91.695 55.546 85.585 L 55.546 84.374 L 53.124 84.374 z "
       id="path729" />
    <path
       d="M 53.124 76.816 L 53.124 78.026 C 53.124 82.621 46.216 86.502 38.037 86.502 C 29.858 86.502 22.95 82.621 22.95 78.026 L 22.95 76.816 L 20.528 76.816 L 20.528 78.026 C 20.528 84.137 28.218 88.923 38.037 88.923 C 47.856 88.923 55.546 84.137 55.546 78.026 L 55.546 76.816 L 53.124 76.816 z "
       id="path730" />
  </g>
</svg>
