<?xml version="1.0" encoding="UTF-8" standalone="no"?>
<!DOCTYPE svg PUBLIC "-//W3C//DTD SVG 20010904//EN"
"http://www.w3.org/TR/2001/REC-SVG-20010904/DTD/svg10.dtd">
<!-- Created with Sodipodi ("http://www.sodipodi.com/") -->
<svg
   width="48pt"
   height="48pt"
   viewBox="0 0 256 256"
   overflow="visible"
   enable-background="new 0 0 256 256"
   xml:space="preserve"
   xmlns="http://www.w3.org/2000/svg"
   xmlns:xml="http://www.w3.org/XML/1998/namespace"
   xmlns:a="http://ns.adobe.com/AdobeSVGViewerExtensions/3.0/"
   xmlns:sodipodi="http://sodipodi.sourceforge.net/DTD/sodipodi-0.dtd"
   xmlns:xlink="http://www.w3.org/1999/xlink"
   id="svg153"
   sodipodi:version="0.32pre"
   sodipodi:docname="/home/cschalle/gnome-themes-extras/Nuvola/icons/scalable/stock/fileopen.svgz"
   sodipodi:docbase="/home/cschalle/gnome-themes-extras/Nuvola/icons/scalable/stock/">
  <defs
     id="defs221" />
  <sodipodi:namedview
     id="base" />
  <g
     id="Layer_1"
     stroke="#000000">
    <g
       id="Layer_1_1_">
      <path
         opacity="0.2"
         stroke="none"
         d="M247.169,66.411c0,0-147.818,0.026-159.159,0.028c0-0.419-0.001-1.392-0.001-1.392     c0-12.065-9.329-21.879-20.792-21.878l-36.755,0.007c-5.354,0-10.439,2.138-14.317,6.015c-3.392,3.393-5.59,7.924-6.255,12.76     c-0.142,1.026-0.212,2.065-0.212,3.109l0.003,15.52c0,0,0.011,0.318,0.017,0.472c0,0.208,0.024,135.942,0.024,135.942     l0.568,1.226c5.614,12.081,12.762,23.216,21.246,33.089l1.83,2.129l219.95-0.039L253.285,66.41L247.169,66.411z"
         id="path156" />
      <linearGradient
         id="XMLID_1_"
         gradientUnits="userSpaceOnUse"
         x1="-177.5093"
         y1="498.4736"
         x2="108.6406"
         y2="300.3695"
         gradientTransform="matrix(0.9907 0.1362 0.1362 -0.9907 115.4574 551.8105)">
        <stop
           offset="0"
           style="stop-color:#0066CC"
           id="stop158" />
        <stop
           offset="1"
           style="stop-color:#003399"
           id="stop159" />
        <a:midPointStop
           offset="0"
           style="stop-color:#0066CC"
           id="midPointStop160" />
        <a:midPointStop
           offset="0.5"
           style="stop-color:#0066CC"
           id="midPointStop161" />
        <a:midPointStop
           offset="1"
           style="stop-color:#003399"
           id="midPointStop162" />
      </linearGradient>
      <path
         fill="url(#XMLID_1_)"
         stroke="none"
         d="M242.491,60.563c0,0-147.818,0.025-159.159,0.028c0-0.42-0.001-1.392-0.001-1.392     c0-12.065-9.329-21.88-20.792-21.878l-36.755,0.007c-5.354,0-10.439,2.138-14.317,6.015c-3.392,3.393-5.59,7.924-6.255,12.76     C5.071,57.129,5,58.168,5,59.213c0,0,0.003,15.519,0.003,15.52c0,0,0.011,0.318,0.017,0.472c0,0.208,0.024,135.941,0.024,135.941     l0.568,1.227c5.614,12.081,12.762,23.215,21.246,33.089l1.83,2.129l219.949-0.04l-0.031-186.988H242.491z"
         id="path163" />
      <linearGradient
         id="XMLID_2_"
         gradientUnits="userSpaceOnUse"
         x1="-43.8179"
         y1="438.8398"
         x2="-43.8179"
         y2="317.7795"
         gradientTransform="matrix(1 -2.000000e-004 -2.000000e-004 -1 170.7193 551.4479)">
        <stop
           offset="0"
           style="stop-color:#99CCFF"
           id="stop165" />
        <stop
           offset="1"
           style="stop-color:#3399FF"
           id="stop166" />
        <a:midPointStop
           offset="0"
           style="stop-color:#99CCFF"
           id="midPointStop167" />
        <a:midPointStop
           offset="0.5"
           style="stop-color:#99CCFF"
           id="midPointStop168" />
        <a:midPointStop
           offset="1"
           style="stop-color:#3399FF"
           id="midPointStop169" />
      </linearGradient>
      <path
         fill="url(#XMLID_2_)"
         stroke="none"
         d="M242.493,66.677l-165.274,0.03L77.218,59.2     c-0.002-8.709-6.573-15.766-14.678-15.765l-36.753,0.007c-8.104,0.002-14.674,7.062-14.672,15.77l0.001,15.519     c0,0.124,0.015,0.245,0.018,0.368l0.025,134.696c5.312,11.434,12.169,22.172,20.337,31.68l211.027-0.039L242.493,66.677z"
         id="path170" />
      <linearGradient
         id="XMLID_3_"
         gradientUnits="userSpaceOnUse"
         x1="-126.4546"
         y1="477.3691"
         x2="-126.4546"
         y2="496.9374"
         gradientTransform="matrix(1 -2.000000e-004 -2.000000e-004 -1 170.7193 551.4479)">
        <stop
           offset="0"
           style="stop-color:#3399FF"
           id="stop172" />
        <stop
           offset="0.0546"
           style="stop-color:#3B9DFF"
           id="stop173" />
        <stop
           offset="0.3437"
           style="stop-color:#64B1FF"
           id="stop174" />
        <stop
           offset="0.6075"
           style="stop-color:#81C0FF"
           id="stop175" />
        <stop
           offset="0.835"
           style="stop-color:#93C9FF"
           id="stop176" />
        <stop
           offset="1"
           style="stop-color:#99CCFF"
           id="stop177" />
        <a:midPointStop
           offset="0"
           style="stop-color:#3399FF"
           id="midPointStop178" />
        <a:midPointStop
           offset="0.5"
           style="stop-color:#3399FF"
           id="midPointStop179" />
        <a:midPointStop
           offset="0.0546"
           style="stop-color:#3B9DFF"
           id="midPointStop180" />
        <a:midPointStop
           offset="0.5"
           style="stop-color:#3B9DFF"
           id="midPointStop181" />
        <a:midPointStop
           offset="0.3437"
           style="stop-color:#64B1FF"
           id="midPointStop182" />
        <a:midPointStop
           offset="0.5"
           style="stop-color:#64B1FF"
           id="midPointStop183" />
        <a:midPointStop
           offset="0.6075"
           style="stop-color:#81C0FF"
           id="midPointStop184" />
        <a:midPointStop
           offset="0.5"
           style="stop-color:#81C0FF"
           id="midPointStop185" />
        <a:midPointStop
           offset="0.835"
           style="stop-color:#93C9FF"
           id="midPointStop186" />
        <a:midPointStop
           offset="0.5"
           style="stop-color:#93C9FF"
           id="midPointStop187" />
        <a:midPointStop
           offset="1"
           style="stop-color:#99CCFF"
           id="midPointStop188" />
      </linearGradient>
      <path
         fill="url(#XMLID_3_)"
         stroke="none"
         d="M25.788,47.111c-6.068,0.001-11.005,5.43-11.003,12.1l0.002,15.519     c0.001,6.671,4.941,12.097,11.008,12.097l36.753-0.007c6.068-0.001,11.004-5.43,11.004-12.101L73.549,59.2     c-0.001-6.67-4.94-12.098-11.009-12.096L25.788,47.111z"
         id="path189" />
      <linearGradient
         id="XMLID_4_"
         gradientUnits="userSpaceOnUse"
         x1="-101.6758"
         y1="485.1807"
         x2="0.0036"
         y2="352.6346"
         gradientTransform="matrix(1 -2.000000e-004 -2.000000e-004 -1 170.7193 551.4479)">
        <stop
           offset="0"
           style="stop-color:#FFFFFF"
           id="stop191" />
        <stop
           offset="1"
           style="stop-color:#99CCFF"
           id="stop192" />
        <a:midPointStop
           offset="0"
           style="stop-color:#FFFFFF"
           id="midPointStop193" />
        <a:midPointStop
           offset="0.5"
           style="stop-color:#FFFFFF"
           id="midPointStop194" />
        <a:midPointStop
           offset="1"
           style="stop-color:#99CCFF"
           id="midPointStop195" />
      </linearGradient>
      <path
         opacity="0.8"
         fill="url(#XMLID_4_)"
         stroke="none"
         d="M14.804,70.387c0,5.255,0.017,99.259,0.024,141.421     c1.013,1.814,2.067,3.611,3.164,5.381c3.825-25.229,17.77-49.842,40.554-61.305c35.461-18.863,74.593-10.623,113.726-16.521     c32.209-5.488,57.795-30.777,66.556-60.522c-0.002-4.656-0.002-7.669-0.002-8.495C231.832,70.348,21.795,70.386,14.804,70.387z"
         id="path196" />
      <path
         fill="#FFFFFF"
         stroke="none"
         d="M62.54,45.882l-36.753,0.007c-6.068,0.001-11.005,5.429-11.003,12.1l0.001,4.892     c-0.001-6.671,4.936-12.101,11.003-12.102l36.752-0.006c6.069-0.001,11.008,5.426,11.009,12.097v-4.893     C73.548,51.306,68.608,45.88,62.54,45.882z"
         id="path197" />
      <path
         fill="#FFFFFF"
         stroke="none"
         d="M14.025,69.197l0.025,140.604c1.148,2.114,2.358,4.19,3.62,6.241L17.646,86.565     c-0.001-7.685,6.414-13.917,14.329-13.919l204.945-0.037c0.771,0,1.529,0.077,2.268,0.191v-3.644L14.025,69.197z"
         id="path198" />
      <path
         fill="#3399FF"
         stroke="#0066CC"
         stroke-width="5"
         stroke-linejoin="round"
         d="M194.188,239.793l47.096-0.008l-0.008-50.403     L194.188,239.793z"
         id="path199" />
      <path
         fill="#FFFFFF"
         stroke="none"
         d="M238.021,202.783c-0.002-1.924,0-3.73-0.002-5.342     c-8.545,9.217-28.752,31.019-36.625,39.508c1.484,0,3.164,0,4.953-0.001C214.466,228.191,229.449,212.032,238.021,202.783z"
         id="path200" />
    </g>
    <g
       id="Layer_2">
      <path
         fill="none"
         stroke="none"
         d="M256,256H0V0h256V256z"
         id="path202" />
    </g>
    <path
       opacity="0.2"
       stroke="none"
       d="M103.021,32.815c-6.677,0-12.109,5.432-12.109,12.11v142.466    c0,6.677,5.432,12.109,12.109,12.109h125.37c6.677,0,12.109-5.433,12.109-12.109V44.925c0-6.678-5.433-12.11-12.109-12.11H103.021    z"
       id="path203" />
    <linearGradient
       id="XMLID_5_"
       gradientUnits="userSpaceOnUse"
       x1="84.5"
       y1="111.8833"
       x2="234.0889"
       y2="111.8833">
      <stop
         offset="0"
         style="stop-color:#A7ABAC"
         id="stop205" />
      <stop
         offset="1"
         style="stop-color:#85898A"
         id="stop206" />
      <a:midPointStop
         offset="0"
         style="stop-color:#A7ABAC"
         id="midPointStop207" />
      <a:midPointStop
         offset="0.5"
         style="stop-color:#A7ABAC"
         id="midPointStop208" />
      <a:midPointStop
         offset="1"
         style="stop-color:#85898A"
         id="midPointStop209" />
    </linearGradient>
    <path
       fill="url(#XMLID_5_)"
       stroke="none"
       d="M96.609,28.541c-6.677,0-12.109,5.432-12.109,12.11v142.465    c0,6.678,5.432,12.109,12.109,12.109h125.37c6.678,0,12.109-5.432,12.109-12.109V40.651c0-6.678-5.432-12.11-12.109-12.11H96.609z    "
       id="path210" />
    <path
       fill="#99CCFF"
       stroke="none"
       d="M88.062,183.116c0,4.721,3.828,8.548,8.548,8.548h125.37c4.721,0,8.548-3.827,8.548-8.548    V40.651c0-4.721-3.827-8.548-8.548-8.548H96.609c-4.72,0-8.548,3.827-8.548,8.548V183.116z"
       id="path211" />
    <linearGradient
       id="XMLID_6_"
       gradientUnits="userSpaceOnUse"
       x1="128.3105"
       y1="80.8999"
       x2="297.131"
       y2="249.7203">
      <stop
         offset="0"
         style="stop-color:#FFFFFF"
         id="stop213" />
      <stop
         offset="1"
         style="stop-color:#99CCFF"
         id="stop214" />
      <a:midPointStop
         offset="0"
         style="stop-color:#FFFFFF"
         id="midPointStop215" />
      <a:midPointStop
         offset="0.5"
         style="stop-color:#FFFFFF"
         id="midPointStop216" />
      <a:midPointStop
         offset="1"
         style="stop-color:#99CCFF"
         id="midPointStop217" />
    </linearGradient>
    <path
       fill="url(#XMLID_6_)"
       stroke="none"
       d="M96.609,35.665c-2.749,0-4.986,2.237-4.986,4.986v142.465    c0,2.749,2.237,4.986,4.986,4.986h125.37c2.749,0,4.986-2.237,4.986-4.986V40.651c0-2.75-2.237-4.986-4.986-4.986H96.609z"
       id="path218" />
    <path
       opacity="0.4"
       fill="#FFFFFF"
       stroke="none"
       d="M184.226,96.212c13.244-12.416,29.162-18.524,46.302-21.558V40.651    c0-4.721-3.827-8.548-8.548-8.548H96.609c-4.72,0-8.548,3.827-8.548,8.548v102.053C123.38,145.369,156.785,120.795,184.226,96.212    z"
       id="path219" />
  </g>
</svg>
