<?xml version="1.0" encoding="UTF-8" standalone="no"?>
<!DOCTYPE svg PUBLIC "-//W3C//DTD SVG 20010904//EN"
"http://www.w3.org/TR/2001/REC-SVG-20010904/DTD/svg10.dtd">
<!-- Created with Sodipodi ("http://www.sodipodi.com/") -->
<svg
   width="48pt"
   height="48pt"
   viewBox="0 0 256 256"
   overflow="visible"
   enable-background="new 0 0 256 256"
   xml:space="preserve"
   xmlns="http://www.w3.org/2000/svg"
   xmlns:xml="http://www.w3.org/XML/1998/namespace"
   xmlns:a="http://ns.adobe.com/AdobeSVGViewerExtensions/3.0/"
   xmlns:sodipodi="http://sodipodi.sourceforge.net/DTD/sodipodi-0.dtd"
   xmlns:xlink="http://www.w3.org/1999/xlink"
   id="svg153"
   sodipodi:version="0.32pre"
   sodipodi:docname="/home/cschalle/gnome-themes-extras/Nuvola/icons/scalable/stock/filenew.svgz"
   sodipodi:docbase="/home/cschalle/gnome-themes-extras/Nuvola/icons/scalable/stock/">
  <defs
     id="defs185" />
  <sodipodi:namedview
     id="base" />
  <g
     id="Layer_3"
     stroke="#000000">
    <path
       opacity="0.2"
       stroke="none"
       d="M49,19c-9.374,0-17,7.626-17,17v200c0,9.374,7.626,17,17,17h176c9.374,0,17-7.626,17-17V36    c0-9.374-7.626-17-17-17H49z"
       id="path155" />
    <linearGradient
       id="XMLID_1_"
       gradientUnits="userSpaceOnUse"
       x1="23"
       y1="130"
       x2="233"
       y2="130">
      <stop
         offset="0"
         style="stop-color:#A7ABAC"
         id="stop157" />
      <stop
         offset="1"
         style="stop-color:#85898A"
         id="stop158" />
      <a:midPointStop
         offset="0"
         style="stop-color:#A7ABAC"
         id="midPointStop159" />
      <a:midPointStop
         offset="0.5"
         style="stop-color:#A7ABAC"
         id="midPointStop160" />
      <a:midPointStop
         offset="1"
         style="stop-color:#85898A"
         id="midPointStop161" />
    </linearGradient>
    <path
       fill="url(#XMLID_1_)"
       stroke="none"
       d="M40,13c-9.374,0-17,7.626-17,17v200c0,9.374,7.626,17,17,17h176    c9.374,0,17-7.626,17-17V30c0-9.374-7.626-17-17-17H40z"
       id="path162" />
    <path
       fill="#99CCFF"
       stroke="none"
       d="M28,230c0,6.627,5.373,12,12,12h176c6.627,0,12-5.373,12-12V30c0-6.627-5.373-12-12-12H40    c-6.627,0-12,5.373-12,12V230z"
       id="path163" />
    <linearGradient
       id="XMLID_2_"
       gradientUnits="userSpaceOnUse"
       x1="84.5029"
       y1="86.5029"
       x2="321.5015"
       y2="323.5015">
      <stop
         offset="0"
         style="stop-color:#FFFFFF"
         id="stop165" />
      <stop
         offset="1"
         style="stop-color:#99CCFF"
         id="stop166" />
      <a:midPointStop
         offset="0"
         style="stop-color:#FFFFFF"
         id="midPointStop167" />
      <a:midPointStop
         offset="0.5"
         style="stop-color:#FFFFFF"
         id="midPointStop168" />
      <a:midPointStop
         offset="1"
         style="stop-color:#99CCFF"
         id="midPointStop169" />
    </linearGradient>
    <path
       fill="url(#XMLID_2_)"
       stroke="none"
       d="M40,23c-3.859,0-7,3.14-7,7v200c0,3.859,3.141,7,7,7h176c3.859,0,7-3.141,7-7V30    c0-3.86-3.141-7-7-7H40z"
       id="path170" />
    <path
       opacity="0.4"
       fill="#FFFFFF"
       stroke="none"
       d="M163,108c18.593-17.431,40.938-26.006,65-30.265V30c0-6.627-5.373-12-12-12    H40c-6.627,0-12,5.373-12,12v143.268C77.582,177.009,124.478,142.51,163,108z"
       id="path171" />
    <g
       id="g172">
      <path
         fill="#FF9900"
         stroke="none"
         d="M171.822,127.428c0,0,0,16.447,0,27.528c-7.835-7.835-19.465-19.466-19.465-19.466     c-4.65-4.65-12.217-4.65-16.868,0c-2.253,2.253-3.493,5.248-3.493,8.435c0,3.186,1.24,6.181,3.493,8.434     c0,0,11.63,11.63,19.465,19.465c-11.081,0-27.526,0-27.526,0c-6.577,0-11.928,5.35-11.928,11.927s5.351,11.927,11.928,11.927     c0,0,16.447,0,27.527,0c-7.835,7.835-19.465,19.467-19.465,19.467c-2.326,2.325-3.488,5.379-3.488,8.433     c0,3.055,1.162,6.108,3.488,8.434c2.252,2.253,5.248,3.494,8.434,3.494s6.181-1.241,8.434-3.494c0,0,11.63-11.629,19.465-19.464     c0,11.079,0,27.527,0,27.527c0,6.576,5.352,11.927,11.928,11.927s11.928-5.351,11.928-11.927c0,0,0-16.447,0-27.527     c7.835,7.835,19.465,19.464,19.465,19.464c2.252,2.253,5.248,3.494,8.434,3.494s6.181-1.241,8.434-3.494     c2.252-2.252,3.493-5.247,3.493-8.434c0-3.186-1.241-6.181-3.493-8.434c0,0-11.631-11.631-19.466-19.466     c11.081,0,27.528,0,27.528,0c6.577,0,11.928-5.35,11.928-11.927s-5.351-11.927-11.928-11.927c0,0-16.446,0-27.527,0     c7.836-7.835,19.465-19.465,19.465-19.465c2.326-2.325,3.488-5.38,3.488-8.434c0-3.055-1.162-6.109-3.488-8.435     c-4.65-4.65-12.217-4.65-16.867,0c0,0-11.63,11.63-19.465,19.465c0-11.08,0-27.527,0-27.527c0-6.577-5.352-11.928-11.928-11.928     S171.822,120.851,171.822,127.428z"
         id="path173" />
      <linearGradient
         id="XMLID_3_"
         gradientUnits="userSpaceOnUse"
         x1="119.918"
         y1="183.75"
         x2="247.582"
         y2="183.75">
        <stop
           offset="0"
           style="stop-color:#FFFF66"
           id="stop175" />
        <stop
           offset="1"
           style="stop-color:#FFCC66"
           id="stop176" />
        <a:midPointStop
           offset="0"
           style="stop-color:#FFFF66"
           id="midPointStop177" />
        <a:midPointStop
           offset="0.5"
           style="stop-color:#FFFF66"
           id="midPointStop178" />
        <a:midPointStop
           offset="1"
           style="stop-color:#FFCC66"
           id="midPointStop179" />
      </linearGradient>
      <path
         fill="url(#XMLID_3_)"
         stroke="none"
         d="M240.072,176.24h-38.191l27.006-27.006c2.932-2.933,2.932-7.688,0-10.62     c-2.934-2.933-7.688-2.933-10.621,0L191.26,165.62v-38.192c0-4.148-3.362-7.51-7.51-7.51s-7.51,3.362-7.51,7.51v38.193     l-27.006-27.007c-2.934-2.933-7.688-2.933-10.621,0s-2.933,7.688,0,10.62l27.006,27.006h-38.191c-4.148,0-7.51,3.362-7.51,7.51     s3.361,7.51,7.51,7.51h38.193l-27.008,27.007c-2.932,2.933-2.932,7.688,0,10.62c2.934,2.933,7.688,2.933,10.621,0l27.006-27.006     v38.192c0,4.147,3.362,7.509,7.51,7.509s7.51-3.361,7.51-7.509v-38.192l27.006,27.006c2.933,2.933,7.688,2.933,10.62,0     s2.933-7.688,0-10.62l-27.007-27.007h38.193c4.148,0,7.51-3.362,7.51-7.51S244.221,176.24,240.072,176.24z"
         id="path180" />
      <path
         fill="#FFFF99"
         stroke="none"
         d="M178.891,127.428v44.593l-31.531-31.532c-1.895-1.895-4.978-1.895-6.872,0     c-0.917,0.918-1.423,2.139-1.423,3.437s0.506,2.518,1.423,3.436l31.53,31.53h-44.59c-2.68,0-4.859,2.181-4.859,4.859     c0,2.68,2.18,4.859,4.859,4.859h44.592l-31.531,31.531c-1.895,1.895-1.895,4.978,0,6.872c0.918,0.917,2.137,1.423,3.436,1.423     c1.298,0,2.518-0.506,3.436-1.423l31.531-31.53v44.591c0,2.68,2.18,4.858,4.859,4.858s4.859-2.179,4.859-4.858v-44.591     l31.53,31.53c0.918,0.917,2.138,1.423,3.437,1.423c1.298,0,2.518-0.506,3.436-1.423c0.918-0.918,1.424-2.138,1.424-3.437     c0-1.298-0.506-2.518-1.424-3.436l-31.531-31.531h44.592c2.68,0,4.859-2.18,4.859-4.859c0-2.679-2.18-4.859-4.859-4.859h-44.59     l31.529-31.53c1.895-1.895,1.896-4.978,0-6.872c-1.895-1.895-4.977-1.895-6.872,0l-31.53,31.53v-44.591     c0-2.68-2.18-4.86-4.859-4.86S178.891,124.748,178.891,127.428z"
         id="path181" />
    </g>
  </g>
  <g
     id="Layer_2"
     stroke="#000000">
    <path
       fill="none"
       stroke="none"
       d="M256,256H0V0h256V256z"
       id="path183" />
  </g>
</svg>
