<?xml version="1.0" encoding="UTF-8" standalone="no"?>
<!DOCTYPE svg PUBLIC "-//W3C//DTD SVG 20010904//EN"
"http://www.w3.org/TR/2001/REC-SVG-20010904/DTD/svg10.dtd">
<!-- Created with Sodipodi ("http://www.sodipodi.com/") -->
<svg
   width="48pt"
   height="48pt"
   viewBox="0 0 256 256"
   style="overflow:visible;enable-background:new 0 0 256 256"
   xml:space="preserve"
   xmlns="http://www.w3.org/2000/svg"
   xmlns:xml="http://www.w3.org/XML/1998/namespace"
   xmlns:a="http://ns.adobe.com/AdobeSVGViewerExtensions/3.0/"
   xmlns:sodipodi="http://sodipodi.sourceforge.net/DTD/sodipodi-0.dtd"
   xmlns:xlink="http://www.w3.org/1999/xlink"
   id="svg548"
   sodipodi:version="0.32"
   sodipodi:docname="/home/cschalle/gnome-themes-extras/Nuvola/icons/scalable/stock/stock-media-eject.svg"
   sodipodi:docbase="/home/cschalle/gnome-themes-extras/Nuvola/icons/scalable/stock">
  <defs
     id="defs589" />
  <sodipodi:namedview
     id="base" />
  <g
     id="Layer_1"
     style="stroke:#000000;">
    <path
       style="fill:none;stroke:none;"
       d="M256,256H0V0h256V256z"
       id="path550" />
  </g>
  <g
     id="Layer_2"
     style="stroke:#000000;" />
  <g
     id="Layer_3"
     style="stroke:#000000;">
    <path
       style="opacity:0.2;stroke:none;"
       d="M39.041,196.155c-5.523,0-10,4.478-10,10V246c0,2.652,1.054,5.195,2.929,7.071    c1.875,1.875,4.419,2.929,7.071,2.929l188.084-0.001c5.522,0,10-4.478,10-10v-39.844c0-5.522-4.478-10-10-10H39.041z"
       id="path553" />
    <path
       style="fill:#003399;stroke:none;"
       d="M31,189.588c-5.523,0-10,4.478-10,10v39.845c0,2.652,1.054,5.195,2.929,7.071    c1.875,1.875,4.419,2.929,7.071,2.929l188.084-0.001c5.522,0,10-4.478,10-10v-39.844c0-5.522-4.478-10-10-10H31z"
       id="path554" />
    <path
       style="fill:#3399FF;stroke:none;"
       d="M31,199.588c3.108,0,184.977,0,188.084,0c0,9.953,0,29.892,0,39.844c-3.107,0-184.976,0.001-188.084,0.001    C31,229.479,31,209.541,31,199.588z"
       id="path555" />
    <path
       style="opacity:0.2;stroke:none;"
       d="M124.673,13L31.381,174.588c-1.787,3.094-1.786,6.906,0,10s5.087,5,8.66,5h186.584    c3.572,0,6.874-1.906,8.66-5s1.786-6.906,0-10L141.994,13c-1.787-3.094-5.088-5-8.66-5C129.761,8,126.459,9.906,124.673,13z"
       id="path556" />
    <path
       style="fill:#003399;stroke:none;"
       d="M116.382,5.567L23.09,167.155c-1.787,3.094-1.786,6.906,0,10s5.087,5,8.66,5h186.584    c3.572,0,6.874-1.906,8.66-5s1.786-6.906,0-10L133.703,5.567c-1.787-3.094-5.088-5-8.661-5S118.168,2.473,116.382,5.567z"
       id="path557" />
    <path
       style="fill:#3399FF;stroke:none;"
       d="M31.75,172.155l93.292-161.588l93.292,161.588H31.75z"
       id="path558" />
    <linearGradient
       id="XMLID_1_"
       gradientUnits="userSpaceOnUse"
       x1="125.3833"
       y1="4.998"
       x2="125.3833"
       y2="83.6641">
      <stop
         offset="0"
         style="stop-color:#FFFFFF"
         id="stop560" />
      <stop
         offset="1"
         style="stop-color:#3399FF"
         id="stop561" />
      <a:midPointStop
         offset="0"
         style="stop-color:#FFFFFF"
         id="midPointStop562" />
      <a:midPointStop
         offset="0.5"
         style="stop-color:#FFFFFF"
         id="midPointStop563" />
      <a:midPointStop
         offset="1"
         style="stop-color:#3399FF"
         id="midPointStop564" />
    </linearGradient>
    <path
       style="fill:url(#XMLID_1_);stroke:none;"
       d="M80.921,86.988c12.467,7.929,28.241,12.678,45.412,12.678c16.307,0,31.362-4.275,43.514-11.496    l-44.804-77.604L80.921,86.988z"
       id="path565" />
    <linearGradient
       id="XMLID_2_"
       gradientUnits="userSpaceOnUse"
       x1="125.0425"
       y1="244.333"
       x2="125.0425"
       y2="231.6673">
      <stop
         offset="0"
         style="stop-color:#CCFFFF"
         id="stop567" />
      <stop
         offset="1"
         style="stop-color:#3399FF"
         id="stop568" />
      <a:midPointStop
         offset="0"
         style="stop-color:#CCFFFF"
         id="midPointStop569" />
      <a:midPointStop
         offset="0.5"
         style="stop-color:#CCFFFF"
         id="midPointStop570" />
      <a:midPointStop
         offset="1"
         style="stop-color:#3399FF"
         id="midPointStop571" />
    </linearGradient>
    <path
       style="fill:url(#XMLID_2_);stroke:none;"
       d="M31,230.333c0,3.453,0,6.594,0,9.1c3.108,0,184.977-0.001,188.084-0.001c0-2.506,0-5.646,0-9.099H31z"
       id="path572" />
    <linearGradient
       id="XMLID_3_"
       gradientUnits="userSpaceOnUse"
       x1="125.0415"
       y1="194.333"
       x2="125.0415"
       y2="210.3336">
      <stop
         offset="0"
         style="stop-color:#FFFFFF"
         id="stop574" />
      <stop
         offset="1"
         style="stop-color:#3399FF"
         id="stop575" />
      <a:midPointStop
         offset="0"
         style="stop-color:#FFFFFF"
         id="midPointStop576" />
      <a:midPointStop
         offset="0.5"
         style="stop-color:#FFFFFF"
         id="midPointStop577" />
      <a:midPointStop
         offset="1"
         style="stop-color:#3399FF"
         id="midPointStop578" />
    </linearGradient>
    <path
       style="fill:url(#XMLID_3_);stroke:none;"
       d="M31,213h188.084c0-5.13,0-9.896,0-13.412c-3.107,0-184.976,0-188.084,0C31,203.104,31,207.87,31,213z"
       id="path579" />
    <linearGradient
       id="XMLID_4_"
       gradientUnits="userSpaceOnUse"
       x1="125.0425"
       y1="184.998"
       x2="125.0425"
       y2="129.0004">
      <stop
         offset="0"
         style="stop-color:#CCFFFF"
         id="stop581" />
      <stop
         offset="1"
         style="stop-color:#3399FF"
         id="stop582" />
      <a:midPointStop
         offset="0"
         style="stop-color:#CCFFFF"
         id="midPointStop583" />
      <a:midPointStop
         offset="0.5"
         style="stop-color:#CCFFFF"
         id="midPointStop584" />
      <a:midPointStop
         offset="1"
         style="stop-color:#3399FF"
         id="midPointStop585" />
    </linearGradient>
    <path
       style="fill:url(#XMLID_4_);stroke:none;"
       d="M59.565,123.978L31.75,172.155h186.584l-28.312-49.038c-18.729-3.476-40.198-5.451-63.022-5.451    C102.36,117.667,79.303,119.971,59.565,123.978z"
       id="path586" />
    <path
       style="opacity:0.5;fill:#FFFFFF;stroke:none;"
       d="M38.81,168.079c0.291,0.505,0.83,0.815,1.412,0.815h115.466c0.879,0,29.298-0.696,29.328-1.575    c0.029-0.878-122.798-1.901-129.038-8.143c-6.241-6.24,67.315-134.041,66.541-134.455c-0.775-0.413-14.259,21.437-14.699,22.198    L38.81,166.449C38.519,166.953,38.519,167.575,38.81,168.079z"
       id="path587" />
  </g>
</svg>
