<?xml version="1.0" encoding="UTF-8" standalone="no"?>
<!-- Created with Sodipodi ("http://www.sodipodi.com/") -->
<svg
   xmlns:dc="http://purl.org/dc/elements/1.1/"
   xmlns:cc="http://web.resource.org/cc/"
   xmlns:rdf="http://www.w3.org/1999/02/22-rdf-syntax-ns#"
   xmlns:svg="http://www.w3.org/2000/svg"
   xmlns="http://www.w3.org/2000/svg"
   xmlns:sodipodi="http://inkscape.sourceforge.net/DTD/sodipodi-0.dtd"
   xmlns:inkscape="http://www.inkscape.org/namespaces/inkscape"
   width="32pt"
   height="32pt"
   viewBox="0 0 256 256"
   overflow="visible"
   enable-background="new 0 0 256 256"
   xml:space="preserve"
   id="svg153"
   sodipodi:version="0.32"
   sodipodi:docname="gtk-close.svg"
   sodipodi:docbase="/home/cschalle/gnome/gnome-themes-extras/Nuvola/icons/scalable/stock"
   inkscape:version="0.42+devel"
   version="1.0"><metadata
   id="metadata19"><rdf:RDF><cc:Work
       rdf:about=""><dc:format>image/svg+xml</dc:format><dc:type
         rdf:resource="http://purl.org/dc/dcmitype/StillImage" /></cc:Work></rdf:RDF></metadata>
  <defs
   id="defs172">
    
    
    
    <linearGradient
   y2="312.2099"
   x2="312.32861"
   y1="86.276398"
   x1="86.394997"
   gradientUnits="userSpaceOnUse"
   id="XMLID_1_">
      <stop
   id="stop161"
   style="stop-color:#FFFFFF"
   offset="0" />
      <stop
   id="stop162"
   style="stop-color:#99CCFF"
   offset="1" />
    </linearGradient>
    
    
    
  </defs>
  <sodipodi:namedview
   id="base"
   inkscape:zoom="6.4833333"
   inkscape:cx="30"
   inkscape:cy="30"
   inkscape:window-width="814"
   inkscape:window-height="555"
   inkscape:window-x="6"
   inkscape:window-y="57"
   inkscape:current-layer="svg153" />
  <g
   id="Layer_2"
   style="stroke:#000000">
    <path
   d="M 256,256 L 0,256 L 0,0 L 256,0 L 256,256 z "
   id="path155"
   style="fill:none;stroke:none" />
  </g>
  <g
   style="stroke:#000000"
   id="g167"
   transform="matrix(1.150399,0.000000,0.000000,1.150399,-20.21737,-20.10674)">
      <path
   style="fill:#990000;stroke:none"
   id="path168"
   d="M 159.495,71.174 C 159.495,71.174 159.495,71.174 159.495,71.174 C 159.496,71.174 133.876,96.793 127.861,102.808 C 121.846,96.793 96.227,71.173 96.227,71.173 C 92.074,67.021 85.316,67.021 81.163,71.173 L 65.346,86.991 C 63.334,89.004 62.226,91.679 62.226,94.523 C 62.226,97.368 63.334,100.042 65.345,102.054 C 65.345,102.054 90.965,127.675 96.98,133.69 C 90.965,139.704 65.346,165.325 65.346,165.325 C 63.335,167.335 62.226,170.01 62.226,172.855 C 62.226,175.702 63.334,178.376 65.347,180.387 L 81.163,196.203 C 83.173,198.216 85.848,199.324 88.695,199.324 C 91.541,199.324 94.216,198.216 96.228,196.202 C 96.228,196.202 118.753,173.678 127.861,164.57 C 133.876,170.585 159.496,196.203 159.496,196.203 C 161.507,198.216 164.182,199.324 167.027,199.324 C 169.872,199.324 172.548,198.216 174.559,196.202 L 190.375,180.386 C 192.387,178.377 193.496,175.702 193.496,172.855 C 193.496,170.008 192.387,167.333 190.374,165.322 C 190.374,165.322 164.757,139.704 158.742,133.69 C 164.757,127.675 190.375,102.055 190.375,102.055 C 192.387,100.044 193.496,97.369 193.496,94.523 C 193.496,91.677 192.387,89.002 190.374,86.99 L 174.558,71.174 C 172.547,69.162 169.871,68.054 167.027,68.054 C 164.183,68.054 161.507,69.162 159.495,71.174 z " />
      <path
   style="fill:#ff0000;stroke:none"
   id="path169"
   d="M 151.211,133.689 C 157.364,127.536 186.61,98.289 186.61,98.289 C 187.61,97.289 188.171,95.935 188.171,94.522 C 188.171,93.11 187.61,91.755 186.61,90.756 L 170.793,74.939 C 168.714,72.859 165.341,72.859 163.262,74.939 C 163.262,74.939 134.015,104.187 127.862,110.339 C 121.709,104.186 92.462,74.939 92.462,74.939 C 90.382,72.859 87.009,72.86 84.93,74.939 L 69.112,90.757 C 68.072,91.797 67.552,93.16 67.552,94.523 C 67.552,95.886 68.072,97.249 69.112,98.29 C 69.112,98.29 98.359,127.537 104.512,133.69 C 98.359,139.842 69.112,169.09 69.112,169.09 C 68.072,170.129 67.552,171.492 67.552,172.855 C 67.552,174.218 68.072,175.582 69.112,176.621 L 84.929,192.439 C 85.928,193.438 87.283,193.999 88.695,193.999 C 90.107,193.999 91.462,193.438 92.461,192.439 C 92.461,192.439 121.708,163.192 127.861,157.039 C 134.014,163.192 163.261,192.439 163.261,192.439 C 165.34,194.519 168.713,194.519 170.792,192.439 L 186.609,176.621 C 187.649,175.582 188.17,174.219 188.17,172.855 C 188.17,171.493 187.649,170.129 186.609,169.09 C 186.61,169.09 157.364,139.842 151.211,133.689 z " />
    </g>
</svg>