<?xml version="1.0" encoding="UTF-8" standalone="no"?>
<!-- Created with Sodipodi ("http://www.sodipodi.com/") -->
<svg
   xmlns:a="http://ns.adobe.com/AdobeSVGViewerExtensions/3.0/"
   xmlns:dc="http://purl.org/dc/elements/1.1/"
   xmlns:cc="http://web.resource.org/cc/"
   xmlns:rdf="http://www.w3.org/1999/02/22-rdf-syntax-ns#"
   xmlns:svg="http://www.w3.org/2000/svg"
   xmlns="http://www.w3.org/2000/svg"
   xmlns:sodipodi="http://inkscape.sourceforge.net/DTD/sodipodi-0.dtd"
   xmlns:inkscape="http://www.inkscape.org/namespaces/inkscape"
   width="48pt"
   height="48pt"
   viewBox="0 0 256 256"
   style="overflow:visible;enable-background:new 0 0 256 256"
   xml:space="preserve"
   id="svg4076"
   sodipodi:version="0.32"
   sodipodi:docname="gtk-strikethrough.svg"
   sodipodi:docbase="/home/cschalle/gnome/gnome-themes-extras/Nuvola/icons/scalable/stock"
   inkscape:version="0.42+devel"><metadata
   id="metadata39"><rdf:RDF><cc:Work
       rdf:about=""><dc:format>image/svg+xml</dc:format><dc:type
         rdf:resource="http://purl.org/dc/dcmitype/StillImage" /></cc:Work></rdf:RDF></metadata>
  <defs
   id="defs4124">
    
    
  
      
      
      
      
      
      <linearGradient
   id="XMLID_3_"
   gradientUnits="userSpaceOnUse"
   x1="-9.5307999"
   y1="68.1875"
   x2="117.4706"
   y2="159.1877"
   gradientTransform="matrix(1.817548,0.000000,0.000000,2.028646,-40.73254,-134.8433)">
        <stop
   offset="0"
   style="stop-color:#FFFFFF"
   id="stop4109" />
        <stop
   offset="1"
   style="stop-color:#000000"
   id="stop4110" />
        <a:midPointStop
   offset="0"
   style="stop-color:#FFFFFF"
   id="midPointStop4111" />
        <a:midPointStop
   offset="0.5"
   style="stop-color:#FFFFFF"
   id="midPointStop4112" />
        <a:midPointStop
   offset="1"
   style="stop-color:#000000"
   id="midPointStop4113" />
      </linearGradient>
      
      
      <linearGradient
   id="XMLID_4_"
   gradientUnits="userSpaceOnUse"
   x1="84.248001"
   y1="70.608398"
   x2="196.74809"
   y2="158.1078">
        <stop
   offset="0"
   style="stop-color:#FFFFFF"
   id="stop4117" />
        <stop
   offset="1"
   style="stop-color:#000000"
   id="stop4118" />
        <a:midPointStop
   offset="0"
   style="stop-color:#FFFFFF"
   id="midPointStop4119" />
        <a:midPointStop
   offset="0.5"
   style="stop-color:#FFFFFF"
   id="midPointStop4120" />
        <a:midPointStop
   offset="1"
   style="stop-color:#000000"
   id="midPointStop4121" />
      </linearGradient>
      
    </defs>
  <sodipodi:namedview
   id="base"
   inkscape:zoom="6.4833333"
   inkscape:cx="30"
   inkscape:cy="30"
   inkscape:window-width="822"
   inkscape:window-height="563"
   inkscape:window-x="205"
   inkscape:window-y="217"
   inkscape:current-layer="svg4076" />
  <g
   style="stroke:#000000"
   id="g4078">
      <path
   id="path4079"
   d="M 44,15.5 C 34.626,15.5 27,23.126 27,32.5 L 27,232.5 C 27,241.874 34.626,249.5 44,249.5 L 220,249.5 C 229.375,249.5 237,241.874 237,232.5 L 237,32.5 C 237,23.126 229.375,15.5 220,15.5 L 44,15.5 z "
   style="opacity:0.2;stroke:none" />
      <path
   id="path4080"
   d="M 42,13.5 C 32.626,13.5 25,21.126 25,30.5 L 25,230.5 C 25,239.874 32.626,247.5 42,247.5 L 218,247.5 C 227.375,247.5 235,239.874 235,230.5 L 235,30.5 C 235,21.126 227.375,13.5 218,13.5 L 42,13.5 z "
   style="opacity:0.2;stroke:none" />
      <path
   id="path4081"
   d="M 40,12.5 C 30.626,12.5 23,20.126 23,29.5 L 23,229.5 C 23,238.874 30.626,246.5 40,246.5 L 216,246.5 C 225.375,246.5 233,238.874 233,229.5 L 233,29.5 C 233,20.126 225.375,12.5 216,12.5 L 40,12.5 z "
   style="opacity:0.2;stroke:none" />
      <linearGradient
   y2="245.0005"
   x2="128.9995"
   y1="11"
   x1="128.9995"
   gradientUnits="userSpaceOnUse"
   id="XMLID_1_">
        <stop
   id="stop4083"
   style="stop-color:#494949"
   offset="0" />
        <stop
   id="stop4084"
   style="stop-color:#000000"
   offset="1" />
        <a:midPointStop
   id="midPointStop4085"
   style="stop-color:#494949"
   offset="0" />
        <a:midPointStop
   id="midPointStop4086"
   style="stop-color:#494949"
   offset="0.5" />
        <a:midPointStop
   id="midPointStop4087"
   style="stop-color:#000000"
   offset="1" />
      </linearGradient>
      <path
   id="path4088"
   d="M 41,11 C 31.626,11 24,18.626 24,28 L 24,228 C 24,237.374 31.626,245 41,245 L 217,245 C 226.375,245 234,237.374 234,228 L 234,28 C 234,18.626 226.375,11 217,11 L 41,11 z "
   style="fill:url(#XMLID_1_);stroke:none" />
      <path
   id="path4089"
   d="M 28,228 C 28,234.627 33.373,240 40,240 L 216,240 C 222.627,240 228,234.627 228,228 L 228,28 C 228,21.373 222.627,16 216,16 L 40,16 C 33.373,16 28,21.373 28,28 L 28,228 z "
   style="fill:#ffffff;stroke:none" />
      <linearGradient
   y2="226.9471"
   x2="226.9471"
   y1="29.0532"
   x1="29.0532"
   gradientUnits="userSpaceOnUse"
   id="XMLID_2_">
        <stop
   id="stop4091"
   style="stop-color:#FFFFFF"
   offset="0" />
        <stop
   id="stop4092"
   style="stop-color:#DADADA"
   offset="1" />
        <a:midPointStop
   id="midPointStop4093"
   style="stop-color:#FFFFFF"
   offset="0" />
        <a:midPointStop
   id="midPointStop4094"
   style="stop-color:#FFFFFF"
   offset="0.5" />
        <a:midPointStop
   id="midPointStop4095"
   style="stop-color:#DADADA"
   offset="1" />
      </linearGradient>
      <path
   id="path4096"
   d="M 40,21 C 36.14,21 33,24.14 33,28 L 33,228 C 33,231.859 36.14,235 40,235 L 216,235 C 219.859,235 223,231.859 223,228 L 223,28 C 223,24.14 219.859,21 216,21 L 40,21 z "
   style="fill:url(#XMLID_2_);stroke:none" />
      <path
   id="path4097"
   d="M 256,256 L 0,256 L 0,0 L 256,0 L 256,256 z "
   style="fill:none;stroke:none" />
    </g><g
   style="opacity:0.2;stroke:#000000"
   id="g4099"
   transform="matrix(1.817548,0.000000,0.000000,2.028646,-40.73254,-134.8433)">
        <path
   style="stroke:none"
   d="M 91.633,83.188 C 90.807,83.188 90.067,83.695 89.768,84.465 L 76.022,119.958 C 70.916,133.156 66.173,145.23 61.926,155.845 C 61.158,157.747 60.378,159.239 59.609,160.273 C 58.871,161.265 57.788,162.247 56.389,163.191 C 55.622,163.681 54.539,164.108 53.209,164.432 C 51.762,164.786 50.564,164.999 49.648,165.069 C 48.605,165.147 47.798,166.017 47.798,167.063 L 47.798,171.313 C 47.798,172.417 48.694,173.313 49.798,173.313 L 81.78,173.313 C 82.884,173.313 83.78,172.417 83.78,171.313 L 83.78,167.063 C 83.78,165.998 82.945,165.12 81.882,165.066 C 78.934,164.916 76.263,164.429 73.945,163.62 C 73.038,163.304 71.516,162.646 71.516,161.8 C 71.516,161.247 71.606,160.485 71.782,159.53 C 71.968,158.531 72.311,157.194 72.807,155.559 C 72.799,155.584 74.672,149.875 74.672,149.875 C 75.239,148.188 76,146.158 76.869,143.937 C 79.24,143.937 101.429,143.937 103.839,143.937 C 104.676,146.205 110.377,161.653 110.377,161.653 C 110.395,161.699 110.635,162.642 110.635,162.642 C 110.635,162.645 110.669,163.007 110.698,163.299 C 110.484,163.438 110.042,163.669 109.093,163.946 C 107.19,164.5 104.73,164.877 101.78,165.065 C 100.727,165.132 99.908,166.006 99.908,167.061 L 99.908,171.311 C 99.908,172.415 100.804,173.311 101.908,173.311 L 137.174,173.311 C 138.278,173.311 139.174,172.415 139.174,171.311 L 139.174,167.061 C 139.174,165.987 138.325,165.105 137.252,165.063 C 136.406,165.03 135.301,164.838 133.967,164.496 C 132.691,164.168 131.667,163.771 130.924,163.318 C 129.827,162.573 128.912,161.766 128.283,160.972 C 127.657,160.182 127.074,159.089 126.551,157.725 L 98.28,84.465 C 97.983,83.694 97.241,83.186 96.415,83.186 L 91.633,83.186 M 90.238,109.244 C 92.706,115.577 98.603,130.71 100.105,134.562 C 96.115,134.562 84.481,134.562 80.508,134.562 C 81.984,130.722 87.801,115.587 90.238,109.244 z "
   id="path4100" />
      </g><g
   style="opacity:0.2;stroke:#000000"
   id="g4103"
   transform="matrix(1.817548,0.000000,0.000000,2.028646,-40.73254,-134.8433)">
        <path
   style="stroke:none"
   d="M 90.633,82.188 C 89.807,82.188 89.067,82.695 88.768,83.465 L 75.022,118.958 C 69.916,132.156 65.173,144.23 60.926,154.845 C 60.158,156.747 59.378,158.239 58.609,159.273 C 57.871,160.265 56.788,161.247 55.389,162.191 C 54.622,162.681 53.539,163.108 52.209,163.432 C 50.762,163.786 49.564,163.999 48.648,164.069 C 47.605,164.147 46.798,165.017 46.798,166.063 L 46.798,170.313 C 46.798,171.417 47.694,172.313 48.798,172.313 L 80.78,172.313 C 81.884,172.313 82.78,171.417 82.78,170.313 L 82.78,166.063 C 82.78,164.998 81.945,164.12 80.882,164.066 C 77.934,163.916 75.263,163.429 72.945,162.62 C 72.038,162.304 70.516,161.646 70.516,160.8 C 70.516,160.247 70.606,159.485 70.782,158.53 C 70.968,157.531 71.311,156.194 71.807,154.559 C 71.799,154.584 73.672,148.875 73.672,148.875 C 74.239,147.188 75,145.158 75.869,142.937 C 78.24,142.937 100.429,142.937 102.839,142.937 C 103.676,145.205 109.377,160.653 109.377,160.653 C 109.395,160.699 109.635,161.642 109.635,161.642 C 109.635,161.645 109.669,162.007 109.698,162.299 C 109.484,162.438 109.042,162.669 108.093,162.946 C 106.19,163.5 103.73,163.877 100.78,164.065 C 99.727,164.132 98.908,165.006 98.908,166.061 L 98.908,170.311 C 98.908,171.415 99.804,172.311 100.908,172.311 L 136.174,172.311 C 137.278,172.311 138.174,171.415 138.174,170.311 L 138.174,166.061 C 138.174,164.987 137.325,164.105 136.252,164.063 C 135.406,164.03 134.301,163.838 132.967,163.496 C 131.691,163.168 130.667,162.771 129.924,162.318 C 128.827,161.573 127.912,160.766 127.283,159.972 C 126.657,159.182 126.074,158.089 125.551,156.725 L 97.28,83.465 C 96.983,82.694 96.241,82.186 95.415,82.186 L 90.633,82.186 M 89.238,108.244 C 91.706,114.577 97.603,129.71 99.105,133.562 C 95.115,133.562 83.481,133.562 79.508,133.562 C 80.984,129.722 86.801,114.587 89.238,108.244 z "
   id="path4104" />
      </g><path
   style="stroke:none"
   d="M 122.17971,29.858438 C 120.67842,29.858438 119.33344,30.886961 118.78998,32.449019 L 93.805978,104.45175 C 84.525578,131.22582 75.904951,155.7197 68.185826,177.25378 C 66.789948,181.11226 65.372262,184.139 63.974567,186.23662 C 62.633217,188.24904 60.664814,190.24117 58.122064,192.15621 C 56.728005,193.15024 54.759601,194.01648 52.342263,194.67376 C 49.712271,195.3919 47.534849,195.824 45.869975,195.96601 C 43.974273,196.12424 42.507512,197.88916 42.507512,200.01113 L 42.507512,208.63288 C 42.507512,210.8725 44.136035,212.69017 46.142607,212.69017 L 104.27141,212.69017 C 106.27799,212.69017 107.90651,210.8725 107.90651,208.63288 L 107.90651,200.01113 C 107.90651,197.85062 106.38886,196.06947 104.45681,195.95992 C 99.098682,195.65563 94.244007,194.66767 90.030931,193.0265 C 88.382415,192.38544 85.616108,191.0506 85.616108,189.33436 C 85.616108,188.21253 85.779686,186.66669 86.099575,184.72934 C 86.437639,182.70272 87.061058,179.99042 87.962561,176.67358 C 87.948021,176.7243 91.352288,165.14276 91.352288,165.14276 C 92.382838,161.72044 93.765991,157.60228 95.345441,153.09666 C 99.654852,153.09666 139.98441,153.09666 144.3647,153.09666 C 145.88599,157.69763 156.24782,189.03615 156.24782,189.03615 C 156.28055,189.12947 156.71675,191.04248 156.71675,191.04248 C 156.71675,191.04857 156.77855,191.78294 156.83126,192.3753 C 156.4423,192.65729 155.63895,193.12591 153.9141,193.68783 C 150.45531,194.81171 145.98413,195.5765 140.62236,195.95789 C 138.70849,196.09381 137.21992,197.86685 137.21992,200.00708 L 137.21992,208.62881 C 137.21992,210.86844 138.84844,212.68611 140.85502,212.68611 L 204.95265,212.68611 C 206.95922,212.68611 208.58774,210.86844 208.58774,208.62881 L 208.58774,200.00708 C 208.58774,197.8283 207.04465,196.03904 205.09442,195.95384 C 203.55677,195.88689 201.54838,195.49739 199.12377,194.80359 C 196.80459,194.1382 194.94341,193.33283 193.59297,192.41385 C 191.59913,190.90251 189.93607,189.26539 188.79283,187.65465 C 187.65505,186.05201 186.59542,183.8347 185.64484,181.06763 L 134.26095,32.449019 C 133.72114,30.884934 132.37252,29.854381 130.87122,29.854381 L 122.17971,29.854381 M 119.64424,82.716846 C 124.12994,95.564265 134.84802,126.26375 137.57797,134.0781 C 130.32596,134.0781 109.18061,134.0781 101.9595,134.0781 C 104.64219,126.28809 115.21486,95.584545 119.64424,82.716846 z "
   id="path4107" /><path
   style="fill:url(#XMLID_3_);stroke:none"
   d="M 203.1351,206.60423 L 139.03747,206.60423 L 139.03747,197.98248 C 144.68822,197.57879 149.38113,196.76935 153.11256,195.55826 C 156.84398,194.34714 158.7106,192.84798 158.7106,191.0648 C 158.7106,190.34057 158.63608,189.45203 158.49431,188.39916 C 158.34891,187.34426 158.13263,186.41312 157.84545,185.60571 L 145.08445,147.01478 L 91.043304,147.01478 C 89.013104,152.68078 87.36277,157.61445 86.094122,161.82187 C 84.823657,166.02928 83.684055,169.91211 82.668045,173.47035 C 81.72292,176.94948 81.070421,179.78147 80.708729,181.96633 C 80.347037,184.1532 80.165282,185.93233 80.165282,187.30775 C 80.165282,190.54546 82.448121,193.05287 87.017437,194.83199 C 91.583117,196.61112 96.730412,197.66196 102.45568,197.98654 L 102.45568,206.60828 L 44.326877,206.60828 L 44.326877,197.98654 C 46.211674,197.8283 48.565398,197.35968 51.38805,196.59083 C 54.210702,195.82198 56.528074,194.78736 58.338352,193.49309 C 61.235524,191.31027 63.478377,189.02398 65.072366,186.63424 C 66.66272,184.24855 68.220358,180.94794 69.743464,176.73647 C 77.489852,155.12733 86.034144,130.84647 95.378156,103.89184 C 104.72216,76.937232 113.05017,52.938345 120.36216,31.891142 L 129.05185,31.891142 L 180.43394,180.50164 C 181.52082,183.66024 182.74767,186.21025 184.12537,188.15166 C 185.50307,190.09308 187.42059,191.99595 189.88337,193.85825 C 191.54823,194.99225 193.7202,195.94166 196.40109,196.71052 C 199.07834,197.47937 201.32482,197.90742 203.1351,197.98654 L 203.1351,206.60423 M 141.07857,136.10877 L 117.80124,69.449502 L 94.851068,136.10877 L 141.07857,136.10877 z "
   id="path4114" />
<rect
   style="opacity:1;color:#000000;fill:#000000;fill-opacity:1;fill-rule:nonzero;stroke:none;stroke-width:1;stroke-linecap:butt;stroke-linejoin:miter;marker:none;marker-start:none;marker-mid:none;marker-end:none;stroke-miterlimit:4;stroke-dasharray:none;stroke-dashoffset:0;stroke-opacity:1"
   id="rect1380"
   width="182.29308"
   height="9.8714657"
   x="36.195374"
   y="113.8509"
   rx="7.2390747"
   ry="7.2390747" /></svg>