<?xml version="1.0" encoding="UTF-8" standalone="no"?>
<!DOCTYPE svg PUBLIC "-//W3C//DTD SVG 20010904//EN"
"http://www.w3.org/TR/2001/REC-SVG-20010904/DTD/svg10.dtd">
<!-- Created with Sodipodi ("http://www.sodipodi.com/") -->
<svg
   width="48pt"
   height="48pt"
   viewBox="0 0 256 256"
   style="overflow:visible;enable-background:new 0 0 256 256"
   xml:space="preserve"
   xmlns="http://www.w3.org/2000/svg"
   xmlns:xml="http://www.w3.org/XML/1998/namespace"
   xmlns:a="http://ns.adobe.com/AdobeSVGViewerExtensions/3.0/"
   xmlns:sodipodi="http://sodipodi.sourceforge.net/DTD/sodipodi-0.dtd"
   xmlns:xlink="http://www.w3.org/1999/xlink"
   id="svg548"
   sodipodi:version="0.32"
   sodipodi:docname="/home/cschalle/gnome-themes-extras/Nuvola/icons/scalable/stock/stock_home.svg"
   sodipodi:docbase="/home/cschalle/gnome-themes-extras/Nuvola/icons/scalable/stock">
  <defs
     id="defs583" />
  <sodipodi:namedview
     id="base" />
  <g
     id="Layer_1"
     style="stroke:#000000;">
    <g
       id="Layer_1_1_">
      <path
         style="fill:none;stroke:none;"
         d="M256,256H0V0h256V256z"
         id="path551" />
    </g>
    <path
       style="opacity:0.25;stroke:none;"
       d="M8.643,131.001c0,67.468,54.89,122.356,122.357,122.356c67.469,0,122.357-54.89,122.357-122.356    C253.357,63.532,198.469,8.643,131,8.643C63.532,8.643,8.643,63.532,8.643,131.001z"
       id="path552" />
    <path
       style="fill:#003333;stroke:none;"
       d="M5.643,128.001c0,67.468,54.89,122.356,122.357,122.356c67.469,0,122.357-54.89,122.357-122.356    C250.357,60.532,195.469,5.643,128,5.643C60.532,5.643,5.643,60.532,5.643,128.001z"
       id="path553" />
    <path
       style="fill:#336666;stroke:none;"
       d="M128,7.643C61.635,7.643,7.643,61.636,7.643,128.001c0,66.364,53.992,120.356,120.357,120.356    s120.357-53.992,120.357-120.356C248.357,61.636,194.365,7.643,128,7.643z"
       id="path554" />
    <radialGradient
       id="XMLID_1_"
       cx="-118.7207"
       cy="490.2871"
       r="259.5079"
       fx="-118.7207"
       fy="490.2871"
       gradientTransform="matrix(1 0 0 -1 168.5 547.5)"
       gradientUnits="userSpaceOnUse">
      <stop
         offset="0.0056"
         style="stop-color:#72C296"
         id="stop556" />
      <stop
         offset="0.5843"
         style="stop-color:#33CC66"
         id="stop557" />
      <stop
         offset="1"
         style="stop-color:#007F4B"
         id="stop558" />
      <a:midPointStop
         offset="0.0056"
         style="stop-color:#72C296"
         id="midPointStop559" />
      <a:midPointStop
         offset="0.5"
         style="stop-color:#72C296"
         id="midPointStop560" />
      <a:midPointStop
         offset="0.5843"
         style="stop-color:#33CC66"
         id="midPointStop561" />
      <a:midPointStop
         offset="0.5"
         style="stop-color:#33CC66"
         id="midPointStop562" />
      <a:midPointStop
         offset="1"
         style="stop-color:#007F4B"
         id="midPointStop563" />
    </radialGradient>
    <path
       style="fill:url(#XMLID_1_);stroke:none;"
       d="M13.643,128.001c0,63.157,51.199,114.356,114.357,114.356s114.357-51.199,114.357-114.356    c0-63.158-51.199-114.358-114.357-114.358S13.643,64.843,13.643,128.001z"
       id="path564" />
    <path
       style="opacity:0.7;fill:#FFFFFF;stroke:none;"
       d="M16.643,132.016C16.643,68.857,67.842,17.657,131,17.657c36.629,0,69.23,17.222,90.16,44.008    C200.426,32.597,166.428,13.643,128,13.643c-63.158,0-114.357,51.2-114.357,114.358c0,26.53,9.037,50.946,24.196,70.349    C24.494,179.643,16.643,156.746,16.643,132.016z"
       id="path565" />
    <g
       id="g566">
      <linearGradient
         id="XMLID_2_"
         gradientUnits="userSpaceOnUse"
         x1="-41.7905"
         y1="531.2988"
         x2="-41.7905"
         y2="442.2979"
         gradientTransform="matrix(1 0 0 -1 168.5 547.5)">
        <stop
           offset="0.0056"
           style="stop-color:#FFFFFF"
           id="stop568" />
        <stop
           offset="1"
           style="stop-color:#84D2A3"
           id="stop569" />
        <a:midPointStop
           offset="0.0056"
           style="stop-color:#FFFFFF"
           id="midPointStop570" />
        <a:midPointStop
           offset="0.5"
           style="stop-color:#FFFFFF"
           id="midPointStop571" />
        <a:midPointStop
           offset="1"
           style="stop-color:#84D2A3"
           id="midPointStop572" />
      </linearGradient>
      <path
         style="fill:url(#XMLID_2_);stroke:none;adobe-blending-mode:screen;"
         d="M34.866,74.955c22.012,10.016,52.93,16.248,87.174,16.248c39.413,0,74.421-8.256,96.513-21.033     C200.533,38.81,166.691,17.643,128,17.643C87.372,17.643,52.097,40.982,34.866,74.955z"
         id="path573" />
    </g>
    <path
       style="fill:#FFFFFF;stroke:none;"
       d="M123.212,61.304c-27.063,17.912-48.82,35.736-68.016,51.461c0.008-0.008,0.113-0.091,0.121-0.098    l-5.562,4.504c-2.047,1.658-3.221,4.121-3.221,6.756l0.604,3.188c1.402,3.551,4.898,5.753,8.702,5.485    c0,0,4.313-0.293,7.158-0.486c4.235,15.889,8.492,34.367,9.39,53.281c0.297,6.03,5.178,10.75,11.112,10.75h20.991    c2.305,0,4.557-0.939,6.178-2.578c1.622-1.64,2.539-3.9,2.515-6.207c-0.103-9.905-0.461-19.98-1.097-30.801    c0.002,0.013,0.002,0.015,0.002,0.01c0-0.021-0.006-0.191-0.01-0.332c0.003-0.965,0.381-1.902,1.068-2.639    c0.869-0.936,2.176-1.476,3.586-1.482h22.582c1.343,0.008,2.677,0.563,3.533,1.48c0.717,0.769,1.063,1.639,1.067,2.657    c-0.006,0.158-0.013,0.354-0.015,0.418c-0.631,10.775-0.986,20.816-1.092,30.688c0,0.026,0,0.057,0,0.084    c0,2.279,0.914,4.506,2.516,6.123c1.621,1.639,3.873,2.578,6.18,2.578h20.992c5.938,0,10.814-4.722,11.111-10.748    c0.897-18.922,5.154-37.4,9.389-53.283c2.832,0.191,7.175,0.486,7.175,0.486c3.79,0.268,7.285-1.937,8.685-5.483    c0.004-0.007,0.606-3.188,0.606-3.188c0-2.634-1.174-5.096-3.219-6.755l-5.447-4.413c0,0-11.353-9.234-16.024-13.035    c0-2.49,0-17.318,0-17.318l-0.48-2.846c-1.67-4.835-7.486-8.087-14.471-8.087h-1.17c-5.646,0-10.584,2.263-13.121,5.718    c-7.604-5.568-15.082-10.832-22.723-15.889C129.895,59.374,126.127,59.374,123.212,61.304z"
       id="path574" />
    <linearGradient
       id="XMLID_3_"
       gradientUnits="userSpaceOnUse"
       x1="-59.0703"
       y1="446.2051"
       x2="45.0044"
       y2="268.9368"
       gradientTransform="matrix(1 0 0 -1 168.5 547.5)">
      <stop
         offset="0.0056"
         style="stop-color:#FFFFFF"
         id="stop576" />
      <stop
         offset="1"
         style="stop-color:#CCCCCC"
         id="stop577" />
      <a:midPointStop
         offset="0.0056"
         style="stop-color:#FFFFFF"
         id="midPointStop578" />
      <a:midPointStop
         offset="0.5"
         style="stop-color:#FFFFFF"
         id="midPointStop579" />
      <a:midPointStop
         offset="1"
         style="stop-color:#CCCCCC"
         id="midPointStop580" />
    </linearGradient>
    <path
       style="fill:url(#XMLID_3_);stroke:none;"
       d="M202.823,121.393l-5.445-4.411c0,0-15.938-12.965-18.026-14.664c-0.006-0.521-0.012-1.076-0.012-1.076    V82.405c0-0.363-0.061-0.723-0.18-1.066c-0.873-2.527-4.889-4.433-9.338-4.433h-1.17c-4.51,0-8.533,1.97-9.361,4.582    c-0.057,0.177-0.098,0.358-0.122,0.541c0,0-0.276,2.003-0.543,3.935c-1.476-0.984-3.001-2.006-3.037-2.029    c-8.665-6.434-17.1-12.357-25.778-18.102c-1.09-0.721-2.507-0.721-3.599,0.001c-26.828,17.757-48.475,35.487-67.572,51.134    c-0.012,0.008-5.463,4.425-5.463,4.425c-0.781,0.632-1.208,1.571-1.208,2.534c0,0.4,0.073,0.807,0.228,1.195    c0.521,1.324,1.843,2.156,3.262,2.056l9.87-0.669c0,0,0.92-0.057,1.769-0.109c0.223,0.82,0.463,1.711,0.463,1.711    c4.527,16.719,9.287,36.569,10.258,57.025c0.154,3.128,2.65,5.574,5.685,5.574h20.991c0.87,0,1.704-0.349,2.316-0.967    c0.612-0.619,0.952-1.457,0.943-2.327c-0.102-9.814-0.457-19.807-1.088-30.54c0-0.019-0.021-0.627-0.021-0.627    c0-2.351,0.898-4.608,2.53-6.358c1.885-2.021,4.629-3.191,7.526-3.209h22.615c2.879,0.018,5.623,1.188,7.508,3.209    c1.654,1.773,2.529,3.979,2.529,6.375l-0.021,0.631c-0.628,10.723-0.982,20.703-1.087,30.521c-0.009,0.87,0.33,1.708,0.942,2.327    c0.611,0.619,1.446,0.967,2.317,0.967h20.992c3.034,0,5.53-2.449,5.685-5.579c0.973-20.459,5.729-40.306,10.256-57.021    c0,0,0.242-0.891,0.465-1.711c0.848,0.053,1.768,0.109,1.768,0.109l9.871,0.669c1.419,0.101,2.74-0.731,3.262-2.056    c0.153-0.389,0.229-0.795,0.229-1.195C204.031,122.964,203.604,122.024,202.823,121.393z"
       id="path581" />
  </g>
</svg>
