<?xml version="1.0" encoding="UTF-8" standalone="no"?>
<!DOCTYPE svg PUBLIC "-//W3C//DTD SVG 20010904//EN"
"http://www.w3.org/TR/2001/REC-SVG-20010904/DTD/svg10.dtd">
<!-- Created with Sodipodi ("http://www.sodipodi.com/") -->
<svg
   width="48pt"
   height="48pt"
   viewBox="0 0 256 256"
   style="overflow:visible;enable-background:new 0 0 256 256"
   xml:space="preserve"
   xmlns="http://www.w3.org/2000/svg"
   xmlns:xml="http://www.w3.org/XML/1998/namespace"
   xmlns:a="http://ns.adobe.com/AdobeSVGViewerExtensions/3.0/"
   xmlns:sodipodi="http://sodipodi.sourceforge.net/DTD/sodipodi-0.dtd"
   xmlns:xlink="http://www.w3.org/1999/xlink"
   id="svg548"
   sodipodi:version="0.32"
   sodipodi:docname="/home/cschalle/gnome-themes-extras/Nuvola/icons/scalable/stock/stock_go-back.svg"
   sodipodi:docbase="/home/cschalle/gnome-themes-extras/Nuvola/icons/scalable/stock">
  <defs
     id="defs582" />
  <sodipodi:namedview
     id="base" />
  <g
     id="Layer_1"
     style="stroke:#000000;">
    <g
       id="Layer_1_1_">
      <path
         style="fill:none;stroke:none;"
         d="M256,256H0V0h256V256z"
         id="path551" />
    </g>
    <path
       style="opacity:0.25;stroke:none;"
       d="M8.643,131.001c0,67.468,54.89,122.356,122.357,122.356c67.469,0,122.357-54.89,122.357-122.356    C253.357,63.532,198.469,8.643,131,8.643C63.532,8.643,8.643,63.532,8.643,131.001z"
       id="path552" />
    <path
       style="fill:#00008D;stroke:none;"
       d="M5.643,128.001c0,67.468,54.89,122.356,122.357,122.356c67.469,0,122.357-54.89,122.357-122.356    C250.357,60.532,195.469,5.643,128,5.643C60.532,5.643,5.643,60.532,5.643,128.001z"
       id="path553" />
    <path
       style="fill:#0032A4;stroke:none;"
       d="M128,7.643C61.635,7.643,7.643,61.636,7.643,128.001c0,66.364,53.992,120.356,120.357,120.356    s120.357-53.992,120.357-120.356C248.357,61.636,194.365,7.643,128,7.643z"
       id="path554" />
    <radialGradient
       id="XMLID_1_"
       cx="-118.7207"
       cy="490.2871"
       r="259.5079"
       fx="-118.7207"
       fy="490.2871"
       gradientTransform="matrix(1 0 0 -1 168.5 547.5)"
       gradientUnits="userSpaceOnUse">
      <stop
         offset="0.0056"
         style="stop-color:#99CCFF"
         id="stop556" />
      <stop
         offset="0.5843"
         style="stop-color:#3399FF"
         id="stop557" />
      <stop
         offset="1"
         style="stop-color:#0035ED"
         id="stop558" />
      <a:midPointStop
         offset="0.0056"
         style="stop-color:#99CCFF"
         id="midPointStop559" />
      <a:midPointStop
         offset="0.5"
         style="stop-color:#99CCFF"
         id="midPointStop560" />
      <a:midPointStop
         offset="0.5843"
         style="stop-color:#3399FF"
         id="midPointStop561" />
      <a:midPointStop
         offset="0.5"
         style="stop-color:#3399FF"
         id="midPointStop562" />
      <a:midPointStop
         offset="1"
         style="stop-color:#0035ED"
         id="midPointStop563" />
    </radialGradient>
    <path
       style="fill:url(#XMLID_1_);stroke:none;"
       d="M13.643,128.001c0,63.157,51.199,114.356,114.357,114.356s114.357-51.199,114.357-114.356    c0-63.158-51.199-114.358-114.357-114.358S13.643,64.843,13.643,128.001z"
       id="path564" />
    <linearGradient
       id="XMLID_2_"
       gradientUnits="userSpaceOnUse"
       x1="126.7095"
       y1="16.2017"
       x2="126.7095"
       y2="105.202">
      <stop
         offset="0.0056"
         style="stop-color:#FFFFFF"
         id="stop566" />
      <stop
         offset="1"
         style="stop-color:#7ABDFF"
         id="stop567" />
      <a:midPointStop
         offset="0.0056"
         style="stop-color:#FFFFFF"
         id="midPointStop568" />
      <a:midPointStop
         offset="0.5"
         style="stop-color:#FFFFFF"
         id="midPointStop569" />
      <a:midPointStop
         offset="1"
         style="stop-color:#7ABDFF"
         id="midPointStop570" />
    </linearGradient>
    <path
       style="fill:url(#XMLID_2_);stroke:none;"
       d="M95.889,60.943c3.318-4.276,8.676-5.629,13.324-3.369c4.226,2.048,6.955,6.733,6.955,11.933    c0,0,0,10.863,0,21.63c1.947,0.041,3.902,0.066,5.872,0.066c39.413,0,74.421-8.256,96.513-21.033    C200.533,38.81,166.691,17.643,128,17.643c-40.628,0-75.903,23.339-93.134,57.312c11.424,5.198,25.262,9.365,40.704,12.183    L95.889,60.943z"
       id="path571" />
    <path
       style="opacity:0.7;fill:#FFFFFF;stroke:none;"
       d="M16.643,132.016C16.643,68.857,67.842,17.657,131,17.657c36.629,0,69.23,17.222,90.16,44.008    C200.426,32.597,166.428,13.643,128,13.643c-63.158,0-114.357,51.2-114.357,114.358c0,26.53,9.037,50.946,24.196,70.349    C24.494,179.643,16.643,156.746,16.643,132.016z"
       id="path572" />
    <path
       style="fill:#FFFFFF;stroke:none;"
       d="M109.215,198.427c4.225-2.049,6.953-6.731,6.953-11.931c0,0,0-33.051,0-40.995c8.816,0,76.905,0,76.905,0    c8.409,0,15.254-7.851,15.254-17.499c0-9.651-6.845-17.501-15.254-17.501c0,0-68.089-0.001-76.905-0.001    c0-7.943,0-40.993,0-40.993c0-5.2-2.729-9.885-6.955-11.933c-4.648-2.26-10.006-0.907-13.324,3.369L50.514,119.44    c-3.787,4.881-3.787,12.244,0,17.125l45.373,58.49C99.199,199.33,104.557,200.688,109.215,198.427z"
       id="path573" />
    <linearGradient
       id="XMLID_3_"
       gradientUnits="userSpaceOnUse"
       x1="-46.9106"
       y1="423.0752"
       x2="-121.9093"
       y2="348.0765"
       gradientTransform="matrix(1 0 0 -1 168.5801 551.9082)">
      <stop
         offset="0.0056"
         style="stop-color:#FFFFFF"
         id="stop575" />
      <stop
         offset="1"
         style="stop-color:#CCCCCC"
         id="stop576" />
      <a:midPointStop
         offset="0.0056"
         style="stop-color:#FFFFFF"
         id="midPointStop577" />
      <a:midPointStop
         offset="0.5"
         style="stop-color:#FFFFFF"
         id="midPointStop578" />
      <a:midPointStop
         offset="1"
         style="stop-color:#CCCCCC"
         id="midPointStop579" />
    </linearGradient>
    <path
       style="fill:url(#XMLID_3_);stroke:none;"
       d="M54.465,133.498l45.373,58.493c1.857,2.396,4.682,3.155,7.195,1.938c2.512-1.22,4.135-4.138,4.135-7.435    l0.002-45.994h81.902c5.654,0,10.255-5.606,10.255-12.5c0-6.893-4.601-12.501-10.254-12.501H111.17V69.506    c0-3.297-1.625-6.215-4.139-7.433c-2.508-1.22-5.332-0.461-7.191,1.935l-45.375,58.496    C52.072,125.586,52.072,130.416,54.465,133.498z"
       id="path580" />
  </g>
</svg>
