<?xml version="1.0" encoding="UTF-8" standalone="no"?>
<!DOCTYPE svg PUBLIC "-//W3C//DTD SVG 20010904//EN"
"http://www.w3.org/TR/2001/REC-SVG-20010904/DTD/svg10.dtd"
[
 <!ATTLIST svg
  xmlns:xlink CDATA #FIXED "http://www.w3.org/1999/xlink">
]>
<!-- Created with Sodipodi ("http://www.sodipodi.com/") -->
<svg
   xmlns="http://www.w3.org/2000/svg"
   xmlns:xlink="http://www.w3.org/1999/xlink"
   version="1"
   x="0.00000000"
   y="0.00000000"
   width="60.0000000"
   height="60.0000000"
   viewBox="0 0 256 256"
   id="svg548">
  <defs
     id="defs582" />
  <g
     style="font-size:12;stroke:#000000;"
     id="Layer_1">
    <g
       id="Layer_1_1_">
      <path
         d="M 256 256 L 0 256 L 0 0 L 256 0 L 256 256 z "
         style="fill:none;stroke:none;"
         id="path551" />
    </g>
    <path
       d="M 8.643 131.001 C 8.643 198.469 63.533 253.357 131 253.357 C 198.469 253.357 253.357 198.467 253.357 131.001 C 253.357 63.532 198.469 8.643 131 8.643 C 63.532 8.643 8.643 63.532 8.643 131.001 z "
       style="opacity:0.25;stroke:none;"
       id="path552" />
    <path
       d="M 5.643 128.001 C 5.643 195.469 60.533 250.357 128 250.357 C 195.469 250.357 250.357 195.467 250.357 128.001 C 250.357 60.532 195.469 5.643 128 5.643 C 60.532 5.643 5.643 60.532 5.643 128.001 z "
       style="fill:#003333;stroke:none;"
       id="path553" />
    <path
       d="M 128 7.643 C 61.635 7.643 7.643 61.636 7.643 128.001 C 7.643 194.365 61.635 248.357 128 248.357 C 194.365 248.357 248.357 194.365 248.357 128.001 C 248.357 61.636 194.365 7.643 128 7.643 z "
       style="fill:#336666;stroke:none;"
       id="path554" />
    <radialGradient
       cx="-118.720703"
       cy="490.287109"
       fx="-118.720703"
       fy="490.287109"
       r="259.507904"
       id="XMLID_1_"
       gradientUnits="userSpaceOnUse"
       gradientTransform="matrix(1.000000,0.000000,0.000000,-1.000000,168.5000,547.5000)"
       spreadMethod="pad">
      <stop
         style="stop-color:#72c296;stop-opacity:1;"
         offset="0.00560000"
         id="stop556" />
      <stop
         style="stop-color:#33cc66;stop-opacity:1;"
         offset="0.58429998"
         id="stop557" />
      <stop
         style="stop-color:#007f4b;stop-opacity:1;"
         offset="1.00000000"
         id="stop558" />
      <a:midPointStop
         offset="0.0056"
         style="stop-color:#72C296"
         id="midPointStop559" />
      <a:midPointStop
         offset="0.5"
         style="stop-color:#72C296"
         id="midPointStop560" />
      <a:midPointStop
         offset="0.5843"
         style="stop-color:#33CC66"
         id="midPointStop561" />
      <a:midPointStop
         offset="0.5"
         style="stop-color:#33CC66"
         id="midPointStop562" />
      <a:midPointStop
         offset="1"
         style="stop-color:#007F4B"
         id="midPointStop563" />
    </radialGradient>
    <path
       d="M 13.643 128.001 C 13.643 191.158 64.842 242.357 128 242.357 C 191.158 242.357 242.357 191.158 242.357 128.001 C 242.357 64.843 191.158 13.643 128 13.643 C 64.842 13.643 13.643 64.843 13.643 128.001 z "
       style="fill:url(#XMLID_1_);stroke:none;"
       id="path564" />
    <path
       d="M 16.643 132.016 C 16.643 68.857 67.842 17.657 131 17.657 C 167.629 17.657 200.23 34.879 221.16 61.665 C 200.426 32.597 166.428 13.643 128 13.643 C 64.842 13.643 13.643 64.843 13.643 128.001 C 13.643 154.531 22.68 178.947 37.839 198.35 C 24.494 179.643 16.643 156.746 16.643 132.016 z "
       style="opacity:0.7;fill:#ffffff;stroke:none;"
       id="path565" />
    <linearGradient
       x1="-41.7905006"
       y1="531.298828"
       x2="-41.7905006"
       y2="442.297913"
       id="XMLID_2_"
       gradientUnits="userSpaceOnUse"
       gradientTransform="matrix(1.000000,0.000000,0.000000,-1.000000,168.5000,547.5000)"
       spreadMethod="pad">
      <stop
         style="stop-color:#ffffff;stop-opacity:1;"
         offset="0.00560000"
         id="stop567" />
      <stop
         style="stop-color:#84d2a3;stop-opacity:1;"
         offset="1.00000000"
         id="stop568" />
      <a:midPointStop
         offset="0.0056"
         style="stop-color:#FFFFFF"
         id="midPointStop569" />
      <a:midPointStop
         offset="0.5"
         style="stop-color:#FFFFFF"
         id="midPointStop570" />
      <a:midPointStop
         offset="1"
         style="stop-color:#84D2A3"
         id="midPointStop571" />
    </linearGradient>
    <path
       d="M 34.866 74.955 C 56.878 84.971 87.796 91.203 122.04 91.203 C 161.453 91.203 196.461 82.947 218.553 70.17 C 200.533 38.81 166.691 17.643 128 17.643 C 87.372 17.643 52.097 40.982 34.866 74.955 z "
       style="fill:url(#XMLID_2_);stroke:none;"
       id="path572" />
    <path
       d="M 151.652 56.818 L 78.201 66.096 C 72.071 66.869 66.866 72.075 66.094 78.204 L 56.818 151.646 C 56.138 157.009 58.966 161.755 63.855 163.455 C 68.294 164.994 73.537 163.611 77.212 159.934 C 77.212 159.934 100.582 136.565 106.199 130.949 C 110.639 135.389 120.608 145.358 125.049 149.799 C 119.433 155.416 96.063 178.786 96.063 178.786 C 93.384 181.464 91.923 184.974 91.923 188.397 C 91.923 189.672 92.126 190.936 92.544 192.141 C 94.233 197.026 98.978 199.856 104.347 199.18 L 177.797 189.903 C 183.926 189.13 189.133 183.924 189.906 177.795 L 199.181 104.351 C 199.861 98.986 197.033 94.24 192.14 92.543 C 187.703 91.005 182.461 92.386 178.786 96.064 C 178.786 96.064 155.415 119.433 149.798 125.05 C 145.36 120.609 135.391 110.641 130.947 106.2 C 136.564 100.583 159.933 77.214 159.933 77.214 C 162.613 74.534 164.075 71.024 164.075 67.6 C 164.075 66.326 163.872 65.062 163.454 63.859 C 161.766 58.973 157.021 56.143 151.652 56.818 z "
       style="fill:#ffffff;stroke:none;"
       id="path573" />
    <linearGradient
       x1="-56.6674995"
       y1="412.443390"
       x2="-12.3608999"
       y2="368.136688"
       id="XMLID_3_"
       gradientUnits="userSpaceOnUse"
       gradientTransform="matrix(0.707100,0.707100,0.707100,-0.707100,-123.5694,457.2178)"
       spreadMethod="pad">
      <stop
         style="stop-color:#ffffff;stop-opacity:1;"
         offset="0.00560000"
         id="stop575" />
      <stop
         style="stop-color:#cccccc;stop-opacity:1;"
         offset="1.00000000"
         id="stop576" />
      <a:midPointStop
         offset="0.0056"
         style="stop-color:#FFFFFF"
         id="midPointStop577" />
      <a:midPointStop
         offset="0.5"
         style="stop-color:#FFFFFF"
         id="midPointStop578" />
      <a:midPointStop
         offset="1"
         style="stop-color:#CCCCCC"
         id="midPointStop579" />
    </linearGradient>
    <path
       d="M 184.945 177.169 L 194.22 103.724 C 194.601 100.718 193.142 98.183 190.502 97.267 C 187.862 96.353 184.651 97.267 182.319 99.599 L 149.797 132.12 L 123.877 106.2 L 156.4 73.679 C 158.732 71.347 159.646 68.136 158.732 65.496 C 157.82 62.861 155.287 61.4 152.277 61.779 L 78.827 71.056 C 74.958 71.544 71.542 74.958 71.055 78.829 L 61.778 152.273 C 61.397 155.28 62.858 157.814 65.496 158.73 C 68.135 159.646 71.346 158.73 73.678 156.398 L 106.2 123.877 L 132.121 149.798 L 99.599 182.32 C 97.267 184.65 96.353 187.863 97.268 190.502 C 98.179 193.139 100.712 194.6 103.722 194.221 L 177.17 184.942 C 181.041 184.454 184.457 181.04 184.945 177.169 z "
       style="fill:url(#XMLID_3_);stroke:none;"
       id="path580" />
  </g>
</svg>
