<?xml version="1.0" encoding="UTF-8" standalone="no"?>
<!DOCTYPE svg PUBLIC "-//W3C//DTD SVG 20010904//EN"
"http://www.w3.org/TR/2001/REC-SVG-20010904/DTD/svg10.dtd">
<!-- Created with Sodipodi ("http://www.sodipodi.com/") -->
<svg
   i:viewOrigin="178 524"
   i:rulerOrigin="-178 -268"
   i:pageBounds="178 524 434 268"
   width="48pt"
   height="48pt"
   viewBox="0 0 256 256"
   style="overflow:visible;enable-background:new 0 0 256 256"
   xml:space="preserve"
   id="svg548"
   sodipodi:version="0.32"
   sodipodi:docname="/home/cschalle/gnome-themes-extras/Nuvola/icons/scalable/stock/stock_desktop.svg"
   sodipodi:docbase="/home/cschalle/gnome-themes-extras/Nuvola/icons/scalable/stock"
   xmlns="http://www.w3.org/2000/svg"
   xmlns:sodipodi="http://sodipodi.sourceforge.net/DTD/sodipodi-0.dtd"
   xmlns:ns="http://ns.adobe.com/Variables/1.0/"
   xmlns:i="http://ns.adobe.com/AdobeIllustrator/10.0/"
   xmlns:xml="http://www.w3.org/XML/1998/namespace"
   xmlns:a="http://ns.adobe.com/AdobeSVGViewerExtensions/3.0/"
   xmlns:xlink="http://www.w3.org/1999/xlink">
  <defs
     id="defs686" />
  <sodipodi:namedview
     id="base" />
  <metadata
     id="metadata549">
    <ns:variableSets>
      <ns:variableSet
         varSetName="binding1"
         locked="none">
        <ns:variables />
        <ns:sampleDataSets />
      </ns:variableSet>
    </ns:variableSets>
  </metadata>
  <g
     id="Layer_1"
     i:layer="yes"
     i:dimmedPercent="50"
     i:rgbTrio="#4F008000FFFF"
     style="stroke:#000000;">
    <linearGradient
       id="XMLID_1_"
       gradientUnits="userSpaceOnUse"
       x1="6.5127"
       y1="133.5703"
       x2="241.3867"
       y2="133.5703">
      <stop
         offset="0"
         style="stop-color:#0066CC"
         id="stop552" />
      <stop
         offset="1"
         style="stop-color:#003399"
         id="stop553" />
      <a:midPointStop
         offset="0"
         style="stop-color:#0066CC"
         id="midPointStop554" />
      <a:midPointStop
         offset="0.5"
         style="stop-color:#0066CC"
         id="midPointStop555" />
      <a:midPointStop
         offset="1"
         style="stop-color:#003399"
         id="midPointStop556" />
    </linearGradient>
    <path
       i:knockout="Off"
       style="fill:url(#XMLID_1_);stroke:none;"
       d="M18.442,75.758c-9.405,3.138-14.278,14.021-10.863,24.26l43.455,130.254    c3.416,10.239,13.846,16.017,23.251,12.879l155.172-51.768c9.405-3.137,14.278-14.021,10.862-24.259L196.866,36.87    c-3.416-10.239-13.847-16.017-23.253-12.879L18.442,75.758z"
       id="path557" />
    <path
       i:knockout="Off"
       style="opacity:0.2;stroke:none;"
       d="M29.929,83.758c-9.405,3.138-14.278,14.021-10.863,24.26l43.455,130.254    c3.416,10.239,13.846,16.017,23.251,12.879l155.172-51.768c9.405-3.137,14.278-14.021,10.862-24.259L208.354,44.87    c-3.416-10.239-13.847-16.017-23.253-12.879L29.929,83.758z"
       id="path558" />
    <path
       i:knockout="Off"
       style="fill:#003399;stroke:none;"
       d="M18.442,75.758c-9.405,3.138-14.278,14.021-10.863,24.26l43.455,130.254    c3.416,10.239,13.846,16.017,23.251,12.879l155.172-51.768c9.405-3.137,14.278-14.021,10.862-24.259L196.866,36.87    c-3.416-10.239-13.847-16.017-23.253-12.879L18.442,75.758z"
       id="path559" />
    <path
       i:knockout="Off"
       style="fill:#0066CC;stroke:none;"
       d="M224.384,184.584l-152.7,51.768c-2.635,0.894-5.343,1.058-7.951,0.636    c-4.373-2.284-7.998-6.387-9.747-11.715L11.224,95.018c-0.463-1.412-0.755-2.834-0.918-4.247c-0.34,2.869-0.076,5.893,0.918,8.868    l42.763,127.853c1.749,5.23,5.374,9.257,9.747,11.499c2.607,0.414,5.315,0.253,7.951-0.624l152.7-50.813    c7.799-2.595,12.453-10.458,11.767-18.744C235.546,175.957,231.148,182.291,224.384,184.584z"
       id="path560" />
    <linearGradient
       id="XMLID_2_"
       gradientUnits="userSpaceOnUse"
       x1="118.6475"
       y1="213.8877"
       x2="118.6475"
       y2="94.1167"
       gradientTransform="matrix(0.9486 -0.3165 0.3445 1.0327 -36.5833 27.2787)">
      <stop
         offset="0"
         style="stop-color:#0066CC"
         id="stop562" />
      <stop
         offset="1"
         style="stop-color:#3399FF"
         id="stop563" />
      <a:midPointStop
         offset="0"
         style="stop-color:#0066CC"
         id="midPointStop564" />
      <a:midPointStop
         offset="0.5"
         style="stop-color:#0066CC"
         id="midPointStop565" />
      <a:midPointStop
         offset="1"
         style="stop-color:#3399FF"
         id="midPointStop566" />
    </linearGradient>
    <path
       i:knockout="Off"
       style="fill:url(#XMLID_2_);stroke:none;"
       d="M56.835,225.291c2.074,6.216,8.385,9.712,14.097,7.807l155.171-51.767    c5.711-1.905,8.661-8.491,6.587-14.707L189.235,36.368c-2.074-6.218-8.386-9.712-14.097-7.807L19.966,80.328    c-5.711,1.905-8.66,8.49-6.585,14.708L56.835,225.291z"
       id="path567" />
    <path
       i:knockout="Off"
       style="fill:#FF9900;stroke:none;"
       d="M144.008,38.946c19.093,10.573,39.236,21.731,56.533,31.311l-8.007-24l-26.479-14.666    L144.008,38.946z"
       id="path568" />
    <path
       i:knockout="Off"
       style="opacity:0.2;stroke:none;"
       d="M55.813,76.318c-5.465,1.823-8.336,8.027-6.4,13.83l41.304,123.811    c1.936,5.803,7.957,9.039,13.421,7.216l102.608-34.231c5.466-1.823,8.337-8.026,6.401-13.829L171.844,49.304    c-1.936-5.803-7.958-9.041-13.422-7.217L55.813,76.318z"
       id="path569" />
    <path
       i:knockout="Off"
       style="fill:#003366;stroke:none;"
       d="M59.813,72.318c-5.465,1.823-8.336,8.027-6.4,13.83l41.304,123.811    c1.936,5.803,7.957,9.039,13.421,7.216l102.608-34.231c5.466-1.823,8.337-8.026,6.401-13.829L175.844,45.304    c-1.936-5.803-7.958-9.041-13.422-7.217L59.813,72.318z"
       id="path570" />
    <path
       i:knockout="Off"
       style="fill:#99CCFF;stroke:none;"
       d="M97.632,208.986c1.369,4.103,5.611,6.383,9.475,5.095l102.608-34.231    c3.865-1.289,5.887-5.66,4.518-9.763L172.929,46.276c-1.369-4.103-5.61-6.384-9.476-5.094L60.846,75.413    c-3.864,1.289-5.887,5.66-4.518,9.762L97.632,208.986z"
       id="path571" />
    <linearGradient
       id="XMLID_3_"
       gradientUnits="userSpaceOnUse"
       x1="104.8911"
       y1="111.0229"
       x2="248.6473"
       y2="254.7791"
       gradientTransform="matrix(0.9486 -0.3165 0.3445 1.0327 -36.5833 27.2787)">
      <stop
         offset="0"
         style="stop-color:#FFFFFF"
         id="stop573" />
      <stop
         offset="1"
         style="stop-color:#99CCFF"
         id="stop574" />
      <a:midPointStop
         offset="0"
         style="stop-color:#FFFFFF"
         id="midPointStop575" />
      <a:midPointStop
         offset="0.5"
         style="stop-color:#FFFFFF"
         id="midPointStop576" />
      <a:midPointStop
         offset="1"
         style="stop-color:#99CCFF"
         id="midPointStop577" />
    </linearGradient>
    <path
       i:knockout="Off"
       style="fill:url(#XMLID_3_);stroke:none;"
       d="M61.878,78.508c-2.25,0.751-3.433,3.306-2.635,5.695l41.304,123.811    c0.797,2.389,3.277,3.723,5.527,2.972l102.607-34.231c2.251-0.751,3.433-3.306,2.636-5.694L170.014,47.249    c-0.798-2.389-3.276-3.723-5.527-2.972L61.878,78.508z"
       id="path578" />
    <path
       i:knockout="Off"
       style="opacity:0.4;fill:#FFFFFF;stroke:none;"
       d="M151.143,107.205c7.24-14.408,18.496-24.061,31.645-31.377l-9.858-29.551    c-1.369-4.103-5.61-6.384-9.476-5.094L60.846,75.413c-3.864,1.289-5.887,5.66-4.518,9.762l29.588,88.69    C115.594,166.538,135.81,136.061,151.143,107.205z"
       id="path579" />
    <linearGradient
       id="XMLID_4_"
       gradientUnits="userSpaceOnUse"
       x1="232.0176"
       y1="83.6431"
       x2="199.5657"
       y2="83.6431"
       gradientTransform="matrix(0.9486 -0.3165 0.3445 1.0327 -36.5833 27.2787)">
      <stop
         offset="0"
         style="stop-color:#FF9900"
         id="stop581" />
      <stop
         offset="1"
         style="stop-color:#FFCC00"
         id="stop582" />
      <a:midPointStop
         offset="0"
         style="stop-color:#FF9900"
         id="midPointStop583" />
      <a:midPointStop
         offset="0.5"
         style="stop-color:#FF9900"
         id="midPointStop584" />
      <a:midPointStop
         offset="1"
         style="stop-color:#FFCC00"
         id="midPointStop585" />
    </linearGradient>
    <path
       i:knockout="Off"
       style="fill:url(#XMLID_4_);stroke:none;"
       d="M145.688,38.386c18.32,10.146,37.647,20.851,54.244,30.043l-7.683-23.028l-25.407-14.072    L145.688,38.386z"
       id="path586" />
    <path
       i:knockout="Off"
       style="fill:#FF9900;stroke:none;"
       d="M24.549,128.969c8.123-18.06,17.582-39.093,26.547-59.026l-22.119,7.379l-12.434,27.647    L24.549,128.969z"
       id="path587" />
    <linearGradient
       id="XMLID_5_"
       gradientUnits="userSpaceOnUse"
       x1="21.9751"
       y1="83.6377"
       x2="50.293"
       y2="83.6377"
       gradientTransform="matrix(0.9486 -0.3165 0.3445 1.0327 -36.5833 27.2787)">
      <stop
         offset="0"
         style="stop-color:#FF9900"
         id="stop589" />
      <stop
         offset="1"
         style="stop-color:#FFCC00"
         id="stop590" />
      <a:midPointStop
         offset="0"
         style="stop-color:#FF9900"
         id="midPointStop591" />
      <a:midPointStop
         offset="0.5"
         style="stop-color:#FF9900"
         id="midPointStop592" />
      <a:midPointStop
         offset="1"
         style="stop-color:#FFCC00"
         id="midPointStop593" />
    </linearGradient>
    <path
       i:knockout="Off"
       style="fill:url(#XMLID_5_);stroke:none;"
       d="M24.077,127.096c7.753-17.315,16.782-37.481,25.34-56.593L28.263,77.56l-11.869,26.506    L24.077,127.096z"
       id="path594" />
    <linearGradient
       id="XMLID_6_"
       gradientUnits="userSpaceOnUse"
       x1="25.957"
       y1="190.5098"
       x2="66.1333"
       y2="190.5098"
       gradientTransform="matrix(0.9486 -0.3165 0.3445 1.0327 -36.5833 27.2787)">
      <stop
         offset="0"
         style="stop-color:#0066CC"
         id="stop596" />
      <stop
         offset="1"
         style="stop-color:#3399FF"
         id="stop597" />
      <a:midPointStop
         offset="0"
         style="stop-color:#0066CC"
         id="midPointStop598" />
      <a:midPointStop
         offset="0.5"
         style="stop-color:#0066CC"
         id="midPointStop599" />
      <a:midPointStop
         offset="1"
         style="stop-color:#3399FF"
         id="midPointStop600" />
    </linearGradient>
    <path
       i:knockout="Off"
       style="fill:url(#XMLID_6_);stroke:none;"
       d="M54.432,218.087l23.116,12.804l21.154-7.058c-17.563-9.729-35.958-19.915-51.952-28.774    L54.432,218.087z"
       id="path601" />
    <linearGradient
       id="XMLID_7_"
       gradientUnits="userSpaceOnUse"
       x1="17.8447"
       y1="189.626"
       x2="57.9668"
       y2="189.626"
       gradientTransform="matrix(0.9486 -0.3165 0.3445 1.0327 -36.5833 27.2787)">
      <stop
         offset="0"
         style="stop-color:#FF9900"
         id="stop603" />
      <stop
         offset="1"
         style="stop-color:#FFCC00"
         id="stop604" />
      <a:midPointStop
         offset="0"
         style="stop-color:#FF9900"
         id="midPointStop605" />
      <a:midPointStop
         offset="0.5"
         style="stop-color:#FF9900"
         id="midPointStop606" />
      <a:midPointStop
         offset="1"
         style="stop-color:#FFCC00"
         id="midPointStop607" />
    </linearGradient>
    <path
       i:knockout="Off"
       style="fill:url(#XMLID_7_);stroke:none;"
       d="M100.381,223.273c-18.318-10.146-37.645-20.851-54.241-30.041l7.682,23.027    l25.404,14.071L100.381,223.273z"
       id="path608" />
    <path
       i:knockout="Off"
       style="fill:#FF9900;stroke:none;"
       d="M219.487,183.538l10.799-24.119l-7.683-23.026c-7.471,16.687-16.064,35.877-24.27,54.202    L219.487,183.538z"
       id="path609" />
    <linearGradient
       id="XMLID_8_"
       gradientUnits="userSpaceOnUse"
       x1="239.0977"
       y1="189.6309"
       x2="188.9478"
       y2="189.6309"
       gradientTransform="matrix(0.9486 -0.3165 0.3445 1.0327 -36.5833 27.2787)">
      <stop
         offset="0"
         style="stop-color:#FF9900"
         id="stop611" />
      <stop
         offset="1"
         style="stop-color:#FFCC00"
         id="stop612" />
      <a:midPointStop
         offset="0"
         style="stop-color:#FF9900"
         id="midPointStop613" />
      <a:midPointStop
         offset="0.5"
         style="stop-color:#FF9900"
         id="midPointStop614" />
      <a:midPointStop
         offset="1"
         style="stop-color:#FFCC00"
         id="midPointStop615" />
    </linearGradient>
    <path
       i:knockout="Off"
       style="fill:url(#XMLID_8_);stroke:none;"
       d="M221.995,134.563c-7.754,17.315-16.783,37.48-25.34,56.592l21.153-7.057l11.868-26.507    L221.995,134.563z"
       id="path616" />
    <path
       i:knockout="Off"
       style="opacity:0.2;stroke:none;"
       d="M133.887,119.158l-5.226-5.459l-0.981-1.024l-2.553,8.453L133.887,119.158z     M123.521,104.7c0.16-0.531,0.326-1.074,0.326-1.074l-91.62-27.64l-0.73,2.418l-6.184,20.5l91.618,27.64    c0,0,0.16-0.531,0.315-1.044c2.449-0.551,21.551-4.844,21.551-4.844S125.256,106.513,123.521,104.7z M115.259,123.345    l-0.016,0.052L28.46,97.215l5.455-18.082l86.782,26.181l-0.016,0.051l6.998,7.308v0l0.981,1.025l5.228,5.459L115.259,123.345z     M119.167,110.391l1.515-5.025l-0.022-0.023l-1.521,5.04L61.575,93.016c-2.181-1.893-4.213-4.015-6.056-6.375    c-0.51-0.154-19.324-5.83-20.97-6.327c-0.146,0.486-0.638,2.115-1.258,4.169l-0.907-0.273l-2.392,7.93l0.907,0.273    c-0.62,2.055-1.111,3.684-1.258,4.169c1.724,0.521,70.548,21.282,74.383,22.438c-1.065-2.132-2.234-3.988-3.521-5.608l16.243,4.9    l-1.52,5.039l0.033-0.007l2.463-8.166L119.167,110.391z"
       id="path617" />
    <path
       i:knockout="Off"
       style="fill:#999999;stroke:none;"
       d="M31.498,75.404l-6.184,20.5l91.618,27.64c0,0,0.16-0.531,0.315-1.044    c2.449-0.551,21.551-4.844,21.551-4.844s-13.543-14.143-15.277-15.956c0.16-0.531,0.326-1.074,0.326-1.074l-91.62-27.64    L31.498,75.404z"
       id="path618" />
    <linearGradient
       id="XMLID_9_"
       gradientUnits="userSpaceOnUse"
       x1="144.8418"
       y1="87.4868"
       x2="155.1555"
       y2="87.4868"
       gradientTransform="matrix(0.2888 -0.9574 0.9574 0.2888 -52.3257 216.0272)">
      <stop
         offset="0"
         style="stop-color:#FEE382"
         id="stop620" />
      <stop
         offset="0.5449"
         style="stop-color:#FFE649"
         id="stop621" />
      <stop
         offset="0.6371"
         style="stop-color:#FFE34C"
         id="stop622" />
      <stop
         offset="1"
         style="stop-color:#FED953"
         id="stop623" />
      <a:midPointStop
         offset="0"
         style="stop-color:#FEE382"
         id="midPointStop624" />
      <a:midPointStop
         offset="0.5"
         style="stop-color:#FEE382"
         id="midPointStop625" />
      <a:midPointStop
         offset="0.5449"
         style="stop-color:#FFE649"
         id="midPointStop626" />
      <a:midPointStop
         offset="0.4068"
         style="stop-color:#FFE649"
         id="midPointStop627" />
      <a:midPointStop
         offset="1"
         style="stop-color:#FED953"
         id="midPointStop628" />
    </linearGradient>
    <path
       i:knockout="Off"
       style="fill:url(#XMLID_9_);stroke:none;"
       d="M120.698,102.315l-5.454,18.082L28.46,94.215l5.455-18.082L120.698,102.315z"
       id="path629" />
    <linearGradient
       id="XMLID_10_"
       gradientUnits="userSpaceOnUse"
       x1="153.2598"
       y1="87.4873"
       x2="144.4705"
       y2="87.4873"
       gradientTransform="matrix(0.2888 -0.9574 0.9574 0.2888 -52.3257 216.0272)">
      <stop
         offset="0"
         style="stop-color:#FF7300"
         id="stop631" />
      <stop
         offset="0.6629"
         style="stop-color:#FF9900"
         id="stop632" />
      <a:midPointStop
         offset="0"
         style="stop-color:#FF7300"
         id="midPointStop633" />
      <a:midPointStop
         offset="0.5"
         style="stop-color:#FF7300"
         id="midPointStop634" />
      <a:midPointStop
         offset="0.6629"
         style="stop-color:#FF9900"
         id="midPointStop635" />
    </linearGradient>
    <path
       i:knockout="Off"
       style="fill:url(#XMLID_10_);stroke:none;"
       d="M119.167,107.391l-2.394,7.931L29.992,89.14l2.392-7.93L119.167,107.391z"
       id="path636" />
    <linearGradient
       id="XMLID_11_"
       gradientUnits="userSpaceOnUse"
       x1="149.1387"
       y1="136.1543"
       x2="157.0837"
       y2="144.0993"
       gradientTransform="matrix(0.2888 -0.9574 0.9574 0.2888 -52.3257 216.0272)">
      <stop
         offset="0"
         style="stop-color:#FEDBB1"
         id="stop638" />
      <stop
         offset="1"
         style="stop-color:#DEAF78"
         id="stop639" />
      <a:midPointStop
         offset="0"
         style="stop-color:#FEDBB1"
         id="midPointStop640" />
      <a:midPointStop
         offset="0.5"
         style="stop-color:#FEDBB1"
         id="midPointStop641" />
      <a:midPointStop
         offset="1"
         style="stop-color:#DEAF78"
         id="midPointStop642" />
    </linearGradient>
    <path
       i:knockout="Off"
       style="fill:url(#XMLID_11_);stroke:none;"
       d="M120.66,102.343l13.229,13.815l-18.663,4.194L120.66,102.343z"
       id="path643" />
    <linearGradient
       id="XMLID_12_"
       gradientUnits="userSpaceOnUse"
       x1="119.4229"
       y1="132.7754"
       x2="121.7311"
       y2="129.8076"
       gradientTransform="matrix(0.7833 -0.6216 0.6216 0.7833 -46.5797 86.3663)">
      <stop
         offset="0"
         style="stop-color:#C2BAAD"
         id="stop645" />
      <stop
         offset="1"
         style="stop-color:#D4CCBF"
         id="stop646" />
      <a:midPointStop
         offset="0"
         style="stop-color:#C2BAAD"
         id="midPointStop647" />
      <a:midPointStop
         offset="0.5"
         style="stop-color:#C2BAAD"
         id="midPointStop648" />
      <a:midPointStop
         offset="1"
         style="stop-color:#D4CCBF"
         id="midPointStop649" />
    </linearGradient>
    <path
       i:knockout="Off"
       style="fill:url(#XMLID_12_);stroke:none;"
       d="M127.68,109.673l6.207,6.484l-8.76,1.969L127.68,109.673z"
       id="path650" />
    <linearGradient
       id="XMLID_13_"
       gradientUnits="userSpaceOnUse"
       x1="148.4932"
       y1="81.0586"
       x2="153.3839"
       y2="85.9493"
       gradientTransform="matrix(0.2888 -0.9574 0.9574 0.2888 -52.3257 216.0272)">
      <stop
         offset="0"
         style="stop-color:#FFFFFF"
         id="stop652" />
      <stop
         offset="1"
         style="stop-color:#FFE649"
         id="stop653" />
      <a:midPointStop
         offset="0"
         style="stop-color:#FFFFFF"
         id="midPointStop654" />
      <a:midPointStop
         offset="0.5"
         style="stop-color:#FFFFFF"
         id="midPointStop655" />
      <a:midPointStop
         offset="1"
         style="stop-color:#FFE649"
         id="midPointStop656" />
    </linearGradient>
    <path
       i:knockout="Off"
       style="opacity:0.4;fill:url(#XMLID_13_);stroke:none;adobe-blending-mode:screen;"
       d="M29.641,93.583c1.724,0.521,70.548,21.282,74.383,22.438    c-2.743-5.487-6.141-9.197-10.597-11.551c-3.959-2.026-8.22-3.434-12.34-4.796c-5.573-1.841-11.335-3.745-16.452-7.214    c-3.38-2.419-6.435-5.385-9.116-8.819c-0.51-0.154-19.324-5.83-20.97-6.327C34.082,78.863,30.109,92.033,29.641,93.583z"
       id="path657" />
    <path
       i:knockout="Off"
       style="opacity:0.2;stroke:none;"
       d="M31.948,199.355l-3.341-21.149l94.522-14.938c0,0,0.088,0.548,0.17,1.076    c2.354,0.88,20.695,7.727,20.695,7.727s-15.34,12.174-17.305,13.733c0.088,0.548,0.178,1.107,0.178,1.107l-94.525,14.938    L31.948,199.355z"
       id="path658" />
    <path
       i:knockout="Off"
       style="fill:#999999;stroke:none;"
       d="M28.948,197.355l-3.341-21.149l94.523-14.938c0,0,0.087,0.548,0.169,1.076    c2.354,0.88,20.696,7.727,20.696,7.727s-15.34,12.174-17.305,13.733c0.088,0.548,0.178,1.107,0.178,1.107l-94.525,14.938    L28.948,197.355z"
       id="path659" />
    <path
       i:knockout="Off"
       style="fill:#33CC33;stroke:none;"
       d="M120.976,182.813l-2.948-18.656l-89.534,14.149l2.948,18.656L120.976,182.813z"
       id="path660" />
    <path
       i:knockout="Off"
       style="fill:#009900;stroke:none;"
       d="M120.151,177.575l-1.295-8.184l-89.535,14.15l1.293,8.182L120.151,177.575z"
       id="path661" />
    <linearGradient
       id="XMLID_14_"
       gradientUnits="userSpaceOnUse"
       x1="98.0444"
       y1="163.1455"
       x2="105.9886"
       y2="171.0897"
       gradientTransform="matrix(0.1561 0.9878 0.9878 -0.1561 -53.6923 101.332)">
      <stop
         offset="0"
         style="stop-color:#FEDBB1"
         id="stop663" />
      <stop
         offset="1"
         style="stop-color:#DEAF78"
         id="stop664" />
      <a:midPointStop
         offset="0"
         style="stop-color:#FEDBB1"
         id="midPointStop665" />
      <a:midPointStop
         offset="0.5"
         style="stop-color:#FEDBB1"
         id="midPointStop666" />
      <a:midPointStop
         offset="1"
         style="stop-color:#DEAF78"
         id="midPointStop667" />
    </linearGradient>
    <path
       i:knockout="Off"
       style="fill:url(#XMLID_14_);stroke:none;"
       d="M120.943,182.778l14.983-11.89l-17.92-6.689L120.943,182.778z"
       id="path668" />
    <linearGradient
       id="XMLID_15_"
       gradientUnits="userSpaceOnUse"
       x1="92.7339"
       y1="184.4834"
       x2="95.0421"
       y2="181.5157"
       gradientTransform="matrix(0.6916 0.7223 0.7223 -0.6916 -65.815 230.9215)">
      <stop
         offset="0"
         style="stop-color:#C2BAAD"
         id="stop670" />
      <stop
         offset="1"
         style="stop-color:#D4CCBF"
         id="stop671" />
      <a:midPointStop
         offset="0"
         style="stop-color:#C2BAAD"
         id="midPointStop672" />
      <a:midPointStop
         offset="0.5"
         style="stop-color:#C2BAAD"
         id="midPointStop673" />
      <a:midPointStop
         offset="1"
         style="stop-color:#D4CCBF"
         id="midPointStop674" />
    </linearGradient>
    <path
       i:knockout="Off"
       style="fill:url(#XMLID_15_);stroke:none;"
       d="M128.893,176.471l7.031-5.582l-8.41-3.14L128.893,176.471z"
       id="path675" />
    <linearGradient
       id="XMLID_16_"
       gradientUnits="userSpaceOnUse"
       x1="97.3979"
       y1="108.0518"
       x2="102.2885"
       y2="112.9423"
       gradientTransform="matrix(0.1561 0.9878 0.9878 -0.1561 -53.6923 101.332)">
      <stop
         offset="0"
         style="stop-color:#FFFFFF"
         id="stop677" />
      <stop
         offset="1"
         style="stop-color:#FFE649"
         id="stop678" />
      <a:midPointStop
         offset="0"
         style="stop-color:#FFFFFF"
         id="midPointStop679" />
      <a:midPointStop
         offset="0.5"
         style="stop-color:#FFFFFF"
         id="midPointStop680" />
      <a:midPointStop
         offset="1"
         style="stop-color:#FFE649"
         id="midPointStop681" />
    </linearGradient>
    <path
       i:knockout="Off"
       style="opacity:0.4;fill:url(#XMLID_16_);stroke:none;adobe-blending-mode:screen;"
       d="M29.577,179.094c1.779-0.283,72.786-11.502,76.741-12.126    c-3.461,5.064-7.333,8.278-12.067,10.003c-4.198,1.471-8.609,2.287-12.877,3.077c-5.771,1.066-11.738,2.17-17.279,4.912    c-3.677,1.938-7.108,4.461-10.229,7.499c-0.527,0.082-19.937,3.15-21.636,3.418C31.977,194.279,29.83,180.691,29.577,179.094z"
       id="path682" />
  </g>
  <g
     id="Layer_2"
     i:layer="yes"
     i:editable="no"
     i:dimmedPercent="50"
     i:rgbTrio="#FFFF4F004F00"
     style="stroke:#000000;">
    <path
       i:knockout="Off"
       style="opacity:0.2;fill:none;stroke:none;"
       d="M256,256H0V0h256V256z"
       id="path684" />
  </g>
</svg>
