<?xml version="1.0" encoding="UTF-8" standalone="no"?>
<!DOCTYPE svg PUBLIC "-//W3C//DTD SVG 20010904//EN"
"http://www.w3.org/TR/2001/REC-SVG-20010904/DTD/svg10.dtd">
<!-- Created with Sodipodi ("http://www.sodipodi.com/") -->
<svg
   width="48pt"
   height="48pt"
   viewBox="0 0 256 256"
   style="overflow:visible;enable-background:new 0 0 256 256"
   xml:space="preserve"
   xmlns="http://www.w3.org/2000/svg"
   xmlns:xml="http://www.w3.org/XML/1998/namespace"
   xmlns:a="http://ns.adobe.com/AdobeSVGViewerExtensions/3.0/"
   xmlns:sodipodi="http://sodipodi.sourceforge.net/DTD/sodipodi-0.dtd"
   xmlns:xlink="http://www.w3.org/1999/xlink"
   id="svg548"
   sodipodi:version="0.32"
   sodipodi:docname="/home/cschalle/gnome-themes-extras/Nuvola/icons/scalable/stock/stock_go-down.svg"
   sodipodi:docbase="/home/cschalle/gnome-themes-extras/Nuvola/icons/scalable/stock">
  <defs
     id="defs582" />
  <sodipodi:namedview
     id="base" />
  <g
     id="Layer_1"
     style="stroke:#000000;">
    <g
       id="Layer_1_1_">
      <path
         style="fill:none;stroke:none;"
         d="M256,256H0V0h256V256z"
         id="path551" />
    </g>
    <path
       style="opacity:0.25;stroke:none;"
       d="M8.643,131.001c0,67.468,54.89,122.356,122.357,122.356c67.469,0,122.357-54.89,122.357-122.356    C253.357,63.532,198.469,8.643,131,8.643C63.532,8.643,8.643,63.532,8.643,131.001z"
       id="path552" />
    <path
       style="fill:#00008D;stroke:none;"
       d="M5.643,128.001c0,67.468,54.89,122.356,122.357,122.356c67.469,0,122.357-54.89,122.357-122.356    C250.357,60.532,195.469,5.643,128,5.643C60.532,5.643,5.643,60.532,5.643,128.001z"
       id="path553" />
    <path
       style="fill:#0032A4;stroke:none;"
       d="M128,7.643C61.635,7.643,7.643,61.636,7.643,128.001c0,66.364,53.992,120.356,120.357,120.356    s120.357-53.992,120.357-120.356C248.357,61.636,194.365,7.643,128,7.643z"
       id="path554" />
    <radialGradient
       id="XMLID_1_"
       cx="-118.7207"
       cy="490.2871"
       r="259.5079"
       fx="-118.7207"
       fy="490.2871"
       gradientTransform="matrix(1 0 0 -1 168.5 547.5)"
       gradientUnits="userSpaceOnUse">
      <stop
         offset="0.0056"
         style="stop-color:#99CCFF"
         id="stop556" />
      <stop
         offset="0.5843"
         style="stop-color:#3399FF"
         id="stop557" />
      <stop
         offset="1"
         style="stop-color:#0035ED"
         id="stop558" />
      <a:midPointStop
         offset="0.0056"
         style="stop-color:#99CCFF"
         id="midPointStop559" />
      <a:midPointStop
         offset="0.5"
         style="stop-color:#99CCFF"
         id="midPointStop560" />
      <a:midPointStop
         offset="0.5843"
         style="stop-color:#3399FF"
         id="midPointStop561" />
      <a:midPointStop
         offset="0.5"
         style="stop-color:#3399FF"
         id="midPointStop562" />
      <a:midPointStop
         offset="1"
         style="stop-color:#0035ED"
         id="midPointStop563" />
    </radialGradient>
    <path
       style="fill:url(#XMLID_1_);stroke:none;"
       d="M13.643,128.001c0,63.157,51.199,114.356,114.357,114.356s114.357-51.199,114.357-114.356    c0-63.158-51.199-114.358-114.357-114.358S13.643,64.843,13.643,128.001z"
       id="path564" />
    <path
       style="opacity:0.7;fill:#FFFFFF;stroke:none;"
       d="M16.643,132.016C16.643,68.857,67.842,17.657,131,17.657c36.629,0,69.23,17.222,90.16,44.008    C200.426,32.597,166.428,13.643,128,13.643c-63.158,0-114.357,51.2-114.357,114.358c0,26.53,9.037,50.946,24.196,70.349    C24.494,179.643,16.643,156.746,16.643,132.016z"
       id="path565" />
    <linearGradient
       id="XMLID_2_"
       gradientUnits="userSpaceOnUse"
       x1="-41.7905"
       y1="531.2988"
       x2="-41.7905"
       y2="442.2979"
       gradientTransform="matrix(1 0 0 -1 168.5 547.5)">
      <stop
         offset="0.0056"
         style="stop-color:#FFFFFF"
         id="stop567" />
      <stop
         offset="1"
         style="stop-color:#7ABDFF"
         id="stop568" />
      <a:midPointStop
         offset="0.0056"
         style="stop-color:#FFFFFF"
         id="midPointStop569" />
      <a:midPointStop
         offset="0.5"
         style="stop-color:#FFFFFF"
         id="midPointStop570" />
      <a:midPointStop
         offset="1"
         style="stop-color:#7ABDFF"
         id="midPointStop571" />
    </linearGradient>
    <path
       style="fill:url(#XMLID_2_);stroke:none;"
       d="M34.866,74.955c22.012,10.016,52.93,16.248,87.174,16.248c39.413,0,74.421-8.256,96.513-21.033    C200.533,38.81,166.691,17.643,128,17.643C87.372,17.643,52.097,40.982,34.866,74.955z"
       id="path572" />
    <path
       style="fill:#FFFFFF;stroke:none;"
       d="M198.427,146.785c-2.049-4.225-6.731-6.953-11.931-6.953c0,0-33.051,0-40.995,0c0-8.816,0-76.905,0-76.905    c0-8.41-7.851-15.254-17.499-15.254c-9.651,0-17.501,6.844-17.501,15.254c0,0-0.001,68.089-0.001,76.905    c-7.943,0-40.993,0-40.993,0c-5.2,0-9.885,2.729-11.933,6.955c-2.26,4.648-0.907,10.006,3.369,13.324l58.497,45.375    c4.881,3.787,12.244,3.787,17.125,0l58.49-45.373C199.33,156.801,200.688,151.443,198.427,146.785z"
       id="path573" />
    <linearGradient
       id="XMLID_3_"
       gradientUnits="userSpaceOnUse"
       x1="2.8276"
       y1="457.3281"
       x2="-135.1693"
       y2="319.3313"
       gradientTransform="matrix(1 0 0 -1 168.5 547.5)">
      <stop
         offset="0.0056"
         style="stop-color:#FFFFFF"
         id="stop575" />
      <stop
         offset="1"
         style="stop-color:#CCCCCC"
         id="stop576" />
      <a:midPointStop
         offset="0.0056"
         style="stop-color:#FFFFFF"
         id="midPointStop577" />
      <a:midPointStop
         offset="0.5"
         style="stop-color:#FFFFFF"
         id="midPointStop578" />
      <a:midPointStop
         offset="1"
         style="stop-color:#CCCCCC"
         id="midPointStop579" />
    </linearGradient>
    <path
       style="fill:url(#XMLID_3_);stroke:none;"
       d="M133.498,201.535l58.493-45.373c2.396-1.857,3.155-4.682,1.938-7.195c-1.22-2.512-4.138-4.135-7.435-4.135    l-45.994-0.002V62.928c0-5.654-5.606-10.255-12.5-10.255c-6.893,0-12.501,4.601-12.501,10.254v81.903H69.506    c-3.297,0-6.215,1.625-7.433,4.139c-1.22,2.508-0.461,5.332,1.935,7.191l58.496,45.375    C125.586,203.928,130.416,203.928,133.498,201.535z"
       id="path580" />
  </g>
</svg>
