<?xml version="1.0" encoding="UTF-8" standalone="no"?>
<!DOCTYPE svg PUBLIC "-//W3C//DTD SVG 20010904//EN"
"http://www.w3.org/TR/2001/REC-SVG-20010904/DTD/svg10.dtd">
<!-- Created with Sodipodi ("http://www.sodipodi.com/") -->
<svg
   i:viewOrigin="242.5 459.5"
   i:rulerOrigin="-242 -332"
   i:pageBounds="242 460 370 332"
   width="48pt"
   height="48pt"
   viewBox="0 0 132.168 134.5"
   overflow="visible"
   enable-background="new 0 0 132.168 134.5"
   xml:space="preserve"
   id="svg153"
   sodipodi:version="0.32pre"
   sodipodi:docname="/home/cschalle/gnome-themes-extras/Amaranth/icons/scalable/apps/advanced-directory.svg"
   sodipodi:docbase="/home/cschalle/gnome-themes-extras/Amaranth/icons/scalable/apps"
   xmlns="http://www.w3.org/2000/svg"
   xmlns:sodipodi="http://sodipodi.sourceforge.net/DTD/sodipodi-0.dtd"
   xmlns:ns="http://ns.adobe.com/Variables/1.0/"
   xmlns:i="http://ns.adobe.com/AdobeIllustrator/10.0/"
   xmlns:xml="http://www.w3.org/XML/1998/namespace"
   xmlns:a="http://ns.adobe.com/AdobeSVGViewerExtensions/3.0/"
   xmlns:xlink="http://www.w3.org/1999/xlink">
  <defs
     id="defs266">
    <linearGradient
       id="XMLID_6_"
       gradientUnits="userSpaceOnUse"
       x1="76.6807"
       y1="43.2402"
       x2="31.3341"
       y2="24.5511"
       gradientTransform="matrix(-0.9232 -0.3843 0.3843 -0.9232 97.0104 153.1126)">
      <stop
         offset="0"
         style="stop-color:#E8E8E8"
         id="stop216" />
      <stop
         offset="1"
         style="stop-color:#4F4F4F"
         id="stop217" />
      <a:midPointStop
         offset="0"
         style="stop-color:#E8E8E8"
         id="midPointStop218" />
      <a:midPointStop
         offset="0.5"
         style="stop-color:#E8E8E8"
         id="midPointStop219" />
      <a:midPointStop
         offset="1"
         style="stop-color:#4F4F4F"
         id="midPointStop220" />
    </linearGradient>
  </defs>
  <sodipodi:namedview
     id="base" />
  <metadata
     id="metadata154">
    <sfw>
      <slices />
      <sliceSourceBounds
         x="239"
         y="325"
         width="143"
         height="138"
         bottomLeftOrigin="true" />
    </sfw>
    <ns:variableSets>
      <ns:variableSet
         varSetName="binding1"
         locked="none">
        <ns:variables />
        <ns:sampleDataSets />
      </ns:variableSet>
    </ns:variableSets>
  </metadata>
  <g
     id="g159"
     style="font-size:12;stroke:#000000;">
    <linearGradient
       id="XMLID_1_"
       gradientUnits="userSpaceOnUse"
       x1="19.1216"
       y1="89.4141"
       x2="79.7949"
       y2="89.4141">
      <stop
         offset="0"
         style="stop-color:#9E9E9E"
         id="stop161" />
      <stop
         offset="1"
         style="stop-color:#616161"
         id="stop162" />
      <a:midPointStop
         offset="0"
         style="stop-color:#9E9E9E"
         id="midPointStop163" />
      <a:midPointStop
         offset="0.5"
         style="stop-color:#9E9E9E"
         id="midPointStop164" />
      <a:midPointStop
         offset="1"
         style="stop-color:#616161"
         id="midPointStop165" />
    </linearGradient>
    <path
       i:knockout="Off"
       fill="url(#XMLID_1_)"
       stroke="none"
       d="M79.795,89.414c0-3.27-13.582-5.92-30.336-5.92       s-30.337,2.65-30.337,5.92s13.583,5.92,30.337,5.92S79.795,92.684,79.795,89.414z"
       id="path166" />
    <path
       i:knockout="Off"
       fill="none"
       d="M79.795,89.414c0-3.27-13.582-5.92-30.336-5.92s-30.337,2.65-30.337,5.92       s13.583,5.92,30.337,5.92S79.795,92.684,79.795,89.414z"
       id="path167" />
  </g>
  <g
     id="g170"
     style="font-size:12;stroke:#000000;">
    <linearGradient
       id="XMLID_2_"
       gradientUnits="userSpaceOnUse"
       x1="43.5723"
       y1="86.3262"
       x2="55.7148"
       y2="86.3262">
      <stop
         offset="0"
         style="stop-color:#9E9E9E"
         id="stop172" />
      <stop
         offset="1"
         style="stop-color:#616161"
         id="stop173" />
      <a:midPointStop
         offset="0"
         style="stop-color:#9E9E9E"
         id="midPointStop174" />
      <a:midPointStop
         offset="0.5"
         style="stop-color:#9E9E9E"
         id="midPointStop175" />
      <a:midPointStop
         offset="1"
         style="stop-color:#616161"
         id="midPointStop176" />
    </linearGradient>
    <path
       i:knockout="Off"
       fill="url(#XMLID_2_)"
       stroke="none"
       d="M55.715,81.759c-4.022-0.638-8.12-0.638-12.143,0       c0.482,3.045,0.964,6.091,1.447,9.136c3.064-0.485,6.185-0.485,9.249,0C54.75,87.85,55.233,84.804,55.715,81.759z"
       id="path177" />
    <path
       i:knockout="Off"
       fill="none"
       d="M55.715,81.759c-4.022-0.638-8.12-0.638-12.143,0c0.482,3.045,0.964,6.091,1.447,9.136       c3.064-0.485,6.185-0.485,9.249,0C54.75,87.85,55.233,84.804,55.715,81.759z"
       id="path178" />
  </g>
  <g
     id="g181"
     style="font-size:12;stroke:#000000;">
    <linearGradient
       id="XMLID_3_"
       gradientUnits="userSpaceOnUse"
       x1="5.3716"
       y1="73.5059"
       x2="96.9355"
       y2="73.5059">
      <stop
         offset="0"
         style="stop-color:#9E9E9E"
         id="stop183" />
      <stop
         offset="1"
         style="stop-color:#616161"
         id="stop184" />
      <a:midPointStop
         offset="0"
         style="stop-color:#9E9E9E"
         id="midPointStop185" />
      <a:midPointStop
         offset="0.5"
         style="stop-color:#9E9E9E"
         id="midPointStop186" />
      <a:midPointStop
         offset="1"
         style="stop-color:#616161"
         id="midPointStop187" />
    </linearGradient>
    <path
       i:knockout="Off"
       fill="url(#XMLID_3_)"
       stroke="none"
       d="M5.372,69.621h91.564c0,0-11.098,16.648-48.093,16.648       C11.846,86.27,5.372,69.621,5.372,69.621z M5.372,60.742c0,0,6.474,16.649,43.471,16.649c36.996,0,48.093-16.649,48.093-16.649       "
       id="path188" />
    <path
       i:knockout="Off"
       fill="none"
       d="M5.372,69.621h91.564c0,0-11.098,16.648-48.093,16.648       C11.846,86.27,5.372,69.621,5.372,69.621z M5.372,60.742c0,0,6.474,16.649,43.471,16.649c36.996,0,48.093-16.649,48.093-16.649       "
       id="path189" />
  </g>
  <g
     id="g192"
     style="font-size:12;stroke:#000000;">
    <linearGradient
       id="XMLID_4_"
       gradientUnits="userSpaceOnUse"
       x1="8.2573"
       y1="-4.3208"
       x2="95.5905"
       y2="83.0124">
      <stop
         offset="0"
         style="stop-color:#636363"
         id="stop194" />
      <stop
         offset="1"
         style="stop-color:#000000"
         id="stop195" />
      <a:midPointStop
         offset="0"
         style="stop-color:#636363"
         id="midPointStop196" />
      <a:midPointStop
         offset="0.5"
         style="stop-color:#636363"
         id="midPointStop197" />
      <a:midPointStop
         offset="1"
         style="stop-color:#000000"
         id="midPointStop198" />
    </linearGradient>
    <path
       i:knockout="Off"
       fill="url(#XMLID_4_)"
       stroke="none"
       d="M103.348,73.191c0,2.75-2.25,5-5,5H5.5c-2.75,0-5-2.25-5-5V5.5       c0-2.75,2.25-5,5-5h92.848c2.75,0,5,2.25,5,5V73.191z M95.023,11.79c0-2.75-2.25-5-5-5H13.826c-2.75,0-5,2.25-5,5v55.113       c0,2.75,2.25,5,5,5h76.197c2.75,0,5-2.25,5-5V11.79z"
       id="path199" />
    <path
       i:knockout="Off"
       fill="none"
       d="M103.348,73.191c0,2.75-2.25,5-5,5H5.5c-2.75,0-5-2.25-5-5V5.5c0-2.75,2.25-5,5-5h92.848       c2.75,0,5,2.25,5,5V73.191z M95.023,11.79c0-2.75-2.25-5-5-5H13.826c-2.75,0-5,2.25-5,5v55.113c0,2.75,2.25,5,5,5h76.197       c2.75,0,5-2.25,5-5V11.79z"
       id="path200" />
  </g>
  <g
     i:knockout="Off"
     id="g201"
     style="font-size:12;stroke:#000000;">
    <linearGradient
       id="XMLID_5_"
       gradientUnits="userSpaceOnUse"
       x1="88.2842"
       y1="75.7051"
       x2="15.5668"
       y2="2.9877">
      <stop
         offset="0"
         style="stop-color:#FFFFFF"
         id="stop203" />
      <stop
         offset="1"
         style="stop-color:#ADADAD"
         id="stop204" />
      <a:midPointStop
         offset="0"
         style="stop-color:#FFFFFF"
         id="midPointStop205" />
      <a:midPointStop
         offset="0.5"
         style="stop-color:#FFFFFF"
         id="midPointStop206" />
      <a:midPointStop
         offset="1"
         style="stop-color:#ADADAD"
         id="midPointStop207" />
    </linearGradient>
    <path
       i:knockout="Off"
       fill="url(#XMLID_5_)"
       stroke="none"
       d="M95.023,66.902c0,2.75-2.25,5-5,5H13.826c-2.75,0-5-2.25-5-5      V11.79c0-2.75,2.25-5,5-5h76.197c2.75,0,5,2.25,5,5V66.902z"
       id="path208" />
    <path
       i:knockout="Off"
       fill="none"
       d="M95.023,66.902c0,2.75-2.25,5-5,5H13.826c-2.75,0-5-2.25-5-5V11.79c0-2.75,2.25-5,5-5      h76.197c2.75,0,5,2.25,5,5V66.902z"
       id="path209" />
  </g>
  <g
     i:knockout="Off"
     id="g210"
     style="font-size:12;stroke:#000000;">
    <path
       i:knockout="Off"
       opacity="0.3"
       fill="#FFFFFF"
       stroke="none"
       d="M103.348,8.509c0,2.75-0.861,7.079-1.912,9.619     c0,0-8.816,21.28-49.511,21.28c-40.695,0-49.824,27.018-49.824,27.018C1.22,69.031,0.5,68.914,0.5,66.164V5.5c0-2.75,2.25-5,5-5     h92.848c2.75,0,5,2.25,5,5V8.509z"
       id="path211" />
  </g>
  <path
     i:knockout="Off"
     fill="url(#XMLID_6_)"
     stroke="none"
     d="M35.429,107.987c-1.019,0.414-2.545,0.178-3.391-0.526      c0,0-3.064-2.548-7.048-0.907c-0.18,0.075-8.58,3.344-8.505,3.521c0,0,1.121,3.127,1.554,3.193      c3.036,0.46,9.142-1.656,10.217,0.951c1.073,2.603-5.313,4.673-6.396,7.276c-0.163,0.392,1.571,3.405,1.677,3.665      c0.075,0.18,7.618-3.125,7.802-3.201c4.074-1.679,4.32-5.866,4.32-5.866c0.064-1.098,0.951-2.335,1.97-2.749L84.926,94.14      c1.019-0.414,2.544-0.178,3.39,0.526c0,0,3.064,2.549,7.049,0.907c0.181-0.075,8.579-3.343,8.506-3.521      c0,0-1.121-3.127-1.555-3.192c-3.036-0.461-9.142,1.655-10.217-0.952c-1.072-2.603,5.313-4.673,6.396-7.276      c0.163-0.392-1.571-3.405-1.678-3.664c-0.075-0.182-7.618,3.125-7.802,3.199c-4.074,1.68-4.32,5.867-4.32,5.867      c-0.064,1.098-0.951,2.335-1.971,2.749L35.429,107.987z"
     id="path221"
     style="font-size:12;fill:url(#XMLID_6_);" />
  <path
     i:knockout="Off"
     fill="none"
     d="M35.429,107.987c-1.019,0.414-2.545,0.178-3.391-0.526c0,0-3.064-2.548-7.048-0.907     c-0.18,0.075-8.58,3.344-8.505,3.521c0,0,1.121,3.127,1.554,3.193c3.036,0.46,9.142-1.656,10.217,0.951     c1.073,2.603-5.313,4.673-6.396,7.276c-0.163,0.392,1.571,3.405,1.677,3.665c0.075,0.18,7.618-3.125,7.802-3.201     c4.074-1.679,4.32-5.866,4.32-5.866c0.064-1.098,0.951-2.335,1.97-2.749L84.926,94.14c1.019-0.414,2.544-0.178,3.39,0.526     c0,0,3.064,2.549,7.049,0.907c0.181-0.075,8.579-3.343,8.506-3.521c0,0-1.121-3.127-1.555-3.192     c-3.036-0.461-9.142,1.655-10.217-0.952c-1.072-2.603,5.313-4.673,6.396-7.276c0.163-0.392-1.571-3.405-1.678-3.664     c-0.075-0.182-7.618,3.125-7.802,3.199c-4.074,1.68-4.32,5.867-4.32,5.867c-0.064,1.098-0.951,2.335-1.971,2.749L35.429,107.987z     "
     id="path222"
     style="font-size:12;fill:none;stroke:#000000;" />
  <g
     i:knockout="Off"
     id="g223"
     style="font-size:12;stroke:#000000;">
    <path
       i:knockout="Off"
       opacity="0.3"
       fill="#FFFFFF"
       stroke="none"
       d="M86.983,91.393c5.922-2.441,16.487,0.569,16.418,0.4     c0,0-1.067-2.985-1.488-3.045c-2.941-0.42-8.878,1.646-9.903-0.841c-1.023-2.481,5.185-4.505,6.254-7.003     c0.16-0.375-1.502-3.247-1.603-3.494c-0.072-0.172-7.413,3.041-7.591,3.113c-3.964,1.634-4.225,5.555-4.225,5.555     c-0.073,1.098-0.963,2.345-1.977,2.771l-17.053,7.173c-1.014,0.427-0.957,0.622,0.127,0.434     C65.943,96.456,81.062,93.834,86.983,91.393z"
       id="path224" />
  </g>
  <g
     id="g227"
     style="font-size:12;stroke:#000000;">
    <g
       id="g228">
      <g
         i:knockout="Off"
         id="g229">
        <linearGradient
           id="XMLID_7_"
           gradientUnits="userSpaceOnUse"
           x1="31.3213"
           y1="61.7524"
           x2="73.2899"
           y2="103.721"
           gradientTransform="matrix(0.9577 -0.2877 0.2877 0.9577 -22.1151 26.1174)">
          <stop
             offset="0"
             style="stop-color:#F7F7F7"
             id="stop231" />
          <stop
             offset="1"
             style="stop-color:#757575"
             id="stop232" />
          <a:midPointStop
             offset="0"
             style="stop-color:#F7F7F7"
             id="midPointStop233" />
          <a:midPointStop
             offset="0.5"
             style="stop-color:#F7F7F7"
             id="midPointStop234" />
          <a:midPointStop
             offset="1"
             style="stop-color:#757575"
             id="midPointStop235" />
        </linearGradient>
        <path
           i:knockout="Off"
           fill="url(#XMLID_7_)"
           stroke="none"
           d="M29.012,77.258c1.038,0.365,1.869,1.136,1.848,1.712        c-0.021,0.576,0.811,1.347,1.848,1.712l46.561,16.431c1.037,0.365,1.62,1.417,1.296,2.335        c-0.323,0.918-1.438,1.37-2.475,1.004L31.333,83.953c-1.038-0.366-2.125-0.272-2.416,0.207        c-0.291,0.48-1.378,0.574-2.416,0.209l-1.688-0.597c-1.038-0.365-1.587-1.514-1.221-2.551l1.178-3.34        c0.366-1.037,1.514-1.586,2.552-1.221L29.012,77.258z"
           id="path236" />
        <path
           i:knockout="Off"
           fill="none"
           d="M29.012,77.258c1.038,0.365,1.869,1.136,1.848,1.712        c-0.021,0.576,0.811,1.347,1.848,1.712l46.561,16.431c1.037,0.365,1.62,1.417,1.296,2.335        c-0.323,0.918-1.438,1.37-2.475,1.004L31.333,83.953c-1.038-0.366-2.125-0.272-2.416,0.207        c-0.291,0.48-1.378,0.574-2.416,0.209l-1.688-0.597c-1.038-0.365-1.587-1.514-1.221-2.551l1.178-3.34        c0.366-1.037,1.514-1.586,2.552-1.221L29.012,77.258z"
           id="path237" />
      </g>
      <g
         i:knockout="Off"
         id="g238">
        <linearGradient
           id="XMLID_8_"
           gradientUnits="userSpaceOnUse"
           x1="71.4619"
           y1="89.1768"
           x2="117.2264"
           y2="134.9412"
           gradientTransform="matrix(0.9577 -0.2877 0.2877 0.9577 -22.1151 26.1174)">
          <stop
             offset="0"
             style="stop-color:#CDCAA4"
             id="stop240" />
          <stop
             offset="1"
             style="stop-color:#C1AC1A"
             id="stop241" />
          <a:midPointStop
             offset="0"
             style="stop-color:#CDCAA4"
             id="midPointStop242" />
          <a:midPointStop
             offset="0.5"
             style="stop-color:#CDCAA4"
             id="midPointStop243" />
          <a:midPointStop
             offset="1"
             style="stop-color:#C1AC1A"
             id="midPointStop244" />
        </linearGradient>
        <path
           i:knockout="Off"
           fill="url(#XMLID_8_)"
           stroke="none"
           d="M75.555,91.36c0.426-0.725,2.896-0.568,5.488,0.347        l43.418,15.319c2.593,0.915,4.676,2.366,4.629,3.225c-0.048,0.858,0.722,1.975,1.709,2.481        c0.987,0.506,1.219,2.556,0.514,4.555c-0.706,2-2.157,3.407-3.225,3.127s-2.352,0.063-2.854,0.76        c-0.501,0.698-3.033,0.521-5.626-0.395l-43.025-15.182c-2.593-0.915-4.702-2.375-4.687-3.244c0.016-0.87-0.765-2.04-1.732-2.6        c-0.969-0.561-1.247-2.479-0.618-4.262c0.629-1.782,2.064-3.146,3.189-3.027C73.86,92.582,75.129,92.085,75.555,91.36z"
           id="path245" />
        <path
           i:knockout="Off"
           fill="none"
           d="M75.555,91.36c0.426-0.725,2.896-0.568,5.488,0.347l43.418,15.319        c2.593,0.915,4.676,2.366,4.629,3.225c-0.048,0.858,0.722,1.975,1.709,2.481c0.987,0.506,1.219,2.556,0.514,4.555        c-0.706,2-2.157,3.407-3.225,3.127s-2.352,0.063-2.854,0.76c-0.501,0.698-3.033,0.521-5.626-0.395l-43.025-15.182        c-2.593-0.915-4.702-2.375-4.687-3.244c0.016-0.87-0.765-2.04-1.732-2.6c-0.969-0.561-1.247-2.479-0.618-4.262        c0.629-1.782,2.064-3.146,3.189-3.027C73.86,92.582,75.129,92.085,75.555,91.36z"
           id="path246" />
      </g>
      <g
         i:knockout="Off"
         opacity="0.85"
         id="g247">
        <linearGradient
           id="XMLID_9_"
           gradientUnits="userSpaceOnUse"
           x1="71.8027"
           y1="114.4346"
           x2="116.041"
           y2="114.4346"
           gradientTransform="matrix(0.9577 -0.2877 0.2877 0.9577 -22.1151 26.1174)">
          <stop
             offset="0"
             style="stop-color:#CDCAA4"
             id="stop249" />
          <stop
             offset="1"
             style="stop-color:#C1AC1A"
             id="stop250" />
          <a:midPointStop
             offset="0"
             style="stop-color:#CDCAA4"
             id="midPointStop251" />
          <a:midPointStop
             offset="0.5"
             style="stop-color:#CDCAA4"
             id="midPointStop252" />
          <a:midPointStop
             offset="1"
             style="stop-color:#C1AC1A"
             id="midPointStop253" />
        </linearGradient>
        <path
           i:knockout="Off"
           fill="url(#XMLID_9_)"
           stroke="none"
           d="M74.927,99.572c0,0,0.451,0.3,1.003,0.666        c0.552,0.367,3.125,1.416,5.718,2.331l37.46,13.216c2.593,0.915,5.339,1.743,6.102,1.841s1.387,0.177,1.387,0.177"
           id="path254" />
        <path
           i:knockout="Off"
           opacity="0.85"
           fill="none"
           stroke-linecap="round"
           d="M74.927,99.572c0,0,0.451,0.3,1.003,0.666        c0.552,0.367,3.125,1.416,5.718,2.331l37.46,13.216c2.593,0.915,5.339,1.743,6.102,1.841s1.387,0.177,1.387,0.177"
           id="path255" />
      </g>
      <g
         i:knockout="Off"
         opacity="0.85"
         id="g256">
        <linearGradient
           id="XMLID_10_"
           gradientUnits="userSpaceOnUse"
           x1="74.3438"
           y1="110.5898"
           x2="118.5811"
           y2="110.5898"
           gradientTransform="matrix(0.9577 -0.2877 0.2877 0.9577 -22.1151 26.1174)">
          <stop
             offset="0"
             style="stop-color:#CDCAA4"
             id="stop258" />
          <stop
             offset="1"
             style="stop-color:#C1AC1A"
             id="stop259" />
          <a:midPointStop
             offset="0"
             style="stop-color:#CDCAA4"
             id="midPointStop260" />
          <a:midPointStop
             offset="0.5"
             style="stop-color:#CDCAA4"
             id="midPointStop261" />
          <a:midPointStop
             offset="1"
             style="stop-color:#C1AC1A"
             id="midPointStop262" />
        </linearGradient>
        <path
           i:knockout="Off"
           fill="url(#XMLID_10_)"
           stroke="none"
           d="M76.254,95.158c0,0,0.576,0.011,1.279,0.023        c0.704,0.013,3.402,0.772,5.995,1.688l37.215,13.132c2.593,0.915,5.27,2.053,5.947,2.526c0.678,0.475,1.232,0.863,1.232,0.863        "
           id="path263" />
        <path
           i:knockout="Off"
           opacity="0.85"
           fill="none"
           stroke-linecap="round"
           d="M76.254,95.158c0,0,0.576,0.011,1.279,0.023        c0.704,0.013,3.402,0.772,5.995,1.688l37.215,13.132c2.593,0.915,5.27,2.053,5.947,2.526c0.678,0.475,1.232,0.863,1.232,0.863        "
           id="path264" />
      </g>
    </g>
  </g>
</svg>
