<?xml version="1.0" encoding="UTF-8" standalone="no"?>
<!DOCTYPE svg PUBLIC "-//W3C//DTD SVG 20010904//EN"
"http://www.w3.org/TR/2001/REC-SVG-20010904/DTD/svg10.dtd">
<!-- Created with Sodipodi ("http://www.sodipodi.com/") -->
<svg
   i:viewOrigin="225 472"
   i:rulerOrigin="-242 -332"
   i:pageBounds="242 460 370 332"
   width="48pt"
   height="48pt"
   viewBox="0 0 159 164"
   overflow="visible"
   enable-background="new 0 0 159 164"
   xml:space="preserve"
   xmlns="http://www.w3.org/2000/svg"
   xmlns:ns="http://ns.adobe.com/Variables/1.0/"
   xmlns:i="http://ns.adobe.com/AdobeIllustrator/10.0/"
   xmlns:xml="http://www.w3.org/XML/1998/namespace"
   xmlns:a="http://ns.adobe.com/AdobeSVGViewerExtensions/3.0/"
   xmlns:xlink="http://www.w3.org/1999/xlink"
   xmlns:sodipodi="http://sodipodi.sourceforge.net/DTD/sodipodi-0.dtd"
   id="svg153"
   sodipodi:version="0.32pre"
   sodipodi:docname="/home/cschalle/gnome-themes-extras/Amaranth/icons/scalable/apps/gnome-applications.svg"
   sodipodi:docbase="/home/cschalle/gnome-themes-extras/Amaranth/icons/scalable/apps">
  <defs
     id="defs190" />
  <sodipodi:namedview
     id="base" />
  <metadata
     id="metadata154">
    <sfw>
      <slices />
      <sliceSourceBounds
         x="225"
         y="308"
         width="159"
         height="164"
         bottomLeftOrigin="true" />
    </sfw>
    <ns:variableSets>
      <ns:variableSet
         varSetName="binding1"
         locked="none">
        <ns:variables />
        <ns:sampleDataSets />
      </ns:variableSet>
    </ns:variableSets>
  </metadata>
  <g
     id="g158"
     style="font-size:12;stroke:#000000;">
    <linearGradient
       id="XMLID_1_"
       gradientUnits="userSpaceOnUse"
       x1="8.3438"
       y1="10.8438"
       x2="146.657"
       y2="149.157">
      <stop
         offset="0"
         style="stop-color:#F2F2F2"
         id="stop160" />
      <stop
         offset="1"
         style="stop-color:#404040"
         id="stop161" />
      <a:midPointStop
         offset="0"
         style="stop-color:#F2F2F2"
         id="midPointStop162" />
      <a:midPointStop
         offset="0.5"
         style="stop-color:#F2F2F2"
         id="midPointStop163" />
      <a:midPointStop
         offset="1"
         style="stop-color:#404040"
         id="midPointStop164" />
    </linearGradient>
    <path
       i:knockout="Off"
       fill="url(#XMLID_1_)"
       stroke="none"
       d="M146.75,147c0,2.75-2.25,5-5,5H13.25c-2.75,0-5-2.25-5-5V13      c0-2.75,2.25-5,5-5h128.5c2.75,0,5,2.25,5,5V147z"
       id="path165" />
    <path
       i:knockout="Off"
       fill="none"
       d="M146.75,147c0,2.75-2.25,5-5,5H13.25c-2.75,0-5-2.25-5-5V13c0-2.75,2.25-5,5-5h128.5      c2.75,0,5,2.25,5,5V147z"
       id="path166" />
  </g>
  <g
     id="g169"
     style="font-size:12;stroke:#000000;">
    <linearGradient
       id="XMLID_2_"
       gradientUnits="userSpaceOnUse"
       x1="142.0791"
       y1="144.5791"
       x2="12.9216"
       y2="15.4216">
      <stop
         offset="0"
         style="stop-color:#F2F2F2"
         id="stop171" />
      <stop
         offset="1"
         style="stop-color:#404040"
         id="stop172" />
      <a:midPointStop
         offset="0"
         style="stop-color:#F2F2F2"
         id="midPointStop173" />
      <a:midPointStop
         offset="0.5"
         style="stop-color:#F2F2F2"
         id="midPointStop174" />
      <a:midPointStop
         offset="1"
         style="stop-color:#404040"
         id="midPointStop175" />
    </linearGradient>
    <path
       i:knockout="Off"
       fill="url(#XMLID_2_)"
       stroke="none"
       d="M142.262,142.334c0,2.75-2.25,5-5,5H17.738c-2.75,0-5-2.25-5-5      V17.667c0-2.75,2.25-5,5-5h119.523c2.75,0,5,2.25,5,5V142.334z"
       id="path176" />
    <path
       i:knockout="Off"
       fill="none"
       d="M142.262,142.334c0,2.75-2.25,5-5,5H17.738c-2.75,0-5-2.25-5-5V17.667c0-2.75,2.25-5,5-5      h119.523c2.75,0,5,2.25,5,5V142.334z"
       id="path177" />
  </g>
  <g
     id="g180"
     style="font-size:12;stroke:#000000;">
    <linearGradient
       id="XMLID_3_"
       gradientUnits="userSpaceOnUse"
       x1="49.2983"
       y1="47.0986"
       x2="108.6035"
       y2="106.4038">
      <stop
         offset="0"
         style="stop-color:#8ACE7B"
         id="stop182" />
      <stop
         offset="1"
         style="stop-color:#0F4717"
         id="stop183" />
      <a:midPointStop
         offset="0"
         style="stop-color:#8ACE7B"
         id="midPointStop184" />
      <a:midPointStop
         offset="0.5"
         style="stop-color:#8ACE7B"
         id="midPointStop185" />
      <a:midPointStop
         offset="1"
         style="stop-color:#0F4717"
         id="midPointStop186" />
    </linearGradient>
    <path
       i:knockout="Off"
       fill="url(#XMLID_3_)"
       stroke="none"
       d="M117.473,32.422c0,1.766-0.609,3.264-1.822,4.498      c-1.218,1.235-2.689,1.848-4.422,1.848H97.878c-4.166,0-8.148,0.406-11.963,1.208v29.658h30.289v4.327      c0,10.156-2.758,19.445-8.267,27.87c-5.507,8.424-12.913,14.883-22.207,19.381c0,3.928-0.171,6.465-0.513,7.618      c-0.809,2.654-2.701,3.979-5.684,3.979c-4.134,0-6.199-2.461-6.199-7.382c-4.592,1.077-9.068,1.613-13.428,1.613H46.652      c-4.02,0-6.026-2.113-6.026-6.346c0-1.763,0.599-3.26,1.798-4.495c1.199-1.234,2.659-1.853,4.376-1.853c2.055,0,4.233,0,6.521,0      c2.97,0,5.144,0,6.519,0c4.688,0,9.149-0.515,13.384-1.541v-30.48H41.203v-6.251c0-10.421,2.943-19.688,8.839-27.797      c5.777-7.757,13.575-13.607,23.401-17.547c0-3.706,0.172-6.193,0.521-7.468c0.811-2.547,2.717-3.823,5.717-3.823      c4.163,0,6.244,2.56,6.244,7.671c3.927-0.689,7.911-1.037,11.958-1.037h13.353c1.729,0,3.198,0.617,4.416,1.853      C116.863,29.163,117.473,30.659,117.473,32.422z M73.225,69.634V43.902c-10.801,5.449-17.112,14.026-18.929,25.732H73.225z       M103.278,82.326H85.915v25.269C95.75,101.676,101.539,93.254,103.278,82.326z"
       id="path187" />
    <path
       i:knockout="Off"
       fill="none"
       d="M117.473,32.422c0,1.766-0.609,3.264-1.822,4.498c-1.218,1.235-2.689,1.848-4.422,1.848      H97.878c-4.166,0-8.148,0.406-11.963,1.208v29.658h30.289v4.327c0,10.156-2.758,19.445-8.267,27.87      c-5.507,8.424-12.913,14.883-22.207,19.381c0,3.928-0.171,6.465-0.513,7.618c-0.809,2.654-2.701,3.979-5.684,3.979      c-4.134,0-6.199-2.461-6.199-7.382c-4.592,1.077-9.068,1.613-13.428,1.613H46.652c-4.02,0-6.026-2.113-6.026-6.346      c0-1.763,0.599-3.26,1.798-4.495c1.199-1.234,2.659-1.853,4.376-1.853c2.055,0,4.233,0,6.521,0c2.97,0,5.144,0,6.519,0      c4.688,0,9.149-0.515,13.384-1.541v-30.48H41.203v-6.251c0-10.421,2.943-19.688,8.839-27.797      c5.777-7.757,13.575-13.607,23.401-17.547c0-3.706,0.172-6.193,0.521-7.468c0.811-2.547,2.717-3.823,5.717-3.823      c4.163,0,6.244,2.56,6.244,7.671c3.927-0.689,7.911-1.037,11.958-1.037h13.353c1.729,0,3.198,0.617,4.416,1.853      C116.863,29.163,117.473,30.659,117.473,32.422z M73.225,69.634V43.902c-10.801,5.449-17.112,14.026-18.929,25.732H73.225z       M103.278,82.326H85.915v25.269C95.75,101.676,101.539,93.254,103.278,82.326z"
       id="path188" />
  </g>
</svg>
