<?xml version="1.0" encoding="UTF-8" standalone="no"?>
<!DOCTYPE svg PUBLIC "-//W3C//DTD SVG 20010904//EN"
"http://www.w3.org/TR/2001/REC-SVG-20010904/DTD/svg10.dtd">
<!-- Created with Sodipodi ("http://www.sodipodi.com/") -->
<svg
   id="svg254"
   sodipodi:version="0.29"
   width="60pt"
   height="22pt"
   sodipodi:docbase="/home/aduhan/svg/px2svg/"
   sodipodi:docname="/home/aduhan/svg/px2svg/menu_hi-light.svg"
   xmlns="http://www.w3.org/2000/svg"
   xmlns:sodipodi="http://sodipodi.sourceforge.net/DTD/sodipodi-0.dtd"
   xmlns:xlink="http://www.w3.org/1999/xlink">
  <defs
     id="defs256">
    <linearGradient
       id="linearGradient267">
      <stop
         style="stop-color:#c6ceeb;stop-opacity:1;"
         offset="0.000000"
         id="stop268" />
      <stop
         style="stop-color:#eaf2ff;stop-opacity:1;"
         offset="1.000000"
         id="stop269" />
    </linearGradient>
    <linearGradient
       id="linearGradient263">
      <stop
         style="stop-color:#000;stop-opacity:1;"
         offset="0"
         id="stop264" />
      <stop
         style="stop-color:#fff;stop-opacity:1;"
         offset="1"
         id="stop265" />
    </linearGradient>
    <linearGradient
       xlink:href="#linearGradient267"
       id="linearGradient266"
       x1="0.570816"
       y1="0.413793"
       x2="0.570816"
       y2="-0.103448"
       gradientUnits="objectBoundingBox"
       spreadMethod="reflect" />
    <linearGradient
       x1="0.549356"
       y1="-0.47561"
       x2="0.545065"
       y2="0.865854"
       xlink:href="#linearGradient267"
       id="linearGradient271"
       gradientUnits="objectBoundingBox"
       spreadMethod="reflect" />
    <filter
       id="edgeFuzz">
      <feGaussianBlur
         in="SourceGraphic"
         stdDeviation="1"
         result="MyBlur" />
      <feMergeNode
         in="SourceGraphic" />
    </filter>
  </defs>
  <sodipodi:namedview
     id="base" />
  <path
     style="font-size:12;fill:#a8aec4;fill-rule:evenodd;stroke-width:1pt;"
     d="M 5.61307 0 C 2.50343 0 0 2.50343 0 5.61307 L 0 21.8869 C 0 24.9966 2.50343 27.5 5.61307 27.5 L 69.3869 27.5 C 72.4966 27.5 75 24.9966 75 21.8869 L 75 5.61307 C 75 2.50343 72.4966 0 69.3869 0 L 5.61307 0 z "
     id="path272" />
  <path
     style="font-size:12;fill:url(#linearGradient271);fill-rule:evenodd;stroke-width:1pt;"
     d="M 6.34643 1.23925 C 3.51705 1.23925 1.23925 3.51705 1.23925 6.34643 L 1.23925 21.1536 C 1.23925 23.9829 3.51705 26.2608 6.34643 26.2608 L 68.6536 26.2608 C 71.4829 26.2608 73.7607 23.9829 73.7607 21.1536 L 73.7607 6.34643 C 73.7607 3.51705 71.4829 1.23925 68.6536 1.23925 L 6.34643 1.23925 z "
     id="path273"
     transform="matrix(1.01235,0,0,1.04473,-0.463062,-0.615144)" />
  <path
     style="font-size:12;fill:url(#linearGradient266);fill-rule:evenodd;stroke-width:1pt;filter:url(#edgeFuzz)"
     d="M 5.33465 3.71775 C 3.0658 3.71775 1.23925 5.5443 1.23925 7.81315 L 1.23925 19.6869 C 1.23925 21.9557 3.0658 23.7823 5.33465 23.7823 L 69.6653 23.7823 C 71.9342 23.7823 73.7607 21.9557 73.7607 19.6869 L 73.7607 7.81315 C 73.7607 5.5443 71.9342 3.71775 69.6653 3.71775 L 5.33465 3.71775 z "
     id="path274"
     transform="matrix(0.981117,0,0,0.938631,0.708138,-1.67483)" />
</svg>
