<?xml version="1.0" encoding="iso-8859-1"?>
<!-- Generator: Adobe Illustrator 9.0, SVG Export Plug-In  -->
<!DOCTYPE svg PUBLIC "-//W3C//DTD SVG 20000303 Stylable//EN"   "http://www.w3.org/TR/2000/03/WD-SVG-20000303/DTD/svg-20000303-stylable.dtd" [
	<!ENTITY st0 "fill:url(#aigrd1);stroke:none;">
	<!ENTITY st1 "opacity:0.25;">
	<!ENTITY st2 "opacity:0.36;">
	<!ENTITY st3 "opacity:0.37;">
	<!ENTITY st4 "stroke-width:2.4586;">
	<!ENTITY st5 "fill:#FFFFFF;stroke:none;">
	<!ENTITY st6 "stroke:#000000;stroke-width:4.3492;">
	<!ENTITY st7 "fill-rule:nonzero;clip-rule:nonzero;fill:none;stroke:#FFFFFF;stroke-width:1.9273;stroke-miterlimit:4;">
	<!ENTITY st8 "fill:none;stroke:none;">
	<!ENTITY st9 "opacity:0.37;fill:#FFFFFF;stroke:none;">
	<!ENTITY st10 "fill-rule:nonzero;clip-rule:nonzero;stroke:#000000;stroke-miterlimit:4;">
	<!ENTITY st11 "stroke:none;">
]>
<svg  width="48pt" height="48pt" viewBox="0 0 48 48" xml:space="preserve">
	<g id="bbox" style="&st10;">
		<path style="&st8;" d="M48,48H0V0h48v48z"/>
	</g>
	<g id="Layer_x0020_5" style="&st10;">
		<g style="&st1;">
			<path style="&st11;" d="M28.2,39.8c1.6,0.5,4.2,0.3,5.8-0.4l9.9-5c1.5-0.8,1.4-1.7-0.3-2.1L25,28c-1.7-0.4-4.4-0.3-6.1,0.2L8.5,31.3c-1.7,0.5-1.7,1.4,0,1.9l19.7,6.6z"/>
		</g>
	</g>
	<g id="Layer_x0020_4" style="&st7;">
		<g>
			<g>
				<linearGradient id="aigrd1" gradientUnits="userSpaceOnUse" x1="24.9087" y1="32.0947" x2="14.4146" y2="10.4068">
					<stop  offset="0" style="stop-color:#433E6B"/>
					<stop  offset="1" style="stop-color:#7167AF"/>
				</linearGradient>
				<path style="&st0;" d="M30.4,34.5c0,1.6-1.2,2.5-2.8,2l-16.2-5.1c-1.5-0.5-2.8-2.2-2.8-3.8L8.6,11c0-1.6,1.3-2.7,2.8-2.4l16.1,2.8c1.6,0.3,2.9,1.8,2.9,3.4v19.7z"/>
				<path style="&st6;" d="M30.4,34.5c0,1.6-1.2,2.5-2.8,2l-16.2-5.1c-1.5-0.5-2.8-2.2-2.8-3.8L8.6,11c0-1.6,1.3-2.7,2.8-2.4l16.1,2.8c1.6,0.3,2.9,1.8,2.9,3.4v19.7z"/>
			</g>
			<path style="&st0;" d="M30.4,34.5c0,1.6-1.2,2.5-2.8,2l-16.2-5.1c-1.5-0.5-2.8-2.2-2.8-3.8L8.6,11c0-1.6,1.3-2.7,2.8-2.4l16.1,2.8c1.6,0.3,2.9,1.8,2.9,3.4v19.7z"/>
			<path style="&st4;" d="M20.4,20.1"/>
			<g>
				<path style="&st9;" d="M19.9,17.3c0,1.5-1.3,2.4-3,2.1c-1.6-0.3-2.8-1.7-2.8-3.2c0-1.4,1.2-2.4,2.8-2.1c1.6,0.3,3,1.7,3,3.2z"/>
				<path style="&st3;" d="M17.1,18.2l1.5,6.8l5.3,0.3l1.6,4.6l2.5,0.4"/>
				<path style="&st3;" d="M17.7,20.9l4.2,0.1"/>
				<path style="&st3;" d="M15.7,20.8c-1.5,0-2.8,0.8-3.2,2.1c-0.6,2,0.7,4.5,3,5.8c2.4,1.3,5,0.8,5.7-1.3"/>
			</g>
			<g>
				<path style="&st5;" d="M19.2,16.6c0,1.5-1.3,2.4-2.9,2.1c-1.6-0.3-2.8-1.7-2.8-3.1c0-1.4,1.2-2.4,2.8-2.1c1.6,0.3,3,1.7,3,3.2z"/>
				<path d="M16.5,17.5l1.5,6.7l5.2,0.2l1.6,4.5l2.5,0.4"/>
				<path d="M17.1,20.2l4.2,0.1"/>
				<path d="M15.1,20.1c-1.5,0-2.7,0.8-3.1,2.1c-0.6,1.9,0.7,4.5,3,5.7c2.4,1.3,5,0.7,5.7-1.3"/>
			</g>
			<path style="&st4;" d="M14.5,22"/>
			<path style="&st4;" d="M17.4,22"/>
			<g style="&st2;">
				<path style="&st5;" d="M9.4,29.8c-0.4,0-0.7-1.2-0.7-2.8L8.6,11c0-1.6,1.3-2.7,2.8-2.4l15.4,2.7c1.6,0.3,2.9,1,2.9,1.5c0,0.5-1.2,0.7-2.8,0.4l-14.1-2.8c-1.6-0.3-2.8,0.7-2.8,2.3l0,14.1c0,1.6-0.3,2.9-0.7,3z"/>
			</g>
		</g>
	</g>
</svg>
