<?xml version="1.0" encoding="iso-8859-1"?>
<!-- Generator: Adobe Illustrator 9.0, SVG Export Plug-In  -->
<!DOCTYPE svg PUBLIC "-//W3C//DTD SVG 20000303 Stylable//EN"   "http://www.w3.org/TR/2000/03/WD-SVG-20000303/DTD/svg-20000303-stylable.dtd" [
	<!ENTITY st0 "fill:url(#aigrd7);">
	<!ENTITY st1 "fill:url(#aigrd9);">
	<!ENTITY st2 "fill:url(#aigrd1);stroke-width:3.5306;stroke-linecap:round;stroke-linejoin:round;">
	<!ENTITY st3 "fill:none;stroke-width:3.5306;stroke-linecap:round;stroke-linejoin:round;">
	<!ENTITY st4 "fill:url(#aigrd1);stroke:none;">
	<!ENTITY st5 "fill:#000000;stroke:none;">
	<!ENTITY st6 "fill:url(#aigrd6);stroke:#000000;stroke-width:0.7291;">
	<!ENTITY st7 "fill:#848484;stroke:none;">
	<!ENTITY st8 "opacity:0.25;">
	<!ENTITY st9 "fill:url(#aigrd10);">
	<!ENTITY st10 "fill:url(#aigrd11);">
	<!ENTITY st11 "fill:url(#aigrd12);">
	<!ENTITY st12 "fill:url(#aigrd13);">
	<!ENTITY st13 "fill:url(#aigrd14);">
	<!ENTITY st14 "fill:url(#aigrd15);">
	<!ENTITY st15 "fill:url(#aigrd16);">
	<!ENTITY st16 "fill:url(#aigrd17);">
	<!ENTITY st17 "fill:url(#aigrd18);">
	<!ENTITY st18 "fill:url(#aigrd19);">
	<!ENTITY st19 "fill:url(#aigrd20);">
	<!ENTITY st20 "fill:url(#aigrd3);stroke:none;">
	<!ENTITY st21 "fill:#545454;stroke:none;">
	<!ENTITY st22 "opacity:0.58;fill:url(#aigrd8);">
	<!ENTITY st23 "fill:#FFFFFF;stroke:none;">
	<!ENTITY st24 "fill:url(#aigrd5);stroke:none;">
	<!ENTITY st25 "fill-rule:nonzero;clip-rule:nonzero;fill:#DEDEDE;stroke:#000000;stroke-miterlimit:4;">
	<!ENTITY st26 "fill:none;stroke:none;">
	<!ENTITY st27 "fill-rule:nonzero;clip-rule:nonzero;stroke:#000000;stroke-miterlimit:4;">
	<!ENTITY st28 "stroke:none;">
	<!ENTITY st29 "fill:#B3B3B3;stroke:none;">
	<!ENTITY st30 "fill:url(#aigrd4);stroke:none;">
]>
<svg  width="64pt" height="64pt" viewBox="0 0 64 64" xml:space="preserve">
	<g id="Layer_x0020_1" style="&st25;">
		<g style="&st8;">
			<path style="&st5;" d="M28.3,42.1c-3.1-0.8-7.8,0.1-10.4,2l-2.9,2.1c-2.6,1.9-2.2,4.2,0.9,5.1l23.1,7c3.1,0.9,7.5-0.1,9.9-2.3l3.2-3c2.4-2.2,1.7-4.6-1.4-5.4l-22.4-5.6z"/>
		</g>
		<radialGradient id="aigrd1" cx="30.8735" cy="39.5879" r="15.0958" fx="30.8735" fy="39.5879" gradientUnits="userSpaceOnUse">
			<stop  offset="0" style="stop-color:#B6B6B6"/>
			<stop  offset="1" style="stop-color:#878787"/>
		</radialGradient>
		<path style="&st2;" d="M34.2,39.8c-7,0-12.6,2.5-12.6,5.5v1.5c0,3,5.6,5.5,12.6,5.5c7,0,12.6-2.5,12.6-5.5v-1.5c0-3-5.6-5.5-12.6-5.5z"/>
		<path style="&st4;" d="M34.2,39.8c-7,0-12.6,2.5-12.6,5.5v1.5c0,3,5.6,5.5,12.6,5.5c7,0,12.6-2.5,12.6-5.5v-1.5c0-3-5.6-5.5-12.6-5.5z"/>
		<path style="&st29;" d="M21.7,44.5c0.3,2.4,3.1,5.8,14.6,6.1c-8.8,0.8-15.7-1.7-14.6-6.1z"/>
		<g>
			<path style="&st5;" d="M49.9,15.2c0.1-0.6-0.1-1.2-0.4-1.3c-0.3-0.1-0.6-0.1-0.6-0.1c0,0,0,0,0,0s-0.5-0.1-1.2-0.2L16,8.1C15.4,8,14.5,7.9,14.1,8s-0.8,0-0.8,0c0,0-0.2,0-0.5,0c-0.3,0-0.6,0.6-0.7,1.2L7.8,38.9c-0.1,0.6,0.3,1.3,1,1.5l30.4,8.9
				c0.6,0.2,1.1,0.3,1.1,0.3c0,0,0,0,0,0s0.3,0.1,0.6,0.2s0.7,0.1,0.9,0.1c0.2,0,0.4-0.1,0.6-0.1c0.2,0,0.6-0.2,0.6-0.2s0.3-0.1,0.7-0.2s0.8-0.7,0.9-1.3l5.5-32.9z"/>
			<path style="&st3;" d="M49.9,15.2c0.1-0.6-0.1-1.2-0.4-1.3c-0.3-0.1-0.6-0.1-0.6-0.1c0,0,0,0,0,0s-0.5-0.1-1.2-0.2L16,8.1C15.4,8,14.5,7.9,14.1,8s-0.8,0-0.8,0c0,0-0.2,0-0.5,0c-0.3,0-0.6,0.6-0.7,1.2L7.8,38.9c-0.1,0.6,0.3,1.3,1,1.5l30.4,8.9
				c0.6,0.2,1.1,0.3,1.1,0.3c0,0,0,0,0,0s0.3,0.1,0.6,0.2s0.7,0.1,0.9,0.1c0.2,0,0.4-0.1,0.6-0.1c0.2,0,0.6-0.2,0.6-0.2s0.3-0.1,0.7-0.2s0.8-0.7,0.9-1.3l5.5-32.9z"/>
		</g>
		<g>
			<linearGradient id="aigrd3" gradientUnits="userSpaceOnUse" x1="12.2373" y1="27.8867" x2="42.8357" y2="30.0906">
				<stop  offset="0" style="stop-color:#F8F8F8"/>
				<stop  offset="1" style="stop-color:#C9C9C9"/>
			</linearGradient>
			<path style="&st20;" d="M13.8,8.3c-0.8-0.1-1.6,0.4-1.7,1.3l-4.2,29c-0.1,0.8,0.4,1.7,1.3,2l30.8,9c0.8,0.2,1.6-0.2,1.7-1.1l5.8-32.9c0.1-0.8-0.4-1.6-1.3-1.8L13.8,8.3z"/>
		</g>
		<g>
			<linearGradient id="aigrd4" gradientUnits="userSpaceOnUse" x1="38.0371" y1="40.8994" x2="54.9444" y2="20.995">
				<stop  offset="0" style="stop-color:#9F9F9F"/>
				<stop  offset="1" style="stop-color:#828282"/>
			</linearGradient>
			<path style="&st30;" d="M44.4,47.8c-0.1,0.8-0.9,1.7-1.7,1.9c-0.8,0.2-1.3-0.3-1.1-1.2l5.8-32.9c0.1-0.8,0.8-1.5,1.5-1.5s1.1,0.7,0.9,1.5l-5.4,32.2z"/>
		</g>
		<g>
			<linearGradient id="aigrd5" gradientUnits="userSpaceOnUse" x1="13.5664" y1="11.002" x2="48.874" y2="11.002">
				<stop  offset="0" style="stop-color:#EBEBEB"/>
				<stop  offset="1" style="stop-color:#EAEAEA"/>
			</linearGradient>
			<path style="&st24;" d="M16.4,8.2C15.6,8.1,14.3,8,13.6,8c-0.7,0-0.6,0.2,0.2,0.3l32.4,5.4c0.8,0.1,2.1,0.3,2.7,0.3s0.5-0.1-0.3-0.3L16.4,8.2z"/>
		</g>
		<path style="&st7;" d="M42.8,49.6c-0.8,0.3-1.5,0.3-2.6,0c0.9-0.3,1.3-1,1.3-1s0.2,1.1,1.2,1z"/>
		<path style="&st23;" d="M46.2,14c0.7,0.1,1.3,0.3,0.9,2.1l-2.6,15.9l3.1-16.6c0.2-1,0.8-1.3,1.2-1.4L13.6,8.2c-0.2,0-0.3-0.2-0.3-0.2c-0.7,0.1-1.2,0.8-1.3,1.5c0.4-0.7,0.6-1.1,1.4-1L46.2,14z"/>
		<path style="&st21;" d="M49.8,15.5c0-1.3-0.9-1.5-0.9-1.5s0.2-0.2,0-0.2c0.5,0.1,1.1,0.8,0.9,1.7z"/>
		<g style="&st23;">
			<linearGradient id="aigrd6" gradientUnits="userSpaceOnUse" x1="25.8306" y1="15.1377" x2="25.8306" y2="37.8184" gradientTransform="matrix(1 -2.300000e-003 2.300000e-003 1 -0.268 0.289)">
				<stop  offset="0" style="stop-color:#000000"/>
				<stop  offset="1" style="stop-color:#3A4A70"/>
			</linearGradient>
			<path style="&st6;" d="M35.6,42.4l-24.6-7.1l3.4-24l25.8,4.5l-4.5,26.6z"/>
			<linearGradient id="aigrd7" gradientUnits="userSpaceOnUse" x1="26.1582" y1="15.2192" x2="26.1582" y2="37.8985" gradientTransform="matrix(1 -2.300000e-003 2.300000e-003 1 -0.268 0.289)">
				<stop  offset="0" style="stop-color:#120751"/>
				<stop  offset="1" style="stop-color:#7473B5"/>
			</linearGradient>
			<path style="&st0;" d="M36,42.5l-24.6-7.1l3.4-24l25.8,4.5L36,42.5z"/>
			<g>
				<linearGradient id="aigrd8" gradientUnits="userSpaceOnUse" x1="26.8008" y1="14.1846" x2="26.8008" y2="23.2529" gradientTransform="matrix(1 -2.300000e-003 2.300000e-003 1 -0.268 0.289)">
					<stop  offset="0" style="stop-color:#E7EBEF"/>
					<stop  offset="1" style="stop-color:#52699F"/>
				</linearGradient>
				<path style="&st22;" d="M16.1,12.8c-0.1,0-0.3,0.2-0.3,0.5l-1.6,11.5c0,0.3,0.1,0.5,0.2,0.5c6.6,0.1,17.8-3.1,24-6c0.3-0.1,0.4-0.4,0.4-0.7l0.2-1.1c0.1-0.3,0-0.6-0.2-0.6l-22.7-4.1z"/>
			</g>
			<g>
				<path d="M14.4,29.3l3.7-1.1L15,25.4l0.4-2.6l5.2,4.8l-0.3,2.3l-6.1,2l0.4-2.6z"/>
				<path d="M19.8,35.4l5.4,1.5l-0.1,0.8l-5.4-1.5l0.1-0.7z"/>
			</g>
		</g>
		<g style="&st28;">
			<g>
				<g>
					<g>
						<linearGradient id="aigrd9" gradientUnits="userSpaceOnUse" x1="40.3965" y1="36.8789" x2="41.6505" y2="35.4026">
							<stop  offset="0" style="stop-color:#9F9F9F"/>
							<stop  offset="1" style="stop-color:#828282"/>
						</linearGradient>
						<path style="&st1;" d="M42.9,36.3l-3.3-0.7l-0.2,0.9l3.5-0.1z"/>
						<path d="M42.6,37.1l0.2-0.8l-3.5,0.1l3.2,0.7z"/>
					</g>
					<g>
						<linearGradient id="aigrd10" gradientUnits="userSpaceOnUse" x1="41.0352" y1="33.0947" x2="42.2886" y2="31.6191">
							<stop  offset="0" style="stop-color:#9F9F9F"/>
							<stop  offset="1" style="stop-color:#828282"/>
						</linearGradient>
						<path style="&st9;" d="M43.5,32.5l-3.3-0.7L40,32.6l3.5-0.1z"/>
						<path d="M43.3,33.3l0.2-0.8L40,32.6l3.2,0.7z"/>
					</g>
					<g>
						<linearGradient id="aigrd11" gradientUnits="userSpaceOnUse" x1="41.6748" y1="29.311" x2="42.928" y2="27.8356">
							<stop  offset="0" style="stop-color:#9F9F9F"/>
							<stop  offset="1" style="stop-color:#828282"/>
						</linearGradient>
						<path style="&st10;" d="M44.2,28.7L40.8,28l-0.2,0.9l3.5-0.1z"/>
						<path d="M43.9,29.5l0.2-0.8l-3.5,0.1l3.2,0.7z"/>
					</g>
					<g>
						<linearGradient id="aigrd12" gradientUnits="userSpaceOnUse" x1="42.3154" y1="25.5269" x2="43.5678" y2="24.0525">
							<stop  offset="0" style="stop-color:#9F9F9F"/>
							<stop  offset="1" style="stop-color:#828282"/>
						</linearGradient>
						<path style="&st11;" d="M44.8,24.9l-3.3-0.7l-0.2,0.9l3.5-0.1z"/>
						<path d="M44.5,25.8l0.2-0.8l-3.5,0.1l3.2,0.7z"/>
					</g>
					<g>
						<linearGradient id="aigrd13" gradientUnits="userSpaceOnUse" x1="42.9541" y1="21.7427" x2="44.2063" y2="20.2685">
							<stop  offset="0" style="stop-color:#9F9F9F"/>
							<stop  offset="1" style="stop-color:#828282"/>
						</linearGradient>
						<path style="&st12;" d="M45.4,21.2l-3.3-0.7l-0.2,0.9l3.5-0.1z"/>
						<path d="M45.2,22l0.2-0.8l-3.5,0.1l3.2,0.7z"/>
					</g>
					<g>
						<linearGradient id="aigrd14" gradientUnits="userSpaceOnUse" x1="43.5947" y1="17.959" x2="44.8464" y2="16.4855">
							<stop  offset="0" style="stop-color:#9F9F9F"/>
							<stop  offset="1" style="stop-color:#828282"/>
						</linearGradient>
						<path style="&st13;" d="M46.1,17.4l-3.3-0.7l-0.2,0.9l3.5-0.1z"/>
						<path d="M45.8,18.2l0.2-0.8l-3.5,0.1l3.2,0.7z"/>
					</g>
				</g>
			</g>
			<g>
				<g>
					<g>
						<linearGradient id="aigrd15" gradientUnits="userSpaceOnUse" x1="44.1875" y1="17.9106" x2="45.088" y2="16.8505">
							<stop  offset="0" style="stop-color:#9F9F9F"/>
							<stop  offset="1" style="stop-color:#828282"/>
						</linearGradient>
						<path style="&st14;" d="M43.2,17.4l2.4,0.5l0.1-0.6l-2.5,0.1z"/>
						<path d="M43.4,16.8l-0.2,0.6l2.5-0.1l-2.3-0.5z"/>
					</g>
					<g>
						<linearGradient id="aigrd16" gradientUnits="userSpaceOnUse" x1="43.5664" y1="21.6953" x2="44.4665" y2="20.6357">
							<stop  offset="0" style="stop-color:#9F9F9F"/>
							<stop  offset="1" style="stop-color:#828282"/>
						</linearGradient>
						<path style="&st15;" d="M42.6,21.2l2.4,0.5l0.1-0.6l-2.5,0.1z"/>
						<path d="M42.8,20.6l-0.2,0.6l2.5-0.1l-2.3-0.5z"/>
					</g>
					<g>
						<linearGradient id="aigrd17" gradientUnits="userSpaceOnUse" x1="42.9453" y1="25.4795" x2="43.845" y2="24.4203">
							<stop  offset="0" style="stop-color:#9F9F9F"/>
							<stop  offset="1" style="stop-color:#828282"/>
						</linearGradient>
						<path style="&st16;" d="M42,24.9l2.4,0.5l0.1-0.6L42,24.9z"/>
						<path d="M42.2,24.4L42,24.9l2.5-0.1l-2.3-0.5z"/>
					</g>
					<g>
						<linearGradient id="aigrd18" gradientUnits="userSpaceOnUse" x1="42.3242" y1="29.2637" x2="43.2237" y2="28.2047">
							<stop  offset="0" style="stop-color:#9F9F9F"/>
							<stop  offset="1" style="stop-color:#828282"/>
						</linearGradient>
						<path style="&st17;" d="M41.4,28.7l2.4,0.5l0.1-0.6l-2.5,0.1z"/>
						<path d="M41.5,28.1l-0.2,0.6l2.5-0.1l-2.3-0.5z"/>
					</g>
					<g>
						<linearGradient id="aigrd19" gradientUnits="userSpaceOnUse" x1="41.7031" y1="33.0479" x2="42.6022" y2="31.9894">
							<stop  offset="0" style="stop-color:#9F9F9F"/>
							<stop  offset="1" style="stop-color:#828282"/>
						</linearGradient>
						<path style="&st18;" d="M40.7,32.5l2.4,0.5l0.1-0.6l-2.5,0.1z"/>
						<path d="M40.9,31.9l-0.2,0.6l2.5-0.1l-2.3-0.5z"/>
					</g>
					<g>
						<linearGradient id="aigrd20" gradientUnits="userSpaceOnUse" x1="41.082" y1="36.832" x2="41.9807" y2="35.774">
							<stop  offset="0" style="stop-color:#9F9F9F"/>
							<stop  offset="1" style="stop-color:#828282"/>
						</linearGradient>
						<path style="&st19;" d="M40.1,36.3l2.4,0.5l0.1-0.6l-2.5,0.1z"/>
						<path d="M40.3,35.7l-0.2,0.6l2.5-0.1l-2.3-0.5z"/>
					</g>
				</g>
			</g>
		</g>
	</g>
	<g id="Layer_x0020_2" style="&st27;">
		<path style="&st26;" d="M64,64H0V0h64v64z"/>
	</g>
</svg>
