<?xml version="1.0" encoding="iso-8859-1"?>
<!-- Generator: Adobe Illustrator 9.0, SVG Export Plug-In  -->
<!DOCTYPE svg PUBLIC "-//W3C//DTD SVG 20000303 Stylable//EN"   "http://www.w3.org/TR/2000/03/WD-SVG-20000303/DTD/svg-20000303-stylable.dtd" [
	<!ENTITY st0 "fill:none;stroke-width:3.273;stroke-linecap:round;stroke-linejoin:round;">
	<!ENTITY st1 "fill:#000000;stroke-width:3.273;stroke-linecap:round;stroke-linejoin:round;">
	<!ENTITY st2 "fill:url(#aigrd14);stroke:none;">
	<!ENTITY st3 "fill:url(#aigrd1);stroke:none;">
	<!ENTITY st4 "fill:url(#aigrd24);stroke:none;">
	<!ENTITY st5 "fill:#000000;stroke:none;">
	<!ENTITY st6 "fill:url(#aigrd11);stroke:none;">
	<!ENTITY st7 "fill:#C9C9C9;stroke:none;">
	<!ENTITY st8 "opacity:0.58;fill:url(#aigrd31);stroke:none;">
	<!ENTITY st9 "fill:#848484;stroke:none;">
	<!ENTITY st10 "fill:url(#aigrd21);stroke:none;">
	<!ENTITY st11 "opacity:0.13;fill:url(#aigrd7);stroke:none;">
	<!ENTITY st12 "opacity:0.35;">
	<!ENTITY st13 "opacity:0.45;">
	<!ENTITY st14 "opacity:0.72;stroke:none;">
	<!ENTITY st15 "fill:url(#aigrd29);stroke-width:0.4231;">
	<!ENTITY st16 "fill:url(#aigrd19);stroke:none;">
	<!ENTITY st17 "fill:url(#aigrd32);">
	<!ENTITY st18 "fill:url(#aigrd33);">
	<!ENTITY st19 "fill:url(#aigrd34);">
	<!ENTITY st20 "fill:url(#aigrd35);">
	<!ENTITY st21 "fill:url(#aigrd36);">
	<!ENTITY st22 "fill:url(#aigrd37);">
	<!ENTITY st23 "fill:url(#aigrd38);">
	<!ENTITY st24 "fill:url(#aigrd39);">
	<!ENTITY st25 "fill:url(#aigrd40);">
	<!ENTITY st26 "fill:url(#aigrd41);">
	<!ENTITY st27 "fill:url(#aigrd42);">
	<!ENTITY st28 "fill:url(#aigrd43);">
	<!ENTITY st29 "fill:#C2C2C2;stroke-width:1.0588;stroke-linecap:round;stroke-linejoin:round;">
	<!ENTITY st30 "fill:url(#aigrd16);stroke:none;">
	<!ENTITY st31 "fill:url(#aigrd3);stroke:none;">
	<!ENTITY st32 "opacity:0.35;stroke:none;">
	<!ENTITY st33 "fill:url(#aigrd26);stroke:none;">
	<!ENTITY st34 "fill:url(#aigrd13);stroke:none;">
	<!ENTITY st35 "opacity:0.22;fill:#000000;stroke:none;">
	<!ENTITY st36 "opacity:0.3;stroke:none;">
	<!ENTITY st37 "fill:url(#aigrd23);stroke:none;">
	<!ENTITY st38 "fill:#545454;stroke:none;">
	<!ENTITY st39 "fill-rule:nonzero;clip-rule:nonzero;fill:#FFFFFF;stroke:#000000;stroke-miterlimit:4;">
	<!ENTITY st40 "opacity:0.13;fill:url(#aigrd9);stroke:none;">
	<!ENTITY st41 "fill:#A6A6A6;stroke-width:0.6392;">
	<!ENTITY st42 "fill:url(#aigrd20);stroke:none;">
	<!ENTITY st43 "opacity:0.13;fill:url(#aigrd6);stroke:none;">
	<!ENTITY st44 "fill:#FFFFFF;stroke:none;">
	<!ENTITY st45 "fill:url(#aigrd24);stroke-width:2.0486;stroke-linecap:round;stroke-linejoin:round;">
	<!ENTITY st46 "fill:url(#aigrd30);stroke:none;">
	<!ENTITY st47 "fill:url(#aigrd18);stroke:none;">
	<!ENTITY st48 "fill:url(#aigrd5);stroke:none;">
	<!ENTITY st49 "fill:url(#aigrd15);stroke-width:3.273;stroke-linecap:round;stroke-linejoin:round;">
	<!ENTITY st50 "fill:url(#aigrd10);stroke-width:3.273;">
	<!ENTITY st51 "fill:#F8F8F8;stroke:none;">
	<!ENTITY st52 "fill:url(#aigrd28);stroke:none;">
	<!ENTITY st53 "fill:#A6A6A6;stroke:none;">
	<!ENTITY st54 "fill:url(#aigrd2);stroke:none;">
	<!ENTITY st55 "fill-rule:nonzero;clip-rule:nonzero;fill:#DEDEDE;stroke:#000000;stroke-miterlimit:4;">
	<!ENTITY st56 "fill:url(#aigrd12);stroke:none;">
	<!ENTITY st57 "opacity:0.3;fill:#000000;stroke:none;">
	<!ENTITY st58 "fill:url(#aigrd22);stroke:none;">
	<!ENTITY st59 "opacity:0.13;fill:url(#aigrd8);stroke:none;">
	<!ENTITY st60 "fill-rule:nonzero;clip-rule:nonzero;stroke:#000000;stroke-miterlimit:4;">
	<!ENTITY st61 "stroke:none;">
	<!ENTITY st62 "fill:#F0F0F0;stroke:none;">
	<!ENTITY st63 "fill:url(#aigrd17);stroke:none;">
	<!ENTITY st64 "fill:#B3B3B3;stroke:none;">
	<!ENTITY st65 "fill:url(#aigrd4);stroke:none;">
	<!ENTITY st66 "fill:url(#aigrd27);stroke:none;">
]>
<svg  width="59.6pt" height="51.1pt" viewBox="0 0 59.6 51.1" xml:space="preserve">
	<g id="shadow" style="&st60;">
		<g style="&st12;">
			<path style="&st61;" d="M22.8,45.1c-1.7,1.7-5,3.3-6.9,2.4S1.1,41,1.1,41c-0.7-0.3-0.7-0.9-0.2-1.3l6.5-5c0.6-0.4,1.5-1.1,2.1-1.6l15.6-11.4c0.6-0.4,1.6-0.6,2.3-0.4L48.1,27c0.7,0.2,0.8,0.7,0.2,1.2L33.9,39.7c-0.6,0.5-1.6,0.9-2.3,1l-3.1,0.4
				c-0.7,0.1-1.7,0.6-2.2,1.1c0,0-1.8,1.2-3.5,2.9z"/>
		</g>
		<g style="&st12;">
			<path style="&st61;" d="M27.9,47.5c-0.5,0.5-0.5,3,1.8,3.3c0,0,4,1.2,6.4-1.1l3.9-3.7c0.5-0.5,0.3-1.8-0.3-2.1l-4.4-2.1c-0.7-0.3-1.6-0.1-2.1,0.4l-5.1,5.4z"/>
		</g>
		<path style="&st32;" d="M36.6,24l0.1,0.3c0,0,5-2,9.7-0.7l2.2,0.6c4,1,10.1,2.6,10.5,4.3c0.1,0.3-0.1,0.7-0.5,1c-3.3,2.7-5.7,2-8.1,1.3c-2-0.6-3.8-1.1-5.8,0.5c-0.8,0.6-1.1,1.1-1,1.6c0.2,0.8,1.6,1.3,3.1,1.7c1.4,0.4,2.8,0.8,3,1.5c0.1,0.3-0.1,0.7-0.5,1.1
			c-1.8,1.8-4.1,0.8-6.1,0c-1.7-0.7-3.2-1.4-4.2-0.4c-1,1-1.2,1.8-1.3,2.5c-0.1,0.8-0.3,1.6-1.6,2.9l0.2,0.2c1.4-1.4,1.6-2.3,1.7-3.1c0.1-0.7,0.3-1.3,1.2-2.3c0.9-0.9,2.3-0.3,3.9,0.4c2.1,0.9,4.5,1.9,6.4,0c0.5-0.5,0.7-1,0.6-1.4c-0.2-0.9-1.7-1.3-3.2-1.7
			c-1.4-0.4-2.8-0.8-2.9-1.5c-0.1-0.3,0.2-0.8,0.9-1.3c1.9-1.5,3.6-1,5.5-0.4c2.3,0.7,5,1.5,8.4-1.4c0.5-0.4,0.7-0.9,0.6-1.4c-0.4-1.9-6.1-3.4-10.7-4.5l-2.2-0.6c-4.9-1.3-9.9,0.7-9.9,0.7z"/>
	</g>
	<g id="cables" style="&st60;">
		<path style="&st29;" d="M6.1,29.9c-0.4,1.1,0.1,2,1.3,2.5l0.3-0.6c-0.6-0.3-1.3-0.8-1-1.7c0.4-1.2,2.5-2.5,4.5-1.9l0.2-0.7c-2.3-0.7-4.8,0.7-5.4,2.3z"/>
		<linearGradient id="aigrd1" gradientUnits="userSpaceOnUse" x1="6.0542" y1="30.0596" x2="11.4473" y2="30.0596">
			<stop  offset="0" style="stop-color:#D6D6D6"/>
			<stop  offset="1" style="stop-color:#848484"/>
		</linearGradient>
		<path style="&st3;" d="M6.1,29.9c-0.4,1.1,0.1,2,1.3,2.5l0.3-0.6c-0.6-0.3-1.3-0.8-1-1.7c0.4-1.2,2.5-2.5,4.5-1.9l0.2-0.7c-2.3-0.7-4.8,0.7-5.4,2.3z"/>
		<path style="&st41;" d="M36.4,23.2l0.1,0.3c0,0,5-2,9.7-0.7l2.2,0.6c4,1,10.1,2.6,10.5,4.3c0.1,0.3-0.1,0.7-0.5,1c-3.3,2.7-5.7,2-8.1,1.3c-2-0.6-3.8-1.1-5.8,0.5c-0.8,0.6-1.1,1.1-1,1.6c0.2,0.8,1.6,1.3,3.1,1.7c1.4,0.4,2.8,0.8,3,1.5c0.1,0.3-0.1,0.7-0.5,1.1
			c-1.8,1.8-4.1,0.8-6.1,0c-1.7-0.7-3.2-1.4-4.2-0.4c-1,1-1.2,1.8-1.3,2.5c-0.1,0.8-0.3,1.6-1.6,2.9l0.2,0.2c1.4-1.4,1.6-2.3,1.7-3.1c0.1-0.7,0.3-1.3,1.2-2.3c0.9-0.9,2.3-0.3,3.9,0.4c2.1,0.9,4.5,1.9,6.4,0c0.5-0.5,0.7-1,0.6-1.4c-0.2-0.9-1.7-1.3-3.2-1.7
			c-1.4-0.4-2.8-0.8-2.9-1.5c-0.1-0.3,0.2-0.8,0.9-1.3c1.9-1.5,3.6-1,5.5-0.4c2.3,0.7,5,1.5,8.4-1.4c0.5-0.4,0.7-0.9,0.6-1.4c-0.4-1.9-6.1-3.4-10.7-4.5l-2.2-0.6c-4.9-1.3-9.9,0.7-9.9,0.7z"/>
		<path style="&st53;" d="M36.4,23.2l0.1,0.3c0,0,5-2,9.7-0.7l2.2,0.6c4,1,10.1,2.6,10.5,4.3c0.1,0.3-0.1,0.7-0.5,1c-3.3,2.7-5.7,2-8.1,1.3c-2-0.6-3.8-1.1-5.8,0.5c-0.8,0.6-1.1,1.1-1,1.6c0.2,0.8,1.6,1.3,3.1,1.7c1.4,0.4,2.8,0.8,3,1.5c0.1,0.3-0.1,0.7-0.5,1.1
			c-1.8,1.8-4.1,0.8-6.1,0c-1.7-0.7-3.2-1.4-4.2-0.4c-1,1-1.2,1.8-1.3,2.5c-0.1,0.8-0.3,1.6-1.6,2.9l0.2,0.2c1.4-1.4,1.6-2.3,1.7-3.1c0.1-0.7,0.3-1.3,1.2-2.3c0.9-0.9,2.3-0.3,3.9,0.4c2.1,0.9,4.5,1.9,6.4,0c0.5-0.5,0.7-1,0.6-1.4c-0.2-0.9-1.7-1.3-3.2-1.7
			c-1.4-0.4-2.8-0.8-2.9-1.5c-0.1-0.3,0.2-0.8,0.9-1.3c1.9-1.5,3.6-1,5.5-0.4c2.3,0.7,5,1.5,8.4-1.4c0.5-0.4,0.7-0.9,0.6-1.4c-0.4-1.9-6.1-3.4-10.7-4.5l-2.2-0.6c-4.9-1.3-9.9,0.7-9.9,0.7z"/>
	</g>
	<g id="computercase" style="&st39;">
		<path style="&st1;" d="M41.5,23.2c0,0,0,0,0,0c0,0-0.1,0-0.2-0.1c-0.5-0.2-14.1-3.9-14.7-4.1c-0.7-0.2-1.5-0.3-1.9-0.1c-0.4,0.1-11.6,6.6-12.2,7c-0.1,0.1-0.2,0.1-0.2,0.2c-0.8,0.7-0.8,1.7-0.8,1.7s0,0,0-0.1c0,0.1,0,0.1,0,0.2l0.2,2.9c0,0.6,0.1,0.8,0.6,1
			c0,0,14.5,5.8,16.3,6.2c0.1,0,0.1,0,0.2,0c0,0,0,0,0,0c0.8,0.2,1,0.1,1.3-0.2c0,0,0.1,0,0.1-0.1c0.3-0.2,11.4-8.7,11.8-9c0.3-0.3,0.4-0.5,0.4-0.8c0-0.3,0.2-2.6,0.2-3c0,0,0-0.1,0-0.1c0,0,0,0,0,0c0-0.5,0-1.3-1.2-1.6z M29.5,37.5c0,0,0,0,0,0l0,0l0,0
			c0,0,0,0.1,0,0.1c0,0,0-0.1,0-0.1s0,0,0,0z M41.1,24.9c0.4-0.3,0.7-0.5,0.7-0.5S41.5,24.6,41,25c-0.7,0.5-1.8,1.3-3,2.1c1.9-1.3,3.6-2.5,4-2.8c-0.1,0.1-0.4,0.3-1,0.7z"/>
		<linearGradient id="aigrd2" gradientUnits="userSpaceOnUse" x1="13.0234" y1="27.1426" x2="42.8647" y2="27.1426" gradientTransform="matrix(0.997 7.730000e-002 -7.730000e-002 0.997 1.3226 -3.4398)">
			<stop  offset="0" style="stop-color:#EBEBEB"/>
			<stop  offset="1" style="stop-color:#EAEAEA"/>
		</linearGradient>
		<path style="&st54;" d="M26.6,19.2c-0.7-0.2-1.5-0.3-1.9-0.1c-0.4,0.1-11.6,6.6-12.2,7c-0.6,0.4-0.7,1.1,0.1,1.3c0.8,0.3,15.4,5,16,5.2s1.6,0.2,2-0.1c0.3-0.3,11.2-7.9,11.6-8.2c0.3-0.3-0.3-0.8-0.8-1c-0.5-0.2-14.1-3.9-14.7-4.1z"/>
		<linearGradient id="aigrd3" gradientUnits="userSpaceOnUse" x1="14.2222" y1="33.9189" x2="29.7789" y2="35.0394" gradientTransform="matrix(0.997 7.730000e-002 -7.730000e-002 0.997 1.3226 -3.4398)">
			<stop  offset="0" style="stop-color:#F8F8F8"/>
			<stop  offset="1" style="stop-color:#C9C9C9"/>
		</linearGradient>
		<path style="&st31;" d="M11.5,27.9c0-0.5,0.4-0.8,0.8-0.7c0.4,0.1,16.1,5.3,16.7,5.7s0.9,0.6,0.9,1c0,0.5-0.2,3.1-0.3,3.5c0,0.4-0.4,0.9-1,0.7c-1.7-0.4-16.3-6.2-16.3-6.2c-0.5-0.2-0.6-0.4-0.6-1l-0.2-2.9z"/>
		<linearGradient id="aigrd4" gradientUnits="userSpaceOnUse" x1="32.8306" y1="36.6768" x2="42.4255" y2="25.3809" gradientTransform="matrix(0.997 7.730000e-002 -7.730000e-002 0.997 1.3226 -3.4398)">
			<stop  offset="0" style="stop-color:#9F9F9F"/>
			<stop  offset="1" style="stop-color:#828282"/>
		</linearGradient>
		<path style="&st65;" d="M30.3,37.8c-0.3,0.2-0.8-0.1-0.8-0.6c0-0.6,0.2-3,0.3-3.5c0-0.5,0.3-0.9,0.6-1.2c0.3-0.3,11.3-7.9,11.7-8.2c0.4-0.4,0.6,0.3,0.6,0.7c0,0.4-0.2,2.6-0.2,3c0,0.3-0.1,0.5-0.4,0.8c-0.3,0.3-11.5,8.8-11.8,9z"/>
		<g style="&st61;">
			<path d="M29.3,32.4c-1-0.1-17-5.4-17.2-5.5c-0.1,0,0-0.6,0.4-0.9c-1,0.7-1,1.9-1,1.9s0.1-0.5,0.6-0.6c2,0.7,15.9,5.5,16.4,5.7c0.6,0.2,0.8,0.9,0.8,1.4l0.2,3.2l0.3-3.2c0-0.5,0.3-1.5,0.9-1.9c0.3-0.2,7.4-5.4,10.1-7.3c-2.7,1.9-10.3,7.3-11.5,7.2z"/>
			<path d="M40.8,25.2c0.6-0.4,1-0.7,1-0.7s-0.4,0.3-1,0.7z"/>
		</g>
		<path style="&st9;" d="M30.1,37.9c-0.4,0.3-0.6,0.4-1.3,0.2c0.5-0.2,0.7-0.5,0.7-0.5s0.1,0.3,0.6,0.3z"/>
		<path style="&st38;" d="M41.5,23.3c0.7,0.3,0.9,0.7,0.6,1c0.3-0.2,0.6,0.6,0.6,0.6c0-0.5,0-1.3-1.2-1.6z"/>
		<linearGradient id="aigrd5" gradientUnits="userSpaceOnUse" x1="22.2358" y1="33.8193" x2="27.7051" y2="33.8193">
			<stop  offset="0" style="stop-color:#2A2A2A"/>
			<stop  offset="0.4743" style="stop-color:#585858"/>
			<stop  offset="1" style="stop-color:#878787"/>
		</linearGradient>
		<path style="&st48;" d="M22.2,32.5v0.7l5.5,1.9v-0.6l-5.5-2z"/>
		<path style="&st35;" d="M22.2,33.2l-0.3,0.2v-1.3l6,2.2l-0.2,0.3l-5.5-2v0.7z"/>
		<path style="&st14;" d="M27.9,35.5v-1.3l-0.2,0.3v0.6l-5.5-1.9l-0.3,0.2l6,2.1z"/>
		<linearGradient id="aigrd6" gradientUnits="userSpaceOnUse" x1="39.3745" y1="26.1709" x2="35.4781" y2="33.4627">
			<stop  offset="0" style="stop-color:#FFFFFF"/>
			<stop  offset="1" style="stop-color:#FFFFFF"/>
		</linearGradient>
		<path style="&st43;" d="M42.6,26.9l-12.1,8.8v0.4l12.1-9l0-0.3z"/>
		<linearGradient id="aigrd7" gradientUnits="userSpaceOnUse" x1="39.3745" y1="25.1055" x2="35.4784" y2="32.3967">
			<stop  offset="0" style="stop-color:#FFFFFF"/>
			<stop  offset="1" style="stop-color:#FFFFFF"/>
		</linearGradient>
		<path style="&st11;" d="M42.6,25.8l-12.1,8.8v0.4l12.1-9l0-0.3z"/>
		<linearGradient id="aigrd8" gradientUnits="userSpaceOnUse" x1="39.3745" y1="25.8262" x2="35.4781" y2="33.1179">
			<stop  offset="0" style="stop-color:#000000"/>
			<stop  offset="1" style="stop-color:#6A6A6A"/>
		</linearGradient>
		<path style="&st59;" d="M42.6,26.6l-12.1,8.8v0.4l12.1-9l0-0.3z"/>
		<linearGradient id="aigrd9" gradientUnits="userSpaceOnUse" x1="39.3755" y1="24.7607" x2="35.479" y2="32.0526">
			<stop  offset="0" style="stop-color:#000000"/>
			<stop  offset="1" style="stop-color:#6A6A6A"/>
		</linearGradient>
		<path style="&st40;" d="M42.6,25.5l-12.1,8.9v0.4l12.1-9l0-0.3z"/>
	</g>
	<g id="mouse" style="&st60;">
		<radialGradient id="aigrd10" cx="29.5776" cy="40.2461" r="9.6187" fx="29.5776" fy="40.2461" gradientUnits="userSpaceOnUse">
			<stop  offset="0" style="stop-color:#EFEFEF"/>
			<stop  offset="1" style="stop-color:#6D6D6D"/>
		</radialGradient>
		<path style="&st50;" d="M38,42.9c0-0.1,0-0.2-0.1-0.3c-0.4-0.7-1.7-1.1-2.9-1.4c-0.2-0.1-0.4-0.2-0.7-0.3c-0.2,0-0.4,0-0.6,0.1C33.5,41,33.2,41,33,41c-1.2,0-4.6,0-5.1,5c0,0.2,0,0.3,0,0.5c-0.5,2.1,4.1,3.3,6.1,1.5l3.8-3.8c0.3-0.3,0.2-0.9,0.1-1.2z"/>
		<linearGradient id="aigrd11" gradientUnits="userSpaceOnUse" x1="30.9946" y1="47.0146" x2="36.6557" y2="41.4665">
			<stop  offset="0" style="stop-color:#686868"/>
			<stop  offset="1" style="stop-color:#6D6D6D"/>
		</linearGradient>
		<path style="&st6;" d="M37.9,42.6l-9.7,3.2c-1.8,2.4,3.6,4.2,5.8,2.1l3.8-3.8c0.5-0.5,0-1.5,0-1.5z"/>
		<path style="&st62;" d="M37.9,42.8c-0.6-1.1-3.8-1.6-5-1.6s-4.6,0-5.1,5c-0.2,1.7,2.1,2.9,3.8,2.3c1.7-0.6,1.8-3.2,3.2-4.3c1.4-1.1,3.7-0.3,3.1-1.4z"/>
		<linearGradient id="aigrd12" gradientUnits="userSpaceOnUse" x1="28.0825" y1="46.0029" x2="38.3098" y2="42.2912">
			<stop  offset="0" style="stop-color:#FCFCFC"/>
			<stop  offset="1" style="stop-color:#BBBBBB"/>
		</linearGradient>
		<path style="&st56;" d="M37.9,42.6c-0.6-1.1-3.8-1.6-5-1.6c-1.2,0-4.6,0-5.1,5c-0.2,1.7,2.1,2.9,3.8,2.3c1.7-0.6,1.8-3.2,3.2-4.3c1.4-1.1,3.7-0.3,3.1-1.4z"/>
		<linearGradient id="aigrd13" gradientUnits="userSpaceOnUse" x1="30.5571" y1="43.6162" x2="37.6696" y2="41.0349">
			<stop  offset="0" style="stop-color:#EBEBEB"/>
			<stop  offset="1" style="stop-color:#818181"/>
		</linearGradient>
		<path style="&st34;" d="M38,42.9c0.1,0.5-2,0.2-2.5,0.7c-0.4-0.7-2-1.4-3.1-1.7c-1.2-0.3-2.6-0.1-2.6-0.1c1.9-1.8,8.1-0.6,8.2,1z"/>
		<path style="&st36;" d="M35.5,43.6l0.1,0.6c0.5-0.6,1.8,0.1,2.4-1c-0.6,0.8-2,0.4-2.3,0.7l-0.2-0.3z"/>
		<path style="&st36;" d="M32.4,42l0.2,0c0.9-0.8,3.4-0.5,3.4-0.5S33.3,41,32.4,42z"/>
		<radialGradient id="aigrd14" cx="34.4233" cy="42.6445" r="1.4229" fx="34.4233" fy="42.6445" gradientTransform="matrix(0.907 0.4211 -0.4211 0.907 20.7358 -12.4619)" gradientUnits="userSpaceOnUse">
			<stop  offset="0" style="stop-color:#EFEFEF"/>
			<stop  offset="1" style="stop-color:#6D6D6D"/>
		</radialGradient>
		<path style="&st2;" d="M34.3,41c-0.6-0.1-0.9,0.3-1,0.6c0.2,0.2,0.3,0.2,0.7,0.2c0.6,0,0.9-0.1,1.2-0.4C35,41.2,34.7,41,34.3,41z"/>
	</g>
	<g id="keyboard" style="&st39;">
		<linearGradient id="aigrd15" gradientUnits="userSpaceOnUse" x1="10.0864" y1="41.668" x2="19.3247" y2="32.6139">
			<stop  offset="0" style="stop-color:#DBDBDB"/>
			<stop  offset="1" style="stop-color:#ACACAC"/>
		</linearGradient>
		<path style="&st49;" d="M23.5,36.7L8.9,31.1c-0.5,1-1.2,1.9-1.9,2.6l0,0c-0.3-0.1-0.9-0.1-1.2,0.2l-2.5,1.9c-0.3,0.2-0.2,0.5,0,0.6l0,0c-1,0.5-1.6,0.8-1.6,0.8C1,37.9,2,38.9,2,38.9l14.7,6.4c1.3,0.6,6.4-3.1,7.3-4.6c0.8-1.5-0.4-4.1-0.4-4.1z"/>
		<linearGradient id="aigrd16" gradientUnits="userSpaceOnUse" x1="9.6899" y1="42.7803" x2="18.0325" y2="32.9589">
			<stop  offset="0" style="stop-color:#9F9F9F"/>
			<stop  offset="1" style="stop-color:#828282"/>
		</linearGradient>
		<path style="&st30;" d="M2.1,38.9l14.7,6.4c1.3,0.6,6.4-3.1,7.3-4.6c0.8-1.5-0.4-4.1-0.4-4.1L8.9,31.1c-1.9,4.1-7.2,6.1-7.2,6.1c-0.7,0.7,0.3,1.7,0.3,1.7z"/>
		<linearGradient id="aigrd17" gradientUnits="userSpaceOnUse" x1="1.7241" y1="37.3545" x2="23.6357" y2="37.3545">
			<stop  offset="0" style="stop-color:#EBEBEB"/>
			<stop  offset="1" style="stop-color:#EAEAEA"/>
		</linearGradient>
		<path style="&st63;" d="M23.6,36.7c-1.1,3.2-6.6,6.9-6.6,6.9L1.7,37.2c0,0,4.9-1.8,7.2-6.1l14.7,5.6z"/>
		<path style="&st61;" d="M23.6,36.7c-0.8,2.5-6.1,6.6-6.7,6.6c-0.6,0-15.2-6.1-15.2-6.1l14.8,6.3c0,0,0.3,0.2,0.3,0.5l0.2,1.4l0.1-1.3c0,0,0-0.5,0.3-0.6c0,0,5.5-4.1,6.2-6.8z"/>
		<g>
			<linearGradient id="aigrd18" gradientUnits="userSpaceOnUse" x1="7.731" y1="39.0029" x2="12.3398" y2="34.486">
				<stop  offset="0" style="stop-color:#686868"/>
				<stop  offset="1" style="stop-color:#6D6D6D"/>
			</linearGradient>
			<path style="&st47;" d="M3.2,36.5c-0.3,0.2-0.3,0.6,0.1,0.7l8.6,3.5c0.4,0.2,0.9,0,1.2-0.2l2.4-2.3c0.3-0.3,0.2-0.6-0.2-0.8l-8.2-3.2c-0.4-0.1-0.9-0.1-1.3,0.2l-2.7,2.1z"/>
		</g>
		<g>
			<linearGradient id="aigrd19" gradientUnits="userSpaceOnUse" x1="7.5537" y1="38.0762" x2="11.8133" y2="33.9015">
				<stop  offset="0" style="stop-color:#DBDBDB"/>
				<stop  offset="1" style="stop-color:#ACACAC"/>
			</linearGradient>
			<path style="&st16;" d="M3.4,35.8c-0.3,0.2-0.3,0.5,0.1,0.7l7.9,3.3c0.3,0.1,0.8,0,1.1-0.2l2.2-2.1c0.3-0.3,0.2-0.6-0.1-0.7L7,33.7c-0.3-0.1-0.9-0.1-1.2,0.2l-2.5,1.9z"/>
		</g>
		<g>
			<linearGradient id="aigrd20" gradientUnits="userSpaceOnUse" x1="15.7144" y1="41.4736" x2="19.0286" y2="38.2254">
				<stop  offset="0" style="stop-color:#686868"/>
				<stop  offset="1" style="stop-color:#6D6D6D"/>
			</linearGradient>
			<path style="&st42;" d="M17.5,38.1c-0.4-0.2-0.9,0-1.2,0.3l-2.5,2.5c-0.3,0.3-0.2,0.7,0.2,0.8l2.4,1c0.4,0.2,0.9,0.1,1.2-0.2l2.5-2.5c0.3-0.3,0.2-0.7-0.2-0.8l-2.4-1z"/>
		</g>
		<g>
			<linearGradient id="aigrd21" gradientUnits="userSpaceOnUse" x1="15.7139" y1="40.7002" x2="18.6417" y2="37.8308">
				<stop  offset="0" style="stop-color:#DBDBDB"/>
				<stop  offset="1" style="stop-color:#ACACAC"/>
			</linearGradient>
			<path style="&st10;" d="M17.3,37.7c-0.3-0.1-0.8,0-1.1,0.2L14,40.1c-0.3,0.3-0.2,0.6,0.1,0.7l2.1,0.9c0.3,0.1,0.8,0,1.1-0.2l2.2-2.2c0.3-0.3,0.2-0.6-0.2-0.7l-2.1-0.9z"/>
		</g>
		<g>
			<linearGradient id="aigrd22" gradientUnits="userSpaceOnUse" x1="11.5229" y1="34.9502" x2="14.1706" y2="32.3553">
				<stop  offset="0" style="stop-color:#686868"/>
				<stop  offset="1" style="stop-color:#6D6D6D"/>
			</linearGradient>
			<path style="&st58;" d="M9,31.9c-0.4-0.1-0.8,0-1,0.4l0,0.1c-0.2,0.3-0.1,0.7,0.3,0.9l7.6,3c0.4,0.1,0.8,0,1-0.3l0.1-0.2c0.2-0.3,0.1-0.7-0.3-0.9L9,31.9z"/>
		</g>
		<g>
			<linearGradient id="aigrd23" gradientUnits="userSpaceOnUse" x1="11.2939" y1="35.1445" x2="12.565" y2="33.1009">
				<stop  offset="0" style="stop-color:#DBDBDB"/>
				<stop  offset="1" style="stop-color:#ACACAC"/>
			</linearGradient>
			<path style="&st37;" d="M9,31.5c-0.3-0.1-0.8,0-1,0.3l0,0.1c-0.2,0.3-0.1,0.7,0.3,0.8l7.2,2.9c0.3,0.1,0.8,0,1-0.3l0.1-0.2c0.2-0.3,0.1-0.7-0.3-0.8L9,31.5z"/>
		</g>
		<path style="&st51;" d="M22.6,37l-1.1,1.6l-4.7-1.9l1.1-1.4l4.7,1.7z"/>
		<path style="&st7;" d="M16.8,36.8l1.1-1.4l4.7,1.7l-0.3,0l-4.3-1.5l-1.2,1.2z"/>
		<path style="&st61;" d="M15.6,35.7l-7.4-3c-0.5-0.3-0.1-0.9-0.1-0.9s-0.3,0.6,0.3,0.8l7.2,2.9c0.6,0.2,1.1-0.4,1.1-0.4s-0.4,0.7-1,0.6z"/>
		<path style="&st61;" d="M11.5,39.8l-8-3.3c-0.6-0.3-0.1-0.7-0.1-0.7s-0.3,0.4,0.3,0.6l7.8,3.2c0.6,0.2,1.2-0.2,1.2-0.2s-0.5,0.5-1.1,0.4z"/>
		<path style="&st61;" d="M16.3,41.7l-2.2-1c-0.6-0.3-0.1-0.7-0.1-0.7s-0.3,0.4,0.3,0.6l2,0.9c0.6,0.2,1.2-0.2,1.2-0.2s-0.5,0.5-1.1,0.4z"/>
	</g>
	<g id="monitor" style="&st55;">
		<g style="&st13;">
			<path style="&st57;" d="M26,21.6c-1.8-0.5-4.6-0.2-6.2,0.7l-4.4,2.4c-1.6,0.9-1.5,2.1,0.2,2.7l14.5,4.8l0.4,0.5l1.5,4.1l9.4-7L39.7,26c0,0-0.9-0.7-1.8-1L26,21.6z"/>
		</g>
		<radialGradient id="aigrd24" cx="25.1108" cy="19.981" r="8.7597" fx="25.1108" fy="19.981" gradientUnits="userSpaceOnUse">
			<stop  offset="0" style="stop-color:#B6B6B6"/>
			<stop  offset="1" style="stop-color:#878787"/>
		</radialGradient>
		<path style="&st45;" d="M27,20.1c-4,0-7.3,1.4-7.3,3.2v0.9c0,1.8,3.3,3.2,7.3,3.2c4,0,7.3-1.4,7.3-3.2v-0.9c0-1.8-3.3-3.2-7.3-3.2z"/>
		<path style="&st4;" d="M27,20.1c-4,0-7.3,1.4-7.3,3.2v0.9c0,1.8,3.3,3.2,7.3,3.2c4,0,7.3-1.4,7.3-3.2v-0.9c0-1.8-3.3-3.2-7.3-3.2z"/>
		<path style="&st64;" d="M19.8,22.9c0.2,1.4,1.8,3.4,8.5,3.5c-5.1,0.5-9.1-1-8.5-3.5z"/>
		<g>
			<path style="&st5;" d="M36.1,5.8c0.1-0.4,0-0.7-0.2-0.7C35.8,5,35.6,5,35.6,5s0,0,0,0S35.3,5,34.9,4.9L16.5,1.7c-0.4-0.1-0.9-0.1-1.1-0.1c-0.2,0-0.6,0-0.8,0c-0.2,0-0.4,0.3-0.4,0.7l-2.5,17.2c-0.1,0.4,0.2,0.8,0.6,0.9l17.6,5.2c0.4,0.1,0.7,0.2,0.7,0.2s0,0,0,0
				c0,0,0.1,0,0.3,0.1s0.4,0.1,0.5,0c0.1,0,0.3-0.1,0.3-0.1c0.1,0,0.3-0.1,0.3-0.1c0,0,0.2,0,0.4-0.1c0.2-0.1,0.4-0.4,0.5-0.8l3.2-19.1z"/>
			<path style="&st0;" d="M36.1,5.8c0.1-0.4,0-0.7-0.2-0.7C35.8,5,35.6,5,35.6,5s0,0,0,0S35.3,5,34.9,4.9L16.5,1.7c-0.4-0.1-0.9-0.1-1.1-0.1c-0.2,0-0.6,0-0.8,0c-0.2,0-0.4,0.3-0.4,0.7l-2.5,17.2c-0.1,0.4,0.2,0.8,0.6,0.9l17.6,5.2c0.4,0.1,0.7,0.2,0.7,0.2s0,0,0,0
				c0,0,0.1,0,0.3,0.1s0.4,0.1,0.5,0c0.1,0,0.3-0.1,0.3-0.1c0.1,0,0.3-0.1,0.3-0.1c0,0,0.2,0,0.4-0.1c0.2-0.1,0.4-0.4,0.5-0.8l3.2-19.1z"/>
		</g>
		<g>
			<linearGradient id="aigrd26" gradientUnits="userSpaceOnUse" x1="14.2974" y1="13.1934" x2="32.0528" y2="14.4722">
				<stop  offset="0" style="stop-color:#F8F8F8"/>
				<stop  offset="1" style="stop-color:#C9C9C9"/>
			</linearGradient>
			<path style="&st33;" d="M15.2,1.8c-0.5-0.1-0.9,0.3-1,0.7l-2.4,16.8c-0.1,0.5,0.3,1,0.7,1.1l17.9,5.2c0.5,0.1,0.9-0.1,1-0.6L34.7,6c0.1-0.5-0.2-0.9-0.7-1L15.2,1.8z"/>
		</g>
		<g>
			<linearGradient id="aigrd27" gradientUnits="userSpaceOnUse" x1="29.4043" y1="20.5801" x2="39.028" y2="9.2504">
				<stop  offset="0" style="stop-color:#9F9F9F"/>
				<stop  offset="1" style="stop-color:#828282"/>
			</linearGradient>
			<path style="&st66;" d="M33,24.7c-0.1,0.5-0.5,1-1,1.1s-0.7-0.2-0.7-0.7L34.7,6c0.1-0.5,0.5-0.9,0.9-0.9c0.4,0,0.6,0.4,0.5,0.9L33,24.7z"/>
		</g>
		<g>
			<linearGradient id="aigrd28" gradientUnits="userSpaceOnUse" x1="15.0688" y1="3.3955" x2="35.5562" y2="3.3955">
				<stop  offset="0" style="stop-color:#EBEBEB"/>
				<stop  offset="1" style="stop-color:#EAEAEA"/>
			</linearGradient>
			<path style="&st52;" d="M16.7,1.8c-0.5-0.1-1.2-0.1-1.6-0.1c-0.4,0-0.4,0.1,0.1,0.2L34,5c0.5,0.1,1.2,0.1,1.6,0.1c0.4,0,0.3-0.1-0.2-0.2L16.7,1.8z"/>
		</g>
		<path style="&st9;" d="M32,25.8c-0.4,0.2-0.9,0.2-1.5,0c0.5-0.2,0.8-0.6,0.8-0.6s0.1,0.7,0.7,0.6z"/>
		<path style="&st44;" d="M34,5.2c0.4,0.1,0.8,0.1,0.5,1.2L33,15.6L34.8,6c0.1-0.6,0.4-0.7,0.7-0.8L15.1,1.8c-0.1,0-0.2-0.1-0.2-0.1c-0.4,0-0.7,0.5-0.8,0.9C14.4,2.2,14.6,1.9,15,2l19,3.2z"/>
		<path style="&st38;" d="M36.1,6c0-0.7-0.5-0.9-0.5-0.9s0.1-0.1,0-0.1c0.3,0,0.6,0.5,0.5,1z"/>
		<g>
			<linearGradient id="aigrd29" gradientUnits="userSpaceOnUse" x1="22.2896" y1="5.6958" x2="22.2896" y2="18.8561" gradientTransform="matrix(1 -2.300000e-003 2.300000e-003 1 -0.2526 0.2837)">
				<stop  offset="0" style="stop-color:#000000"/>
				<stop  offset="1" style="stop-color:#3A4A70"/>
			</linearGradient>
			<path style="&st15;" d="M27.9,21.6l-14.3-4.1l1.9-13.9l14.9,2.6l-2.6,15.4z"/>
			<linearGradient id="aigrd30" gradientUnits="userSpaceOnUse" x1="22.479" y1="5.7446" x2="22.479" y2="18.9035" gradientTransform="matrix(1 -2.300000e-003 2.300000e-003 1 -0.2526 0.2837)">
				<stop  offset="0" style="stop-color:#120751"/>
				<stop  offset="1" style="stop-color:#7473B5"/>
			</linearGradient>
			<path style="&st46;" d="M28.1,21.7l-14.3-4.1l1.9-13.9l14.9,2.6l-2.6,15.4z"/>
			<g>
				<linearGradient id="aigrd31" gradientUnits="userSpaceOnUse" x1="22.8521" y1="5.1436" x2="22.8521" y2="10.4049" gradientTransform="matrix(1 -2.300000e-003 2.300000e-003 1 -0.2526 0.2837)">
					<stop  offset="0" style="stop-color:#E7EBEF"/>
					<stop  offset="1" style="stop-color:#52699F"/>
				</linearGradient>
				<path style="&st8;" d="M16.5,4.5c-0.1,0-0.2,0.1-0.2,0.3l-0.9,6.6c0,0.2,0,0.3,0.1,0.3c3.9,0,10.3-1.8,13.9-3.5c0.1-0.1,0.2-0.2,0.2-0.4l0.1-0.6c0-0.2,0-0.4-0.1-0.4L16.5,4.5z"/>
			</g>
			<g>
			</g>
		</g>
		<g style="&st44;">
			<g>
				<path d="M24.2,9.4c-1.2-0.2-1.7,1.6-1,1.7c0.7,0.1,2.2-1.5,1-1.7z"/>
				<path d="M22.1,10.6c0.3,0.1,0.9-1.3,0.3-1.3c-0.6,0-0.6,1.2-0.3,1.3z"/>
				<path d="M20.5,11.2c0.2-0.1,0.2-1.2-0.2-1c-0.4,0.2,0,1,0.2,1z"/>
				<path d="M21.2,10.7c0.3,0,0.5-1.3,0-1.1c-0.5,0.1-0.2,1.1,0,1.1z"/>
				<path id="newshape" d="M22.2,13.8c0,0.4-0.4,0.5-0.6,0.2c-0.9-1.1,1.9-0.8,1.9-2.1c0-1-2.8-1.3-3.2,0.2c-0.3,0.9,0.5,2.5,1.5,2.8c0.5,0.1,1.2-0.2,1.5-0.9c0.2-0.5-1-0.6-1-0.2z"/>
			</g>
		</g>
		<g style="&st61;">
			<g>
				<g>
					<g>
						<linearGradient id="aigrd32" gradientUnits="userSpaceOnUse" x1="30.7622" y1="18.1943" x2="31.4351" y2="17.4022">
							<stop  offset="0" style="stop-color:#9F9F9F"/>
							<stop  offset="1" style="stop-color:#828282"/>
						</linearGradient>
						<path style="&st17;" d="M32.1,17.9l-1.8-0.4l-0.1,0.5l1.9-0.1z"/>
						<path d="M32,18.3l0.1-0.4l-1.9,0.1l1.7,0.4z"/>
					</g>
					<g>
						<linearGradient id="aigrd33" gradientUnits="userSpaceOnUse" x1="31.106" y1="16.1592" x2="31.7783" y2="15.3676">
							<stop  offset="0" style="stop-color:#9F9F9F"/>
							<stop  offset="1" style="stop-color:#828282"/>
						</linearGradient>
						<path style="&st18;" d="M32.4,15.8l-1.8-0.4l-0.1,0.5l1.9-0.1z"/>
						<path d="M32.3,16.3l0.1-0.4l-1.9,0.1l1.7,0.4z"/>
					</g>
					<g>
						<linearGradient id="aigrd34" gradientUnits="userSpaceOnUse" x1="31.4487" y1="14.126" x2="32.1213" y2="13.3342">
							<stop  offset="0" style="stop-color:#9F9F9F"/>
							<stop  offset="1" style="stop-color:#828282"/>
						</linearGradient>
						<path style="&st19;" d="M32.8,13.8L31,13.4l-0.1,0.5l1.9-0.1z"/>
						<path d="M32.6,14.3l0.1-0.4l-1.9,0.1l1.7,0.4z"/>
					</g>
					<g>
						<linearGradient id="aigrd35" gradientUnits="userSpaceOnUse" x1="31.7915" y1="12.0903" x2="32.4633" y2="11.2994">
							<stop  offset="0" style="stop-color:#9F9F9F"/>
							<stop  offset="1" style="stop-color:#828282"/>
						</linearGradient>
						<path style="&st20;" d="M33.1,11.8l-1.8-0.4l-0.1,0.5l1.9-0.1z"/>
						<path d="M33,12.2l0.1-0.4l-1.9,0.1l1.7,0.4z"/>
					</g>
					<g>
						<linearGradient id="aigrd36" gradientUnits="userSpaceOnUse" x1="32.1353" y1="10.0562" x2="32.8071" y2="9.2652">
							<stop  offset="0" style="stop-color:#9F9F9F"/>
							<stop  offset="1" style="stop-color:#828282"/>
						</linearGradient>
						<path style="&st21;" d="M33.5,9.7l-1.8-0.4l-0.1,0.5l1.9-0.1z"/>
						<path d="M33.3,10.2l0.1-0.4l-1.9,0.1l1.7,0.4z"/>
					</g>
					<g>
						<linearGradient id="aigrd37" gradientUnits="userSpaceOnUse" x1="32.479" y1="8.022" x2="33.1505" y2="7.2314">
							<stop  offset="0" style="stop-color:#9F9F9F"/>
							<stop  offset="1" style="stop-color:#828282"/>
						</linearGradient>
						<path style="&st22;" d="M33.8,7.7L32,7.3l-0.1,0.5l1.9-0.1z"/>
						<path d="M33.7,8.1l0.1-0.4l-1.9,0.1l1.7,0.4z"/>
					</g>
				</g>
			</g>
			<g>
				<g>
					<g>
						<linearGradient id="aigrd38" gradientUnits="userSpaceOnUse" x1="32.7974" y1="7.9985" x2="33.2807" y2="7.4295">
							<stop  offset="0" style="stop-color:#9F9F9F"/>
							<stop  offset="1" style="stop-color:#828282"/>
						</linearGradient>
						<path style="&st23;" d="M32.3,7.7L33.6,8l0.1-0.3l-1.3,0z"/>
						<path d="M32.4,7.4l-0.1,0.3l1.3,0l-1.3-0.3z"/>
					</g>
					<g>
						<linearGradient id="aigrd39" gradientUnits="userSpaceOnUse" x1="32.4634" y1="10.0327" x2="32.9468" y2="9.4636">
							<stop  offset="0" style="stop-color:#9F9F9F"/>
							<stop  offset="1" style="stop-color:#828282"/>
						</linearGradient>
						<path style="&st24;" d="M31.9,9.7l1.3,0.3l0.1-0.3l-1.3,0z"/>
						<path d="M32,9.4l-0.1,0.3l1.3,0L32,9.4z"/>
					</g>
					<g>
						<linearGradient id="aigrd40" gradientUnits="userSpaceOnUse" x1="32.1304" y1="12.0684" x2="32.6141" y2="11.4988">
							<stop  offset="0" style="stop-color:#9F9F9F"/>
							<stop  offset="1" style="stop-color:#828282"/>
						</linearGradient>
						<path style="&st25;" d="M31.6,11.8l1.3,0.3l0.1-0.3l-1.3,0z"/>
						<path d="M31.7,11.5l-0.1,0.3l1.3,0l-1.3-0.3z"/>
					</g>
					<g>
						<linearGradient id="aigrd41" gradientUnits="userSpaceOnUse" x1="31.7964" y1="14.1025" x2="32.2798" y2="13.5334">
							<stop  offset="0" style="stop-color:#9F9F9F"/>
							<stop  offset="1" style="stop-color:#828282"/>
						</linearGradient>
						<path style="&st26;" d="M31.3,13.8l1.3,0.3l0.1-0.3l-1.3,0z"/>
						<path d="M31.4,13.5l-0.1,0.3l1.3,0l-1.3-0.3z"/>
					</g>
					<g>
						<linearGradient id="aigrd42" gradientUnits="userSpaceOnUse" x1="31.4634" y1="16.1372" x2="31.9467" y2="15.5682">
							<stop  offset="0" style="stop-color:#9F9F9F"/>
							<stop  offset="1" style="stop-color:#828282"/>
						</linearGradient>
						<path style="&st27;" d="M30.9,15.8l1.3,0.3l0.1-0.3l-1.3,0z"/>
						<path d="M31,15.5l-0.1,0.3l1.3,0L31,15.5z"/>
					</g>
					<g>
						<linearGradient id="aigrd43" gradientUnits="userSpaceOnUse" x1="31.1304" y1="18.1724" x2="31.6138" y2="17.6033">
							<stop  offset="0" style="stop-color:#9F9F9F"/>
							<stop  offset="1" style="stop-color:#828282"/>
						</linearGradient>
						<path style="&st28;" d="M30.6,17.9l1.3,0.3l0.1-0.3l-1.3,0z"/>
						<path d="M30.7,17.6l-0.1,0.3l1.3,0l-1.3-0.3z"/>
					</g>
				</g>
			</g>
		</g>
	</g>
	<g id="Layer_x0020_7" style="&st60;">
	</g>
</svg>
