<?xml version="1.0" encoding="iso-8859-1"?>
<!-- Generator: Adobe Illustrator 9.0, SVG Export Plug-In  -->
<!DOCTYPE svg PUBLIC "-//W3C//DTD SVG 20000303 Stylable//EN"   "http://www.w3.org/TR/2000/03/WD-SVG-20000303/DTD/svg-20000303-stylable.dtd" [
	<!ENTITY st0 "fill:url(#aigrd1);stroke:none;">
	<!ENTITY st1 "fill:url(#aigrd24);stroke:none;">
	<!ENTITY st2 "fill:url(#aigrd2);stroke-width:2.8856;stroke-linecap:round;stroke-linejoin:round;">
	<!ENTITY st3 "opacity:0.13;fill:url(#aigrd13);stroke:none;">
	<!ENTITY st4 "fill:#000000;stroke:none;">
	<!ENTITY st5 "fill:none;stroke-width:2.8856;stroke-linecap:round;stroke-linejoin:round;">
	<!ENTITY st6 "fill:#000000;stroke-width:2.8856;stroke-linecap:round;stroke-linejoin:round;">
	<!ENTITY st7 "fill:url(#aigrd11);stroke:none;">
	<!ENTITY st8 "fill:#C9C9C9;stroke:none;">
	<!ENTITY st9 "fill:url(#aigrd30);stroke-width:0.373;">
	<!ENTITY st10 "fill:#848484;stroke:none;">
	<!ENTITY st11 "fill:url(#aigrd9);stroke:none;">
	<!ENTITY st12 "fill:url(#aigrd21);stroke:none;">
	<!ENTITY st13 "opacity:0.35;">
	<!ENTITY st14 "opacity:0.45;">
	<!ENTITY st15 "opacity:0.72;stroke:none;">
	<!ENTITY st16 "fill:url(#aigrd31);stroke:none;">
	<!ENTITY st17 "fill:url(#aigrd19);stroke:none;">
	<!ENTITY st18 "opacity:0.3;fill:#FFFFFF;stroke:none;">
	<!ENTITY st19 "fill:url(#aigrd6);stroke:none;">
	<!ENTITY st20 "fill:url(#aigrd33);">
	<!ENTITY st21 "fill:url(#aigrd34);">
	<!ENTITY st22 "fill:url(#aigrd35);">
	<!ENTITY st23 "fill:url(#aigrd36);">
	<!ENTITY st24 "fill:url(#aigrd37);">
	<!ENTITY st25 "fill:url(#aigrd38);">
	<!ENTITY st26 "fill:url(#aigrd39);">
	<!ENTITY st27 "fill:url(#aigrd40);">
	<!ENTITY st28 "fill:url(#aigrd41);">
	<!ENTITY st29 "fill:url(#aigrd42);">
	<!ENTITY st30 "fill:url(#aigrd43);">
	<!ENTITY st31 "fill:url(#aigrd44);">
	<!ENTITY st32 "fill:url(#aigrd29);stroke:none;">
	<!ENTITY st33 "fill:url(#aigrd3);stroke:none;">
	<!ENTITY st34 "opacity:0.35;stroke:none;">
	<!ENTITY st35 "opacity:0.13;fill:url(#aigrd15);stroke:none;">
	<!ENTITY st36 "fill:#C2C2C2;stroke-width:0.9335;stroke-linecap:round;stroke-linejoin:round;">
	<!ENTITY st37 "opacity:0.22;fill:#000000;stroke:none;">
	<!ENTITY st38 "fill-rule:nonzero;clip-rule:nonzero;fill:#BABABA;stroke:#000000;stroke-miterlimit:4;">
	<!ENTITY st39 "fill:url(#aigrd23);stroke:none;">
	<!ENTITY st40 "fill:#545454;stroke:none;">
	<!ENTITY st41 "fill-rule:nonzero;clip-rule:nonzero;fill:#FFFFFF;stroke:#000000;stroke-miterlimit:4;">
	<!ENTITY st42 "opacity:0.13;fill:url(#aigrd12);stroke:none;">
	<!ENTITY st43 "fill:url(#aigrd25);stroke-width:1.8061;stroke-linecap:round;stroke-linejoin:round;">
	<!ENTITY st44 "fill:url(#aigrd10);stroke:none;">
	<!ENTITY st45 "fill:#A6A6A6;stroke-width:0.5635;">
	<!ENTITY st46 "fill:url(#aigrd16);stroke-width:2.8856;stroke-linecap:round;stroke-linejoin:round;">
	<!ENTITY st47 "fill:url(#aigrd8);stroke:none;">
	<!ENTITY st48 "fill:url(#aigrd20);stroke:none;">
	<!ENTITY st49 "fill:#FFFFFF;stroke:none;">
	<!ENTITY st50 "fill:url(#aigrd18);stroke:none;">
	<!ENTITY st51 "fill:url(#aigrd5);stroke:none;">
	<!ENTITY st52 "fill:#F8F8F8;stroke:none;">
	<!ENTITY st53 "fill:url(#aigrd28);stroke:none;">
	<!ENTITY st54 "fill:#A6A6A6;stroke:none;">
	<!ENTITY st55 "fill-rule:nonzero;clip-rule:nonzero;fill:#DEDEDE;stroke:#000000;stroke-miterlimit:4;">
	<!ENTITY st56 "fill:url(#aigrd25);stroke:none;">
	<!ENTITY st57 "opacity:0.13;fill:url(#aigrd14);stroke:none;">
	<!ENTITY st58 "fill:none;stroke:none;">
	<!ENTITY st59 "opacity:0.58;fill:url(#aigrd32);stroke:none;">
	<!ENTITY st60 "opacity:0.3;fill:#000000;stroke:none;">
	<!ENTITY st61 "fill:url(#aigrd22);stroke:none;">
	<!ENTITY st62 "fill-rule:nonzero;clip-rule:nonzero;stroke:#000000;stroke-miterlimit:4;">
	<!ENTITY st63 "fill:url(#aigrd7);stroke:none;">
	<!ENTITY st64 "stroke:none;">
	<!ENTITY st65 "fill:#F0F0F0;stroke:none;">
	<!ENTITY st66 "fill:url(#aigrd17);stroke:none;">
	<!ENTITY st67 "fill:#B3B3B3;stroke:none;">
	<!ENTITY st68 "fill:url(#aigrd4);stroke:none;">
	<!ENTITY st69 "fill:url(#aigrd27);stroke:none;">
]>
<svg  width="64pt" height="52pt" viewBox="0 0 64 52" xml:space="preserve">
	<g id="cables" style="&st62;">
		<path style="&st36;" d="M11.3,30.2c-0.3,0.9,0.1,1.8,1.2,2.2l0.2-0.6c-0.5-0.2-1.1-0.7-0.8-1.5c0.4-1,2.2-2.2,4-1.6l0.2-0.6c-2-0.6-4.2,0.6-4.8,2z"/>
		<linearGradient id="aigrd1" gradientUnits="userSpaceOnUse" x1="11.2578" y1="30.2979" x2="16.0127" y2="30.2979">
			<stop  offset="0" style="stop-color:#D6D6D6"/>
			<stop  offset="1" style="stop-color:#848484"/>
		</linearGradient>
		<path style="&st0;" d="M11.3,30.2c-0.3,0.9,0.1,1.8,1.2,2.2l0.2-0.6c-0.5-0.2-1.1-0.7-0.8-1.5c0.4-1,2.2-2.2,4-1.6l0.2-0.6c-2-0.6-4.2,0.6-4.8,2z"/>
		<path style="&st45;" d="M38,24.2l0.1,0.3c0,0,4.4-1.8,8.6-0.6l1.9,0.5c3.6,0.9,8.9,2.3,9.3,3.8c0.1,0.3-0.1,0.6-0.5,0.9c-2.9,2.4-5,1.8-7.1,1.2c-1.7-0.5-3.4-1-5.1,0.4c-0.7,0.5-0.9,1-0.9,1.4c0.1,0.7,1.4,1.1,2.7,1.5c1.2,0.4,2.5,0.7,2.6,1.3
			c0.1,0.3-0.1,0.6-0.5,0.9c-1.6,1.6-3.6,0.7-5.4,0c-1.5-0.6-2.8-1.2-3.7-0.3c-0.9,0.9-1,1.6-1.2,2.2c-0.1,0.7-0.3,1.4-1.4,2.6l0.2,0.2c1.2-1.2,1.4-2,1.5-2.7c0.1-0.6,0.2-1.2,1.1-2c0.8-0.8,2-0.2,3.4,0.4c1.9,0.8,4,1.7,5.7,0c0.4-0.4,0.6-0.8,0.5-1.2
			c-0.2-0.8-1.5-1.1-2.8-1.5C46,33,44.7,32.6,44.6,32c-0.1-0.3,0.2-0.7,0.8-1.1c1.7-1.3,3.2-0.9,4.9-0.4c2.1,0.6,4.4,1.3,7.4-1.2c0.5-0.4,0.6-0.8,0.5-1.2c-0.4-1.7-5.4-3-9.5-4l-1.9-0.5c-4.3-1.2-8.7,0.6-8.8,0.6z"/>
		<path style="&st34;" d="M38.2,24.9l0.1,0.3c0,0,4.4-1.8,8.6-0.6l1.9,0.5c3.6,0.9,8.9,2.3,9.3,3.8c0.1,0.3-0.1,0.6-0.5,0.9c-2.9,2.4-5,1.8-7.1,1.2c-1.7-0.5-3.4-1-5.1,0.4c-0.7,0.5-0.9,1-0.9,1.4c0.1,0.7,1.4,1.1,2.7,1.5c1.2,0.4,2.5,0.7,2.6,1.3
			c0.1,0.3-0.1,0.6-0.5,0.9c-1.6,1.6-3.6,0.7-5.4,0c-1.5-0.6-2.8-1.2-3.7-0.3c-0.9,0.9-1,1.6-1.2,2.2c-0.1,0.7-0.3,1.4-1.4,2.6l0.2,0.2c1.2-1.2,1.4-2,1.5-2.7c0.1-0.6,0.2-1.2,1.1-2c0.8-0.8,2-0.2,3.4,0.4c1.9,0.8,4,1.7,5.7,0c0.4-0.4,0.6-0.8,0.5-1.2
			c-0.2-0.8-1.5-1.1-2.8-1.5c-1.2-0.4-2.4-0.7-2.5-1.3c-0.1-0.3,0.2-0.7,0.8-1.1c1.7-1.3,3.2-0.9,4.9-0.4c2.1,0.6,4.4,1.3,7.4-1.2c0.5-0.4,0.6-0.8,0.5-1.2c-0.4-1.7-5.4-3-9.5-4l-1.9-0.5c-4.3-1.2-8.7,0.6-8.8,0.6z"/>
	</g>
	<g id="mouse" style="&st38;">
		<g style="&st13;">
			<path style="&st4;" d="M30.5,45.6c-0.4,0.5-0.5,2.6,1.6,2.9c0,0,3.5,1.1,5.6-1l3.4-3.3c0.4-0.5,0.3-1.6-0.3-1.9l-3.9-1.8c-0.6-0.3-1.4-0.1-1.8,0.3l-4.5,4.7z"/>
		</g>
		<radialGradient id="aigrd2" cx="31.9971" cy="39.2783" r="8.4805" fx="31.9971" fy="39.2783" gradientUnits="userSpaceOnUse">
			<stop  offset="0" style="stop-color:#EFEFEF"/>
			<stop  offset="1" style="stop-color:#6D6D6D"/>
		</radialGradient>
		<path style="&st2;" d="M39.5,41.6c0-0.1,0-0.2-0.1-0.3c-0.3-0.6-1.5-1-2.6-1.2c-0.2-0.1-0.4-0.2-0.6-0.3c-0.2,0-0.4,0-0.5,0.1c-0.3,0-0.5,0-0.7,0c-1,0-4,0-4.5,4.4c0,0.1,0,0.3,0,0.4c-0.4,1.8,3.6,3,5.4,1.3l3.4-3.4c0.3-0.3,0.2-0.8,0.1-1.1z"/>
		<path style="&st54;" d="M41.6,24.1l0.6,0.2c0,0,0.3-1.5,4.5-0.4l1.9,0.5c3.6,0.9,8.9,2.3,9.3,3.8c0.1,0.3-0.1,0.6-0.5,0.9c-2.9,2.4-5,1.8-7.1,1.2c-1.7-0.5-3.4-1-5.1,0.4c-0.7,0.5-0.9,1-0.9,1.4c0.1,0.7,1.4,1.1,2.7,1.5c1.2,0.4,2.5,0.7,2.6,1.3
			c0.1,0.3-0.1,0.6-0.5,0.9c-1.6,1.6-3.6,0.7-5.4,0c-1.5-0.6-2.8-1.2-3.7-0.3c-0.9,0.9-1,1.6-1.2,2.2c-0.1,0.7-0.3,1.4-1.4,2.6l0.2,0.2c1.2-1.2,1.4-2,1.5-2.7c0.1-0.6,0.2-1.2,1.1-2c0.8-0.8,2-0.2,3.4,0.4c1.9,0.8,4,1.7,5.7,0c0.4-0.4,0.6-0.8,0.5-1.2
			c-0.2-0.8-1.5-1.1-2.8-1.5C46,33,44.7,32.6,44.6,32c-0.1-0.3,0.2-0.7,0.8-1.1c1.7-1.3,3.2-0.9,4.9-0.4c2.1,0.6,4.4,1.3,7.4-1.2c0.5-0.4,0.6-0.8,0.5-1.2c-0.4-1.7-5.4-3-9.5-4l-1.9-0.5c-4.3-1.2-5.1,0.5-5.2,0.5z"/>
		<linearGradient id="aigrd3" gradientUnits="userSpaceOnUse" x1="33.2451" y1="45.2441" x2="38.2362" y2="40.3526">
			<stop  offset="0" style="stop-color:#686868"/>
			<stop  offset="1" style="stop-color:#6D6D6D"/>
		</linearGradient>
		<path style="&st33;" d="M39.4,41.4l-8.5,2.8C29.2,46.3,34,47.9,36,46l3.4-3.4c0.4-0.4,0-1.3,0-1.3z"/>
		<path style="&st65;" d="M39.4,41.5c-0.6-1-3.4-1.4-4.4-1.4c-1,0-4,0-4.5,4.4c-0.2,1.5,1.8,2.5,3.3,2c1.5-0.5,1.6-2.8,2.8-3.8c1.3-1,3.3-0.3,2.7-1.2z"/>
		<linearGradient id="aigrd4" gradientUnits="userSpaceOnUse" x1="30.6787" y1="44.3535" x2="39.695" y2="41.0813">
			<stop  offset="0" style="stop-color:#FCFCFC"/>
			<stop  offset="1" style="stop-color:#BBBBBB"/>
		</linearGradient>
		<path style="&st68;" d="M39.4,41.4C38.8,40.4,36,40,35,40c-1,0-4,0-4.5,4.4c-0.2,1.5,1.8,2.5,3.3,2c1.5-0.5,1.6-2.8,2.8-3.8c1.3-1,3.3-0.3,2.7-1.2z"/>
		<linearGradient id="aigrd5" gradientUnits="userSpaceOnUse" x1="32.8604" y1="42.248" x2="39.1309" y2="39.9723">
			<stop  offset="0" style="stop-color:#EBEBEB"/>
			<stop  offset="1" style="stop-color:#818181"/>
		</linearGradient>
		<path style="&st51;" d="M39.4,41.6c0.1,0.5-1.8,0.2-2.2,0.6c-0.3-0.6-1.7-1.3-2.8-1.5c-1-0.2-2.3-0.1-2.3-0.1c1.7-1.6,7.1-0.5,7.2,0.9z"/>
		<path style="&st18;" d="M37.3,42.8c1.1-0.6,1.3-0.2,2-0.8c-0.5,0.6-1.1,0.5-1.7,0.8l-0.3,0z"/>
		<path style="&st60;" d="M37.2,42.3l0.1,0.5c1.2-0.6,1.3-0.1,2.1-0.9c-0.9,0.6-1.2,0.3-2.1,0.7l-0.1-0.3z"/>
		<path style="&st60;" d="M34.5,40.8l0.2,0c0.8-0.7,3-0.4,3-0.4s-2.3-0.4-3.2,0.4z"/>
		<g>
			<radialGradient id="aigrd6" cx="35.9512" cy="41.749" r="1.2739" fx="35.9512" fy="41.749" gradientTransform="matrix(0.907 0.4211 -0.4211 0.907 20.8759 -13.3968)" gradientUnits="userSpaceOnUse">
				<stop  offset="0" style="stop-color:#EFEFEF"/>
				<stop  offset="1" style="stop-color:#6D6D6D"/>
			</radialGradient>
			<path style="&st19;" d="M36.2,39.8c-0.5-0.1-0.8,0.3-0.9,0.5c0.2,0.2,0.3,0.2,0.6,0.2c0.5,0,0.7-0.1,1.1-0.3c-0.2-0.2-0.4-0.4-0.8-0.5z"/>
			<radialGradient id="aigrd7" cx="35.3662" cy="41.7324" r="1.7415" fx="35.3662" fy="41.7324" gradientTransform="matrix(0.907 0.4211 -0.4211 0.907 20.8759 -13.3968)" gradientUnits="userSpaceOnUse">
				<stop  offset="0" style="stop-color:#9E9E9E"/>
				<stop  offset="1" style="stop-color:#535353"/>
			</radialGradient>
			<path style="&st63;" d="M36.4,40c-0.3-0.1-0.5,0.4-0.5,0.6c0.3,0,0.8-0.1,1-0.3c-0.1-0.1-0.3-0.2-0.5-0.2z"/>
		</g>
		<g style="&st64;">
			<path d="M31.7,45.3c0,0,0,0,0,0c0,0,0,0,0-0.1l0-0.1l0,0l-0.1,0.1c0,0,0,0,0,0.1c0,0,0,0,0,0l0,0z M31.8,45c0,0,0,0,0,0c0,0,0,0,0,0c0,0,0,0,0,0s0,0,0,0z"/>
			<path d="M31.9,45c0,0,0,0,0,0c0,0,0,0,0,0c0,0,0,0,0,0c0,0,0,0,0,0z M31.8,45.2l0.1-0.2l0,0l-0.1,0.2l0,0z"/>
			<path d="M31.9,45.1c0,0,0,0,0,0l0,0l0,0l0,0c0,0,0,0,0.1,0c0,0,0,0,0,0h0c0,0,0,0,0,0c0,0,0,0,0,0c0,0,0,0,0,0.1l0,0.1l0,0l0-0.1c0,0,0-0.1,0-0.1c0,0,0,0,0,0c0,0,0,0,0,0l0,0.1l0,0l0-0.1c0,0,0,0,0-0.1c0,0,0,0,0,0c0,0,0,0,0,0l0,0.1l0,0l0-0.1z"/>
			<path d="M32.2,45.2c0,0,0,0,0,0l0,0l0,0l0,0c0,0,0,0,0.1,0c0,0,0,0,0,0l0,0c0,0,0,0,0,0c0,0,0,0,0,0c0,0,0,0,0,0.1l0,0.1l0,0l0-0.1c0,0,0-0.1,0-0.1c0,0,0,0,0,0c0,0,0,0,0,0l0,0.1l0,0l0-0.1c0,0,0,0,0-0.1c0,0,0,0,0,0c0,0,0,0,0,0l0,0.1l0,0l0.1-0.1z"/>
			<path d="M32.5,45.4c0,0,0,0,0,0l0,0l0,0l0,0c0,0,0,0-0.1,0c0,0,0,0,0-0.1c0,0,0.1-0.1,0.1,0l0,0c0,0,0,0,0-0.1c0,0,0,0,0,0l0,0c0,0,0,0,0.1,0c0.1,0,0,0.1,0,0.1l0,0.1z M32.5,45.4c0,0-0.1,0-0.1,0c0,0,0,0,0,0c0,0,0,0,0.1,0c0,0,0,0,0,0l0,0z"/>
			<path d="M32.6,45.5c0,0,0,0-0.1,0c-0.1,0-0.1-0.1,0-0.1c0-0.1,0.1-0.1,0.1-0.1c0,0,0,0,0,0l0,0c0,0,0,0,0,0c0,0-0.1,0-0.1,0c0,0,0,0.1,0,0.1c0,0,0,0,0,0l0,0z"/>
		</g>
	</g>
	<g id="computercase" style="&st41;">
		<g style="&st13;">
			<g>
				<path style="&st4;" d="M27,43.1c-1.5,1.5-4.4,2.9-6.1,2.2c-1.7-0.8-13.1-5.8-13.1-5.8c-0.6-0.3-0.6-0.8-0.1-1.2l5.7-4.4c0.5-0.4,1.3-1,1.8-1.4L29,22.4c0.5-0.4,1.4-0.5,2-0.4l18.2,5.1c0.6,0.2,0.7,0.6,0.2,1l-2.8,2.3c-0.3,0.3-0.3,0.5,0.2,0.6l-0.3,1.2
					c0.4,0.1,0.5,0.4,0.2,0.7L41.9,37c-0.3,0.3-0.9,0.4-1.3,0.3l-2,0.5c-0.4-0.2-1-0.1-1.3,0.2l-0.4,0.3c-0.5,0.4-1.4,0.8-2,0.9L32,39.5c-0.6,0.1-1.5,0.5-1.9,1c0,0-1.6,1.1-3.1,2.6z"/>
			</g>
		</g>
		<path style="&st6;" d="M42.5,24.3c0,0,0,0,0,0c0,0-0.1,0-0.1,0c-0.5-0.1-12.4-3.4-13-3.6c-0.6-0.2-1.3-0.2-1.7-0.1c-0.3,0.1-10.2,5.8-10.8,6.1c-0.1,0-0.1,0.1-0.2,0.2c-0.7,0.6-0.7,1.5-0.7,1.5s0,0,0-0.1c0,0,0,0.1,0,0.1l0.2,2.6c0,0.5,0.1,0.7,0.5,0.9
			c0,0,12.8,5.1,14.3,5.5c0.1,0,0.1,0,0.2,0c0,0,0,0,0,0c0.7,0.1,0.9,0.1,1.2-0.2c0,0,0.1,0,0.1-0.1c0.3-0.2,10.1-7.7,10.4-7.9c0.3-0.3,0.3-0.4,0.4-0.7c0-0.3,0.2-2.3,0.2-2.6c0,0,0,0,0-0.1c0,0,0,0,0,0c0-0.4,0-1.1-1.1-1.4z M31.9,36.8c0,0,0,0,0,0l0,0l0,0
			c0,0,0,0,0,0.1c0,0,0-0.1,0-0.1s0,0,0,0z M42.1,25.8c0.4-0.3,0.6-0.5,0.6-0.5s-0.3,0.2-0.7,0.5c-0.6,0.5-1.6,1.1-2.6,1.8c1.7-1.2,3.1-2.2,3.5-2.5c-0.1,0.1-0.4,0.3-0.9,0.6z"/>
		<linearGradient id="aigrd8" gradientUnits="userSpaceOnUse" x1="17.8901" y1="27.8555" x2="43.8154" y2="27.8555" gradientTransform="matrix(0.997 7.730000e-002 -7.730000e-002 0.997 1.382 -3.616)">
			<stop  offset="0" style="stop-color:#EBEBEB"/>
			<stop  offset="1" style="stop-color:#EAEAEA"/>
		</linearGradient>
		<path style="&st47;" d="M29.4,20.7c-0.6-0.2-1.3-0.2-1.6-0.1c-0.3,0.1-10.2,5.8-10.8,6.1c-0.5,0.3-0.6,0.9,0,1.2c0.7,0.2,13.6,4.4,14.1,4.6c0.6,0.2,1.4,0.2,1.7-0.1c0.3-0.2,9.9-6.9,10.2-7.2c0.3-0.3-0.3-0.7-0.7-0.9c-0.5-0.1-12.4-3.4-13-3.6z"/>
		<linearGradient id="aigrd9" gradientUnits="userSpaceOnUse" x1="18.5654" y1="33.8301" x2="32.2806" y2="34.8179" gradientTransform="matrix(0.997 7.730000e-002 -7.730000e-002 0.997 1.382 -3.616)">
			<stop  offset="0" style="stop-color:#F8F8F8"/>
			<stop  offset="1" style="stop-color:#C9C9C9"/>
		</linearGradient>
		<path style="&st11;" d="M16.1,28.4c0-0.5,0.3-0.7,0.7-0.6c0.3,0.1,14.2,4.7,14.7,5c0.5,0.3,0.8,0.5,0.8,0.9c0,0.4-0.2,2.7-0.2,3.1c0,0.3-0.3,0.8-0.9,0.6c-1.5-0.4-14.3-5.5-14.3-5.5c-0.4-0.2-0.5-0.4-0.5-0.9l-0.2-2.6z"/>
		<linearGradient id="aigrd10" gradientUnits="userSpaceOnUse" x1="34.9697" y1="36.2607" x2="43.4289" y2="26.302" gradientTransform="matrix(0.997 7.730000e-002 -7.730000e-002 0.997 1.382 -3.616)">
			<stop  offset="0" style="stop-color:#9F9F9F"/>
			<stop  offset="1" style="stop-color:#828282"/>
		</linearGradient>
		<path style="&st44;" d="M32.6,37.1c-0.3,0.2-0.7,0-0.7-0.5c0-0.5,0.2-2.6,0.2-3.1c0-0.4,0.2-0.8,0.5-1c0.3-0.2,10-7,10.3-7.3c0.4-0.3,0.6,0.3,0.5,0.6c0,0.3-0.2,2.3-0.2,2.6c0,0.3-0.1,0.5-0.4,0.7c-0.3,0.3-10.1,7.7-10.4,7.9z"/>
		<g style="&st64;">
			<path d="M31.8,32.4c-0.9-0.1-15-4.8-15.1-4.8c-0.1,0,0-0.5,0.3-0.8c-0.9,0.6-0.9,1.6-0.9,1.6s0.1-0.5,0.5-0.5c1.7,0.6,14,4.8,14.4,5c0.5,0.2,0.7,0.8,0.7,1.3l0.2,2.8l0.3-2.8c0-0.4,0.2-1.3,0.8-1.7c0.3-0.2,6.6-4.7,8.9-6.4c-2.4,1.7-9.1,6.4-10.1,6.4z"/>
			<path d="M41.9,26c0.5-0.4,0.9-0.6,0.9-0.6s-0.3,0.2-0.9,0.6z"/>
		</g>
		<path style="&st10;" d="M32.5,37.2c-0.3,0.3-0.5,0.3-1.2,0.2c0.4-0.1,0.7-0.5,0.7-0.5s0.1,0.3,0.5,0.3z"/>
		<path style="&st40;" d="M42.5,24.3c0.6,0.2,0.8,0.6,0.5,0.9c0.3-0.2,0.5,0.5,0.5,0.5c0-0.4,0-1.1-1.1-1.4z"/>
		<linearGradient id="aigrd11" gradientUnits="userSpaceOnUse" x1="25.5239" y1="33.6133" x2="30.3462" y2="33.6133">
			<stop  offset="0" style="stop-color:#2A2A2A"/>
			<stop  offset="0.4743" style="stop-color:#585858"/>
			<stop  offset="1" style="stop-color:#878787"/>
		</linearGradient>
		<path style="&st7;" d="M25.5,32.5v0.6l4.8,1.7v-0.5l-4.8-1.8z"/>
		<path style="&st37;" d="M25.5,33.1l-0.3,0.2v-1.2l5.3,1.9l-0.2,0.3l-4.8-1.8v0.6z"/>
		<path style="&st15;" d="M30.5,35.1V34l-0.2,0.3v0.5l-4.8-1.7l-0.3,0.2l5.3,1.9z"/>
		<linearGradient id="aigrd12" gradientUnits="userSpaceOnUse" x1="40.6338" y1="26.8687" x2="37.1984" y2="33.2977">
			<stop  offset="0" style="stop-color:#FFFFFF"/>
			<stop  offset="1" style="stop-color:#FFFFFF"/>
		</linearGradient>
		<path style="&st42;" d="M43.5,27.5l-10.7,7.8v0.4l10.7-7.9l0-0.3z"/>
		<linearGradient id="aigrd13" gradientUnits="userSpaceOnUse" x1="40.6338" y1="25.9302" x2="37.1988" y2="32.3586">
			<stop  offset="0" style="stop-color:#FFFFFF"/>
			<stop  offset="1" style="stop-color:#FFFFFF"/>
		</linearGradient>
		<path style="&st3;" d="M43.5,26.6l-10.7,7.8v0.4l10.7-7.9l0-0.3z"/>
		<linearGradient id="aigrd14" gradientUnits="userSpaceOnUse" x1="40.6338" y1="26.5649" x2="37.1984" y2="32.994">
			<stop  offset="0" style="stop-color:#000000"/>
			<stop  offset="1" style="stop-color:#6A6A6A"/>
		</linearGradient>
		<path style="&st57;" d="M43.5,27.2L32.8,35v0.4l10.7-7.9l0-0.3z"/>
		<linearGradient id="aigrd15" gradientUnits="userSpaceOnUse" x1="40.6338" y1="25.6255" x2="37.1984" y2="32.0545">
			<stop  offset="0" style="stop-color:#000000"/>
			<stop  offset="1" style="stop-color:#6A6A6A"/>
		</linearGradient>
		<path style="&st35;" d="M43.5,26.3l-10.7,7.8v0.4l10.7-7.9l0-0.3z"/>
	</g>
	<g id="keyboard" style="&st41;">
		<linearGradient id="aigrd16" gradientUnits="userSpaceOnUse" x1="14.8125" y1="40.5313" x2="22.9578" y2="32.5484">
			<stop  offset="0" style="stop-color:#DBDBDB"/>
			<stop  offset="1" style="stop-color:#ACACAC"/>
		</linearGradient>
		<path style="&st46;" d="M26.7,36.1l-13-4.9c-0.4,0.9-1,1.7-1.7,2.3l0,0c-0.3-0.1-0.8,0-1,0.1l-2.2,1.7c-0.2,0.2-0.2,0.4,0,0.5l0,0c-0.8,0.5-1.5,0.7-1.5,0.7c-0.6,0.6,0.3,1.5,0.3,1.5l13,5.7c1.2,0.5,5.7-2.7,6.4-4c0.7-1.3-0.3-3.6-0.3-3.6z"/>
		<linearGradient id="aigrd17" gradientUnits="userSpaceOnUse" x1="14.4629" y1="41.5127" x2="21.8178" y2="32.854">
			<stop  offset="0" style="stop-color:#9F9F9F"/>
			<stop  offset="1" style="stop-color:#828282"/>
		</linearGradient>
		<path style="&st66;" d="M7.7,38.1l12.9,5.7c1.2,0.5,5.7-2.7,6.4-4c0.7-1.3-0.3-3.6-0.3-3.6l-12.9-4.9c-1.7,3.6-6.4,5.4-6.4,5.4c-0.6,0.6,0.3,1.5,0.3,1.5z"/>
		<linearGradient id="aigrd18" gradientUnits="userSpaceOnUse" x1="7.4399" y1="36.7285" x2="26.7578" y2="36.7285">
			<stop  offset="0" style="stop-color:#EBEBEB"/>
			<stop  offset="1" style="stop-color:#EAEAEA"/>
		</linearGradient>
		<path style="&st50;" d="M26.8,36.2c-1,2.8-5.8,6.1-5.8,6.1L7.4,36.6c0,0,4.3-1.6,6.4-5.4l12.9,4.9z"/>
		<path style="&st64;" d="M26.8,36.2C26,38.4,21.4,42,20.9,42c-0.5,0-13.4-5.4-13.4-5.4l13,5.6c0,0,0.2,0.1,0.3,0.4l0.2,1.2l0.1-1.1c0,0,0-0.5,0.2-0.6c0,0,4.9-3.6,5.5-6z"/>
		<g>
			<linearGradient id="aigrd19" gradientUnits="userSpaceOnUse" x1="12.7354" y1="38.1826" x2="16.7985" y2="34.2005">
				<stop  offset="0" style="stop-color:#686868"/>
				<stop  offset="1" style="stop-color:#6D6D6D"/>
			</linearGradient>
			<path style="&st17;" d="M8.8,36c-0.3,0.2-0.2,0.5,0.1,0.6l7.5,3.1c0.3,0.1,0.8,0,1.1-0.2l2.1-2c0.3-0.2,0.2-0.5-0.1-0.7L12.2,34c-0.3-0.1-0.8-0.1-1.1,0.2L8.8,36z"/>
		</g>
		<g>
			<linearGradient id="aigrd20" gradientUnits="userSpaceOnUse" x1="12.5796" y1="37.3652" x2="16.3353" y2="33.6844">
				<stop  offset="0" style="stop-color:#DBDBDB"/>
				<stop  offset="1" style="stop-color:#ACACAC"/>
			</linearGradient>
			<path style="&st48;" d="M8.9,35.4c-0.3,0.2-0.2,0.5,0.1,0.6l7,2.9c0.3,0.1,0.7,0,1-0.2l2-1.9c0.2-0.2,0.2-0.5-0.1-0.6l-6.7-2.6c-0.3-0.1-0.8,0-1,0.2l-2.2,1.7z"/>
		</g>
		<g>
			<linearGradient id="aigrd21" gradientUnits="userSpaceOnUse" x1="19.7739" y1="40.3604" x2="22.696" y2="37.4965">
				<stop  offset="0" style="stop-color:#686868"/>
				<stop  offset="1" style="stop-color:#6D6D6D"/>
			</linearGradient>
			<path style="&st12;" d="M21.3,37.3c-0.3-0.1-0.8,0-1.1,0.2L18,39.7c-0.3,0.3-0.2,0.6,0.1,0.7l2.1,0.9c0.3,0.1,0.8,0.1,1.1-0.2l2.2-2.2c0.3-0.3,0.2-0.6-0.2-0.7l-2.1-0.8z"/>
		</g>
		<g>
			<linearGradient id="aigrd22" gradientUnits="userSpaceOnUse" x1="19.7739" y1="39.6797" x2="22.355" y2="37.1501">
				<stop  offset="0" style="stop-color:#DBDBDB"/>
				<stop  offset="1" style="stop-color:#ACACAC"/>
			</linearGradient>
			<path style="&st61;" d="M21.1,37c-0.3-0.1-0.7,0-1,0.2l-1.9,1.9c-0.2,0.2-0.2,0.5,0.1,0.7l1.9,0.8c0.3,0.1,0.7,0,1-0.2l2-2c0.2-0.2,0.2-0.5-0.1-0.6L21.1,37z"/>
		</g>
		<g>
			<linearGradient id="aigrd23" gradientUnits="userSpaceOnUse" x1="16.0791" y1="34.6094" x2="18.4135" y2="32.3215">
				<stop  offset="0" style="stop-color:#686868"/>
				<stop  offset="1" style="stop-color:#6D6D6D"/>
			</linearGradient>
			<path style="&st39;" d="M13.9,31.9c-0.3-0.1-0.7,0-0.9,0.3l0,0.1c-0.2,0.3-0.1,0.6,0.3,0.8l6.7,2.7c0.3,0.1,0.7,0,0.9-0.3l0.1-0.2c0.2-0.3,0-0.6-0.3-0.8l-6.8-2.6z"/>
		</g>
		<g>
			<linearGradient id="aigrd24" gradientUnits="userSpaceOnUse" x1="15.8789" y1="34.7813" x2="16.9993" y2="32.9798">
				<stop  offset="0" style="stop-color:#DBDBDB"/>
				<stop  offset="1" style="stop-color:#ACACAC"/>
			</linearGradient>
			<path style="&st1;" d="M13.8,31.6c-0.3-0.1-0.7,0-0.8,0.3l0,0.1c-0.2,0.3,0,0.6,0.3,0.7l6.4,2.5c0.3,0.1,0.7,0,0.8-0.3l0.1-0.2c0.2-0.3,0-0.6-0.3-0.7l-6.4-2.5z"/>
		</g>
		<path style="&st52;" d="M25.8,36.5l-1,1.4l-4.1-1.6l1-1.3l4.2,1.5z"/>
		<path style="&st8;" d="M20.7,36.2l1-1.3l4.2,1.5l-0.3,0l-3.8-1.3l-1,1z"/>
		<path style="&st64;" d="M19.7,35.3l-6.5-2.6c-0.5-0.3-0.1-0.8-0.1-0.8s-0.3,0.5,0.2,0.7l6.3,2.5c0.5,0.2,1-0.3,1-0.3s-0.3,0.7-0.9,0.5z"/>
		<path style="&st64;" d="M16.1,38.8L9,36c-0.6-0.3-0.1-0.6-0.1-0.6s-0.3,0.3,0.2,0.5l6.9,2.8c0.5,0.2,1.1-0.2,1.1-0.2s-0.4,0.5-1,0.4z"/>
		<path style="&st64;" d="M20.3,40.6l-2-0.9c-0.6-0.3-0.1-0.6-0.1-0.6s-0.3,0.3,0.2,0.5l1.8,0.8c0.5,0.2,1.1-0.2,1.1-0.2s-0.4,0.5-1,0.4z"/>
	</g>
	<g id="monitor" style="&st55;">
		<g style="&st14;">
			<path style="&st60;" d="M28.9,22.8c-1.6-0.4-4.1-0.2-5.5,0.6l-3.9,2.1c-1.4,0.8-1.3,1.8,0.2,2.3l12.8,4.2l0.4,0.4l1.3,3.7l8.3-6.2l-1.4-3.4c0,0-0.8-0.7-1.6-0.9l-10.5-3z"/>
		</g>
		<radialGradient id="aigrd25" cx="28.0586" cy="21.4126" r="7.7232" fx="28.0586" fy="21.4126" gradientUnits="userSpaceOnUse">
			<stop  offset="0" style="stop-color:#B6B6B6"/>
			<stop  offset="1" style="stop-color:#878787"/>
		</radialGradient>
		<path style="&st43;" d="M29.8,21.5c-3.6,0-6.5,1.3-6.5,2.8v0.8c0,1.6,2.9,2.8,6.5,2.8c3.6,0,6.5-1.3,6.5-2.8v-0.8c0-1.6-2.9-2.8-6.5-2.8z"/>
		<path style="&st56;" d="M29.8,21.5c-3.6,0-6.5,1.3-6.5,2.8v0.8c0,1.6,2.9,2.8,6.5,2.8c3.6,0,6.5-1.3,6.5-2.8v-0.8c0-1.6-2.9-2.8-6.5-2.8z"/>
		<path style="&st67;" d="M23.4,23.9c0.2,1.2,1.6,3,7.5,3.1c-4.5,0.4-8-0.9-7.5-3.1z"/>
		<g>
			<path style="&st4;" d="M37.8,8.9c0.1-0.3,0-0.6-0.2-0.6c-0.2,0-0.3,0-0.3,0s0,0,0,0s-0.3,0-0.6-0.1L20.5,5.3c-0.3-0.1-0.8-0.1-1-0.1c-0.2,0-0.5,0-0.7,0c-0.2,0-0.3,0.3-0.4,0.6l-2.2,15.2c0,0.3,0.2,0.7,0.5,0.8l15.5,4.5c0.3,0.1,0.6,0.2,0.6,0.2c0,0,0,0,0,0
				c0,0,0.1,0,0.3,0.1c0.2,0,0.4,0.1,0.4,0c0.1,0,0.2,0,0.3-0.1c0.1,0,0.3-0.1,0.3-0.1c0,0,0.2,0,0.3-0.1c0.2,0,0.4-0.4,0.4-0.7l2.8-16.9z"/>
			<path style="&st5;" d="M37.8,8.9c0.1-0.3,0-0.6-0.2-0.6c-0.2,0-0.3,0-0.3,0s0,0,0,0s-0.3,0-0.6-0.1L20.5,5.3c-0.3-0.1-0.8-0.1-1-0.1c-0.2,0-0.5,0-0.7,0c-0.2,0-0.3,0.3-0.4,0.6l-2.2,15.2c0,0.3,0.2,0.7,0.5,0.8l15.5,4.5c0.3,0.1,0.6,0.2,0.6,0.2c0,0,0,0,0,0
				c0,0,0.1,0,0.3,0.1c0.2,0,0.4,0.1,0.4,0c0.1,0,0.2,0,0.3-0.1c0.1,0,0.3-0.1,0.3-0.1c0,0,0.2,0,0.3-0.1c0.2,0,0.4-0.4,0.4-0.7l2.8-16.9z"/>
		</g>
		<g>
			<linearGradient id="aigrd27" gradientUnits="userSpaceOnUse" x1="18.5249" y1="15.4277" x2="34.1788" y2="16.5552">
				<stop  offset="0" style="stop-color:#F8F8F8"/>
				<stop  offset="1" style="stop-color:#C9C9C9"/>
			</linearGradient>
			<path style="&st69;" d="M19.3,5.4c-0.4-0.1-0.8,0.2-0.9,0.6l-2.2,14.8c-0.1,0.4,0.2,0.9,0.6,1l15.7,4.6c0.4,0.1,0.8-0.1,0.9-0.6l3-16.9c0.1-0.4-0.2-0.8-0.6-0.9L19.3,5.4z"/>
		</g>
		<g>
			<linearGradient id="aigrd28" gradientUnits="userSpaceOnUse" x1="31.8438" y1="21.9409" x2="40.3285" y2="11.9521">
				<stop  offset="0" style="stop-color:#9F9F9F"/>
				<stop  offset="1" style="stop-color:#828282"/>
			</linearGradient>
			<path style="&st53;" d="M35,25.6c-0.1,0.4-0.5,0.9-0.9,1c-0.4,0.1-0.7-0.2-0.6-0.6l3-16.9c0.1-0.4,0.4-0.8,0.7-0.8s0.6,0.3,0.5,0.8L35,25.6z"/>
		</g>
		<g>
			<linearGradient id="aigrd29" gradientUnits="userSpaceOnUse" x1="19.2051" y1="6.79" x2="37.2676" y2="6.79">
				<stop  offset="0" style="stop-color:#EBEBEB"/>
				<stop  offset="1" style="stop-color:#EAEAEA"/>
			</linearGradient>
			<path style="&st32;" d="M20.6,5.4c-0.4-0.1-1.1-0.1-1.4-0.1c-0.4,0-0.3,0.1,0.1,0.2l16.6,2.8c0.4,0.1,1.1,0.1,1.4,0.1s0.3-0.1-0.2-0.1L20.6,5.4z"/>
		</g>
		<path style="&st10;" d="M34.2,26.5c-0.4,0.2-0.8,0.2-1.3,0c0.5-0.1,0.7-0.5,0.7-0.5s0.1,0.6,0.6,0.5z"/>
		<path style="&st49;" d="M35.9,8.3c0.4,0.1,0.7,0.1,0.5,1.1l-2.5,14.1l-0.3,2.3l0.6-2.3l2.5-14.4c0.1-0.5,0.4-0.7,0.6-0.8l-18-3c-0.1,0-0.1-0.1-0.1-0.1c-0.4,0-0.6,0.4-0.7,0.8c0.2-0.3,0.3-0.6,0.7-0.5l16.8,2.8z"/>
		<path style="&st40;" d="M37.8,9.1c0-0.6-0.4-0.8-0.4-0.8s0.1-0.1,0-0.1c0.3,0,0.5,0.4,0.4,0.9z"/>
		<g>
			<linearGradient id="aigrd30" gradientUnits="userSpaceOnUse" x1="25.5942" y1="8.793" x2="25.5942" y2="20.3958" gradientTransform="matrix(1 -2.300000e-003 2.300000e-003 1 -0.2542 0.289)">
				<stop  offset="0" style="stop-color:#000000"/>
				<stop  offset="1" style="stop-color:#3A4A70"/>
			</linearGradient>
			<path style="&st9;" d="M30.5,22.9l-12.6-3.6L19.6,7l13.2,2.3l-2.3,13.6z"/>
			<linearGradient id="aigrd31" gradientUnits="userSpaceOnUse" x1="25.7612" y1="8.8359" x2="25.7612" y2="20.437" gradientTransform="matrix(1 -2.300000e-003 2.300000e-003 1 -0.2542 0.289)">
				<stop  offset="0" style="stop-color:#26263B"/>
				<stop  offset="1" style="stop-color:#30328E"/>
			</linearGradient>
			<path style="&st16;" d="M30.7,22.9l-12.6-3.6L19.8,7L33,9.3l-2.3,13.6z"/>
			<g>
				<linearGradient id="aigrd32" gradientUnits="userSpaceOnUse" x1="26.0903" y1="8.3057" x2="26.0903" y2="12.9446" gradientTransform="matrix(1 -2.300000e-003 2.300000e-003 1 -0.2542 0.289)">
					<stop  offset="0" style="stop-color:#FFFFFF"/>
					<stop  offset="1" style="stop-color:#867FB0"/>
				</linearGradient>
				<path style="&st59;" d="M20.5,7.7c-0.1,0-0.1,0.1-0.2,0.2l-0.8,5.9c0,0.1,0,0.2,0.1,0.3c3.4,0,9.1-1.6,12.3-3c0.1-0.1,0.2-0.2,0.2-0.4l0.1-0.5c0-0.2,0-0.3-0.1-0.3L20.5,7.7z"/>
			</g>
			<g>
			</g>
		</g>
		<g style="&st64;">
			<g>
				<g>
					<g>
						<linearGradient id="aigrd33" gradientUnits="userSpaceOnUse" x1="32.8516" y1="19.8354" x2="33.4444" y2="19.1375">
							<stop  offset="0" style="stop-color:#9F9F9F"/>
							<stop  offset="1" style="stop-color:#828282"/>
						</linearGradient>
						<path style="&st20;" d="M34,19.6l-1.6-0.3l-0.1,0.4l1.6-0.1z"/>
						<path d="M33.9,19.9l0.1-0.4l-1.6,0.1l1.5,0.3z"/>
					</g>
					<g>
						<linearGradient id="aigrd34" gradientUnits="userSpaceOnUse" x1="33.1543" y1="18.0425" x2="33.7472" y2="17.3445">
							<stop  offset="0" style="stop-color:#9F9F9F"/>
							<stop  offset="1" style="stop-color:#828282"/>
						</linearGradient>
						<path style="&st21;" d="M34.3,17.8l-1.6-0.3l-0.1,0.4l1.6-0.1z"/>
						<path d="M34.2,18.2l0.1-0.4l-1.6,0.1l1.5,0.3z"/>
					</g>
					<g>
						<linearGradient id="aigrd35" gradientUnits="userSpaceOnUse" x1="33.457" y1="16.248" x2="34.0492" y2="15.5509">
							<stop  offset="0" style="stop-color:#9F9F9F"/>
							<stop  offset="1" style="stop-color:#828282"/>
						</linearGradient>
						<path style="&st22;" d="M34.6,16l-1.6-0.3L33,16l1.6-0.1z"/>
						<path d="M34.5,16.4l0.1-0.4L33,16l1.5,0.3z"/>
					</g>
					<g>
						<linearGradient id="aigrd36" gradientUnits="userSpaceOnUse" x1="33.7598" y1="14.4556" x2="34.352" y2="13.7584">
							<stop  offset="0" style="stop-color:#9F9F9F"/>
							<stop  offset="1" style="stop-color:#828282"/>
						</linearGradient>
						<path style="&st23;" d="M34.9,14.2l-1.6-0.3l-0.1,0.4l1.6-0.1z"/>
						<path d="M34.8,14.6l0.1-0.4l-1.6,0.1l1.5,0.3z"/>
					</g>
					<g>
						<linearGradient id="aigrd37" gradientUnits="userSpaceOnUse" x1="34.0615" y1="12.6606" x2="34.653" y2="11.9643">
							<stop  offset="0" style="stop-color:#9F9F9F"/>
							<stop  offset="1" style="stop-color:#828282"/>
						</linearGradient>
						<path style="&st24;" d="M35.2,12.4L33.7,12l-0.1,0.4l1.6-0.1z"/>
						<path d="M35.1,12.8l0.1-0.4l-1.6,0.1l1.5,0.3z"/>
					</g>
					<g>
						<linearGradient id="aigrd38" gradientUnits="userSpaceOnUse" x1="34.3652" y1="10.8682" x2="34.9567" y2="10.1718">
							<stop  offset="0" style="stop-color:#9F9F9F"/>
							<stop  offset="1" style="stop-color:#828282"/>
						</linearGradient>
						<path style="&st25;" d="M35.5,10.6L34,10.2l-0.1,0.4l1.6-0.1z"/>
						<path d="M35.4,11l0.1-0.4l-1.6,0.1l1.5,0.3z"/>
					</g>
				</g>
			</g>
			<g>
				<g>
					<g>
						<linearGradient id="aigrd39" gradientUnits="userSpaceOnUse" x1="34.6465" y1="10.8477" x2="35.0721" y2="10.3466">
							<stop  offset="0" style="stop-color:#9F9F9F"/>
							<stop  offset="1" style="stop-color:#828282"/>
						</linearGradient>
						<path style="&st26;" d="M34.2,10.6l1.1,0.2l0.1-0.3l-1.2,0z"/>
						<path d="M34.3,10.3l-0.1,0.3l1.2,0l-1.1-0.2z"/>
					</g>
					<g>
						<linearGradient id="aigrd40" gradientUnits="userSpaceOnUse" x1="34.3516" y1="12.6411" x2="34.7771" y2="12.1401">
							<stop  offset="0" style="stop-color:#9F9F9F"/>
							<stop  offset="1" style="stop-color:#828282"/>
						</linearGradient>
						<path style="&st27;" d="M33.9,12.4l1.1,0.2l0.1-0.3l-1.2,0z"/>
						<path d="M34,12.1l-0.1,0.3l1.2,0L34,12.1z"/>
					</g>
					<g>
						<linearGradient id="aigrd41" gradientUnits="userSpaceOnUse" x1="34.0576" y1="14.4351" x2="34.4832" y2="13.9341">
							<stop  offset="0" style="stop-color:#9F9F9F"/>
							<stop  offset="1" style="stop-color:#828282"/>
						</linearGradient>
						<path style="&st28;" d="M33.6,14.2l1.1,0.2l0.1-0.3l-1.2,0z"/>
						<path d="M33.7,13.9l-0.1,0.3l1.2,0l-1.1-0.2z"/>
					</g>
					<g>
						<linearGradient id="aigrd42" gradientUnits="userSpaceOnUse" x1="33.7656" y1="16.2305" x2="34.1912" y2="15.7295">
							<stop  offset="0" style="stop-color:#9F9F9F"/>
							<stop  offset="1" style="stop-color:#828282"/>
						</linearGradient>
						<path style="&st29;" d="M33.3,16l1.1,0.2l0.1-0.3l-1.2,0z"/>
						<path d="M33.4,15.7L33.3,16l1.2,0l-1.1-0.2z"/>
					</g>
					<g>
						<linearGradient id="aigrd43" gradientUnits="userSpaceOnUse" x1="33.4707" y1="18.0239" x2="33.8962" y2="17.5229">
							<stop  offset="0" style="stop-color:#9F9F9F"/>
							<stop  offset="1" style="stop-color:#828282"/>
						</linearGradient>
						<path style="&st30;" d="M33,17.8l1.1,0.2l0.1-0.3l-1.2,0z"/>
						<path d="M33.1,17.5L33,17.8l1.2,0l-1.1-0.2z"/>
					</g>
					<g>
						<linearGradient id="aigrd44" gradientUnits="userSpaceOnUse" x1="33.1768" y1="19.8174" x2="33.6023" y2="19.3164">
							<stop  offset="0" style="stop-color:#9F9F9F"/>
							<stop  offset="1" style="stop-color:#828282"/>
						</linearGradient>
						<path style="&st31;" d="M32.7,19.6l1.1,0.2l0.1-0.3l-1.2,0z"/>
						<path d="M32.8,19.3l-0.1,0.3l1.2,0l-1.1-0.2z"/>
					</g>
				</g>
			</g>
		</g>
		<path style="&st58;" d="M64,52H0V0h64v52z"/>
	</g>
	<g id="Layer_x0020_7" style="&st62;">
	</g>
</svg>
