<?xml version="1.0" encoding="UTF-8" standalone="no"?>
<!DOCTYPE svg PUBLIC "-//W3C//DTD SVG 20010904//EN"
"http://www.w3.org/TR/2001/REC-SVG-20010904/DTD/svg10.dtd">
<!-- Created with Sodipodi ("http://www.sodipodi.com/") -->
<svg
   i:viewOrigin="178 524"
   i:rulerOrigin="-178 -268"
   i:pageBounds="178 524 434 268"
   width="48pt"
   height="48pt"
   viewBox="0 0 256 256"
   style="overflow:visible;enable-background:new 0 0 256 256"
   xml:space="preserve"
   xmlns="http://www.w3.org/2000/svg"
   xmlns:ns="&amp;ns_vars;"
   xmlns:i="&amp;ns_ai;"
   xmlns:xml="http://www.w3.org/XML/1998/namespace"
   xmlns:sodipodi="http://sodipodi.sourceforge.net/DTD/sodipodi-0.dtd"
   xmlns:xlink="http://www.w3.org/1999/xlink"
   id="svg153"
   sodipodi:version="0.32pre"
   sodipodi:docname="/home/cschalle/gnome-themes-extras/Nuvola/icons/scalable/mimetypes/gnome-mime-video.svg"
   sodipodi:docbase="/home/cschalle/gnome-themes-extras/Nuvola/icons/scalable/mimetypes">
  <defs
     id="defs218" />
  <sodipodi:namedview
     id="base" />
  <metadata
     id="metadata154">
    <ns:variableSets>
      <ns:variableSet
         varSetName="binding1"
         locked="none">
        <ns:variables />
        <ns:sampleDataSets />
      </ns:variableSet>
    </ns:variableSets>
  </metadata>
  <g
     id="Layer_3"
     i:layer="yes"
     i:dimmedPercent="50"
     i:rgbTrio="#4F00FFFF4F00"
     style="stroke:#000000;">
    <path
       i:knockout="Off"
       style="opacity:0.2;stroke:none;"
       d="M49,19c-9.374,0-17,7.626-17,17v200c0,9.374,7.626,17,17,17h176c9.374,0,17-7.626,17-17    V36c0-9.374-7.626-17-17-17H49z"
       id="path156" />
    <linearGradient
       id="XMLID_1_"
       gradientUnits="userSpaceOnUse"
       x1="23"
       y1="130"
       x2="233"
       y2="130">
      <stop
         offset="0"
         style="stop-color:#A7ABAC"
         id="stop158" />
      <stop
         offset="1"
         style="stop-color:#85898A"
         id="stop159" />
    </linearGradient>
    <path
       i:knockout="Off"
       style="fill:url(#XMLID_1_);stroke:none;"
       d="M40,13c-9.374,0-17,7.626-17,17v200c0,9.374,7.626,17,17,17h176c9.374,0,17-7.626,17-17    V30c0-9.374-7.626-17-17-17H40z"
       id="path163" />
    <path
       i:knockout="Off"
       style="fill:#99CCFF;stroke:none;"
       d="M28,230c0,6.627,5.373,12,12,12h176c6.627,0,12-5.373,12-12V30c0-6.627-5.373-12-12-12H40    c-6.627,0-12,5.373-12,12V230z"
       id="path164" />
    <linearGradient
       id="XMLID_2_"
       gradientUnits="userSpaceOnUse"
       x1="84.5029"
       y1="86.5029"
       x2="321.5015"
       y2="323.5015">
      <stop
         offset="0"
         style="stop-color:#FFFFFF"
         id="stop166" />
      <stop
         offset="1"
         style="stop-color:#99CCFF"
         id="stop167" />
    </linearGradient>
    <path
       i:knockout="Off"
       style="fill:url(#XMLID_2_);stroke:none;"
       d="M40,23c-3.859,0-7,3.14-7,7v200c0,3.859,3.141,7,7,7h176c3.859,0,7-3.141,7-7V30    c0-3.86-3.141-7-7-7H40z"
       id="path171" />
    <g
       style="opacity:0.4;"
       id="g172">
      <g
         i:knockout="Off"
         id="g173">
        <g
           id="g174">
          <path
             i:knockout="Off"
             style="fill:#666666;stroke:none;"
             d="M109.986,45.976L51.651,194.753l68.961,38.377l58.335-148.778L109.986,45.976z        M111.83,55.555l5.583,3.109l-2.058,5.248l-5.583-3.108L111.83,55.555z M64.584,193.396l-5.583-3.107l2.058-5.247l5.583,3.107       L64.584,193.396z M68.49,183.437l-5.582-3.106l2.057-5.248l5.583,3.107L68.49,183.437z M72.396,173.476l-5.583-3.106       l2.059-5.248l5.583,3.107L72.396,173.476z M76.302,163.516l-5.583-3.107l2.057-5.246l5.583,3.106L76.302,163.516z        M80.207,153.555l-5.583-3.106l2.058-5.247l5.582,3.106L80.207,153.555z M84.112,143.594l-5.583-3.106l2.058-5.246l5.582,3.105       L84.112,143.594z M88.018,133.634l-5.583-3.106l2.057-5.248l5.583,3.108L88.018,133.634z M91.923,123.673l-5.583-3.105       l2.058-5.248l5.583,3.106L91.923,123.673z M95.829,113.712l-5.583-3.106l2.058-5.248l5.583,3.106L95.829,113.712z        M99.734,103.752l-5.583-3.107l2.058-5.247l5.583,3.106L99.734,103.752z M103.639,93.791l-5.583-3.106l2.058-5.247l5.582,3.108       L103.639,93.791z M107.544,83.831l-5.583-3.107l2.057-5.245l5.584,3.103L107.544,83.831z M105.867,70.765l2.058-5.248       l5.583,3.107l-2.058,5.246L105.867,70.765z M118.922,223.634l-5.582-3.105l2.057-5.248l5.581,3.106L118.922,223.634z        M122.827,213.672l-5.582-3.105l2.056-5.247l5.583,3.105L122.827,213.672z M126.732,203.713l-5.583-3.107l2.058-5.246       l5.581,3.105L126.732,203.713z M130.64,193.752l-5.584-3.107l2.056-5.245l5.583,3.106L130.64,193.752z M134.544,183.792       l-5.584-3.107l2.058-5.246l5.582,3.105L134.544,183.792z M138.449,173.833l-5.583-3.108l2.058-5.246l5.583,3.105       L138.449,173.833z M142.354,163.871l-5.583-3.107l2.058-5.246l5.581,3.105L142.354,163.871z M146.26,153.91l-5.583-3.106       l2.058-5.247l5.582,3.106L146.26,153.91z M150.164,143.949l-5.582-3.107l2.059-5.246l5.581,3.105L150.164,143.949z        M154.071,133.988l-5.583-3.106l2.058-5.247l5.581,3.106L154.071,133.988z M157.975,124.029l-5.581-3.109l2.059-5.245       l5.58,3.106L157.975,124.029z M161.881,114.068l-5.581-3.106l2.057-5.246l5.583,3.105L161.881,114.068z M165.787,104.108       l-5.583-3.106l2.058-5.248l5.581,3.107L165.787,104.108z M164.109,91.041l2.059-5.248l5.581,3.107l-2.057,5.248L164.109,91.041       z"
             id="path175" />
        </g>
      </g>
      <g
         id="g176">
        <path
           i:knockout="Off"
           style="fill:#666666;stroke:none;"
           d="M123.332,178.24l-14.039,35.805l-38.091-21.197l14.039-35.805L123.332,178.24z"
           id="path177" />
        <path
           i:knockout="Off"
           style="fill:#666666;stroke:none;"
           d="M141.365,132.249l-14.039,35.805l-38.093-21.197l14.04-35.806L141.365,132.249z"
           id="path178" />
        <path
           i:knockout="Off"
           style="fill:#666666;stroke:none;"
           d="M159.397,86.256l-14.038,35.808l-38.093-21.199l14.039-35.805L159.397,86.256z"
           id="path179" />
      </g>
    </g>
    <path
       i:knockout="Off"
       style="opacity:0.4;fill:#FFFFFF;stroke:none;"
       d="M163,108c18.593-17.431,40.938-26.006,65-30.265V30c0-6.627-5.373-12-12-12H40    c-6.627,0-12,5.373-12,12v143.268C77.582,177.009,124.478,142.51,163,108z"
       id="path180" />
    <g
       i:knockout="Off"
       id="g181">
      <g
         id="g182">
        <path
           i:knockout="Off"
           style="stroke:none;"
           d="M106.369,31.933L48.034,180.709l68.961,38.377L175.33,70.308L106.369,31.933z       M108.213,41.512l5.583,3.109l-2.058,5.248l-5.583-3.108L108.213,41.512z M60.967,179.354l-5.583-3.107l2.058-5.247l5.583,3.107      L60.967,179.354z M64.873,169.393l-5.582-3.106l2.057-5.248l5.583,3.107L64.873,169.393z M68.779,159.433l-5.584-3.106      l2.059-5.248l5.583,3.107L68.779,159.433z M72.684,149.472l-5.583-3.106l2.057-5.246l5.583,3.106L72.684,149.472z       M76.589,139.512l-5.583-3.107l2.058-5.247l5.582,3.106L76.589,139.512z M80.495,129.551l-5.583-3.106l2.058-5.247l5.582,3.106      L80.495,129.551z M84.4,119.59l-5.583-3.107l2.057-5.247l5.583,3.107L84.4,119.59z M88.306,109.629l-5.583-3.105l2.058-5.248      l5.583,3.106L88.306,109.629z M92.211,99.669l-5.583-3.106l2.058-5.248l5.583,3.106L92.211,99.669z M96.116,89.709l-5.583-3.108      l2.058-5.247l5.583,3.106L96.116,89.709z M100.022,79.749l-5.583-3.107l2.058-5.247l5.582,3.108L100.022,79.749z       M103.927,69.788l-5.583-3.107l2.057-5.245l5.583,3.103L103.927,69.788z M102.25,56.721l2.058-5.247l5.583,3.107l-2.058,5.246      L102.25,56.721z M115.305,209.591l-5.582-3.106l2.057-5.248l5.581,3.107L115.305,209.591z M119.209,199.629l-5.582-3.105      l2.056-5.247l5.583,3.105L119.209,199.629z M123.115,189.669l-5.582-3.107l2.058-5.245l5.581,3.104L123.115,189.669z       M127.022,179.709l-5.584-3.107l2.056-5.246l5.583,3.107L127.022,179.709z M130.927,169.748l-5.584-3.106l2.058-5.246      l5.582,3.104L130.927,169.748z M134.832,159.789l-5.583-3.108l2.058-5.246l5.583,3.105L134.832,159.789z M138.737,149.828      l-5.583-3.107l2.058-5.246l5.581,3.105L138.737,149.828z M142.643,139.866l-5.583-3.105l2.058-5.247l5.582,3.105      L142.643,139.866z M146.547,129.906l-5.582-3.108l2.059-5.246l5.581,3.105L146.547,129.906z M150.454,119.945l-5.583-3.106      l2.057-5.247l5.582,3.106L150.454,119.945z M154.357,109.986l-5.582-3.108l2.059-5.246l5.58,3.106L154.357,109.986z       M158.264,100.025l-5.582-3.106l2.058-5.247l5.582,3.105L158.264,100.025z M162.169,90.064l-5.582-3.107l2.058-5.247      l5.581,3.106L162.169,90.064z M160.492,76.997l2.059-5.247l5.581,3.106l-2.057,5.248L160.492,76.997z"
           id="path183" />
      </g>
    </g>
    <g
       id="g184">
      <linearGradient
         id="XMLID_3_"
         gradientUnits="userSpaceOnUse"
         x1="198.3877"
         y1="-73.8491"
         x2="199.4418"
         y2="-21.8443"
         gradientTransform="matrix(0.3444 -0.8784 0.9345 0.5201 75.6757 374.2173)">
        <stop
           offset="0"
           style="stop-color:#FFFF99"
           id="stop186" />
        <stop
           offset="0.5"
           style="stop-color:#FFD100"
           id="stop187" />
        <stop
           offset="1"
           style="stop-color:#FFB30F"
           id="stop188" />
      </linearGradient>
      <path
         i:knockout="Off"
         style="fill:url(#XMLID_3_);stroke:none;"
         d="M119.714,164.197l-14.039,35.805l-38.091-21.198l14.039-35.805L119.714,164.197z"
         id="path194" />
      <linearGradient
         id="XMLID_4_"
         gradientUnits="userSpaceOnUse"
         x1="250.7256"
         y1="-74.9102"
         x2="251.7797"
         y2="-22.9029"
         gradientTransform="matrix(0.3444 -0.8784 0.9345 0.5201 75.6757 374.2173)">
        <stop
           offset="0"
           style="stop-color:#FFFF99"
           id="stop196" />
        <stop
           offset="0.5"
           style="stop-color:#FFD100"
           id="stop197" />
        <stop
           offset="1"
           style="stop-color:#FFB30F"
           id="stop198" />
      </linearGradient>
      <path
         i:knockout="Off"
         style="fill:url(#XMLID_4_);stroke:none;"
         d="M137.748,118.206l-14.039,35.805l-38.093-21.198l14.04-35.806L137.748,118.206z"
         id="path204" />
      <linearGradient
         id="XMLID_5_"
         gradientUnits="userSpaceOnUse"
         x1="303.0615"
         y1="-75.9688"
         x2="304.1156"
         y2="-23.964"
         gradientTransform="matrix(0.3444 -0.8784 0.9345 0.5201 75.6757 374.2173)">
        <stop
           offset="0"
           style="stop-color:#FFFF99"
           id="stop206" />
        <stop
           offset="0.5"
           style="stop-color:#FFD100"
           id="stop207" />
        <stop
           offset="1"
           style="stop-color:#FFB30F"
           id="stop208" />
      </linearGradient>
      <path
         i:knockout="Off"
         style="fill:url(#XMLID_5_);stroke:none;"
         d="M155.78,72.212l-14.038,35.808l-38.093-21.199l14.039-35.805L155.78,72.212z"
         id="path214" />
    </g>
  </g>
  <g
     id="Layer_2"
     i:layer="yes"
     i:editable="no"
     i:dimmedPercent="50"
     i:rgbTrio="#FFFF4F004F00"
     style="stroke:#000000;">
    <path
       i:knockout="Off"
       style="fill:none;stroke:none;"
       d="M256,256H0V0h256V256z"
       id="path216" />
  </g>
</svg>
