<?xml version="1.0" encoding="UTF-8" standalone="no"?>
<!DOCTYPE svg PUBLIC "-//W3C//DTD SVG 20010904//EN"
"http://www.w3.org/TR/2001/REC-SVG-20010904/DTD/svg10.dtd"
[
 <!ATTLIST svg
  xmlns:xlink CDATA #FIXED "http://www.w3.org/1999/xlink">
]>
<!-- Created with Sodipodi ("http://www.sodipodi.com/") -->
<svg
   xmlns="http://www.w3.org/2000/svg"
   xmlns:xlink="http://www.w3.org/1999/xlink"
   version="1"
   x="0.00000000"
   y="0.00000000"
   width="60.0000000"
   height="60.0000000"
   viewBox="0 0 256 256"
   id="svg548">
  <defs
     id="defs603" />
  <g
     style="font-size:12;stroke:#000000;"
     id="Layer_2">
    <path
       d="M 256 256 L 0 256 L 0 0 L 256 0 L 256 256 z "
       style="fill:none;stroke:none;"
       id="path550" />
  </g>
  <g
     style="font-size:12;stroke:#000000;"
     id="Layer_3">
    <g
       id="g552">
      <path
         d="M 49 19 C 39.626 19 32 26.626 32 36 L 32 236 C 32 245.374 39.626 253 49 253 L 225 253 C 234.374 253 242 245.374 242 236 L 242 36 C 242 26.626 234.374 19 225 19 L 49 19 z "
         style="opacity:0.2;stroke:none;"
         id="path553" />
      <linearGradient
         x1="23.0000000"
         y1="130.000000"
         x2="233.000000"
         y2="130.000000"
         id="XMLID_1_"
         gradientUnits="userSpaceOnUse"
         spreadMethod="pad">
        <stop
           style="stop-color:#797979;stop-opacity:1;"
           offset="0.00000000"
           id="stop555" />
        <stop
           style="stop-color:#666666;stop-opacity:1;"
           offset="1.00000000"
           id="stop556" />
        <a:midPointStop
           offset="0"
           style="stop-color:#797979"
           id="midPointStop557" />
        <a:midPointStop
           offset="0.5"
           style="stop-color:#797979"
           id="midPointStop558" />
        <a:midPointStop
           offset="1"
           style="stop-color:#666666"
           id="midPointStop559" />
      </linearGradient>
      <path
         d="M 40 13 C 30.626 13 23 20.626 23 30 L 23 230 C 23 239.374 30.626 247 40 247 L 216 247 C 225.374 247 233 239.374 233 230 L 233 30 C 233 20.626 225.374 13 216 13 L 40 13 z "
         style="fill:url(#XMLID_1_);stroke:none;"
         id="path560" />
      <path
         d="M 28 230 C 28 236.627 33.373 242 40 242 L 216 242 C 222.627 242 228 236.627 228 230 L 228 30 C 228 23.373 222.627 18 216 18 L 40 18 C 33.373 18 28 23.373 28 30 L 28 230 z "
         style="fill:#99ccff;stroke:none;"
         id="path561" />
      <linearGradient
         x1="84.5028992"
         y1="86.5028992"
         x2="321.501495"
         y2="323.501495"
         id="XMLID_2_"
         gradientUnits="userSpaceOnUse"
         spreadMethod="pad">
        <stop
           style="stop-color:#ffffff;stop-opacity:1;"
           offset="0.00000000"
           id="stop563" />
        <stop
           style="stop-color:#99ccff;stop-opacity:1;"
           offset="1.00000000"
           id="stop564" />
        <a:midPointStop
           offset="0"
           style="stop-color:#FFFFFF"
           id="midPointStop565" />
        <a:midPointStop
           offset="0.5"
           style="stop-color:#FFFFFF"
           id="midPointStop566" />
        <a:midPointStop
           offset="1"
           style="stop-color:#99CCFF"
           id="midPointStop567" />
      </linearGradient>
      <path
         d="M 40 23 C 36.141 23 33 26.14 33 30 L 33 230 C 33 233.859 36.141 237 40 237 L 216 237 C 219.859 237 223 233.859 223 230 L 223 30 C 223 26.14 219.859 23 216 23 L 40 23 z "
         style="fill:url(#XMLID_2_);stroke:none;"
         id="path568" />
      <path
         d="M 163 108 C 181.593 90.569 203.938 81.994 228 77.735 L 228 30 C 228 23.373 222.627 18 216 18 L 40 18 C 33.373 18 28 23.373 28 30 L 28 173.268 C 77.582 177.009 124.478 142.51 163 108 z "
         style="opacity:0.4;fill:#ffffff;stroke:none;"
         id="path569" />
    </g>
    <path
       d="M 187.57 68.732 L 187.57 33.833 L 200.758 33.833 L 200.758 68.732 L 187.57 68.732 z "
       style="fill:#ffffff;stroke:none;"
       id="path570" />
    <path
       d="M 187.57 121.212 L 187.57 86.311 L 200.758 86.311 L 200.758 121.212 L 187.57 121.212 L 187.57 121.212 z "
       style="fill:#ffffff;stroke:none;"
       id="path571" />
    <path
       d="M 187.57 173.689 L 187.57 138.791 L 200.758 138.791 L 200.758 173.689 L 187.57 173.689 z "
       style="fill:#ffffff;stroke:none;"
       id="path572" />
    <path
       d="M 187.57 223.841 L 187.57 188.942 L 200.758 188.942 L 200.758 223.841 L 187.57 223.841 z "
       style="fill:#ffffff;stroke:none;"
       id="path573" />
    <linearGradient
       x1="36.1596985"
       y1="64.1635971"
       x2="71.0586014"
       y2="64.1635971"
       id="XMLID_3_"
       gradientUnits="userSpaceOnUse"
       gradientTransform="matrix(0.000000,1.000000,-1.000000,0.000000,256.0010,0.000000)"
       spreadMethod="pad">
      <stop
         style="stop-color:#ced8ea;stop-opacity:1;"
         offset="0.00000000"
         id="stop575" />
      <stop
         style="stop-color:#6095c1;stop-opacity:1;"
         offset="1.00000000"
         id="stop576" />
      <a:midPointStop
         offset="0"
         style="stop-color:#CED8EA"
         id="midPointStop577" />
      <a:midPointStop
         offset="0.5"
         style="stop-color:#CED8EA"
         id="midPointStop578" />
      <a:midPointStop
         offset="1"
         style="stop-color:#6095C1"
         id="midPointStop579" />
    </linearGradient>
    <path
       d="M 185.244 71.059 L 185.244 36.16 L 198.431 36.16 L 198.431 71.059 L 185.244 71.059 z "
       style="fill:url(#XMLID_3_);stroke:none;"
       id="path580" />
    <linearGradient
       x1="88.6377029"
       y1="64.1635971"
       x2="123.538597"
       y2="64.1635971"
       id="XMLID_4_"
       gradientUnits="userSpaceOnUse"
       gradientTransform="matrix(0.000000,1.000000,-1.000000,0.000000,256.0010,0.000000)"
       spreadMethod="pad">
      <stop
         style="stop-color:#ced8ea;stop-opacity:1;"
         offset="0.00000000"
         id="stop582" />
      <stop
         style="stop-color:#6095c1;stop-opacity:1;"
         offset="1.00000000"
         id="stop583" />
      <a:midPointStop
         offset="0"
         style="stop-color:#CED8EA"
         id="midPointStop584" />
      <a:midPointStop
         offset="0.5"
         style="stop-color:#CED8EA"
         id="midPointStop585" />
      <a:midPointStop
         offset="1"
         style="stop-color:#6095C1"
         id="midPointStop586" />
    </linearGradient>
    <path
       d="M 185.244 123.539 L 185.244 88.638 L 198.431 88.638 L 198.431 123.539 L 185.244 123.539 L 185.244 123.539 z "
       style="fill:url(#XMLID_4_);stroke:none;"
       id="path587" />
    <linearGradient
       x1="141.117203"
       y1="64.1635971"
       x2="176.016602"
       y2="64.1635971"
       id="XMLID_5_"
       gradientUnits="userSpaceOnUse"
       gradientTransform="matrix(0.000000,1.000000,-1.000000,0.000000,256.0010,0.000000)"
       spreadMethod="pad">
      <stop
         style="stop-color:#ced8ea;stop-opacity:1;"
         offset="0.00000000"
         id="stop589" />
      <stop
         style="stop-color:#6095c1;stop-opacity:1;"
         offset="1.00000000"
         id="stop590" />
      <a:midPointStop
         offset="0"
         style="stop-color:#CED8EA"
         id="midPointStop591" />
      <a:midPointStop
         offset="0.5"
         style="stop-color:#CED8EA"
         id="midPointStop592" />
      <a:midPointStop
         offset="1"
         style="stop-color:#6095C1"
         id="midPointStop593" />
    </linearGradient>
    <path
       d="M 185.244 176.017 L 185.244 141.118 L 198.431 141.118 L 198.431 176.017 L 185.244 176.017 z "
       style="fill:url(#XMLID_5_);stroke:none;"
       id="path594" />
    <linearGradient
       x1="191.268600"
       y1="64.1635971"
       x2="226.167007"
       y2="64.1635971"
       id="XMLID_6_"
       gradientUnits="userSpaceOnUse"
       gradientTransform="matrix(0.000000,1.000000,-1.000000,0.000000,256.0010,0.000000)"
       spreadMethod="pad">
      <stop
         style="stop-color:#ced8ea;stop-opacity:1;"
         offset="0.00000000"
         id="stop596" />
      <stop
         style="stop-color:#6095c1;stop-opacity:1;"
         offset="1.00000000"
         id="stop597" />
      <a:midPointStop
         offset="0"
         style="stop-color:#CED8EA"
         id="midPointStop598" />
      <a:midPointStop
         offset="0.5"
         style="stop-color:#CED8EA"
         id="midPointStop599" />
      <a:midPointStop
         offset="1"
         style="stop-color:#6095C1"
         id="midPointStop600" />
    </linearGradient>
    <path
       d="M 185.244 226.167 L 185.244 191.269 L 198.431 191.269 L 198.431 226.167 L 185.244 226.167 z "
       style="fill:url(#XMLID_6_);stroke:none;"
       id="path601" />
  </g>
</svg>
