<?xml version="1.0" encoding="UTF-8" standalone="no"?>
<!DOCTYPE svg PUBLIC "-//W3C//DTD SVG 20010904//EN"
"http://www.w3.org/TR/2001/REC-SVG-20010904/DTD/svg10.dtd">
<!-- Created with Sodipodi ("http://www.sodipodi.com/") -->
<svg
   width="48pt"
   height="48pt"
   viewBox="0 0 256 256"
   overflow="visible"
   enable-background="new 0 0 256 256"
   xml:space="preserve"
   xmlns="http://www.w3.org/2000/svg"
   xmlns:xml="http://www.w3.org/XML/1998/namespace"
   xmlns:a="http://ns.adobe.com/AdobeSVGViewerExtensions/3.0/"
   xmlns:sodipodi="http://sodipodi.sourceforge.net/DTD/sodipodi-0.dtd"
   xmlns:xlink="http://www.w3.org/1999/xlink"
   id="svg153"
   sodipodi:version="0.32pre"
   sodipodi:docname="/home/cschalle/gnome-themes-extras/Nuvola/icons/scalable/mimetypes/gnome-mime-image.svg"
   sodipodi:docbase="/home/cschalle/gnome-themes-extras/Nuvola/icons/scalable/mimetypes">
  <defs
     id="defs219" />
  <sodipodi:namedview
     id="base" />
  <g
     id="Layer_2"
     stroke="#000000">
    <path
       fill="none"
       stroke="none"
       d="M256,256H0V0h256V256z"
       id="path155" />
  </g>
  <g
     id="Layer_3"
     stroke="#000000">
    <path
       opacity="0.2"
       stroke="none"
       d="M49,19c-9.374,0-17,7.626-17,17v200c0,9.374,7.626,17,17,17h176c9.374,0,17-7.626,17-17V36    c0-9.374-7.626-17-17-17H49z"
       id="path157" />
    <linearGradient
       id="XMLID_1_"
       gradientUnits="userSpaceOnUse"
       x1="23"
       y1="130"
       x2="233"
       y2="130">
      <stop
         offset="0"
         style="stop-color:#999999"
         id="stop159" />
      <stop
         offset="1"
         style="stop-color:#666666"
         id="stop160" />
      <a:midPointStop
         offset="0"
         style="stop-color:#999999"
         id="midPointStop161" />
      <a:midPointStop
         offset="0.5"
         style="stop-color:#999999"
         id="midPointStop162" />
      <a:midPointStop
         offset="1"
         style="stop-color:#666666"
         id="midPointStop163" />
    </linearGradient>
    <path
       fill="url(#XMLID_1_)"
       stroke="none"
       d="M40,13c-9.374,0-17,7.626-17,17v200c0,9.374,7.626,17,17,17h176    c9.374,0,17-7.626,17-17V30c0-9.374-7.626-17-17-17H40z"
       id="path164" />
    <path
       fill="#99CCFF"
       stroke="none"
       d="M28,230c0,6.627,5.373,12,12,12h176c6.627,0,12-5.373,12-12V30c0-6.627-5.373-12-12-12H40    c-6.627,0-12,5.373-12,12V230z"
       id="path165" />
    <linearGradient
       id="XMLID_2_"
       gradientUnits="userSpaceOnUse"
       x1="84.5029"
       y1="86.5029"
       x2="321.5015"
       y2="323.5015">
      <stop
         offset="0"
         style="stop-color:#FFFFFF"
         id="stop167" />
      <stop
         offset="1"
         style="stop-color:#99CCFF"
         id="stop168" />
      <a:midPointStop
         offset="0"
         style="stop-color:#FFFFFF"
         id="midPointStop169" />
      <a:midPointStop
         offset="0.5"
         style="stop-color:#FFFFFF"
         id="midPointStop170" />
      <a:midPointStop
         offset="1"
         style="stop-color:#99CCFF"
         id="midPointStop171" />
    </linearGradient>
    <path
       fill="url(#XMLID_2_)"
       stroke="none"
       d="M40,23c-3.859,0-7,3.14-7,7v200c0,3.859,3.141,7,7,7h176c3.859,0,7-3.141,7-7V30    c0-3.86-3.141-7-7-7H40z"
       id="path172" />
    <path
       opacity="0.4"
       fill="#FFFFFF"
       stroke="none"
       d="M163,108c18.593-17.431,40.938-26.006,65-30.265V30c0-6.627-5.373-12-12-12    H40c-6.627,0-12,5.373-12,12v143.268C77.582,177.009,124.478,142.51,163,108z"
       id="path173" />
    <g
       id="g174">
      <path
         opacity="0.2"
         stroke="none"
         d="M24.693,56.788c-6.52,0-11.824,5.304-11.824,11.824v103.577     c0,6.52,5.304,11.822,11.824,11.822h138.339c6.518,0,11.821-5.303,11.821-11.822V68.611c0-6.52-5.304-11.824-11.821-11.824     H24.693z"
         id="path175" />
      <path
         fill="#666666"
         stroke="none"
         d="M19.37,51.599c-6.52,0-11.823,5.305-11.823,11.824v103.576     c0,6.519,5.304,11.823,11.823,11.823h138.339c6.519,0,11.821-5.305,11.821-11.823V63.423c0-6.52-5.303-11.824-11.821-11.824     H19.37z"
         id="path176" />
      <linearGradient
         id="XMLID_3_"
         gradientUnits="userSpaceOnUse"
         x1="88.5386"
         y1="79.7505"
         x2="88.5386"
         y2="166.8879">
        <stop
           offset="0"
           style="stop-color:#F7F7F7"
           id="stop178" />
        <stop
           offset="1"
           style="stop-color:#D9D9D9"
           id="stop179" />
        <a:midPointStop
           offset="0"
           style="stop-color:#F7F7F7"
           id="midPointStop180" />
        <a:midPointStop
           offset="0.5"
           style="stop-color:#F7F7F7"
           id="midPointStop181" />
        <a:midPointStop
           offset="1"
           style="stop-color:#D9D9D9"
           id="midPointStop182" />
      </linearGradient>
      <path
         fill="url(#XMLID_3_)"
         stroke="none"
         d="M165.938,166.999c0,4.547-3.682,8.231-8.229,8.231H19.37     c-4.546,0-8.231-3.685-8.231-8.231V63.423c0-4.546,3.686-8.232,8.231-8.232h138.339c4.548,0,8.229,3.686,8.229,8.232V166.999z"
         id="path183" />
      <path
         fill="#FFFFFF"
         stroke="none"
         d="M142.538,74.437H28.502v82.787h115.284V74.437H142.538z"
         id="path184" />
      <path
         fill="#CCCCCC"
         stroke="none"
         d="M145.397,79.226H33.292v80.922h113.334V79.226H145.397z"
         id="path185" />
      <path
         stroke="none"
         d="M142.591,79.226H33.292v77.998h110.494V79.226H142.591z"
         id="path186" />
      <radialGradient
         id="XMLID_4_"
         cx="129.6943"
         cy="155.7529"
         r="90.1177"
         fx="129.6943"
         fy="155.7529"
         gradientTransform="matrix(-1 0 0 -1 185.0801 258.4492)"
         gradientUnits="userSpaceOnUse">
        <stop
           offset="0"
           style="stop-color:#FFCC66"
           id="stop188" />
        <stop
           offset="0.0391"
           style="stop-color:#FFCE69"
           id="stop189" />
        <stop
           offset="0.0713"
           style="stop-color:#FFD374"
           id="stop190" />
        <stop
           offset="0.1012"
           style="stop-color:#FFDB85"
           id="stop191" />
        <stop
           offset="0.1296"
           style="stop-color:#FFE79D"
           id="stop192" />
        <stop
           offset="0.1567"
           style="stop-color:#FFF7BC"
           id="stop193" />
        <stop
           offset="0.1685"
           style="stop-color:#FFFFCC"
           id="stop194" />
        <stop
           offset="0.1765"
           style="stop-color:#FFDCB5"
           id="stop195" />
        <stop
           offset="0.1856"
           style="stop-color:#FFBDA0"
           id="stop196" />
        <stop
           offset="0.1958"
           style="stop-color:#FFA18E"
           id="stop197" />
        <stop
           offset="0.2073"
           style="stop-color:#FF8B7F"
           id="stop198" />
        <stop
           offset="0.2208"
           style="stop-color:#FF7A74"
           id="stop199" />
        <stop
           offset="0.2375"
           style="stop-color:#FF6F6C"
           id="stop200" />
        <stop
           offset="0.2609"
           style="stop-color:#FF6867"
           id="stop201" />
        <stop
           offset="0.3258"
           style="stop-color:#FF6666"
           id="stop202" />
        <stop
           offset="0.5449"
           style="stop-color:#FF3333"
           id="stop203" />
        <stop
           offset="0.7697"
           style="stop-color:#FF0000"
           id="stop204" />
        <stop
           offset="1"
           style="stop-color:#CC0000"
           id="stop205" />
        <a:midPointStop
           offset="0"
           style="stop-color:#FFCC66"
           id="midPointStop206" />
        <a:midPointStop
           offset="0.7447"
           style="stop-color:#FFCC66"
           id="midPointStop207" />
        <a:midPointStop
           offset="0.1685"
           style="stop-color:#FFFFCC"
           id="midPointStop208" />
        <a:midPointStop
           offset="0.13"
           style="stop-color:#FFFFCC"
           id="midPointStop209" />
        <a:midPointStop
           offset="0.3258"
           style="stop-color:#FF6666"
           id="midPointStop210" />
        <a:midPointStop
           offset="0.5"
           style="stop-color:#FF6666"
           id="midPointStop211" />
        <a:midPointStop
           offset="0.5449"
           style="stop-color:#FF3333"
           id="midPointStop212" />
        <a:midPointStop
           offset="0.5"
           style="stop-color:#FF3333"
           id="midPointStop213" />
        <a:midPointStop
           offset="0.7697"
           style="stop-color:#FF0000"
           id="midPointStop214" />
        <a:midPointStop
           offset="0.5"
           style="stop-color:#FF0000"
           id="midPointStop215" />
        <a:midPointStop
           offset="1"
           style="stop-color:#CC0000"
           id="midPointStop216" />
      </radialGradient>
      <path
         fill="url(#XMLID_4_)"
         stroke="none"
         d="M142.591,156.025c0-8.975,0-66.625,0-75.602c-9.505,0-98.597,0-108.102,0     c0,8.978,0,66.627,0,75.602C43.994,156.025,133.086,156.025,142.591,156.025z"
         id="path217" />
    </g>
  </g>
</svg>
