<?xml version="1.0" encoding="UTF-8" standalone="no"?>
<!DOCTYPE svg PUBLIC "-//W3C//DTD SVG 20010904//EN"
"http://www.w3.org/TR/2001/REC-SVG-20010904/DTD/svg10.dtd">
<!-- Created with Sodipodi ("http://www.sodipodi.com/") -->
<svg
   width="48pt"
   height="48pt"
   viewBox="0 0 256 256"
   overflow="visible"
   enable-background="new 0 0 256 256"
   xml:space="preserve"
   xmlns="http://www.w3.org/2000/svg"
   xmlns:xml="http://www.w3.org/XML/1998/namespace"
   xmlns:a="http://ns.adobe.com/AdobeSVGViewerExtensions/3.0/"
   xmlns:sodipodi="http://sodipodi.sourceforge.net/DTD/sodipodi-0.dtd"
   xmlns:xlink="http://www.w3.org/1999/xlink"
   id="svg153"
   sodipodi:version="0.32pre"
   sodipodi:docname="/home/cschalle/gnome-themes-extras/Nuvola/icons/scalable/mimetypes/gnome-mime-text-x-sh.svg"
   sodipodi:docbase="/home/cschalle/gnome-themes-extras/Nuvola/icons/scalable/mimetypes">
  <defs
     id="defs215" />
  <sodipodi:namedview
     id="base" />
  <g
     id="Layer_2"
     stroke="#000000">
    <path
       fill="none"
       stroke="none"
       d="M256,256H0V0h256V256z"
       id="path155" />
  </g>
  <g
     id="Layer_3"
     stroke="#000000">
    <path
       opacity="0.2"
       stroke="none"
       d="M49,19c-9.374,0-17,7.626-17,17v200c0,9.374,7.626,17,17,17h176c9.374,0,17-7.626,17-17V36    c0-9.374-7.626-17-17-17H49z"
       id="path157" />
    <linearGradient
       id="XMLID_1_"
       gradientUnits="userSpaceOnUse"
       x1="23"
       y1="130"
       x2="233"
       y2="130">
      <stop
         offset="0"
         style="stop-color:#999999"
         id="stop159" />
      <stop
         offset="1"
         style="stop-color:#666666"
         id="stop160" />
      <a:midPointStop
         offset="0"
         style="stop-color:#999999"
         id="midPointStop161" />
      <a:midPointStop
         offset="0.5"
         style="stop-color:#999999"
         id="midPointStop162" />
      <a:midPointStop
         offset="1"
         style="stop-color:#666666"
         id="midPointStop163" />
    </linearGradient>
    <path
       fill="url(#XMLID_1_)"
       stroke="none"
       d="M40,13c-9.374,0-17,7.626-17,17v200c0,9.374,7.626,17,17,17h176    c9.374,0,17-7.626,17-17V30c0-9.374-7.626-17-17-17H40z"
       id="path164" />
    <path
       fill="#99CCFF"
       stroke="none"
       d="M28,230c0,6.627,5.373,12,12,12h176c6.627,0,12-5.373,12-12V30c0-6.627-5.373-12-12-12H40    c-6.627,0-12,5.373-12,12V230z"
       id="path165" />
    <linearGradient
       id="XMLID_2_"
       gradientUnits="userSpaceOnUse"
       x1="84.5029"
       y1="86.5029"
       x2="321.5015"
       y2="323.5015">
      <stop
         offset="0"
         style="stop-color:#FFFFFF"
         id="stop167" />
      <stop
         offset="1"
         style="stop-color:#99CCFF"
         id="stop168" />
      <a:midPointStop
         offset="0"
         style="stop-color:#FFFFFF"
         id="midPointStop169" />
      <a:midPointStop
         offset="0.5"
         style="stop-color:#FFFFFF"
         id="midPointStop170" />
      <a:midPointStop
         offset="1"
         style="stop-color:#99CCFF"
         id="midPointStop171" />
    </linearGradient>
    <path
       fill="url(#XMLID_2_)"
       stroke="none"
       d="M40,23c-3.859,0-7,3.14-7,7v200c0,3.859,3.141,7,7,7h176c3.859,0,7-3.141,7-7V30    c0-3.86-3.141-7-7-7H40z"
       id="path172" />
    <path
       opacity="0.4"
       fill="#FFFFFF"
       stroke="none"
       d="M163,108c18.593-17.431,40.938-26.006,65-30.265V30c0-6.627-5.373-12-12-12    H40c-6.627,0-12,5.373-12,12v143.268C77.582,177.009,124.478,142.51,163,108z"
       id="path173" />
    <g
       id="g174">
      <path
         opacity="0.2"
         stroke="none"
         d="M164.183,66.321H23V202h141.183c1.47,0,2.661-1.191,2.661-2.66V68.981     C166.844,67.512,165.652,66.321,164.183,66.321z"
         id="path175" />
      <linearGradient
         id="XMLID_3_"
         gradientUnits="userSpaceOnUse"
         x1="3"
         y1="124.8394"
         x2="157.9658"
         y2="124.8394">
        <stop
           offset="0"
           style="stop-color:#999999"
           id="stop177" />
        <stop
           offset="1"
           style="stop-color:#666666"
           id="stop178" />
        <a:midPointStop
           offset="0"
           style="stop-color:#999999"
           id="midPointStop179" />
        <a:midPointStop
           offset="0.5"
           style="stop-color:#999999"
           id="midPointStop180" />
        <a:midPointStop
           offset="1"
           style="stop-color:#666666"
           id="midPointStop181" />
      </linearGradient>
      <path
         fill="url(#XMLID_3_)"
         stroke="none"
         d="M5.66,55C3.09,55,1,57.091,1,59.661V190.02c0,2.569,2.09,4.659,4.66,4.659h149.646     c2.569,0,4.66-2.09,4.66-4.659V59.661c0-2.57-2.091-4.661-4.66-4.661H5.66z"
         id="path182" />
      <path
         fill="url(#XMLID_3_)"
         stroke="none"
         d="M157.966,190.02c0,1.469-1.191,2.659-2.66,2.659H5.66     c-1.469,0-2.66-1.19-2.66-2.659V59.661C3,58.191,4.19,57,5.66,57h149.646c1.469,0,2.66,1.191,2.66,2.661V190.02z"
         id="path183" />
      <linearGradient
         id="XMLID_5_"
         gradientUnits="userSpaceOnUse"
         x1="9.5991"
         y1="57.9434"
         x2="151.4799"
         y2="191.8434">
        <stop
           offset="0"
           style="stop-color:#FFFFFF"
           id="stop185" />
        <stop
           offset="1"
           style="stop-color:#D4CCBF"
           id="stop186" />
        <a:midPointStop
           offset="0"
           style="stop-color:#FFFFFF"
           id="midPointStop187" />
        <a:midPointStop
           offset="0.5"
           style="stop-color:#FFFFFF"
           id="midPointStop188" />
        <a:midPointStop
           offset="1"
           style="stop-color:#D4CCBF"
           id="midPointStop189" />
      </linearGradient>
      <path
         fill="url(#XMLID_5_)"
         stroke="none"
         d="M6.325,60.326c0,1.31,0,127.717,0,129.028c1.313,0,147.003,0,148.316,0     c0-1.311,0-127.718,0-129.028C153.328,60.326,7.637,60.326,6.325,60.326z"
         id="path190" />
      <linearGradient
         id="XMLID_6_"
         gradientUnits="userSpaceOnUse"
         x1="95.7129"
         y1="139.5391"
         x2="3.0447"
         y2="49.0884">
        <stop
           offset="0"
           style="stop-color:#FFFFFF"
           id="stop192" />
        <stop
           offset="1"
           style="stop-color:#666666"
           id="stop193" />
        <a:midPointStop
           offset="0"
           style="stop-color:#FFFFFF"
           id="midPointStop194" />
        <a:midPointStop
           offset="0.5"
           style="stop-color:#FFFFFF"
           id="midPointStop195" />
        <a:midPointStop
           offset="1"
           style="stop-color:#666666"
           id="midPointStop196" />
      </linearGradient>
      <path
         fill="url(#XMLID_6_)"
         stroke="none"
         d="M137.791,167.184c0,1.47-1.191,2.66-2.66,2.66H21.178     c-1.469,0-2.661-1.19-2.661-2.66V77.618c0-1.469,1.191-2.66,2.661-2.66h113.953c1.469,0,2.66,1.191,2.66,2.66V167.184z"
         id="path197" />
      <path
         fill="#FFFFFF"
         stroke="none"
         d="M142.447,171.839c0,1.47-1.191,2.661-2.66,2.661l-116.835-1.553     c-1.469,0-1.774-1.634-1.774-3.104l1.996-87.57c0-1.47,1.191-2.661,2.66-2.661l108.854-1.995c1.47,0,5.764,0.304,5.764,1.773     L142.447,171.839z"
         id="path198" />
      <path
         fill="#003366"
         stroke="none"
         d="M139.787,169.18c0,1.468-1.191,2.659-2.661,2.659H23.174c-1.469,0-2.66-1.191-2.66-2.659     V79.613c0-1.469,1.191-2.66,2.66-2.66h113.952c1.47,0,2.661,1.191,2.661,2.66V169.18z"
         id="path199" />
      <path
         fill="#3399FF"
         stroke="none"
         d="M23.839,80.278c0,1.301,0,86.935,0,88.236c1.306,0,111.315,0,112.622,0     c0-1.301,0-86.935,0-88.236C135.154,80.278,25.145,80.278,23.839,80.278z"
         id="path200" />
      <linearGradient
         id="XMLID_7_"
         gradientUnits="userSpaceOnUse"
         x1="37.3853"
         y1="65.5396"
         x2="104.3357"
         y2="136.9234">
        <stop
           offset="0"
           style="stop-color:#FFFFFF"
           id="stop202" />
        <stop
           offset="1"
           style="stop-color:#3399FF"
           id="stop203" />
        <a:midPointStop
           offset="0"
           style="stop-color:#FFFFFF"
           id="midPointStop204" />
        <a:midPointStop
           offset="0.5"
           style="stop-color:#FFFFFF"
           id="midPointStop205" />
        <a:midPointStop
           offset="1"
           style="stop-color:#3399FF"
           id="midPointStop206" />
      </linearGradient>
      <path
         fill="url(#XMLID_7_)"
         stroke="none"
         d="M112.962,113.533c10.848-7.812,17.45-17.889,23.499-28.567c0-2.807,0-4.513,0-4.688     c-1.307,0-111.316,0-112.622,0c0,0.831,0,36.029,0,61.716c6.921-5.961,15.249-10.382,23.943-13.165     C69.73,122.178,93.009,127.5,112.962,113.533z"
         id="path207" />
      <g
         adobe-blending-mode="overlay"
         id="g208">
        <path
           stroke="none"
           adobe-blending-mode="normal"
           d="M35.09,161.062c-2.552-0.179-4.882-0.948-6.994-2.313l2.122-5.133      c2.268,1.617,4.5,2.425,6.694,2.425c3.373,0,5.06-1.162,5.06-3.486c0-1.163-0.432-2.256-1.293-3.278      c-0.863-1.023-2.499-2.138-4.908-3.345c-2.411-1.207-4.051-2.206-4.92-3c-0.87-0.792-1.537-1.738-2.002-2.84      c-0.464-1.104-0.696-2.328-0.696-3.68c0-1.997,0.627-3.758,1.882-5.285c1.255-1.527,2.94-2.547,5.056-3.062v-4.005h5.042      l-0.022,3.779c2.728,0.263,4.758,0.921,6.092,1.973l-1.744,4.964c-2.018-1.466-4.144-2.199-6.38-2.199      c-1.325,0-2.352,0.356-3.08,1.071c-0.728,0.713-1.092,1.613-1.092,2.703c0,1.854,2.051,3.782,6.153,5.783      c2.162,1.059,3.72,2.031,4.676,2.92c0.956,0.888,1.683,1.924,2.184,3.107c0.5,1.182,0.75,2.501,0.75,3.955      c0,2.057-0.668,3.853-2.001,5.387c-1.333,1.536-3.187,2.59-5.558,3.163v5.076h-5.02V161.062z"
           id="path209" />
        <path
           stroke="none"
           adobe-blending-mode="normal"
           d="M56.961,156.831v-5.021l11.619-5.273l-11.619-5.217v-5.021l17.598,8.462      v3.554L56.961,156.831z"
           id="path210" />
      </g>
      <g
         id="g211">
        <path
           fill="#FFFFFF"
           stroke="none"
           d="M33.736,159.707c-2.551-0.177-4.883-0.947-6.994-2.313l2.122-5.132      c2.268,1.617,4.5,2.425,6.694,2.425c3.374,0,5.059-1.162,5.059-3.487c0-1.162-0.431-2.256-1.292-3.277      c-0.862-1.022-2.5-2.137-4.909-3.345c-2.41-1.207-4.05-2.207-4.919-3c-0.871-0.792-1.537-1.74-2.002-2.842      c-0.465-1.101-0.697-2.326-0.697-3.678c0-1.997,0.628-3.759,1.883-5.286c1.255-1.526,2.941-2.547,5.056-3.061v-4.005h5.042      l-0.021,3.778c2.727,0.264,4.757,0.922,6.092,1.975l-1.745,4.964c-2.017-1.467-4.143-2.201-6.38-2.201      c-1.324,0-2.351,0.357-3.079,1.072c-0.729,0.713-1.092,1.613-1.092,2.703c0,1.855,2.051,3.782,6.153,5.783      c2.162,1.058,3.72,2.031,4.675,2.919c0.957,0.889,1.684,1.925,2.184,3.107s0.75,2.502,0.75,3.955c0,2.058-0.667,3.853-2,5.388      c-1.334,1.535-3.187,2.59-5.558,3.163v5.075h-5.021V159.707z"
           id="path212" />
        <path
           fill="#FFFFFF"
           stroke="none"
           d="M55.606,155.478v-5.021l11.619-5.273l-11.619-5.217v-5.021l17.599,8.461v3.554      L55.606,155.478z"
           id="path213" />
      </g>
    </g>
  </g>
</svg>
