<?xml version="1.0" encoding="UTF-8" standalone="no"?>
<!DOCTYPE svg PUBLIC "-//W3C//DTD SVG 20010904//EN"
"http://www.w3.org/TR/2001/REC-SVG-20010904/DTD/svg10.dtd">
<!-- Created with Sodipodi ("http://www.sodipodi.com/") -->
<svg
   width="38pt"
   height="48pt"
   viewBox="0 0 204.755 242.183"
   style="overflow:visible;enable-background:new 0 0 204.755 242.183"
   xml:space="preserve"
   id="svg2555"
   sodipodi:version="0.32pre"
   sodipodi:docname="/home/cschalle/gnome-themes-extras/Nuvola/icons/scalable/mimetypes/gnome-mime-application-postscript.svg"
   sodipodi:docbase="/home/cschalle/gnome-themes-extras/Nuvola/icons/scalable/mimetypes/"
   xmlns="http://www.w3.org/2000/svg"
   xmlns:sodipodi="http://sodipodi.sourceforge.net/DTD/sodipodi-0.dtd"
   xmlns:xml="http://www.w3.org/XML/1998/namespace"
   xmlns:a="http://ns.adobe.com/AdobeSVGViewerExtensions/3.0/"
   xmlns:xlink="http://www.w3.org/1999/xlink">
  <defs
     id="defs2610">
    <linearGradient
       id="XMLID_1_"
       gradientUnits="userSpaceOnUse"
       x1="227.9497"
       y1="263.2354"
       x2="60.8168"
       y2="96.103">
      <stop
         offset="0"
         style="stop-color:#999999"
         id="stop2558" />
      <stop
         offset="1"
         style="stop-color:#CCCCCC"
         id="stop2559" />
      <a:midPointStop
         offset="0"
         style="stop-color:#999999"
         id="midPointStop2560" />
      <a:midPointStop
         offset="0.5"
         style="stop-color:#999999"
         id="midPointStop2561" />
      <a:midPointStop
         offset="1"
         style="stop-color:#CCCCCC"
         id="midPointStop2562" />
    </linearGradient>
    <linearGradient
       id="XMLID_2_"
       gradientUnits="userSpaceOnUse"
       x1="3.3936"
       y1="-0.8843"
       x2="194.0594"
       y2="268.4486">
      <stop
         offset="0"
         style="stop-color:#CCDEED"
         id="stop2565" />
      <stop
         offset="0.2762"
         style="stop-color:#C7DBEB"
         id="stop2566" />
      <stop
         offset="0.5856"
         style="stop-color:#BAD1E6"
         id="stop2567" />
      <stop
         offset="0.9099"
         style="stop-color:#A4C1DD"
         id="stop2568" />
      <stop
         offset="1"
         style="stop-color:#9CBCDA"
         id="stop2569" />
      <a:midPointStop
         offset="0"
         style="stop-color:#CCDEED"
         id="midPointStop2570" />
      <a:midPointStop
         offset="0.6836"
         style="stop-color:#CCDEED"
         id="midPointStop2571" />
      <a:midPointStop
         offset="1"
         style="stop-color:#9CBCDA"
         id="midPointStop2572" />
    </linearGradient>
    <linearGradient
       id="XMLID_3_"
       gradientUnits="userSpaceOnUse"
       x1="3.7124"
       y1="17.002"
       x2="186.3787"
       y2="238.3348">
      <stop
         offset="0"
         style="stop-color:#FFFFFF"
         id="stop2575" />
      <stop
         offset="0.2232"
         style="stop-color:#FAFBFD"
         id="stop2576" />
      <stop
         offset="0.4988"
         style="stop-color:#EBF0F7"
         id="stop2577" />
      <stop
         offset="0.8006"
         style="stop-color:#D2DFED"
         id="stop2578" />
      <stop
         offset="1"
         style="stop-color:#BDD0E5"
         id="stop2579" />
      <a:midPointStop
         offset="0"
         style="stop-color:#FFFFFF"
         id="midPointStop2580" />
      <a:midPointStop
         offset="0.6628"
         style="stop-color:#FFFFFF"
         id="midPointStop2581" />
      <a:midPointStop
         offset="1"
         style="stop-color:#BDD0E5"
         id="midPointStop2582" />
    </linearGradient>
    <linearGradient
       id="XMLID_4_"
       gradientUnits="userSpaceOnUse"
       x1="49.8477"
       y1="68.4077"
       x2="161.4459"
       y2="180.0059">
      <stop
         offset="0"
         style="stop-color:#FFFFFF"
         id="stop2600" />
      <stop
         offset="0.2319"
         style="stop-color:#FAFCFD"
         id="stop2601" />
      <stop
         offset="0.4917"
         style="stop-color:#EDF2F8"
         id="stop2602" />
      <stop
         offset="0.764"
         style="stop-color:#D7E2EF"
         id="stop2603" />
      <stop
         offset="1"
         style="stop-color:#BDD0E5"
         id="stop2604" />
      <a:midPointStop
         offset="0"
         style="stop-color:#FFFFFF"
         id="midPointStop2605" />
      <a:midPointStop
         offset="0.6836"
         style="stop-color:#FFFFFF"
         id="midPointStop2606" />
      <a:midPointStop
         offset="1"
         style="stop-color:#BDD0E5"
         id="midPointStop2607" />
    </linearGradient>
  </defs>
  <sodipodi:namedview
     id="base" />
  <g
     id="g5719">
    <path
       style="font-size:12;fill:url(#XMLID_1_);"
       d="M168.618,0H0v242.183h204.755V39.088l-1.614-2.411    c-9.829-14.695-19.416-25.659-30.169-34.503L170.329,0H168.618z"
       id="path2563" />
    <path
       style="font-size:12;fill:url(#XMLID_2_);"
       d="M166.906,4.775H4.775v232.633h195.206V40.538l-0.808-1.206    c-9.564-14.297-18.854-24.934-29.234-33.471l-1.321-1.087H166.906z"
       id="path2573" />
    <path
       style="font-size:12;fill:url(#XMLID_3_);"
       d="M9.55,9.55c0,8.97,0,214.111,0,223.082c8.861,0,176.793,0,185.654,0    c0-9.022,0-187.817,0-190.644c-9.271-13.861-18.327-24.237-28.299-32.438C163.612,9.55,18.454,9.55,9.55,9.55z"
       id="path2583" />
    <path
       style="font-size:12;opacity:0.5;fill:url(#XMLID_4_);"
       d="M64.162,146.834    c50.264-32.703,95.79-71.175,111.914-128.885c0.445-1.624,0.851-3.241,1.234-4.856c-3.024-3.116-6.115-5.983-9.306-8.646    l-1.313-1.095h-1.698H3.989v201.975C16.365,181.14,42.769,161.106,64.162,146.834z"
       id="path2608" />
    <g
       id="Layer_x0020_3"
       style="fill-rule:nonzero;clip-rule:nonzero;stroke:#000000;stroke-miterlimit:4;"
       transform="matrix(7.93954,0,0,6.49168,-97.8832,-32.0259)">
      <path
         style="opacity:0.3;stroke:none;"
         d="M27.7,14.3c-1.7-1.7-12.9-4.7-8.7,2.4c2.1,3.6-3.6,7.2-0.5,12c3.8,5.7,14.3-0.2,8.5-5.5c-4.1-3.7,2.5-7.1,0.7-8.8z"
         id="path2870" />
      <radialGradient
         id="aigrd5"
         cx="19.2734"
         cy="13.0234"
         r="20.1525"
         fx="19.2734"
         fy="13.0234"
         gradientUnits="userSpaceOnUse">
        <stop
           offset="0"
           style="stop-color:#23ACCD"
           id="stop2872" />
        <stop
           offset="1"
           style="stop-color:#274773"
           id="stop2873" />
      </radialGradient>
      <path
         style="fill:url(#aigrd5);stroke-width:0.425;"
         d="M27,13.4c-1.7-1.7-13.1-4.2-8.9,2.9c2.1,3.6-3.6,7.2-0.5,12c3.8,5.7,14.3-0.2,8.5-5.5C22,19,28.8,15.1,27,13.4z"
         id="path2874" />
      <path
         style="stroke:none;"
         d="M31.5,17h-1l-3.3-3.3c0-0.1,0.1-0.2,0.1-0.2c0-0.2-0.2-0.4-0.4-0.4c-0.1,0-0.2,0-0.2,0.1l-3.4-3.4v-1h-0.1h-1.1v1.2h1l3.4,3.4c0,0.1-0.1,0.2-0.1,0.2c0,0.2,0.2,0.4,0.4,0.4c0.1,0,0.2,0,0.2-0.1l3.3,3.3v1h1.2V17h-0.1z M23.2,9.7    c-0.1,0-0.7,0-0.8,0c0-0.1,0-0.7,0-0.8c0.1,0,0.7,0,0.8,0c0,0.1,0,0.7,0,0.8z M31.5,18c-0.1,0-0.7,0-0.8,0c0-0.1,0-0.7,0-0.8c0.1,0,0.7,0,0.8,0c0,0.1,0,0.7,0,0.8z"
         id="path2875" />
      <path
         style="fill:#82D0E3;stroke:none;"
         d="M24.6,12.4c-6.8-1.9-7.8,0.3-7,2.3c0.5,1.3,1.5,2.6,1.2,3.9c-0.8,3-4.5,8.3,1,11.3C15,26.4,19,21,19.3,18.8c0.4-2.1-5.4-8.2,5.2-6.4z"
         id="path2876" />
      <path
         style="stroke:none;"
         d="M19.9,10.9V9.8h-0.1h-1.1v1l-1.1,1.1c-0.1,0-0.2-0.1-0.2-0.1c-0.2,0-0.4,0.2-0.4,0.4c0,0.1,0,0.2,0.1,0.2l-1.1,1.1h-1v1.2h1.2v-1l1.1-1.1c0.1,0,0.2,0.1,0.2,0.1c0.2,0,0.4-0.2,0.4-0.4c0-0.1,0-0.2-0.1-0.2l1.1-1.1h1z M18.9,9.9    c0.1,0,0.7,0,0.8,0c0,0.1,0,0.7,0,0.8c-0.1,0-0.7,0-0.8,0c0-0.1,0-0.7,0-0.8z M15.1,14.7c0-0.1,0-0.7,0-0.8c0.1,0,0.6,0,0.8,0l0,0c0,0.2,0,0.7,0,0.8c-0.1,0-0.7,0-0.8,0z"
         id="path2877" />
      <g
         style="stroke:none;"
         id="g2878">
        <path
           d="M24.6,36.5c-0.2,0.4-0.3,0.5-0.3,0.7c0,0.1,0,0.1,0.1,0.1c0.1,0,0.1,0,0.1,0.1c0,0,0,0-0.1,0.1l-1,0.4C23.2,38,23.2,38,23.1,38C23,38,23,37.9,23,37.8c0-0.2,0.2-0.7,0.7-1.5l3.3-5.6c0-0.1,0-0.1-0.1-0.1c0,0,0,0-0.1,0h0c0,0-0.1,0-0.1-0.1     c0,0,0-0.1,0.1-0.1l1.2-0.5c0.2-0.1,0.3-0.1,0.4-0.1c0.1,0,0.2,0.1,0.2,0.3l1,6.3c0.1,0.6,0.2,0.8,0.3,0.8c0.1,0,0.1,0,0.2-0.1c0.1,0,0.1,0,0.1,0c0,0,0.1,0,0.1,0.1c0,0,0,0.1-0.1,0.1l-1.4,0.6c-0.4,0.2-0.4,0.2-0.6,0.2c-0.2,0-0.3-0.1-0.4-0.6l-0.3-2.6     c-0.8,0.3-1,0.4-1.4,0.4h-0.8l-0.7,1.3z M27.4,32.9c0-0.2-0.1-1.1-0.1-1.2v-0.1c-0.1,0.3-0.2,0.5-0.5,1l-0.9,1.6c-0.1,0.1-0.1,0.1-0.2,0.2c0.1,0,0.1,0,0.2,0h1.6l-0.2-1.5z"
           id="path2879" />
        <path
           d="M33.9,36.8c0.1-0.4,0.1-0.6,0.2-0.8c-0.2,0.3-0.5,0.5-1.1,1c-0.8,0.7-1.3,1-1.8,1c-0.5,0-0.7-0.4-0.7-1c0-1.6,1-3.2,2.5-4.1c0.8-0.5,1.6-0.7,2.9-0.7h0.2c0.1,0,0.1,0,0.1,0.1l0,0L35.5,36c-0.1,0.3-0.1,0.5-0.1,0.7c0,0.2,0.1,0.3,0.2,0.3     c0.2,0,0.5-0.1,0.8-0.3c0.1-0.1,0.2-0.1,0.2-0.1c0,0,0.1,0.1,0.1,0.1c0,0,0,0-0.1,0.1l-1,0.7c-0.7,0.4-1.2,0.7-1.5,0.7c-0.3,0-0.4-0.1-0.4-0.4c0-0.1,0-0.3,0.1-0.5l0-0.2z M34.6,33c-0.1,0-0.2,0-0.3,0c-0.4,0-0.7,0-1,0.1c-0.4,0.5-0.7,0.9-0.9,1.4     c-0.2,0.5-0.3,1.2-0.3,1.6c0,0.4,0.1,0.6,0.4,0.6c0.4,0,1.1-0.4,1.6-1l0.5-2.8z"
           id="path2880" />
      </g>
    </g>
  </g>
</svg>
