<?xml version="1.0" encoding="UTF-8" standalone="no"?>
<!DOCTYPE svg PUBLIC "-//W3C//DTD SVG 20010904//EN"
"http://www.w3.org/TR/2001/REC-SVG-20010904/DTD/svg10.dtd">
<!-- Created with Sodipodi ("http://www.sodipodi.com/") -->
<svg
   width="48pt"
   height="56pt"
   viewBox="0 0 204.755 242.183"
   style="overflow:visible;enable-background:new 0 0 204.755 242.183"
   xml:space="preserve"
   id="svg2555"
   sodipodi:version="0.32pre"
   sodipodi:docname="/home/cschalle/gnome-themes-extras/Nuvola/icons/scalable/mimetypes/gnome-mime-application-pdf.svg"
   sodipodi:docbase="/home/cschalle/gnome-themes-extras/Nuvola/icons/scalable/mimetypes/"
   xmlns="http://www.w3.org/2000/svg"
   xmlns:sodipodi="http://sodipodi.sourceforge.net/DTD/sodipodi-0.dtd"
   xmlns:xml="http://www.w3.org/XML/1998/namespace"
   xmlns:a="http://ns.adobe.com/AdobeSVGViewerExtensions/3.0/"
   xmlns:xlink="http://www.w3.org/1999/xlink">
  <defs
     id="defs2610">
    <linearGradient
       id="XMLID_1_"
       gradientUnits="userSpaceOnUse"
       x1="227.9497"
       y1="263.2354"
       x2="60.8168"
       y2="96.103">
      <stop
         offset="0"
         style="stop-color:#999999"
         id="stop2558" />
      <stop
         offset="1"
         style="stop-color:#CCCCCC"
         id="stop2559" />
      <a:midPointStop
         offset="0"
         style="stop-color:#999999"
         id="midPointStop2560" />
      <a:midPointStop
         offset="0.5"
         style="stop-color:#999999"
         id="midPointStop2561" />
      <a:midPointStop
         offset="1"
         style="stop-color:#CCCCCC"
         id="midPointStop2562" />
    </linearGradient>
    <linearGradient
       id="XMLID_2_"
       gradientUnits="userSpaceOnUse"
       x1="3.3936"
       y1="-0.8843"
       x2="194.0594"
       y2="268.4486">
      <stop
         offset="0"
         style="stop-color:#CCDEED"
         id="stop2565" />
      <stop
         offset="0.2762"
         style="stop-color:#C7DBEB"
         id="stop2566" />
      <stop
         offset="0.5856"
         style="stop-color:#BAD1E6"
         id="stop2567" />
      <stop
         offset="0.9099"
         style="stop-color:#A4C1DD"
         id="stop2568" />
      <stop
         offset="1"
         style="stop-color:#9CBCDA"
         id="stop2569" />
      <a:midPointStop
         offset="0"
         style="stop-color:#CCDEED"
         id="midPointStop2570" />
      <a:midPointStop
         offset="0.6836"
         style="stop-color:#CCDEED"
         id="midPointStop2571" />
      <a:midPointStop
         offset="1"
         style="stop-color:#9CBCDA"
         id="midPointStop2572" />
    </linearGradient>
    <linearGradient
       id="XMLID_3_"
       gradientUnits="userSpaceOnUse"
       x1="3.7124"
       y1="17.002"
       x2="186.3787"
       y2="238.3348">
      <stop
         offset="0"
         style="stop-color:#FFFFFF"
         id="stop2575" />
      <stop
         offset="0.2232"
         style="stop-color:#FAFBFD"
         id="stop2576" />
      <stop
         offset="0.4988"
         style="stop-color:#EBF0F7"
         id="stop2577" />
      <stop
         offset="0.8006"
         style="stop-color:#D2DFED"
         id="stop2578" />
      <stop
         offset="1"
         style="stop-color:#BDD0E5"
         id="stop2579" />
      <a:midPointStop
         offset="0"
         style="stop-color:#FFFFFF"
         id="midPointStop2580" />
      <a:midPointStop
         offset="0.6628"
         style="stop-color:#FFFFFF"
         id="midPointStop2581" />
      <a:midPointStop
         offset="1"
         style="stop-color:#BDD0E5"
         id="midPointStop2582" />
    </linearGradient>
    <linearGradient
       id="XMLID_4_"
       gradientUnits="userSpaceOnUse"
       x1="49.8477"
       y1="68.4077"
       x2="161.4459"
       y2="180.0059">
      <stop
         offset="0"
         style="stop-color:#FFFFFF"
         id="stop2600" />
      <stop
         offset="0.2319"
         style="stop-color:#FAFCFD"
         id="stop2601" />
      <stop
         offset="0.4917"
         style="stop-color:#EDF2F8"
         id="stop2602" />
      <stop
         offset="0.764"
         style="stop-color:#D7E2EF"
         id="stop2603" />
      <stop
         offset="1"
         style="stop-color:#BDD0E5"
         id="stop2604" />
      <a:midPointStop
         offset="0"
         style="stop-color:#FFFFFF"
         id="midPointStop2605" />
      <a:midPointStop
         offset="0.6836"
         style="stop-color:#FFFFFF"
         id="midPointStop2606" />
      <a:midPointStop
         offset="1"
         style="stop-color:#BDD0E5"
         id="midPointStop2607" />
    </linearGradient>
  </defs>
  <sodipodi:namedview
     id="base" />
  <path
     style="font-size:12;fill:url(#XMLID_1_);"
     d="M168.618,0H0v242.183h204.755V39.088l-1.614-2.411    c-9.829-14.695-19.416-25.659-30.169-34.503L170.329,0H168.618z"
     id="path2563" />
  <path
     style="font-size:12;fill:url(#XMLID_2_);"
     d="M166.906,4.775H4.775v232.633h195.206V40.538l-0.808-1.206    c-9.564-14.297-18.854-24.934-29.234-33.471l-1.321-1.087H166.906z"
     id="path2573" />
  <path
     style="font-size:12;fill:url(#XMLID_3_);"
     d="M9.55,9.55c0,8.97,0,214.111,0,223.082c8.861,0,176.793,0,185.654,0    c0-9.022,0-187.817,0-190.644c-9.271-13.861-18.327-24.237-28.299-32.438C163.612,9.55,18.454,9.55,9.55,9.55z"
     id="path2583" />
  <path
     style="font-size:12;opacity:0.5;fill:url(#XMLID_4_);"
     d="M64.162,146.834    c50.264-32.703,95.79-71.175,111.914-128.885c0.445-1.624,0.851-3.241,1.234-4.856c-3.024-3.116-6.115-5.983-9.306-8.646    l-1.313-1.095h-1.698H3.989v201.975C16.365,181.14,42.769,161.106,64.162,146.834z"
     id="path2608" />
  <g
     id="Layer_x0020_5"
     style="fill-rule:nonzero;clip-rule:nonzero;stroke:#000000;stroke-miterlimit:4;"
     transform="matrix(7.63858,0,0,7.48988,-75.6352,-59.2366)">
    <g
       id="g2707">
      <path
         style="fill-rule:evenodd;clip-rule:evenodd;stroke:none;"
         d="M33.7,30.3c0,0.3,0.3,0.6,0.6,0.6c0.3,0,0.6-0.3,0.6-0.6c0-0.3-0.3-0.6-0.6-0.6c-0.3,0-0.6,0.3-0.6,0.6z M33.6,30.3c0-0.4,0.3-0.7,0.7-0.7c0.4,0,0.7,0.3,0.7,0.7c0,0.4-0.3,0.7-0.7,0.7c-0.4,0-0.7-0.3-0.7-0.7z"
         id="path2708" />
      <g
         id="g2709">
        <path
           style="stroke:none;"
           d="M34,30.7V30h0.3c0.1,0,0.1,0,0.1,0c0,0,0.1,0,0.1,0.1c0,0,0,0.1,0,0.1c0,0.1,0,0.1-0.1,0.1c0,0-0.1,0.1-0.2,0.1c0,0,0,0,0.1,0c0,0,0.1,0.1,0.1,0.1l0.1,0.2h-0.1l-0.1-0.2c0,0-0.1-0.1-0.1-0.1c0,0,0,0,0,0c0,0,0,0,0,0c0,0,0,0-0.1,0h-0.1      v0.3H34z M34.1,30.3h0.2c0,0,0.1,0,0.1,0c0,0,0,0,0.1,0c0,0,0,0,0-0.1c0,0,0-0.1,0-0.1c0,0-0.1,0-0.1,0h-0.2v0.2z"
           id="path2710" />
      </g>
    </g>
    <g
       style="opacity:0.35;"
       id="g2711">
      <path
         style="fill:none;stroke:none;"
         d="M23.6,11.2c-2.5,2.2,8.4,21.9,11,16.9c2.9-5.7-26.1,6.3-19.8,8c7.3,1.9,13.5-29,8.8-24.8z"
         id="path2712" />
      <path
         style="stroke:none;"
         d="M22.9,11c-3,3.9,7.1,21.9,11.8,17.7c2.6-2.3-1.1-3-2.9-2.7c-5,0.9-10.1,3-14.5,5.5c-0.9,0.5-6.4,3.5-3.7,5c3.1,1.7,6.1-2.8,7.2-4.8c2.9-5,4.4-11.3,4.9-17.1c0.2-1.8,0.1-6-2.7-3.9c-0.9,0.7-0.3,1.6,0.6,0.9c0.4-0.3,0.3,5,0.2,5.5     c-0.5,3.4-1.4,6.7-2.5,10c-1,2.7-2.4,6.8-5.1,8.2c-2.1,1.1-1.5-0.8-0.5-1.5c1.2-0.9,2.6-1.6,3.9-2.2c2.8-1.4,5.7-2.5,8.7-3.4c1.1-0.4,2.3-0.6,3.5-0.8c1.9-0.3,2,1.3,0.7,0.5c-2.6-1.5-4.4-5.1-5.8-7.6c-0.9-1.6-4.2-7-2.8-8.9c0.7-0.9-0.8-0.9-1.3-0.3z"
         id="path2713" />
    </g>
    <g
       id="g2714">
      <path
         style="fill:none;stroke:none;"
         d="M22.6,10.7c-2.5,2.2,8.4,21.9,11,16.9c2.9-5.7-26.1,6.3-19.8,8c7.3,1.9,13.5-29,8.8-24.8z"
         id="path2715" />
      <path
         style="fill:#F8310E;stroke:none;"
         d="M21.9,10.6c-3,3.9,7.1,21.9,11.8,17.7c2.6-2.3-1.1-3-2.9-2.7c-5,0.9-10.1,3-14.5,5.5c-0.9,0.5-6.4,3.5-3.7,5c3.1,1.7,6.1-2.8,7.2-4.8c2.9-5,4.4-11.3,4.9-17.1c0.2-1.8,0.1-6-2.7-3.9c-0.9,0.7-0.3,1.6,0.6,0.9c0.4-0.3,0.3,5,0.2,5.5     c-0.5,3.4-1.4,6.7-2.5,10c-1,2.7-2.4,6.8-5.1,8.2c-2.1,1.1-1.5-0.8-0.5-1.5c1.2-0.9,2.6-1.6,3.9-2.2c2.8-1.4,5.7-2.5,8.7-3.4c1.1-0.4,2.3-0.6,3.5-0.8c1.9-0.3,2,1.3,0.7,0.5c-2.6-1.5-4.4-5.1-5.8-7.6c-0.9-1.6-4.2-7-2.8-8.9c0.7-0.9-0.8-0.9-1.3-0.3z"
         id="path2716" />
    </g>
  </g>
</svg>
