<?xml version="1.0" encoding="UTF-8" standalone="no"?>
<!DOCTYPE svg PUBLIC "-//W3C//DTD SVG 20010904//EN"
"http://www.w3.org/TR/2001/REC-SVG-20010904/DTD/svg10.dtd">
<!-- Created with Sodipodi ("http://www.sodipodi.com/") -->
<svg
   i:viewOrigin="178 524"
   i:rulerOrigin="-178 -268"
   i:pageBounds="178 524 434 268"
   width="48pt"
   height="48pt"
   viewBox="0 0 256 256"
   style="overflow:visible;enable-background:new 0 0 256 256"
   xml:space="preserve"
   xmlns="http://www.w3.org/2000/svg"
   xmlns:ns="&amp;ns_vars;"
   xmlns:i="&amp;ns_ai;"
   xmlns:xml="http://www.w3.org/XML/1998/namespace"
   xmlns:a="http://ns.adobe.com/AdobeSVGViewerExtensions/3.0/"
   xmlns:sodipodi="http://sodipodi.sourceforge.net/DTD/sodipodi-0.dtd"
   xmlns:xlink="http://www.w3.org/1999/xlink"
   id="svg153"
   sodipodi:version="0.32pre"
   sodipodi:docname="/home/cschalle/gnome-themes-extras/Nuvola/icons/scalable/mimetypes/gnome-mime-application-pgp.svg"
   sodipodi:docbase="/home/cschalle/gnome-themes-extras/Nuvola/icons/scalable/mimetypes">
  <defs
     id="defs192">
    <linearGradient
       id="XMLID_1_"
       gradientUnits="userSpaceOnUse"
       x1="23"
       y1="130"
       x2="233"
       y2="130">
      <stop
         offset="0"
         style="stop-color:#A7ABAC"
         id="stop158" />
      <stop
         offset="1"
         style="stop-color:#85898A"
         id="stop159" />
      <a:midPointStop
         offset="0"
         style="stop-color:#A7ABAC"
         id="midPointStop160" />
      <a:midPointStop
         offset="0.5"
         style="stop-color:#A7ABAC"
         id="midPointStop161" />
      <a:midPointStop
         offset="1"
         style="stop-color:#85898A"
         id="midPointStop162" />
    </linearGradient>
    <linearGradient
       id="XMLID_2_"
       gradientUnits="userSpaceOnUse"
       x1="84.5029"
       y1="86.5029"
       x2="321.5015"
       y2="323.5015">
      <stop
         offset="0"
         style="stop-color:#FFFFFF"
         id="stop166" />
      <stop
         offset="1"
         style="stop-color:#99CCFF"
         id="stop167" />
      <a:midPointStop
         offset="0"
         style="stop-color:#FFFFFF"
         id="midPointStop168" />
      <a:midPointStop
         offset="0.5"
         style="stop-color:#FFFFFF"
         id="midPointStop169" />
      <a:midPointStop
         offset="1"
         style="stop-color:#99CCFF"
         id="midPointStop170" />
    </linearGradient>
    <radialGradient
       id="XMLID_3_"
       cx="91.5063"
       cy="89.4985"
       r="149.2253"
       fx="91.5063"
       fy="89.4985"
       gradientUnits="userSpaceOnUse">
      <stop
         offset="0"
         style="stop-color:#3399FF"
         id="stop174" />
      <stop
         offset="1"
         style="stop-color:#0066CC"
         id="stop175" />
      <a:midPointStop
         offset="0"
         style="stop-color:#3399FF"
         id="midPointStop176" />
      <a:midPointStop
         offset="0.5"
         style="stop-color:#3399FF"
         id="midPointStop177" />
      <a:midPointStop
         offset="1"
         style="stop-color:#0066CC"
         id="midPointStop178" />
    </radialGradient>
    <radialGradient
       id="XMLID_4_"
       cx="53.7324"
       cy="47.9302"
       r="74.9396"
       fx="53.7324"
       fy="47.9302"
       gradientUnits="userSpaceOnUse">
      <stop
         offset="0"
         style="stop-color:#FF9966"
         id="stop181" />
      <stop
         offset="1"
         style="stop-color:#FF6633"
         id="stop182" />
      <a:midPointStop
         offset="0"
         style="stop-color:#FF9966"
         id="midPointStop183" />
      <a:midPointStop
         offset="0.5"
         style="stop-color:#FF9966"
         id="midPointStop184" />
      <a:midPointStop
         offset="1"
         style="stop-color:#FF6633"
         id="midPointStop185" />
    </radialGradient>
  </defs>
  <sodipodi:namedview
     id="base" />
  <metadata
     id="metadata154">
    <ns:variableSets>
      <ns:variableSet
         varSetName="binding1"
         locked="none">
        <ns:variables />
        <ns:sampleDataSets />
      </ns:variableSet>
    </ns:variableSets>
  </metadata>
  <path
     i:knockout="Off"
     style="font-size:12;opacity:0.2;"
     d="M49,19c-9.374,0-17,7.626-17,17v200c0,9.374,7.626,17,17,17h176c9.374,0,17-7.626,17-17    V36c0-9.374-7.626-17-17-17H49z"
     id="path156" />
  <path
     i:knockout="Off"
     style="font-size:12;fill:url(#XMLID_1_);"
     d="M40,13c-9.374,0-17,7.626-17,17v200c0,9.374,7.626,17,17,17h176c9.374,0,17-7.626,17-17    V30c0-9.374-7.626-17-17-17H40z"
     id="path163" />
  <path
     i:knockout="Off"
     style="font-size:12;fill:#99ccff;"
     d="M28,230c0,6.627,5.373,12,12,12h176c6.627,0,12-5.373,12-12V30c0-6.627-5.373-12-12-12H40    c-6.627,0-12,5.373-12,12V230z"
     id="path164" />
  <path
     i:knockout="Off"
     style="font-size:12;fill:url(#XMLID_2_);"
     d="M40,23c-3.859,0-7,3.14-7,7v200c0,3.859,3.141,7,7,7h176c3.859,0,7-3.141,7-7V30    c0-3.86-3.141-7-7-7H40z"
     id="path171" />
  <g
     id="Layer_2"
     i:layer="yes"
     i:editable="no"
     i:dimmedPercent="50"
     i:rgbTrio="#FFFF4F004F00"
     style="stroke:#000000;">
    <path
       i:knockout="Off"
       style="fill:none;stroke:none;"
       d="M256,256H0V0h256V256z"
       id="path190" />
  </g>
  <path
     i:knockout="Off"
     style="font-size:12;opacity:0.4;fill:#ffffff;"
     d="M163,108c18.593-17.431,40.938-26.006,65-30.265V30c0-6.627-5.373-12-12-12H40    c-6.627,0-12,5.373-12,12v143.268C77.582,177.009,124.478,142.51,163,108z"
     id="path172"
     transform="translate(0.611008,1.22186)" />
  <g
     id="Layer_x0020_3"
     style="fill-rule:nonzero;clip-rule:nonzero;stroke:#000000;stroke-miterlimit:4;overflow:visible;enable-background:new 0 0 204.755 242.183;"
     transform="matrix(6.04384,0,0,5.53097,-16.2777,3.64973)">
    <path
       style="stroke:none;"
       d="M16.7,18.8c0,0,0,1.2,0,2.2c-1.3,0.1-2.4,1.3-2.4,2.6v10.6c0,1.5,1.2,2.6,2.6,2.6h14.3c1.5,0,2.6-1.2,2.6-2.6V23.5c0-1.3-1-2.4-2.2-2.6c0-0.9,0-2.2,0-2.2c0-4.1-3.4-7.5-7.5-7.5c-4.1,0-7.5,3.4-7.5,7.5z M21.4,18.8c0-1.5,1.2-2.8,2.8-2.8    c1.5,0,2.8,1.2,2.8,2.8c0,0,0,1.2,0,2.1c-1.3,0-4.3,0-5.6,0c0-0.9,0-2.1,0-2.1z"
       id="path2783" />
    <path
       style="fill:#D2D2D2;stroke:none;"
       d="M17.6,18.7v6.1h2.8v-6.1c0-2.1,1.7-3.8,3.8-3.8s3.8,1.7,3.8,3.8v6.1h2.8v-6.1c0-3.6-2.9-6.5-6.5-6.5s-6.5,2.9-6.5,6.5z"
       id="path2784" />
    <g
       id="g2785">
      <path
         style="opacity:0.5;stroke:none;"
         d="M24.6,12.6c3.3-0.1,5.9,2.3,6.1,6v6.1h-0.6V19c0-3.6-2.5-6.1-5.5-6.4z"
         id="path2786" />
    </g>
    <g
       id="g2787">
      <path
         style="opacity:0.5;fill:#FFFFFF;stroke:none;"
         d="M24.6,12.6c1.3,0,2.6,0.4,3.6,1.1c-1.1-0.9-2.6-1.5-4.2-1.5c-3.6,0-6.5,2.9-6.5,6.5v6.1h0.6v-5.7c0-3.6,2.9-6.5,6.5-6.5z"
         id="path2788" />
    </g>
    <g
       id="g2789">
      <path
         style="opacity:0.5;fill:#FFFFFF;stroke:none;"
         d="M28.4,24.7v-5.8c0-1.5-0.9-2.8-2.1-3.4c1,0.7,1.6,1.8,1.6,3.1v6.1h0.5z"
         id="path2790" />
    </g>
    <g
       id="g2791">
      <path
         style="opacity:0.5;stroke:none;"
         d="M20,24.8v-5.8c0-1.5,0.9-2.8,2.1-3.4c-1,0.7-1.6,1.8-1.6,3.1v6.1H20z"
         id="path2792" />
    </g>
    <linearGradient
       id="aigrd5"
       gradientUnits="userSpaceOnUse"
       x1="16.3872"
       y1="28.7354"
       x2="32.0992"
       y2="28.7354">
      <stop
         offset="0"
         style="stop-color:#F6EDC8"
         id="stop2794" />
      <stop
         offset="1.444304e-002"
         style="stop-color:#F3EAC0"
         id="stop2795" />
      <stop
         offset="7.716820e-002"
         style="stop-color:#E8DEA3"
         id="stop2796" />
      <stop
         offset="0.1471"
         style="stop-color:#E1D48F"
         id="stop2797" />
      <stop
         offset="0.2271"
         style="stop-color:#DACD81"
         id="stop2798" />
      <stop
         offset="0.3259"
         style="stop-color:#D7CA78"
         id="stop2799" />
      <stop
         offset="0.5"
         style="stop-color:#D6C876"
         id="stop2800" />
      <stop
         offset="0.7061"
         style="stop-color:#D3C575"
         id="stop2801" />
      <stop
         offset="0.7987"
         style="stop-color:#CABE70"
         id="stop2802" />
      <stop
         offset="0.8686"
         style="stop-color:#BAAF67"
         id="stop2803" />
      <stop
         offset="0.9271"
         style="stop-color:#A49B5C"
         id="stop2804" />
      <stop
         offset="0.9779"
         style="stop-color:#8A844E"
         id="stop2805" />
      <stop
         offset="1"
         style="stop-color:#7D7746"
         id="stop2806" />
    </linearGradient>
    <path
       style="fill:url(#aigrd5);stroke:none;"
       d="M32.9,34c0,0.9-0.7,1.7-1.7,1.7H16.9c-0.9,0-1.7-0.7-1.7-1.7V23.4c0-0.9,0.7-1.7,1.7-1.7h14.3c0.9,0,1.7,0.7,1.7,1.7V34z"
       id="path2807" />
    <path
       style="opacity:0.5;fill:#FFFFFF;stroke:none;"
       d="M26.8,26.9c0-1.1-1.1-2.2-2.2-2.2s-1.7,1.1-1.7,2.2c0,0.8,0.5,1.5,1.2,1.8l-1.7,2.9l4.3,0.3l-1.2-3.2c0.7-0.3,1.2-1,1.2-1.8z"
       id="path2808" />
    <path
       style="opacity:0.5;stroke:none;"
       d="M26.4,26.5c0-1.1-1-2.3-2.4-2.3c-1.1,0-1.9,0.9-1.9,1.9c0,1.2,0.6,1.9,1.3,2.2l-0.9,3.3l3.5-0.4L24.7,28c0.7-0.3,1.7-0.7,1.7-1.5z"
       id="path2809" />
    <path
       style="stroke:none;"
       d="M26.4,26.6c0-1.1-0.9-1.9-1.9-1.9s-1.9,0.9-1.9,1.9c0,0.8,0.5,1.5,1.2,1.8l-1.2,3.2h3.9l-1.2-3.2c0.7-0.3,1.2-1,1.2-1.8z"
       id="path2810" />
    <path
       style="opacity:0.5;stroke:none;"
       d="M16.9,35.7c0,0,13.5,0,14.3,0c0.9,0,1.7-0.7,1.7-1.7c0-0.9,0-10.6,0-10.6s-1,9.6-1.1,10.1c-0.1,0.5-0.5,1.2-1.2,1.2c-0.6,0-13.7,0.9-13.7,0.9z"
       id="path2811" />
    <path
       style="opacity:0.5;fill:#FFFFFF;stroke:none;"
       d="M31.2,21.8c0,0-13.5,0-14.3,0c-0.9,0-1.7,0.7-1.7,1.7s0,10.6,0,10.6s1-9.6,1.1-10.1c0.1-0.4,0.5-1.2,1.2-1.2c0.6,0,13.7-0.9,13.7-0.9z"
       id="path2812" />
  </g>
</svg>
