<?xml version="1.0" encoding="UTF-8" standalone="no"?>
<!DOCTYPE svg PUBLIC "-//W3C//DTD SVG 20010904//EN"
"http://www.w3.org/TR/2001/REC-SVG-20010904/DTD/svg10.dtd">
<!-- Created with Sodipodi ("http://www.sodipodi.com/") -->
<svg
   width="48pt"
   height="48pt"
   viewBox="0 0 256 256"
   overflow="visible"
   enable-background="new 0 0 256 256"
   xml:space="preserve"
   xmlns="http://www.w3.org/2000/svg"
   xmlns:xml="http://www.w3.org/XML/1998/namespace"
   xmlns:a="http://ns.adobe.com/AdobeSVGViewerExtensions/3.0/"
   xmlns:sodipodi="http://sodipodi.sourceforge.net/DTD/sodipodi-0.dtd"
   xmlns:xlink="http://www.w3.org/1999/xlink"
   id="svg153"
   sodipodi:version="0.32pre"
   sodipodi:docname="/home/cschalle/gnome-themes-extras/Nuvola/icons/scalable/mimetypes/gnome-mime-application-x-font-ttf.svg"
   sodipodi:docbase="/home/cschalle/gnome-themes-extras/Nuvola/icons/scalable/mimetypes">
  <defs
     id="defs179" />
  <sodipodi:namedview
     id="base" />
  <g
     id="Layer_3"
     stroke="#000000">
    <path
       opacity="0.2"
       stroke="none"
       d="M49,19c-9.374,0-17,7.626-17,17v200c0,9.374,7.626,17,17,17h176c9.374,0,17-7.626,17-17V36    c0-9.374-7.626-17-17-17H49z"
       id="path155" />
    <linearGradient
       id="XMLID_1_"
       gradientUnits="userSpaceOnUse"
       x1="23"
       y1="130"
       x2="233"
       y2="130">
      <stop
         offset="0"
         style="stop-color:#A7ABAC"
         id="stop157" />
      <stop
         offset="1"
         style="stop-color:#85898A"
         id="stop158" />
      <a:midPointStop
         offset="0"
         style="stop-color:#A7ABAC"
         id="midPointStop159" />
      <a:midPointStop
         offset="0.5"
         style="stop-color:#A7ABAC"
         id="midPointStop160" />
      <a:midPointStop
         offset="1"
         style="stop-color:#85898A"
         id="midPointStop161" />
    </linearGradient>
    <path
       fill="url(#XMLID_1_)"
       stroke="none"
       d="M40,13c-9.374,0-17,7.626-17,17v200c0,9.374,7.626,17,17,17h176    c9.374,0,17-7.626,17-17V30c0-9.374-7.626-17-17-17H40z"
       id="path162" />
    <path
       fill="#99CCFF"
       stroke="none"
       d="M28,230c0,6.627,5.373,12,12,12h176c6.627,0,12-5.373,12-12V30c0-6.627-5.373-12-12-12H40    c-6.627,0-12,5.373-12,12V230z"
       id="path163" />
    <linearGradient
       id="XMLID_2_"
       gradientUnits="userSpaceOnUse"
       x1="84.5029"
       y1="86.5029"
       x2="321.5015"
       y2="323.5015">
      <stop
         offset="0"
         style="stop-color:#FFFFFF"
         id="stop165" />
      <stop
         offset="1"
         style="stop-color:#99CCFF"
         id="stop166" />
      <a:midPointStop
         offset="0"
         style="stop-color:#FFFFFF"
         id="midPointStop167" />
      <a:midPointStop
         offset="0.5"
         style="stop-color:#FFFFFF"
         id="midPointStop168" />
      <a:midPointStop
         offset="1"
         style="stop-color:#99CCFF"
         id="midPointStop169" />
    </linearGradient>
    <path
       fill="url(#XMLID_2_)"
       stroke="none"
       d="M40,23c-3.859,0-7,3.14-7,7v200c0,3.859,3.141,7,7,7h176c3.859,0,7-3.141,7-7V30    c0-3.86-3.141-7-7-7H40z"
       id="path170" />
    <path
       opacity="0.4"
       fill="#FFFFFF"
       stroke="none"
       d="M163,108c18.593-17.431,40.938-26.006,65-30.265V30c0-6.627-5.373-12-12-12    H40c-6.627,0-12,5.373-12,12v143.268C77.582,177.009,124.478,142.51,163,108z"
       id="path171" />
    <g
       id="g172">
      <path
         stroke="none"
         d="M85.85,89.503v17.4h18.9v10.05h-18.9v39.15c0,9,2.55,14.101,9.9,14.101c3.6,0,5.7-0.3,7.65-0.9l0.6,10.05     c-2.55,0.9-6.6,1.801-11.7,1.801c-6.15,0-11.1-2.101-14.25-5.551c-3.6-4.05-5.1-10.5-5.1-19.05v-39.601H61.7v-10.05h11.25v-13.35     L85.85,89.503z"
         id="path173" />
    </g>
    <g
       id="g174">
      <path
         fill="#0066CC"
         stroke="none"
         d="M140.25,183.949v-88.5H108v-20.5h92v20.5h-32.25v88.5H140.25z"
         id="path175" />
    </g>
  </g>
  <g
     id="Layer_2"
     stroke="#000000">
    <path
       fill="none"
       stroke="none"
       d="M256,256H0V0h256V256z"
       id="path177" />
  </g>
</svg>
