<?xml version="1.0" encoding="UTF-8" standalone="no"?>
<!DOCTYPE svg PUBLIC "-//W3C//DTD SVG 20010904//EN"
"http://www.w3.org/TR/2001/REC-SVG-20010904/DTD/svg10.dtd">
<!-- Created with Sodipodi ("http://www.sodipodi.com/") -->
<svg
   i:viewOrigin="178 524"
   i:rulerOrigin="-178 -268"
   i:pageBounds="178 524 434 268"
   width="48pt"
   height="48pt"
   viewBox="0 0 256 256"
   style="overflow:visible;enable-background:new 0 0 256 256"
   xml:space="preserve"
   xmlns="http://www.w3.org/2000/svg"
   xmlns:ns="&amp;ns_vars;"
   xmlns:i="&amp;ns_ai;"
   xmlns:xml="http://www.w3.org/XML/1998/namespace"
   xmlns:a="http://ns.adobe.com/AdobeSVGViewerExtensions/3.0/"
   xmlns:sodipodi="http://sodipodi.sourceforge.net/DTD/sodipodi-0.dtd"
   xmlns:xlink="http://www.w3.org/1999/xlink"
   id="svg153"
   sodipodi:version="0.32pre"
   sodipodi:docname="/home/cschalle/gnome-themes-extras/Nuvola/icons/scalable/mimetypes/gnome-mime-application-vnd.sun.xml.calc.svg"
   sodipodi:docbase="/home/cschalle/gnome-themes-extras/Nuvola/icons/scalable/mimetypes">
  <defs
     id="defs184" />
  <sodipodi:namedview
     id="base" />
  <metadata
     id="metadata154">
    <ns:variableSets>
      <ns:variableSet
         varSetName="binding1"
         locked="none">
        <ns:variables />
        <ns:sampleDataSets />
      </ns:variableSet>
    </ns:variableSets>
  </metadata>
  <g
     id="Layer_3"
     i:layer="yes"
     i:dimmedPercent="50"
     i:rgbTrio="#4F00FFFF4F00"
     style="stroke:#000000;">
    <path
       i:knockout="Off"
       style="opacity:0.2;stroke:none;"
       d="M49,19c-9.374,0-17,7.626-17,17v200c0,9.374,7.626,17,17,17h176c9.374,0,17-7.626,17-17    V36c0-9.374-7.626-17-17-17H49z"
       id="path156" />
    <linearGradient
       id="XMLID_1_"
       gradientUnits="userSpaceOnUse"
       x1="23"
       y1="130"
       x2="233"
       y2="130">
      <stop
         offset="0"
         style="stop-color:#A7ABAC"
         id="stop158" />
      <stop
         offset="1"
         style="stop-color:#85898A"
         id="stop159" />
      <a:midPointStop
         offset="0"
         style="stop-color:#A7ABAC"
         id="midPointStop160" />
      <a:midPointStop
         offset="0.5"
         style="stop-color:#A7ABAC"
         id="midPointStop161" />
      <a:midPointStop
         offset="1"
         style="stop-color:#85898A"
         id="midPointStop162" />
    </linearGradient>
    <path
       i:knockout="Off"
       style="fill:url(#XMLID_1_);stroke:none;"
       d="M40,13c-9.374,0-17,7.626-17,17v200c0,9.374,7.626,17,17,17h176c9.374,0,17-7.626,17-17    V30c0-9.374-7.626-17-17-17H40z"
       id="path163" />
    <path
       i:knockout="Off"
       style="fill:#99CCFF;stroke:none;"
       d="M28,230c0,6.627,5.373,12,12,12h176c6.627,0,12-5.373,12-12V30c0-6.627-5.373-12-12-12H40    c-6.627,0-12,5.373-12,12V230z"
       id="path164" />
    <linearGradient
       id="XMLID_2_"
       gradientUnits="userSpaceOnUse"
       x1="84.5029"
       y1="86.5029"
       x2="321.5015"
       y2="323.5015">
      <stop
         offset="0"
         style="stop-color:#FFFFFF"
         id="stop166" />
      <stop
         offset="1"
         style="stop-color:#99CCFF"
         id="stop167" />
      <a:midPointStop
         offset="0"
         style="stop-color:#FFFFFF"
         id="midPointStop168" />
      <a:midPointStop
         offset="0.5"
         style="stop-color:#FFFFFF"
         id="midPointStop169" />
      <a:midPointStop
         offset="1"
         style="stop-color:#99CCFF"
         id="midPointStop170" />
    </linearGradient>
    <path
       i:knockout="Off"
       style="fill:url(#XMLID_2_);stroke:none;"
       d="M40,23c-3.859,0-7,3.14-7,7v200c0,3.859,3.141,7,7,7h176c3.859,0,7-3.141,7-7V30    c0-3.86-3.141-7-7-7H40z"
       id="path171" />
    <path
       i:knockout="Off"
       style="opacity:0.4;fill:#FFFFFF;stroke:none;"
       d="M163,108c18.593-17.431,40.938-26.006,65-30.265V30c0-6.627-5.373-12-12-12H40    c-6.627,0-12,5.373-12,12v143.268C77.582,177.009,124.478,142.51,163,108z"
       id="path172" />
    <path
       i:knockout="Off"
       style="opacity:0.4;fill:#999999;stroke:none;"
       d="M111.228,72.608c0.009-0.122,0.022-0.243,0.035-0.364    c-2.228-11.406-19.381-19.576-39.741-18.521c-10.893,0.564-20.601,3.661-27.436,8.19c3.945-0.563,8.041-0.965,12.246-1.183    C80.08,59.501,100.927,64.422,111.228,72.608z M111.228,72.608c-0.008,0.099-0.023,0.196-0.028,0.295    c9.35-9.263,29.647-16.361,53.49-17.596c4.207-0.218,8.321-0.243,12.304-0.09c-7.267-3.799-17.243-5.875-28.136-5.311    c-20.248,1.049-36.399,10.845-37.595,22.338c0.03,0.154,0.069,0.307,0.093,0.462C111.314,72.674,111.269,72.642,111.228,72.608z     M87.92,86.102c-16.121,2.354-30.131,8.308-39.667,15.994c5.79-1.386,11.825-2.552,18.051-3.46    c35.148-5.131,66.839-0.713,83.298,10.031c-0.003-0.183-0.001-0.366,0.001-0.549C144.701,91.466,118.054,81.702,87.92,86.102z     M228,75.329v-6c-7.895-1.02-16.583-0.972-25.585,0.342c-29.968,4.375-52.628,21.189-52.813,38.448    c0.066,0.227,0.146,0.449,0.204,0.678c-0.066-0.044-0.138-0.085-0.205-0.129c0.003,0.148-0.007,0.296-0.001,0.444    c12.618-15.075,41.822-28.456,77.113-33.608C227.145,75.439,227.57,75.389,228,75.329z"
       id="path173" />
    <g
       id="g174">
      <g
         id="g175">
        <path
           i:knockout="Off"
           style="stroke:none;"
           d="M56.718,86.636c-6.226,0.908-12.261,2.074-18.051,3.46      c9.536-7.687,23.546-13.641,39.667-15.994c30.544-4.459,57.521,5.627,61.887,22.694C123.819,85.957,92.009,81.483,56.718,86.636      z"
           id="path176" />
        <path
           i:knockout="Off"
           style="stroke:none;"
           d="M217.128,63.502c6.226-0.909,12.343-1.518,18.286-1.845      c-11.335-4.64-26.462-6.341-42.585-3.987c-30.542,4.459-53.511,21.838-52.814,39.44      C152.633,82.035,181.837,68.654,217.128,63.502z"
           id="path177" />
      </g>
      <g
         id="g178">
        <path
           i:knockout="Off"
           style="stroke:none;"
           d="M46.746,48.731c-4.205,0.218-8.301,0.62-12.246,1.183      c6.835-4.529,16.543-7.625,27.436-8.19c20.635-1.069,37.988,7.334,39.834,18.983C91.514,52.461,70.59,47.496,46.746,48.731z"
           id="path179" />
        <path
           i:knockout="Off"
           style="stroke:none;"
           d="M155.104,43.307c4.207-0.218,8.321-0.243,12.304-0.09      c-7.267-3.799-17.243-5.875-28.136-5.311c-20.635,1.069-37.025,11.221-37.658,22.997      C110.963,51.641,131.261,44.542,155.104,43.307z"
           id="path180" />
      </g>
    </g>
  </g>
  <g
     id="Layer_2"
     i:layer="yes"
     i:editable="no"
     i:dimmedPercent="50"
     i:rgbTrio="#FFFF4F004F00"
     style="stroke:#000000;">
    <path
       i:knockout="Off"
       style="fill:none;stroke:none;"
       d="M256,256H0V0h256V256z"
       id="path182" />
  </g>
  <g
     id="Layer_x0020_4"
     style="fill-rule:nonzero;clip-rule:nonzero;stroke:#000000;stroke-miterlimit:4;overflow:visible;enable-background:new 0 0 204.755 242.183;"
     transform="matrix(4.06948,0,0,5.07073,50.4788,10.2628)">
    <path
       style="stroke:none;"
       d="M18,26.1c-2.5,1.6-3.8,3.7-3.8,6V34c0,2.3,1.4,4.4,3.8,6c2.3,1.5,5.4,2.3,8.7,2.3s6.4-0.8,8.7-2.3c2.5-1.6,3.8-3.7,3.8-6v-1.9c0-2.3-1.4-4.4-3.8-6c-2.3-1.5-5.4-2.3-8.7-2.3s-6.4,0.8-8.7,2.3z"
       id="path2923" />
    <linearGradient
       id="aigrd5"
       gradientUnits="userSpaceOnUse"
       x1="23.1299"
       y1="28.4551"
       x2="30.7306"
       y2="39.3769">
      <stop
         offset="0"
         style="stop-color:#C09287"
         id="stop2925" />
      <stop
         offset="1"
         style="stop-color:#803926"
         id="stop2926" />
    </linearGradient>
    <path
       style="fill:url(#aigrd5);stroke:none;"
       d="M37.8,31.7c-1.3-3.1-5.8-5.4-11.2-5.4c-5.4,0-9.9,2.3-11.2,5.4H15v1.9c0,4,5.2,7.3,11.6,7.3c6.4,0,11.6-3.3,11.6-7.3v-1.9h-0.4z"
       id="path2927" />
    <linearGradient
       id="aigrd6"
       gradientUnits="userSpaceOnUse"
       x1="22.9824"
       y1="26.5303"
       x2="30.6377"
       y2="37.5305">
      <stop
         offset="0"
         style="stop-color:#C1553A"
         id="stop2929" />
      <stop
         offset="1"
         style="stop-color:#803926"
         id="stop2930" />
    </linearGradient>
    <path
       style="fill:url(#aigrd6);stroke:none;"
       d="M38.2,31.7c0,4-5.2,7.3-11.6,7.3C20.2,39,15,35.8,15,31.7c0-4,5.2-7.3,11.6-7.3c6.4,0,11.6,3.3,11.6,7.3z"
       id="path2931" />
    <linearGradient
       id="aigrd7"
       gradientUnits="userSpaceOnUse"
       x1="25.0083"
       y1="31.0586"
       x2="35.2443"
       y2="36.693">
      <stop
         offset="0"
         style="stop-color:#2C7894"
         id="stop2933" />
      <stop
         offset="1"
         style="stop-color:#0E3D47"
         id="stop2934" />
    </linearGradient>
    <path
       style="fill:url(#aigrd7);stroke:none;"
       d="M38.2,33.9l0-2c-1.3,4.1-4.1,5.9-7.6,6.7v1.8c3.8-0.9,7.3-3,7.6-6.6z"
       id="path2935" />
    <linearGradient
       id="aigrd8"
       gradientUnits="userSpaceOnUse"
       x1="22.5342"
       y1="24.6768"
       x2="34.7292"
       y2="35.4963">
      <stop
         offset="0"
         style="stop-color:#3FA6CC"
         id="stop2937" />
      <stop
         offset="1"
         style="stop-color:#00687A"
         id="stop2938" />
    </linearGradient>
    <path
       style="fill:url(#aigrd8);stroke:none;"
       d="M38.2,31.7c-0.3,4.7-6.3,6.8-7.7,6.9l-3.9-6.9h11.6z"
       id="path2939" />
    <linearGradient
       id="aigrd9"
       gradientUnits="userSpaceOnUse"
       x1="13.7178"
       y1="33.332"
       x2="28.9775"
       y2="40.4669">
      <stop
         offset="0"
         style="stop-color:#E8F066"
         id="stop2941" />
      <stop
         offset="1"
         style="stop-color:#777A34"
         id="stop2942" />
    </linearGradient>
    <path
       style="fill:url(#aigrd9);stroke:none;"
       d="M24.2,40.8v-1.9c2.2,0.3,4.2,0.3,6.3-0.2l0,1.8c-1.8,0.6-4.6,0.6-6.4,0.3z"
       id="path2943" />
    <linearGradient
       id="aigrd10"
       gradientUnits="userSpaceOnUse"
       x1="17.6802"
       y1="28.9941"
       x2="30.6989"
       y2="39.6292">
      <stop
         offset="0"
         style="stop-color:#E8F066"
         id="stop2945" />
      <stop
         offset="1"
         style="stop-color:#949941"
         id="stop2946" />
    </linearGradient>
    <path
       style="fill:url(#aigrd10);stroke:none;"
       d="M26.6,31.7l3.9,6.9c-2.4,0.9-6.3,0.3-6.3,0.3l2.4-7.1z"
       id="path2947" />
    <path
       style="opacity:0.45;fill:#ECCFC7;stroke:none;"
       d="M34.3,26.3c0,0,4.1,2.2,3.8,5.7c-0.3,3.5-5.5,8.1-14.1,6.8c8.6,0.5,13.2-3.9,13.6-6.7c0.3-2.8-1.7-4.6-3.3-5.8z"
       id="path2948" />
    <path
       style="fill:#EDA18C;stroke:none;"
       d="M22.9,38.6c-3.4-0.6-8-3.3-7.8-7.1c0.1-3.6,5-7.8,13.8-7c-8.6-0.4-13.1,3.6-13.3,6.8c-0.2,3,3.6,6.5,7.3,7.3z"
       id="path2949" />
  </g>
</svg>
