<?xml version="1.0" encoding="UTF-8" standalone="no"?>
<!DOCTYPE svg PUBLIC "-//W3C//DTD SVG 20010904//EN"
"http://www.w3.org/TR/2001/REC-SVG-20010904/DTD/svg10.dtd">
<!-- Created with Sodipodi ("http://www.sodipodi.com/") -->
<svg
   version="1"
   x="0.00000000"
   y="0.00000000"
   width="48pt"
   height="48pt"
   viewBox="0 0 256 256"
   id="svg1005"
   xmlns="http://www.w3.org/2000/svg"
   xmlns:sodipodi="http://sodipodi.sourceforge.net/DTD/sodipodi-0.dtd"
   xmlns:xlink="http://www.w3.org/1999/xlink"
   sodipodi:version="0.32pre"
   sodipodi:docname="/home/cschalle/gnome-themes-extras/Nuvola/icons/scalable/mimetypes/gnome-mime-application-x-rpm.svg"
   sodipodi:docbase="/home/cschalle/gnome-themes-extras/Nuvola/icons/scalable/mimetypes">
  <sodipodi:namedview
     id="base" />
  <defs
     id="defs1062">
    <linearGradient
       x1="93.1909027"
       y1="59.7323990"
       x2="190.188400"
       y2="266.727509"
       id="XMLID_1_"
       gradientUnits="userSpaceOnUse"
       spreadMethod="pad">
      <stop
         style="stop-color:#fd993e;stop-opacity:1;"
         offset="0.00000000"
         id="stop1009" />
      <stop
         style="stop-color:#e67901;stop-opacity:1;"
         offset="1.00000000"
         id="stop1010" />
      <midPointStop
         offset="0"
         style="stop-color:#FD993E"
         id="midPointStop1011" />
      <midPointStop
         offset="0.5"
         style="stop-color:#FD993E"
         id="midPointStop1012" />
      <midPointStop
         offset="1"
         style="stop-color:#E67901"
         id="midPointStop1013" />
    </linearGradient>
    <linearGradient
       x1="125.890602"
       y1="159.998505"
       x2="125.890602"
       y2="19.0004005"
       id="XMLID_2_"
       gradientUnits="userSpaceOnUse"
       spreadMethod="pad">
      <stop
         style="stop-color:#ffff73;stop-opacity:1;"
         offset="0.00000000"
         id="stop1021" />
      <stop
         style="stop-color:#fff7e2;stop-opacity:1;"
         offset="1.00000000"
         id="stop1022" />
      <midPointStop
         offset="0"
         style="stop-color:#FFFF73"
         id="midPointStop1023" />
      <midPointStop
         offset="0.5"
         style="stop-color:#FFFF73"
         id="midPointStop1024" />
      <midPointStop
         offset="1"
         style="stop-color:#FFF7E2"
         id="midPointStop1025" />
    </linearGradient>
    <linearGradient
       x1="126.540001"
       y1="104.224602"
       x2="45.5433998"
       y2="176.221497"
       id="XMLID_3_"
       gradientUnits="userSpaceOnUse"
       spreadMethod="pad">
      <stop
         style="stop-color:#fee679;stop-opacity:1;"
         offset="0.00000000"
         id="stop1028" />
      <stop
         style="stop-color:#fff7b0;stop-opacity:1;"
         offset="1.00000000"
         id="stop1029" />
      <midPointStop
         offset="0"
         style="stop-color:#FEE679"
         id="midPointStop1030" />
      <midPointStop
         offset="0.5"
         style="stop-color:#FEE679"
         id="midPointStop1031" />
      <midPointStop
         offset="1"
         style="stop-color:#FFF7B0"
         id="midPointStop1032" />
    </linearGradient>
    <linearGradient
       x1="198.551300"
       y1="194.756302"
       x2="134.553406"
       y2="51.7611008"
       id="XMLID_4_"
       gradientUnits="userSpaceOnUse"
       spreadMethod="pad">
      <stop
         style="stop-color:#fee69e;stop-opacity:1;"
         offset="0.00560000"
         id="stop1035" />
      <stop
         style="stop-color:#ffcc00;stop-opacity:1;"
         offset="1.00000000"
         id="stop1036" />
      <midPointStop
         offset="0.0056"
         style="stop-color:#FEE69E"
         id="midPointStop1037" />
      <midPointStop
         offset="0.5"
         style="stop-color:#FEE69E"
         id="midPointStop1038" />
      <midPointStop
         offset="1"
         style="stop-color:#FFCC00"
         id="midPointStop1039" />
    </linearGradient>
    <linearGradient
       x1="125.625999"
       y1="67.0019989"
       x2="125.625999"
       y2="39.0047989"
       id="XMLID_5_"
       gradientUnits="userSpaceOnUse"
       spreadMethod="pad">
      <stop
         style="stop-color:#fd993e;stop-opacity:1;"
         offset="0.00000000"
         id="stop1042" />
      <stop
         style="stop-color:#e65c00;stop-opacity:1;"
         offset="1.00000000"
         id="stop1043" />
      <midPointStop
         offset="0"
         style="stop-color:#FD993E"
         id="midPointStop1044" />
      <midPointStop
         offset="0.5"
         style="stop-color:#FD993E"
         id="midPointStop1045" />
      <midPointStop
         offset="1"
         style="stop-color:#E65C00"
         id="midPointStop1046" />
    </linearGradient>
    <linearGradient
       x1="133.366699"
       y1="154.240707"
       x2="241.366699"
       y2="154.240707"
       id="XMLID_6_"
       gradientUnits="userSpaceOnUse"
       spreadMethod="pad">
      <stop
         style="stop-color:#ffffff;stop-opacity:1;"
         offset="0.00000000"
         id="stop1051" />
      <stop
         style="stop-color:#f7f7df;stop-opacity:1;"
         offset="1.00000000"
         id="stop1052" />
      <midPointStop
         offset="0"
         style="stop-color:#FFFFFF"
         id="midPointStop1053" />
      <midPointStop
         offset="0.5"
         style="stop-color:#FFFFFF"
         id="midPointStop1054" />
      <midPointStop
         offset="1"
         style="stop-color:#F7F7DF"
         id="midPointStop1055" />
    </linearGradient>
  </defs>
  <path
     d="M 246 116.574 L 245.744 116.574 L 245.744 63.69 L 135.002 24.688 L 133.119 25.385 L 25.113 65.339 L 25.113 210.508 L 28.739 211.821 L 136.886 251.519 L 245.743 213.244 L 245.743 191.907 L 246 191.907 C 250.963 191.907 255 187.87 255 182.907 L 255 125.574 C 255 120.612 250.963 116.574 246 116.574 z "
     style="font-size:12;opacity:0.2;"
     id="path1007" />
  <path
     d="M 124.007 18.708 L 16 58.662 L 16 203.831 L 19.626 205.144 L 127.773 244.842 L 236.63 206.567 L 236.63 57.013 L 125.89 18.011 L 124.007 18.708 z "
     style="font-size:12;fill:url(#XMLID_1_);"
     id="path1014" />
  <path
     d="M 126.256 62.443 L 21.431 62.443 L 21.431 201.136 L 21.512 201.136 L 125.89 239.748 L 126.256 239.612 L 126.256 62.443 z "
     style="font-size:12;fill:#febf59;"
     id="path1015" />
  <g
     style="font-size:12;stroke:#000000;"
     id="g1016">
    <path
       d="M 126.256 62.443 L 126.256 239.612 L 125.89 239.748 L 230.268 201.136 L 231.202 201.136 L 231.202 62.443 L 126.256 62.443 z "
       style="fill:#ffffe6;stroke:none;"
       id="path1017" />
    <path
       d="M 21.431 62.443 L 125.889 101.085 L 230.349 62.443 L 125.89 23.8 L 21.431 62.443 z "
       style="fill:#ffffe6;stroke:none;"
       id="path1018" />
    <path
       d="M 125.89 101.085 L 21.431 62.443 L 21.431 200.05 L 21.512 200.05 L 125.89 238.662 L 126.256 238.526 L 126.256 100.95 L 125.89 101.085 z "
       style="fill:#ffffe6;stroke:none;"
       id="path1019" />
  </g>
  <path
     d="M 125.89 23.8 L 22.899 61.9 C 39.819 68.159 56.74 74.418 73.661 80.678 C 85.233 84.959 96.806 89.24 108.378 93.521 C 113.095 95.266 120.771 99.999 125.89 99.999 C 130.323 99.999 136.972 95.9 141.052 94.39 C 153.409 89.82 165.765 85.248 178.12 80.678 C 195.042 74.418 211.96 68.159 228.882 61.9 L 125.89 23.8 z "
     style="font-size:12;fill:url(#XMLID_2_);"
     id="path1026" />
  <path
     d="M 21.431 65.802 L 21.431 200.461 L 21.511 200.461 L 123.931 238.397 C 123.953 193.733 125.227 147.333 123.567 103.632 C 89.521 91.023 55.476 78.412 21.431 65.802 z "
     style="font-size:12;fill:url(#XMLID_3_);"
     id="path1033" />
  <path
     d="M 128.668 239.066 L 230.275 201.612 L 231.201 201.612 L 231.201 67.259 C 219.43 71.356 131.347 102.088 129.353 104.827 C 127.262 107.696 128.604 233.333 128.668 239.066 z "
     style="font-size:12;fill:url(#XMLID_4_);"
     id="path1040" />
  <path
     d="M 126.5 62 L 229.25 61.75 L 126 55.5 L 126 23.25 C 126 23.25 121.836 53.801 120.75 55.25 C 119.666 56.699 22 62 22 62 L 120.5 60.5 L 125.5 100.25 L 126.5 62 z "
     style="font-size:12;fill:url(#XMLID_5_);"
     id="path1047" />
  <path
     d="M 256 256 L 0 256 L 0 0 L 256 0 L 256 256 z "
     style="font-size:12;fill:none;"
     id="path1048" />
  <path
     d="M 137.367 116.574 C 132.404 116.574 128.367 120.612 128.367 125.574 L 128.367 182.907 C 128.367 187.87 132.404 191.907 137.367 191.907 L 237.367 191.907 C 242.33 191.907 246.367 187.87 246.367 182.907 L 246.367 125.574 C 246.367 120.612 242.33 116.574 237.367 116.574 L 137.367 116.574 L 137.367 116.574 z "
     style="font-size:12;fill:#e3322e;"
     id="path1049" />
  <path
     d="M 241.367 182.907 C 241.367 185.116 239.576 186.907 237.367 186.907 L 137.367 186.907 C 135.158 186.907 133.367 185.116 133.367 182.907 L 133.367 125.574 C 133.367 123.365 135.158 121.574 137.367 121.574 L 237.367 121.574 C 239.576 121.574 241.367 123.365 241.367 125.574 L 241.367 182.907 z "
     style="font-size:12;fill:url(#XMLID_6_);"
     id="path1056" />
  <path
     d="M 167.533 173.272 L 161.512 173.272 L 150.478 159.397 L 145.158 159.397 L 145.158 173.272 L 140.533 173.272 L 140.533 138.397 L 149.52 138.397 C 151.516 138.397 153.19 138.506 154.54 138.725 C 155.89 138.944 157.173 139.451 158.391 140.246 C 159.608 141.026 160.571 142.033 161.281 143.266 C 161.991 144.499 162.346 146.029 162.346 147.854 C 162.346 150.415 161.699 152.552 160.406 154.269 C 159.112 155.986 157.351 157.258 155.123 158.084 L 167.533 173.272 z M 157.533 148.212 C 157.533 147.2 157.352 146.301 156.993 145.515 C 156.633 144.729 156.077 144.086 155.326 143.588 C 154.668 143.152 153.901 142.845 153.024 142.665 C 152.147 142.486 151.059 142.396 149.76 142.396 L 145.157 142.396 L 145.157 155.521 L 149.243 155.521 C 150.573 155.521 151.771 155.405 152.836 155.171 C 153.901 154.937 154.808 154.455 155.56 153.723 C 156.233 153.069 156.73 152.29 157.051 151.387 C 157.372 150.486 157.533 149.427 157.533 148.212 z "
     style="font-size:12;fill:#e3322e;"
     id="path1120" />
  <path
     d="M 195.921 148.913 C 195.921 150.429 195.651 151.861 195.112 153.212 C 194.573 154.563 193.828 155.714 192.877 156.666 C 191.674 157.853 190.261 158.75 188.638 159.359 C 187.015 159.968 184.962 160.272 182.48 160.272 L 178.546 160.272 L 178.546 173.272 L 173.921 173.272 L 173.921 138.397 L 182.674 138.397 C 184.734 138.397 186.488 138.569 187.94 138.913 C 189.392 139.257 190.67 139.81 191.779 140.575 C 193.074 141.466 194.088 142.594 194.821 143.96 C 195.554 145.326 195.921 146.977 195.921 148.913 z M 191.109 149.02 C 191.109 147.823 190.902 146.782 190.488 145.895 C 190.074 145.009 189.445 144.287 188.601 143.726 C 187.867 143.245 187.011 142.903 186.035 142.701 C 185.059 142.499 183.844 142.397 182.39 142.397 L 178.546 142.397 L 178.546 156.272 L 181.71 156.272 C 183.585 156.272 185.101 156.121 186.257 155.818 C 187.413 155.515 188.374 154.974 189.14 154.197 C 189.828 153.498 190.328 152.736 190.64 151.912 C 190.952 151.088 191.109 150.124 191.109 149.02 z "
     style="font-size:12;fill:#e3322e;"
     id="path1121" />
  <path
     d="M 233.858 173.272 L 229.233 173.272 L 229.233 143.217 L 220.136 163.647 L 217.322 163.647 L 208.296 143.217 L 208.296 173.272 L 203.983 173.272 L 203.983 138.397 L 210.289 138.397 L 219.011 157.796 L 227.428 138.397 L 233.859 138.397 L 233.859 173.272 L 233.858 173.272 z "
     style="font-size:12;fill:#e3322e;"
     id="path1122" />
</svg>
