<?xml version="1.0" encoding="UTF-8" standalone="no"?>
<!DOCTYPE svg PUBLIC "-//W3C//DTD SVG 20010904//EN"
"http://www.w3.org/TR/2001/REC-SVG-20010904/DTD/svg10.dtd">
<!-- Created with Sodipodi ("http://www.sodipodi.com/") -->
<svg
   width="48pt"
   height="56pt"
   viewBox="0 0 204.755 242.183"
   style="overflow:visible;enable-background:new 0 0 204.755 242.183"
   xml:space="preserve"
   id="svg2555"
   sodipodi:version="0.32pre"
   sodipodi:docname="/home/cschalle/gnome-themes-extras/Nuvola/icons/scalable/mimetypes/gnome-mime-image.svg"
   sodipodi:docbase="/home/cschalle/gnome-themes-extras/Nuvola/icons/scalable/mimetypes"
   xmlns="http://www.w3.org/2000/svg"
   xmlns:sodipodi="http://sodipodi.sourceforge.net/DTD/sodipodi-0.dtd"
   xmlns:xml="http://www.w3.org/XML/1998/namespace"
   xmlns:a="http://ns.adobe.com/AdobeSVGViewerExtensions/3.0/"
   xmlns:xlink="http://www.w3.org/1999/xlink">
  <defs
     id="defs2610">
    <linearGradient
       id="XMLID_1_"
       gradientUnits="userSpaceOnUse"
       x1="227.9497"
       y1="263.2354"
       x2="60.8168"
       y2="96.103">
      <stop
         offset="0"
         style="stop-color:#999999"
         id="stop2558" />
      <stop
         offset="1"
         style="stop-color:#CCCCCC"
         id="stop2559" />
      <a:midPointStop
         offset="0"
         style="stop-color:#999999"
         id="midPointStop2560" />
      <a:midPointStop
         offset="0.5"
         style="stop-color:#999999"
         id="midPointStop2561" />
      <a:midPointStop
         offset="1"
         style="stop-color:#CCCCCC"
         id="midPointStop2562" />
    </linearGradient>
    <linearGradient
       id="XMLID_2_"
       gradientUnits="userSpaceOnUse"
       x1="3.3936"
       y1="-0.8843"
       x2="194.0594"
       y2="268.4486">
      <stop
         offset="0"
         style="stop-color:#CCDEED"
         id="stop2565" />
      <stop
         offset="0.2762"
         style="stop-color:#C7DBEB"
         id="stop2566" />
      <stop
         offset="0.5856"
         style="stop-color:#BAD1E6"
         id="stop2567" />
      <stop
         offset="0.9099"
         style="stop-color:#A4C1DD"
         id="stop2568" />
      <stop
         offset="1"
         style="stop-color:#9CBCDA"
         id="stop2569" />
      <a:midPointStop
         offset="0"
         style="stop-color:#CCDEED"
         id="midPointStop2570" />
      <a:midPointStop
         offset="0.6836"
         style="stop-color:#CCDEED"
         id="midPointStop2571" />
      <a:midPointStop
         offset="1"
         style="stop-color:#9CBCDA"
         id="midPointStop2572" />
    </linearGradient>
    <linearGradient
       id="XMLID_3_"
       gradientUnits="userSpaceOnUse"
       x1="3.7124"
       y1="17.002"
       x2="186.3787"
       y2="238.3348">
      <stop
         offset="0"
         style="stop-color:#FFFFFF"
         id="stop2575" />
      <stop
         offset="0.2232"
         style="stop-color:#FAFBFD"
         id="stop2576" />
      <stop
         offset="0.4988"
         style="stop-color:#EBF0F7"
         id="stop2577" />
      <stop
         offset="0.8006"
         style="stop-color:#D2DFED"
         id="stop2578" />
      <stop
         offset="1"
         style="stop-color:#BDD0E5"
         id="stop2579" />
      <a:midPointStop
         offset="0"
         style="stop-color:#FFFFFF"
         id="midPointStop2580" />
      <a:midPointStop
         offset="0.6628"
         style="stop-color:#FFFFFF"
         id="midPointStop2581" />
      <a:midPointStop
         offset="1"
         style="stop-color:#BDD0E5"
         id="midPointStop2582" />
    </linearGradient>
    <linearGradient
       id="XMLID_4_"
       gradientUnits="userSpaceOnUse"
       x1="49.8477"
       y1="68.4077"
       x2="161.4459"
       y2="180.0059">
      <stop
         offset="0"
         style="stop-color:#FFFFFF"
         id="stop2600" />
      <stop
         offset="0.2319"
         style="stop-color:#FAFCFD"
         id="stop2601" />
      <stop
         offset="0.4917"
         style="stop-color:#EDF2F8"
         id="stop2602" />
      <stop
         offset="0.764"
         style="stop-color:#D7E2EF"
         id="stop2603" />
      <stop
         offset="1"
         style="stop-color:#BDD0E5"
         id="stop2604" />
      <a:midPointStop
         offset="0"
         style="stop-color:#FFFFFF"
         id="midPointStop2605" />
      <a:midPointStop
         offset="0.6836"
         style="stop-color:#FFFFFF"
         id="midPointStop2606" />
      <a:midPointStop
         offset="1"
         style="stop-color:#BDD0E5"
         id="midPointStop2607" />
    </linearGradient>
    <linearGradient
       id="aigrd5"
       gradientUnits="userSpaceOnUse"
       x1="23.252"
       y1="16.7476"
       x2="39.5013"
       y2="44.9753">
      <stop
         offset="0"
         style="stop-color:#D2D2D2"
         id="stop5281" />
      <stop
         offset="1"
         style="stop-color:#EDEDED"
         id="stop5282" />
    </linearGradient>
    <linearGradient
       id="aigrd6"
       gradientUnits="userSpaceOnUse"
       x1="31.458"
       y1="40.002"
       x2="31.4928"
       y2="33.2162">
      <stop
         offset="0"
         style="stop-color:#163069"
         id="stop5285" />
      <stop
         offset="1"
         style="stop-color:#83A1CB"
         id="stop5286" />
    </linearGradient>
    <linearGradient
       id="aigrd7"
       gradientUnits="userSpaceOnUse"
       x1="31.5059"
       y1="35.0098"
       x2="31.5059"
       y2="19.699">
      <stop
         offset="0"
         style="stop-color:#D0D6E5"
         id="stop5293" />
      <stop
         offset="1"
         style="stop-color:#093A80"
         id="stop5294" />
    </linearGradient>
  </defs>
  <sodipodi:namedview
     id="base" />
  <g
     id="g5196"
     transform="matrix(0.846688,0,0,0.967948,5.36,6.98597)">
    <path
       style="font-size:12;fill:url(#XMLID_1_);"
       d="M168.618,0H0v242.183h204.755V39.088l-1.614-2.411    c-9.829-14.695-19.416-25.659-30.169-34.503L170.329,0H168.618z"
       id="path2563" />
    <path
       style="font-size:12;fill:url(#XMLID_2_);"
       d="M166.906,4.775H4.775v232.633h195.206V40.538l-0.808-1.206    c-9.564-14.297-18.854-24.934-29.234-33.471l-1.321-1.087H166.906z"
       id="path2573" />
    <path
       style="font-size:12;fill:url(#XMLID_3_);"
       d="M9.55,9.55c0,8.97,0,214.111,0,223.082c8.861,0,176.793,0,185.654,0    c0-9.022,0-187.817,0-190.644c-9.271-13.861-18.327-24.237-28.299-32.438C163.612,9.55,18.454,9.55,9.55,9.55z"
       id="path2583" />
    <path
       style="font-size:12;opacity:0.5;fill:url(#XMLID_4_);"
       d="M64.162,146.834    c50.264-32.703,95.79-71.175,111.914-128.885c0.445-1.624,0.851-3.241,1.234-4.856c-3.024-3.116-6.115-5.983-9.306-8.646    l-1.313-1.095h-1.698H3.989v201.975C16.365,181.14,42.769,161.106,64.162,146.834z"
       id="path2608" />
  </g>
  <path
     style="font-size:12;fill:url(#aigrd6);"
     d="M44.3,39.3H18.7V21.9h25.6v17.4z"
     id="path5287"
     transform="matrix(5.73285,0,0,6.29184,-55.8701,-36.3669)" />
  <path
     style="font-size:12;fill:#bebebe;"
     d="M44.3,21.9l0.6-0.6l-26.8-0.1l0,18.7l0.6-0.7V21.9h25.6z"
     id="path5290"
     transform="matrix(5.73285,0,0,6.29184,-55.8701,-36.3669)" />
  <path
     style="font-size:12;fill:#ffffff;"
     d="M18.1,40l26.7-0.1V21.3l-0.6,0.6v17.4H18.7L18.1,40z"
     id="path5291"
     transform="matrix(5.73285,0,0,6.29184,-55.8701,-36.3669)" />
  <path
     style="font-size:12;fill:url(#aigrd7);"
     d="M18.9,22.2h25.1v10.6H18.9V22.2z"
     id="path5295"
     transform="matrix(5.73285,0,0,6.29184,-55.8701,-36.3669)" />
  <g
     id="g5296"
     transform="matrix(5.73285,0,0,6.29184,-55.8701,-36.3669)"
     style="font-size:12;stroke:#000000;">
    <g
       id="g5297">
      <path
         style="opacity:5.000000e-002;fill:#E8F52F;stroke:none;"
         d="M28.4,26.9c0,2-1.6,3.6-3.6,3.6c-2,0-3.6-1.6-3.6-3.6s1.6-3.6,3.6-3.6c2,0,3.6,1.6,3.6,3.6z"
         id="path5298" />
      <path
         style="opacity:0.2083;fill:#ECF751;stroke:none;"
         d="M28,26.9c0,1.8-1.4,3.2-3.2,3.2s-3.2-1.4-3.2-3.2c0-1.8,1.4-3.2,3.2-3.2s3.2,1.4,3.2,3.2z"
         id="path5299" />
      <path
         style="opacity:0.3667;fill:#F0F972;stroke:none;"
         d="M27.7,26.9c0,1.6-1.3,2.9-2.9,2.9c-1.6,0-2.9-1.3-2.9-2.9s1.3-2.9,2.9-2.9c1.6,0,2.9,1.3,2.9,2.9z"
         id="path5300" />
      <path
         style="opacity:0.525;fill:#F4FA95;stroke:none;"
         d="M27.4,26.9c0,1.4-1.1,2.5-2.5,2.5s-2.5-1.1-2.5-2.5s1.1-2.5,2.5-2.5s2.5,1.1,2.5,2.5z"
         id="path5301" />
      <path
         style="opacity:0.6833;fill:#F7FCB7;stroke:none;"
         d="M27,26.9c0,1.2-1,2.2-2.2,2.2s-2.2-1-2.2-2.2c0-1.2,1-2.2,2.2-2.2s2.2,1,2.2,2.2z"
         id="path5302" />
      <path
         style="opacity:0.8417;fill:#FBFDDB;stroke:none;"
         d="M26.7,26.9c0,1-0.8,1.9-1.9,1.9c-1,0-1.9-0.8-1.9-1.9s0.8-1.9,1.9-1.9c1,0,1.9,0.8,1.9,1.9z"
         id="path5303" />
      <path
         style="fill:#FFFFFF;stroke:none;"
         d="M26.4,26.9c0,0.8-0.7,1.5-1.5,1.5s-1.5-0.7-1.5-1.5s0.7-1.5,1.5-1.5s1.5,0.7,1.5,1.5z"
         id="path5304" />
    </g>
  </g>
  <path
     style="font-size:12;opacity:0.3;"
     d="M33.3,34.2h6.4l1.2,0.4h-2.1c0,0,2.1,0.2,3.1,1.4c1,1.2-1.3,2.7-1.3,2.7s0,0,0,0c-0.1-0.3-0.6-2.4-1.7-3.2c-0.8-0.7-1.6-0.9-1.6-0.9h-4l0-0.4z"
     id="path5305"
     transform="matrix(5.73285,0,0,6.29184,-55.8701,-36.3669)" />
  <path
     style="font-size:12;opacity:0.3;"
     d="M37.5,34.7h-3.7l6.8,3.8l-3.1-3.8z"
     id="path5306"
     transform="matrix(5.73285,0,0,6.29184,-55.8701,-36.3669)" />
  <path
     style="font-size:12;fill:#515151;"
     d="M33.3,34.2h6.4l1-0.7h-2.1c0,0,2-0.4,2.2-2.5c0.2-2.2-3-4.7-3-4.7s0,0,0,0.1c0.1,0.5,0.9,4.2,0.4,5.6c-0.3,1.3-1.1,1.5-1.1,1.5h-4l0.2,0.7z"
     id="path5307"
     transform="matrix(5.73285,0,0,6.29184,-55.8701,-36.3669)" />
  <path
     style="font-size:12;fill:#515151;"
     d="M37.1,33.3h-3.7l4.4-6.6l-0.7,6.6z"
     id="path5308"
     transform="matrix(5.73285,0,0,6.29184,-55.8701,-36.3669)" />
  <path
     style="font-size:12;"
     d="M18.7,21.9v17.4h25.6V21.9H18.7z M43.8,38.8H19.3V22.5h24.5v16.3z"
     id="path5309"
     transform="matrix(5.73285,0,0,6.29184,-55.8701,-36.3669)" />
</svg>
