<?xml version="1.0" encoding="UTF-8" standalone="no"?>
<!DOCTYPE svg PUBLIC "-//W3C//DTD SVG 20010904//EN"
"http://www.w3.org/TR/2001/REC-SVG-20010904/DTD/svg10.dtd">
<!-- Created with Sodipodi ("http://www.sodipodi.com/") -->
<svg
   i:viewOrigin="178 524"
   i:rulerOrigin="-178 -268"
   i:pageBounds="178 524 434 268"
   width="48pt"
   height="48pt"
   viewBox="0 0 256 256"
   style="overflow:visible;enable-background:new 0 0 256 256"
   xml:space="preserve"
   xmlns="http://www.w3.org/2000/svg"
   xmlns:ns="&amp;ns_vars;"
   xmlns:i="&amp;ns_ai;"
   xmlns:xml="http://www.w3.org/XML/1998/namespace"
   xmlns:a="http://ns.adobe.com/AdobeSVGViewerExtensions/3.0/"
   xmlns:sodipodi="http://sodipodi.sourceforge.net/DTD/sodipodi-0.dtd"
   xmlns:xlink="http://www.w3.org/1999/xlink"
   id="svg153"
   sodipodi:version="0.32pre"
   sodipodi:docname="/home/cschalle/gnome-themes-extras/Nuvola/icons/scalable/mimetypes/gnome-mime-application-vnd.sun.xml.impress.svg"
   sodipodi:docbase="/home/cschalle/gnome-themes-extras/Nuvola/icons/scalable/mimetypes">
  <defs
     id="defs184" />
  <sodipodi:namedview
     id="base" />
  <metadata
     id="metadata154">
    <ns:variableSets>
      <ns:variableSet
         varSetName="binding1"
         locked="none">
        <ns:variables />
        <ns:sampleDataSets />
      </ns:variableSet>
    </ns:variableSets>
  </metadata>
  <g
     id="Layer_3"
     i:layer="yes"
     i:dimmedPercent="50"
     i:rgbTrio="#4F00FFFF4F00"
     style="stroke:#000000;">
    <path
       i:knockout="Off"
       style="opacity:0.2;stroke:none;"
       d="M49,19c-9.374,0-17,7.626-17,17v200c0,9.374,7.626,17,17,17h176c9.374,0,17-7.626,17-17    V36c0-9.374-7.626-17-17-17H49z"
       id="path156" />
    <linearGradient
       id="XMLID_1_"
       gradientUnits="userSpaceOnUse"
       x1="23"
       y1="130"
       x2="233"
       y2="130">
      <stop
         offset="0"
         style="stop-color:#A7ABAC"
         id="stop158" />
      <stop
         offset="1"
         style="stop-color:#85898A"
         id="stop159" />
      <a:midPointStop
         offset="0"
         style="stop-color:#A7ABAC"
         id="midPointStop160" />
      <a:midPointStop
         offset="0.5"
         style="stop-color:#A7ABAC"
         id="midPointStop161" />
      <a:midPointStop
         offset="1"
         style="stop-color:#85898A"
         id="midPointStop162" />
    </linearGradient>
    <path
       i:knockout="Off"
       style="fill:url(#XMLID_1_);stroke:none;"
       d="M40,13c-9.374,0-17,7.626-17,17v200c0,9.374,7.626,17,17,17h176c9.374,0,17-7.626,17-17    V30c0-9.374-7.626-17-17-17H40z"
       id="path163" />
    <path
       i:knockout="Off"
       style="fill:#99CCFF;stroke:none;"
       d="M28,230c0,6.627,5.373,12,12,12h176c6.627,0,12-5.373,12-12V30c0-6.627-5.373-12-12-12H40    c-6.627,0-12,5.373-12,12V230z"
       id="path164" />
    <linearGradient
       id="XMLID_2_"
       gradientUnits="userSpaceOnUse"
       x1="84.5029"
       y1="86.5029"
       x2="321.5015"
       y2="323.5015">
      <stop
         offset="0"
         style="stop-color:#FFFFFF"
         id="stop166" />
      <stop
         offset="1"
         style="stop-color:#99CCFF"
         id="stop167" />
      <a:midPointStop
         offset="0"
         style="stop-color:#FFFFFF"
         id="midPointStop168" />
      <a:midPointStop
         offset="0.5"
         style="stop-color:#FFFFFF"
         id="midPointStop169" />
      <a:midPointStop
         offset="1"
         style="stop-color:#99CCFF"
         id="midPointStop170" />
    </linearGradient>
    <path
       i:knockout="Off"
       style="fill:url(#XMLID_2_);stroke:none;"
       d="M40,23c-3.859,0-7,3.14-7,7v200c0,3.859,3.141,7,7,7h176c3.859,0,7-3.141,7-7V30    c0-3.86-3.141-7-7-7H40z"
       id="path171" />
    <path
       i:knockout="Off"
       style="opacity:0.4;fill:#FFFFFF;stroke:none;"
       d="M163,108c18.593-17.431,40.938-26.006,65-30.265V30c0-6.627-5.373-12-12-12H40    c-6.627,0-12,5.373-12,12v143.268C77.582,177.009,124.478,142.51,163,108z"
       id="path172" />
    <path
       i:knockout="Off"
       style="opacity:0.4;fill:#999999;stroke:none;"
       d="M111.228,72.608c0.009-0.122,0.022-0.243,0.035-0.364    c-2.228-11.406-19.381-19.576-39.741-18.521c-10.893,0.564-20.601,3.661-27.436,8.19c3.945-0.563,8.041-0.965,12.246-1.183    C80.08,59.501,100.927,64.422,111.228,72.608z M111.228,72.608c-0.008,0.099-0.023,0.196-0.028,0.295    c9.35-9.263,29.647-16.361,53.49-17.596c4.207-0.218,8.321-0.243,12.304-0.09c-7.267-3.799-17.243-5.875-28.136-5.311    c-20.248,1.049-36.399,10.845-37.595,22.338c0.03,0.154,0.069,0.307,0.093,0.462C111.314,72.674,111.269,72.642,111.228,72.608z     M87.92,86.102c-16.121,2.354-30.131,8.308-39.667,15.994c5.79-1.386,11.825-2.552,18.051-3.46    c35.148-5.131,66.839-0.713,83.298,10.031c-0.003-0.183-0.001-0.366,0.001-0.549C144.701,91.466,118.054,81.702,87.92,86.102z     M228,75.329v-6c-7.895-1.02-16.583-0.972-25.585,0.342c-29.968,4.375-52.628,21.189-52.813,38.448    c0.066,0.227,0.146,0.449,0.204,0.678c-0.066-0.044-0.138-0.085-0.205-0.129c0.003,0.148-0.007,0.296-0.001,0.444    c12.618-15.075,41.822-28.456,77.113-33.608C227.145,75.439,227.57,75.389,228,75.329z"
       id="path173" />
    <g
       id="g174">
      <g
         id="g175">
        <path
           i:knockout="Off"
           style="stroke:none;"
           d="M56.718,86.636c-6.226,0.908-12.261,2.074-18.051,3.46      c9.536-7.687,23.546-13.641,39.667-15.994c30.544-4.459,57.521,5.627,61.887,22.694C123.819,85.957,92.009,81.483,56.718,86.636      z"
           id="path176" />
        <path
           i:knockout="Off"
           style="stroke:none;"
           d="M217.128,63.502c6.226-0.909,12.343-1.518,18.286-1.845      c-11.335-4.64-26.462-6.341-42.585-3.987c-30.542,4.459-53.511,21.838-52.814,39.44      C152.633,82.035,181.837,68.654,217.128,63.502z"
           id="path177" />
      </g>
      <g
         id="g178">
        <path
           i:knockout="Off"
           style="stroke:none;"
           d="M46.746,48.731c-4.205,0.218-8.301,0.62-12.246,1.183      c6.835-4.529,16.543-7.625,27.436-8.19c20.635-1.069,37.988,7.334,39.834,18.983C91.514,52.461,70.59,47.496,46.746,48.731z"
           id="path179" />
        <path
           i:knockout="Off"
           style="stroke:none;"
           d="M155.104,43.307c4.207-0.218,8.321-0.243,12.304-0.09      c-7.267-3.799-17.243-5.875-28.136-5.311c-20.635,1.069-37.025,11.221-37.658,22.997      C110.963,51.641,131.261,44.542,155.104,43.307z"
           id="path180" />
      </g>
    </g>
  </g>
  <g
     id="Layer_2"
     i:layer="yes"
     i:editable="no"
     i:dimmedPercent="50"
     i:rgbTrio="#FFFF4F004F00"
     style="stroke:#000000;">
    <path
       i:knockout="Off"
       style="fill:none;stroke:none;"
       d="M256,256H0V0h256V256z"
       id="path182" />
  </g>
  <g
     id="Layer_x0020_4"
     style="fill-rule:nonzero;clip-rule:nonzero;fill:#959595;stroke:#000000;stroke-miterlimit:4;overflow:visible;enable-background:new 0 0 204.755 242.183;"
     transform="matrix(3.28079,0,0,2.93024,77.2175,89.1141)">
    <path
       style="fill:#969696;stroke:none;"
       d="M17.1,15.5c-0.6,0-1,0.5-1,1v0.2c0,0.4,0.3,0.8,0.7,0.9c0,0.4,0,18.4,0,18.4s9.6,0,10.1,0c0,0.4,0,1.5,0,1.7c-0.3,0.2-0.5,0.6-0.5,0.9c0,0,0,0.1,0,0.1c-0.3,0.2-7.1,5.3-7.1,5.3l2.3,0l1,0c0,0,4.6-4.1,4.8-4.2c0.1,0,0.2,0,0.2,0    c0.1,0,0.2,0,0.2,0c0.2,0.2,4.8,4.2,4.8,4.2l1.7,0h1.6c0,0-6.8-5.1-7.1-5.3c0-0.1,0-0.1,0-0.1c0-0.4-0.2-0.7-0.5-0.9c0-0.2,0-1.3,0-1.7c0.5,0,9.3,0,9.3,0s0-17.9,0-18.3c0.5-0.1,0.8-0.5,0.8-1v-0.2c0-0.6-0.5-1-1-1H17.1z"
       id="path3243" />
    <path
       style="fill:#000000;stroke:none;"
       d="M16.6,14.9c-0.6,0-1,0.5-1,1v0.2c0,0.4,0.3,0.8,0.7,0.9c0,0.4,0,18.4,0,18.4s9.6,0,10.1,0c0,0.4,0,1.5,0,1.7c-0.3,0.2-0.5,0.6-0.5,0.9c0,0,0,0.1,0,0.1c-0.3,0.2-7.1,5.3-7.1,5.3l2.3,0l1,0c0,0,4.6-4.1,4.8-4.2c0.1,0,0.2,0,0.2,0    c0.1,0,0.2,0,0.2,0c0.2,0.2,4.8,4.2,4.8,4.2l1.7,0h1.6c0,0-6.8-5.1-7.1-5.3c0-0.1,0-0.1,0-0.1c0-0.4-0.2-0.7-0.5-0.9c0-0.2,0-1.3,0-1.7c0.5,0,9.3,0,9.3,0s0-17.9,0-18.3c0.5-0.1,0.8-0.5,0.8-1V16c0-0.6-0.5-1-1-1H16.6z"
       id="path3244" />
    <path
       style="fill:#A4A4A4;stroke:none;"
       d="M27.2,38.1h-0.4V15.7h0.4v22.4z"
       id="path3245" />
    <linearGradient
       id="aigrd5"
       gradientUnits="userSpaceOnUse"
       x1="29.4048"
       y1="32.0811"
       x2="22.8732"
       y2="17.1976">
      <stop
         offset="0"
         style="stop-color:#FFFFFF"
         id="stop3247" />
      <stop
         offset="1"
         style="stop-color:#EAEAEA"
         id="stop3248" />
    </linearGradient>
    <path
       style="fill:url(#aigrd5);stroke:none;"
       d="M36.5,34.9H16.7V16.5h19.8v18.4z"
       id="path3249" />
    <path
       style="fill:#F9F9F9;stroke:none;"
       d="M16.7,34.9l0.8-17.7l19-0.6H16.7v18.3z"
       id="path3250" />
    <g
       style="fill:#A4A4A4;stroke:none;"
       id="g3251">
      <path
         d="M32.2,42.9l1.5,0l-6.5-4.8l-0.5,0l5.4,4.8z"
         id="path3252" />
      <path
         d="M21.8,42.9l-1.5,0l6.5-4.8l0.5,0l-5.4,4.8z"
         id="path3253" />
      <path
         style="fill:#DEDEDE;"
         d="M20.3,42.9H21v-0.2l5.7-4.5l-6.5,4.8"
         id="path3254" />
      <path
         style="fill:#DEDEDE;"
         d="M32.7,42.9l-0.4-0.2l-5.4-4.6l5.3,4.7h0.5z"
         id="path3255" />
      <path
         style="fill:#757575;"
         d="M27.2,38.1l-5.4,4.8h-0.4l0.4-0.2l5.4-4.6z"
         id="path3256" />
      <path
         style="fill:#878787;"
         d="M33.7,42.9h-0.3L27.1,38l6.6,4.9z"
         id="path3257" />
    </g>
    <linearGradient
       id="aigrd6"
       gradientUnits="userSpaceOnUse"
       x1="26.6362"
       y1="15.4888"
       x2="26.6362"
       y2="16.6145">
      <stop
         offset="0"
         style="stop-color:#F0F0F0"
         id="stop3259" />
      <stop
         offset="1"
         style="stop-color:#686868"
         id="stop3260" />
    </linearGradient>
    <path
       style="fill:url(#aigrd6);stroke:none;"
       d="M37.3,16c0,0.3-0.2,0.5-0.5,0.5H16.5c-0.3,0-0.5-0.2-0.5-0.5v-0.2c0-0.3,0.2-0.5,0.5-0.5h20.3c0.3,0,0.5,0.2,0.5,0.5V16z"
       id="path3261" />
    <path
       style="opacity:0.16;fill:#000000;stroke:none;"
       d="M36.5,16.6H16.7V18c1.1-1.6,19.8-1.4,19.8-1.4z"
       id="path3262" />
    <path
       style="fill:#C9C9C9;stroke:none;"
       d="M36.5,34.9V16.6l-0.6,17.6l-19.3,0.7h19.8z"
       id="path3263" />
    <radialGradient
       id="aigrd7"
       cx="26.812"
       cy="37.7578"
       r="0.6069"
       fx="26.812"
       fy="37.7578"
       gradientUnits="userSpaceOnUse">
      <stop
         offset="0"
         style="stop-color:#F0F0F0"
         id="stop3265" />
      <stop
         offset="1"
         style="stop-color:#848484"
         id="stop3266" />
    </radialGradient>
    <path
       style="fill:url(#aigrd7);stroke:none;"
       d="M27.7,38c0,0.4-0.3,0.7-0.7,0.7c-0.4,0-0.7-0.3-0.7-0.7c0-0.4,0.3-0.7,0.7-0.7c0.4,0,0.7,0.3,0.7,0.7z"
       id="path3267" />
    <path
       style="stroke:none;"
       d="M35.1,32h-16v-1.6h16V32z"
       id="path3268" />
    <path
       style="stroke:none;"
       d="M35.1,29.5h-16v-1.6h16v1.6z"
       id="path3269" />
    <path
       style="stroke:none;"
       d="M35.1,26.9h-6.3v-1.6h6.3v1.6z"
       id="path3270" />
    <path
       style="stroke:none;"
       d="M35.1,24.3h-6.3v-1.6h6.3v1.6z"
       id="path3271" />
    <path
       style="stroke:none;"
       d="M35.1,21.8h-6.3v-1.6h6.3v1.6z"
       id="path3272" />
  </g>
</svg>
