<?xml version="1.0" encoding="UTF-8" standalone="no"?>
<!DOCTYPE svg PUBLIC "-//W3C//DTD SVG 20010904//EN"
"http://www.w3.org/TR/2001/REC-SVG-20010904/DTD/svg10.dtd">
<!-- Created with Sodipodi ("http://www.sodipodi.com/") -->
<svg
   version="1"
   x="0.00000000"
   y="0.00000000"
   width="48pt"
   height="48pt"
   viewBox="0 0 256 256"
   id="svg893"
   xmlns="http://www.w3.org/2000/svg"
   xmlns:sodipodi="http://sodipodi.sourceforge.net/DTD/sodipodi-0.dtd"
   xmlns:xlink="http://www.w3.org/1999/xlink"
   sodipodi:version="0.32pre"
   sodipodi:docname="/home/cschalle/gnome-themes-extras/Nuvola/icons/scalable/mimetypes/gnome-mime-application-x-tgz.svg"
   sodipodi:docbase="/home/cschalle/gnome-themes-extras/Nuvola/icons/scalable/mimetypes">
  <sodipodi:namedview
     id="base" />
  <defs
     id="defs950">
    <linearGradient
       x1="93.1909027"
       y1="59.7323990"
       x2="190.188400"
       y2="266.727509"
       id="XMLID_1_"
       gradientUnits="userSpaceOnUse"
       spreadMethod="pad">
      <stop
         style="stop-color:#fd993e;stop-opacity:1;"
         offset="0.00000000"
         id="stop897" />
      <stop
         style="stop-color:#e67901;stop-opacity:1;"
         offset="1.00000000"
         id="stop898" />
      <midPointStop
         offset="0"
         style="stop-color:#FD993E"
         id="midPointStop899" />
      <midPointStop
         offset="0.5"
         style="stop-color:#FD993E"
         id="midPointStop900" />
      <midPointStop
         offset="1"
         style="stop-color:#E67901"
         id="midPointStop901" />
    </linearGradient>
    <linearGradient
       x1="125.890602"
       y1="159.998505"
       x2="125.890602"
       y2="19.0004005"
       id="XMLID_2_"
       gradientUnits="userSpaceOnUse"
       spreadMethod="pad">
      <stop
         style="stop-color:#ffff73;stop-opacity:1;"
         offset="0.00000000"
         id="stop909" />
      <stop
         style="stop-color:#fff7e2;stop-opacity:1;"
         offset="1.00000000"
         id="stop910" />
      <midPointStop
         offset="0"
         style="stop-color:#FFFF73"
         id="midPointStop911" />
      <midPointStop
         offset="0.5"
         style="stop-color:#FFFF73"
         id="midPointStop912" />
      <midPointStop
         offset="1"
         style="stop-color:#FFF7E2"
         id="midPointStop913" />
    </linearGradient>
    <linearGradient
       x1="126.540001"
       y1="104.224602"
       x2="45.5433998"
       y2="176.221497"
       id="XMLID_3_"
       gradientUnits="userSpaceOnUse"
       spreadMethod="pad">
      <stop
         style="stop-color:#fee679;stop-opacity:1;"
         offset="0.00000000"
         id="stop916" />
      <stop
         style="stop-color:#fff7b0;stop-opacity:1;"
         offset="1.00000000"
         id="stop917" />
      <midPointStop
         offset="0"
         style="stop-color:#FEE679"
         id="midPointStop918" />
      <midPointStop
         offset="0.5"
         style="stop-color:#FEE679"
         id="midPointStop919" />
      <midPointStop
         offset="1"
         style="stop-color:#FFF7B0"
         id="midPointStop920" />
    </linearGradient>
    <linearGradient
       x1="198.551300"
       y1="194.756302"
       x2="134.553406"
       y2="51.7611008"
       id="XMLID_4_"
       gradientUnits="userSpaceOnUse"
       spreadMethod="pad">
      <stop
         style="stop-color:#fee69e;stop-opacity:1;"
         offset="0.00560000"
         id="stop923" />
      <stop
         style="stop-color:#ffcc00;stop-opacity:1;"
         offset="1.00000000"
         id="stop924" />
      <midPointStop
         offset="0.0056"
         style="stop-color:#FEE69E"
         id="midPointStop925" />
      <midPointStop
         offset="0.5"
         style="stop-color:#FEE69E"
         id="midPointStop926" />
      <midPointStop
         offset="1"
         style="stop-color:#FFCC00"
         id="midPointStop927" />
    </linearGradient>
    <linearGradient
       x1="125.625999"
       y1="67.0019989"
       x2="125.625999"
       y2="39.0047989"
       id="XMLID_5_"
       gradientUnits="userSpaceOnUse"
       spreadMethod="pad">
      <stop
         style="stop-color:#fd993e;stop-opacity:1;"
         offset="0.00000000"
         id="stop930" />
      <stop
         style="stop-color:#e65c00;stop-opacity:1;"
         offset="1.00000000"
         id="stop931" />
      <midPointStop
         offset="0"
         style="stop-color:#FD993E"
         id="midPointStop932" />
      <midPointStop
         offset="0.5"
         style="stop-color:#FD993E"
         id="midPointStop933" />
      <midPointStop
         offset="1"
         style="stop-color:#E65C00"
         id="midPointStop934" />
    </linearGradient>
    <linearGradient
       x1="133.366699"
       y1="154.240707"
       x2="241.366699"
       y2="154.240707"
       id="XMLID_6_"
       gradientUnits="userSpaceOnUse"
       spreadMethod="pad">
      <stop
         style="stop-color:#ffffff;stop-opacity:1;"
         offset="0.00000000"
         id="stop939" />
      <stop
         style="stop-color:#f7f7df;stop-opacity:1;"
         offset="1.00000000"
         id="stop940" />
      <midPointStop
         offset="0"
         style="stop-color:#FFFFFF"
         id="midPointStop941" />
      <midPointStop
         offset="0.5"
         style="stop-color:#FFFFFF"
         id="midPointStop942" />
      <midPointStop
         offset="1"
         style="stop-color:#F7F7DF"
         id="midPointStop943" />
    </linearGradient>
  </defs>
  <path
     d="M 246 116.574 L 245.744 116.574 L 245.744 63.69 L 135.002 24.688 L 133.119 25.385 L 25.113 65.339 L 25.113 210.508 L 28.739 211.821 L 136.886 251.519 L 245.743 213.244 L 245.743 191.907 L 246 191.907 C 250.963 191.907 255 187.87 255 182.907 L 255 125.574 C 255 120.612 250.963 116.574 246 116.574 z "
     style="font-size:12;opacity:0.2;"
     id="path895" />
  <path
     d="M 124.007 18.708 L 16 58.662 L 16 203.831 L 19.626 205.144 L 127.773 244.842 L 236.63 206.567 L 236.63 57.013 L 125.89 18.011 L 124.007 18.708 z "
     style="font-size:12;fill:url(#XMLID_1_);"
     id="path902" />
  <path
     d="M 126.256 62.443 L 21.431 62.443 L 21.431 201.136 L 21.512 201.136 L 125.89 239.748 L 126.256 239.612 L 126.256 62.443 z "
     style="font-size:12;fill:#febf59;"
     id="path903" />
  <g
     style="font-size:12;stroke:#000000;"
     id="g904">
    <path
       d="M 126.256 62.443 L 126.256 239.612 L 125.89 239.748 L 230.268 201.136 L 231.202 201.136 L 231.202 62.443 L 126.256 62.443 z "
       style="fill:#ffffe6;stroke:none;"
       id="path905" />
    <path
       d="M 21.431 62.443 L 125.889 101.085 L 230.349 62.443 L 125.89 23.8 L 21.431 62.443 z "
       style="fill:#ffffe6;stroke:none;"
       id="path906" />
    <path
       d="M 125.89 101.085 L 21.431 62.443 L 21.431 200.05 L 21.512 200.05 L 125.89 238.662 L 126.256 238.526 L 126.256 100.95 L 125.89 101.085 z "
       style="fill:#ffffe6;stroke:none;"
       id="path907" />
  </g>
  <path
     d="M 125.89 23.8 L 22.899 61.9 C 39.819 68.159 56.74 74.418 73.661 80.678 C 85.233 84.959 96.806 89.24 108.378 93.521 C 113.095 95.266 120.771 99.999 125.89 99.999 C 130.323 99.999 136.972 95.9 141.052 94.39 C 153.409 89.82 165.765 85.248 178.12 80.678 C 195.042 74.418 211.96 68.159 228.882 61.9 L 125.89 23.8 z "
     style="font-size:12;fill:url(#XMLID_2_);"
     id="path914" />
  <path
     d="M 21.431 65.802 L 21.431 200.461 L 21.511 200.461 L 123.931 238.397 C 123.953 193.733 125.227 147.333 123.567 103.632 C 89.521 91.023 55.476 78.412 21.431 65.802 z "
     style="font-size:12;fill:url(#XMLID_3_);"
     id="path921" />
  <path
     d="M 128.668 239.066 L 230.275 201.612 L 231.201 201.612 L 231.201 67.259 C 219.43 71.356 131.347 102.088 129.353 104.827 C 127.262 107.696 128.604 233.333 128.668 239.066 z "
     style="font-size:12;fill:url(#XMLID_4_);"
     id="path928" />
  <path
     d="M 126.5 62 L 229.25 61.75 L 126 55.5 L 126 23.25 C 126 23.25 121.836 53.801 120.75 55.25 C 119.666 56.699 22 62 22 62 L 120.5 60.5 L 125.5 100.25 L 126.5 62 z "
     style="font-size:12;fill:url(#XMLID_5_);"
     id="path935" />
  <path
     d="M 256 256 L 0 256 L 0 0 L 256 0 L 256 256 z "
     style="font-size:12;fill:none;"
     id="path936" />
  <path
     d="M 137.367 116.574 C 132.404 116.574 128.367 120.612 128.367 125.574 L 128.367 182.907 C 128.367 187.87 132.404 191.907 137.367 191.907 L 237.367 191.907 C 242.33 191.907 246.367 187.87 246.367 182.907 L 246.367 125.574 C 246.367 120.612 242.33 116.574 237.367 116.574 L 137.367 116.574 L 137.367 116.574 z "
     style="font-size:12;fill:#e67901;"
     id="path937" />
  <path
     d="M 241.367 182.907 C 241.367 185.116 239.576 186.907 237.367 186.907 L 137.367 186.907 C 135.158 186.907 133.367 185.116 133.367 182.907 L 133.367 125.574 C 133.367 123.365 135.158 121.574 137.367 121.574 L 237.367 121.574 C 239.576 121.574 241.367 123.365 241.367 125.574 L 241.367 182.907 z "
     style="font-size:12;fill:url(#XMLID_6_);"
     id="path944" />
  <g
     style="font-size:12;stroke:#000000;"
     id="g945">
    <path
       d="M 152.658 173.272 L 152.658 142.522 L 140.908 142.522 L 140.908 138.397 L 169.033 138.397 L 169.033 142.522 L 157.283 142.522 L 157.283 173.272 L 152.658 173.272 z "
       style="fill:#ff6600;stroke:none;"
       id="path946" />
    <path
       d="M 189.838 174.022 C 187.369 174.022 185.112 173.646 183.067 172.894 C 181.02 172.142 179.263 170.998 177.796 169.462 C 176.327 167.911 175.202 165.991 174.421 163.704 C 173.64 161.417 173.25 158.784 173.25 155.807 C 173.25 152.987 173.645 150.46 174.434 148.228 C 175.223 145.996 176.353 144.087 177.822 142.504 C 179.244 140.969 180.995 139.785 183.074 138.955 C 185.152 138.125 187.427 137.709 189.896 137.709 C 191.068 137.709 192.193 137.796 193.271 137.968 C 194.349 138.14 195.381 138.375 196.367 138.673 C 197.148 138.908 198.019 139.234 198.98 139.649 C 199.941 140.064 200.719 140.42 201.313 140.717 L 201.313 146.334 L 200.915 146.334 C 200.336 145.815 199.737 145.324 199.12 144.859 C 198.502 144.395 197.63 143.895 196.504 143.36 C 195.566 142.889 194.486 142.496 193.267 142.181 C 192.046 141.867 190.733 141.708 189.326 141.708 C 185.963 141.708 183.245 142.979 181.173 145.521 C 179.101 148.063 178.065 151.444 178.065 155.665 C 178.065 158.019 178.337 160.074 178.884 161.831 C 179.43 163.589 180.218 165.079 181.248 166.303 C 182.246 167.512 183.452 168.434 184.864 169.069 C 186.276 169.705 187.864 170.022 189.628 170.022 C 190.939 170.022 192.242 169.928 193.537 169.74 C 194.832 169.552 195.925 169.27 196.814 168.893 L 196.814 159.834 L 188.814 159.834 L 188.814 155.709 L 201.439 155.709 L 201.439 171.009 C 200.845 171.277 200.052 171.613 199.06 172.022 C 198.068 172.431 197.143 172.751 196.284 172.986 C 195.143 173.332 194.113 173.59 193.191 173.763 C 192.267 173.935 191.151 174.022 189.838 174.022 z "
       style="fill:#ff6600;stroke:none;"
       id="path947" />
    <path
       d="M 233.139 173.272 L 208.764 173.272 L 208.764 168.959 L 227.45 142.521 L 209.639 142.521 L 209.639 138.396 L 232.639 138.396 L 232.639 142.591 L 213.794 169.146 L 233.139 169.146 L 233.139 173.272 z "
       style="fill:#ff6600;stroke:none;"
       id="path948" />
  </g>
</svg>
