<?xml version="1.0" encoding="UTF-8" standalone="no"?>
<!DOCTYPE svg PUBLIC "-//W3C//DTD SVG 20010904//EN"
"http://www.w3.org/TR/2001/REC-SVG-20010904/DTD/svg10.dtd">
<!-- Created with Sodipodi ("http://www.sodipodi.com/") -->
<svg
   width="48pt"
   height="48pt"
   viewBox="0 0 256 256"
   overflow="visible"
   enable-background="new 0 0 256 256"
   xml:space="preserve"
   xmlns="http://www.w3.org/2000/svg"
   xmlns:xml="http://www.w3.org/XML/1998/namespace"
   xmlns:a="http://ns.adobe.com/AdobeSVGViewerExtensions/3.0/"
   xmlns:sodipodi="http://sodipodi.sourceforge.net/DTD/sodipodi-0.dtd"
   xmlns:xlink="http://www.w3.org/1999/xlink"
   id="svg153"
   sodipodi:version="0.32pre"
   sodipodi:docname="/home/cschalle/gnome-themes-extras/Nuvola/icons/scalable/mimetypes/gnome-mime-application-msword.svg"
   sodipodi:docbase="/home/cschalle/gnome-themes-extras/Nuvola/icons/scalable/mimetypes">
  <defs
     id="defs181" />
  <sodipodi:namedview
     id="base" />
  <g
     id="Layer_2"
     stroke="#000000">
    <path
       fill="none"
       stroke="none"
       d="M256,256H0V0h256V256z"
       id="path155" />
  </g>
  <g
     id="Layer_3"
     stroke="#000000">
    <path
       opacity="0.2"
       stroke="none"
       d="M49,19c-9.374,0-17,7.626-17,17v200c0,9.374,7.626,17,17,17h176c9.374,0,17-7.626,17-17V36    c0-9.374-7.626-17-17-17H49z"
       id="path157" />
    <linearGradient
       id="XMLID_1_"
       gradientUnits="userSpaceOnUse"
       x1="23"
       y1="130"
       x2="233"
       y2="130">
      <stop
         offset="0"
         style="stop-color:#999999"
         id="stop159" />
      <stop
         offset="1"
         style="stop-color:#666666"
         id="stop160" />
      <a:midPointStop
         offset="0"
         style="stop-color:#999999"
         id="midPointStop161" />
      <a:midPointStop
         offset="0.5"
         style="stop-color:#999999"
         id="midPointStop162" />
      <a:midPointStop
         offset="1"
         style="stop-color:#666666"
         id="midPointStop163" />
    </linearGradient>
    <path
       fill="url(#XMLID_1_)"
       stroke="none"
       d="M40,13c-9.374,0-17,7.626-17,17v200c0,9.374,7.626,17,17,17h176    c9.374,0,17-7.626,17-17V30c0-9.374-7.626-17-17-17H40z"
       id="path164" />
    <path
       fill="#99CCFF"
       stroke="none"
       d="M28,230c0,6.627,5.373,12,12,12h176c6.627,0,12-5.373,12-12V30c0-6.627-5.373-12-12-12H40    c-6.627,0-12,5.373-12,12V230z"
       id="path165" />
    <linearGradient
       id="XMLID_2_"
       gradientUnits="userSpaceOnUse"
       x1="84.5029"
       y1="86.5029"
       x2="321.5015"
       y2="323.5015">
      <stop
         offset="0"
         style="stop-color:#FFFFFF"
         id="stop167" />
      <stop
         offset="1"
         style="stop-color:#99CCFF"
         id="stop168" />
      <a:midPointStop
         offset="0"
         style="stop-color:#FFFFFF"
         id="midPointStop169" />
      <a:midPointStop
         offset="0.5"
         style="stop-color:#FFFFFF"
         id="midPointStop170" />
      <a:midPointStop
         offset="1"
         style="stop-color:#99CCFF"
         id="midPointStop171" />
    </linearGradient>
    <path
       fill="url(#XMLID_2_)"
       stroke="none"
       d="M40,23c-3.859,0-7,3.14-7,7v200c0,3.859,3.141,7,7,7h176c3.859,0,7-3.141,7-7V30    c0-3.86-3.141-7-7-7H40z"
       id="path172" />
    <path
       fill="#99CCFF"
       stroke="none"
       d="M123,216H55V40h68V216z"
       id="path173" />
    <path
       fill="#99CCFF"
       stroke="none"
       d="M208,107h-74V40h74V107z"
       id="path174" />
    <path
       opacity="0.4"
       fill="#FFFFFF"
       stroke="none"
       d="M163,108c18.593-17.431,40.938-26.006,65-30.265V30c0-6.627-5.373-12-12-12    H40c-6.627,0-12,5.373-12,12v143.268C77.582,177.009,124.478,142.51,163,108z"
       id="path175" />
    <path
       fill="#99CCFF"
       stroke="none"
       d="M208,216h-74v-92h74V216z"
       id="path176" />
    <path
       fill="#999999"
       stroke="none"
       d="M35,59.5c0,3.038,2.462,5.5,5.5,5.5s5.5-2.462,5.5-5.5S43.538,54,40.5,54S35,56.462,35,59.5    z"
       id="path177" />
    <path
       fill="#999999"
       stroke="none"
       d="M35,207.5c0,3.037,2.462,5.5,5.5,5.5s5.5-2.463,5.5-5.5s-2.462-5.5-5.5-5.5    S35,204.463,35,207.5z"
       id="path178" />
    <path
       fill="#999999"
       stroke="none"
       d="M35,133.5c0,3.037,2.462,5.5,5.5,5.5s5.5-2.463,5.5-5.5s-2.462-5.5-5.5-5.5    S35,130.463,35,133.5z"
       id="path179" />
  </g>
</svg>
