<?xml version="1.0" encoding="UTF-8" standalone="no"?>
<!DOCTYPE svg PUBLIC "-//W3C//DTD SVG 20010904//EN"
"http://www.w3.org/TR/2001/REC-SVG-20010904/DTD/svg10.dtd">
<!-- Created with Sodipodi ("http://www.sodipodi.com/") -->
<svg
   i:viewOrigin="178 524"
   i:rulerOrigin="-178 -268"
   i:pageBounds="178 524 434 268"
   width="48pt"
   height="48pt"
   viewBox="0 0 256 256"
   style="overflow:visible;enable-background:new 0 0 256 256"
   xml:space="preserve"
   xmlns="http://www.w3.org/2000/svg"
   xmlns:ns="&amp;ns_vars;"
   xmlns:i="&amp;ns_ai;"
   xmlns:xml="http://www.w3.org/XML/1998/namespace"
   xmlns:sodipodi="http://sodipodi.sourceforge.net/DTD/sodipodi-0.dtd"
   xmlns:xlink="http://www.w3.org/1999/xlink"
   id="svg153"
   sodipodi:version="0.32pre"
   sodipodi:docname="/home/cschalle/gnome-themes-extras/Nuvola/icons/scalable/mimetypes/gnome-mime-application-x-gnome-app-info.svg"
   sodipodi:docbase="/home/cschalle/gnome-themes-extras/Nuvola/icons/scalable/mimetypes">
  <defs
     id="defs192">
    <linearGradient
       id="XMLID_1_"
       gradientUnits="userSpaceOnUse"
       x1="23"
       y1="130"
       x2="233"
       y2="130">
      <stop
         offset="0"
         style="stop-color:#A7ABAC"
         id="stop158" />
      <stop
         offset="1"
         style="stop-color:#85898A"
         id="stop159" />
    </linearGradient>
    <linearGradient
       id="XMLID_2_"
       gradientUnits="userSpaceOnUse"
       x1="84.5029"
       y1="86.5029"
       x2="321.5015"
       y2="323.5015">
      <stop
         offset="0"
         style="stop-color:#FFFFFF"
         id="stop166" />
      <stop
         offset="1"
         style="stop-color:#99CCFF"
         id="stop167" />
    </linearGradient>
    <radialGradient
       id="XMLID_3_"
       cx="91.5063"
       cy="89.4985"
       r="149.2253"
       fx="91.5063"
       fy="89.4985"
       gradientUnits="userSpaceOnUse">
      <stop
         offset="0"
         style="stop-color:#3399FF"
         id="stop174" />
      <stop
         offset="1"
         style="stop-color:#0066CC"
         id="stop175" />
    </radialGradient>
    <radialGradient
       id="XMLID_4_"
       cx="53.7324"
       cy="47.9302"
       r="74.9396"
       fx="53.7324"
       fy="47.9302"
       gradientUnits="userSpaceOnUse">
      <stop
         offset="0"
         style="stop-color:#FF9966"
         id="stop181" />
      <stop
         offset="1"
         style="stop-color:#FF6633"
         id="stop182" />
    </radialGradient>
  </defs>
  <sodipodi:namedview
     id="base" />
  <metadata
     id="metadata154">
    <ns:variableSets>
      <ns:variableSet
         varSetName="binding1"
         locked="none">
        <ns:variables />
        <ns:sampleDataSets />
      </ns:variableSet>
    </ns:variableSets>
  </metadata>
  <path
     i:knockout="Off"
     style="font-size:12;opacity:0.2;"
     d="M49,19c-9.374,0-17,7.626-17,17v200c0,9.374,7.626,17,17,17h176c9.374,0,17-7.626,17-17    V36c0-9.374-7.626-17-17-17H49z"
     id="path156" />
  <path
     i:knockout="Off"
     style="font-size:12;fill:url(#XMLID_1_);"
     d="M40,13c-9.374,0-17,7.626-17,17v200c0,9.374,7.626,17,17,17h176c9.374,0,17-7.626,17-17    V30c0-9.374-7.626-17-17-17H40z"
     id="path163" />
  <path
     i:knockout="Off"
     style="font-size:12;fill:#99ccff;"
     d="M28,230c0,6.627,5.373,12,12,12h176c6.627,0,12-5.373,12-12V30c0-6.627-5.373-12-12-12H40    c-6.627,0-12,5.373-12,12V230z"
     id="path164" />
  <path
     i:knockout="Off"
     style="font-size:12;fill:url(#XMLID_2_);"
     d="M40,23c-3.859,0-7,3.14-7,7v200c0,3.859,3.141,7,7,7h176c3.859,0,7-3.141,7-7V30    c0-3.86-3.141-7-7-7H40z"
     id="path171" />
  <g
     id="Layer_2"
     i:layer="yes"
     i:editable="no"
     i:dimmedPercent="50"
     i:rgbTrio="#FFFF4F004F00"
     style="stroke:#000000;">
    <path
       i:knockout="Off"
       style="fill:none;stroke:none;"
       d="M256,256H0V0h256V256z"
       id="path190" />
  </g>
  <path
     i:knockout="Off"
     style="font-size:12;opacity:0.4;fill:#ffffff;"
     d="M163,108c18.593-17.431,40.938-26.006,65-30.265V30c0-6.627-5.373-12-12-12H40    c-6.627,0-12,5.373-12,12v143.268C77.582,177.009,124.478,142.51,163,108z"
     id="path172"
     transform="translate(0.611008,1.22186)" />
  <g
     id="Layer_x0020_3"
     style="fill-rule:nonzero;clip-rule:nonzero;fill:#FFFFFF;stroke:#000000;stroke-miterlimit:4;overflow:visible;enable-background:new 0 0 204.756 242.184;"
     transform="matrix(6.0283,0,0,6.35177,-16.5865,-28.4332)">
    <g
       id="g4323">
      <g
         id="g4324">
        <g
           id="g4325">
          <path
             style="fill:#BEBEBE;stroke:none;"
             d="M12.6,25.5c0-6.6,5.3-11.9,11.9-11.9s11.9,5.3,11.9,11.9c0,6.6-5.3,11.9-11.9,11.9s-11.9-5.3-11.9-11.9z"
             id="path4326" />
          <radialGradient
             id="aigrd5"
             cx="20.4224"
             cy="20.6162"
             r="13.9631"
             fx="20.4224"
             fy="20.6162"
             gradientUnits="userSpaceOnUse">
            <stop
               offset="0"
               style="stop-color:#F9FAE9"
               id="stop4328" />
            <stop
               offset="0.5056"
               style="stop-color:#F5C417"
               id="stop4329" />
            <stop
               offset="0.6035"
               style="stop-color:#EEB817"
               id="stop4330" />
            <stop
               offset="0.7662"
               style="stop-color:#DB9714"
               id="stop4331" />
            <stop
               offset="0.9726"
               style="stop-color:#BD6810"
               id="stop4332" />
            <stop
               offset="1"
               style="stop-color:#B9620F"
               id="stop4333" />
          </radialGradient>
          <path
             style="fill-rule:evenodd;clip-rule:evenodd;fill:url(#aigrd5);stroke:none;"
             d="M12.5,24.4c0,6.2,5,11.1,11.1,11.1c6.2,0,11.1-5,11.1-11.1s-5-11.1-11.1-11.1c-6.2,0-11.1,5-11.1,11.1z"
             id="path4334" />
          <path
             style="fill:none;stroke:#0C0B0B;stroke-width:8.081411e-003;stroke-miterlimit:3.8637;"
             d="M23.3,24.7v0"
             id="path4335" />
          <path
             style="fill-rule:evenodd;clip-rule:evenodd;fill:#000000;stroke:none;"
             d="M13.5,24.4c0,5.6,4.5,10.1,10.1,10.1c5.6,0,10.1-4.5,10.1-10.1c0-5.6-4.5-10.1-10.1-10.1c-5.6,0-10.1,4.5-10.1,10.1 M11.6,24.4c0-6.6,5.4-12,12-12c6.6,0,12,5.4,12,12c0,6.6-5.4,12-12,12c-6.6,0-12-5.4-12-12z"
             id="path4336" />
          <linearGradient
             id="aigrd6"
             gradientUnits="userSpaceOnUse"
             x1="22.5835"
             y1="36.5459"
             x2="35.2023"
             y2="28.9982">
            <stop
               offset="0"
               style="stop-color:#0C0B0B"
               id="stop4338" />
            <stop
               offset="1"
               style="stop-color:#251F20"
               id="stop4339" />
          </linearGradient>
          <path
             style="fill-rule:evenodd;clip-rule:evenodd;fill:url(#aigrd6);stroke:none;"
             d="M34.5,27.7c-1.5,5.2-6.5,8.9-12.7,7.9l0.2-0.3c6,0.4,10.4-3,12.1-7.6l0.4,0z"
             id="path4340" />
          <radialGradient
             id="aigrd7"
             cx="12.3306"
             cy="22.1348"
             r="8.0107"
             fx="12.3306"
             fy="22.1348"
             gradientUnits="userSpaceOnUse">
            <stop
               offset="0"
               style="stop-color:#0C0B0B"
               id="stop4342" />
            <stop
               offset="1"
               style="stop-color:#554C4D"
               id="stop4343" />
          </radialGradient>
          <path
             style="fill-rule:evenodd;clip-rule:evenodd;fill:url(#aigrd7);stroke:none;"
             d="M16.4,15.3c-1.7,1.1-3.7,3.9-4.1,6.9c0.5-0.1,0-1.1,0.7-1.1c0.3-1.4,0.3-2.4,3.3-5.5c0-0.1,0.4-0.2,0.2-0.3z"
             id="path4344" />
        </g>
      </g>
    </g>
    <g
       style="stroke:none;"
       id="g4345">
      <g
         style="opacity:0.5;"
         id="g4346">
        <path
           d="M28.2,17.8c-3,0-3.6,4.3-1.9,4.3c1.7,0,4.9-4.3,1.9-4.3z"
           id="path4347" />
        <path
           d="M23.1,21.5c0.9,0.1,1.9-3.5,0.2-3.2c-1.7,0.2-1.1,3.2-0.2,3.2z"
           id="path4348" />
        <path
           d="M19,23.7c0.6-0.3,0.1-3.1-1-2.3c-1.1,0.8,0.4,2.6,1,2.3z"
           id="path4349" />
        <path
           d="M20.8,22.3c0.8-0.2,0.8-3.3-0.6-2.7c-1.4,0.6-0.2,2.9,0.6,2.7z"
           id="path4350" />
        <path
           id="newshape"
           d="M24.8,29.3c0.1,1-0.8,1.6-1.6,0.9c-2.8-2.1,4.7-3.2,4.2-6.1c-0.4-2.4-7.9-1.7-8.7,2.1C18,28.8,21,32.3,24,32.3c1.5,0,3.2-1.4,3.6-3.1c0.2-1.3-2.9-0.8-2.8,0.1z" />
      </g>
      <g
         style="fill:#000000;"
         id="g4352">
        <path
           d="M28,17.6c-3,0-3.6,4.3-1.9,4.3c1.7,0,4.9-4.3,1.9-4.3z"
           id="path4353" />
        <path
           d="M23,21.4c0.9,0.1,1.9-3.5,0.2-3.2s-1.1,3.2-0.2,3.2z"
           id="path4354" />
        <path
           d="M18.8,23.6c0.6-0.3,0.1-3.1-1-2.3c-1.1,0.8,0.4,2.6,1,2.3z"
           id="path4355" />
        <path
           d="M20.6,22.1c0.8-0.2,0.8-3.3-0.6-2.7c-1.4,0.6-0.2,2.9,0.6,2.7z"
           id="path4356" />
        <path
           d="M24.7,29.2c0.1,1-0.8,1.6-1.6,0.9c-2.8-2.1,4.7-3.2,4.2-6.1c-0.4-2.4-7.9-1.7-8.7,2.1c-0.6,2.6,2.4,6.1,5.4,6.1c1.5,0,3.2-1.4,3.6-3.1c0.2-1.3-2.9-0.8-2.8,0.1z"
           id="path4357" />
      </g>
    </g>
    <linearGradient
       id="aigrd8"
       gradientUnits="userSpaceOnUse"
       x1="47.4858"
       y1="18.7568"
       x2="47.4858"
       y2="31.9575"
       gradientTransform="matrix(0.9723 -0.2335 0.2335 0.9723 -29.0476 8.5486)">
      <stop
         offset="0"
         style="stop-color:#F9FAE9"
         id="stop4359" />
      <stop
         offset="1"
         style="stop-color:#F5C417"
         id="stop4360" />
    </linearGradient>
    <path
       style="opacity:0.78;fill-rule:evenodd;clip-rule:evenodd;fill:url(#aigrd8);stroke:none;"
       d="M14.2,26c7.5,3.2,10.1-8.5,18.4-4.6c-1.5-4.7-6.4-7.5-11.3-6.3c-4.9,1.2-8,6-7.1,10.9z"
       id="path4361" />
  </g>
</svg>
