<?xml version="1.0" encoding="UTF-8" standalone="no"?>
<!DOCTYPE svg PUBLIC "-//W3C//DTD SVG 20010904//EN"
"http://www.w3.org/TR/2001/REC-SVG-20010904/DTD/svg10.dtd">
<!-- Created with Sodipodi ("http://www.sodipodi.com/") -->
<svg
   width="48pt"
   height="56pt"
   viewBox="0 0 204.755 242.183"
   style="overflow:visible;enable-background:new 0 0 204.755 242.183"
   xml:space="preserve"
   id="svg2555"
   sodipodi:version="0.32pre"
   sodipodi:docname="/home/cschalle/gnome-themes-extras/Nuvola/icons/scalable/mimetypes/gnome-mime-application-pgp.svg"
   sodipodi:docbase="/home/cschalle/gnome-themes-extras/Nuvola/icons/scalable/mimetypes/"
   xmlns="http://www.w3.org/2000/svg"
   xmlns:sodipodi="http://sodipodi.sourceforge.net/DTD/sodipodi-0.dtd"
   xmlns:xml="http://www.w3.org/XML/1998/namespace"
   xmlns:a="http://ns.adobe.com/AdobeSVGViewerExtensions/3.0/"
   xmlns:xlink="http://www.w3.org/1999/xlink">
  <defs
     id="defs2610">
    <linearGradient
       id="XMLID_1_"
       gradientUnits="userSpaceOnUse"
       x1="227.9497"
       y1="263.2354"
       x2="60.8168"
       y2="96.103">
      <stop
         offset="0"
         style="stop-color:#999999"
         id="stop2558" />
      <stop
         offset="1"
         style="stop-color:#CCCCCC"
         id="stop2559" />
      <a:midPointStop
         offset="0"
         style="stop-color:#999999"
         id="midPointStop2560" />
      <a:midPointStop
         offset="0.5"
         style="stop-color:#999999"
         id="midPointStop2561" />
      <a:midPointStop
         offset="1"
         style="stop-color:#CCCCCC"
         id="midPointStop2562" />
    </linearGradient>
    <linearGradient
       id="XMLID_2_"
       gradientUnits="userSpaceOnUse"
       x1="3.3936"
       y1="-0.8843"
       x2="194.0594"
       y2="268.4486">
      <stop
         offset="0"
         style="stop-color:#CCDEED"
         id="stop2565" />
      <stop
         offset="0.2762"
         style="stop-color:#C7DBEB"
         id="stop2566" />
      <stop
         offset="0.5856"
         style="stop-color:#BAD1E6"
         id="stop2567" />
      <stop
         offset="0.9099"
         style="stop-color:#A4C1DD"
         id="stop2568" />
      <stop
         offset="1"
         style="stop-color:#9CBCDA"
         id="stop2569" />
      <a:midPointStop
         offset="0"
         style="stop-color:#CCDEED"
         id="midPointStop2570" />
      <a:midPointStop
         offset="0.6836"
         style="stop-color:#CCDEED"
         id="midPointStop2571" />
      <a:midPointStop
         offset="1"
         style="stop-color:#9CBCDA"
         id="midPointStop2572" />
    </linearGradient>
    <linearGradient
       id="XMLID_3_"
       gradientUnits="userSpaceOnUse"
       x1="3.7124"
       y1="17.002"
       x2="186.3787"
       y2="238.3348">
      <stop
         offset="0"
         style="stop-color:#FFFFFF"
         id="stop2575" />
      <stop
         offset="0.2232"
         style="stop-color:#FAFBFD"
         id="stop2576" />
      <stop
         offset="0.4988"
         style="stop-color:#EBF0F7"
         id="stop2577" />
      <stop
         offset="0.8006"
         style="stop-color:#D2DFED"
         id="stop2578" />
      <stop
         offset="1"
         style="stop-color:#BDD0E5"
         id="stop2579" />
      <a:midPointStop
         offset="0"
         style="stop-color:#FFFFFF"
         id="midPointStop2580" />
      <a:midPointStop
         offset="0.6628"
         style="stop-color:#FFFFFF"
         id="midPointStop2581" />
      <a:midPointStop
         offset="1"
         style="stop-color:#BDD0E5"
         id="midPointStop2582" />
    </linearGradient>
    <linearGradient
       id="XMLID_4_"
       gradientUnits="userSpaceOnUse"
       x1="49.8477"
       y1="68.4077"
       x2="161.4459"
       y2="180.0059">
      <stop
         offset="0"
         style="stop-color:#FFFFFF"
         id="stop2600" />
      <stop
         offset="0.2319"
         style="stop-color:#FAFCFD"
         id="stop2601" />
      <stop
         offset="0.4917"
         style="stop-color:#EDF2F8"
         id="stop2602" />
      <stop
         offset="0.764"
         style="stop-color:#D7E2EF"
         id="stop2603" />
      <stop
         offset="1"
         style="stop-color:#BDD0E5"
         id="stop2604" />
      <a:midPointStop
         offset="0"
         style="stop-color:#FFFFFF"
         id="midPointStop2605" />
      <a:midPointStop
         offset="0.6836"
         style="stop-color:#FFFFFF"
         id="midPointStop2606" />
      <a:midPointStop
         offset="1"
         style="stop-color:#BDD0E5"
         id="midPointStop2607" />
    </linearGradient>
  </defs>
  <sodipodi:namedview
     id="base" />
  <path
     style="font-size:12;fill:url(#XMLID_1_);"
     d="M168.618,0H0v242.183h204.755V39.088l-1.614-2.411    c-9.829-14.695-19.416-25.659-30.169-34.503L170.329,0H168.618z"
     id="path2563" />
  <path
     style="font-size:12;fill:url(#XMLID_2_);"
     d="M166.906,4.775H4.775v232.633h195.206V40.538l-0.808-1.206    c-9.564-14.297-18.854-24.934-29.234-33.471l-1.321-1.087H166.906z"
     id="path2573" />
  <path
     style="font-size:12;fill:url(#XMLID_3_);"
     d="M9.55,9.55c0,8.97,0,214.111,0,223.082c8.861,0,176.793,0,185.654,0    c0-9.022,0-187.817,0-190.644c-9.271-13.861-18.327-24.237-28.299-32.438C163.612,9.55,18.454,9.55,9.55,9.55z"
     id="path2583" />
  <path
     style="font-size:12;opacity:0.5;fill:url(#XMLID_4_);"
     d="M64.162,146.834    c50.264-32.703,95.79-71.175,111.914-128.885c0.445-1.624,0.851-3.241,1.234-4.856c-3.024-3.116-6.115-5.983-9.306-8.646    l-1.313-1.095h-1.698H3.989v201.975C16.365,181.14,42.769,161.106,64.162,146.834z"
     id="path2608" />
  <g
     id="Layer_x0020_3"
     style="fill-rule:nonzero;clip-rule:nonzero;stroke:#000000;stroke-miterlimit:4;"
     transform="matrix(7.76711,0,0,6.70042,-81.2451,-43.6629)">
    <path
       style="stroke:none;"
       d="M16.7,18.8c0,0,0,1.2,0,2.2c-1.3,0.1-2.4,1.3-2.4,2.6v10.6c0,1.5,1.2,2.6,2.6,2.6h14.3c1.5,0,2.6-1.2,2.6-2.6V23.5c0-1.3-1-2.4-2.2-2.6c0-0.9,0-2.2,0-2.2c0-4.1-3.4-7.5-7.5-7.5c-4.1,0-7.5,3.4-7.5,7.5z M21.4,18.8c0-1.5,1.2-2.8,2.8-2.8    c1.5,0,2.8,1.2,2.8,2.8c0,0,0,1.2,0,2.1c-1.3,0-4.3,0-5.6,0c0-0.9,0-2.1,0-2.1z"
       id="path2783" />
    <path
       style="fill:#D2D2D2;stroke:none;"
       d="M17.6,18.7v6.1h2.8v-6.1c0-2.1,1.7-3.8,3.8-3.8s3.8,1.7,3.8,3.8v6.1h2.8v-6.1c0-3.6-2.9-6.5-6.5-6.5s-6.5,2.9-6.5,6.5z"
       id="path2784" />
    <g
       id="g2785">
      <path
         style="opacity:0.5;stroke:none;"
         d="M24.6,12.6c3.3-0.1,5.9,2.3,6.1,6v6.1h-0.6V19c0-3.6-2.5-6.1-5.5-6.4z"
         id="path2786" />
    </g>
    <g
       id="g2787">
      <path
         style="opacity:0.5;fill:#FFFFFF;stroke:none;"
         d="M24.6,12.6c1.3,0,2.6,0.4,3.6,1.1c-1.1-0.9-2.6-1.5-4.2-1.5c-3.6,0-6.5,2.9-6.5,6.5v6.1h0.6v-5.7c0-3.6,2.9-6.5,6.5-6.5z"
         id="path2788" />
    </g>
    <g
       id="g2789">
      <path
         style="opacity:0.5;fill:#FFFFFF;stroke:none;"
         d="M28.4,24.7v-5.8c0-1.5-0.9-2.8-2.1-3.4c1,0.7,1.6,1.8,1.6,3.1v6.1h0.5z"
         id="path2790" />
    </g>
    <g
       id="g2791">
      <path
         style="opacity:0.5;stroke:none;"
         d="M20,24.8v-5.8c0-1.5,0.9-2.8,2.1-3.4c-1,0.7-1.6,1.8-1.6,3.1v6.1H20z"
         id="path2792" />
    </g>
    <linearGradient
       id="aigrd5"
       gradientUnits="userSpaceOnUse"
       x1="16.3872"
       y1="28.7354"
       x2="32.0992"
       y2="28.7354">
      <stop
         offset="0"
         style="stop-color:#F6EDC8"
         id="stop2794" />
      <stop
         offset="1.444304e-002"
         style="stop-color:#F3EAC0"
         id="stop2795" />
      <stop
         offset="7.716820e-002"
         style="stop-color:#E8DEA3"
         id="stop2796" />
      <stop
         offset="0.1471"
         style="stop-color:#E1D48F"
         id="stop2797" />
      <stop
         offset="0.2271"
         style="stop-color:#DACD81"
         id="stop2798" />
      <stop
         offset="0.3259"
         style="stop-color:#D7CA78"
         id="stop2799" />
      <stop
         offset="0.5"
         style="stop-color:#D6C876"
         id="stop2800" />
      <stop
         offset="0.7061"
         style="stop-color:#D3C575"
         id="stop2801" />
      <stop
         offset="0.7987"
         style="stop-color:#CABE70"
         id="stop2802" />
      <stop
         offset="0.8686"
         style="stop-color:#BAAF67"
         id="stop2803" />
      <stop
         offset="0.9271"
         style="stop-color:#A49B5C"
         id="stop2804" />
      <stop
         offset="0.9779"
         style="stop-color:#8A844E"
         id="stop2805" />
      <stop
         offset="1"
         style="stop-color:#7D7746"
         id="stop2806" />
    </linearGradient>
    <path
       style="fill:url(#aigrd5);stroke:none;"
       d="M32.9,34c0,0.9-0.7,1.7-1.7,1.7H16.9c-0.9,0-1.7-0.7-1.7-1.7V23.4c0-0.9,0.7-1.7,1.7-1.7h14.3c0.9,0,1.7,0.7,1.7,1.7V34z"
       id="path2807" />
    <path
       style="opacity:0.5;fill:#FFFFFF;stroke:none;"
       d="M26.8,26.9c0-1.1-1.1-2.2-2.2-2.2s-1.7,1.1-1.7,2.2c0,0.8,0.5,1.5,1.2,1.8l-1.7,2.9l4.3,0.3l-1.2-3.2c0.7-0.3,1.2-1,1.2-1.8z"
       id="path2808" />
    <path
       style="opacity:0.5;stroke:none;"
       d="M26.4,26.5c0-1.1-1-2.3-2.4-2.3c-1.1,0-1.9,0.9-1.9,1.9c0,1.2,0.6,1.9,1.3,2.2l-0.9,3.3l3.5-0.4L24.7,28c0.7-0.3,1.7-0.7,1.7-1.5z"
       id="path2809" />
    <path
       style="stroke:none;"
       d="M26.4,26.6c0-1.1-0.9-1.9-1.9-1.9s-1.9,0.9-1.9,1.9c0,0.8,0.5,1.5,1.2,1.8l-1.2,3.2h3.9l-1.2-3.2c0.7-0.3,1.2-1,1.2-1.8z"
       id="path2810" />
    <path
       style="opacity:0.5;stroke:none;"
       d="M16.9,35.7c0,0,13.5,0,14.3,0c0.9,0,1.7-0.7,1.7-1.7c0-0.9,0-10.6,0-10.6s-1,9.6-1.1,10.1c-0.1,0.5-0.5,1.2-1.2,1.2c-0.6,0-13.7,0.9-13.7,0.9z"
       id="path2811" />
    <path
       style="opacity:0.5;fill:#FFFFFF;stroke:none;"
       d="M31.2,21.8c0,0-13.5,0-14.3,0c-0.9,0-1.7,0.7-1.7,1.7s0,10.6,0,10.6s1-9.6,1.1-10.1c0.1-0.4,0.5-1.2,1.2-1.2c0.6,0,13.7-0.9,13.7-0.9z"
       id="path2812" />
  </g>
</svg>
