<?xml version="1.0" encoding="UTF-8" standalone="no"?>
<!DOCTYPE svg PUBLIC "-//W3C//DTD SVG 20010904//EN"
"http://www.w3.org/TR/2001/REC-SVG-20010904/DTD/svg10.dtd">
<!-- Created with Sodipodi ("http://www.sodipodi.com/") -->
<svg
   width="38pt"
   height="48pt"
   viewBox="0 0 204.755 242.183"
   style="overflow:visible;enable-background:new 0 0 204.755 242.183"
   xml:space="preserve"
   id="svg2555"
   sodipodi:version="0.32pre"
   sodipodi:docname="/home/cschalle/gnome-themes-extras/Nuvola/icons/scalable/mimetypes/gnome-mime-application-x-dvi.svg"
   sodipodi:docbase="/home/cschalle/gnome-themes-extras/Nuvola/icons/scalable/mimetypes/"
   xmlns="http://www.w3.org/2000/svg"
   xmlns:sodipodi="http://sodipodi.sourceforge.net/DTD/sodipodi-0.dtd"
   xmlns:xml="http://www.w3.org/XML/1998/namespace"
   xmlns:a="http://ns.adobe.com/AdobeSVGViewerExtensions/3.0/"
   xmlns:xlink="http://www.w3.org/1999/xlink">
  <defs
     id="defs2610">
    <linearGradient
       id="XMLID_1_"
       gradientUnits="userSpaceOnUse"
       x1="227.9497"
       y1="263.2354"
       x2="60.8168"
       y2="96.103">
      <stop
         offset="0"
         style="stop-color:#999999"
         id="stop2558" />
      <stop
         offset="1"
         style="stop-color:#CCCCCC"
         id="stop2559" />
      <a:midPointStop
         offset="0"
         style="stop-color:#999999"
         id="midPointStop2560" />
      <a:midPointStop
         offset="0.5"
         style="stop-color:#999999"
         id="midPointStop2561" />
      <a:midPointStop
         offset="1"
         style="stop-color:#CCCCCC"
         id="midPointStop2562" />
    </linearGradient>
    <linearGradient
       id="XMLID_2_"
       gradientUnits="userSpaceOnUse"
       x1="3.3936"
       y1="-0.8843"
       x2="194.0594"
       y2="268.4486">
      <stop
         offset="0"
         style="stop-color:#CCDEED"
         id="stop2565" />
      <stop
         offset="0.2762"
         style="stop-color:#C7DBEB"
         id="stop2566" />
      <stop
         offset="0.5856"
         style="stop-color:#BAD1E6"
         id="stop2567" />
      <stop
         offset="0.9099"
         style="stop-color:#A4C1DD"
         id="stop2568" />
      <stop
         offset="1"
         style="stop-color:#9CBCDA"
         id="stop2569" />
      <a:midPointStop
         offset="0"
         style="stop-color:#CCDEED"
         id="midPointStop2570" />
      <a:midPointStop
         offset="0.6836"
         style="stop-color:#CCDEED"
         id="midPointStop2571" />
      <a:midPointStop
         offset="1"
         style="stop-color:#9CBCDA"
         id="midPointStop2572" />
    </linearGradient>
    <linearGradient
       id="XMLID_3_"
       gradientUnits="userSpaceOnUse"
       x1="3.7124"
       y1="17.002"
       x2="186.3787"
       y2="238.3348">
      <stop
         offset="0"
         style="stop-color:#FFFFFF"
         id="stop2575" />
      <stop
         offset="0.2232"
         style="stop-color:#FAFBFD"
         id="stop2576" />
      <stop
         offset="0.4988"
         style="stop-color:#EBF0F7"
         id="stop2577" />
      <stop
         offset="0.8006"
         style="stop-color:#D2DFED"
         id="stop2578" />
      <stop
         offset="1"
         style="stop-color:#BDD0E5"
         id="stop2579" />
      <a:midPointStop
         offset="0"
         style="stop-color:#FFFFFF"
         id="midPointStop2580" />
      <a:midPointStop
         offset="0.6628"
         style="stop-color:#FFFFFF"
         id="midPointStop2581" />
      <a:midPointStop
         offset="1"
         style="stop-color:#BDD0E5"
         id="midPointStop2582" />
    </linearGradient>
    <linearGradient
       id="XMLID_4_"
       gradientUnits="userSpaceOnUse"
       x1="49.8477"
       y1="68.4077"
       x2="161.4459"
       y2="180.0059">
      <stop
         offset="0"
         style="stop-color:#FFFFFF"
         id="stop2600" />
      <stop
         offset="0.2319"
         style="stop-color:#FAFCFD"
         id="stop2601" />
      <stop
         offset="0.4917"
         style="stop-color:#EDF2F8"
         id="stop2602" />
      <stop
         offset="0.764"
         style="stop-color:#D7E2EF"
         id="stop2603" />
      <stop
         offset="1"
         style="stop-color:#BDD0E5"
         id="stop2604" />
      <a:midPointStop
         offset="0"
         style="stop-color:#FFFFFF"
         id="midPointStop2605" />
      <a:midPointStop
         offset="0.6836"
         style="stop-color:#FFFFFF"
         id="midPointStop2606" />
      <a:midPointStop
         offset="1"
         style="stop-color:#BDD0E5"
         id="midPointStop2607" />
    </linearGradient>
  </defs>
  <sodipodi:namedview
     id="base" />
  <g
     id="g3066"
     transform="matrix(0.9053,0,0,0.936423,14.3042,11.1003)"
     style="font-size:12;">
    <path
       style="font-size:12;fill:url(#XMLID_1_);"
       d="M168.618,0H0v242.183h204.755V39.088l-1.614-2.411    c-9.829-14.695-19.416-25.659-30.169-34.503L170.329,0H168.618z"
       id="path2563" />
    <path
       style="font-size:12;fill:url(#XMLID_2_);"
       d="M166.906,4.775H4.775v232.633h195.206V40.538l-0.808-1.206    c-9.564-14.297-18.854-24.934-29.234-33.471l-1.321-1.087H166.906z"
       id="path2573" />
    <path
       style="font-size:12;fill:url(#XMLID_3_);"
       d="M9.55,9.55c0,8.97,0,214.111,0,223.082c8.861,0,176.793,0,185.654,0    c0-9.022,0-187.817,0-190.644c-9.271-13.861-18.327-24.237-28.299-32.438C163.612,9.55,18.454,9.55,9.55,9.55z"
       id="path2583" />
    <path
       style="font-size:12;opacity:0.5;fill:url(#XMLID_4_);"
       d="M64.162,146.834    c50.264-32.703,95.79-71.175,111.914-128.885c0.445-1.624,0.851-3.241,1.234-4.856c-3.024-3.116-6.115-5.983-9.306-8.646    l-1.313-1.095h-1.698H3.989v201.975C16.365,181.14,42.769,161.106,64.162,146.834z"
       id="path2608" />
  </g>
  <g
     id="Layer_x0020_5"
     style="fill-rule:nonzero;clip-rule:nonzero;stroke:#000000;stroke-miterlimit:4;"
     transform="matrix(5.7469,0,0,5.64192,-39.7002,8.39904)">
    <path
       style="stroke:none;"
       d="M35.9,20.4c0,0-0.4-0.1-0.5-0.1c-0.3-0.3-0.7-0.4-1.1-0.4c0,0-1.1-0.3-1.5-0.4c0.3-2.2,0.9-3,1.1-3.1c0.4-0.2,0.7-0.6,0.7-1.1l0-0.1c0-0.5-0.4-0.9-0.9-1l-10.1-2.7c-0.3-0.1-0.5,0-0.8,0.1c-1.3,0.6-2.1,2.2-2.4,4.9    c-1.1,0.4-2.4,1.7-3.9,3.9c-0.1,0.1-1.9,1.5-1.9,1.5c-0.3,0.2-0.5,0.6-0.5,0.9v5.5c0,0.5,0.3,1,0.8,1.1c0,0,13.5,4.7,13.5,4.7c0.4,0.1,0.9,0,1.2-0.3l6.5-6.1c0.2-0.2,0.4-0.5,0.4-0.8l0.1-5.2c0,0,0,0,0,0c0-0.5-0.3-1-0.8-1.1z"
       id="path4133" />
    <linearGradient
       id="aigrd5"
       gradientUnits="userSpaceOnUse"
       x1="29.1836"
       y1="30.3838"
       x2="35.6164"
       y2="22.8106">
      <stop
         offset="0"
         style="stop-color:#9F9F9F"
         id="stop4135" />
      <stop
         offset="1"
         style="stop-color:#828282"
         id="stop4136" />
    </linearGradient>
    <path
       style="fill:url(#aigrd5);stroke:none;"
       d="M35.5,21.9l-0.1,4.5c0,0.2-0.1,0.3-0.2,0.4l-5.9,5.5c-0.2,0.2-0.4,0-0.4-0.2v-4.8l6.4-5.6l0.3,0.2z"
       id="path4137" />
    <linearGradient
       id="aigrd6"
       gradientUnits="userSpaceOnUse"
       x1="16.3271"
       y1="27.2676"
       x2="27.7812"
       y2="28.0926">
      <stop
         offset="0"
         style="stop-color:#F8F8F8"
         id="stop4139" />
      <stop
         offset="1"
         style="stop-color:#B5B5B5"
         id="stop4140" />
    </linearGradient>
    <path
       style="fill:url(#aigrd6);stroke:none;"
       d="M15.7,28.3c0.3,0.1,12.4,4.3,12.4,4.3c0.2,0.1,0.6,0,0.6-0.5l0-4.7l-13.1-4.5c-0.3-0.1-0.5,0.1-0.5,0.3c0,0,0,4.1,0,4.4c0,0.4,0.2,0.6,0.5,0.7z"
       id="path4141" />
    <linearGradient
       id="aigrd7"
       gradientUnits="userSpaceOnUse"
       x1="31.9893"
       y1="22.0615"
       x2="22.1032"
       y2="22.5146">
      <stop
         offset="0"
         style="stop-color:#CFCFCF"
         id="stop4143" />
      <stop
         offset="1"
         style="stop-color:#FFFFFF"
         id="stop4144" />
    </linearGradient>
    <path
       style="fill:url(#aigrd7);stroke:none;"
       d="M35.1,21.3l-13.2-3.9l-6.3,4.9c-0.2,0.2,0.1,0.5,0.1,0.5l13.1,4.5l6.4-5.6l-0.1-0.4z"
       id="path4145" />
    <linearGradient
       id="aigrd8"
       gradientUnits="userSpaceOnUse"
       x1="29.6865"
       y1="25.9678"
       x2="33.8084"
       y2="21.1152">
      <stop
         offset="0"
         style="stop-color:#9F9F9F"
         id="stop4147" />
      <stop
         offset="1"
         style="stop-color:#828282"
         id="stop4148" />
    </linearGradient>
    <path
       style="fill:url(#aigrd8);stroke:none;"
       d="M28.9,26.6l5.8-5.2c0,0-0.8-1.4-3,0.8c-2.2,2.2-2.9,4.4-2.9,4.4z"
       id="path4149" />
    <linearGradient
       id="aigrd9"
       gradientUnits="userSpaceOnUse"
       x1="17.6499"
       y1="23.4097"
       x2="37.2836"
       y2="19.5425">
      <stop
         offset="0"
         style="stop-color:#F8F8F8"
         id="stop4151" />
      <stop
         offset="1"
         style="stop-color:#B5B5B5"
         id="stop4152" />
    </linearGradient>
    <path
       style="fill:url(#aigrd9);stroke:none;"
       d="M34.1,21l-12.8-3.7c-1.7,0-4.9,5-4.9,5l12.4,4.2c0.2-0.7,3.2-5.6,5.2-5.6z"
       id="path4153" />
    <linearGradient
       id="aigrd10"
       gradientUnits="userSpaceOnUse"
       x1="24.6133"
       y1="20.2622"
       x2="19.5388"
       y2="20.6246">
      <stop
         offset="0"
         style="stop-color:#F8F8F8"
         id="stop4155" />
      <stop
         offset="1"
         style="stop-color:#343434"
         id="stop4156" />
    </linearGradient>
    <path
       style="fill:url(#aigrd10);stroke:none;"
       d="M21.4,18l-1.3,1.3l10,3l1.3-1.3l-10-3z"
       id="path4157" />
    <linearGradient
       id="aigrd11"
       gradientUnits="userSpaceOnUse"
       x1="27.4854"
       y1="15.2939"
       x2="26.7454"
       y2="28.0162">
      <stop
         offset="0"
         style="stop-color:#FFFFFF"
         id="stop4159" />
      <stop
         offset="1"
         style="stop-color:#BEBEBE"
         id="stop4160" />
    </linearGradient>
    <path
       style="fill:url(#aigrd11);stroke:none;"
       d="M33.3,15.2l-10.1-2.7c-2.1,0.9-1.8,7.2-1.8,7.2l8.6,2.7l1.3-1.3c0,0,0.1-5.1,1.9-5.9z"
       id="path4161" />
    <linearGradient
       id="aigrd12"
       gradientUnits="userSpaceOnUse"
       x1="28.0723"
       y1="26.7061"
       x2="25.0226"
       y2="25.7802">
      <stop
         offset="0"
         style="stop-color:#F0F0F0"
         id="stop4163" />
      <stop
         offset="1"
         style="stop-color:#FFFFFF"
         id="stop4164" />
    </linearGradient>
    <path
       style="fill:url(#aigrd12);stroke:none;"
       d="M15.6,22.5l-0.2,0.3c0,0,13,4.4,13.2,4.6c0.2,0.3,0.2,4.3,0.2,4.3s0.1-3.9,0.2-4.3c0.2-0.3,4.1-3.9,4.1-3.9s-4.2,3.6-4.4,3.6s-13.1-4.6-13.1-4.6z"
       id="path4165" />
    <g
       id="g4166">
      <g
         id="g4167">
        <path
           style="stroke:none;"
           d="M27.6,28.1l0,0.5l-1.3-0.5l0-0.5l1.3,0.5z"
           id="path4168" />
        <path
           style="fill:#2A2A26;stroke:none;"
           d="M27.6,28.1l0,0.5l-1.2-0.5l0-0.4l1.2,0.4z"
           id="path4169" />
        <path
           style="fill:#535445;stroke:none;"
           d="M27.6,28.1l0,0.4l-1-0.4l0-0.4l1.1,0.4z"
           id="path4170" />
        <path
           style="fill:#7B7D5B;stroke:none;"
           d="M27.5,28.1l0,0.4l-0.9-0.4l0-0.3l0.9,0.3z"
           id="path4171" />
        <path
           style="fill:#A3A76A;stroke:none;"
           d="M27.5,28.1l0,0.3l-0.8-0.3l0-0.3l0.8,0.3z"
           id="path4172" />
        <path
           style="fill:#CAD071;stroke:none;"
           d="M27.5,28.1l0,0.3l-0.6-0.2l0-0.2l0.7,0.2z"
           id="path4173" />
        <path
           style="fill:#F0F970;stroke:none;"
           d="M27.5,28.1l0,0.2l-0.5-0.2l0-0.2l0.5,0.2z"
           id="path4174" />
      </g>
    </g>
    <path
       style="fill:#FFFFFF;stroke:none;"
       d="M15.3,23.1c0-0.3,0.1-0.5,0.4-0.7c0,0-0.1,0.2,0.1,0.5c-0.3-0.1-0.4,0.3-0.4,0.3z"
       id="path4175" />
    <path
       style="opacity:8.000000e-002;stroke:none;"
       d="M33,15.3c-1.3,0.6-1.8,4.9-1.6,5.7l-0.2,0.2c-0.2-0.6,0.3-5.7,1.8-5.9z"
       id="path4176" />
    <path
       style="opacity:0.22;stroke:none;"
       d="M23.4,13.7l7.7,2c-0.3,0.2-0.5,1-0.5,1L23,14.6c0,0,0.1-0.8,0.4-0.9z"
       id="path4177" />
    <path
       style="opacity:0.22;stroke:none;"
       d="M22.8,15.6l-0.2,1l7.5,2l0.2-1l-7.6-2z"
       id="path4178" />
    <path
       style="opacity:0.22;stroke:none;"
       d="M22.5,17.5l0,1.1l7.5,2l0.1-1.1l-7.5-2z"
       id="path4179" />
    <path
       style="opacity:0.36;fill:#FFFFFF;stroke:none;"
       d="M20.1,19.3l10,3.4l1.3-1.6l-1.3,1.3l-9.9-3.1z"
       id="path4180" />
    <path
       style="opacity:0.22;stroke:none;"
       d="M31.4,21.1l1.7,0.2c0.3-0.2,0.7-0.3,1-0.3l-2.6-0.8l-0.1,0.9z"
       id="path4181" />
    <path
       style="opacity:0.55;fill:#FFFFFF;stroke:none;"
       d="M28.9,26.6c0.2-1.3,3.3-5.5,5.2-5.6c-2.9,0.2-5.4,5-5.2,5.6z"
       id="path4182" />
    <path
       style="fill:#FFFFFF;stroke:none;"
       d="M16.4,22.3c0.9-1.3,3.3-4.3,4.8-5c-1.8,0.2-4.2,4-4.8,5z"
       id="path4183" />
    <linearGradient
       id="aigrd13"
       gradientUnits="userSpaceOnUse"
       x1="26.3105"
       y1="20.4912"
       x2="26.0461"
       y2="21.6506">
      <stop
         offset="0"
         style="stop-color:#F8F8F8"
         id="stop4185" />
      <stop
         offset="1"
         style="stop-color:#343434"
         id="stop4186" />
    </linearGradient>
    <path
       style="opacity:0.53;fill:url(#aigrd13);stroke:none;"
       d="M21.5,19.7l8.6,2.7l1-1c-0.8,0.3-9.6-1.7-9.6-1.7z"
       id="path4187" />
    <linearGradient
       id="aigrd14"
       gradientUnits="userSpaceOnUse"
       x1="28.7334"
       y1="32.1064"
       x2="28.7334"
       y2="32.4332">
      <stop
         offset="0"
         style="stop-color:#9F9F9F"
         id="stop4189" />
      <stop
         offset="1"
         style="stop-color:#828282"
         id="stop4190" />
    </linearGradient>
    <path
       style="fill:url(#aigrd14);stroke:none;"
       d="M28.8,31.9c0,0-0.2,0.6-0.6,0.7c0.3,0.1,0.7,0.1,0.9-0.2c-0.2,0-0.4-0.5-0.4-0.5z"
       id="path4191" />
    <linearGradient
       id="aigrd15"
       gradientUnits="userSpaceOnUse"
       x1="35.0664"
       y1="21.9097"
       x2="35.35"
       y2="21.5758">
      <stop
         offset="0"
         style="stop-color:#9F9F9F"
         id="stop4193" />
      <stop
         offset="1"
         style="stop-color:#AAAAAA"
         id="stop4194" />
    </linearGradient>
    <path
       style="fill:url(#aigrd15);stroke:none;"
       d="M35.1,21.3c0.2,0,0.4,0.3,0.4,0.6c0,0-0.3-0.2-0.5,0c0.2-0.3,0.2-0.6,0.2-0.6z"
       id="path4195" />
  </g>
</svg>
