<?xml version="1.0" encoding="UTF-8" standalone="no"?>
<!DOCTYPE svg PUBLIC "-//W3C//DTD SVG 20010904//EN"
"http://www.w3.org/TR/2001/REC-SVG-20010904/DTD/svg10.dtd">
<!-- Created with Sodipodi ("http://www.sodipodi.com/") -->
<svg
   i:viewOrigin="178 524"
   i:rulerOrigin="-178 -268"
   i:pageBounds="178 524 434 268"
   width="48pt"
   height="48pt"
   viewBox="0 0 256 256"
   style="overflow:visible;enable-background:new 0 0 256 256"
   xml:space="preserve"
   xmlns="http://www.w3.org/2000/svg"
   xmlns:ns="&amp;ns_vars;"
   xmlns:i="&amp;ns_ai;"
   xmlns:xml="http://www.w3.org/XML/1998/namespace"
   xmlns:a="http://ns.adobe.com/AdobeSVGViewerExtensions/3.0/"
   xmlns:sodipodi="http://sodipodi.sourceforge.net/DTD/sodipodi-0.dtd"
   xmlns:xlink="http://www.w3.org/1999/xlink"
   id="svg153"
   sodipodi:version="0.32pre"
   sodipodi:docname="/home/cschalle/gnome-themes-extras/Nuvola/icons/scalable/mimetypes/gnome-mime-audio.svg"
   sodipodi:docbase="/home/cschalle/gnome-themes-extras/Nuvola/icons/scalable/mimetypes">
  <defs
     id="defs251" />
  <sodipodi:namedview
     id="base" />
  <metadata
     id="metadata154">
    <ns:variableSets>
      <ns:variableSet
         varSetName="binding1"
         locked="none">
        <ns:variables />
        <ns:sampleDataSets />
      </ns:variableSet>
    </ns:variableSets>
  </metadata>
  <g
     id="Layer_3"
     i:layer="yes"
     i:dimmedPercent="50"
     i:rgbTrio="#4F00FFFF4F00"
     style="stroke:#000000;">
    <path
       i:knockout="Off"
       style="opacity:0.2;stroke:none;"
       d="M49,19c-9.374,0-17,7.626-17,17v200c0,9.374,7.626,17,17,17h176c9.374,0,17-7.626,17-17    V36c0-9.374-7.626-17-17-17H49z"
       id="path156" />
    <linearGradient
       id="XMLID_1_"
       gradientUnits="userSpaceOnUse"
       x1="23"
       y1="130"
       x2="233"
       y2="130">
      <stop
         offset="0"
         style="stop-color:#A7ABAC"
         id="stop158" />
      <stop
         offset="1"
         style="stop-color:#85898A"
         id="stop159" />
      <a:midPointStop
         offset="0"
         style="stop-color:#A7ABAC"
         id="midPointStop160" />
      <a:midPointStop
         offset="0.5"
         style="stop-color:#A7ABAC"
         id="midPointStop161" />
      <a:midPointStop
         offset="1"
         style="stop-color:#85898A"
         id="midPointStop162" />
    </linearGradient>
    <path
       i:knockout="Off"
       style="fill:url(#XMLID_1_);stroke:none;"
       d="M40,13c-9.374,0-17,7.626-17,17v200c0,9.374,7.626,17,17,17h176c9.374,0,17-7.626,17-17    V30c0-9.374-7.626-17-17-17H40z"
       id="path163" />
    <path
       i:knockout="Off"
       style="fill:#99CCFF;stroke:none;"
       d="M28,230c0,6.627,5.373,12,12,12h176c6.627,0,12-5.373,12-12V30c0-6.627-5.373-12-12-12H40    c-6.627,0-12,5.373-12,12V230z"
       id="path164" />
    <linearGradient
       id="XMLID_2_"
       gradientUnits="userSpaceOnUse"
       x1="84.5029"
       y1="86.5029"
       x2="321.5015"
       y2="323.5015">
      <stop
         offset="0"
         style="stop-color:#FFFFFF"
         id="stop166" />
      <stop
         offset="1"
         style="stop-color:#99CCFF"
         id="stop167" />
      <a:midPointStop
         offset="0"
         style="stop-color:#FFFFFF"
         id="midPointStop168" />
      <a:midPointStop
         offset="0.5"
         style="stop-color:#FFFFFF"
         id="midPointStop169" />
      <a:midPointStop
         offset="1"
         style="stop-color:#99CCFF"
         id="midPointStop170" />
    </linearGradient>
    <path
       i:knockout="Off"
       style="fill:url(#XMLID_2_);stroke:none;"
       d="M40,23c-3.859,0-7,3.14-7,7v200c0,3.859,3.141,7,7,7h176c3.859,0,7-3.141,7-7V30    c0-3.86-3.141-7-7-7H40z"
       id="path171" />
    <path
       i:knockout="Off"
       style="opacity:0.4;fill:#FFFFFF;stroke:none;"
       d="M163,108c18.593-17.431,40.938-26.006,65-30.265V30c0-6.627-5.373-12-12-12H40    c-6.627,0-12,5.373-12,12v143.268C77.582,177.009,124.478,142.51,163,108z"
       id="path172" />
    <g
       id="g173">
      <path
         i:knockout="Off"
         style="opacity:0.5;fill:#9CBCDA;stroke:none;"
         d="M134.833,38.5c0,0,0,105.271,0,126.006c-9.518-3.511-20.65-5.473-32.19-5.473     c-33.924,0-60.499,16.032-60.499,36.5s26.575,36.5,60.499,36.5c33.927,0,60.501-16.032,60.501-36.5c0-2.179-0.395-4.348-1-6.491     c0-1.664,0-87.829,0-109.324c4.926,3.604,10.518,7.573,18.123,8.77c12.736,2.002,23.832-2.1,33.621-5.718l4.113-1.502     l-5.002-15.192c-8.721,2.642-15.16-2.541-24.941-11.216c-7.299-6.473-15.424-13.59-25.914-15.681c0-0.096,0-0.646,0-0.646     s-3.551,0-5.85,0c-0.385-0.003-0.766-0.012-1.154,0c-0.217,0-3.475,0-3.475,0l-8.832-0.033H134.833z"
         id="path174" />
      <linearGradient
         id="XMLID_3_"
         gradientUnits="userSpaceOnUse"
         x1="95.6714"
         y1="129.2666"
         x2="191.672"
         y2="129.2666">
        <stop
           offset="0"
           style="stop-color:#99CCFF"
           id="stop176" />
        <stop
           offset="1"
           style="stop-color:#C7E3EF"
           id="stop177" />
        <a:midPointStop
           offset="0"
           style="stop-color:#99CCFF"
           id="midPointStop178" />
        <a:midPointStop
           offset="0.5"
           style="stop-color:#99CCFF"
           id="midPointStop179" />
        <a:midPointStop
           offset="1"
           style="stop-color:#C7E3EF"
           id="midPointStop180" />
      </linearGradient>
      <path
         i:knockout="Off"
         style="fill:url(#XMLID_3_);stroke:none;"
         d="M128.833,32.5c0,0,0,105.271,0,126.006c-9.518-3.511-20.651-5.473-32.19-5.473     c-33.924,0-60.499,16.032-60.499,36.5s26.575,36.5,60.499,36.5c33.927,0,60.501-16.032,60.501-36.5c0-2.179-0.395-4.348-1-6.491     c0-1.664,0-87.829,0-109.324c4.926,3.604,10.518,7.573,18.123,8.77c12.736,2.002,23.832-2.1,33.621-5.718l4.113-1.502     l-5.002-15.192c-8.721,2.642-15.16-2.541-24.941-11.216c-7.299-6.473-15.424-13.59-25.914-15.681c0-0.096,0-0.646,0-0.646     s-3.551,0-5.85,0c-0.385-0.003-0.766-0.012-1.154,0c-0.217,0-3.475,0-3.475,0l-8.832-0.033H128.833z"
         id="path181" />
      <linearGradient
         id="XMLID_4_"
         gradientUnits="userSpaceOnUse"
         x1="126.73"
         y1="30.5049"
         x2="126.73"
         y2="85.0077">
        <stop
           offset="0"
           style="stop-color:#0066CC"
           id="stop183" />
        <stop
           offset="0.1414"
           style="stop-color:#0D73D9"
           id="stop184" />
        <stop
           offset="0.4377"
           style="stop-color:#2288EE"
           id="stop185" />
        <stop
           offset="0.7273"
           style="stop-color:#2F95FB"
           id="stop186" />
        <stop
           offset="1"
           style="stop-color:#3399FF"
           id="stop187" />
        <a:midPointStop
           offset="0"
           style="stop-color:#0066CC"
           id="midPointStop188" />
        <a:midPointStop
           offset="0.5"
           style="stop-color:#0066CC"
           id="midPointStop189" />
        <a:midPointStop
           offset="0.1414"
           style="stop-color:#0D73D9"
           id="midPointStop190" />
        <a:midPointStop
           offset="0.5"
           style="stop-color:#0D73D9"
           id="midPointStop191" />
        <a:midPointStop
           offset="0.4377"
           style="stop-color:#2288EE"
           id="midPointStop192" />
        <a:midPointStop
           offset="0.5"
           style="stop-color:#2288EE"
           id="midPointStop193" />
        <a:midPointStop
           offset="0.7273"
           style="stop-color:#2F95FB"
           id="midPointStop194" />
        <a:midPointStop
           offset="0.5"
           style="stop-color:#2F95FB"
           id="midPointStop195" />
        <a:midPointStop
           offset="1"
           style="stop-color:#3399FF"
           id="midPointStop196" />
      </linearGradient>
      <path
         style="fill:url(#XMLID_4_);stroke:none;"
         d="M149.14,40.533l-0.996,0.362v-0.362h-2.479V40.5h-8.832v130.729c-9.629-6.227-24.043-10.196-40.19-10.196     c-28.994,0-52.499,12.76-52.499,28.5s23.505,28.5,52.499,28.5c28.995,0,52.501-12.76,52.501-28.5c0-1.896-0.35-3.748-1-5.541     V60.016c9.957,2.772,16.426,12.849,27.365,14.568c12.275,1.93,23.072-3.029,33.809-6.853     C184.312,75.306,172.919,39.619,149.14,40.533z"
         id="path197" />
      <linearGradient
         id="XMLID_5_"
         gradientUnits="userSpaceOnUse"
         x1="-126.6313"
         y1="385.333"
         x2="-122.5958"
         y2="361.1197"
         gradientTransform="matrix(1 0 0 -1 194.1221 555.4082)">
        <stop
           offset="0"
           style="stop-color:#FFFFFF"
           id="stop199" />
        <stop
           offset="0.0154"
           style="stop-color:#F9F9F9"
           id="stop200" />
        <stop
           offset="0.1111"
           style="stop-color:#DCDCDC"
           id="stop201" />
        <stop
           offset="0.2173"
           style="stop-color:#C3C3C3"
           id="stop202" />
        <stop
           offset="0.3363"
           style="stop-color:#B0B0B0"
           id="stop203" />
        <stop
           offset="0.4752"
           style="stop-color:#A3A3A3"
           id="stop204" />
        <stop
           offset="0.6526"
           style="stop-color:#9B9B9B"
           id="stop205" />
        <stop
           offset="1"
           style="stop-color:#999999"
           id="stop206" />
        <a:midPointStop
           offset="0"
           style="stop-color:#FFFFFF"
           id="midPointStop207" />
        <a:midPointStop
           offset="0.5"
           style="stop-color:#FFFFFF"
           id="midPointStop208" />
        <a:midPointStop
           offset="0.0154"
           style="stop-color:#F9F9F9"
           id="midPointStop209" />
        <a:midPointStop
           offset="0.5"
           style="stop-color:#F9F9F9"
           id="midPointStop210" />
        <a:midPointStop
           offset="0.1111"
           style="stop-color:#DCDCDC"
           id="midPointStop211" />
        <a:midPointStop
           offset="0.5"
           style="stop-color:#DCDCDC"
           id="midPointStop212" />
        <a:midPointStop
           offset="0.2173"
           style="stop-color:#C3C3C3"
           id="midPointStop213" />
        <a:midPointStop
           offset="0.5"
           style="stop-color:#C3C3C3"
           id="midPointStop214" />
        <a:midPointStop
           offset="0.3363"
           style="stop-color:#B0B0B0"
           id="midPointStop215" />
        <a:midPointStop
           offset="0.5"
           style="stop-color:#B0B0B0"
           id="midPointStop216" />
        <a:midPointStop
           offset="0.4752"
           style="stop-color:#A3A3A3"
           id="midPointStop217" />
        <a:midPointStop
           offset="0.5"
           style="stop-color:#A3A3A3"
           id="midPointStop218" />
        <a:midPointStop
           offset="0.6526"
           style="stop-color:#9B9B9B"
           id="midPointStop219" />
        <a:midPointStop
           offset="0.5"
           style="stop-color:#9B9B9B"
           id="midPointStop220" />
        <a:midPointStop
           offset="1"
           style="stop-color:#999999"
           id="midPointStop221" />
      </linearGradient>
      <path
         style="opacity:0.5;fill:url(#XMLID_5_);stroke:none;adobe-blending-mode:screen;"
         d="M90.936,163.342c-25.34,1.838-44.792,12.598-44.792,25.597c0,5.099,3.003,9.849,8.168,13.854     C55.951,186.801,69.908,172.664,90.936,163.342z"
         id="path222" />
      <linearGradient
         id="XMLID_6_"
         gradientUnits="userSpaceOnUse"
         x1="-62.2612"
         y1="338.5889"
         x2="-82.0127"
         y2="358.3402"
         gradientTransform="matrix(1 0 0 -1 194.1221 555.4082)">
        <stop
           offset="0"
           style="stop-color:#FFFFFF"
           id="stop224" />
        <stop
           offset="0.0154"
           style="stop-color:#F9F9F9"
           id="stop225" />
        <stop
           offset="0.1111"
           style="stop-color:#DCDCDC"
           id="stop226" />
        <stop
           offset="0.2173"
           style="stop-color:#C3C3C3"
           id="stop227" />
        <stop
           offset="0.3363"
           style="stop-color:#B0B0B0"
           id="stop228" />
        <stop
           offset="0.4752"
           style="stop-color:#A3A3A3"
           id="stop229" />
        <stop
           offset="0.6526"
           style="stop-color:#9B9B9B"
           id="stop230" />
        <stop
           offset="1"
           style="stop-color:#999999"
           id="stop231" />
        <a:midPointStop
           offset="0"
           style="stop-color:#FFFFFF"
           id="midPointStop232" />
        <a:midPointStop
           offset="0.5"
           style="stop-color:#FFFFFF"
           id="midPointStop233" />
        <a:midPointStop
           offset="0.0154"
           style="stop-color:#F9F9F9"
           id="midPointStop234" />
        <a:midPointStop
           offset="0.5"
           style="stop-color:#F9F9F9"
           id="midPointStop235" />
        <a:midPointStop
           offset="0.1111"
           style="stop-color:#DCDCDC"
           id="midPointStop236" />
        <a:midPointStop
           offset="0.5"
           style="stop-color:#DCDCDC"
           id="midPointStop237" />
        <a:midPointStop
           offset="0.2173"
           style="stop-color:#C3C3C3"
           id="midPointStop238" />
        <a:midPointStop
           offset="0.5"
           style="stop-color:#C3C3C3"
           id="midPointStop239" />
        <a:midPointStop
           offset="0.3363"
           style="stop-color:#B0B0B0"
           id="midPointStop240" />
        <a:midPointStop
           offset="0.5"
           style="stop-color:#B0B0B0"
           id="midPointStop241" />
        <a:midPointStop
           offset="0.4752"
           style="stop-color:#A3A3A3"
           id="midPointStop242" />
        <a:midPointStop
           offset="0.5"
           style="stop-color:#A3A3A3"
           id="midPointStop243" />
        <a:midPointStop
           offset="0.6526"
           style="stop-color:#9B9B9B"
           id="midPointStop244" />
        <a:midPointStop
           offset="0.5"
           style="stop-color:#9B9B9B"
           id="midPointStop245" />
        <a:midPointStop
           offset="1"
           style="stop-color:#999999"
           id="midPointStop246" />
      </linearGradient>
      <path
         style="opacity:0.5;fill:url(#XMLID_6_);stroke:none;adobe-blending-mode:screen;"
         d="M135.054,179.787c1.035,1.918,1.59,3.927,1.59,5.996c0,13.393-23.059,24.25-51.501,24.25     c-0.395,0-0.785-0.01-1.176-0.015c5.76,1.602,12.381,2.515,19.426,2.515c22.229,0,40.251-9.066,40.251-20.25     C143.642,187.566,140.429,183.229,135.054,179.787z"
         id="path247" />
    </g>
  </g>
  <g
     id="Layer_2"
     i:layer="yes"
     i:editable="no"
     i:dimmedPercent="50"
     i:rgbTrio="#FFFF4F004F00"
     style="stroke:#000000;">
    <path
       i:knockout="Off"
       style="fill:none;stroke:none;"
       d="M256,256H0V0h256V256z"
       id="path249" />
  </g>
</svg>
