<?xml version="1.0" encoding="UTF-8" standalone="no"?>
<!DOCTYPE svg PUBLIC "-//W3C//DTD SVG 20010904//EN"
"http://www.w3.org/TR/2001/REC-SVG-20010904/DTD/svg10.dtd"
[
 <!ATTLIST svg
  xmlns:xlink CDATA #FIXED "http://www.w3.org/1999/xlink">
]>
<!-- Created with Sodipodi ("http://www.sodipodi.com/") -->
<svg
   xmlns="http://www.w3.org/2000/svg"
   xmlns:xlink="http://www.w3.org/1999/xlink"
   version="1"
   x="0.00000000"
   y="0.00000000"
   width="60.0000000"
   height="60.0000000"
   viewBox="0 0 256 256"
   id="svg153">
  <defs
     id="defs229" />
  <metadata
     id="metadata154">
    <ns:variableSets>
      <ns:variableSet
         varSetName="binding1"
         locked="none">
        <ns:variables />
        <ns:sampleDataSets />
      </ns:variableSet>
    </ns:variableSets>
  </metadata>
  <g
     style="font-size:12;stroke:#000000;"
     id="Layer_3">
    <path
       d="M 49 19 C 39.626 19 32 26.626 32 36 L 32 236 C 32 245.374 39.626 253 49 253 L 225 253 C 234.374 253 242 245.374 242 236 L 242 36 C 242 26.626 234.374 19 225 19 L 49 19 z "
       style="opacity:0.2;stroke:none;"
       id="path156" />
    <linearGradient
       x1="23.0000000"
       y1="130.000000"
       x2="233.000000"
       y2="130.000000"
       id="XMLID_1_"
       gradientUnits="userSpaceOnUse"
       spreadMethod="pad">
      <stop
         style="stop-color:#a7abac;stop-opacity:1;"
         offset="0.00000000"
         id="stop158" />
      <stop
         style="stop-color:#85898a;stop-opacity:1;"
         offset="1.00000000"
         id="stop159" />
      <a:midPointStop
         offset="0"
         style="stop-color:#A7ABAC"
         id="midPointStop160" />
      <a:midPointStop
         offset="0.5"
         style="stop-color:#A7ABAC"
         id="midPointStop161" />
      <a:midPointStop
         offset="1"
         style="stop-color:#85898A"
         id="midPointStop162" />
    </linearGradient>
    <path
       d="M 40 13 C 30.626 13 23 20.626 23 30 L 23 230 C 23 239.374 30.626 247 40 247 L 216 247 C 225.374 247 233 239.374 233 230 L 233 30 C 233 20.626 225.374 13 216 13 L 40 13 z "
       style="fill:url(#XMLID_1_);stroke:none;"
       id="path163" />
    <path
       d="M 28 230 C 28 236.627 33.373 242 40 242 L 216 242 C 222.627 242 228 236.627 228 230 L 228 30 C 228 23.373 222.627 18 216 18 L 40 18 C 33.373 18 28 23.373 28 30 L 28 230 z "
       style="fill:#99ccff;stroke:none;"
       id="path164" />
    <linearGradient
       x1="84.5028992"
       y1="86.5028992"
       x2="321.501495"
       y2="323.501495"
       id="XMLID_2_"
       gradientUnits="userSpaceOnUse"
       spreadMethod="pad">
      <stop
         style="stop-color:#ffffff;stop-opacity:1;"
         offset="0.00000000"
         id="stop166" />
      <stop
         style="stop-color:#99ccff;stop-opacity:1;"
         offset="1.00000000"
         id="stop167" />
      <a:midPointStop
         offset="0"
         style="stop-color:#FFFFFF"
         id="midPointStop168" />
      <a:midPointStop
         offset="0.5"
         style="stop-color:#FFFFFF"
         id="midPointStop169" />
      <a:midPointStop
         offset="1"
         style="stop-color:#99CCFF"
         id="midPointStop170" />
    </linearGradient>
    <path
       d="M 40 23 C 36.141 23 33 26.14 33 30 L 33 230 C 33 233.859 36.141 237 40 237 L 216 237 C 219.859 237 223 233.859 223 230 L 223 30 C 223 26.14 219.859 23 216 23 L 40 23 z "
       style="fill:url(#XMLID_2_);stroke:none;"
       id="path171" />
    <path
       d="M 163 108 C 181.593 90.569 203.938 81.994 228 77.735 L 228 30 C 228 23.373 222.627 18 216 18 L 40 18 C 33.373 18 28 23.373 28 30 L 28 173.268 C 77.582 177.009 124.478 142.51 163 108 z "
       style="opacity:0.4;fill:#ffffff;stroke:none;"
       id="path172" />
    <g
       id="g173">
      <path
         d="M 99.993 186.567 L 113.461 198.164 "
         style="fill:#1b7157;stroke:none;"
         id="path174" />
      <path
         d="M 85.514 58.658 C 85.514 58.658 84.445 61.403 84.402 61.514 C 84.34 61.646 80.561 69.738 79.406 72.211 C 75.933 72.528 72.521 73.136 69.203 74.029 C 66.771 71.936 54.56 61.424 54.56 61.424 L 34.123 74.284 L 28.267 86.614 C 28.267 86.614 33.351 96.764 34.926 99.91 C 30.428 99.905 17.359 99.889 17.359 99.889 L 10.75 113.63 L 7.95 133.504 C 7.95 133.504 22.369 139.233 25.133 140.33 C 25.588 143.194 26.294 146.043 27.243 148.844 C 26.156 149.94 23.09 153.03 23.09 153.03 L 17.098 164.911 L 31.593 183.243 C 31.593 183.243 45.058 178.325 48.203 177.177 C 51.772 179.859 55.623 182.177 59.701 184.098 C 59.919 186.628 61.158 201.022 61.158 201.022 L 85.549 205.815 L 92.688 194.332 C 92.688 194.332 94.035 190.947 94.374 190.096 C 97.732 189.739 101.02 189.11 104.202 188.214 C 106.64 190.313 118.269 200.328 118.269 200.328 L 136.687 188.736 L 145.056 175.954 C 145.056 175.954 139.714 165.29 138.16 162.186 C 142.884 162.216 154.23 162.289 154.23 162.289 L 162.019 150.646 L 165.114 128.641 C 165.114 128.641 150.398 122.708 147.663 121.605 C 147.094 118.074 146.135 114.567 144.803 111.136 C 146.28 109.24 156.083 97.217 156.083 97.217 L 154.668 95.424 L 141.338 78.568 C 141.338 78.568 127.403 83.656 124.253 84.806 C 120.843 82.29 117.204 80.116 113.386 78.309 C 113.153 75.782 111.793 61.077 111.793 61.077 L 86.512 56.106 L 85.514 58.658 z M 86.516 109.208 C 101.796 112.214 113.507 125.49 113.507 139.636 C 113.507 139.655 113.506 139.672 113.506 139.69 C 111.561 142.889 108.842 145.591 105.562 147.499 C 100.161 150.638 93.527 151.648 86.882 150.342 C 72.951 147.601 62.445 135.691 62.445 122.638 C 62.445 121.527 62.524 120.411 62.677 119.322 C 62.999 117.033 63.715 114.847 64.714 112.778 C 70.997 108.949 78.694 107.671 86.516 109.208 z "
         style="fill:#0066cc;stroke:none;"
         id="path175" />
      <linearGradient
         x1="145.198196"
         y1="187.229507"
         x2="47.6562996"
         y2="78.2860031"
         id="XMLID_3_"
         gradientUnits="userSpaceOnUse"
         spreadMethod="pad">
        <stop
           style="stop-color:#336699;stop-opacity:1;"
           offset="0.00000000"
           id="stop177" />
        <stop
           style="stop-color:#6699cc;stop-opacity:1;"
           offset="1.00000000"
           id="stop178" />
        <a:midPointStop
           offset="0"
           style="stop-color:#336699"
           id="midPointStop179" />
        <a:midPointStop
           offset="0.5"
           style="stop-color:#336699"
           id="midPointStop180" />
        <a:midPointStop
           offset="1"
           style="stop-color:#6699CC"
           id="midPointStop181" />
      </linearGradient>
      <path
         d="M 87.903 61.977 C 87.903 61.977 83.924 72.186 82.879 74.867 C 77.83 75.058 72.927 75.9 68.214 77.367 C 65.947 75.417 54.197 65.302 54.197 65.302 L 38.398 75.243 C 38.398 75.243 45.134 88.695 46.266 90.956 C 42.969 94.516 40.336 98.492 38.372 102.824 C 35.061 102.82 20.476 102.803 20.476 102.803 L 18.03 120.158 C 18.03 120.158 32.191 125.785 34.751 126.802 C 35.365 131.825 36.792 136.767 39.008 141.56 C 37.153 143.43 27.438 153.222 27.438 153.222 L 39.145 168.021 C 39.145 168.021 52.363 163.195 55.317 162.115 C 59.584 165.535 64.263 168.372 69.309 170.569 C 69.513 172.92 70.73 187.026 70.73 187.026 L 90.367 190.887 C 90.367 190.887 95.346 178.364 96.399 175.711 C 101.526 175.511 106.501 174.647 111.27 173.139 C 113.532 175.085 124.981 184.941 124.981 184.941 L 140.78 174.994 C 140.78 174.994 134.168 161.791 133.042 159.545 C 136.351 155.957 138.981 151.955 140.932 147.602 C 144.272 147.623 158.902 147.718 158.902 147.718 L 161.345 130.355 C 161.345 130.355 146.98 124.564 144.445 123.542 C 143.802 118.494 142.343 113.544 140.098 108.757 C 141.963 106.875 151.739 97.02 151.739 97.02 L 140.036 82.222 C 140.036 82.222 126.562 87.142 123.605 88.221 C 119.452 84.937 114.913 82.199 110.034 80.064 C 109.817 77.719 108.494 63.419 108.494 63.419 L 88.85 59.556 L 87.903 61.977 z M 58.941 122.637 C 58.941 121.424 59.025 120.204 59.197 118.983 C 60.273 111.347 64.814 104.687 71.656 100.708 C 77.889 97.085 85.527 95.916 93.159 97.416 C 110.164 100.761 122.22 116.097 120.034 131.604 C 118.959 139.241 114.415 145.903 107.571 149.881 C 101.34 153.503 93.703 154.673 86.073 153.172 C 70.408 150.09 58.941 136.828 58.941 122.637 z "
         style="fill:url(#XMLID_3_);stroke:none;"
         id="path182" />
      <path
         d="M 89.527 66.763 C 89.527 66.763 88.457 69.508 88.414 69.618 C 88.352 69.749 84.573 77.842 83.419 80.314 C 79.947 80.632 76.534 81.24 73.216 82.131 C 70.785 80.039 58.573 69.527 58.573 69.527 L 38.136 82.387 L 32.28 94.719 C 32.28 94.719 37.363 104.869 38.939 108.014 C 34.442 108.009 21.372 107.993 21.372 107.993 L 14.763 121.733 L 11.962 141.608 C 11.962 141.608 26.382 147.336 29.145 148.433 C 29.6 151.296 30.307 154.147 31.256 156.947 C 30.169 158.043 27.103 161.134 27.103 161.134 L 21.111 173.015 L 35.607 191.346 C 35.607 191.346 49.071 186.428 52.216 185.28 C 55.785 187.963 59.635 190.28 63.714 192.202 C 63.932 194.732 65.172 209.124 65.172 209.124 L 89.563 213.918 L 96.7 202.437 C 96.7 202.437 98.047 199.051 98.386 198.199 C 101.744 197.842 105.032 197.213 108.214 196.318 C 110.652 198.418 122.283 208.432 122.283 208.432 L 140.7 196.84 L 149.069 184.057 C 149.069 184.057 143.727 173.393 142.173 170.29 C 146.897 170.319 158.242 170.394 158.242 170.394 L 166.031 158.75 L 169.127 136.745 C 169.127 136.745 154.411 130.811 151.677 129.709 C 151.106 126.178 150.149 122.67 148.815 119.241 C 150.293 117.345 160.096 105.32 160.096 105.32 L 158.681 103.527 L 145.35 86.671 C 145.35 86.671 131.416 91.759 128.267 92.909 C 124.855 90.393 121.217 88.218 117.398 86.411 C 117.165 83.885 115.805 69.18 115.805 69.18 L 90.524 64.208 L 89.527 66.763 z M 90.529 117.312 C 105.81 120.319 117.52 133.595 117.52 147.741 C 117.52 147.759 117.52 147.777 117.52 147.794 C 115.574 150.993 112.854 153.695 109.575 155.602 C 104.173 158.744 97.54 159.752 90.893 158.446 C 76.963 155.705 66.459 143.796 66.459 130.741 C 66.459 129.632 66.537 128.515 66.689 127.427 C 67.012 125.138 67.728 122.951 68.728 120.882 C 75.011 117.054 82.708 115.775 90.529 117.312 z "
         style="opacity:0.36;fill:#999999;stroke:none;"
         id="path183" />
      <path
         d="M 140.097 108.756 C 140.401 109.402 140.687 110.053 140.962 110.706 L 151.233 97.528 C 149.214 99.563 141.708 107.13 140.097 108.756 z "
         style="fill:#2461aa;stroke:none;"
         id="path184" />
      <path
         d="M 81.898 74.92 C 82.225 74.902 82.55 74.879 82.878 74.867 C 83.783 72.545 86.887 64.582 87.702 62.489 L 81.898 74.92 z "
         style="fill:#336699;stroke:none;"
         id="path185" />
      <path
         d="M 38.725 75.039 L 38.699 75.038 L 38.682 75.065 L 38.725 75.039 z "
         style="fill:#1b7157;stroke:none;"
         id="path186" />
      <linearGradient
         x1="61.7793007"
         y1="118.615700"
         x2="120.204597"
         y2="118.615700"
         id="XMLID_4_"
         gradientUnits="userSpaceOnUse"
         spreadMethod="pad">
        <stop
           style="stop-color:#0066cc;stop-opacity:1;"
           offset="0.00000000"
           id="stop188" />
        <stop
           style="stop-color:#99ccff;stop-opacity:1;"
           offset="1.00000000"
           id="stop189" />
        <a:midPointStop
           offset="0"
           style="stop-color:#0066CC"
           id="midPointStop190" />
        <a:midPointStop
           offset="0.5"
           style="stop-color:#0066CC"
           id="midPointStop191" />
        <a:midPointStop
           offset="1"
           style="stop-color:#99CCFF"
           id="midPointStop192" />
      </linearGradient>
      <path
         d="M 120.034 131.604 C 122.22 116.096 110.164 100.76 93.159 97.416 C 85.527 95.916 77.889 97.085 71.656 100.708 C 67.359 103.206 63.972 106.763 61.779 110.952 C 68.724 106.407 77.821 104.51 87.324 106.378 C 104.765 109.809 117.455 124.702 117 140.445 C 118.546 137.743 119.591 134.759 120.034 131.604 z "
         style="fill:url(#XMLID_4_);stroke:none;"
         id="path193" />
      <path
         d="M 124.035 184.127 C 121.277 181.752 113.292 174.879 111.331 173.19 C 109.216 177.028 107.421 181.132 105.242 184.918 L 118.227 196.1 C 119.887 191.957 122.309 188.146 124.035 184.127 z "
         style="fill:#3399ff;stroke:none;"
         id="path194" />
      <path
         d="M 111.27 173.139 C 106.5 174.647 101.526 175.511 96.399 175.711 C 95.703 177.461 93.298 183.513 91.743 187.423 C 96.416 187.107 100.921 186.234 105.164 184.851 L 105.243 184.918 C 107.422 181.133 109.217 177.028 111.332 173.19 C 111.313 173.174 111.287 173.152 111.27 173.139 z "
         style="fill:#0066cc;stroke:none;"
         id="path195" />
      <path
         d="M 140.462 175.192 C 140.462 175.192 124.625 184.634 124.035 184.127 C 122.308 188.146 119.887 191.957 118.227 196.1 L 118.631 196.448 L 133.881 186.849 L 140.48 175.203 C 140.475 175.2 140.468 175.196 140.462 175.192 z "
         style="fill:#0066cc;stroke:none;"
         id="path196" />
      <path
         d="M 70.729 187.025 C 70.729 187.025 70.713 186.844 70.687 186.535 C 68.595 190.356 66.503 194.178 64.411 197.998 L 64.47 198.682 L 83.587 202.438 L 90.158 190.844 L 70.729 187.025 z "
         style="fill:#0066cc;stroke:none;"
         id="path197" />
      <path
         d="M 39.145 168.021 L 39.071 167.927 C 36.727 171.645 34.18 175.412 32.845 179.525 L 32.895 179.588 L 48.789 173.783 C 50.324 170.014 52.125 166.364 53.752 162.686 C 49.233 164.336 39.145 168.021 39.145 168.021 z "
         style="fill:#336699;stroke:none;"
         id="path198" />
      <path
         d="M 27.527 153.334 L 21.102 164.675 L 32.844 179.525 C 34.179 175.413 36.726 171.645 39.07 167.927 L 27.527 153.334 z "
         style="fill:#0066cc;stroke:none;"
         id="path199" />
      <path
         d="M 69.309 170.568 C 64.263 168.371 59.583 165.534 55.317 162.114 C 54.943 162.251 54.405 162.446 53.752 162.686 C 52.125 166.364 50.324 170.014 48.789 173.783 L 48.871 173.753 C 53.003 177.087 57.632 179.925 62.651 182.157 C 65.481 178.977 67.591 175.587 69.432 171.986 C 69.377 171.36 69.335 170.867 69.309 170.568 z "
         style="fill:#0066cc;stroke:none;"
         id="path200" />
      <path
         d="M 62.65 182.157 C 62.789 182.219 62.923 182.284 63.063 182.345 L 64.411 197.997 C 66.504 194.177 68.596 190.355 70.687 186.534 C 70.503 184.4 69.754 175.735 69.431 171.985 C 67.591 175.587 65.48 178.978 62.65 182.157 z "
         style="fill:#3399ff;stroke:none;"
         id="path201" />
      <path
         d="M 46.267 90.956 C 45.21 88.844 39.263 76.968 38.485 75.414 L 32.099 86.686 L 39.261 100.988 C 41.107 97.364 43.441 94.006 46.267 90.956 z "
         style="fill:#99ccff;stroke:none;"
         id="path202" />
      <path
         d="M 140.931 147.601 C 138.981 151.955 136.35 155.956 133.041 159.544 C 133.202 159.864 133.479 160.418 133.828 161.117 C 133.914 160.44 134.071 159.81 134.317 159.251 L 152.012 159.363 L 158.613 147.715 C 156.582 147.702 143.998 147.62 140.931 147.601 z "
         style="fill:#336699;stroke:none;"
         id="path203" />
      <path
         d="M 34.751 126.802 C 32.435 125.881 20.609 121.183 18.391 120.301 C 16.111 123.355 13.857 126.452 12.018 129.676 L 11.72 131.778 L 28.173 138.312 C 30.168 134.835 32.7 131.583 34.953 128.215 C 34.882 127.744 34.809 127.274 34.751 126.802 z "
         style="fill:#0000cc;stroke:none;"
         id="path204" />
      <path
         d="M 18.03 120.158 L 20.346 103.722 C 20.341 103.723 20.336 103.723 20.331 103.724 L 14.161 114.448 L 12.016 129.676 C 13.855 126.452 16.109 123.355 18.389 120.301 C 18.159 120.209 18.03 120.158 18.03 120.158 z "
         style="fill:#0066cc;stroke:none;"
         id="path205" />
      <path
         d="M 34.953 128.215 C 32.7 131.583 30.168 134.835 28.173 138.312 L 28.362 138.388 C 28.836 142.189 29.768 145.916 31.112 149.518 C 34.071 146.536 37.911 142.664 39.008 141.56 C 37 137.217 35.647 132.752 34.953 128.215 z "
         style="fill:#0066cc;stroke:none;"
         id="path206" />
      <linearGradient
         x1="129.038101"
         y1="175.657196"
         x2="65.0207977"
         y2="93.6486969"
         id="XMLID_5_"
         gradientUnits="userSpaceOnUse"
         spreadMethod="pad">
        <stop
           style="stop-color:#3399ff;stop-opacity:1;"
           offset="0.00000000"
           id="stop208" />
        <stop
           style="stop-color:#99ccff;stop-opacity:1;"
           offset="1.00000000"
           id="stop209" />
        <a:midPointStop
           offset="0"
           style="stop-color:#3399FF"
           id="midPointStop210" />
        <a:midPointStop
           offset="0.5"
           style="stop-color:#3399FF"
           id="midPointStop211" />
        <a:midPointStop
           offset="1"
           style="stop-color:#99CCFF"
           id="midPointStop212" />
      </linearGradient>
      <path
         d="M 155.944 144.938 L 157.768 131.981 L 141.446 125.401 C 140.899 119.414 139.137 113.587 136.37 108.171 L 147.615 96.835 L 138.799 85.689 L 123.028 91.447 C 118.307 87.43 112.854 84.093 106.848 81.684 L 105.364 65.64 L 91.069 62.829 L 85.37 77.439 C 78.973 77.41 72.849 78.488 67.238 80.503 L 53.854 68.983 L 42.456 76.155 L 50.021 91.263 C 45.94 95.321 42.691 100.148 40.54 105.587 L 23.435 105.566 L 21.61 118.52 L 37.758 124.936 C 38.272 130.915 40.001 136.733 42.73 142.15 L 31.564 153.407 L 40.381 164.554 L 55.902 158.886 C 60.722 163.043 66.321 166.489 72.504 168.951 L 73.872 184.805 L 88.166 187.614 L 93.917 173.143 C 100.388 173.167 106.58 172.06 112.24 169.993 L 125.325 181.26 L 136.723 174.083 L 129.288 159.24 C 133.376 155.157 136.628 150.3 138.762 144.825 L 155.944 144.938 z M 85.308 155.857 C 66.713 152.199 53.52 135.517 55.895 118.661 C 58.269 101.81 75.331 91.072 93.926 94.729 C 112.518 98.385 125.712 115.07 123.337 131.921 C 120.961 148.775 103.902 159.515 85.308 155.857 z "
         style="fill:url(#XMLID_5_);stroke:none;"
         id="path213" />
      <linearGradient
         x1="104.781700"
         y1="142.794907"
         x2="63.6561012"
         y2="101.669296"
         id="XMLID_6_"
         gradientUnits="userSpaceOnUse"
         spreadMethod="pad">
        <stop
           style="stop-color:#3399ff;stop-opacity:1;"
           offset="0.00000000"
           id="stop215" />
        <stop
           style="stop-color:#ffffff;stop-opacity:1;"
           offset="1.00000000"
           id="stop216" />
        <a:midPointStop
           offset="0"
           style="stop-color:#3399FF"
           id="midPointStop217" />
        <a:midPointStop
           offset="0.5"
           style="stop-color:#3399FF"
           id="midPointStop218" />
        <a:midPointStop
           offset="1"
           style="stop-color:#FFFFFF"
           id="midPointStop219" />
      </linearGradient>
      <path
         d="M 69.858 149.069 C 60.023 141.824 54.256 130.285 55.894 118.661 C 58.268 101.81 75.33 91.072 93.925 94.729 C 103.51 96.614 111.654 101.967 116.975 109.016 C 124.307 102.468 130.229 94.965 135.163 87.014 L 123.027 91.445 C 118.306 87.428 112.853 84.091 106.847 81.682 L 105.363 65.638 L 91.068 62.827 L 85.37 77.439 C 78.973 77.41 72.849 78.488 67.238 80.503 L 53.854 68.983 L 42.456 76.155 L 50.021 91.263 C 45.94 95.321 42.691 100.148 40.54 105.587 L 23.435 105.566 L 21.61 118.52 L 37.758 124.936 C 38.272 130.915 40.001 136.733 42.73 142.15 L 31.564 153.407 L 40.381 164.554 L 55.902 158.886 C 59.496 161.985 63.523 164.687 67.901 166.883 C 67.807 160.727 68.313 154.676 69.858 149.069 z "
         style="opacity:0.8;fill:url(#XMLID_6_);stroke:none;"
         id="path220" />
      <path
         d="M 50.021 91.263 L 42.456 76.155 L 51.858 70.239 L 51.751 70.147 L 40.354 77.319 L 47.92 92.426 C 44.134 96.192 41.076 100.623 38.936 105.585 L 40.54 105.587 C 42.69 100.147 45.939 95.32 50.021 91.263 z "
         style="fill:#ffffff;stroke:none;"
         id="path221" />
      <path
         d="M 72.503 168.952 C 66.32 166.489 60.722 163.044 55.901 158.887 L 40.38 164.555 L 31.563 153.408 L 42.729 142.151 C 40 136.734 38.271 130.916 37.757 124.937 L 21.609 118.521 L 23.27 106.733 L 21.331 106.731 L 19.507 119.684 L 35.655 126.101 C 36.168 132.08 37.898 137.897 40.627 143.315 L 29.46 154.572 L 38.278 165.718 L 53.799 160.051 C 58.619 164.207 64.219 167.654 70.4 170.116 L 71.769 185.97 L 86.064 188.78 L 86.645 187.317 L 73.872 184.806 L 72.503 168.952 z "
         style="fill:#ffffff;stroke:none;"
         id="path222" />
      <path
         d="M 93.926 94.729 C 84.873 92.949 76.191 94.587 69.383 98.674 C 75.833 95.45 83.681 94.291 91.823 95.893 C 110.415 99.548 123.609 116.235 121.234 133.086 C 120.014 141.736 114.92 148.769 107.742 153.077 C 116.024 148.939 122 141.397 123.337 131.921 C 125.712 115.07 112.518 98.386 93.926 94.729 z "
         style="fill:#ffffff;stroke:none;"
         id="path223" />
      <path
         d="M 93.916 173.145 L 93.466 174.279 C 99.337 174.125 104.961 173.05 110.136 171.159 L 123.222 182.426 L 125.216 181.169 L 112.239 169.995 C 106.579 172.062 100.387 173.169 93.916 173.145 z "
         style="fill:#ffffff;stroke:none;"
         id="path224" />
      <path
         d="M 138.268 145.999 L 153.842 146.101 L 154.008 144.924 L 138.762 144.826 C 138.605 145.223 138.435 145.609 138.268 145.999 z "
         style="fill:#ffffff;stroke:none;"
         id="path225" />
    </g>
  </g>
  <g
     style="font-size:12;stroke:#000000;"
     id="Layer_2">
    <path
       d="M 256 256 L 0 256 L 0 0 L 256 0 L 256 256 z "
       style="fill:none;stroke:none;"
       id="path227" />
  </g>
</svg>
