<?xml version="1.0" encoding="UTF-8" standalone="no"?>
<!DOCTYPE svg PUBLIC "-//W3C//DTD SVG 20010904//EN"
"http://www.w3.org/TR/2001/REC-SVG-20010904/DTD/svg10.dtd">
<!-- Created with Sodipodi ("http://www.sodipodi.com/") -->
<svg
   version="1"
   x="0.00000000"
   y="0.00000000"
   width="48pt"
   height="48pt"
   viewBox="0 0 256 256"
   id="svg548"
   xmlns="http://www.w3.org/2000/svg"
   xmlns:sodipodi="http://sodipodi.sourceforge.net/DTD/sodipodi-0.dtd"
   xmlns:xlink="http://www.w3.org/1999/xlink"
   sodipodi:version="0.32pre"
   sodipodi:docname="/home/cschalle/gnome-themes-extras/Nuvola/icons/scalable/mimetypes/gnome-mime-application-x-rpm.svg"
   sodipodi:docbase="/home/cschalle/gnome-themes-extras/Nuvola/icons/scalable/mimetypes">
  <sodipodi:namedview
     id="base" />
  <defs
     id="defs605">
    <linearGradient
       x1="93.1909027"
       y1="59.7323990"
       x2="190.188400"
       y2="266.727509"
       id="XMLID_1_"
       gradientUnits="userSpaceOnUse"
       spreadMethod="pad">
      <stop
         style="stop-color:#fd993e;stop-opacity:1;"
         offset="0.00000000"
         id="stop552" />
      <stop
         style="stop-color:#e67901;stop-opacity:1;"
         offset="1.00000000"
         id="stop553" />
      <midPointStop
         offset="0"
         style="stop-color:#FD993E"
         id="midPointStop554" />
      <midPointStop
         offset="0.5"
         style="stop-color:#FD993E"
         id="midPointStop555" />
      <midPointStop
         offset="1"
         style="stop-color:#E67901"
         id="midPointStop556" />
    </linearGradient>
    <linearGradient
       x1="125.890602"
       y1="159.998505"
       x2="125.890602"
       y2="19.0004005"
       id="XMLID_2_"
       gradientUnits="userSpaceOnUse"
       spreadMethod="pad">
      <stop
         style="stop-color:#ffff73;stop-opacity:1;"
         offset="0.00000000"
         id="stop564" />
      <stop
         style="stop-color:#fff7e2;stop-opacity:1;"
         offset="1.00000000"
         id="stop565" />
      <midPointStop
         offset="0"
         style="stop-color:#FFFF73"
         id="midPointStop566" />
      <midPointStop
         offset="0.5"
         style="stop-color:#FFFF73"
         id="midPointStop567" />
      <midPointStop
         offset="1"
         style="stop-color:#FFF7E2"
         id="midPointStop568" />
    </linearGradient>
    <linearGradient
       x1="126.540001"
       y1="104.224602"
       x2="45.5433998"
       y2="176.221497"
       id="XMLID_3_"
       gradientUnits="userSpaceOnUse"
       spreadMethod="pad">
      <stop
         style="stop-color:#fee679;stop-opacity:1;"
         offset="0.00000000"
         id="stop571" />
      <stop
         style="stop-color:#fff7b0;stop-opacity:1;"
         offset="1.00000000"
         id="stop572" />
      <midPointStop
         offset="0"
         style="stop-color:#FEE679"
         id="midPointStop573" />
      <midPointStop
         offset="0.5"
         style="stop-color:#FEE679"
         id="midPointStop574" />
      <midPointStop
         offset="1"
         style="stop-color:#FFF7B0"
         id="midPointStop575" />
    </linearGradient>
    <linearGradient
       x1="198.551300"
       y1="194.756302"
       x2="134.553406"
       y2="51.7611008"
       id="XMLID_4_"
       gradientUnits="userSpaceOnUse"
       spreadMethod="pad">
      <stop
         style="stop-color:#fee69e;stop-opacity:1;"
         offset="0.00560000"
         id="stop578" />
      <stop
         style="stop-color:#ffcc00;stop-opacity:1;"
         offset="1.00000000"
         id="stop579" />
      <midPointStop
         offset="0.0056"
         style="stop-color:#FEE69E"
         id="midPointStop580" />
      <midPointStop
         offset="0.5"
         style="stop-color:#FEE69E"
         id="midPointStop581" />
      <midPointStop
         offset="1"
         style="stop-color:#FFCC00"
         id="midPointStop582" />
    </linearGradient>
    <linearGradient
       x1="125.625999"
       y1="67.0019989"
       x2="125.625999"
       y2="39.0047989"
       id="XMLID_5_"
       gradientUnits="userSpaceOnUse"
       spreadMethod="pad">
      <stop
         style="stop-color:#fd993e;stop-opacity:1;"
         offset="0.00000000"
         id="stop585" />
      <stop
         style="stop-color:#e65c00;stop-opacity:1;"
         offset="1.00000000"
         id="stop586" />
      <midPointStop
         offset="0"
         style="stop-color:#FD993E"
         id="midPointStop587" />
      <midPointStop
         offset="0.5"
         style="stop-color:#FD993E"
         id="midPointStop588" />
      <midPointStop
         offset="1"
         style="stop-color:#E65C00"
         id="midPointStop589" />
    </linearGradient>
    <linearGradient
       x1="133.366699"
       y1="154.240707"
       x2="241.366699"
       y2="154.240707"
       id="XMLID_6_"
       gradientUnits="userSpaceOnUse"
       spreadMethod="pad">
      <stop
         style="stop-color:#ffffff;stop-opacity:1;"
         offset="0.00000000"
         id="stop594" />
      <stop
         style="stop-color:#f7f7df;stop-opacity:1;"
         offset="1.00000000"
         id="stop595" />
      <midPointStop
         offset="0"
         style="stop-color:#FFFFFF"
         id="midPointStop596" />
      <midPointStop
         offset="0.5"
         style="stop-color:#FFFFFF"
         id="midPointStop597" />
      <midPointStop
         offset="1"
         style="stop-color:#F7F7DF"
         id="midPointStop598" />
    </linearGradient>
  </defs>
  <path
     d="M 246 116.574 L 245.744 116.574 L 245.744 63.69 L 135.002 24.688 L 133.119 25.385 L 25.113 65.339 L 25.113 210.508 L 28.739 211.821 L 136.886 251.519 L 245.743 213.244 L 245.743 191.907 L 246 191.907 C 250.963 191.907 255 187.87 255 182.907 L 255 125.574 C 255 120.612 250.963 116.574 246 116.574 z "
     style="font-size:12;opacity:0.2;"
     id="path550" />
  <path
     d="M 124.007 18.708 L 16 58.662 L 16 203.831 L 19.626 205.144 L 127.773 244.842 L 236.63 206.567 L 236.63 57.013 L 125.89 18.011 L 124.007 18.708 z "
     style="font-size:12;fill:url(#XMLID_1_);"
     id="path557" />
  <path
     d="M 126.256 62.443 L 21.431 62.443 L 21.431 201.136 L 21.512 201.136 L 125.89 239.748 L 126.256 239.612 L 126.256 62.443 z "
     style="font-size:12;fill:#febf59;"
     id="path558" />
  <g
     style="font-size:12;stroke:#000000;"
     id="g559">
    <path
       d="M 126.256 62.443 L 126.256 239.612 L 125.89 239.748 L 230.268 201.136 L 231.202 201.136 L 231.202 62.443 L 126.256 62.443 z "
       style="fill:#ffffe6;stroke:none;"
       id="path560" />
    <path
       d="M 21.431 62.443 L 125.889 101.085 L 230.349 62.443 L 125.89 23.8 L 21.431 62.443 z "
       style="fill:#ffffe6;stroke:none;"
       id="path561" />
    <path
       d="M 125.89 101.085 L 21.431 62.443 L 21.431 200.05 L 21.512 200.05 L 125.89 238.662 L 126.256 238.526 L 126.256 100.95 L 125.89 101.085 z "
       style="fill:#ffffe6;stroke:none;"
       id="path562" />
  </g>
  <path
     d="M 125.89 23.8 L 22.899 61.9 C 39.819 68.159 56.74 74.418 73.661 80.678 C 85.233 84.959 96.806 89.24 108.378 93.521 C 113.095 95.266 120.771 99.999 125.89 99.999 C 130.323 99.999 136.972 95.9 141.052 94.39 C 153.409 89.82 165.765 85.248 178.12 80.678 C 195.042 74.418 211.96 68.159 228.882 61.9 L 125.89 23.8 z "
     style="font-size:12;fill:url(#XMLID_2_);"
     id="path569" />
  <path
     d="M 21.431 65.802 L 21.431 200.461 L 21.511 200.461 L 123.931 238.397 C 123.953 193.733 125.227 147.333 123.567 103.632 C 89.521 91.023 55.476 78.412 21.431 65.802 z "
     style="font-size:12;fill:url(#XMLID_3_);"
     id="path576" />
  <path
     d="M 128.668 239.066 L 230.275 201.612 L 231.201 201.612 L 231.201 67.259 C 219.43 71.356 131.347 102.088 129.353 104.827 C 127.262 107.696 128.604 233.333 128.668 239.066 z "
     style="font-size:12;fill:url(#XMLID_4_);"
     id="path583" />
  <path
     d="M 126.5 62 L 229.25 61.75 L 126 55.5 L 126 23.25 C 126 23.25 121.836 53.801 120.75 55.25 C 119.666 56.699 22 62 22 62 L 120.5 60.5 L 125.5 100.25 L 126.5 62 z "
     style="font-size:12;fill:url(#XMLID_5_);"
     id="path590" />
  <path
     d="M 256 256 L 0 256 L 0 0 L 256 0 L 256 256 z "
     style="font-size:12;fill:none;"
     id="path591" />
  <path
     d="M 137.367 116.574 C 132.404 116.574 128.367 120.612 128.367 125.574 L 128.367 182.907 C 128.367 187.87 132.404 191.907 137.367 191.907 L 237.367 191.907 C 242.33 191.907 246.367 187.87 246.367 182.907 L 246.367 125.574 C 246.367 120.612 242.33 116.574 237.367 116.574 L 137.367 116.574 L 137.367 116.574 z "
     style="font-size:12;fill:#e67901;"
     id="path592" />
  <path
     d="M 241.367 182.907 C 241.367 185.116 239.576 186.907 237.367 186.907 L 137.367 186.907 C 135.158 186.907 133.367 185.116 133.367 182.907 L 133.367 125.574 C 133.367 123.365 135.158 121.574 137.367 121.574 L 237.367 121.574 C 239.576 121.574 241.367 123.365 241.367 125.574 L 241.367 182.907 z "
     style="font-size:12;fill:url(#XMLID_6_);"
     id="path599" />
  <path
     d="M 159.658 164.213 C 159.658 167.275 158.722 169.633 156.853 171.288 C 154.983 172.944 152.475 173.771 149.331 173.771 C 148.579 173.771 147.574 173.704 146.314 173.572 C 145.054 173.438 144.002 173.277 143.158 173.09 L 143.158 168.647 L 143.417 168.647 C 144.06 168.866 144.855 169.108 145.804 169.374 C 146.752 169.64 147.72 169.772 148.708 169.772 C 150.149 169.772 151.298 169.609 152.152 169.281 C 153.006 168.953 153.637 168.484 154.046 167.875 C 154.469 167.251 154.739 166.486 154.857 165.58 C 154.975 164.674 155.034 163.628 155.034 162.44 L 155.034 142.085 L 147.596 142.085 L 147.596 138.397 L 159.659 138.397 L 159.659 164.213 L 159.658 164.213 z "
     style="font-size:12;fill:#ff6600;"
     id="path669" />
  <path
     d="M 166.078 173.272 L 177.869 138.397 L 183.599 138.397 L 195.39 173.272 L 190.507 173.272 L 187.355 163.584 L 173.914 163.584 L 170.762 173.272 L 166.078 173.272 z M 186.051 159.584 L 180.621 143.083 L 175.216 159.584 L 186.051 159.584 z "
     style="font-size:12;fill:#ff6600;"
     id="path670" />
  <path
     d="M 229.272 173.272 L 223.251 173.272 L 212.217 159.397 L 206.897 159.397 L 206.897 173.272 L 202.272 173.272 L 202.272 138.397 L 211.259 138.397 C 213.255 138.397 214.929 138.506 216.279 138.725 C 217.629 138.944 218.912 139.451 220.13 140.246 C 221.347 141.026 222.31 142.033 223.02 143.266 C 223.73 144.499 224.085 146.029 224.085 147.854 C 224.085 150.415 223.438 152.552 222.145 154.269 C 220.851 155.986 219.09 157.258 216.862 158.084 L 229.272 173.272 z M 219.272 148.212 C 219.272 147.2 219.091 146.301 218.732 145.515 C 218.372 144.729 217.816 144.086 217.065 143.588 C 216.407 143.152 215.64 142.845 214.763 142.665 C 213.886 142.486 212.798 142.396 211.499 142.396 L 206.896 142.396 L 206.896 155.521 L 210.982 155.521 C 212.312 155.521 213.51 155.405 214.575 155.171 C 215.64 154.937 216.547 154.455 217.299 153.723 C 217.972 153.069 218.469 152.29 218.79 151.387 C 219.111 150.486 219.272 149.427 219.272 148.212 z "
     style="font-size:12;fill:#ff6600;"
     id="path671" />
</svg>
