<?xml version="1.0" encoding="UTF-8" standalone="no"?>
<!DOCTYPE svg PUBLIC "-//W3C//DTD SVG 20010904//EN"
"http://www.w3.org/TR/2001/REC-SVG-20010904/DTD/svg10.dtd">
<!-- Created with Sodipodi ("http://www.sodipodi.com/") -->
<svg
   width="48pt"
   height="48pt"
   viewBox="0 0 256 256"
   overflow="visible"
   enable-background="new 0 0 256 256"
   xml:space="preserve"
   xmlns="http://www.w3.org/2000/svg"
   xmlns:xml="http://www.w3.org/XML/1998/namespace"
   xmlns:a="http://ns.adobe.com/AdobeSVGViewerExtensions/3.0/"
   xmlns:sodipodi="http://sodipodi.sourceforge.net/DTD/sodipodi-0.dtd"
   xmlns:xlink="http://www.w3.org/1999/xlink"
   id="svg153"
   sodipodi:version="0.32pre"
   sodipodi:docname="/home/cschalle/gnome-themes-extras/Nuvola/icons/scalable/mimetypes/gnome-mime-text-html.svg"
   sodipodi:docbase="/home/cschalle/gnome-themes-extras/Nuvola/icons/scalable/mimetypes">
  <defs
     id="defs202" />
  <sodipodi:namedview
     id="base" />
  <g
     id="Layer_2"
     stroke="#000000">
    <path
       fill="none"
       stroke="none"
       d="M256,256H0V0h256V256z"
       id="path155" />
  </g>
  <g
     id="Layer_3"
     stroke="#000000">
    <path
       opacity="0.2"
       stroke="none"
       d="M49,19c-9.374,0-17,7.626-17,17v200c0,9.374,7.626,17,17,17h176c9.374,0,17-7.626,17-17V36    c0-9.374-7.626-17-17-17H49z"
       id="path157" />
    <linearGradient
       id="XMLID_1_"
       gradientUnits="userSpaceOnUse"
       x1="23"
       y1="130"
       x2="233"
       y2="130">
      <stop
         offset="0"
         style="stop-color:#999999"
         id="stop159" />
      <stop
         offset="1"
         style="stop-color:#666666"
         id="stop160" />
      <a:midPointStop
         offset="0"
         style="stop-color:#999999"
         id="midPointStop161" />
      <a:midPointStop
         offset="0.5"
         style="stop-color:#999999"
         id="midPointStop162" />
      <a:midPointStop
         offset="1"
         style="stop-color:#666666"
         id="midPointStop163" />
    </linearGradient>
    <path
       fill="url(#XMLID_1_)"
       stroke="none"
       d="M40,13c-9.374,0-17,7.626-17,17v200c0,9.374,7.626,17,17,17h176    c9.374,0,17-7.626,17-17V30c0-9.374-7.626-17-17-17H40z"
       id="path164" />
    <path
       fill="#99CCFF"
       stroke="none"
       d="M28,230c0,6.627,5.373,12,12,12h176c6.627,0,12-5.373,12-12V30c0-6.627-5.373-12-12-12H40    c-6.627,0-12,5.373-12,12V230z"
       id="path165" />
    <linearGradient
       id="XMLID_2_"
       gradientUnits="userSpaceOnUse"
       x1="84.5029"
       y1="86.5029"
       x2="321.5015"
       y2="323.5015">
      <stop
         offset="0"
         style="stop-color:#FFFFFF"
         id="stop167" />
      <stop
         offset="1"
         style="stop-color:#99CCFF"
         id="stop168" />
      <a:midPointStop
         offset="0"
         style="stop-color:#FFFFFF"
         id="midPointStop169" />
      <a:midPointStop
         offset="0.5"
         style="stop-color:#FFFFFF"
         id="midPointStop170" />
      <a:midPointStop
         offset="1"
         style="stop-color:#99CCFF"
         id="midPointStop171" />
    </linearGradient>
    <path
       fill="url(#XMLID_2_)"
       stroke="none"
       d="M40,23c-3.859,0-7,3.14-7,7v200c0,3.859,3.141,7,7,7h176c3.859,0,7-3.141,7-7V30    c0-3.86-3.141-7-7-7H40z"
       id="path172" />
    <path
       opacity="0.4"
       fill="#FFFFFF"
       stroke="none"
       d="M163,108c18.593-17.431,40.938-26.006,65-30.265V30c0-6.627-5.373-12-12-12    H40c-6.627,0-12,5.373-12,12v143.268C77.582,177.009,124.478,142.51,163,108z"
       id="path173" />
    <path
       opacity="0.3"
       fill="#FFFFFF"
       stroke="none"
       d="M116.402,40.043l8.375,6.816l10.127,17.92l3.313,21.035l-0.779,11.104    l-43.627-0.195l0.582-5.844l-3.504-6.621L116.402,40.043z"
       id="path174" />
    <radialGradient
       id="XMLID_3_"
       cx="69.5806"
       cy="63.0864"
       r="110.9116"
       fx="69.5806"
       fy="63.0864"
       gradientUnits="userSpaceOnUse">
      <stop
         offset="0"
         style="stop-color:#FFFFFF"
         id="stop176" />
      <stop
         offset="0.5955"
         style="stop-color:#99CCFF"
         id="stop177" />
      <stop
         offset="0.9944"
         style="stop-color:#3399FF"
         id="stop178" />
      <a:midPointStop
         offset="0"
         style="stop-color:#FFFFFF"
         id="midPointStop179" />
      <a:midPointStop
         offset="0.5"
         style="stop-color:#FFFFFF"
         id="midPointStop180" />
      <a:midPointStop
         offset="0.5955"
         style="stop-color:#99CCFF"
         id="midPointStop181" />
      <a:midPointStop
         offset="0.5"
         style="stop-color:#99CCFF"
         id="midPointStop182" />
      <a:midPointStop
         offset="0.9944"
         style="stop-color:#3399FF"
         id="midPointStop183" />
    </radialGradient>
    <path
       fill="url(#XMLID_3_)"
       stroke="none"
       d="M75.257,179.207c37.688,0,68.263-30.701,68.263-68.367    c0-37.426-30.573-68.133-68.263-68.133C37.836,42.708,7,73.414,7,110.84C7,148.506,37.836,179.207,75.257,179.207z"
       id="path184" />
    <path
       opacity="0.2"
       stroke="none"
       d="M78.257,42.707C38.414,42.708,6,75.067,6,114.84c0,39.903,32.414,72.367,72.257,72.367    c39.846,0,72.263-32.464,72.263-72.367C150.52,75.065,118.103,42.707,78.257,42.707z M78.257,183.207    C40.836,183.207,10,152.506,10,114.84c0-37.426,30.836-68.131,68.257-68.133c37.689,0,68.263,30.707,68.263,68.133    C146.52,152.506,115.945,183.207,78.257,183.207z"
       id="path185" />
    <path
       fill="#0066CC"
       stroke="none"
       d="M75.257,38.707C35.414,38.708,3,71.067,3,110.84c0,39.903,32.414,72.367,72.257,72.367    c39.846,0,72.263-32.464,72.263-72.367C147.52,71.065,115.103,38.707,75.257,38.707z M75.257,179.207    C37.836,179.207,7,148.506,7,110.84c0-37.426,30.836-68.131,68.257-68.133c37.689,0,68.263,30.707,68.263,68.133    C143.52,148.506,112.945,179.207,75.257,179.207z"
       id="path186" />
    <linearGradient
       id="XMLID_4_"
       gradientUnits="userSpaceOnUse"
       x1="75.0796"
       y1="69"
       x2="75.0796"
       y2="184.0026">
      <stop
         offset="0"
         style="stop-color:#0066CC"
         id="stop188" />
      <stop
         offset="0.9944"
         style="stop-color:#003366"
         id="stop189" />
      <a:midPointStop
         offset="0"
         style="stop-color:#0066CC"
         id="midPointStop190" />
      <a:midPointStop
         offset="0.5"
         style="stop-color:#0066CC"
         id="midPointStop191" />
      <a:midPointStop
         offset="0.9944"
         style="stop-color:#003366"
         id="midPointStop192" />
    </linearGradient>
    <path
       fill="url(#XMLID_4_)"
       stroke="none"
       d="M52.584,50.215c-0.338,0-0.707,0.139-1.086,0.354    C52.387,50.307,52.805,50.215,52.584,50.215z M74.562,54.503l0.222-3.215l-3.394,0.213l0.449,3.001H74.562z M36.271,110.066    c-0.682-0.645-0.226-3.435-0.226-3.435s-10.197-5.359-21.299-8.58c-1.369-0.397-0.678-3.216,0.677-4.285l-0.452-3.013    c-0.225-1.496,2.268-8.789,4.76-9.43c2.493-0.647-0.227,4.287-0.227,4.287l-2.492,1.502c0,0,2.943,3.43,3.627,3.43    c0.678,0,1.811-1.717,1.811-1.717l-3.171-2.139l2.946-1.291l0.185-1.131l0.494-0.156l4.876-7.386    c3.37-1.379,7.512-3.087,8.039-3.34c0.906-0.426,7.25-4.069,8.383-4.929c1.136-0.861,3.623-0.643,4.527-0.643    c0.91,0,2.27-0.43,2.494-2.794c0.227-2.359,1.135-2.789,1.815-2.143c0.679,0.64-0.683,1.714,0.905,2.143    c1.586,0.432,2.942,1.504,4.078,0.432c0.828-0.787-0.28-1.681-1.027-2.356h12.58l1.362-3.868l-2.945-0.428l-10.88-1.072v-1.288    l-0.867,0.146c1.178-6.472,8.174-5.405,2.908-9.152c-0.32-0.23-4.928,7.26-6.1,7.115c-2.124-0.28-4.869-0.302-5.455,0.388    c-0.771,0.912,1.738-3.138,3.9-4.366c-3.45,1.017-14.352,4.747-25.877,17.023c-11.018,11.736-15.41,27.547-15.41,28.101    c0,1.071,2.268,1.502,2.494,2.79c0.227,1.281-4.303,5.576-4.303,7.721c0,0.988-1.069,14.21,2.715,25.102    c4.422,12.711,13.858,23.326,14.956,24.025l2.264-1.076c0,0-5.211-9.223-5.437-10.084c-0.225-0.854,5.891-13.297,8.838-12.865    c2.943,0.422,2.266,1.287,4.078,0.213c1.812-1.07,2.944-9.871,4.983-10.723c2.041-0.863,4.305-1.934,4.082-4.078    C44.651,114.566,36.949,110.709,36.271,110.066z M85.437,46.997L79.32,44.85l1.133,3.436L85.437,46.997z M62.552,54.934    c0.682,0,14.275-9.006,12.915-9.224c-1.356-0.213-1.585,0-5.215-0.429c-3.622-0.43-7.479,5.149-8.381,6.008    C60.967,52.15,61.271,54.934,62.552,54.934z M124.934,119.614l1.755-2.276l-1.755-0.617l-1.315,1.655l-1.534,2.269l1.315,0.623    L124.934,119.614z M132.606,127.063l-0.439-3.31h-2.845l-0.221,2.478l-2.636-0.408l-0.654-2.691l-1.314-0.825l-1.539,1.858    l-1.53-0.411l-0.441,1.442l1.756,0.42v13.436l6.206,1.494c-0.143,0.248-0.25,0.457-0.286,0.57    c-0.442,1.449,1.752,2.074,3.284,1.449c0.573-0.229,2.377-2.053,3.511-4.75c1.58-3.758,2.96-8.719,3.237-10.473l0.711-1.519    l-4.387,1.651l-2.413-0.41L132.606,127.063z M141.818,102.043l-1.145-2.217c-1.356-7.647-4.467-17.439-11.132-27.555    c-10.032-15.208-37.944-23.98-37.944-23.98l-1.531,1.856l-0.879-1.443l-2.194-0.83v1.86l1.977,1.657l-1.316,0.619l-5.045,0.411    l-11.402,6.205l1.093,4.96l-1.317,0.417l-0.652,1.031l3.727,5.579l0.22,1.865l-3.069,0.619v3.719l-1.753,0.413l0.221,2.896    L54.758,90.469l0.439,5.783c1.094,1.449,9.65,10.135,9.65,10.135s9.865,0.408,12.06-0.828c2.193-1.24,0.657,1.238,1.316,1.859    c0.657,0.625,0.877,4.961,1.532,5.377c0.657,0.412,0,2.891,0.878,3.723c0.877,0.82,0.877,10.752,0.877,10.752    s5.264,8.885,5.264,11.162c0,2.273-0.22,2.066,3.949,1.861c4.166-0.207,5.042-1.861,5.917-2.479    c0.881-0.623,0.881-2.07,1.759-3.313c0.879-1.242,2.408-5.994,4.386-7.646c1.972-1.658,7.235-2.899,7.672-5.79    c0.438-2.896,2.412-5.171,2.412-5.171l9.481-10.029l-0.267,1.349l-0.221,5.163l2.852-1.031l-0.218-5.586l-1.025-1.082l0.146-0.157    c0,0-0.66-1.238-1.534-1.238c-0.877,0-6.144,1.238-7.018,1.033c-0.879-0.208-4.609-10.133-5.267-10.542    c-0.658-0.414-4.822-7.238-4.822-7.238s9.647,11.579,11.183,16.125c0.891,2.648,4.237,0.184,6.961-2.581l0.72,1.757l1.752-0.418    l-0.22-2.066h1.973v3.102l-0.657,1.654l-0.226,2.686l1.757,1.658l0.88-1.445l2.845-2.69l3.293-1.655l0.878,1.655l0.439,2.275    l-0.881,2.479l-1.752,1.447l-0.878,3.723v1.855l-1.971-1.238l-0.22-3.926l-2.851,0.209l-1.314,3.51l1.974,2.9l4.604,0.619    l3.73-3.52l0.437-6.816l1.658-2.19c1.081,2.777,1.853,5.685,1.853,8.392c0,2.969,1.356-2.057,0.202-11.109L141.818,102.043z     M86.555,80.955l-11.841-0.42l5.04-4.132h2.634l4.166,2.892L86.555,80.955z M101.031,79.509v1.86h-5.043l0.438,1.242l-3.072,0.416    l-0.218,1.03l-2.192-0.41l-3.949-0.832l0.659-1.03l0.659-1.246l2.191-2.271l0.879,1.655l3.291-0.208l1.752-1.862l6.796,1.241    l-2.19,0.417V79.509z M101.466,76.818l-2.629,0.413l-0.438-1.863l3.285-0.412l0.441-1.859l2.416,2.484l-3.076,1.234V76.818z     M114.188,141.113l-1.537,1.24l0.219,3.105h1.975v-2.684l1.757-2.279v-4.754l-1.098-0.213l-1.313,5.584H114.188z M99.498,134.918    c0,0-1.536,0.404,0.216,1.029c1.752,0.623,8.771-10.125,8.771-10.125l-5.922,3.717l-3.068,5.379H99.498z M87.56,174.543    l-1.312-1.25l-2.633-0.42l-0.437,1.252l-3.507-0.412l-0.221-1.666h-2.63l-2.85,1.666h-5.04l-0.438-1.252l-8.108-0.836    l-1.317,1.248l-3.285-0.826l-0.438-2.92l-1.534-0.213l-1.754,3.133l-5.916-0.211c1.057,0.502,9.895,5.771,23.446,6.875    c17.973,1.453,26.521-2.916,26.521-2.916l-0.658-0.627l-7.891-0.623V174.543z"
       id="path193" />
    <linearGradient
       id="XMLID_5_"
       gradientUnits="userSpaceOnUse"
       x1="75.3169"
       y1="42.7065"
       x2="75.3169"
       y2="156.0027">
      <stop
         offset="0"
         style="stop-color:#FFFFFF"
         id="stop195" />
      <stop
         offset="0.9944"
         style="stop-color:#99CCFF"
         id="stop196" />
      <a:midPointStop
         offset="0"
         style="stop-color:#FFFFFF"
         id="midPointStop197" />
      <a:midPointStop
         offset="0.5"
         style="stop-color:#FFFFFF"
         id="midPointStop198" />
      <a:midPointStop
         offset="0.9944"
         style="stop-color:#99CCFF"
         id="midPointStop199" />
    </linearGradient>
    <path
       opacity="0.5"
       fill="url(#XMLID_5_)"
       stroke="none"
       d="M75.365,99c24.479,0,45.773-8.435,56.729-20.866    c-11.032-21.057-32.349-35.427-56.833-35.427C50.99,42.708,29.645,57.03,18.541,78.028C29.469,90.518,50.816,99,75.365,99z"
       id="path200" />
  </g>
</svg>
