<?xml version="1.0" encoding="UTF-8" standalone="no"?>
<!DOCTYPE svg PUBLIC "-//W3C//DTD SVG 20010904//EN"
"http://www.w3.org/TR/2001/REC-SVG-20010904/DTD/svg10.dtd">
<!-- Created with Sodipodi ("http://www.sodipodi.com/") -->
<svg
   i:viewOrigin="178 524"
   i:rulerOrigin="-178 -268"
   i:pageBounds="178 524 434 268"
   width="48pt"
   height="48pt"
   viewBox="0 0 256 256"
   style="overflow:visible;enable-background:new 0 0 256 256"
   xml:space="preserve"
   xmlns="http://www.w3.org/2000/svg"
   xmlns:ns="http://ns.adobe.com/Variables/1.0/"
   xmlns:i="&amp;ns_ai;"
   xmlns:xml="http://www.w3.org/XML/1998/namespace"
   xmlns:sodipodi="http://sodipodi.sourceforge.net/DTD/sodipodi-0.dtd"
   xmlns:xlink="http://www.w3.org/1999/xlink"
   id="svg153"
   sodipodi:version="0.32pre"
   sodipodi:docname="/home/cschalle/gnome-themes-extras/Nuvola/icons/scalable/mimetypes/gnome-mime-text.svg"
   sodipodi:docbase="/home/cschalle/gnome-themes-extras/Nuvola/icons/scalable/mimetypes">
  <defs
     id="defs212" />
  <sodipodi:namedview
     id="base" />
  <metadata
     id="metadata154">
    <ns:variableSets>
      <ns:variableSet
         varSetName="binding1"
         locked="none">
        <ns:variables />
        <ns:sampleDataSets />
      </ns:variableSet>
    </ns:variableSets>
  </metadata>
  <g
     id="Layer_3"
     i:layer="yes"
     i:dimmedPercent="50"
     i:rgbTrio="#4F008000FFFF"
     style="stroke:#000000;">
    <path
       style="opacity:0.2;stroke:none;"
       d="M49,19c-9.374,0-17,7.626-17,17v200c0,9.374,7.626,17,17,17h176c9.374,0,17-7.626,17-17V36    c0-9.374-7.626-17-17-17H49z"
       id="path156" />
    <linearGradient
       id="XMLID_1_"
       gradientUnits="userSpaceOnUse"
       x1="-155"
       y1="394"
       x2="55"
       y2="394"
       gradientTransform="matrix(1 0 0 -1 178 524)">
      <stop
         offset="0"
         style="stop-color:#A7ABAC"
         id="stop158" />
      <stop
         offset="1"
         style="stop-color:#85898A"
         id="stop159" />
    </linearGradient>
    <path
       style="fill:url(#XMLID_1_);stroke:none;"
       d="M40,13c-9.374,0-17,7.626-17,17v200c0,9.374,7.626,17,17,17h176c9.374,0,17-7.626,17-17V30    c0-9.374-7.626-17-17-17H40z"
       id="path163" />
    <path
       style="fill:#99CCFF;stroke:none;"
       d="M28,230c0,6.627,5.373,12,12,12h176c6.627,0,12-5.373,12-12V30c0-6.627-5.373-12-12-12H40    c-6.627,0-12,5.373-12,12V230z"
       id="path164" />
    <linearGradient
       id="XMLID_2_"
       gradientUnits="userSpaceOnUse"
       x1="-93.4966"
       y1="437.498"
       x2="143.502"
       y2="200.4995"
       gradientTransform="matrix(1 0 0 -1 178 524)">
      <stop
         offset="0"
         style="stop-color:#FFFFFF"
         id="stop166" />
      <stop
         offset="1"
         style="stop-color:#99CCFF"
         id="stop167" />
    </linearGradient>
    <path
       style="fill:url(#XMLID_2_);stroke:none;"
       d="M40,23c-3.859,0-7,3.14-7,7v200c0,3.859,3.141,7,7,7h176c3.859,0,7-3.141,7-7V30c0-3.86-3.141-7-7-7H40z"
       id="path171" />
    <path
       style="opacity:0.4;fill:#FFFFFF;stroke:none;"
       d="M163,108c18.593-17.431,40.938-26.006,65-30.265V30c0-6.627-5.373-12-12-12H40c-6.627,0-12,5.373-12,12    v143.268C77.582,177.009,124.478,142.51,163,108z"
       id="path172" />
    <g
       id="g173">
      <path
         style="opacity:0.36;fill:#9CBCDA;stroke:none;"
         d="M31.856,92.05l80.28,115.606c0,0,0.82-0.57,1.613-1.121c4.076,1.966,35.846,17.304,35.846,17.304     s-3.272-35.128-3.692-39.631c0.819-0.57,1.662-1.153,1.662-1.153L49.211,41.421l-3.738,2.596l-13.616,9.456L31.856,92.05z"
         id="path174" />
      <linearGradient
         id="XMLID_3_"
         gradientUnits="userSpaceOnUse"
         x1="-69.6035"
         y1="395.418"
         x2="-26.4722"
         y2="395.418"
         gradientTransform="matrix(0.8214 -0.5704 -0.5704 -0.8214 359.7792 427.1686)">
        <stop
           offset="0"
           style="stop-color:#C2BAAD"
           id="stop176" />
        <stop
           offset="1"
           style="stop-color:#D4CCBF"
           id="stop177" />
      </linearGradient>
      <path
         style="fill:url(#XMLID_3_);stroke:none;"
         d="M49.689,35.018L18,57.023l98.353,141.633c0,0,0.821-0.57,1.614-1.121     c4.075,1.966,35.846,17.304,35.846,17.304s-3.272-35.128-3.692-39.631c0.82-0.57,1.661-1.153,1.661-1.153L53.427,32.421     L49.689,35.018z"
         id="path181" />
      <linearGradient
         id="XMLID_4_"
         gradientUnits="userSpaceOnUse"
         x1="-56.2368"
         y1="412.7461"
         x2="-37.656"
         y2="412.7461"
         gradientTransform="matrix(0.8214 -0.5704 -0.5704 -0.8214 359.7792 427.1686)">
        <stop
           offset="0"
           style="stop-color:#FEE382"
           id="stop183" />
        <stop
           offset="0.5449"
           style="stop-color:#FFE649"
           id="stop184" />
        <stop
           offset="0.6371"
           style="stop-color:#FFE34C"
           id="stop185" />
        <stop
           offset="1"
           style="stop-color:#FED953"
           id="stop186" />
      </linearGradient>
      <path
         style="fill:url(#XMLID_4_);stroke:none;"
         d="M145.446,172.913l-27.952,19.411L24.332,58.166l27.952-19.411L145.446,172.913z"
         id="path194" />
      <linearGradient
         id="XMLID_5_"
         gradientUnits="userSpaceOnUse"
         x1="-48.0381"
         y1="297.0537"
         x2="-48.0381"
         y2="321.5089"
         gradientTransform="matrix(0.8214 -0.5704 -0.5704 -0.8214 359.7792 427.1686)">
        <stop
           offset="0"
           style="stop-color:#000000"
           id="stop196" />
        <stop
           offset="1"
           style="stop-color:#999999"
           id="stop197" />
      </linearGradient>
      <path
         style="fill:url(#XMLID_5_);stroke:none;"
         d="M147.057,191.118l1.499,16.104l-14.564-7.031L147.057,191.118z"
         id="path201" />
      <linearGradient
         id="XMLID_6_"
         gradientUnits="userSpaceOnUse"
         x1="-49.6592"
         y1="424.3301"
         x2="-40.8469"
         y2="415.5178"
         gradientTransform="matrix(0.8214 -0.5704 -0.5704 -0.8214 359.7792 427.1686)">
        <stop
           offset="0"
           style="stop-color:#FFFFFF"
           id="stop203" />
        <stop
           offset="1"
           style="stop-color:#FFE649"
           id="stop204" />
      </linearGradient>
      <path
         style="opacity:0.4;fill:url(#XMLID_6_);stroke:none;adobe-blending-mode:screen;"
         d="M26.707,58.594c1.85,2.666,75.734,109.062,79.85,114.988c2.275-10.818,1.637-19.861-2.016-28.176     c-3.32-7.294-7.756-14.053-12.045-20.589c-5.805-8.841-11.806-17.983-15.141-28.613c-2.062-7.199-3.051-14.809-2.988-22.657     C73.82,72.759,53.623,43.675,51.855,41.13C49.461,42.793,29.102,56.931,26.707,58.594z"
         id="path208" />
    </g>
  </g>
  <g
     id="Layer_2"
     i:layer="yes"
     i:editable="no"
     i:dimmedPercent="50"
     i:rgbTrio="#FFFF4F004F00"
     style="stroke:#000000;">
    <path
       style="fill:none;stroke:none;"
       d="M256,256H0V0h256V256z"
       id="path210" />
  </g>
</svg>
