<?xml version="1.0" encoding="UTF-8" standalone="no"?>
<!DOCTYPE svg PUBLIC "-//W3C//DTD SVG 20010904//EN"
"http://www.w3.org/TR/2001/REC-SVG-20010904/DTD/svg10.dtd">
<!-- Created with Sodipodi ("http://www.sodipodi.com/") -->
<svg
   width="50pt"
   height="58pt"
   viewBox="0 0 204.755 242.183"
   style="overflow:visible;enable-background:new 0 0 204.755 242.183"
   xml:space="preserve"
   id="svg2555"
   sodipodi:version="0.32pre"
   sodipodi:docname="/home/cschalle/gnome-themes-extras/Nuvola/icons/scalable/mimetypes/gnome-mime-application-vnd.sun.xml.writer.svg"
   sodipodi:docbase="/home/cschalle/gnome-themes-extras/Nuvola/icons/scalable/mimetypes/"
   xmlns="http://www.w3.org/2000/svg"
   xmlns:sodipodi="http://sodipodi.sourceforge.net/DTD/sodipodi-0.dtd"
   xmlns:xml="http://www.w3.org/XML/1998/namespace"
   xmlns:a="http://ns.adobe.com/AdobeSVGViewerExtensions/3.0/"
   xmlns:xlink="http://www.w3.org/1999/xlink">
  <defs
     id="defs2610">
    <linearGradient
       id="XMLID_1_"
       gradientUnits="userSpaceOnUse"
       x1="227.9497"
       y1="263.2354"
       x2="60.8168"
       y2="96.103">
      <stop
         offset="0"
         style="stop-color:#999999"
         id="stop2558" />
      <stop
         offset="1"
         style="stop-color:#CCCCCC"
         id="stop2559" />
      <a:midPointStop
         offset="0"
         style="stop-color:#999999"
         id="midPointStop2560" />
      <a:midPointStop
         offset="0.5"
         style="stop-color:#999999"
         id="midPointStop2561" />
      <a:midPointStop
         offset="1"
         style="stop-color:#CCCCCC"
         id="midPointStop2562" />
    </linearGradient>
    <linearGradient
       id="XMLID_2_"
       gradientUnits="userSpaceOnUse"
       x1="3.3936"
       y1="-0.8843"
       x2="194.0594"
       y2="268.4486">
      <stop
         offset="0"
         style="stop-color:#CCDEED"
         id="stop2565" />
      <stop
         offset="0.2762"
         style="stop-color:#C7DBEB"
         id="stop2566" />
      <stop
         offset="0.5856"
         style="stop-color:#BAD1E6"
         id="stop2567" />
      <stop
         offset="0.9099"
         style="stop-color:#A4C1DD"
         id="stop2568" />
      <stop
         offset="1"
         style="stop-color:#9CBCDA"
         id="stop2569" />
      <a:midPointStop
         offset="0"
         style="stop-color:#CCDEED"
         id="midPointStop2570" />
      <a:midPointStop
         offset="0.6836"
         style="stop-color:#CCDEED"
         id="midPointStop2571" />
      <a:midPointStop
         offset="1"
         style="stop-color:#9CBCDA"
         id="midPointStop2572" />
    </linearGradient>
    <linearGradient
       id="XMLID_3_"
       gradientUnits="userSpaceOnUse"
       x1="3.7124"
       y1="17.002"
       x2="186.3787"
       y2="238.3348">
      <stop
         offset="0"
         style="stop-color:#FFFFFF"
         id="stop2575" />
      <stop
         offset="0.2232"
         style="stop-color:#FAFBFD"
         id="stop2576" />
      <stop
         offset="0.4988"
         style="stop-color:#EBF0F7"
         id="stop2577" />
      <stop
         offset="0.8006"
         style="stop-color:#D2DFED"
         id="stop2578" />
      <stop
         offset="1"
         style="stop-color:#BDD0E5"
         id="stop2579" />
      <a:midPointStop
         offset="0"
         style="stop-color:#FFFFFF"
         id="midPointStop2580" />
      <a:midPointStop
         offset="0.6628"
         style="stop-color:#FFFFFF"
         id="midPointStop2581" />
      <a:midPointStop
         offset="1"
         style="stop-color:#BDD0E5"
         id="midPointStop2582" />
    </linearGradient>
    <linearGradient
       id="XMLID_4_"
       gradientUnits="userSpaceOnUse"
       x1="49.8477"
       y1="68.4077"
       x2="161.4459"
       y2="180.0059">
      <stop
         offset="0"
         style="stop-color:#FFFFFF"
         id="stop2600" />
      <stop
         offset="0.2319"
         style="stop-color:#FAFCFD"
         id="stop2601" />
      <stop
         offset="0.4917"
         style="stop-color:#EDF2F8"
         id="stop2602" />
      <stop
         offset="0.764"
         style="stop-color:#D7E2EF"
         id="stop2603" />
      <stop
         offset="1"
         style="stop-color:#BDD0E5"
         id="stop2604" />
      <a:midPointStop
         offset="0"
         style="stop-color:#FFFFFF"
         id="midPointStop2605" />
      <a:midPointStop
         offset="0.6836"
         style="stop-color:#FFFFFF"
         id="midPointStop2606" />
      <a:midPointStop
         offset="1"
         style="stop-color:#BDD0E5"
         id="midPointStop2607" />
    </linearGradient>
  </defs>
  <sodipodi:namedview
     id="base" />
  <g
     id="g3066"
     transform="matrix(0.788866,0,0,0.760478,38.1447,53.7112)"
     style="font-size:12;">
    <path
       style="font-size:12;fill:url(#XMLID_1_);"
       d="M168.618,0H0v242.183h204.755V39.088l-1.614-2.411    c-9.829-14.695-19.416-25.659-30.169-34.503L170.329,0H168.618z"
       id="path2563" />
    <path
       style="font-size:12;fill:url(#XMLID_2_);"
       d="M166.906,4.775H4.775v232.633h195.206V40.538l-0.808-1.206    c-9.564-14.297-18.854-24.934-29.234-33.471l-1.321-1.087H166.906z"
       id="path2573" />
    <path
       style="font-size:12;fill:url(#XMLID_3_);"
       d="M9.55,9.55c0,8.97,0,214.111,0,223.082c8.861,0,176.793,0,185.654,0    c0-9.022,0-187.817,0-190.644c-9.271-13.861-18.327-24.237-28.299-32.438C163.612,9.55,18.454,9.55,9.55,9.55z"
       id="path2583" />
    <path
       style="font-size:12;opacity:0.5;fill:url(#XMLID_4_);"
       d="M64.162,146.834    c50.264-32.703,95.79-71.175,111.914-128.885c0.445-1.624,0.851-3.241,1.234-4.856c-3.024-3.116-6.115-5.983-9.306-8.646    l-1.313-1.095h-1.698H3.989v201.975C16.365,181.14,42.769,161.106,64.162,146.834z"
       id="path2608" />
  </g>
  <path
     style="font-size:12;opacity:0.2;"
     d="M37.8,43.7h-9.5V15.5h9.5v28.2z"
     id="path3432"
     transform="matrix(6.08597,0,0,4.276,-49.3298,31.8879)" />
  <path
     style="font-size:12;opacity:0.2;"
     d="M37.8,43.7h-9.5V15.5h9.5v28.2z"
     id="path3523"
     transform="matrix(6.35365,0,0,4.276,-123.023,31.8879)" />
  <g
     id="Layer_x0020_3"
     style="font-size:12;fill:#ffffff;stroke:#000000;"
     transform="matrix(4.15742,0,0,4.45664,11.0148,-0.643792)">
    <path
       style="opacity:0.15;fill:#000000;stroke:none;"
       d="M38.1,18.4c-0.7-0.8-1.7-1.3-2.9-1.4c-3.2-0.4-7.3,1.4-10.2,3.3L23.8,21c-0.2,0.1-0.3,0.2-0.4,0.3c-0.1-0.2-0.4-0.4-0.7-0.6c-0.2-0.1-0.5-0.1-0.7-0.2c0-0.1,0.2-1.5,0.2-1.5c0.3-2.8,0-5.7-1.2-7.7h-9.8c-1.2,1.4-2.2,3.2-2.7,5v4.3    c0.1,0.4,0.3,0.8,0.5,1.2c-0.2,0.2-0.4,0.4-0.5,0.5v8.7C8.7,31.1,8.8,31.1,9,31c0.5,0.5,1.2,0.8,2,0.8c1,0.1,2.1-0.1,3.1-0.5c0,0.1,0,0.2-0.1,0.3c-0.1,0.9,0.2,1.4,0.9,1.7c0.7,0.3,1.4,0.1,2-0.3c0.1,0.6,0.3,1.1,0.6,1.6c0.4,0.6,1,1,1.7,1.2c0.1,0.5,0.1,1.5,0,2    c0,1.4-0.1,2.2,0.6,2.7l1.1,0.4c1.6,0,2-1.3,2.1-2.4c0-0.2,0-0.5,0.1-0.7c0-0.3,0-0.6,0.1-0.8c0.1-0.7,0.3-1.5,0.7-1.7l0.5-0.2c1.9-0.8,4.1-1.6,4.7-3.3c0.1-0.2,0.1-0.4,0.1-0.6c0,0,0-0.1,0-0.1c1.6-0.2,3-0.7,4.2-1.5c2.9-1.8,5.1-4.9,5.6-7.7c0-0.1,0-0.2,0-0.3    c0.2-1.3-0.2-2.5-0.9-3.4z"
       id="path2951" />
    <path
       style="fill:#000000;stroke:none;"
       d="M4.8,13.9c0,1.5,0.4,3,1.2,4.5c-0.8,1-1,2.3-1,3.6c0,0.7,0.1,1.4,0.1,2l0,0.5c0,0,0,0,0,0c0,0.7-1.3,1.5-2.1,2c-0.9,0.6-2.3,1.5-2.3,2.7c0,0.3,0.1,0.6,0.3,0.9L2,30.9c0.8,0.2,1.6-0.2,3-1.1c0.6-0.3,1.5-0.9,2-1.1c0.6,0.5,1.2,0.7,2,0.8    c1,0,2-0.3,2.9-0.9c0,0.1,0,0.2,0,0.4c0,1,0.4,1.6,1.1,1.9c0.3,0.1,0.6,0.2,0.9,0.1c0.1,0.7,0.2,1.2,0.6,1.7c0.2,0.2,0.4,0.4,0.7,0.6c0,0.5-0.1,1.3-0.2,1.8c-0.1,0.7-0.2,1.3-0.2,1.8c0,0.6,0.1,1,0.5,1.4c0.4,0.3,0.9,0.4,1.4,0.3c1.3-0.4,1.5-1.8,1.8-3.3    c0.2-1.1,0.4-2.6,1-3.1l0.4-0.3c1.4-1.1,2.9-2.4,3.5-4.1c0.1-0.3,0.2-0.7,0.2-1c1.2-0.5,2.3-1.4,3.3-2.4c2.4-2.6,4.9-7.4,4.9-10.7c0-0.7-0.1-1.4-0.4-1.9c-0.4-0.7-1.1-1.2-1.9-1.3c-2.9-0.3-7.2,4.1-8.4,5.5c0,0-0.7,0.7-0.9,1c-0.1-0.5-0.5-0.9-0.9-1.1    c-0.2-0.1-0.5-0.1-0.7-0.1c0-0.1,0-1.7,0-1.7c0-5.6-2.2-11.6-6.2-11.6c-4.1,0-7.4,6.4-7.4,11.6z M15.8,23.5c0.1,0,0.5,0.2,1.1,0.5c-0.6-0.1-1.1-0.2-1.1-0.2c0-0.1,0-0.1,0.1-0.3z"
       id="path2952" />
    <linearGradient
       id="aigrd11"
       gradientUnits="userSpaceOnUse"
       x1="-154.2046"
       y1="14.582"
       x2="-147.7615"
       y2="13.5857"
       gradientTransform="matrix(-0.9994 -3.400000e-002 -3.400000e-002 0.9994 -127.5091 -1.0452)">
      <stop
         offset="0"
         style="stop-color:#A3D6E2"
         id="stop2954" />
      <stop
         offset="1"
         style="stop-color:#35AECA"
         id="stop2955" />
    </linearGradient>
    <path
       style="fill:url(#aigrd11);stroke:none;"
       d="M25.7,23c-3.1,3.5-7.5,3.2-8.5,1.4c-1-1.8,1.6-4.4,4.8-7.9s7-6.3,8.1-4.5c1,1.8-1.2,7.5-4.3,11z"
       id="path2956" />
    <linearGradient
       id="aigrd12"
       gradientUnits="userSpaceOnUse"
       x1="-134.478"
       y1="9.6455"
       x2="-141.6935"
       y2="19.8042"
       gradientTransform="matrix(-1 0 0 1 -124.667 0)">
      <stop
         offset="0"
         style="stop-color:#3EAACE"
         id="stop2958" />
      <stop
         offset="1"
         style="stop-color:#2E86A1"
         id="stop2959" />
    </linearGradient>
    <path
       style="fill:url(#aigrd12);stroke:none;"
       d="M6.1,13.6c0,4.9,5.2,8.9,8.2,8.9s2.6-4,2.6-8.9c0-4.9-1.8-10.2-4.8-10.2s-6,5.4-6,10.2z"
       id="path2960" />
    <radialGradient
       id="aigrd13"
       cx="23.3354"
       cy="8.9082"
       r="6.9057"
       fx="23.3354"
       fy="8.9082"
       gradientUnits="userSpaceOnUse">
      <stop
         offset="0"
         style="stop-color:#787878"
         id="stop2962" />
      <stop
         offset="1"
         style="stop-color:#313131"
         id="stop2963" />
    </radialGradient>
    <path
       style="fill:url(#aigrd13);stroke:none;"
       d="M19.4,15.9l0.2,0.1c1.9-2.6,7.1-9.2,9-8l0.1-0.2c-2.4-1.7-9,7.6-9.3,8z"
       id="path2964" />
    <radialGradient
       id="aigrd14"
       cx="19.5972"
       cy="5.1641"
       r="8.3226"
       fx="19.5972"
       fy="5.1641"
       gradientUnits="userSpaceOnUse">
      <stop
         offset="0"
         style="stop-color:#787878"
         id="stop2966" />
      <stop
         offset="1"
         style="stop-color:#313131"
         id="stop2967" />
    </radialGradient>
    <path
       style="fill:url(#aigrd14);stroke:none;"
       d="M19.1,3.8c2.2,0.5,0.7,8.8,0,12l0.2,0.1c0.1-0.5,2.7-11.6-0.2-12.3l-0.1,0.2z"
       id="path2968" />
    <linearGradient
       id="aigrd15"
       gradientUnits="userSpaceOnUse"
       x1="-148.1592"
       y1="26.0337"
       x2="-144.4599"
       y2="25.4616"
       gradientTransform="matrix(-0.9994 -3.400000e-002 -3.400000e-002 0.9994 -127.5091 -1.0452)">
      <stop
         offset="0"
         style="stop-color:#3BB1CE"
         id="stop2970" />
      <stop
         offset="1"
         style="stop-color:#37A6C2"
         id="stop2971" />
    </linearGradient>
    <path
       style="fill:url(#aigrd15);stroke:none;"
       d="M16.2,36.8c1-0.3,0.5-4.6,2.3-6.1c1.4-1.1,3-2.3,3.4-3.8c0.8-2.4-1.7-4.3-3.2-4.4s-2.2,2-2.7,3.3c-0.8,2.4-1.6,6.1,0.1,6c0.9-0.1-0.5,5.2,0,5z"
       id="path2972" />
    <linearGradient
       id="aigrd16"
       gradientUnits="userSpaceOnUse"
       x1="-220.8203"
       y1="85.2461"
       x2="-215.2613"
       y2="84.3865"
       gradientTransform="matrix(0.5742 0.8187 -0.8187 0.5742 203.2852 154.5803)">
      <stop
         offset="0"
         style="stop-color:#2C7F9A"
         id="stop2974" />
      <stop
         offset="1"
         style="stop-color:#24667A"
         id="stop2975" />
    </linearGradient>
    <path
       style="fill:url(#aigrd16);stroke:none;"
       d="M2.2,29.2c-0.7-1.3,4.5-2.4,4.3-5.1c-0.1-2-0.4-4.2,0.7-5.3c1.8-1.9,6.3,0,8,1.7s0.1,3.2-0.9,4.3c-1.8,1.9-5.1,4.2-6.6,2.4c-0.8-1-5.1,2.6-5.4,2z"
       id="path2976" />
    <radialGradient
       id="aigrd17"
       cx="-115.9253"
       cy="11.1514"
       r="6.3103"
       fx="-115.9253"
       fy="11.1514"
       gradientTransform="matrix(-1.3608 -0.5505 -0.5505 1.3608 -133.5183 -60.679)"
       gradientUnits="userSpaceOnUse">
      <stop
         offset="0"
         style="stop-color:#787878"
         id="stop2978" />
      <stop
         offset="1"
         style="stop-color:#313131"
         id="stop2979" />
    </radialGradient>
    <path
       style="fill:url(#aigrd17);stroke:none;"
       d="M15,22.6c-1.4,3.5-2.1,6.5-1.6,6.7c0.5,0.2,2.1-2.4,3.5-5.9c1.4-3.5,2.1-6.5,1.6-6.7c-0.5-0.2-2.1,2.4-3.5,5.9z"
       id="path2980" />
    <radialGradient
       id="aigrd18"
       cx="19.0098"
       cy="3.3965"
       r="0.7158"
       fx="19.0098"
       fy="3.3965"
       gradientUnits="userSpaceOnUse">
      <stop
         offset="0"
         style="stop-color:#787878"
         id="stop2982" />
      <stop
         offset="1"
         style="stop-color:#313131"
         id="stop2983" />
    </radialGradient>
    <path
       style="fill:url(#aigrd18);stroke:none;"
       d="M18.6,3.7c0,0.2,0.2,0.4,0.4,0.4c0.2,0,0.4-0.2,0.4-0.4c0-0.2-0.2-0.4-0.4-0.4c-0.2,0-0.4,0.2-0.4,0.4z"
       id="path2984" />
    <radialGradient
       id="aigrd19"
       cx="28.5522"
       cy="7.6436"
       r="0.7154"
       fx="28.5522"
       fy="7.6436"
       gradientUnits="userSpaceOnUse">
      <stop
         offset="0"
         style="stop-color:#787878"
         id="stop2986" />
      <stop
         offset="1"
         style="stop-color:#313131"
         id="stop2987" />
    </radialGradient>
    <path
       style="fill:url(#aigrd19);stroke:none;"
       d="M28.2,8c0,0.2,0.2,0.4,0.4,0.4c0.2,0,0.4-0.2,0.4-0.4s-0.2-0.4-0.4-0.4c-0.2,0-0.4,0.2-0.4,0.4z"
       id="path2988" />
    <path
       style="opacity:0.55;stroke:none;"
       d="M14.6,4.7c0,0-2-2.7-4.5-0.6c-3.4,2.9-4.2,8-3.8,11.1c0.4-8.8,5.2-13.7,8.3-10.5z"
       id="path2989" />
    <path
       style="opacity:0.55;stroke:none;"
       d="M17.8,21.3C22,15.9,28.2,9.4,30,12c-2.3-0.7-6.3,2.7-12.3,9.4z"
       id="path2990" />
    <path
       style="opacity:0.55;stroke:none;"
       d="M18.8,17.3c-0.5-0.8-5,7.6-5.5,11.1c0.8-5.4,4.2-11,4.9-11.6c0.6-0.6,0.6,0.5,0.6,0.5z"
       id="path2991" />
    <path
       style="opacity:0.55;stroke:none;"
       d="M12.9,19c-1.6-1-4.9-1.4-6,0c-1.1,1.4-0.4,4.2-0.4,5.6s-3.9,3.2-4.1,3.8c1.4-1,4-1.9,4.4-3.1s0-4.4,0.8-5.8c0.9-1.4,3.8-1,5.3-0.5z"
       id="path2992" />
  </g>
</svg>
