<?xml version="1.0" encoding="UTF-8" standalone="no"?>
<!DOCTYPE svg PUBLIC "-//W3C//DTD SVG 20010904//EN"
"http://www.w3.org/TR/2001/REC-SVG-20010904/DTD/svg10.dtd">
<!-- Created with Sodipodi ("http://www.sodipodi.com/") -->
<svg
   i:viewOrigin="178 524"
   i:rulerOrigin="-178 -268"
   i:pageBounds="178 524 434 268"
   width="48pt"
   height="48pt"
   viewBox="0 0 256 256"
   style="overflow:visible;enable-background:new 0 0 256 256"
   xml:space="preserve"
   xmlns="http://www.w3.org/2000/svg"
   xmlns:ns="&amp;ns_vars;"
   xmlns:i="&amp;ns_ai;"
   xmlns:xml="http://www.w3.org/XML/1998/namespace"
   xmlns:a="http://ns.adobe.com/AdobeSVGViewerExtensions/3.0/"
   xmlns:sodipodi="http://sodipodi.sourceforge.net/DTD/sodipodi-0.dtd"
   xmlns:xlink="http://www.w3.org/1999/xlink"
   id="svg153"
   sodipodi:version="0.32pre"
   sodipodi:docname="/home/cschalle/gnome-themes-extras/Nuvola/icons/scalable/mimetypes/gnome-mime-text-x-sh.svg"
   sodipodi:docbase="/home/cschalle/gnome-themes-extras/Nuvola/icons/scalable/mimetypes">
  <defs
     id="defs229" />
  <sodipodi:namedview
     id="base" />
  <metadata
     id="metadata154">
    <ns:variableSets>
      <ns:variableSet
         varSetName="binding1"
         locked="none">
        <ns:variables />
        <ns:sampleDataSets />
      </ns:variableSet>
    </ns:variableSets>
  </metadata>
  <g
     id="Layer_3"
     i:layer="yes"
     i:dimmedPercent="50"
     i:rgbTrio="#4F00FFFF4F00"
     style="stroke:#000000;">
    <path
       i:knockout="Off"
       style="opacity:0.2;stroke:none;"
       d="M49,19c-9.374,0-17,7.626-17,17v200c0,9.374,7.626,17,17,17h176c9.374,0,17-7.626,17-17    V36c0-9.374-7.626-17-17-17H49z"
       id="path156" />
    <linearGradient
       id="XMLID_1_"
       gradientUnits="userSpaceOnUse"
       x1="23"
       y1="130"
       x2="233"
       y2="130">
      <stop
         offset="0"
         style="stop-color:#A7ABAC"
         id="stop158" />
      <stop
         offset="1"
         style="stop-color:#85898A"
         id="stop159" />
      <a:midPointStop
         offset="0"
         style="stop-color:#A7ABAC"
         id="midPointStop160" />
      <a:midPointStop
         offset="0.5"
         style="stop-color:#A7ABAC"
         id="midPointStop161" />
      <a:midPointStop
         offset="1"
         style="stop-color:#85898A"
         id="midPointStop162" />
    </linearGradient>
    <path
       i:knockout="Off"
       style="fill:url(#XMLID_1_);stroke:none;"
       d="M40,13c-9.374,0-17,7.626-17,17v200c0,9.374,7.626,17,17,17h176c9.374,0,17-7.626,17-17    V30c0-9.374-7.626-17-17-17H40z"
       id="path163" />
    <path
       i:knockout="Off"
       style="fill:#99CCFF;stroke:none;"
       d="M28,230c0,6.627,5.373,12,12,12h176c6.627,0,12-5.373,12-12V30c0-6.627-5.373-12-12-12    H40c-6.627,0-12,5.373-12,12V230z"
       id="path164" />
    <linearGradient
       id="XMLID_2_"
       gradientUnits="userSpaceOnUse"
       x1="84.5029"
       y1="86.5029"
       x2="321.5015"
       y2="323.5015">
      <stop
         offset="0"
         style="stop-color:#FFFFFF"
         id="stop166" />
      <stop
         offset="1"
         style="stop-color:#99CCFF"
         id="stop167" />
      <a:midPointStop
         offset="0"
         style="stop-color:#FFFFFF"
         id="midPointStop168" />
      <a:midPointStop
         offset="0.5"
         style="stop-color:#FFFFFF"
         id="midPointStop169" />
      <a:midPointStop
         offset="1"
         style="stop-color:#99CCFF"
         id="midPointStop170" />
    </linearGradient>
    <path
       i:knockout="Off"
       style="fill:url(#XMLID_2_);stroke:none;"
       d="M40,23c-3.859,0-7,3.14-7,7v200c0,3.859,3.141,7,7,7h176c3.859,0,7-3.141,7-7V30    c0-3.86-3.141-7-7-7H40z"
       id="path171" />
    <path
       i:knockout="Off"
       style="opacity:0.4;fill:#FFFFFF;stroke:none;"
       d="M163,108c18.593-17.431,40.938-26.006,65-30.265V30c0-6.627-5.373-12-12-12H40    c-6.627,0-12,5.373-12,12v143.268C77.582,177.009,124.478,142.51,163,108z"
       id="path172" />
    <g
       id="g173">
      <path
         i:knockout="Off"
         style="fill:#1B7157;stroke:none;"
         d="M99.993,186.567l13.468,11.597"
         id="path174" />
      <path
         i:knockout="Off"
         style="fill:#0066CC;stroke:none;"
         d="M85.514,58.658c0,0-1.069,2.745-1.112,2.856c-0.062,0.132-3.841,8.224-4.996,10.697     c-3.473,0.317-6.885,0.925-10.203,1.818C66.771,71.936,54.56,61.424,54.56,61.424l-20.437,12.86l-5.856,12.33     c0,0,5.084,10.15,6.659,13.296c-4.498-0.005-17.567-0.021-17.567-0.021l-6.609,13.741l-2.8,19.874c0,0,14.419,5.729,17.183,6.826     c0.455,2.864,1.161,5.713,2.11,8.514c-1.087,1.096-4.153,4.186-4.153,4.186l-5.992,11.881l14.495,18.332     c0,0,13.465-4.918,16.61-6.066c3.569,2.682,7.42,5,11.498,6.921c0.218,2.53,1.457,16.924,1.457,16.924l24.391,4.793l7.139-11.483     c0,0,1.347-3.385,1.686-4.236c3.358-0.357,6.646-0.986,9.828-1.882c2.438,2.099,14.067,12.114,14.067,12.114l18.418-11.592     l8.369-12.782c0,0-5.342-10.664-6.896-13.768c4.724,0.03,16.07,0.103,16.07,0.103l7.789-11.643l3.095-22.005     c0,0-14.716-5.933-17.451-7.036c-0.569-3.531-1.528-7.038-2.86-10.469c1.477-1.896,11.28-13.919,11.28-13.919l-1.415-1.793     l-13.33-16.856c0,0-13.935,5.088-17.085,6.238c-3.41-2.516-7.049-4.69-10.867-6.497c-0.233-2.527-1.593-17.232-1.593-17.232     l-25.281-4.971L85.514,58.658z M86.516,109.208c15.28,3.006,26.991,16.282,26.991,30.428c0,0.019-0.001,0.036-0.001,0.054     c-1.945,3.199-4.664,5.901-7.944,7.809c-5.401,3.139-12.035,4.149-18.68,2.843c-13.931-2.741-24.437-14.651-24.437-27.704     c0-1.111,0.079-2.227,0.232-3.316c0.322-2.289,1.038-4.475,2.037-6.544C70.997,108.949,78.694,107.671,86.516,109.208z"
         id="path175" />
      <linearGradient
         id="XMLID_3_"
         gradientUnits="userSpaceOnUse"
         x1="145.1982"
         y1="187.2295"
         x2="47.6563"
         y2="78.286">
        <stop
           offset="0"
           style="stop-color:#336699"
           id="stop177" />
        <stop
           offset="1"
           style="stop-color:#6699CC"
           id="stop178" />
        <a:midPointStop
           offset="0"
           style="stop-color:#336699"
           id="midPointStop179" />
        <a:midPointStop
           offset="0.5"
           style="stop-color:#336699"
           id="midPointStop180" />
        <a:midPointStop
           offset="1"
           style="stop-color:#6699CC"
           id="midPointStop181" />
      </linearGradient>
      <path
         i:knockout="Off"
         style="fill:url(#XMLID_3_);stroke:none;"
         d="M87.903,61.977c0,0-3.979,10.209-5.024,12.89c-5.049,0.191-9.952,1.033-14.665,2.5     c-2.267-1.95-14.017-12.065-14.017-12.065l-15.799,9.941c0,0,6.736,13.452,7.868,15.713c-3.297,3.56-5.93,7.536-7.894,11.868     c-3.311-0.004-17.896-0.021-17.896-0.021l-2.446,17.355c0,0,14.161,5.627,16.721,6.644c0.614,5.023,2.041,9.965,4.257,14.758     c-1.855,1.87-11.57,11.662-11.57,11.662l11.707,14.799c0,0,13.218-4.826,16.172-5.906c4.267,3.42,8.946,6.257,13.992,8.454     c0.204,2.351,1.421,16.457,1.421,16.457l19.637,3.861c0,0,4.979-12.523,6.032-15.176c5.127-0.2,10.102-1.064,14.871-2.572     c2.262,1.946,13.711,11.802,13.711,11.802l15.799-9.947c0,0-6.612-13.203-7.738-15.449c3.309-3.588,5.939-7.59,7.89-11.943     c3.34,0.021,17.97,0.116,17.97,0.116l2.443-17.363c0,0-14.365-5.791-16.9-6.813c-0.643-5.048-2.102-9.998-4.347-14.785     c1.865-1.882,11.641-11.737,11.641-11.737l-11.703-14.798c0,0-13.474,4.92-16.431,5.999c-4.153-3.284-8.692-6.022-13.571-8.157     c-0.217-2.345-1.54-16.645-1.54-16.645l-19.644-3.863L87.903,61.977z M58.941,122.637c0-1.213,0.084-2.433,0.256-3.654     c1.076-7.636,5.617-14.296,12.459-18.275c6.233-3.623,13.871-4.792,21.503-3.292c17.005,3.345,29.061,18.681,26.875,34.188     c-1.075,7.637-5.619,14.299-12.463,18.277c-6.231,3.622-13.868,4.792-21.498,3.291C70.408,150.09,58.941,136.828,58.941,122.637z     "
         id="path182" />
      <path
         i:knockout="Off"
         style="opacity:0.36;fill:#999999;stroke:none;"
         d="M89.527,66.763c0,0-1.07,2.745-1.113,2.855c-0.062,0.131-3.841,8.224-4.995,10.696     c-3.472,0.318-6.885,0.926-10.203,1.817c-2.431-2.092-14.643-12.604-14.643-12.604l-20.437,12.86L32.28,94.719     c0,0,5.083,10.15,6.659,13.295c-4.497-0.005-17.567-0.021-17.567-0.021l-6.609,13.74l-2.801,19.875c0,0,14.42,5.728,17.183,6.825     c0.455,2.863,1.162,5.714,2.111,8.514c-1.087,1.096-4.153,4.187-4.153,4.187l-5.992,11.881l14.496,18.331     c0,0,13.464-4.918,16.609-6.066c3.569,2.683,7.419,5,11.498,6.922c0.218,2.53,1.458,16.922,1.458,16.922l24.391,4.794     l7.137-11.481c0,0,1.347-3.386,1.686-4.238c3.358-0.357,6.646-0.986,9.828-1.881c2.438,2.1,14.069,12.114,14.069,12.114     l18.417-11.592l8.369-12.783c0,0-5.342-10.664-6.896-13.767c4.724,0.029,16.069,0.104,16.069,0.104l7.789-11.644l3.096-22.005     c0,0-14.716-5.934-17.45-7.036c-0.571-3.531-1.528-7.039-2.862-10.468c1.478-1.896,11.281-13.921,11.281-13.921l-1.415-1.793     L145.35,86.671c0,0-13.934,5.088-17.083,6.238c-3.412-2.516-7.05-4.691-10.869-6.498c-0.233-2.526-1.593-17.231-1.593-17.231     l-25.281-4.972L89.527,66.763z M90.529,117.312c15.281,3.007,26.991,16.283,26.991,30.429c0,0.018,0,0.036,0,0.053     c-1.946,3.199-4.666,5.901-7.945,7.808c-5.402,3.142-12.035,4.15-18.682,2.844c-13.93-2.741-24.434-14.65-24.434-27.705     c0-1.109,0.078-2.226,0.23-3.314c0.323-2.289,1.039-4.476,2.039-6.545C75.011,117.054,82.708,115.775,90.529,117.312z"
         id="path183" />
      <path
         i:knockout="Off"
         style="fill:#2461AA;stroke:none;"
         d="M140.097,108.756c0.304,0.646,0.59,1.297,0.865,1.95l10.271-13.178     C149.214,99.563,141.708,107.13,140.097,108.756z"
         id="path184" />
      <path
         i:knockout="Off"
         style="fill:#336699;stroke:none;"
         d="M81.898,74.92c0.327-0.018,0.652-0.041,0.98-0.053     c0.905-2.322,4.009-10.285,4.824-12.378L81.898,74.92z"
         id="path185" />
      <path
         i:knockout="Off"
         style="fill:#1B7157;stroke:none;"
         d="M38.725,75.039l-0.026-0.001l-0.017,0.027L38.725,75.039z"
         id="path186" />
      <linearGradient
         id="XMLID_4_"
         gradientUnits="userSpaceOnUse"
         x1="61.7793"
         y1="118.6157"
         x2="120.2046"
         y2="118.6157">
        <stop
           offset="0"
           style="stop-color:#0066CC"
           id="stop188" />
        <stop
           offset="1"
           style="stop-color:#99CCFF"
           id="stop189" />
        <a:midPointStop
           offset="0"
           style="stop-color:#0066CC"
           id="midPointStop190" />
        <a:midPointStop
           offset="0.5"
           style="stop-color:#0066CC"
           id="midPointStop191" />
        <a:midPointStop
           offset="1"
           style="stop-color:#99CCFF"
           id="midPointStop192" />
      </linearGradient>
      <path
         i:knockout="Off"
         style="fill:url(#XMLID_4_);stroke:none;"
         d="M120.034,131.604c2.186-15.508-9.87-30.844-26.875-34.188     c-7.632-1.5-15.27-0.331-21.503,3.292c-4.297,2.498-7.684,6.055-9.877,10.244c6.945-4.545,16.042-6.442,25.545-4.574     c17.441,3.431,30.131,18.324,29.676,34.067C118.546,137.743,119.591,134.759,120.034,131.604z"
         id="path193" />
      <path
         i:knockout="Off"
         style="fill:#3399FF;stroke:none;"
         d="M124.035,184.127c-2.758-2.375-10.743-9.248-12.704-10.937     c-2.115,3.838-3.91,7.942-6.089,11.728l12.985,11.182C119.887,191.957,122.309,188.146,124.035,184.127z"
         id="path194" />
      <path
         i:knockout="Off"
         style="fill:#0066CC;stroke:none;"
         d="M111.27,173.139c-4.77,1.508-9.744,2.372-14.871,2.572     c-0.696,1.75-3.101,7.802-4.656,11.712c4.673-0.316,9.178-1.189,13.421-2.572l0.079,0.067c2.179-3.785,3.974-7.89,6.089-11.728     C111.313,173.174,111.287,173.152,111.27,173.139z"
         id="path195" />
      <path
         i:knockout="Off"
         style="fill:#0066CC;stroke:none;"
         d="M140.462,175.192c0,0-15.837,9.442-16.427,8.935c-1.727,4.019-4.148,7.83-5.808,11.973     l0.404,0.348l15.25-9.599l6.599-11.646C140.475,175.2,140.468,175.196,140.462,175.192z"
         id="path196" />
      <path
         i:knockout="Off"
         style="fill:#0066CC;stroke:none;"
         d="M70.729,187.025c0,0-0.016-0.181-0.042-0.49c-2.092,3.821-4.184,7.643-6.276,11.463     l0.059,0.684l19.117,3.756l6.571-11.594L70.729,187.025z"
         id="path197" />
      <path
         i:knockout="Off"
         style="fill:#336699;stroke:none;"
         d="M39.145,168.021l-0.074-0.094c-2.344,3.718-4.891,7.485-6.226,11.598l0.05,0.063     l15.894-5.805c1.535-3.769,3.336-7.419,4.963-11.097C49.233,164.336,39.145,168.021,39.145,168.021z"
         id="path198" />
      <path
         i:knockout="Off"
         style="fill:#0066CC;stroke:none;"
         d="M27.527,153.334l-6.425,11.341l11.742,14.85c1.335-4.112,3.882-7.88,6.226-11.598     L27.527,153.334z"
         id="path199" />
      <path
         i:knockout="Off"
         style="fill:#0066CC;stroke:none;"
         d="M69.309,170.568c-5.046-2.197-9.726-5.034-13.992-8.454     c-0.374,0.137-0.912,0.332-1.565,0.572c-1.627,3.678-3.428,7.328-4.963,11.097l0.082-0.03c4.132,3.334,8.761,6.172,13.78,8.404     c2.83-3.18,4.94-6.57,6.781-10.171C69.377,171.36,69.335,170.867,69.309,170.568z"
         id="path200" />
      <path
         i:knockout="Off"
         style="fill:#3399FF;stroke:none;"
         d="M62.65,182.157c0.139,0.062,0.273,0.127,0.413,0.188l1.348,15.652     c2.093-3.82,4.185-7.642,6.276-11.463c-0.184-2.134-0.933-10.799-1.256-14.549C67.591,175.587,65.48,178.978,62.65,182.157z"
         id="path201" />
      <path
         i:knockout="Off"
         style="fill:#99CCFF;stroke:none;"
         d="M46.267,90.956c-1.057-2.112-7.004-13.988-7.782-15.542l-6.386,11.272l7.162,14.302     C41.107,97.364,43.441,94.006,46.267,90.956z"
         id="path202" />
      <path
         i:knockout="Off"
         style="fill:#336699;stroke:none;"
         d="M140.931,147.601c-1.95,4.354-4.581,8.355-7.89,11.943     c0.161,0.32,0.438,0.874,0.787,1.573c0.086-0.677,0.243-1.307,0.489-1.866l17.695,0.112l6.601-11.648     C156.582,147.702,143.998,147.62,140.931,147.601z"
         id="path203" />
      <path
         i:knockout="Off"
         style="fill:#0000CC;stroke:none;"
         d="M34.751,126.802c-2.316-0.921-14.142-5.619-16.36-6.501     c-2.28,3.054-4.534,6.151-6.373,9.375l-0.298,2.102l16.453,6.534c1.995-3.477,4.527-6.729,6.78-10.097     C34.882,127.744,34.809,127.274,34.751,126.802z"
         id="path204" />
      <path
         i:knockout="Off"
         style="fill:#0066CC;stroke:none;"
         d="M18.03,120.158l2.316-16.436c-0.005,0.001-0.01,0.001-0.015,0.002l-6.17,10.724     l-2.145,15.228c1.839-3.224,4.093-6.321,6.373-9.375C18.159,120.209,18.03,120.158,18.03,120.158z"
         id="path205" />
      <path
         i:knockout="Off"
         style="fill:#0066CC;stroke:none;"
         d="M34.953,128.215c-2.253,3.368-4.785,6.62-6.78,10.097l0.189,0.076     c0.474,3.801,1.406,7.528,2.75,11.13c2.959-2.982,6.799-6.854,7.896-7.958C37,137.217,35.647,132.752,34.953,128.215z"
         id="path206" />
      <linearGradient
         id="XMLID_5_"
         gradientUnits="userSpaceOnUse"
         x1="129.0381"
         y1="175.6572"
         x2="65.0208"
         y2="93.6487">
        <stop
           offset="0"
           style="stop-color:#3399FF"
           id="stop208" />
        <stop
           offset="1"
           style="stop-color:#99CCFF"
           id="stop209" />
        <a:midPointStop
           offset="0"
           style="stop-color:#3399FF"
           id="midPointStop210" />
        <a:midPointStop
           offset="0.5"
           style="stop-color:#3399FF"
           id="midPointStop211" />
        <a:midPointStop
           offset="1"
           style="stop-color:#99CCFF"
           id="midPointStop212" />
      </linearGradient>
      <path
         i:knockout="Off"
         style="fill:url(#XMLID_5_);stroke:none;"
         d="M155.944,144.938l1.824-12.957l-16.322-6.58c-0.547-5.987-2.309-11.814-5.076-17.23     l11.245-11.336l-8.816-11.146l-15.771,5.758c-4.721-4.017-10.174-7.354-16.18-9.763l-1.484-16.044l-14.295-2.811L85.37,77.439     c-6.397-0.029-12.521,1.049-18.132,3.064L53.854,68.983l-11.398,7.172l7.565,15.108c-4.081,4.058-7.33,8.885-9.481,14.324     l-17.105-0.021l-1.825,12.954l16.148,6.416c0.514,5.979,2.243,11.797,4.972,17.214l-11.166,11.257l8.817,11.147l15.521-5.668     c4.82,4.157,10.419,7.603,16.602,10.065l1.368,15.854l14.294,2.809l5.751-14.471c6.471,0.024,12.663-1.083,18.323-3.15     l13.085,11.267l11.398-7.177l-7.435-14.843c4.088-4.083,7.34-8.94,9.474-14.415L155.944,144.938z M85.308,155.857     c-18.595-3.658-31.788-20.34-29.413-37.196c2.374-16.851,19.436-27.589,38.031-23.932c18.592,3.656,31.786,20.341,29.411,37.192     C120.961,148.775,103.902,159.515,85.308,155.857z"
         id="path213" />
      <linearGradient
         id="XMLID_6_"
         gradientUnits="userSpaceOnUse"
         x1="104.7817"
         y1="142.7949"
         x2="63.6561"
         y2="101.6693">
        <stop
           offset="0"
           style="stop-color:#3399FF"
           id="stop215" />
        <stop
           offset="1"
           style="stop-color:#FFFFFF"
           id="stop216" />
        <a:midPointStop
           offset="0"
           style="stop-color:#3399FF"
           id="midPointStop217" />
        <a:midPointStop
           offset="0.5"
           style="stop-color:#3399FF"
           id="midPointStop218" />
        <a:midPointStop
           offset="1"
           style="stop-color:#FFFFFF"
           id="midPointStop219" />
      </linearGradient>
      <path
         i:knockout="Off"
         style="opacity:0.8;fill:url(#XMLID_6_);stroke:none;"
         d="M69.858,149.069c-9.835-7.245-15.602-18.784-13.964-30.408     c2.374-16.851,19.436-27.589,38.031-23.932c9.585,1.885,17.729,7.238,23.05,14.287c7.332-6.548,13.254-14.051,18.188-22.002     l-12.136,4.431c-4.721-4.017-10.174-7.354-16.18-9.763l-1.484-16.044l-14.295-2.811L85.37,77.439     c-6.397-0.029-12.521,1.049-18.132,3.064L53.854,68.983l-11.398,7.172l7.565,15.108c-4.081,4.058-7.33,8.885-9.481,14.324     l-17.105-0.021l-1.825,12.954l16.148,6.416c0.514,5.979,2.243,11.797,4.972,17.214l-11.166,11.257l8.817,11.147l15.521-5.668     c3.594,3.099,7.621,5.801,11.999,7.997C67.807,160.727,68.313,154.676,69.858,149.069z"
         id="path220" />
      <path
         i:knockout="Off"
         style="fill:#FFFFFF;stroke:none;"
         d="M50.021,91.263l-7.565-15.108l9.402-5.916l-0.107-0.092l-11.397,7.172l7.566,15.107     c-3.786,3.766-6.844,8.197-8.984,13.159l1.604,0.002C42.69,100.147,45.939,95.32,50.021,91.263z"
         id="path221" />
      <path
         i:knockout="Off"
         style="fill:#FFFFFF;stroke:none;"
         d="M72.503,168.952c-6.183-2.463-11.781-5.908-16.602-10.065l-15.521,5.668l-8.817-11.147     l11.166-11.257c-2.729-5.417-4.458-11.235-4.972-17.214l-16.148-6.416l1.661-11.788l-1.939-0.002l-1.824,12.953l16.148,6.417     c0.513,5.979,2.243,11.796,4.972,17.214l-11.167,11.257l8.818,11.146l15.521-5.667c4.82,4.156,10.42,7.603,16.601,10.065     l1.369,15.854l14.295,2.81l0.581-1.463l-12.773-2.511L72.503,168.952z"
         id="path222" />
      <path
         i:knockout="Off"
         style="fill:#FFFFFF;stroke:none;"
         d="M93.926,94.729c-9.053-1.78-17.735-0.142-24.543,3.945     c6.45-3.224,14.298-4.383,22.44-2.781c18.592,3.655,31.786,20.342,29.411,37.193c-1.22,8.65-6.314,15.683-13.492,19.991     c8.282-4.138,14.258-11.68,15.595-21.156C125.712,115.07,112.518,98.386,93.926,94.729z"
         id="path223" />
      <path
         i:knockout="Off"
         style="fill:#FFFFFF;stroke:none;"
         d="M93.916,173.145l-0.45,1.134c5.871-0.154,11.495-1.229,16.67-3.12l13.086,11.267     l1.994-1.257l-12.977-11.174C106.579,172.062,100.387,173.169,93.916,173.145z"
         id="path224" />
      <path
         i:knockout="Off"
         style="fill:#FFFFFF;stroke:none;"
         d="M138.268,145.999l15.574,0.102l0.166-1.177l-15.246-0.098     C138.605,145.223,138.435,145.609,138.268,145.999z"
         id="path225" />
    </g>
  </g>
  <g
     id="Layer_2"
     i:layer="yes"
     i:editable="no"
     i:dimmedPercent="50"
     i:rgbTrio="#FFFF4F004F00"
     style="stroke:#000000;">
    <path
       i:knockout="Off"
       style="fill:none;stroke:none;"
       d="M256,256H0V0h256V256z"
       id="path227" />
  </g>
</svg>
