<?xml version="1.0" encoding="UTF-8" standalone="no"?>
<!DOCTYPE svg PUBLIC "-//W3C//DTD SVG 20010904//EN"
"http://www.w3.org/TR/2001/REC-SVG-20010904/DTD/svg10.dtd">
<!-- Created with Sodipodi ("http://www.sodipodi.com/") -->
<svg
   width="58pt"
   height="48pt"
   viewBox="0 0 66.133 48.371"
   overflow="visible"
   enable-background="new 0 0 66.133 48.371"
   xml:space="preserve"
   id="svg153"
   sodipodi:version="0.32pre"
   sodipodi:docname="/home/cschalle/gnome-themes-extras/Wasp/icons/scalable/mimetypes/gnome-mime-application-vnd.sun.xml.writer.svg"
   sodipodi:docbase="/home/cschalle/gnome-themes-extras/Wasp/icons/scalable/mimetypes/"
   xmlns="http://www.w3.org/2000/svg"
   xmlns:sodipodi="http://sodipodi.sourceforge.net/DTD/sodipodi-0.dtd"
   xmlns:xml="http://www.w3.org/XML/1998/namespace"
   xmlns:xlink="http://www.w3.org/1999/xlink">
  <defs
     id="defs200" />
  <sodipodi:namedview
     id="base" />
  <metadata
     id="metadata154">
    <sfw>
      <slices />
      <sliceSourceBounds
         y="395.314"
         x="263.433"
         width="66.133"
         height="48.371"
         bottomLeftOrigin="true" />
    </sfw>
  </metadata>
  <g
     id="Layer_1"
     stroke="#000000"
     transform="translate(0,1.90735e-06)">
    <g
       id="Layer_1_2_">
      <g
         id="g157">
        <linearGradient
           id="XMLID_1_"
           gradientUnits="userSpaceOnUse"
           x1="-375.4331"
           y1="104.5449"
           x2="-356.3073"
           y2="73.1708"
           gradientTransform="matrix(0.4828 0.721 0.7677 -0.514 140.0518 339.5116)">
          <stop
             offset="0"
             style="stop-color:#FDFEED"
             id="stop159" />
          <stop
             offset="1"
             style="stop-color:#FFF24B"
             id="stop160" />
        </linearGradient>
        <path
           fill="url(#XMLID_1_)"
           stroke="none"
           d="M22.404,44.751L5.074,24.075l29.248-13.037l25.701,21.264L22.404,44.751z"
           id="path164" />
      </g>
      <path
         stroke="none"
         d="M1.69,23.299l20.231,23.972l41.486-14.191L34.804,8.516L1.69,23.299z"
         id="path165" />
      <g
         id="g166">
        <linearGradient
           id="XMLID_2_"
           gradientUnits="userSpaceOnUse"
           x1="-375.4331"
           y1="104.5449"
           x2="-356.3073"
           y2="73.1708"
           gradientTransform="matrix(0.4828 0.721 0.7677 -0.514 140.0518 339.5116)">
          <stop
             offset="0.0056"
             style="stop-color:#D9D8FF"
             id="stop168" />
          <stop
             offset="0.514"
             style="stop-color:#FDFEED"
             id="stop169" />
          <stop
             offset="1"
             style="stop-color:#9A99CD"
             id="stop170" />
        </linearGradient>
        <path
           fill="url(#XMLID_2_)"
           stroke="none"
           d="M22.404,44.751L5.074,24.075l29.248-13.037l25.701,21.264L22.404,44.751z"
           id="path176" />
      </g>
      <g
         id="g177">
        <linearGradient
           id="XMLID_3_"
           gradientUnits="userSpaceOnUse"
           x1="-313.0947"
           y1="225.8115"
           x2="-292.3098"
           y2="191.7158"
           gradientTransform="matrix(0.702 0.51 0.543 -0.7475 130.3028 333.4989)">
          <stop
             offset="0"
             style="stop-color:#FDFEED"
             id="stop179" />
          <stop
             offset="1"
             style="stop-color:#FFF24B"
             id="stop180" />
        </linearGradient>
        <path
           fill="url(#XMLID_3_)"
           stroke="none"
           d="M38.013,42.094L3.422,23.729L24.475,2.548l34.592,18.365L38.013,42.094z"
           id="path184" />
      </g>
      <path
         stroke="none"
         d="M0,24.278l38.356,20.365l24.133-24.28L24.134,0L0,24.278z"
         id="path185" />
      <g
         id="g186">
        <linearGradient
           id="XMLID_4_"
           gradientUnits="userSpaceOnUse"
           x1="-200.6094"
           y1="423.3213"
           x2="-202.1694"
           y2="387.4401"
           gradientTransform="matrix(1 0 0 -1 232.9102 421.3594)">
          <stop
             offset="0.0056"
             style="stop-color:#D9D8FF"
             id="stop188" />
          <stop
             offset="0.514"
             style="stop-color:#FDFEED"
             id="stop189" />
          <stop
             offset="1"
             style="stop-color:#9A99CD"
             id="stop190" />
        </linearGradient>
        <path
           fill="url(#XMLID_4_)"
           stroke="none"
           d="M38.013,42.094L3.422,23.729L24.475,2.548l34.592,18.365L38.013,42.094z"
           id="path196" />
      </g>
      <path
         adobe-blending-mode="multiply"
         opacity="0.2"
         stroke="none"
         d="M1.954,24.939l27.714,18.106l-7.746,4.225l11.636-1.03     l6.32,2.131l6.807-7.987l19.448-6.391l-6.32-6.923l5.349-3.727l-5.523-1.63l-4.688,5.358l5.349,3.728l-17.018,6.922l-5.269,4.373     L1.954,24.939z"
         id="path197" />
      <path
         adobe-blending-mode="multiply"
         opacity="0.2"
         stroke="none"
         d="M56.563,28.922l-5.359,5.533l-5.755,2.439l9.373-10.063     L56.563,28.922z"
         id="path198" />
    </g>
  </g>
  <g
     id="g273"
     transform="matrix(0.435991,0,0,0.581432,5.44262,-17.4677)">
    <g
       id="g181"
       style="font-size:12;stroke:#000000;">
      <linearGradient
         id="linearGradient294"
         gradientUnits="userSpaceOnUse"
         x1="46.2529"
         y1="37.2153"
         x2="79.4787"
         y2="70.4411">
        <stop
           offset="0"
           style="stop-color:#FFFFFF"
           id="stop183" />
        <stop
           offset="1"
           style="stop-color:#000000"
           id="stop184" />
        <a:midPointStop
           offset="0"
           style="stop-color:#FFFFFF"
           id="midPointStop185" />
        <a:midPointStop
           offset="0.5"
           style="stop-color:#FFFFFF"
           id="midPointStop186" />
        <a:midPointStop
           offset="1"
           style="stop-color:#000000"
           id="midPointStop187" />
      </linearGradient>
      <path
         i:knockout="Off"
         fill="url(#XMLID_3_)"
         stroke="none"
         d="M71.126,55.447c0,0,21.616-25.488,44.604-21.259      c0,0-11.412,2.683-22.59,8.939C81.961,49.383,74.645,61.71,74.645,61.71C65.258,57.131,10,73.467,10,73.467      S43.361,53.408,71.126,55.447z"
         id="path188" />
      <path
         i:knockout="Off"
         fill="none"
         d="M71.126,55.447c0,0,21.616-25.488,44.604-21.259c0,0-11.412,2.683-22.59,8.939      C81.961,49.383,74.645,61.71,74.645,61.71C65.258,57.131,10,73.467,10,73.467S43.361,53.408,71.126,55.447z"
         id="path189" />
    </g>
    <g
       id="g192"
       style="font-size:12;stroke:#000000;">
      <linearGradient
         id="linearGradient303"
         gradientUnits="userSpaceOnUse"
         x1="73.2964"
         y1="57.875"
         x2="97.7613"
         y2="82.3399">
        <stop
           offset="0"
           style="stop-color:#FFFFFF"
           id="stop194" />
        <stop
           offset="1"
           style="stop-color:#000000"
           id="stop195" />
        <a:midPointStop
           offset="0"
           style="stop-color:#FFFFFF"
           id="midPointStop196" />
        <a:midPointStop
           offset="0.5"
           style="stop-color:#FFFFFF"
           id="midPointStop197" />
        <a:midPointStop
           offset="1"
           style="stop-color:#000000"
           id="midPointStop198" />
      </linearGradient>
      <path
         i:knockout="Off"
         fill="url(#XMLID_4_)"
         stroke="none"
         d="M91.611,71.3c0,0,15.934-19.585,32.844-15.654      c0,0-7.006,2.76-15.236,7.366c-8.232,4.606-15.016,12.899-15.016,12.899c-5.068-3.485-47.601,8.657-47.601,8.657      S70.515,68.241,91.611,71.3z"
         id="path199" />
      <path
         i:knockout="Off"
         fill="none"
         d="M91.611,71.3c0,0,15.934-19.585,32.844-15.654c0,0-7.006,2.76-15.236,7.366      c-8.232,4.606-15.016,12.899-15.016,12.899c-5.068-3.485-47.601,8.657-47.601,8.657S70.515,68.241,91.611,71.3z"
         id="path200" />
    </g>
  </g>
</svg>
