<?xml version="1.0" encoding="UTF-8" standalone="no"?>
<!DOCTYPE svg PUBLIC "-//W3C//DTD SVG 20010904//EN"
"http://www.w3.org/TR/2001/REC-SVG-20010904/DTD/svg10.dtd">
<!-- Created with Sodipodi ("http://www.sodipodi.com/") -->
<svg
   width="58pt"
   height="48pt"
   viewBox="0 0 66.133 48.371"
   overflow="visible"
   enable-background="new 0 0 66.133 48.371"
   xml:space="preserve"
   id="svg153"
   sodipodi:version="0.32pre"
   sodipodi:docname="/home/cschalle/gnome-themes-extras/Wasp/icons/scalable/mimetypes/gnome-mime-application-vnd.sun.xml.writer.svg"
   sodipodi:docbase="/home/cschalle/gnome-themes-extras/Wasp/icons/scalable/mimetypes"
   xmlns="http://www.w3.org/2000/svg"
   xmlns:sodipodi="http://sodipodi.sourceforge.net/DTD/sodipodi-0.dtd"
   xmlns:xml="http://www.w3.org/XML/1998/namespace"
   xmlns:a="http://ns.adobe.com/AdobeSVGViewerExtensions/3.0/"
   xmlns:xlink="http://www.w3.org/1999/xlink">
  <defs
     id="defs200" />
  <sodipodi:namedview
     id="base" />
  <metadata
     id="metadata154">
    <sfw>
      <slices />
      <sliceSourceBounds
         y="395.314"
         x="263.433"
         width="66.133"
         height="48.371"
         bottomLeftOrigin="true" />
    </sfw>
  </metadata>
  <g
     id="Layer_1"
     stroke="#000000"
     transform="translate(0,1.90735e-06)">
    <g
       id="Layer_1_2_">
      <g
         id="g157">
        <linearGradient
           id="XMLID_1_"
           gradientUnits="userSpaceOnUse"
           x1="-375.4331"
           y1="104.5449"
           x2="-356.3073"
           y2="73.1708"
           gradientTransform="matrix(0.4828 0.721 0.7677 -0.514 140.0518 339.5116)">
          <stop
             offset="0"
             style="stop-color:#FDFEED"
             id="stop159" />
          <stop
             offset="1"
             style="stop-color:#FFF24B"
             id="stop160" />
          <a:midPointStop
             offset="0"
             style="stop-color:#FDFEED"
             id="midPointStop161" />
          <a:midPointStop
             offset="0.5"
             style="stop-color:#FDFEED"
             id="midPointStop162" />
          <a:midPointStop
             offset="1"
             style="stop-color:#FFF24B"
             id="midPointStop163" />
        </linearGradient>
        <path
           fill="url(#XMLID_1_)"
           stroke="none"
           d="M22.404,44.751L5.074,24.075l29.248-13.037l25.701,21.264L22.404,44.751z"
           id="path164" />
      </g>
      <path
         stroke="none"
         d="M1.69,23.299l20.231,23.972l41.486-14.191L34.804,8.516L1.69,23.299z"
         id="path165" />
      <g
         id="g166">
        <linearGradient
           id="XMLID_2_"
           gradientUnits="userSpaceOnUse"
           x1="-375.4331"
           y1="104.5449"
           x2="-356.3073"
           y2="73.1708"
           gradientTransform="matrix(0.4828 0.721 0.7677 -0.514 140.0518 339.5116)">
          <stop
             offset="0.0056"
             style="stop-color:#D9D8FF"
             id="stop168" />
          <stop
             offset="0.514"
             style="stop-color:#FDFEED"
             id="stop169" />
          <stop
             offset="1"
             style="stop-color:#9A99CD"
             id="stop170" />
          <a:midPointStop
             offset="0.0056"
             style="stop-color:#D9D8FF"
             id="midPointStop171" />
          <a:midPointStop
             offset="0.5"
             style="stop-color:#D9D8FF"
             id="midPointStop172" />
          <a:midPointStop
             offset="0.514"
             style="stop-color:#FDFEED"
             id="midPointStop173" />
          <a:midPointStop
             offset="0.5"
             style="stop-color:#FDFEED"
             id="midPointStop174" />
          <a:midPointStop
             offset="1"
             style="stop-color:#9A99CD"
             id="midPointStop175" />
        </linearGradient>
        <path
           fill="url(#XMLID_2_)"
           stroke="none"
           d="M22.404,44.751L5.074,24.075l29.248-13.037l25.701,21.264L22.404,44.751z"
           id="path176" />
      </g>
      <g
         id="g177">
        <linearGradient
           id="XMLID_3_"
           gradientUnits="userSpaceOnUse"
           x1="-313.0947"
           y1="225.8115"
           x2="-292.3098"
           y2="191.7158"
           gradientTransform="matrix(0.702 0.51 0.543 -0.7475 130.3028 333.4989)">
          <stop
             offset="0"
             style="stop-color:#FDFEED"
             id="stop179" />
          <stop
             offset="1"
             style="stop-color:#FFF24B"
             id="stop180" />
          <a:midPointStop
             offset="0"
             style="stop-color:#FDFEED"
             id="midPointStop181" />
          <a:midPointStop
             offset="0.5"
             style="stop-color:#FDFEED"
             id="midPointStop182" />
          <a:midPointStop
             offset="1"
             style="stop-color:#FFF24B"
             id="midPointStop183" />
        </linearGradient>
        <path
           fill="url(#XMLID_3_)"
           stroke="none"
           d="M38.013,42.094L3.422,23.729L24.475,2.548l34.592,18.365L38.013,42.094z"
           id="path184" />
      </g>
      <path
         stroke="none"
         d="M0,24.278l38.356,20.365l24.133-24.28L24.134,0L0,24.278z"
         id="path185" />
      <g
         id="g186">
        <linearGradient
           id="XMLID_4_"
           gradientUnits="userSpaceOnUse"
           x1="-200.6094"
           y1="423.3213"
           x2="-202.1694"
           y2="387.4401"
           gradientTransform="matrix(1 0 0 -1 232.9102 421.3594)">
          <stop
             offset="0.0056"
             style="stop-color:#D9D8FF"
             id="stop188" />
          <stop
             offset="0.514"
             style="stop-color:#FDFEED"
             id="stop189" />
          <stop
             offset="1"
             style="stop-color:#9A99CD"
             id="stop190" />
          <a:midPointStop
             offset="0.0056"
             style="stop-color:#D9D8FF"
             id="midPointStop191" />
          <a:midPointStop
             offset="0.5"
             style="stop-color:#D9D8FF"
             id="midPointStop192" />
          <a:midPointStop
             offset="0.514"
             style="stop-color:#FDFEED"
             id="midPointStop193" />
          <a:midPointStop
             offset="0.5"
             style="stop-color:#FDFEED"
             id="midPointStop194" />
          <a:midPointStop
             offset="1"
             style="stop-color:#9A99CD"
             id="midPointStop195" />
        </linearGradient>
        <path
           fill="url(#XMLID_4_)"
           stroke="none"
           d="M38.013,42.094L3.422,23.729L24.475,2.548l34.592,18.365L38.013,42.094z"
           id="path196" />
      </g>
      <path
         a:adobe-blending-mode="multiply"
         opacity="0.2"
         stroke="none"
         d="M1.954,24.939l27.714,18.106l-7.746,4.225l11.636-1.03     l6.32,2.131l6.807-7.987l19.448-6.391l-6.32-6.923l5.349-3.727l-5.523-1.63l-4.688,5.358l5.349,3.728l-17.018,6.922l-5.269,4.373     L1.954,24.939z"
         id="path197" />
      <path
         a:adobe-blending-mode="multiply"
         opacity="0.2"
         stroke="none"
         d="M56.563,28.922l-5.359,5.533l-5.755,2.439l9.373-10.063     L56.563,28.922z"
         id="path198" />
    </g>
  </g>
  <g
     id="Layer_x0020_1"
     style="fill-rule:nonzero;clip-rule:nonzero;stroke:#FFFFFF;stroke-width:0;stroke-miterlimit:4;"
     transform="matrix(0.0927443,-0.123238,0.152967,0.0925602,7.59149,21.4257)">
    <path
       style="fill:none;stroke:none;fill-rule:evenodd;"
       d="M144,144H0V0h144v144z"
       id="path152" />
    <path
       style="fill:none;stroke:none;fill-rule:evenodd;"
       d="M144,144H0V0h144v144z"
       id="path153" />
    <g
       style="stroke:none;"
       id="g154">
      <path
         style="opacity:0.21;fill-rule:evenodd;"
         d="M143.695,41.092h-4h-26.419c7.347-7.07,20.891-12.616,27.228-14.631l-0.518-5.834c-1.258-0.165-29.938-3.669-41.753,15.161c-11.683-2.71-20.449,0.454-26.807,5.304H6.945v72.935h9.33c-2.886,6.814-3.791,12.175-3.815,12.331l-1.693,10.866     l6.978-8.502c0.139-0.169,6.316-7.603,15.074-14.695h110.877V41.092z"
         id="path155" />
      <linearGradient
         id="aigrd1"
         gradientUnits="userSpaceOnUse"
         x1="19.5088"
         y1="34.4512"
         x2="102.9868"
         y2="97.0596">
        <stop
           offset="0"
           style="stop-color:#E1FFFF"
           id="stop157" />
        <stop
           offset="1"
           style="stop-color:#0081FF"
           id="stop158" />
      </linearGradient>
      <path
         style="fill:url(#aigrd1);fill-rule:evenodd;"
         d="M134.695,36.092H1.945v72.935h136.75V36.092h-4z"
         id="path159" />
      <linearGradient
         id="aigrd2"
         gradientUnits="userSpaceOnUse"
         x1="70.3208"
         y1="94.6738"
         x2="70.3208"
         y2="54.1738">
        <stop
           offset="0"
           style="stop-color:#74C0FF"
           id="stop161" />
        <stop
           offset="0.3617"
           style="stop-color:#3163D2"
           id="stop162" />
        <stop
           offset="0.6292"
           style="stop-color:#001EB1"
           id="stop163" />
        <stop
           offset="0.9888"
           style="stop-color:#00006A"
           id="stop164" />
      </linearGradient>
      <path
         style="opacity:0.91;fill:url(#aigrd2);fill-rule:evenodd;"
         d="M134.695,105.027H5.945V40.092h128.75v64.935z"
         id="path290" />
      <linearGradient
         id="aigrd3"
         gradientUnits="userSpaceOnUse"
         x1="70.3203"
         y1="41.1768"
         x2="70.3203"
         y2="70.8993">
        <stop
           offset="0"
           style="stop-color:#E1FFFF"
           id="stop167" />
        <stop
           offset="1"
           style="stop-color:#0081FF"
           id="stop293" />
      </linearGradient>
      <path
         style="fill:url(#aigrd3);fill-rule:evenodd;"
         d="M7.945,42.092c0,1.666,0,26.227,0,27.892c3.815,0,120.935,0,124.75,0c0-1.665,0-26.226,0-27.892c-3.815,0-120.935,0-124.75,0z"
         id="path169" />
      <linearGradient
         id="aigrd4"
         gradientUnits="userSpaceOnUse"
         x1="45.9717"
         y1="79.3252"
         x2="73.7974"
         y2="109.7598">
        <stop
           offset="0"
           style="stop-color:#E1FFFF"
           id="stop171" />
        <stop
           offset="1"
           style="stop-color:#0081FF"
           id="stop172" />
      </linearGradient>
      <path
         style="fill:url(#aigrd4);fill-rule:evenodd;"
         d="M56.027,80.084C14.9,77.229,7.53,120.907,7.459,121.358l-1.693,10.866l6.978-8.502c0.314-0.383,31.656-38.104,53.769-24.535l5.547,3.404l-1.015-6.429c-2.476-15.682,26.71-34.577,38.165-40.534l-1.507-5.66     c-1.709,0.07-40.882,2.087-51.676,30.114z"
         id="path173" />
      <path
         d="M10.424,121.82c0,0,33.027-40.304,57.658-25.189c-3.359-21.272,39.745-43.664,39.745-43.664s-40.864,1.679-49.821,30.228c-40.864-4.478-47.582,38.625-47.582,38.625z"
         id="path174"
         style="fill-rule:evenodd;" />
      <linearGradient
         id="aigrd5"
         gradientUnits="userSpaceOnUse"
         x1="54.7944"
         y1="88.873"
         x2="49.2944"
         y2="75.873">
        <stop
           offset="0"
           style="stop-color:#FFFFFF"
           id="stop176" />
        <stop
           offset="1"
           style="stop-color:#000000"
           id="stop177" />
      </linearGradient>
      <path
         style="opacity:0.79;fill:url(#aigrd5);fill-rule:evenodd;"
         d="M59.822,81.893l-0.984,3.137l-3.268-0.357c-20.604-2.258-31.619,8.755-37.359,19.068c11.298-9.841,28.304-20.757,44.058-15.687c2-11.152,12.623-21.553,22.729-29.133c-10.282,3.732-21.273,10.534-25.175,22.972z"
         id="path178" />
      <linearGradient
         id="aigrd6"
         gradientUnits="userSpaceOnUse"
         x1="80.0342"
         y1="25.1514"
         x2="106.1211"
         y2="59.0645">
        <stop
           offset="0"
           style="stop-color:#E1FFFF"
           id="stop305" />
        <stop
           offset="1"
           style="stop-color:#0081FF"
           id="stop181" />
      </linearGradient>
      <path
         style="fill:url(#aigrd6);fill-rule:evenodd;"
         d="M93.233,30.788C63.506,23.892,52.59,54.98,52.48,55.303l-3.523,10.411l8.325-7.178c0.271-0.233,27.222-23.191,41.021-11.032l4.884,4.303l0.1-6.508c0.17-11.206,23.314-21.007,32.218-23.837l-0.518-5.834     c-1.258-0.165-29.938-3.669-41.753,15.161z"
         id="path182" />
      <path
         d="M55.322,56.265c0,0,29.015-25.065,44.964-11.012c0.241-15.842,34.31-26.651,34.31-26.651s-29.835-3.923-39.92,15.646c-29.063-8.388-39.354,22.017-39.354,22.017z"
         id="path183"
         style="fill-rule:evenodd;" />
      <linearGradient
         id="aigrd7"
         gradientUnits="userSpaceOnUse"
         x1="92.1279"
         y1="37.4507"
         x2="90.1279"
         y2="28.9507">
        <stop
           offset="0"
           style="stop-color:#FFFFFF"
           id="stop185" />
        <stop
           offset="1"
           style="stop-color:#000000"
           id="stop186" />
      </linearGradient>
      <path
         style="opacity:0.8;fill:url(#aigrd7);fill-rule:evenodd;"
         d="M96.843,33.622l-1.13,2.191l-2.369-0.684c-14.443-4.168-23.743,2.206-29.22,8.86c9.426-5.664,22.969-11.26,33.668-5.66c2.842-7.745,11.625-13.891,19.824-18.11c-7.824,1.449-16.45,5.014-20.773,13.402z"
         id="path187" />
    </g>
  </g>
</svg>
