<?xml version="1.0" encoding="UTF-8" standalone="no"?>
<!DOCTYPE svg PUBLIC "-//W3C//DTD SVG 20010904//EN"
"http://www.w3.org/TR/2001/REC-SVG-20010904/DTD/svg10.dtd">
<!-- Created with Sodipodi ("http://www.sodipodi.com/") -->
<svg
   width="48pt"
   height="48pt"
   viewBox="0 0 251.5 251.5"
   style="overflow:visible;enable-background:new 0 0 251.5 251.5"
   xml:space="preserve"
   id="svg1051"
   sodipodi:version="0.32pre"
   sodipodi:docname="/home/cschalle/gnome-themes-extras/Nuvola/icons/scalable/filesystems/gnome-fs-bookmark.svg"
   sodipodi:docbase="/home/cschalle/gnome-themes-extras/Nuvola/icons/scalable/filesystems"
   xmlns="http://www.w3.org/2000/svg"
   xmlns:sodipodi="http://sodipodi.sourceforge.net/DTD/sodipodi-0.dtd"
   xmlns:xml="http://www.w3.org/XML/1998/namespace"
   xmlns:xlink="http://www.w3.org/1999/xlink">
  <defs
     id="defs1058" />
  <sodipodi:namedview
     id="base" />
  <g
     id="Layer_x0020_2"
     style="fill-rule:nonzero;clip-rule:nonzero;stroke:#000000;stroke-miterlimit:4;"
     transform="matrix(5.71746,0,0,5.51135,-22.7416,-14.6353)">
    <radialGradient
       id="aigrd1"
       cx="24.0151"
       cy="15.2129"
       r="25.0255"
       fx="24.0151"
       fy="15.2129"
       gradientUnits="userSpaceOnUse">
      <stop
         offset="0"
         style="stop-color:#2286B7"
         id="stop1375" />
      <stop
         offset="1"
         style="stop-color:#190F50"
         id="stop1376" />
    </radialGradient>
    <path
       style="fill-rule:evenodd;clip-rule:evenodd;fill:url(#aigrd1);stroke-width:3.6863;"
       d="M10.5,22.8c0,9.7,7.9,17.6,17.6,17.6c9.7,0,17.6-7.9,17.6-17.6c0-9.7-7.9-17.6-17.6-17.6c-9.7,0-17.6,7.9-17.6,17.6z"
       id="path1377" />
    <radialGradient
       id="aigrd2"
       cx="22.4312"
       cy="15.1919"
       r="26.362"
       fx="22.4312"
       fy="15.1919"
       gradientUnits="userSpaceOnUse">
      <stop
         offset="0"
         style="stop-color:#99BBA8"
         id="stop1379" />
      <stop
         offset="4.643155e-002"
         style="stop-color:#94B8A8"
         id="stop1380" />
      <stop
         offset="9.936643e-002"
         style="stop-color:#87B0A8"
         id="stop1381" />
      <stop
         offset="0.1555"
         style="stop-color:#70A2A7"
         id="stop1382" />
      <stop
         offset="0.2138"
         style="stop-color:#508FA6"
         id="stop1383" />
      <stop
         offset="0.2733"
         style="stop-color:#2776A5"
         id="stop1384" />
      <stop
         offset="0.2865"
         style="stop-color:#1D70A5"
         id="stop1385" />
      <stop
         offset="0.8539"
         style="stop-color:#190F50"
         id="stop1386" />
      <stop
         offset="1"
         style="stop-color:#585287"
         id="stop1387" />
    </radialGradient>
    <path
       style="fill-rule:evenodd;clip-rule:evenodd;fill:url(#aigrd2);stroke:none;"
       d="M10.5,22.8c0,9.7,7.9,17.6,17.6,17.6c9.7,0,17.6-7.9,17.6-17.6c0-9.7-7.9-17.6-17.6-17.6c-9.7,0-17.6,7.9-17.6,17.6z"
       id="path1388" />
    <radialGradient
       id="aigrd3"
       cx="21.7529"
       cy="15.0503"
       r="21.6923"
       fx="21.7529"
       fy="15.0503"
       gradientUnits="userSpaceOnUse">
      <stop
         offset="0"
         style="stop-color:#D5D690"
         id="stop1390" />
      <stop
         offset="0.1935"
         style="stop-color:#D1D28D"
         id="stop1391" />
      <stop
         offset="0.387"
         style="stop-color:#C5C685"
         id="stop1392" />
      <stop
         offset="0.5806"
         style="stop-color:#B1B278"
         id="stop1393" />
      <stop
         offset="0.773"
         style="stop-color:#969665"
         id="stop1394" />
      <stop
         offset="0.927"
         style="stop-color:#7A7A52"
         id="stop1395" />
      <stop
         offset="1"
         style="stop-color:#9C9C68"
         id="stop1396" />
    </radialGradient>
    <path
       style="fill-rule:evenodd;clip-rule:evenodd;fill:url(#aigrd3);stroke:none;"
       d="M25.8,12.3l4.2,3.6l2-3.4l2.9,3.1L30,18.3l-0.6,4.3l1,1.7h-1l-1.2-1.7h-4l-1.5,2.7l4,2.3l5.7,3.3l-4.7,3.9v4L24,30.6l1.4-2.4l-4.2-2.8v-3.5l-1.9-7.1l-2.3-1.3l0.3-2.5l3.1-2.2v2.7l5.4,0.8z"
       id="path1397" />
    <radialGradient
       id="aigrd4"
       cx="24.0151"
       cy="16.5063"
       r="18.7633"
       fx="24.0151"
       fy="16.5063"
       gradientUnits="userSpaceOnUse">
      <stop
         offset="0"
         style="stop-color:#D5D690"
         id="stop1399" />
      <stop
         offset="0.1935"
         style="stop-color:#D1D28D"
         id="stop1400" />
      <stop
         offset="0.387"
         style="stop-color:#C5C685"
         id="stop1401" />
      <stop
         offset="0.5806"
         style="stop-color:#B1B278"
         id="stop1402" />
      <stop
         offset="0.773"
         style="stop-color:#969665"
         id="stop1403" />
      <stop
         offset="0.927"
         style="stop-color:#7A7A52"
         id="stop1404" />
      <stop
         offset="1"
         style="stop-color:#9C9C68"
         id="stop1405" />
    </radialGradient>
    <path
       style="fill-rule:evenodd;clip-rule:evenodd;fill:url(#aigrd4);stroke:none;"
       d="M38,10.3v2.2l1.3,2.2v3.5l1.9,1.1l0.3-2.2l-1.2-2H42l-4-4.7z"
       id="path1406" />
  </g>
  <g
     id="Layer_1"
     style="stroke:#000000;">
    <g
       id="g1053">
      <path
         style="fill:#FFFFFF;stroke-width:5;"
         d="M77.716,173.784H2.5V249h75.216V173.784z"
         id="path1054" />
      <path
         style="stroke:none;"
         d="M63.19,187.605l-7.271,27.136l-7.271,27.137l-19.865-19.865L8.917,202.147l27.137-7.271L63.19,187.605z"
         id="path1055" />
    </g>
    <path
       style="fill:none;stroke:none;"
       d="M251.5,0H0.5v251h251V0z"
       id="path1056" />
  </g>
</svg>
