<?xml version="1.0" encoding="UTF-8" standalone="no"?>
<!DOCTYPE svg PUBLIC "-//W3C//DTD SVG 20010904//EN"
"http://www.w3.org/TR/2001/REC-SVG-20010904/DTD/svg10.dtd">
<!-- Created with Sodipodi ("http://www.sodipodi.com/") -->
<svg
   width="48pt"
   height="48pt"
   viewBox="0 0 256 256"
   overflow="visible"
   enable-background="new 0 0 256 256"
   xml:space="preserve"
   xmlns="http://www.w3.org/2000/svg"
   xmlns:xml="http://www.w3.org/XML/1998/namespace"
   xmlns:a="http://ns.adobe.com/AdobeSVGViewerExtensions/3.0/"
   xmlns:sodipodi="http://sodipodi.sourceforge.net/DTD/sodipodi-0.dtd"
   xmlns:xlink="http://www.w3.org/1999/xlink"
   id="svg153"
   sodipodi:version="0.32pre"
   sodipodi:docname="/home/cschalle/gnome-themes-extras/Nuvola/icons/scalable/filesystems/gnome-fs-loading-icon.svg"
   sodipodi:docbase="/home/cschalle/gnome-themes-extras/Nuvola/icons/scalable/filesystems">
  <defs
     id="defs358" />
  <sodipodi:namedview
     id="base" />
  <g
     id="Layer_3"
     stroke="#000000">
    <path
       opacity="0.2"
       stroke="none"
       d="M49,19c-9.374,0-17,7.626-17,17v200c0,9.374,7.626,17,17,17h176c9.374,0,17-7.626,17-17V36    c0-9.374-7.626-17-17-17H49z"
       id="path155" />
    <linearGradient
       id="XMLID_1_"
       gradientUnits="userSpaceOnUse"
       x1="23"
       y1="130"
       x2="233"
       y2="130">
      <stop
         offset="0"
         style="stop-color:#A7ABAC"
         id="stop157" />
      <stop
         offset="1"
         style="stop-color:#85898A"
         id="stop158" />
      <a:midPointStop
         offset="0"
         style="stop-color:#A7ABAC"
         id="midPointStop159" />
      <a:midPointStop
         offset="0.5"
         style="stop-color:#A7ABAC"
         id="midPointStop160" />
      <a:midPointStop
         offset="1"
         style="stop-color:#85898A"
         id="midPointStop161" />
    </linearGradient>
    <path
       fill="url(#XMLID_1_)"
       stroke="none"
       d="M40,13c-9.374,0-17,7.626-17,17v200c0,9.374,7.626,17,17,17h176    c9.374,0,17-7.626,17-17V30c0-9.374-7.626-17-17-17H40z"
       id="path162" />
    <path
       fill="#99CCFF"
       stroke="none"
       d="M28,230c0,6.627,5.373,12,12,12h176c6.627,0,12-5.373,12-12V30c0-6.627-5.373-12-12-12H40    c-6.627,0-12,5.373-12,12V230z"
       id="path163" />
    <linearGradient
       id="XMLID_2_"
       gradientUnits="userSpaceOnUse"
       x1="84.5029"
       y1="86.5029"
       x2="321.5015"
       y2="323.5015">
      <stop
         offset="0"
         style="stop-color:#FFFFFF"
         id="stop165" />
      <stop
         offset="1"
         style="stop-color:#99CCFF"
         id="stop166" />
      <a:midPointStop
         offset="0"
         style="stop-color:#FFFFFF"
         id="midPointStop167" />
      <a:midPointStop
         offset="0.5"
         style="stop-color:#FFFFFF"
         id="midPointStop168" />
      <a:midPointStop
         offset="1"
         style="stop-color:#99CCFF"
         id="midPointStop169" />
    </linearGradient>
    <path
       fill="url(#XMLID_2_)"
       stroke="none"
       d="M40,23c-3.859,0-7,3.14-7,7v200c0,3.859,3.141,7,7,7h176c3.859,0,7-3.141,7-7V30    c0-3.86-3.141-7-7-7H40z"
       id="path170" />
    <path
       opacity="0.4"
       fill="#FFFFFF"
       stroke="none"
       d="M163,108c18.593-17.431,40.938-26.006,65-30.265V30c0-6.627-5.373-12-12-12    H40c-6.627,0-12,5.373-12,12v143.268C77.582,177.009,124.478,142.51,163,108z"
       id="path171" />
    <path
       opacity="0.5"
       fill="#E8E3DA"
       stroke="none"
       d="M29.611,133.005c0,39.832,32.408,72.24,72.243,72.24    c39.832,0,72.24-32.408,72.24-72.24c0-39.834-32.408-72.242-72.24-72.242C62.019,60.763,29.611,93.17,29.611,133.005z"
       id="path172" />
    <path
       opacity="0.2"
       stroke="none"
       d="M21.158,129.847c0,43.915,35.727,79.643,79.643,79.643c43.915,0,79.641-35.728,79.641-79.643    c0-43.914-35.726-79.642-79.641-79.642C56.885,50.205,21.158,85.933,21.158,129.847z"
       id="path173" />
    <linearGradient
       id="XMLID_3_"
       gradientUnits="userSpaceOnUse"
       x1="43.8413"
       y1="73.9414"
       x2="146.4572"
       y2="176.5573">
      <stop
         offset="0"
         style="stop-color:#4DB36D"
         id="stop175" />
      <stop
         offset="1"
         style="stop-color:#238C50"
         id="stop176" />
      <a:midPointStop
         offset="0"
         style="stop-color:#4DB36D"
         id="midPointStop177" />
      <a:midPointStop
         offset="0.5"
         style="stop-color:#4DB36D"
         id="midPointStop178" />
      <a:midPointStop
         offset="1"
         style="stop-color:#238C50"
         id="midPointStop179" />
    </linearGradient>
    <path
       fill="url(#XMLID_3_)"
       stroke="none"
       d="M18,127.742c0,43.915,35.728,79.643,79.643,79.643s79.642-35.728,79.642-79.643    c0-43.914-35.727-79.643-79.642-79.643S18,83.828,18,127.742z"
       id="path180" />
    <linearGradient
       id="XMLID_4_"
       gradientUnits="userSpaceOnUse"
       x1="55.5723"
       y1="85.9771"
       x2="142.943"
       y2="172.7148">
      <stop
         offset="0"
         style="stop-color:#A3DAAF"
         id="stop182" />
      <stop
         offset="1"
         style="stop-color:#54AE77"
         id="stop183" />
      <a:midPointStop
         offset="0"
         style="stop-color:#A3DAAF"
         id="midPointStop184" />
      <a:midPointStop
         offset="0.5"
         style="stop-color:#A3DAAF"
         id="midPointStop185" />
      <a:midPointStop
         offset="1"
         style="stop-color:#54AE77"
         id="midPointStop186" />
    </linearGradient>
    <path
       fill="url(#XMLID_4_)"
       stroke="none"
       d="M23.263,127.742c0,41.015,33.367,74.38,74.38,74.38s74.379-33.365,74.379-74.38    c0-41.013-33.366-74.38-74.379-74.38S23.263,86.729,23.263,127.742z"
       id="path187" />
    <linearGradient
       id="XMLID_5_"
       gradientUnits="userSpaceOnUse"
       x1="55.5776"
       y1="85.9814"
       x2="142.9465"
       y2="172.7174">
      <stop
         offset="0"
         style="stop-color:#A3DAAF"
         id="stop189" />
      <stop
         offset="1"
         style="stop-color:#54AE77"
         id="stop190" />
      <a:midPointStop
         offset="0"
         style="stop-color:#A3DAAF"
         id="midPointStop191" />
      <a:midPointStop
         offset="0.5"
         style="stop-color:#A3DAAF"
         id="midPointStop192" />
      <a:midPointStop
         offset="1"
         style="stop-color:#54AE77"
         id="midPointStop193" />
    </linearGradient>
    <path
       fill="url(#XMLID_5_)"
       stroke="none"
       d="M28.525,127.742c0,38.172,30.945,69.118,69.118,69.118    c38.172,0,69.119-30.946,69.119-69.118c0-38.173-30.947-69.118-69.119-69.118C59.47,58.624,28.525,89.569,28.525,127.742z"
       id="path194" />
    <linearGradient
       id="XMLID_6_"
       gradientUnits="userSpaceOnUse"
       x1="84.8687"
       y1="55.2388"
       x2="84.8687"
       y2="110.5277">
      <stop
         offset="0"
         style="stop-color:#FFFFFF"
         id="stop196" />
      <stop
         offset="1"
         style="stop-color:#74C585"
         id="stop197" />
      <a:midPointStop
         offset="0"
         style="stop-color:#FFFFFF"
         id="midPointStop198" />
      <a:midPointStop
         offset="0.5"
         style="stop-color:#FFFFFF"
         id="midPointStop199" />
      <a:midPointStop
         offset="1"
         style="stop-color:#74C585"
         id="midPointStop200" />
    </linearGradient>
    <path
       opacity="0.5"
       fill="url(#XMLID_6_)"
       stroke="none"
       d="M28.525,127.742c0,18.063,6.931,34.502,18.275,46.815    c4.788-1.957,9.144-4.945,12.833-9.162c7.496-7.496,7.496-18.74,10.62-28.733c6.247-18.118,11.869-38.732,30.609-48.728    c13.038-6.519,26.539-11.03,40.351-13.845c-11.89-9.667-27.054-15.465-43.57-15.465C59.47,58.624,28.525,89.569,28.525,127.742z"
       id="path201" />
    <linearGradient
       id="XMLID_7_"
       gradientUnits="userSpaceOnUse"
       x1="59.0815"
       y1="92.8672"
       x2="45.5974"
       y2="79.383">
      <stop
         offset="0"
         style="stop-color:#BAE4BC"
         id="stop203" />
      <stop
         offset="1"
         style="stop-color:#FFFFFF"
         id="stop204" />
      <a:midPointStop
         offset="0"
         style="stop-color:#BAE4BC"
         id="midPointStop205" />
      <a:midPointStop
         offset="0.5"
         style="stop-color:#BAE4BC"
         id="midPointStop206" />
      <a:midPointStop
         offset="1"
         style="stop-color:#FFFFFF"
         id="midPointStop207" />
    </linearGradient>
    <path
       fill="url(#XMLID_7_)"
       stroke="none"
       d="M89.651,62.232c-32.282,3.915-57.448,31.226-57.99,64.419    C38.041,97.276,60.214,73.179,89.651,62.232z"
       id="path208" />
    <linearGradient
       id="XMLID_8_"
       gradientUnits="userSpaceOnUse"
       x1="97.6431"
       y1="181.873"
       x2="97.6431"
       y2="71.2882">
      <stop
         offset="0"
         style="stop-color:#A3DAAF"
         id="stop210" />
      <stop
         offset="1"
         style="stop-color:#4FA36F"
         id="stop211" />
      <a:midPointStop
         offset="0"
         style="stop-color:#A3DAAF"
         id="midPointStop212" />
      <a:midPointStop
         offset="0.5"
         style="stop-color:#A3DAAF"
         id="midPointStop213" />
      <a:midPointStop
         offset="1"
         style="stop-color:#4FA36F"
         id="midPointStop214" />
    </linearGradient>
    <path
       fill="url(#XMLID_8_)"
       stroke="none"
       d="M41.019,127.742c0,31.222,25.401,56.622,56.624,56.622    c31.222,0,56.624-25.4,56.624-56.622c0-31.223-25.402-56.625-56.624-56.625C66.42,71.118,41.019,96.519,41.019,127.742z"
       id="path215" />
    <radialGradient
       id="XMLID_9_"
       cx="97.6426"
       cy="127.7422"
       r="53.5"
       fx="97.6426"
       fy="127.7422"
       gradientUnits="userSpaceOnUse">
      <stop
         offset="0"
         style="stop-color:#FFFFFF"
         id="stop217" />
      <stop
         offset="0.4453"
         style="stop-color:#FDFEFE"
         id="stop218" />
      <stop
         offset="0.6058"
         style="stop-color:#F6FAFC"
         id="stop219" />
      <stop
         offset="0.7201"
         style="stop-color:#EBF3F8"
         id="stop220" />
      <stop
         offset="0.8126"
         style="stop-color:#DAE9F3"
         id="stop221" />
      <stop
         offset="0.8918"
         style="stop-color:#C4DBEB"
         id="stop222" />
      <stop
         offset="0.9606"
         style="stop-color:#A9CBE2"
         id="stop223" />
      <stop
         offset="1"
         style="stop-color:#96C0DC"
         id="stop224" />
      <a:midPointStop
         offset="0"
         style="stop-color:#FFFFFF"
         id="midPointStop225" />
      <a:midPointStop
         offset="0.87"
         style="stop-color:#FFFFFF"
         id="midPointStop226" />
      <a:midPointStop
         offset="1"
         style="stop-color:#96C0DC"
         id="midPointStop227" />
    </radialGradient>
    <path
       fill="url(#XMLID_9_)"
       stroke="none"
       d="M44.142,127.742c0,29.5,24,53.5,53.5,53.5s53.5-24,53.5-53.5s-24-53.5-53.5-53.5    S44.142,98.242,44.142,127.742z"
       id="path228" />
    <path
       fill="none"
       stroke="#999999"
       stroke-width="2"
       d="M44.142,127.742c0,29.5,24,53.5,53.5,53.5s53.5-24,53.5-53.5    s-24-53.5-53.5-53.5S44.142,98.242,44.142,127.742z"
       id="path229" />
    <linearGradient
       id="XMLID_10_"
       gradientUnits="userSpaceOnUse"
       x1="104.6069"
       y1="134.7949"
       x2="66.9655"
       y2="97.1535">
      <stop
         offset="0"
         style="stop-color:#FFFFFF"
         id="stop231" />
      <stop
         offset="0.4453"
         style="stop-color:#FDFEFE"
         id="stop232" />
      <stop
         offset="0.6058"
         style="stop-color:#F6FAFC"
         id="stop233" />
      <stop
         offset="0.7201"
         style="stop-color:#EBF3F8"
         id="stop234" />
      <stop
         offset="0.8126"
         style="stop-color:#DAE9F3"
         id="stop235" />
      <stop
         offset="0.8918"
         style="stop-color:#C4DBEB"
         id="stop236" />
      <stop
         offset="0.9606"
         style="stop-color:#A9CBE2"
         id="stop237" />
      <stop
         offset="1"
         style="stop-color:#96C0DC"
         id="stop238" />
      <a:midPointStop
         offset="0"
         style="stop-color:#FFFFFF"
         id="midPointStop239" />
      <a:midPointStop
         offset="0.87"
         style="stop-color:#FFFFFF"
         id="midPointStop240" />
      <a:midPointStop
         offset="1"
         style="stop-color:#96C0DC"
         id="midPointStop241" />
    </linearGradient>
    <path
       fill="url(#XMLID_10_)"
       stroke="none"
       d="M46.949,128.772c0,11.15,3.559,21.482,9.585,29.938    c23.265-10.294,43.081-33.55,57.541-56.451c3.979-6.578,8.697-11.826,13.978-16.008c-8.354-5.796-18.481-9.203-29.394-9.203    C70.146,77.049,46.949,100.251,46.949,128.772z"
       id="path242" />
    <path
       fill="#D4CCBF"
       stroke="none"
       d="M102.229,130.957l-4.474,4.478l26.86,26.861l4.478-4.477L102.229,130.957z"
       id="path243" />
    <path
       fill="#949188"
       stroke="none"
       d="M102.229,127.8l-4.474,4.478l26.86,26.861l4.478-4.478L102.229,127.8z"
       id="path244" />
    <path
       fill="#D4CCBF"
       stroke="none"
       d="M102.914,97.861h-6.333v26.169h6.333V97.861z"
       id="path245" />
    <path
       fill="#949188"
       stroke="none"
       d="M100.809,95.756h-6.332v26.169h6.332V95.756z"
       id="path246" />
    <g
       id="g247">
      <path
         fill="#949188"
         stroke="none"
         d="M85.638,127c0,6.619,5.386,12.005,12.005,12.005s12.003-5.386,12.003-12.005     c0-6.62-5.384-12.004-12.003-12.004S85.638,120.38,85.638,127z"
         id="path248" />
      <linearGradient
         id="XMLID_11_"
         gradientUnits="userSpaceOnUse"
         x1="87.5117"
         y1="127"
         x2="107.7725"
         y2="127">
        <stop
           offset="0"
           style="stop-color:#B1B2A1"
           id="stop250" />
        <stop
           offset="1"
           style="stop-color:#CCCCCC"
           id="stop251" />
        <a:midPointStop
           offset="0"
           style="stop-color:#B1B2A1"
           id="midPointStop252" />
        <a:midPointStop
           offset="0.5"
           style="stop-color:#B1B2A1"
           id="midPointStop253" />
        <a:midPointStop
           offset="1"
           style="stop-color:#CCCCCC"
           id="midPointStop254" />
      </linearGradient>
      <path
         fill="url(#XMLID_11_)"
         stroke="none"
         d="M87.512,127c0,5.594,4.535,10.13,10.131,10.13s10.13-4.536,10.13-10.13     c0-5.595-4.534-10.13-10.13-10.13S87.512,121.405,87.512,127z"
         id="path255" />
      <radialGradient
         id="XMLID_12_"
         cx="93.0078"
         cy="119.8403"
         r="11.1916"
         fx="93.0078"
         fy="119.8403"
         gradientUnits="userSpaceOnUse">
        <stop
           offset="0"
           style="stop-color:#FFFFFF"
           id="stop257" />
        <stop
           offset="0.3726"
           style="stop-color:#FDFDFD"
           id="stop258" />
        <stop
           offset="0.5069"
           style="stop-color:#F6F6F6"
           id="stop259" />
        <stop
           offset="0.6026"
           style="stop-color:#EBEBEB"
           id="stop260" />
        <stop
           offset="0.68"
           style="stop-color:#DADADA"
           id="stop261" />
        <stop
           offset="0.7463"
           style="stop-color:#C4C4C4"
           id="stop262" />
        <stop
           offset="0.805"
           style="stop-color:#A8A8A8"
           id="stop263" />
        <stop
           offset="0.8581"
           style="stop-color:#888888"
           id="stop264" />
        <stop
           offset="0.9069"
           style="stop-color:#626262"
           id="stop265" />
        <stop
           offset="0.9523"
           style="stop-color:#373737"
           id="stop266" />
        <stop
           offset="0.9926"
           style="stop-color:#090909"
           id="stop267" />
        <stop
           offset="1"
           style="stop-color:#000000"
           id="stop268" />
        <a:midPointStop
           offset="0"
           style="stop-color:#FFFFFF"
           id="midPointStop269" />
        <a:midPointStop
           offset="0.87"
           style="stop-color:#FFFFFF"
           id="midPointStop270" />
        <a:midPointStop
           offset="1"
           style="stop-color:#000000"
           id="midPointStop271" />
      </radialGradient>
      <path
         fill="url(#XMLID_12_)"
         stroke="none"
         adobe-blending-mode="screen"
         d="M101.028,119.63c0.559,0,1.105,0.051,1.646,0.123     c-1.479-1.395-3.467-2.259-5.657-2.259c-4.553,0-8.256,3.703-8.256,8.257c0,0.979,0.181,1.915,0.495,2.789     C90.709,123.401,95.423,119.63,101.028,119.63z"
         id="path272" />
    </g>
    <path
       fill="#949188"
       stroke="none"
       d="M46.886,127.113c0,2.273,1.842,4.115,4.115,4.115c2.273,0,4.115-1.842,4.115-4.115    s-1.842-4.115-4.115-4.115C48.729,122.998,46.886,124.84,46.886,127.113z"
       id="path273" />
    <linearGradient
       id="XMLID_13_"
       gradientUnits="userSpaceOnUse"
       x1="49.7515"
       y1="125.8218"
       x2="50.9127"
       y2="126.9827">
      <stop
         offset="0"
         style="stop-color:#FFFFFF"
         id="stop275" />
      <stop
         offset="0.3726"
         style="stop-color:#FDFDFD"
         id="stop276" />
      <stop
         offset="0.5069"
         style="stop-color:#F6F6F6"
         id="stop277" />
      <stop
         offset="0.6026"
         style="stop-color:#EBEBEB"
         id="stop278" />
      <stop
         offset="0.68"
         style="stop-color:#DADADA"
         id="stop279" />
      <stop
         offset="0.7463"
         style="stop-color:#C4C4C4"
         id="stop280" />
      <stop
         offset="0.805"
         style="stop-color:#A8A8A8"
         id="stop281" />
      <stop
         offset="0.8581"
         style="stop-color:#888888"
         id="stop282" />
      <stop
         offset="0.9069"
         style="stop-color:#626262"
         id="stop283" />
      <stop
         offset="0.9523"
         style="stop-color:#373737"
         id="stop284" />
      <stop
         offset="0.9926"
         style="stop-color:#090909"
         id="stop285" />
      <stop
         offset="1"
         style="stop-color:#000000"
         id="stop286" />
      <a:midPointStop
         offset="0"
         style="stop-color:#FFFFFF"
         id="midPointStop287" />
      <a:midPointStop
         offset="0.87"
         style="stop-color:#FFFFFF"
         id="midPointStop288" />
      <a:midPointStop
         offset="1"
         style="stop-color:#000000"
         id="midPointStop289" />
    </linearGradient>
    <path
       fill="url(#XMLID_13_)"
       stroke="none"
       adobe-blending-mode="screen"
       d="M52.381,124.618c-0.411-0.23-0.876-0.37-1.38-0.37    c-1.58,0-2.866,1.284-2.866,2.865c0,0.428,0.101,0.828,0.27,1.194C48.979,126.474,50.494,125.06,52.381,124.618z"
       id="path290" />
    <g
       id="g291">
      <path
         fill="#949188"
         stroke="none"
         d="M139.619,126.598c0,2.273,1.842,4.115,4.115,4.115s4.117-1.842,4.117-4.115     c0-2.271-1.844-4.115-4.117-4.115S139.619,124.326,139.619,126.598z"
         id="path292" />
      <linearGradient
         id="XMLID_14_"
         gradientUnits="userSpaceOnUse"
         x1="142.4854"
         y1="125.3057"
         x2="143.6466"
         y2="126.4666">
        <stop
           offset="0"
           style="stop-color:#FFFFFF"
           id="stop294" />
        <stop
           offset="0.3726"
           style="stop-color:#FDFDFD"
           id="stop295" />
        <stop
           offset="0.5069"
           style="stop-color:#F6F6F6"
           id="stop296" />
        <stop
           offset="0.6026"
           style="stop-color:#EBEBEB"
           id="stop297" />
        <stop
           offset="0.68"
           style="stop-color:#DADADA"
           id="stop298" />
        <stop
           offset="0.7463"
           style="stop-color:#C4C4C4"
           id="stop299" />
        <stop
           offset="0.805"
           style="stop-color:#A8A8A8"
           id="stop300" />
        <stop
           offset="0.8581"
           style="stop-color:#888888"
           id="stop301" />
        <stop
           offset="0.9069"
           style="stop-color:#626262"
           id="stop302" />
        <stop
           offset="0.9523"
           style="stop-color:#373737"
           id="stop303" />
        <stop
           offset="0.9926"
           style="stop-color:#090909"
           id="stop304" />
        <stop
           offset="1"
           style="stop-color:#000000"
           id="stop305" />
        <a:midPointStop
           offset="0"
           style="stop-color:#FFFFFF"
           id="midPointStop306" />
        <a:midPointStop
           offset="0.87"
           style="stop-color:#FFFFFF"
           id="midPointStop307" />
        <a:midPointStop
           offset="1"
           style="stop-color:#000000"
           id="midPointStop308" />
      </linearGradient>
      <path
         fill="url(#XMLID_14_)"
         stroke="none"
         adobe-blending-mode="screen"
         d="M145.115,124.103     c-0.41-0.229-0.877-0.371-1.381-0.371c-1.58,0-2.865,1.287-2.865,2.866c0,0.43,0.101,0.83,0.27,1.194     C141.714,125.96,143.229,124.546,145.115,124.103z"
         id="path309" />
    </g>
    <linearGradient
       id="XMLID_15_"
       gradientUnits="userSpaceOnUse"
       x1="69.8066"
       y1="97.1299"
       x2="90.1507"
       y2="116.7726">
      <stop
         offset="0"
         style="stop-color:#FFFFFF"
         id="stop311" />
      <stop
         offset="1"
         style="stop-color:#000000"
         id="stop312" />
      <a:midPointStop
         offset="0"
         style="stop-color:#FFFFFF"
         id="midPointStop313" />
      <a:midPointStop
         offset="0.5"
         style="stop-color:#FFFFFF"
         id="midPointStop314" />
      <a:midPointStop
         offset="1"
         style="stop-color:#000000"
         id="midPointStop315" />
    </linearGradient>
    <path
       opacity="0.7"
       fill="url(#XMLID_15_)"
       stroke="none"
       adobe-blending-mode="screen"
       d="M48.432,133.656    c8.718-28.084,32.435-49.551,61.778-55.079c-3.53-0.768-7.195-1.178-10.955-1.178c-28.472,0-51.634,23.161-51.634,51.634    c0,1.494,0.077,2.971,0.203,4.436C48.026,133.537,48.229,133.591,48.432,133.656z"
       id="path316" />
    <g
       id="g317">
      <path
         fill="#949188"
         stroke="none"
         d="M93.293,81.793c0,2.273,1.842,4.115,4.116,4.115c2.272,0,4.116-1.842,4.116-4.115     c0-2.272-1.844-4.115-4.116-4.115C95.135,77.678,93.293,79.521,93.293,81.793z"
         id="path318" />
      <linearGradient
         id="XMLID_16_"
         gradientUnits="userSpaceOnUse"
         x1="96.1592"
         y1="80.501"
         x2="97.3204"
         y2="81.6619">
        <stop
           offset="0"
           style="stop-color:#FFFFFF"
           id="stop320" />
        <stop
           offset="0.3726"
           style="stop-color:#FDFDFD"
           id="stop321" />
        <stop
           offset="0.5069"
           style="stop-color:#F6F6F6"
           id="stop322" />
        <stop
           offset="0.6026"
           style="stop-color:#EBEBEB"
           id="stop323" />
        <stop
           offset="0.68"
           style="stop-color:#DADADA"
           id="stop324" />
        <stop
           offset="0.7463"
           style="stop-color:#C4C4C4"
           id="stop325" />
        <stop
           offset="0.805"
           style="stop-color:#A8A8A8"
           id="stop326" />
        <stop
           offset="0.8581"
           style="stop-color:#888888"
           id="stop327" />
        <stop
           offset="0.9069"
           style="stop-color:#626262"
           id="stop328" />
        <stop
           offset="0.9523"
           style="stop-color:#373737"
           id="stop329" />
        <stop
           offset="0.9926"
           style="stop-color:#090909"
           id="stop330" />
        <stop
           offset="1"
           style="stop-color:#000000"
           id="stop331" />
        <a:midPointStop
           offset="0"
           style="stop-color:#FFFFFF"
           id="midPointStop332" />
        <a:midPointStop
           offset="0.87"
           style="stop-color:#FFFFFF"
           id="midPointStop333" />
        <a:midPointStop
           offset="1"
           style="stop-color:#000000"
           id="midPointStop334" />
      </linearGradient>
      <path
         fill="url(#XMLID_16_)"
         stroke="none"
         adobe-blending-mode="screen"
         d="M98.789,79.297c-0.41-0.229-0.877-0.371-1.38-0.371     c-1.581,0-2.866,1.287-2.866,2.866c0,0.429,0.101,0.83,0.27,1.194C95.388,81.155,96.902,79.741,98.789,79.297z"
         id="path335" />
    </g>
    <g
       id="g336">
      <path
         fill="#949188"
         stroke="none"
         d="M93.293,174.064c0,2.273,1.842,4.115,4.116,4.115c2.272,0,4.116-1.842,4.116-4.115     c0-2.271-1.844-4.115-4.116-4.115C95.135,169.949,93.293,171.793,93.293,174.064z"
         id="path337" />
      <linearGradient
         id="XMLID_17_"
         gradientUnits="userSpaceOnUse"
         x1="96.1602"
         y1="172.7734"
         x2="97.3208"
         y2="173.9338">
        <stop
           offset="0"
           style="stop-color:#FFFFFF"
           id="stop339" />
        <stop
           offset="0.3726"
           style="stop-color:#FDFDFD"
           id="stop340" />
        <stop
           offset="0.5069"
           style="stop-color:#F6F6F6"
           id="stop341" />
        <stop
           offset="0.6026"
           style="stop-color:#EBEBEB"
           id="stop342" />
        <stop
           offset="0.68"
           style="stop-color:#DADADA"
           id="stop343" />
        <stop
           offset="0.7463"
           style="stop-color:#C4C4C4"
           id="stop344" />
        <stop
           offset="0.805"
           style="stop-color:#A8A8A8"
           id="stop345" />
        <stop
           offset="0.8581"
           style="stop-color:#888888"
           id="stop346" />
        <stop
           offset="0.9069"
           style="stop-color:#626262"
           id="stop347" />
        <stop
           offset="0.9523"
           style="stop-color:#373737"
           id="stop348" />
        <stop
           offset="0.9926"
           style="stop-color:#090909"
           id="stop349" />
        <stop
           offset="1"
           style="stop-color:#000000"
           id="stop350" />
        <a:midPointStop
           offset="0"
           style="stop-color:#FFFFFF"
           id="midPointStop351" />
        <a:midPointStop
           offset="0.87"
           style="stop-color:#FFFFFF"
           id="midPointStop352" />
        <a:midPointStop
           offset="1"
           style="stop-color:#000000"
           id="midPointStop353" />
      </linearGradient>
      <path
         fill="url(#XMLID_17_)"
         stroke="none"
         adobe-blending-mode="screen"
         d="M98.789,171.569c-0.41-0.229-0.877-0.37-1.38-0.37     c-1.581,0-2.866,1.286-2.866,2.865c0,0.43,0.101,0.83,0.27,1.194C95.388,173.427,96.902,172.013,98.789,171.569z"
         id="path354" />
    </g>
  </g>
  <g
     id="Layer_2"
     stroke="#000000">
    <path
       fill="none"
       stroke="none"
       d="M256,256H0V0h256V256z"
       id="path356" />
  </g>
</svg>
