<?xml version="1.0" encoding="UTF-8" standalone="no"?>
<!DOCTYPE svg PUBLIC "-//W3C//DTD SVG 1.0//EN"
"http://www.w3.org/TR/2001/REC-SVG-20010904/DTD/svg10.dtd">
<!-- Created with Sodipodi ("http://www.sodipodi.com/") -->
<svg
   xmlns="http://www.w3.org/2000/svg"
   xmlns:xlink="http://www.w3.org/1999/xlink"
   version="1.0"
   x="0"
   y="0"
   width="60"
   height="60"
   viewBox="0 0 256 256"
   id="svg602"
   xml:space="preserve"><defs
   id="defs697" /><metadata
   id="metadata603"><sfw><slices /><sliceSourceBounds
   y="268"
   x="178"
   width="256"
   height="256"
   bottomLeftOrigin="true" /><optimizationSettings><targetSettings
   fileFormat="PNG24Format"
   targetSettingsID="0"><PNG24Format
   transparency="true"
   includeCaption="false"
   interlaced="false"
   noMatteColor="false"
   matteColor="#FFFFFF"
   filtered="false" /></targetSettings></optimizationSettings></sfw></metadata><g
   style="font-size:12;stroke:#000000;"
   id="Layer_1"><path
   d="M 248.491 138.233 L 210.978 143.235 L 202.271 79.991 L 197.318 80.673 C 197.318 80.673 77.572 97.16 68.385 98.424 C 68.338 98.083 68.23 97.296 68.23 97.296 C 66.885 87.522 58.235 80.61 48.949 81.889 L 19.176 85.988 C 14.838 86.585 10.956 88.883 8.247 92.456 C 5.877 95.582 4.601 99.498 4.601 103.489 C 4.601 104.336 4.659 105.186 4.775 106.032 C 4.775 106.032 6.506 118.603 6.506 118.603 C 6.506 118.603 6.55 118.86 6.572 118.984 C 6.595 119.152 21.734 229.108 21.734 229.108 L 22.331 230.037 C 28.224 239.199 35.255 247.422 43.228 254.476 L 44.948 255.997 L 223.126 231.466 L 248.491 138.233 z "
   style="opacity:0.2;stroke:none;"
   id="path605" /><path
   d="M 218.491 220.233 L 115.991 226.233 L 110.491 148.233 L 245.491 130.233 L 218.491 220.233 z "
   style="fill:#ff3333;stroke:#990000;stroke-width:5;stroke-linejoin:round;"
   id="path606" /><linearGradient
   x1="230.527298"
   y1="134.935501"
   x2="194.530502"
   y2="161.933197"
   id="XMLID_1_"
   gradientUnits="userSpaceOnUse"><stop
   style="stop-color:#ff3333;stop-opacity:1;"
   offset="0"
   id="stop608" /><stop
   style="stop-color:#000000;stop-opacity:1;"
   offset="1"
   id="stop609" /><a:midPointStop
   offset="0"
   style="stop-color:#FF3333"
   id="midPointStop610" /><a:midPointStop
   offset="0.5"
   style="stop-color:#FF3333"
   id="midPointStop611" /><a:midPointStop
   offset="1"
   style="stop-color:#000000"
   id="midPointStop612" /></linearGradient><path
   d="M 110.491 153.247 C 110.845 158.267 115.213 220.208 115.584 225.477 C 121.048 225.157 209.127 220.001 213.03 219.773 C 214.124 216.125 235.735 144.085 238.093 136.233 C 229.685 137.354 115.664 152.557 110.491 153.247 z "
   style="opacity:0.5;fill:url(#XMLID_1_);stroke:none;"
   id="path613" /><linearGradient
   x1="48.044899"
   y1="34.6860008"
   x2="198.232407"
   y2="34.6860008"
   id="XMLID_2_"
   gradientUnits="userSpaceOnUse"
   gradientTransform="matrix(0.9573,0.289,-0.289,0.9573,49.2305,38.3018)"><stop
   style="stop-color:#a7abac;stop-opacity:1;"
   offset="0"
   id="stop615" /><stop
   style="stop-color:#85898a;stop-opacity:1;"
   offset="1"
   id="stop616" /><a:midPointStop
   offset="0"
   style="stop-color:#A7ABAC"
   id="midPointStop617" /><a:midPointStop
   offset="0.5"
   style="stop-color:#A7ABAC"
   id="midPointStop618" /><a:midPointStop
   offset="1"
   style="stop-color:#85898A"
   id="midPointStop619" /></linearGradient><path
   d="M 121.019 8.806 C 114.602 6.869 107.804 10.514 105.867 16.932 L 64.534 153.855 C 62.597 160.273 66.242 167.07 72.66 169.008 L 193.153 205.378 C 199.571 207.315 206.368 203.67 208.306 197.255 L 249.638 60.33 C 251.576 53.913 247.93 47.116 241.513 45.178 L 121.019 8.806 z "
   style="fill:url(#XMLID_2_);stroke:none;"
   id="path620" /><path
   d="M 67.958 154.889 C 66.589 159.426 69.157 164.216 73.694 165.584 L 194.187 201.957 C 198.724 203.326 203.512 200.759 204.882 196.221 L 246.215 59.297 C 247.584 54.759 245.016 49.971 240.48 48.602 L 119.986 12.229 C 115.448 10.859 110.66 13.427 109.29 17.964 L 67.958 154.889 z "
   style="fill:#99ccff;stroke:none;"
   id="path621" /><linearGradient
   x1="92.0298004"
   y1="3.57809997"
   x2="261.520111"
   y2="173.068405"
   id="XMLID_3_"
   gradientUnits="userSpaceOnUse"
   gradientTransform="matrix(0.9573,0.289,-0.289,0.9573,49.2305,38.3018)"><stop
   style="stop-color:#ffffff;stop-opacity:1;"
   offset="0"
   id="stop623" /><stop
   style="stop-color:#99ccff;stop-opacity:1;"
   offset="1"
   id="stop624" /><a:midPointStop
   offset="0"
   style="stop-color:#FFFFFF"
   id="midPointStop625" /><a:midPointStop
   offset="0.5"
   style="stop-color:#FFFFFF"
   id="midPointStop626" /><a:midPointStop
   offset="1"
   style="stop-color:#99CCFF"
   id="midPointStop627" /></linearGradient><path
   d="M 118.952 15.652 C 116.31 14.854 113.511 16.355 112.713 18.998 L 71.381 155.921 C 70.584 158.565 72.085 161.363 74.727 162.161 L 195.221 198.534 C 197.862 199.33 200.661 197.831 201.458 195.189 L 242.792 58.263 C 243.589 55.62 242.088 52.822 239.446 52.024 L 118.952 15.652 z "
   style="fill:url(#XMLID_3_);stroke:none;"
   id="path628" /><path
   d="M 185.594 99.265 C 201.925 91.173 218.997 89.921 236.349 91.977 L 246.215 59.297 C 247.584 54.759 245.016 49.971 240.48 48.602 L 119.986 12.229 C 115.448 10.859 110.66 13.427 109.29 17.964 L 79.682 116.048 C 112.854 128.856 152.089 114.929 185.594 99.265 z "
   style="opacity:0.4;fill:#ffffff;stroke:none;"
   id="path629" /><linearGradient
   x1="0.96340001"
   y1="77.1635971"
   x2="234.960602"
   y2="239.161896"
   id="XMLID_4_"
   gradientUnits="userSpaceOnUse"><stop
   style="stop-color:#cc3333;stop-opacity:1;"
   offset="0"
   id="stop631" /><stop
   style="stop-color:#990000;stop-opacity:1;"
   offset="1"
   id="stop632" /><a:midPointStop
   offset="0"
   style="stop-color:#CC3333"
   id="midPointStop633" /><a:midPointStop
   offset="0.5"
   style="stop-color:#CC3333"
   id="midPointStop634" /><a:midPointStop
   offset="1"
   style="stop-color:#990000"
   id="midPointStop635" /></linearGradient><path
   d="M 194.318 72.674 C 194.318 72.674 74.572 89.161 65.385 90.425 C 65.338 90.084 65.23 89.297 65.23 89.297 C 63.885 79.523 55.235 72.611 45.949 73.89 L 16.176 77.989 C 11.838 78.586 7.956 80.884 5.247 84.457 C 2.877 87.583 1.601 91.499 1.601 95.49 C 1.601 96.337 1.659 97.187 1.775 98.033 C 1.775 98.033 3.506 110.604 3.506 110.604 C 3.506 110.604 3.55 110.861 3.572 110.985 C 3.595 111.153 18.734 221.109 18.734 221.109 L 19.331 222.038 C 25.224 231.2 32.255 239.423 40.228 246.477 L 41.948 247.998 L 220.126 223.467 L 199.271 71.992 L 194.318 72.674 z "
   style="fill:url(#XMLID_4_);stroke:none;"
   id="path636" /><linearGradient
   x1="108.474098"
   y1="122.947304"
   x2="108.474098"
   y2="221.935501"
   id="XMLID_5_"
   gradientUnits="userSpaceOnUse"
   gradientTransform="matrix(0.9907,-0.1364,0.1364,0.9907,-17.8313,20.72)"><stop
   style="stop-color:#ff6666;stop-opacity:1;"
   offset="0"
   id="stop638" /><stop
   style="stop-color:#ff3333;stop-opacity:1;"
   offset="1"
   id="stop639" /><a:midPointStop
   offset="0"
   style="stop-color:#FF6666"
   id="midPointStop640" /><a:midPointStop
   offset="0.5"
   style="stop-color:#FF6666"
   id="midPointStop641" /><a:midPointStop
   offset="1"
   style="stop-color:#FF3333"
   id="midPointStop642" /></linearGradient><path
   d="M 195 77.627 L 61.114 96.061 L 60.277 89.979 C 59.306 82.924 53.196 77.939 46.631 78.843 L 16.858 82.942 C 10.293 83.846 5.757 90.297 6.729 97.352 L 8.46 109.923 C 8.474 110.024 8.499 110.12 8.515 110.22 L 23.538 219.334 C 29.115 228.006 35.866 235.941 43.542 242.733 L 214.492 219.197 L 195 77.627 z "
   style="fill:url(#XMLID_5_);stroke:none;"
   id="path643" /><linearGradient
   x1="40.9028015"
   y1="91.4419022"
   x2="40.9028015"
   y2="75.4412003"
   id="XMLID_6_"
   gradientUnits="userSpaceOnUse"
   gradientTransform="matrix(0.9907,-0.1364,0.1364,0.9907,-17.8313,20.72)"><stop
   style="stop-color:#cc0000;stop-opacity:1;"
   offset="0"
   id="stop645" /><stop
   style="stop-color:#d00808;stop-opacity:1;"
   offset="5.46000004e-2"
   id="stop646" /><stop
   style="stop-color:#e43131;stop-opacity:1;"
   offset="0.34369999"
   id="stop647" /><stop
   style="stop-color:#f34e4e;stop-opacity:1;"
   offset="0.60750002"
   id="stop648" /><stop
   style="stop-color:#fc6060;stop-opacity:1;"
   offset="0.83499998"
   id="stop649" /><stop
   style="stop-color:#ff6666;stop-opacity:1;"
   offset="1"
   id="stop650" /><a:midPointStop
   offset="0"
   style="stop-color:#CC0000"
   id="midPointStop651" /><a:midPointStop
   offset="0.3616"
   style="stop-color:#CC0000"
   id="midPointStop652" /><a:midPointStop
   offset="1"
   style="stop-color:#FF6666"
   id="midPointStop653" /></linearGradient><path
   d="M 17.267 85.914 C 12.351 86.591 8.956 91.539 9.701 96.942 L 11.431 109.513 C 12.175 114.918 16.781 118.763 21.697 118.087 L 51.47 113.988 C 56.386 113.311 59.781 108.364 59.037 102.959 L 57.306 90.388 C 56.562 84.984 51.956 81.138 47.04 81.814 L 17.267 85.914 z "
   style="fill:url(#XMLID_6_);stroke:none;"
   id="path654" /><linearGradient
   x1="61.1650009"
   y1="85.0537033"
   x2="144.305801"
   y2="193.433502"
   id="XMLID_7_"
   gradientUnits="userSpaceOnUse"
   gradientTransform="matrix(0.9907,-0.1364,0.1364,0.9907,-17.8313,20.72)"><stop
   style="stop-color:#ffffff;stop-opacity:1;"
   offset="0"
   id="stop656" /><stop
   style="stop-color:#ff9999;stop-opacity:1;"
   offset="1"
   id="stop657" /><a:midPointStop
   offset="0"
   style="stop-color:#FFFFFF"
   id="midPointStop658" /><a:midPointStop
   offset="0.5"
   style="stop-color:#FFFFFF"
   id="midPointStop659" /><a:midPointStop
   offset="1"
   style="stop-color:#FF9999"
   id="midPointStop660" /></linearGradient><path
   d="M 10.96 105.994 C 11.546 110.25 22.03 186.402 26.733 220.557 C 27.755 221.914 28.81 223.252 29.896 224.564 C 30.183 203.701 38.739 182.208 55.919 170.384 C 82.544 151.152 115.166 153.47 146.21 144.331 C 171.689 136.3 189.6 112.963 193.385 87.889 C 192.865 84.118 192.53 81.676 192.438 81.008 C 186.773 81.788 16.625 105.214 10.96 105.994 z "
   style="opacity:0.8;fill:url(#XMLID_7_);stroke:none;"
   id="path661" /><path
   d="M 46.903 80.824 L 17.13 84.923 C 12.214 85.6 8.819 90.548 9.564 95.951 L 10.11 99.914 C 9.366 94.51 12.76 89.562 17.676 88.885 L 47.449 84.786 C 52.365 84.109 56.97 87.955 57.715 93.36 L 57.169 89.397 C 56.425 83.994 51.819 80.147 46.903 80.824 z "
   style="fill:#ffffff;stroke:none;"
   id="path662" /><path
   d="M 10.198 105.116 L 25.88 219.019 C 27.046 220.603 28.256 222.151 29.507 223.67 L 15.067 118.783 C 14.21 112.556 18.712 106.793 25.124 105.91 L 191.145 83.053 C 191.772 82.967 192.392 82.945 193.004 82.954 L 192.598 80.003 L 10.198 105.116 z "
   style="fill:#ffffff;stroke:none;"
   id="path663" /><path
   d="M 175.149 223.25 L 213.301 217.997 L 207.68 177.166 L 175.149 223.25 z "
   style="fill:#ff3333;stroke:#cc3333;stroke-width:5;stroke-linejoin:round;"
   id="path664" /><path
   d="M 206.538 188.386 C 206.323 186.827 206.122 185.364 205.942 184.058 C 200.046 192.477 186.104 212.388 180.672 220.144 C 181.875 219.978 183.235 219.791 184.685 219.591 C 190.286 211.592 200.623 196.832 206.538 188.386 z "
   style="fill:#ffffff;stroke:none;"
   id="path665" /><linearGradient
   x1="129.862305"
   y1="110.344704"
   x2="260.677887"
   y2="241.160294"
   id="XMLID_8_"
   gradientUnits="userSpaceOnUse"><stop
   style="stop-color:#ffffff;stop-opacity:1;"
   offset="0"
   id="stop667" /><stop
   style="stop-color:#99ccff;stop-opacity:1;"
   offset="1"
   id="stop668" /><a:midPointStop
   offset="0"
   style="stop-color:#FFFFFF"
   id="midPointStop669" /><a:midPointStop
   offset="0.5"
   style="stop-color:#FFFFFF"
   id="midPointStop670" /><a:midPointStop
   offset="1"
   style="stop-color:#99CCFF"
   id="midPointStop671" /></linearGradient><path
   d="M 199.271 71.992 L 194.318 72.674 C 194.318 72.674 130.276 81.491 92.269 86.724 L 71.381 155.921 C 70.584 158.565 72.085 161.363 74.727 162.161 L 195.221 198.534 C 197.862 199.33 200.661 197.831 201.458 195.189 L 211.604 161.576 L 199.271 71.992 z "
   style="opacity:0.3;fill:url(#XMLID_8_);stroke:none;"
   id="path672" /><linearGradient
   x1="85.1933975"
   y1="83.5146027"
   x2="229.909302"
   y2="183.702805"
   id="XMLID_9_"
   gradientUnits="userSpaceOnUse"><stop
   style="stop-color:#cc0000;stop-opacity:1;"
   offset="0"
   id="stop674" /><stop
   style="stop-color:#cc3333;stop-opacity:1;"
   offset="1"
   id="stop675" /><a:midPointStop
   offset="0"
   style="stop-color:#CC0000"
   id="midPointStop676" /><a:midPointStop
   offset="0.5"
   style="stop-color:#CC0000"
   id="midPointStop677" /><a:midPointStop
   offset="1"
   style="stop-color:#CC3333"
   id="midPointStop678" /></linearGradient><path
   d="M 199.271 71.992 L 211.604 161.576 L 201.458 195.189 C 200.661 197.831 197.861 199.33 195.221 198.534 L 74.727 162.161 C 72.085 161.363 70.584 158.564 71.381 155.921 L 92.269 86.724 C 90.937 86.908 89.636 87.087 88.372 87.261 L 67.957 154.889 C 66.588 159.426 69.156 164.216 73.693 165.584 L 194.186 201.957 C 198.723 203.326 203.511 200.759 204.881 196.221 L 212.774 170.074 L 199.271 71.992 z M 192.1 72.979 C 192.38 72.94 192.628 72.906 192.857 72.875 C 192.628 72.907 192.379 72.941 192.1 72.979 z M 181.007 74.506 C 181.436 74.447 181.856 74.389 182.267 74.333 C 181.855 74.39 181.436 74.447 181.007 74.506 z "
   style="opacity:0.3;fill:url(#XMLID_9_);stroke:none;"
   id="path679" /><linearGradient
   x1="64.0839996"
   y1="146.573196"
   x2="213.945297"
   y2="146.573196"
   id="XMLID_10_"
   gradientUnits="userSpaceOnUse"><stop
   style="stop-color:#a7abac;stop-opacity:1;"
   offset="0"
   id="stop681" /><stop
   style="stop-color:#85898a;stop-opacity:1;"
   offset="1"
   id="stop682" /><a:midPointStop
   offset="0"
   style="stop-color:#A7ABAC"
   id="midPointStop683" /><a:midPointStop
   offset="0.5"
   style="stop-color:#A7ABAC"
   id="midPointStop684" /><a:midPointStop
   offset="1"
   style="stop-color:#85898A"
   id="midPointStop685" /></linearGradient><path
   d="M 212.511 168.155 L 212.775 170.073 L 204.882 196.22 C 203.512 200.758 198.724 203.325 194.187 201.956 L 73.693 165.584 C 69.156 164.216 66.588 159.426 67.957 154.889 L 86.531 93.358 C 86.364 91.383 87.031 89.338 87.948 87.319 C 86.757 87.483 85.597 87.642 84.475 87.797 L 64.534 153.856 C 62.597 160.274 66.242 167.071 72.66 169.009 L 193.153 205.379 C 199.571 207.316 206.368 203.671 208.306 197.256 L 213.945 178.575 L 212.511 168.155 z "
   style="opacity:0.3;fill:url(#XMLID_10_);stroke:none;"
   id="path686" /><linearGradient
   x1="199.2715"
   y1="120.073196"
   x2="212.510696"
   y2="120.073196"
   id="XMLID_11_"
   gradientUnits="userSpaceOnUse"><stop
   style="stop-color:#a7abac;stop-opacity:1;"
   offset="0"
   id="stop688" /><stop
   style="stop-color:#85898a;stop-opacity:1;"
   offset="1"
   id="stop689" /><a:midPointStop
   offset="0"
   style="stop-color:#A7ABAC"
   id="midPointStop690" /><a:midPointStop
   offset="0.5"
   style="stop-color:#A7ABAC"
   id="midPointStop691" /><a:midPointStop
   offset="1"
   style="stop-color:#85898A"
   id="midPointStop692" /></linearGradient><path
   d="M 212.511 168.155 L 199.272 71.991 L 212.511 168.155 z "
   style="fill:url(#XMLID_11_);stroke:none;"
   id="path693" /></g><g
   style="font-size:12;stroke:#000000;"
   id="Layer_2"><path
   d="M 256 256 L 0 256 L 0 0 L 256 0 L 256 256 z "
   style="fill:none;stroke:none;"
   id="path695" /></g></svg>
