<?xml version="1.0" encoding="UTF-8" standalone="no"?>
<!DOCTYPE svg PUBLIC "-//W3C//DTD SVG 20010904//EN"
"http://www.w3.org/TR/2001/REC-SVG-20010904/DTD/svg10.dtd">
<!-- Created with Sodipodi ("http://www.sodipodi.com/") -->
<svg
   width="48pt"
   height="48pt"
   viewBox="0 0 181 202.057"
   style="overflow:visible;enable-background:new 0 0 181 202.057"
   xml:space="preserve"
   xmlns="http://www.w3.org/2000/svg"
   xmlns:xml="http://www.w3.org/XML/1998/namespace"
   xmlns:sodipodi="http://sodipodi.sourceforge.net/DTD/sodipodi-0.dtd"
   xmlns:xlink="http://www.w3.org/1999/xlink"
   id="svg153"
   sodipodi:version="0.32pre"
   sodipodi:docname="/home/cschalle/gnome-themes-extras/Nuvola/icons/scalable/filesystems/gnome-fs-blockdev.svg"
   sodipodi:docbase="/home/cschalle/gnome-themes-extras/Nuvola/icons/scalable/filesystems">
  <defs
     id="defs255" />
  <sodipodi:namedview
     id="base" />
  <g
     id="Layer_1_1_"
     style="font-size:12;stroke:#000000;">
    <linearGradient
       id="XMLID_1_"
       gradientUnits="userSpaceOnUse"
       x1="-131.7256"
       y1="510.1855"
       x2="-113.7248"
       y2="420.1815"
       gradientTransform="matrix(1 0 0 -1 206 520.5293)">
      <stop
         offset="0"
         style="stop-color:#DDE4E9"
         id="stop157" />
      <stop
         offset="1"
         style="stop-color:#B3B9BD"
         id="stop158" />
    </linearGradient>
    <path
       style="fill:url(#XMLID_1_);stroke:none;"
       d="M94.73,0l-2.854,2.284L0,75.785v49.647l86.202,76.624L181,107.26V57.513     L94.73,0z M77,140.188c6,5,13,3,19-1C90,143.188,83,145.188,77,140.188z"
       id="path162" />
    <path
       style="fill:#EDF0F1;stroke:none;"
       d="M95,6.188l-90,72v45l81,72l90-90v-45L95,6.188z M77,140.188c6,5,13,3,19-1     C90,143.188,83,145.188,77,140.188z"
       id="path163" />
    <linearGradient
       id="XMLID_2_"
       gradientUnits="userSpaceOnUse"
       x1="-115.5288"
       y1="514.2637"
       x2="-115.5288"
       y2="435.0197"
       gradientTransform="matrix(1 0 0 -1 206 520.5293)">
      <stop
         offset="0"
         style="stop-color:#EDF0F1"
         id="stop165" />
      <stop
         offset="1"
         style="stop-color:#C0D1DF"
         id="stop166" />
    </linearGradient>
    <path
       style="fill:url(#XMLID_2_);stroke:none;"
       d="M95.161,9.9c-3.193,2.556-80.395,64.316-85.51,68.408     c4.287,3.812,57.753,51.336,72.595,64.53c2.413,0.552,4.886,0.313,7.316-0.456c16.064-16.065,77.482-77.482,81.729-81.728     C165.783,56.981,98.516,12.137,95.161,9.9z"
       id="path170" />
    <linearGradient
       id="XMLID_3_"
       gradientUnits="userSpaceOnUse"
       x1="-107.8989"
       y1="457.9736"
       x2="-206.8997"
       y2="430.9734"
       gradientTransform="matrix(1 0 0 -1 206 520.5293)">
      <stop
         offset="0"
         style="stop-color:#EDF0F1"
         id="stop172" />
      <stop
         offset="1"
         style="stop-color:#C0D1DF"
         id="stop173" />
    </linearGradient>
    <path
       style="fill:url(#XMLID_3_);stroke:none;"
       d="M91.422,12.893c-16.05,12.84-77.236,61.789-81.771,65.416     c3.018,2.684,30.398,27.021,51.527,45.802C71.702,100.333,85.458,77.104,95,52.188C99.818,40.487,98.951,25,91.422,12.893z"
       id="path177" />
    <linearGradient
       id="XMLID_4_"
       gradientUnits="userSpaceOnUse"
       x1="-166.8247"
       y1="403.2441"
       x2="-148.8262"
       y2="340.2495"
       gradientTransform="matrix(1 0 0 -1 206 520.5293)">
      <stop
         offset="0"
         style="stop-color:#FFFFFF"
         id="stop179" />
      <stop
         offset="1"
         style="stop-color:#C0D1DF"
         id="stop180" />
    </linearGradient>
    <path
       style="fill:url(#XMLID_4_);stroke:none;"
       d="M8,84.869c0,9.348,0,34.824,0,36.972c1.841,1.638,66.324,58.955,75,66.667     c0-6.983,0-22.967,0-31.502c-0.747-2.681-1.666-5.313-2.726-7.895C67.644,137.885,15.722,91.732,8,84.869z"
       id="path184" />
    <linearGradient
       id="XMLID_5_"
       gradientUnits="userSpaceOnUse"
       x1="-56.9985"
       y1="392.8271"
       x2="-119.9993"
       y2="392.8272"
       gradientTransform="matrix(1 0 0 -1 206 520.5293)">
      <stop
         offset="0"
         style="stop-color:#EDF0F1"
         id="stop186" />
      <stop
         offset="0.5618"
         style="stop-color:#C2D2D9"
         id="stop187" />
      <stop
         offset="1"
         style="stop-color:#8EA6B9"
         id="stop188" />
    </linearGradient>
    <path
       style="fill:url(#XMLID_5_);stroke:none;"
       d="M89,151.431c0,1.962,0,26.653,0,36.517c9.016-9.018,82.376-82.377,84-84     c0-1.962,0-26.653,0-36.516C163.984,76.447,90.624,149.807,89,151.431z"
       id="path194" />
    <linearGradient
       id="XMLID_6_"
       gradientUnits="userSpaceOnUse"
       x1="-136.5195"
       y1="355.5088"
       x2="-148.7693"
       y2="372.2584"
       gradientTransform="matrix(1 0 0 -1 206 520.5293)">
      <stop
         offset="0"
         style="stop-color:#FFFFFF"
         id="stop196" />
      <stop
         offset="0.0441"
         style="stop-color:#F7F9FA"
         id="stop197" />
      <stop
         offset="0.3672"
         style="stop-color:#C0CFDB"
         id="stop198" />
      <stop
         offset="0.6457"
         style="stop-color:#98B0C3"
         id="stop199" />
      <stop
         offset="0.8657"
         style="stop-color:#7F9DB5"
         id="stop200" />
      <stop
         offset="1"
         style="stop-color:#7696B0"
         id="stop201" />
    </linearGradient>
    <path
       style="fill:url(#XMLID_6_);stroke:none;"
       d="M57.475,148.649l-0.526,8.479l12.279,12.018l0.785-12.641l-12.279-12.019     L57.475,148.649z"
       id="path213" />
    <linearGradient
       id="XMLID_7_"
       gradientUnits="userSpaceOnUse"
       x1="-144.2241"
       y1="364.9717"
       x2="-139.4744"
       y2="354.9723"
       gradientTransform="matrix(1 0 0 -1 206 520.5293)">
      <stop
         offset="0"
         style="stop-color:#97FF99"
         id="stop215" />
      <stop
         offset="0.2156"
         style="stop-color:#7BF17C"
         id="stop216" />
      <stop
         offset="0.5596"
         style="stop-color:#54DD55"
         id="stop217" />
      <stop
         offset="0.8331"
         style="stop-color:#3CD13C"
         id="stop218" />
      <stop
         offset="1"
         style="stop-color:#33CC33"
         id="stop219" />
    </linearGradient>
    <path
       style="fill:url(#XMLID_7_);stroke:none;"
       d="M68,168.188l-9-9v-9l9,9V168.188z"
       id="path229" />
  </g>
</svg>
