<?xml version="1.0" encoding="UTF-8" standalone="no"?>
<!DOCTYPE svg PUBLIC "-//W3C//DTD SVG 20010904//EN"
"http://www.w3.org/TR/2001/REC-SVG-20010904/DTD/svg10.dtd">
<!-- Created with Sodipodi ("http://www.sodipodi.com/") -->
<svg
   version="1"
   x="0.00000000"
   y="0.00000000"
   width="60.0000000"
   height="60.0000000"
   viewBox="0 0 256 256"
   id="svg153"
   xmlns="http://www.w3.org/2000/svg"
   xmlns:xlink="http://www.w3.org/1999/xlink"
   xmlns:sodipodi="http://sodipodi.sourceforge.net/DTD/sodipodi-0.dtd"
   sodipodi:version="0.32"
   sodipodi:docname="/home/cschalle/gnome-themes-extras/Nuvola/icons/scalable/filesystems/gnome-fs-network.svg"
   sodipodi:docbase="/home/cschalle/gnome-themes-extras/Nuvola/icons/scalable/filesystems/">
  <sodipodi:namedview
     id="base" />
  <defs
     id="defs177">
    <linearGradient
       x1="0.00000000"
       y1="0.00000000"
       x2="1.00000000"
       y2="0.00000000"
       id="linearGradient860"
       gradientUnits="objectBoundingBox"
       spreadMethod="pad">
      <stop
         style="stop-color:#0066cc;stop-opacity:1;"
         offset="0.00000000"
         id="stop862" />
      <stop
         style="stop-color:#003366;stop-opacity:1;"
         offset="0.99440002"
         id="stop861" />
    </linearGradient>
    <linearGradient
       x1="0.40770000"
       y1="323.973602"
       x2="0.40770000"
       y2="622.170593"
       id="linearGradient711"
       gradientUnits="userSpaceOnUse"
       gradientTransform="matrix(1.000000,0.000000,0.000000,-1.000000,123.1533,547.5000)"
       spreadMethod="pad">
      <stop
         style="stop-color:#f7f7f7;stop-opacity:1;"
         offset="0.00000000"
         id="stop161" />
      <stop
         style="stop-color:#bfbfbf;stop-opacity:1;"
         offset="1.00000000"
         id="stop162" />
      <midPointStop
         offset="0"
         style="stop-color:#F7F7F7"
         id="midPointStop714" />
      <midPointStop
         offset="0.5"
         style="stop-color:#F7F7F7"
         id="midPointStop715" />
      <midPointStop
         offset="1"
         style="stop-color:#BFBFBF"
         id="midPointStop165" />
    </linearGradient>
    <linearGradient
       x1="0.40770000"
       y1="353.236298"
       x2="0.40770000"
       y2="427.373505"
       id="linearGradient718"
       gradientUnits="userSpaceOnUse"
       gradientTransform="matrix(1.000000,0.000000,0.000000,-1.000000,123.1533,547.5000)"
       spreadMethod="pad">
      <stop
         style="stop-color:#f7f7f7;stop-opacity:1;"
         offset="0.00000000"
         id="stop168" />
      <stop
         style="stop-color:#d9d9d9;stop-opacity:1;"
         offset="1.00000000"
         id="stop720" />
      <midPointStop
         offset="0"
         style="stop-color:#F7F7F7"
         id="midPointStop170" />
      <midPointStop
         offset="0.5"
         style="stop-color:#F7F7F7"
         id="midPointStop722" />
      <midPointStop
         offset="1"
         style="stop-color:#D9D9D9"
         id="midPointStop723" />
    </linearGradient>
    <linearGradient
       x1="0.40770000"
       y1="357.537109"
       x2="0.40770000"
       y2="422.601410"
       id="XMLID_3_"
       gradientUnits="userSpaceOnUse"
       gradientTransform="matrix(1.000000,0.000000,0.000000,-1.000000,123.1533,547.5000)"
       spreadMethod="pad">
      <stop
         style="stop-color:#f7f7f7;stop-opacity:1;"
         offset="0.00000000"
         id="stop175" />
      <stop
         style="stop-color:#bfbfbf;stop-opacity:1;"
         offset="1.00000000"
         id="stop176" />
      <midPointStop
         offset="0"
         style="stop-color:#F7F7F7"
         id="midPointStop177" />
      <midPointStop
         offset="0.5"
         style="stop-color:#F7F7F7"
         id="midPointStop178" />
      <midPointStop
         offset="1"
         style="stop-color:#BFBFBF"
         id="midPointStop179" />
    </linearGradient>
    <linearGradient
       x1="0.40869999"
       y1="358.700195"
       x2="0.40869999"
       y2="350.504791"
       id="XMLID_4_"
       gradientUnits="userSpaceOnUse"
       gradientTransform="matrix(1.000000,0.000000,0.000000,-1.000000,123.1533,547.5000)"
       spreadMethod="pad">
      <stop
         style="stop-color:#ffffff;stop-opacity:1;"
         offset="0.00000000"
         id="stop182" />
      <stop
         style="stop-color:#d9d9d9;stop-opacity:1;"
         offset="1.00000000"
         id="stop183" />
      <midPointStop
         offset="0"
         style="stop-color:#FFFFFF"
         id="midPointStop184" />
      <midPointStop
         offset="0.5"
         style="stop-color:#FFFFFF"
         id="midPointStop185" />
      <midPointStop
         offset="1"
         style="stop-color:#D9D9D9"
         id="midPointStop186" />
    </linearGradient>
    <linearGradient
       x1="0.40770000"
       y1="517.115173"
       x2="0.40770000"
       y2="424.253815"
       id="XMLID_5_"
       gradientUnits="userSpaceOnUse"
       gradientTransform="matrix(1.000000,0.000000,0.000000,-1.000000,123.1533,547.5000)"
       spreadMethod="pad">
      <stop
         style="stop-color:#d9d9d9;stop-opacity:1;"
         offset="0.00000000"
         id="stop189" />
      <stop
         style="stop-color:#bfbfbf;stop-opacity:1;"
         offset="1.00000000"
         id="stop190" />
      <midPointStop
         offset="0"
         style="stop-color:#D9D9D9"
         id="midPointStop191" />
      <midPointStop
         offset="0.5"
         style="stop-color:#D9D9D9"
         id="midPointStop192" />
      <midPointStop
         offset="1"
         style="stop-color:#BFBFBF"
         id="midPointStop193" />
    </linearGradient>
    <linearGradient
       x1="0.40770000"
       y1="439.860413"
       x2="0.40770000"
       y2="403.961914"
       id="XMLID_6_"
       gradientUnits="userSpaceOnUse"
       gradientTransform="matrix(1.000000,0.000000,0.000000,-1.000000,123.1533,547.5000)"
       spreadMethod="pad">
      <stop
         style="stop-color:#d9d9d9;stop-opacity:1;"
         offset="0.00000000"
         id="stop196" />
      <stop
         style="stop-color:#f7f7f7;stop-opacity:1;"
         offset="1.00000000"
         id="stop197" />
      <midPointStop
         offset="0"
         style="stop-color:#D9D9D9"
         id="midPointStop198" />
      <midPointStop
         offset="0.5"
         style="stop-color:#D9D9D9"
         id="midPointStop199" />
      <midPointStop
         offset="1"
         style="stop-color:#F7F7F7"
         id="midPointStop200" />
    </linearGradient>
    <linearGradient
       x1="68.9433975"
       y1="503.632812"
       x2="68.9433975"
       y2="490.719696"
       id="XMLID_9_"
       gradientUnits="userSpaceOnUse"
       gradientTransform="matrix(1.000000,0.000000,0.000000,-1.000000,123.1533,547.5000)"
       spreadMethod="pad">
      <stop
         style="stop-color:#ffffff;stop-opacity:1;"
         offset="0.00000000"
         id="stop225" />
      <stop
         style="stop-color:#999999;stop-opacity:1;"
         offset="1.00000000"
         id="stop226" />
      <midPointStop
         offset="0"
         style="stop-color:#FFFFFF"
         id="midPointStop227" />
      <midPointStop
         offset="0.5"
         style="stop-color:#FFFFFF"
         id="midPointStop228" />
      <midPointStop
         offset="1"
         style="stop-color:#999999"
         id="midPointStop229" />
    </linearGradient>
    <linearGradient
       x1="125.856400"
       y1="56.8018074"
       x2="125.856400"
       y2="245.862793"
       id="linearGradient863"
       xlink:href="#XMLID_6_"
       gradientUnits="userSpaceOnUse"
       gradientTransform="translate(-2.687254e-7,1.941693e-6)"
       spreadMethod="pad" />
  </defs>
  <g
     transform="translate(-5.762054,51.85851)"
     style="font-size:12;stroke:#000000;"
     id="Layer_2">
    <path
       d="M 256 256 L 0 256 L 0 0 L 256 0 L 256 256 z "
       style="opacity:0.2;fill:none;stroke:none;"
       id="path156" />
  </g>
  <path
     d="M 186.942 40.95 C 186.942 39.423 184.42 38.185 181.307 38.185 L 67.693 38.185 C 64.581 38.185 62.058 39.423 62.058 40.95 L 22.622 139.995 L 28.312 193.18 C 28.312 195.5 30.834 197.386 33.946 197.386 L 213.176 197.386 C 216.288 197.386 218.81 195.5 218.81 193.18 L 224.5 139.995 L 186.942 40.95 z "
     transform="translate(-5.762054,51.85851)"
     style="font-size:12;fill:#f7f7f7;"
     id="path157" />
  <path
     d="M 75.571 41.903 C 69.325 41.903 64.482 44.871 63.518 49.009 C 63.178 49.864 24.254 147.621 24.254 147.621 C 24.004 148.246 23.878 148.904 23.878 149.564 C 23.878 149.748 23.888 149.931 23.907 150.116 L 29.597 203.298 C 29.578 203.117 29.568 202.932 29.568 202.749 C 29.568 208.296 35.066 212.811 41.824 212.811 L 221.053 212.811 C 227.811 212.811 233.309 208.296 233.309 202.749 C 233.309 202.932 233.297 203.117 233.278 203.298 L 238.969 150.116 C 238.989 149.933 238.998 149.748 238.998 149.564 C 238.998 148.933 238.884 148.304 238.655 147.705 C 238.655 147.705 201.525 49.791 201.24 49.04 C 200.292 44.886 195.445 41.903 189.183 41.903 L 75.571 41.903 L 75.571 41.903 z "
     transform="translate(-5.762054,51.85849)"
     style="font-size:12;opacity:0.2;"
     id="path158" />
  <path
     d="M 67.693 32.333 C 61.447 32.333 56.604 35.301 55.64 39.439 C 55.3 40.294 16.376 138.051 16.376 138.051 C 16.127 138.676 16 139.334 16 139.995 C 16 140.178 16.01 140.361 16.029 140.546 L 21.719 193.729 C 21.7 193.547 21.69 193.362 21.69 193.18 C 21.69 198.727 27.189 203.241 33.946 203.241 L 213.176 203.241 C 219.935 203.241 225.433 198.727 225.433 193.18 C 225.433 193.362 225.42 193.547 225.402 193.729 L 231.092 140.546 C 231.113 140.363 231.122 140.178 231.122 139.995 C 231.122 139.363 231.007 138.734 230.778 138.135 C 230.778 138.135 193.649 40.221 193.364 39.47 C 192.416 35.317 187.569 32.333 181.307 32.333 L 67.693 32.333 L 67.693 32.333 z "
     transform="translate(-5.762054,51.85851)"
     style="font-size:12;fill:#7f7f7f;"
     id="path159" />
  <path
     d="M 186.942 40.95 C 186.942 39.423 184.42 38.185 181.307 38.185 L 67.693 38.185 C 64.581 38.185 62.058 39.423 62.058 40.95 L 22.622 139.995 L 28.312 193.18 C 28.312 195.5 30.834 197.386 33.946 197.386 L 213.176 197.386 C 216.288 197.386 218.81 195.5 218.81 193.18 L 224.5 139.995 L 186.942 40.95 z "
     transform="translate(-5.762054,51.85851)"
     style="font-size:12;"
     id="path717" />
  <path
     d="M 22.622 139.995 L 28.312 193.18 C 28.312 195.5 30.834 197.386 33.946 197.386 L 213.176 197.386 C 216.288 197.386 218.81 195.5 218.81 193.18 L 224.5 139.995 L 22.622 139.995 z "
     transform="translate(-5.762054,51.85851)"
     style="font-size:12;fill:url(#linearGradient863);"
     id="path173" />
  <path
     d="M 27.105 142.336 L 32.542 189.011 C 32.542 191.05 34.953 192.703 37.925 192.703 L 209.195 192.703 C 212.171 192.703 214.579 191.05 214.579 189.011 L 220.017 142.336 L 27.105 142.336 z "
     transform="translate(-4.938910,54.32796)"
     style="font-size:12;fill:url(#XMLID_3_);"
     id="path180" />
  <path
     d="M 218.81 186.438 C 218.81 189.018 216.285 191.112 213.168 191.112 L 33.742 191.112 C 30.629 191.112 28.103 189.018 28.103 186.438 L 23.624 139.997 L 22.623 139.997 L 28.313 193.181 C 28.313 195.502 30.835 197.388 33.947 197.388 L 213.177 197.388 C 216.289 197.388 218.812 195.502 218.812 193.181 L 224.501 139.997 L 223.287 139.997 L 218.81 186.438 z "
     transform="translate(-5.762054,51.85849)"
     style="font-size:12;fill:url(#XMLID_4_);"
     id="path187" />
  <path
     d="M 22.622 139.995 C 22.622 141.519 25.144 142.759 28.255 142.759 L 218.866 142.759 C 221.977 142.759 224.5 141.522 224.5 139.995 L 186.942 40.95 C 186.942 39.423 184.42 38.185 181.307 38.185 L 67.693 38.185 C 64.581 38.185 62.058 39.423 62.058 40.95 L 22.622 139.995 z "
     transform="translate(-5.762054,51.85851)"
     style="font-size:12;fill:url(#XMLID_5_);"
     id="path194" />
  <path
     d="M 22.622 139.995 C 22.622 141.519 25.144 142.759 28.255 142.759 L 218.866 142.759 C 221.977 142.759 224.5 141.522 224.5 139.995 L 214.896 114.663 L 32.708 114.663 L 22.622 139.995 z "
     transform="translate(-5.762054,51.85851)"
     style="font-size:12;fill:url(#XMLID_6_);"
     id="path201" />
  <path
     d="M 218.866 138.077 L 28.255 138.077 C 26.408 138.077 24.784 137.709 23.756 137.144 L 22.622 139.995 C 22.622 141.519 25.144 142.759 28.255 142.759 L 218.866 142.759 C 221.977 142.759 224.5 141.522 224.5 139.995 L 223.411 137.124 C 222.388 137.699 220.739 138.077 218.866 138.077 z "
     transform="translate(-5.762054,51.85851)"
     style="font-size:12;fill:#ffffff;"
     id="path202" />
  <g
     transform="translate(-5.762054,51.85851)"
     style="font-size:12;stroke:#000000;"
     id="g203">
    <path
       d="M 182.173 182.025 C 182.173 183.32 183.211 184.369 184.487 184.369 L 205.696 184.369 C 206.975 184.369 208.012 183.32 208.012 182.025 L 208.012 170.689 C 208.012 169.392 206.975 168.345 205.696 168.345 L 184.487 168.345 C 183.211 168.345 182.173 169.392 182.173 170.689 L 182.173 182.025 z "
       style="opacity:0.5;fill:#999999;stroke:none;"
       id="path204" />
    <path
       d="M 184.021 182.361 C 184.021 183.469 184.91 184.369 186.004 184.369 L 204.183 184.369 C 205.279 184.369 206.166 183.471 206.166 182.361 L 206.166 172.644 C 206.166 171.535 205.276 170.634 204.183 170.634 L 186.004 170.634 C 184.908 170.634 184.021 171.533 184.021 172.644 L 184.021 182.361 z "
       style="fill:#009900;stroke:none;"
       id="path205" />
    <linearGradient
       x1="71.9399033"
       y1="364.803711"
       x2="71.9399033"
       y2="372.509003"
       id="XMLID_7_"
       gradientUnits="userSpaceOnUse"
       gradientTransform="matrix(1.000000,0.000000,0.000000,-1.000000,123.1533,547.5000)"
       spreadMethod="pad">
      <stop
         style="stop-color:#33cc33;stop-opacity:1;"
         offset="0.00000000"
         id="stop207" />
      <stop
         style="stop-color:#00ff00;stop-opacity:1;"
         offset="1.00000000"
         id="stop208" />
      <midPointStop
         offset="0"
         style="stop-color:#33CC33"
         id="midPointStop209" />
      <midPointStop
         offset="0.5"
         style="stop-color:#33CC33"
         id="midPointStop210" />
      <midPointStop
         offset="1"
         style="stop-color:#00FF00"
         id="midPointStop211" />
    </linearGradient>
    <path
       d="M 186.004 172.145 C 185.73 172.145 185.508 172.37 185.508 172.647 L 185.508 182.362 C 185.508 182.637 185.73 182.865 186.004 182.865 L 204.183 182.865 C 204.457 182.865 204.679 182.637 204.679 182.362 L 204.679 172.647 C 204.679 172.37 204.457 172.145 204.183 172.145 L 186.004 172.145 z "
       style="fill:url(#XMLID_7_);stroke:none;"
       id="path212" />
    <linearGradient
       x1="71.9399033"
       y1="374.519501"
       x2="71.9399033"
       y2="368.825287"
       id="XMLID_8_"
       gradientUnits="userSpaceOnUse"
       gradientTransform="matrix(1.000000,0.000000,0.000000,-1.000000,123.1533,547.5000)"
       spreadMethod="pad">
      <stop
         style="stop-color:#ffffff;stop-opacity:1;"
         offset="0.00000000"
         id="stop214" />
      <stop
         style="stop-color:#00ff00;stop-opacity:1;"
         offset="1.00000000"
         id="stop215" />
      <midPointStop
         offset="0"
         style="stop-color:#FFFFFF"
         id="midPointStop216" />
      <midPointStop
         offset="0.5"
         style="stop-color:#FFFFFF"
         id="midPointStop217" />
      <midPointStop
         offset="1"
         style="stop-color:#00FF00"
         id="midPointStop218" />
    </linearGradient>
    <path
       d="M 204.183 172.145 L 186.004 172.145 C 185.73 172.145 185.508 172.37 185.508 172.647 L 185.508 175.004 C 187.746 176.229 190.987 177 194.599 177 C 198.781 177 202.474 175.962 204.679 174.383 L 204.679 172.647 C 204.679 172.368 204.457 172.145 204.183 172.145 z "
       style="fill:url(#XMLID_8_);stroke:none;"
       id="path219" />
  </g>
  <path
     d="M 224.5 139.995 L 186.942 40.95 C 186.942 39.423 184.42 38.185 181.307 38.185 C 184.418 38.185 186.942 40.079 186.942 42.415 L 211.813 142.758 L 218.866 142.758 C 221.979 142.759 224.5 141.521 224.5 139.995 z "
     transform="translate(-5.762054,51.85851)"
     style="font-size:12;opacity:0.3;fill:#ffffff;"
     id="path220" />
  <path
     d="M 67.693 38.186 C 64.581 38.186 62.058 39.424 62.058 40.951 L 22.622 139.996 C 22.622 141.521 25.144 142.76 28.255 142.76 L 35.942 142.76 L 62.058 42.416 C 62.058 40.079 64.581 38.186 67.693 38.186 z "
     transform="translate(-5.762054,51.85851)"
     style="font-size:12;opacity:0.3;fill:#ffffff;"
     id="path221" />
  <path
     d="M 67.693 38.186 C 64.581 38.186 62.058 39.424 62.058 40.951 L 22.622 139.996 C 22.622 141.521 25.144 142.76 28.255 142.76 L 30.338 142.76 L 62.058 41.695 C 62.058 39.756 64.581 38.186 67.693 38.186 z "
     transform="translate(-5.762054,51.85851)"
     style="font-size:12;opacity:0.3;fill:#ffffff;"
     id="path222" />
  <path
     d="M 224.5 139.995 L 186.942 40.95 C 186.942 39.423 184.42 38.185 181.307 38.185 C 184.418 38.185 186.942 39.756 186.942 41.693 L 217.151 142.758 L 218.866 142.758 C 221.979 142.759 224.5 141.521 224.5 139.995 z "
     transform="translate(-5.762054,51.85851)"
     style="font-size:12;opacity:0.3;fill:#ffffff;"
     id="path223" />
  <path
     d="M 186.942 40.95 L 197.25 68.136 C 197.251 68.136 197.251 68.136 197.251 68.136 L 186.942 40.95 z "
     transform="translate(-5.762054,51.85851)"
     style="font-size:12;opacity:0.4;fill:url(#XMLID_9_);"
     id="path230" />
  <path
     d="M 115.857 82.485 L 202.692 82.485 L 186.942 40.95 C 186.942 39.423 184.42 38.185 181.307 38.185 L 67.693 38.185 C 64.581 38.185 62.058 39.423 62.058 40.95 L 33.438 112.829 L 115.857 82.485 z "
     transform="translate(-5.762054,51.85851)"
     style="font-size:12;opacity:0.5;fill:#ffffff;"
     id="path231" />
  <g
     transform="matrix(0.690344,0.000000,0.000000,0.657984,-1.883359,-0.836189)"
     style="font-size:12;stroke:#000000;"
     id="Layer_1">
    <path
       d="M 256 256 L 0 256 L 0 0 L 256 0 L 256 256 z "
       style="opacity:0.2;fill:none;stroke:none;"
       id="path155" />
    <radialGradient
       cx="116.816902"
       cy="47.0796013"
       fx="116.816902"
       fy="47.0796013"
       r="182.337097"
       id="XMLID_1_"
       gradientUnits="userSpaceOnUse"
       spreadMethod="pad">
      <stop
         style="stop-color:#ffffff;stop-opacity:1;"
         offset="0.00000000"
         id="stop157" />
      <stop
         style="stop-color:#99ccff;stop-opacity:1;"
         offset="0.59549999"
         id="stop158" />
      <stop
         style="stop-color:#3399ff;stop-opacity:1;"
         offset="0.99440002"
         id="stop159" />
      <midPointStop
         offset="0"
         style="stop-color:#FFFFFF"
         id="midPointStop160" />
      <midPointStop
         offset="0.5"
         style="stop-color:#FFFFFF"
         id="midPointStop161" />
      <midPointStop
         offset="0.5955"
         style="stop-color:#99CCFF"
         id="midPointStop162" />
      <midPointStop
         offset="0.5"
         style="stop-color:#99CCFF"
         id="midPointStop163" />
      <midPointStop
         offset="0.9944"
         style="stop-color:#3399FF"
         id="midPointStop164" />
    </radialGradient>
    <path
       d="M 126.148 237.98 C 188.107 237.98 238.371 187.507 238.371 125.585 C 238.371 64.057 188.109 13.575 126.148 13.575 C 64.628 13.578 13.935 64.057 13.935 125.585 C 13.936 187.508 64.629 237.98 126.148 237.98 z "
       style="fill:url(#XMLID_1_);stroke:none;"
       id="path165" />
    <path
       d="M 212.02 53.625 C 228.459 73.136 238.372 98.27 238.372 125.586 C 238.372 187.508 188.108 237.981 126.149 237.981 C 99.02 237.981 73.999 228.162 54.5 211.877 C 75.159 236.373 106.01 251.981 140.214 251.981 C 202.173 251.981 252.437 201.508 252.437 139.586 C 252.436 105.177 236.713 74.227 212.02 53.625 z "
       style="opacity:0.2;stroke:none;"
       id="path166" />
    <path
       d="M 126.148 7 C 60.647 7.003 7.359 60.201 7.359 125.586 C 7.359 191.186 60.647 244.557 126.148 244.557 C 191.654 244.557 244.947 191.186 244.947 125.586 C 244.947 60.197 191.654 7 126.148 7 z M 126.148 237.98 C 64.628 237.98 13.935 187.507 13.935 125.585 C 13.935 64.057 64.628 13.578 126.148 13.575 C 188.109 13.575 238.371 64.057 238.371 125.585 C 238.371 187.508 188.107 237.98 126.148 237.98 z "
       style="fill:#003366;stroke:none;"
       id="path167" />
    <linearGradient
       x1="125.856400"
       y1="56.8017998"
       x2="125.856400"
       y2="245.862793"
       id="XMLID_2_"
       xlink:href="#linearGradient860"
       gradientUnits="userSpaceOnUse"
       spreadMethod="pad">
      <midPointStop
         offset="0"
         style="stop-color:#0066CC"
         id="midPointStop171" />
      <midPointStop
         offset="0.5"
         style="stop-color:#0066CC"
         id="midPointStop172" />
      <midPointStop
         offset="0.9944"
         style="stop-color:#003366"
         id="midPointStop173" />
    </linearGradient>
    <path
       d="M 88.875 25.919 C 88.32 25.919 87.713 26.148 87.09 26.5 C 88.55 26.071 89.237 25.919 88.875 25.919 z M 125.005 32.969 L 125.369 27.684 L 119.79 28.035 L 120.528 32.97 L 125.005 32.97 L 125.005 32.969 z M 62.056 124.314 C 60.935 123.254 61.685 118.668 61.685 118.668 C 61.685 118.668 44.921 109.857 26.67 104.563 C 24.419 103.91 25.556 99.276 27.782 97.518 L 27.039 92.565 C 26.67 90.106 30.767 78.116 34.864 77.063 C 38.963 75.999 34.492 84.111 34.492 84.111 L 30.395 86.58 C 30.395 86.58 35.234 92.218 36.357 92.218 C 37.471 92.218 39.334 89.396 39.334 89.396 L 34.121 85.88 L 38.965 83.757 L 39.268 81.898 L 40.081 81.641 L 48.097 69.498 C 53.638 67.231 60.446 64.422 61.313 64.007 C 62.803 63.306 73.232 57.317 75.094 55.903 C 76.961 54.487 81.051 54.846 82.537 54.846 C 84.034 54.846 86.268 54.138 86.638 50.253 C 87.01 46.375 88.503 45.669 89.622 46.73 C 90.738 47.783 88.5 49.548 91.11 50.253 C 93.717 50.962 95.947 52.725 97.814 50.962 C 99.176 49.669 97.354 48.199 96.126 47.088 L 116.807 47.088 L 119.047 40.73 L 114.205 40.026 L 96.319 38.264 L 96.319 36.147 L 94.893 36.388 C 96.83 25.749 108.331 27.502 99.674 21.343 C 99.148 20.965 91.573 33.279 89.646 33.039 C 86.154 32.579 81.642 32.543 80.678 33.677 C 79.409 35.176 83.535 28.519 87.09 26.5 C 81.418 28.172 63.496 34.303 44.548 54.486 C 26.436 73.78 19.214 99.773 19.214 100.683 C 19.214 102.444 22.942 103.152 23.315 105.27 C 23.688 107.376 16.241 114.437 16.241 117.963 C 16.241 119.588 14.483 141.324 20.704 159.23 C 27.973 180.126 43.487 197.578 45.291 198.726 L 49.012 196.956 C 49.012 196.956 40.446 181.796 40.074 180.38 C 39.705 178.976 49.758 158.519 54.603 159.23 C 59.442 159.923 58.328 161.345 61.308 159.58 C 64.286 157.82 66.148 143.351 69.5 141.951 C 72.855 140.533 76.577 138.773 76.211 135.248 C 75.832 131.713 63.17 125.371 62.052 124.314 L 62.056 124.314 z M 142.884 20.629 L 132.828 17.099 L 134.691 22.747 L 142.884 20.629 z M 105.261 33.678 C 106.382 33.678 128.73 18.872 126.493 18.514 C 124.263 18.164 123.887 18.514 117.92 17.809 C 111.965 17.102 105.626 26.274 104.142 27.686 C 102.656 29.101 103.157 33.678 105.261 33.678 z M 207.816 140.012 L 210.701 136.27 L 207.816 135.254 L 205.653 137.975 L 203.132 141.705 L 205.294 142.728 L 207.816 140.012 z M 220.43 152.256 L 219.708 146.815 L 215.031 146.815 L 214.668 150.889 L 210.335 150.217 L 209.26 145.793 L 207.099 144.436 L 204.569 147.491 L 202.053 146.815 L 201.327 149.186 L 204.214 149.877 L 204.214 171.965 L 214.416 174.42 C 214.182 174.828 214.005 175.172 213.945 175.358 C 213.218 177.741 216.826 178.768 219.344 177.741 C 220.286 177.366 223.252 174.366 225.115 169.932 C 227.713 163.754 229.981 155.598 230.437 152.715 L 231.606 150.219 L 224.394 152.934 L 220.427 152.26 L 220.43 152.256 z M 235.574 111.124 L 233.692 107.479 C 231.463 94.907 226.349 78.809 215.392 62.179 C 198.899 37.178 153.012 22.757 153.012 22.757 L 150.494 25.809 L 149.049 23.437 L 145.442 22.072 L 145.442 25.131 L 148.692 27.856 L 146.528 28.874 L 138.234 29.55 L 119.488 39.751 L 121.285 47.906 L 119.119 48.592 L 118.047 50.287 L 124.173 59.459 L 124.534 62.524 L 119.488 63.542 L 119.488 69.656 L 116.606 70.335 L 116.969 75.096 L 92.448 92.096 L 93.171 101.603 C 94.969 103.986 109.036 118.265 109.036 118.265 C 109.036 118.265 125.254 118.936 128.862 116.904 C 132.467 114.865 129.942 118.94 131.026 119.961 C 132.106 120.988 132.467 128.117 133.546 128.8 C 134.626 129.478 133.546 133.553 134.989 134.92 C 136.43 136.27 136.43 152.596 136.43 152.596 C 136.43 152.596 145.083 167.203 145.083 170.948 C 145.083 174.684 144.722 174.344 151.575 174.007 C 158.425 173.667 159.864 170.948 161.303 169.933 C 162.751 168.91 162.751 166.529 164.195 164.488 C 165.64 162.445 168.154 154.633 171.405 151.918 C 174.646 149.191 183.3 147.15 184.017 142.398 C 184.738 137.638 187.983 133.896 187.983 133.896 L 203.57 117.409 L 203.132 119.626 L 202.769 128.114 L 207.457 126.419 L 207.1 117.236 L 205.414 115.457 L 205.654 115.198 C 205.654 115.198 204.569 113.162 203.133 113.162 C 201.691 113.162 193.032 115.198 191.596 114.861 C 190.151 114.519 184.018 98.203 182.938 97.53 C 181.856 96.849 175.01 85.631 175.01 85.631 C 175.01 85.631 190.87 104.667 193.394 112.14 C 194.858 116.494 200.36 112.442 204.837 107.897 L 206.021 110.785 L 208.901 110.098 L 208.54 106.701 L 211.783 106.701 L 211.783 111.8 L 210.703 114.52 L 210.332 118.935 L 213.221 121.661 L 214.667 119.285 L 219.344 114.862 L 224.757 112.141 L 226.2 114.862 L 226.923 118.603 L 225.475 122.679 L 222.595 125.058 L 221.152 131.178 L 221.152 134.229 L 217.912 132.194 L 217.551 125.739 L 212.865 126.083 L 210.704 131.853 L 213.948 136.622 L 221.516 137.64 L 227.649 131.854 L 228.367 120.648 L 231.093 117.047 C 232.87 121.613 234.139 126.392 234.139 130.842 C 234.139 135.722 236.369 127.461 234.471 112.578 L 235.577 111.125 L 235.577 111.124 L 235.574 111.124 z M 144.722 76.456 L 125.256 75.766 L 133.541 68.973 L 137.871 68.973 L 144.721 73.727 L 144.721 76.455 L 144.722 76.456 z M 168.521 74.078 L 168.521 77.137 L 160.23 77.137 L 160.95 79.179 L 155.899 79.863 L 155.541 81.556 L 151.937 80.882 L 145.445 79.514 L 146.529 77.82 L 147.612 75.772 L 151.215 72.038 L 152.66 74.759 L 158.07 74.417 L 160.951 71.356 L 172.123 73.396 L 168.522 74.082 L 168.522 74.078 L 168.521 74.078 z M 169.235 69.654 L 164.914 70.333 L 164.194 67.27 L 169.594 66.593 L 170.32 63.536 L 174.293 67.62 L 169.235 69.649 L 169.235 69.654 L 169.235 69.654 z M 190.149 175.355 L 187.623 177.394 L 187.982 182.499 L 191.228 182.499 L 191.228 178.087 L 194.117 174.339 L 194.117 166.525 L 192.312 166.175 L 190.153 175.355 L 190.149 175.355 z M 166 165.17 C 166 165.17 163.475 165.834 166.355 166.861 C 169.235 167.886 180.775 150.216 180.775 150.216 L 171.04 156.325 L 165.996 165.169 L 166 165.169 L 166 165.17 z M 146.374 230.313 L 144.218 228.258 L 139.89 227.569 L 139.172 229.626 L 133.406 228.948 L 133.044 226.21 L 128.72 226.21 L 124.035 228.948 L 115.749 228.948 L 115.03 226.891 L 101.7 225.516 L 99.534 227.569 L 94.133 226.21 L 93.412 221.409 L 90.89 221.059 L 88.007 226.209 L 78.281 225.863 C 80.018 226.687 94.548 235.351 116.826 237.164 C 146.373 239.553 160.427 232.371 160.427 232.371 L 159.345 231.34 L 146.373 230.317 L 146.373 230.313 L 146.374 230.313 z "
       style="fill:url(#XMLID_2_);stroke:none;"
       id="path174" />
    <path
       d="M 125.77 103.102 C 164.208 103.102 197.646 89.857 214.849 70.337 C 197.526 37.273 164.053 14.707 125.606 14.707 C 87.495 14.709 53.977 37.199 36.542 70.17 C 53.701 89.782 87.222 103.102 125.77 103.102 z "
       style="opacity:0.5;fill:#ffffff;stroke:none;"
       id="path175" />
  </g>
</svg>
