<?xml version="1.0" encoding="UTF-8" standalone="no"?>
<!DOCTYPE svg PUBLIC "-//W3C//DTD SVG 20010904//EN"
"http://www.w3.org/TR/2001/REC-SVG-20010904/DTD/svg10.dtd">
<!-- Created with Sodipodi ("http://www.sodipodi.com/") -->
<svg
   width="48pt"
   height="48pt"
   viewBox="0 0 256 256"
   overflow="visible"
   enable-background="new 0 0 256 256"
   xml:space="preserve"
   xmlns="http://www.w3.org/2000/svg"
   xmlns:xml="http://www.w3.org/XML/1998/namespace"
   xmlns:a="http://ns.adobe.com/AdobeSVGViewerExtensions/3.0/"
   xmlns:sodipodi="http://sodipodi.sourceforge.net/DTD/sodipodi-0.dtd"
   xmlns:xlink="http://www.w3.org/1999/xlink"
   id="svg153"
   sodipodi:version="0.32pre"
   sodipodi:docname="/home/cschalle/gnome-themes-extras/Nuvola/icons/scalable/filesystems/gnome-fs-directory-accept.svg"
   sodipodi:docbase="/home/cschalle/gnome-themes-extras/Nuvola/icons/scalable/filesystems">
  <defs
     id="defs255" />
  <sodipodi:namedview
     id="base" />
  <metadata
     id="metadata154">
    <sfw>
      <slices />
      <sliceSourceBounds
         y="268"
         x="178"
         width="256"
         height="256"
         bottomLeftOrigin="true" />
      <optimizationSettings>
        <targetSettings
           fileFormat="PNG24Format"
           targetSettingsID="0">
          <PNG24Format
             transparency="true"
             includeCaption="false"
             interlaced="false"
             noMatteColor="false"
             matteColor="#FFFFFF"
             filtered="false" />
        </targetSettings>
      </optimizationSettings>
    </sfw>
  </metadata>
  <g
     id="Layer_1"
     stroke="#000000">
    <path
       opacity="0.2"
       stroke="none"
       d="M248.491,138.233l-37.513,5.002l-8.707-63.244l-4.953,0.682    c0,0-119.746,16.487-128.933,17.751c-0.047-0.341-0.155-1.128-0.155-1.128c-1.345-9.774-9.995-16.686-19.281-15.407l-29.773,4.099    c-4.338,0.597-8.22,2.895-10.929,6.468c-2.37,3.126-3.646,7.042-3.646,11.033c0,0.847,0.058,1.697,0.174,2.543    c0,0,1.731,12.571,1.731,12.571c0,0,0.044,0.257,0.066,0.381c0.023,0.168,15.162,110.124,15.162,110.124l0.597,0.929    c5.893,9.162,12.924,17.385,20.897,24.439l1.72,1.521l178.178-24.531L248.491,138.233z"
       id="path156" />
    <linearGradient
       id="XMLID_1_"
       gradientUnits="userSpaceOnUse"
       x1="177.9912"
       y1="163.7754"
       x2="177.9912"
       y2="222.4602">
      <stop
         offset="0"
         style="stop-color:#3399FF"
         id="stop158" />
      <stop
         offset="1"
         style="stop-color:#3399FF"
         id="stop159" />
      <a:midPointStop
         offset="0"
         style="stop-color:#3399FF"
         id="midPointStop160" />
      <a:midPointStop
         offset="0.5"
         style="stop-color:#3399FF"
         id="midPointStop161" />
      <a:midPointStop
         offset="1"
         style="stop-color:#3399FF"
         id="midPointStop162" />
    </linearGradient>
    <path
       fill="url(#XMLID_1_)"
       stroke="#003399"
       stroke-width="5"
       stroke-linejoin="round"
       d="M218.491,220.233l-102.5,6l-5.5-78    l135-18L218.491,220.233z"
       id="path163" />
    <linearGradient
       id="XMLID_2_"
       gradientUnits="userSpaceOnUse"
       x1="230.5273"
       y1="134.9355"
       x2="194.5305"
       y2="161.9332">
      <stop
         offset="0"
         style="stop-color:#3399FF"
         id="stop165" />
      <stop
         offset="1"
         style="stop-color:#000000"
         id="stop166" />
      <a:midPointStop
         offset="0"
         style="stop-color:#3399FF"
         id="midPointStop167" />
      <a:midPointStop
         offset="0.5"
         style="stop-color:#3399FF"
         id="midPointStop168" />
      <a:midPointStop
         offset="1"
         style="stop-color:#000000"
         id="midPointStop169" />
    </linearGradient>
    <path
       opacity="0.5"
       fill="url(#XMLID_2_)"
       stroke="none"
       d="M110.491,153.247c0.354,5.02,4.722,66.961,5.093,72.23    c5.464-0.32,93.543-5.476,97.446-5.704c1.094-3.648,22.705-75.688,25.063-83.54C229.685,137.354,115.664,152.557,110.491,153.247z    "
       id="path170" />
    <linearGradient
       id="XMLID_3_"
       gradientUnits="userSpaceOnUse"
       x1="47.6309"
       y1="34.6528"
       x2="197.8115"
       y2="34.6528"
       gradientTransform="matrix(0.9573 0.289 -0.289 0.9573 49.6159 38.4555)">
      <stop
         offset="0"
         style="stop-color:#A7ABAC"
         id="stop172" />
      <stop
         offset="1"
         style="stop-color:#85898A"
         id="stop173" />
      <a:midPointStop
         offset="0"
         style="stop-color:#A7ABAC"
         id="midPointStop174" />
      <a:midPointStop
         offset="0.5"
         style="stop-color:#A7ABAC"
         id="midPointStop175" />
      <a:midPointStop
         offset="1"
         style="stop-color:#85898A"
         id="midPointStop176" />
    </linearGradient>
    <path
       fill="url(#XMLID_3_)"
       stroke="none"
       d="M121.019,8.806c-6.417-1.937-13.215,1.708-15.152,8.126L64.534,153.855    c-1.937,6.418,1.708,13.215,8.126,15.153l120.493,36.37c6.418,1.937,13.215-1.708,15.153-8.123L249.638,60.33    c1.938-6.417-1.708-13.214-8.125-15.152L121.019,8.806z"
       id="path177" />
    <path
       fill="#99CCFF"
       stroke="none"
       d="M67.958,154.889c-1.369,4.537,1.199,9.327,5.736,10.695l120.493,36.373    c4.537,1.369,9.325-1.198,10.695-5.736l41.333-136.924c1.369-4.538-1.199-9.326-5.735-10.695L119.986,12.229    c-4.538-1.37-9.326,1.198-10.696,5.735L67.958,154.889z"
       id="path178" />
    <linearGradient
       id="XMLID_4_"
       gradientUnits="userSpaceOnUse"
       x1="91.6133"
       y1="3.5444"
       x2="261.0986"
       y2="173.0297"
       gradientTransform="matrix(0.9573 0.289 -0.289 0.9573 49.6159 38.4555)">
      <stop
         offset="0"
         style="stop-color:#FFFFFF"
         id="stop180" />
      <stop
         offset="1"
         style="stop-color:#99CCFF"
         id="stop181" />
      <a:midPointStop
         offset="0"
         style="stop-color:#FFFFFF"
         id="midPointStop182" />
      <a:midPointStop
         offset="0.5"
         style="stop-color:#FFFFFF"
         id="midPointStop183" />
      <a:midPointStop
         offset="1"
         style="stop-color:#99CCFF"
         id="midPointStop184" />
    </linearGradient>
    <path
       fill="url(#XMLID_4_)"
       stroke="none"
       d="M118.952,15.652c-2.642-0.798-5.441,0.703-6.239,3.346L71.381,155.921    c-0.797,2.644,0.704,5.442,3.346,6.24l120.494,36.373c2.641,0.796,5.44-0.703,6.237-3.345l41.334-136.926    c0.797-2.643-0.704-5.441-3.346-6.239L118.952,15.652z"
       id="path185" />
    <path
       opacity="0.4"
       fill="#FFFFFF"
       stroke="none"
       d="M185.594,99.265c16.331-8.092,33.403-9.344,50.755-7.288l9.866-32.68    c1.369-4.538-1.199-9.326-5.735-10.695L119.986,12.229c-4.538-1.37-9.326,1.198-10.696,5.735l-29.608,98.084    C112.854,128.856,152.089,114.929,185.594,99.265z"
       id="path186" />
    <linearGradient
       id="XMLID_5_"
       gradientUnits="userSpaceOnUse"
       x1="0.9634"
       y1="77.1636"
       x2="234.9606"
       y2="239.1619">
      <stop
         offset="0"
         style="stop-color:#0066CC"
         id="stop188" />
      <stop
         offset="1"
         style="stop-color:#003399"
         id="stop189" />
      <a:midPointStop
         offset="0"
         style="stop-color:#0066CC"
         id="midPointStop190" />
      <a:midPointStop
         offset="0.5"
         style="stop-color:#0066CC"
         id="midPointStop191" />
      <a:midPointStop
         offset="1"
         style="stop-color:#003399"
         id="midPointStop192" />
    </linearGradient>
    <path
       fill="url(#XMLID_5_)"
       stroke="none"
       d="M194.318,72.674c0,0-119.746,16.487-128.933,17.751    c-0.047-0.341-0.155-1.128-0.155-1.128c-1.345-9.774-9.995-16.686-19.281-15.407l-29.773,4.099    c-4.338,0.597-8.22,2.895-10.929,6.468c-2.37,3.126-3.646,7.042-3.646,11.033c0,0.847,0.058,1.697,0.174,2.543    c0,0,1.731,12.571,1.731,12.571c0,0,0.044,0.257,0.066,0.381c0.023,0.168,15.162,110.124,15.162,110.124l0.597,0.929    c5.893,9.162,12.924,17.385,20.897,24.439l1.72,1.521l178.178-24.531L199.271,71.992L194.318,72.674z"
       id="path193" />
    <linearGradient
       id="XMLID_6_"
       gradientUnits="userSpaceOnUse"
       x1="108.4741"
       y1="122.9473"
       x2="108.4741"
       y2="221.9355"
       gradientTransform="matrix(0.9907 -0.1364 0.1364 0.9907 -17.8313 20.72)">
      <stop
         offset="0"
         style="stop-color:#99CCFF"
         id="stop195" />
      <stop
         offset="1"
         style="stop-color:#3399FF"
         id="stop196" />
      <a:midPointStop
         offset="0"
         style="stop-color:#99CCFF"
         id="midPointStop197" />
      <a:midPointStop
         offset="0.5"
         style="stop-color:#99CCFF"
         id="midPointStop198" />
      <a:midPointStop
         offset="1"
         style="stop-color:#3399FF"
         id="midPointStop199" />
    </linearGradient>
    <path
       fill="url(#XMLID_6_)"
       stroke="none"
       d="M195,77.627L61.114,96.061l-0.837-6.082c-0.971-7.055-7.081-12.04-13.646-11.136    l-29.773,4.099c-6.565,0.904-11.101,7.355-10.129,14.41l1.731,12.571c0.014,0.101,0.039,0.197,0.055,0.297l15.023,109.114    c5.577,8.672,12.328,16.607,20.004,23.399l170.95-23.536L195,77.627z"
       id="path200" />
    <linearGradient
       id="XMLID_7_"
       gradientUnits="userSpaceOnUse"
       x1="40.9028"
       y1="91.4419"
       x2="40.9028"
       y2="75.4412"
       gradientTransform="matrix(0.9907 -0.1364 0.1364 0.9907 -17.8313 20.72)">
      <stop
         offset="0"
         style="stop-color:#3399FF"
         id="stop202" />
      <stop
         offset="0.0546"
         style="stop-color:#3B9DFF"
         id="stop203" />
      <stop
         offset="0.3437"
         style="stop-color:#64B1FF"
         id="stop204" />
      <stop
         offset="0.6075"
         style="stop-color:#81C0FF"
         id="stop205" />
      <stop
         offset="0.835"
         style="stop-color:#93C9FF"
         id="stop206" />
      <stop
         offset="1"
         style="stop-color:#99CCFF"
         id="stop207" />
      <a:midPointStop
         offset="0"
         style="stop-color:#3399FF"
         id="midPointStop208" />
      <a:midPointStop
         offset="0.3616"
         style="stop-color:#3399FF"
         id="midPointStop209" />
      <a:midPointStop
         offset="1"
         style="stop-color:#99CCFF"
         id="midPointStop210" />
    </linearGradient>
    <path
       fill="url(#XMLID_7_)"
       stroke="none"
       d="M17.267,85.914c-4.916,0.677-8.311,5.625-7.566,11.028l1.73,12.571    c0.744,5.405,5.35,9.25,10.266,8.574l29.773-4.099c4.916-0.677,8.311-5.624,7.567-11.029l-1.731-12.571    c-0.744-5.404-5.35-9.25-10.266-8.574L17.267,85.914z"
       id="path211" />
    <linearGradient
       id="XMLID_8_"
       gradientUnits="userSpaceOnUse"
       x1="61.165"
       y1="85.0537"
       x2="144.3058"
       y2="193.4335"
       gradientTransform="matrix(0.9907 -0.1364 0.1364 0.9907 -17.8313 20.72)">
      <stop
         offset="0"
         style="stop-color:#FFFFFF"
         id="stop213" />
      <stop
         offset="1"
         style="stop-color:#99CCFF"
         id="stop214" />
      <a:midPointStop
         offset="0"
         style="stop-color:#FFFFFF"
         id="midPointStop215" />
      <a:midPointStop
         offset="0.5"
         style="stop-color:#FFFFFF"
         id="midPointStop216" />
      <a:midPointStop
         offset="1"
         style="stop-color:#99CCFF"
         id="midPointStop217" />
    </linearGradient>
    <path
       opacity="0.8"
       fill="url(#XMLID_8_)"
       stroke="none"
       d="M10.96,105.994c0.586,4.256,11.07,80.408,15.773,114.563    c1.022,1.357,2.077,2.695,3.163,4.007c0.287-20.863,8.843-42.356,26.023-54.18c26.625-19.232,59.247-16.914,90.291-26.053    c25.479-8.031,43.39-31.368,47.175-56.442c-0.52-3.771-0.855-6.213-0.947-6.881C186.773,81.788,16.625,105.214,10.96,105.994z"
       id="path218" />
    <path
       fill="#FFFFFF"
       stroke="none"
       d="M46.903,80.824L17.13,84.923c-4.916,0.677-8.311,5.625-7.566,11.028l0.546,3.963    c-0.744-5.404,2.65-10.352,7.566-11.029l29.773-4.099c4.916-0.677,9.521,3.169,10.266,8.574l-0.546-3.963    C56.425,83.994,51.819,80.147,46.903,80.824z"
       id="path219" />
    <path
       fill="#FFFFFF"
       stroke="none"
       d="M10.198,105.116L25.88,219.019c1.166,1.584,2.376,3.132,3.627,4.651L15.067,118.783    c-0.857-6.227,3.645-11.99,10.057-12.873l166.021-22.857c0.627-0.086,1.247-0.108,1.859-0.099l-0.406-2.951L10.198,105.116z"
       id="path220" />
    <path
       fill="#3399FF"
       stroke="#0066CC"
       stroke-width="5"
       stroke-linejoin="round"
       d="M175.149,223.25l38.152-5.253l-5.621-40.831    L175.149,223.25z"
       id="path221" />
    <path
       fill="#FFFFFF"
       stroke="none"
       d="M206.538,188.386c-0.215-1.559-0.416-3.022-0.596-4.328    c-5.896,8.419-19.838,28.33-25.27,36.086c1.203-0.166,2.563-0.353,4.013-0.553C190.286,211.592,200.623,196.832,206.538,188.386z"
       id="path222" />
    <linearGradient
       id="XMLID_9_"
       gradientUnits="userSpaceOnUse"
       x1="129.8623"
       y1="110.3447"
       x2="260.6779"
       y2="241.1603">
      <stop
         offset="0"
         style="stop-color:#FFFFFF"
         id="stop224" />
      <stop
         offset="1"
         style="stop-color:#99CCFF"
         id="stop225" />
      <a:midPointStop
         offset="0"
         style="stop-color:#FFFFFF"
         id="midPointStop226" />
      <a:midPointStop
         offset="0.5"
         style="stop-color:#FFFFFF"
         id="midPointStop227" />
      <a:midPointStop
         offset="1"
         style="stop-color:#99CCFF"
         id="midPointStop228" />
    </linearGradient>
    <path
       opacity="0.3"
       fill="url(#XMLID_9_)"
       stroke="none"
       d="M199.271,71.992l-4.953,0.682c0,0-64.042,8.817-102.049,14.05    l-20.888,69.197c-0.797,2.644,0.704,5.442,3.346,6.24l120.494,36.373c2.641,0.796,5.44-0.703,6.237-3.345l10.146-33.613    L199.271,71.992z"
       id="path229" />
    <linearGradient
       id="XMLID_10_"
       gradientUnits="userSpaceOnUse"
       x1="85.1934"
       y1="83.5146"
       x2="229.9093"
       y2="183.7028">
      <stop
         offset="0"
         style="stop-color:#3399FF"
         id="stop231" />
      <stop
         offset="1"
         style="stop-color:#0066CC"
         id="stop232" />
      <a:midPointStop
         offset="0"
         style="stop-color:#3399FF"
         id="midPointStop233" />
      <a:midPointStop
         offset="0.5"
         style="stop-color:#3399FF"
         id="midPointStop234" />
      <a:midPointStop
         offset="1"
         style="stop-color:#0066CC"
         id="midPointStop235" />
    </linearGradient>
    <path
       opacity="0.3"
       fill="url(#XMLID_10_)"
       stroke="none"
       d="M199.271,71.992l12.333,89.584l-10.146,33.613    c-0.797,2.642-3.597,4.141-6.237,3.345L74.727,162.161c-2.642-0.798-4.143-3.597-3.346-6.24l20.888-69.197    c-1.332,0.184-2.633,0.363-3.897,0.537l-20.415,67.628c-1.369,4.537,1.199,9.327,5.736,10.695l120.493,36.373    c4.537,1.369,9.325-1.198,10.695-5.736l7.893-26.147L199.271,71.992z M192.1,72.979c0.28-0.039,0.528-0.073,0.757-0.104    C192.628,72.907,192.379,72.941,192.1,72.979z M181.007,74.506c0.429-0.059,0.849-0.117,1.26-0.173    C181.855,74.39,181.436,74.447,181.007,74.506z"
       id="path236" />
    <path
       opacity="0.1"
       fill="url(#XMLID_10_)"
       stroke="none"
       d="M199.271,71.992l12.333,89.584l-10.146,33.613    c-0.797,2.642-3.597,4.141-6.237,3.345L74.727,162.161c-2.642-0.798-4.143-3.597-3.346-6.24l20.888-69.197    c-1.332,0.184-2.633,0.363-3.897,0.537l-20.415,67.628c-1.369,4.537,1.199,9.327,5.736,10.695l120.493,36.373    c4.537,1.369,9.325-1.198,10.695-5.736l7.893-26.147L199.271,71.992z M192.1,72.979c0.28-0.039,0.528-0.073,0.757-0.104    C192.628,72.907,192.379,72.941,192.1,72.979z M181.007,74.506c0.429-0.059,0.849-0.117,1.26-0.173    C181.855,74.39,181.436,74.447,181.007,74.506z"
       id="path237" />
    <linearGradient
       id="XMLID_12_"
       gradientUnits="userSpaceOnUse"
       x1="64.084"
       y1="146.5732"
       x2="213.9453"
       y2="146.5732">
      <stop
         offset="0"
         style="stop-color:#A7ABAC"
         id="stop239" />
      <stop
         offset="1"
         style="stop-color:#85898A"
         id="stop240" />
      <a:midPointStop
         offset="0"
         style="stop-color:#A7ABAC"
         id="midPointStop241" />
      <a:midPointStop
         offset="0.5"
         style="stop-color:#A7ABAC"
         id="midPointStop242" />
      <a:midPointStop
         offset="1"
         style="stop-color:#85898A"
         id="midPointStop243" />
    </linearGradient>
    <path
       opacity="0.3"
       fill="url(#XMLID_12_)"
       stroke="none"
       d="M212.511,168.155l0.264,1.918l-7.893,26.147    c-1.37,4.538-6.158,7.105-10.695,5.736L73.693,165.584c-4.537-1.368-7.105-6.158-5.736-10.695l18.574-61.531    c-0.167-1.975,0.5-4.02,1.417-6.039c-1.191,0.164-2.351,0.323-3.473,0.478l-19.941,66.059c-1.937,6.418,1.708,13.215,8.126,15.153    l120.493,36.37c6.418,1.937,13.215-1.708,15.153-8.123l5.639-18.681L212.511,168.155z"
       id="path244" />
    <linearGradient
       id="XMLID_13_"
       gradientUnits="userSpaceOnUse"
       x1="199.2715"
       y1="120.0732"
       x2="212.5107"
       y2="120.0732">
      <stop
         offset="0"
         style="stop-color:#A7ABAC"
         id="stop246" />
      <stop
         offset="1"
         style="stop-color:#85898A"
         id="stop247" />
      <a:midPointStop
         offset="0"
         style="stop-color:#A7ABAC"
         id="midPointStop248" />
      <a:midPointStop
         offset="0.5"
         style="stop-color:#A7ABAC"
         id="midPointStop249" />
      <a:midPointStop
         offset="1"
         style="stop-color:#85898A"
         id="midPointStop250" />
    </linearGradient>
    <path
       fill="url(#XMLID_13_)"
       stroke="none"
       d="M212.511,168.155l-13.239-96.164L212.511,168.155z"
       id="path251" />
  </g>
  <g
     id="Layer_2"
     stroke="#000000">
    <path
       fill="none"
       stroke="none"
       d="M256,256H0V0h256V256z"
       id="path253" />
  </g>
</svg>
