<?xml version="1.0" encoding="UTF-8" standalone="no"?>
<!DOCTYPE svg PUBLIC "-//W3C//DTD SVG 1.0//EN"
"http://www.w3.org/TR/2001/REC-SVG-20010904/DTD/svg10.dtd">
<!-- Created with Sodipodi ("http://www.sodipodi.com/") -->
<svg
   xmlns="http://www.w3.org/2000/svg"
   xmlns:xlink="http://www.w3.org/1999/xlink"
   version="1.0"
   x="0"
   y="0"
   width="60"
   height="60"
   viewBox="0 0 256 256"
   id="svg548"
   xml:space="preserve"><defs
   id="defs686" /><metadata
   id="metadata549"><ns:variableSets><ns:variableSet
   varSetName="binding1"
   locked="none"><ns:variables /><ns:sampleDataSets /></ns:variableSet></ns:variableSets></metadata><g
   style="font-size:12;stroke:#000000;"
   id="Layer_1"><linearGradient
   x1="6.51270008"
   y1="133.570297"
   x2="241.386703"
   y2="133.570297"
   id="XMLID_1_"
   gradientUnits="userSpaceOnUse"><stop
   style="stop-color:#0066cc;stop-opacity:1;"
   offset="0"
   id="stop552" /><stop
   style="stop-color:#003399;stop-opacity:1;"
   offset="1"
   id="stop553" /><a:midPointStop
   offset="0"
   style="stop-color:#0066CC"
   id="midPointStop554" /><a:midPointStop
   offset="0.5"
   style="stop-color:#0066CC"
   id="midPointStop555" /><a:midPointStop
   offset="1"
   style="stop-color:#003399"
   id="midPointStop556" /></linearGradient><path
   d="M 18.442 75.758 C 9.037 78.896 4.164 89.779 7.579 100.018 L 51.034 230.272 C 54.45 240.511 64.88 246.289 74.285 243.151 L 229.457 191.383 C 238.862 188.246 243.735 177.362 240.319 167.124 L 196.866 36.87 C 193.45 26.631 183.019 20.853 173.613 23.991 L 18.442 75.758 z "
   style="fill:url(#XMLID_1_);stroke:none;"
   id="path557" /><path
   d="M 29.929 83.758 C 20.524 86.896 15.651 97.779 19.066 108.018 L 62.521 238.272 C 65.937 248.511 76.367 254.289 85.772 251.151 L 240.944 199.383 C 250.349 196.246 255.222 185.362 251.806 175.124 L 208.354 44.87 C 204.938 34.631 194.507 28.853 185.101 31.991 L 29.929 83.758 z "
   style="opacity:0.2;stroke:none;"
   id="path558" /><path
   d="M 18.442 75.758 C 9.037 78.896 4.164 89.779 7.579 100.018 L 51.034 230.272 C 54.45 240.511 64.88 246.289 74.285 243.151 L 229.457 191.383 C 238.862 188.246 243.735 177.362 240.319 167.124 L 196.866 36.87 C 193.45 26.631 183.019 20.853 173.613 23.991 L 18.442 75.758 z "
   style="fill:#003399;stroke:none;"
   id="path559" /><path
   d="M 224.384 184.584 L 71.684 236.352 C 69.049 237.246 66.341 237.41 63.733 236.988 C 59.36 234.704 55.735 230.601 53.986 225.273 L 11.224 95.018 C 10.761 93.606 10.469 92.184 10.306 90.771 C 9.966 93.64 10.23 96.664 11.224 99.639 L 53.987 227.492 C 55.736 232.722 59.361 236.749 63.734 238.991 C 66.341 239.405 69.049 239.244 71.685 238.367 L 224.385 187.554 C 232.184 184.959 236.838 177.096 236.152 168.81 C 235.546 175.957 231.148 182.291 224.384 184.584 z "
   style="fill:#0066cc;stroke:none;"
   id="path560" /><linearGradient
   x1="118.647499"
   y1="213.887695"
   x2="118.647499"
   y2="94.1166992"
   id="XMLID_2_"
   gradientUnits="userSpaceOnUse"
   gradientTransform="matrix(0.9486,-0.3165,0.3445,1.0327,-36.5833,27.2787)"><stop
   style="stop-color:#0066cc;stop-opacity:1;"
   offset="0"
   id="stop562" /><stop
   style="stop-color:#3399ff;stop-opacity:1;"
   offset="1"
   id="stop563" /><a:midPointStop
   offset="0"
   style="stop-color:#0066CC"
   id="midPointStop564" /><a:midPointStop
   offset="0.5"
   style="stop-color:#0066CC"
   id="midPointStop565" /><a:midPointStop
   offset="1"
   style="stop-color:#3399FF"
   id="midPointStop566" /></linearGradient><path
   d="M 56.835 225.291 C 58.909 231.507 65.22 235.003 70.932 233.098 L 226.103 181.331 C 231.814 179.426 234.764 172.84 232.69 166.624 L 189.235 36.368 C 187.161 30.15 180.849 26.656 175.138 28.561 L 19.966 80.328 C 14.255 82.233 11.306 88.818 13.381 95.036 L 56.835 225.291 z "
   style="fill:url(#XMLID_2_);stroke:none;"
   id="path567" /><path
   d="M 144.008 38.946 C 163.101 49.519 183.244 60.677 200.541 70.257 L 192.534 46.257 L 166.055 31.591 L 144.008 38.946 z "
   style="fill:#ff9900;stroke:none;"
   id="path568" /><path
   d="M 55.813 76.318 C 50.348 78.141 47.477 84.345 49.413 90.148 L 90.717 213.959 C 92.653 219.762 98.674 222.998 104.138 221.175 L 206.746 186.944 C 212.212 185.121 215.083 178.918 213.147 173.115 L 171.844 49.304 C 169.908 43.501 163.886 40.263 158.422 42.087 L 55.813 76.318 z "
   style="opacity:0.2;stroke:none;"
   id="path569" /><path
   d="M 59.813 72.318 C 54.348 74.141 51.477 80.345 53.413 86.148 L 94.717 209.959 C 96.653 215.762 102.674 218.998 108.138 217.175 L 210.746 182.944 C 216.212 181.121 219.083 174.918 217.147 169.115 L 175.844 45.304 C 173.908 39.501 167.886 36.263 162.422 38.087 L 59.813 72.318 z "
   style="fill:#003366;stroke:none;"
   id="path570" /><path
   d="M 97.632 208.986 C 99.001 213.089 103.243 215.369 107.107 214.081 L 209.715 179.85 C 213.58 178.561 215.602 174.19 214.233 170.087 L 172.929 46.276 C 171.56 42.173 167.319 39.892 163.453 41.182 L 60.846 75.413 C 56.982 76.702 54.959 81.073 56.328 85.175 L 97.632 208.986 z "
   style="fill:#99ccff;stroke:none;"
   id="path571" /><linearGradient
   x1="104.891098"
   y1="111.022903"
   x2="248.647293"
   y2="254.779099"
   id="XMLID_3_"
   gradientUnits="userSpaceOnUse"
   gradientTransform="matrix(0.9486,-0.3165,0.3445,1.0327,-36.5833,27.2787)"><stop
   style="stop-color:#ffffff;stop-opacity:1;"
   offset="0"
   id="stop573" /><stop
   style="stop-color:#99ccff;stop-opacity:1;"
   offset="1"
   id="stop574" /><a:midPointStop
   offset="0"
   style="stop-color:#FFFFFF"
   id="midPointStop575" /><a:midPointStop
   offset="0.5"
   style="stop-color:#FFFFFF"
   id="midPointStop576" /><a:midPointStop
   offset="1"
   style="stop-color:#99CCFF"
   id="midPointStop577" /></linearGradient><path
   d="M 61.878 78.508 C 59.628 79.259 58.445 81.814 59.243 84.203 L 100.547 208.014 C 101.344 210.403 103.824 211.737 106.074 210.986 L 208.681 176.755 C 210.932 176.004 212.114 173.449 211.317 171.061 L 170.014 47.249 C 169.216 44.86 166.738 43.526 164.487 44.277 L 61.878 78.508 z "
   style="fill:url(#XMLID_3_);stroke:none;"
   id="path578" /><path
   d="M 151.143 107.205 C 158.383 92.797 169.639 83.144 182.788 75.828 L 172.93 46.277 C 171.561 42.174 167.32 39.893 163.454 41.183 L 60.846 75.413 C 56.982 76.702 54.959 81.073 56.328 85.175 L 85.916 173.865 C 115.594 166.538 135.81 136.061 151.143 107.205 z "
   style="opacity:0.4;fill:#ffffff;stroke:none;"
   id="path579" /><linearGradient
   x1="232.017593"
   y1="83.6430969"
   x2="199.565704"
   y2="83.6430969"
   id="XMLID_4_"
   gradientUnits="userSpaceOnUse"
   gradientTransform="matrix(0.9486,-0.3165,0.3445,1.0327,-36.5833,27.2787)"><stop
   style="stop-color:#ff9900;stop-opacity:1;"
   offset="0"
   id="stop581" /><stop
   style="stop-color:#ffcc00;stop-opacity:1;"
   offset="1"
   id="stop582" /><a:midPointStop
   offset="0"
   style="stop-color:#FF9900"
   id="midPointStop583" /><a:midPointStop
   offset="0.5"
   style="stop-color:#FF9900"
   id="midPointStop584" /><a:midPointStop
   offset="1"
   style="stop-color:#FFCC00"
   id="midPointStop585" /></linearGradient><path
   d="M 145.688 38.386 C 164.008 48.532 183.335 59.237 199.932 68.429 L 192.249 45.401 L 166.842 31.329 L 145.688 38.386 z "
   style="fill:url(#XMLID_4_);stroke:none;"
   id="path586" /><path
   d="M 24.549 128.969 C 32.672 110.909 42.131 89.876 51.096 69.943 L 28.977 77.322 L 16.543 104.969 L 24.549 128.969 z "
   style="fill:#ff9900;stroke:none;"
   id="path587" /><linearGradient
   x1="21.9750996"
   y1="83.6377029"
   x2="50.2929993"
   y2="83.6377029"
   id="XMLID_5_"
   gradientUnits="userSpaceOnUse"
   gradientTransform="matrix(0.9486,-0.3165,0.3445,1.0327,-36.5833,27.2787)"><stop
   style="stop-color:#ff9900;stop-opacity:1;"
   offset="0"
   id="stop589" /><stop
   style="stop-color:#ffcc00;stop-opacity:1;"
   offset="1"
   id="stop590" /><a:midPointStop
   offset="0"
   style="stop-color:#FF9900"
   id="midPointStop591" /><a:midPointStop
   offset="0.5"
   style="stop-color:#FF9900"
   id="midPointStop592" /><a:midPointStop
   offset="1"
   style="stop-color:#FFCC00"
   id="midPointStop593" /></linearGradient><path
   d="M 24.077 127.096 C 31.83 109.781 40.859 89.615 49.417 70.503 L 28.263 77.56 L 16.394 104.066 L 24.077 127.096 z "
   style="fill:url(#XMLID_5_);stroke:none;"
   id="path594" /><linearGradient
   x1="25.9570007"
   y1="190.509796"
   x2="66.1333008"
   y2="190.509796"
   id="XMLID_6_"
   gradientUnits="userSpaceOnUse"
   gradientTransform="matrix(0.9486,-0.3165,0.3445,1.0327,-36.5833,27.2787)"><stop
   style="stop-color:#0066cc;stop-opacity:1;"
   offset="0"
   id="stop596" /><stop
   style="stop-color:#3399ff;stop-opacity:1;"
   offset="1"
   id="stop597" /><a:midPointStop
   offset="0"
   style="stop-color:#0066CC"
   id="midPointStop598" /><a:midPointStop
   offset="0.5"
   style="stop-color:#0066CC"
   id="midPointStop599" /><a:midPointStop
   offset="1"
   style="stop-color:#3399FF"
   id="midPointStop600" /></linearGradient><path
   d="M 54.432 218.087 L 77.548 230.891 L 98.702 223.833 C 81.139 214.104 62.744 203.918 46.75 195.059 L 54.432 218.087 z "
   style="fill:url(#XMLID_6_);stroke:none;"
   id="path601" /><linearGradient
   x1="17.8446999"
   y1="189.626007"
   x2="57.9668007"
   y2="189.626007"
   id="XMLID_7_"
   gradientUnits="userSpaceOnUse"
   gradientTransform="matrix(0.9486,-0.3165,0.3445,1.0327,-36.5833,27.2787)"><stop
   style="stop-color:#ff9900;stop-opacity:1;"
   offset="0"
   id="stop603" /><stop
   style="stop-color:#ffcc00;stop-opacity:1;"
   offset="1"
   id="stop604" /><a:midPointStop
   offset="0"
   style="stop-color:#FF9900"
   id="midPointStop605" /><a:midPointStop
   offset="0.5"
   style="stop-color:#FF9900"
   id="midPointStop606" /><a:midPointStop
   offset="1"
   style="stop-color:#FFCC00"
   id="midPointStop607" /></linearGradient><path
   d="M 100.381 223.273 C 82.063 213.127 62.736 202.422 46.14 193.232 L 53.822 216.259 L 79.226 230.33 L 100.381 223.273 z "
   style="fill:url(#XMLID_7_);stroke:none;"
   id="path608" /><path
   d="M 219.487 183.538 L 230.286 159.419 L 222.603 136.393 C 215.132 153.08 206.539 172.27 198.333 190.595 L 219.487 183.538 z "
   style="fill:#ff9900;stroke:none;"
   id="path609" /><linearGradient
   x1="239.097702"
   y1="189.630905"
   x2="188.9478"
   y2="189.630905"
   id="XMLID_8_"
   gradientUnits="userSpaceOnUse"
   gradientTransform="matrix(0.9486,-0.3165,0.3445,1.0327,-36.5833,27.2787)"><stop
   style="stop-color:#ff9900;stop-opacity:1;"
   offset="0"
   id="stop611" /><stop
   style="stop-color:#ffcc00;stop-opacity:1;"
   offset="1"
   id="stop612" /><a:midPointStop
   offset="0"
   style="stop-color:#FF9900"
   id="midPointStop613" /><a:midPointStop
   offset="0.5"
   style="stop-color:#FF9900"
   id="midPointStop614" /><a:midPointStop
   offset="1"
   style="stop-color:#FFCC00"
   id="midPointStop615" /></linearGradient><path
   d="M 221.995 134.563 C 214.241 151.878 205.212 172.043 196.655 191.155 L 217.808 184.098 L 229.676 157.591 L 221.995 134.563 z "
   style="fill:url(#XMLID_8_);stroke:none;"
   id="path616" /><path
   d="M 133.887 119.158 L 128.661 113.699 L 127.68 112.675 L 125.127 121.128 L 133.887 119.158 z M 123.521 104.7 C 123.681 104.169 123.847 103.626 123.847 103.626 L 32.227 75.986 L 31.497 78.404 L 25.313 98.904 L 116.931 126.544 C 116.931 126.544 117.091 126.013 117.246 125.5 C 119.695 124.949 138.797 120.656 138.797 120.656 C 138.797 120.656 125.256 106.513 123.521 104.7 z M 115.259 123.345 L 115.243 123.397 L 28.46 97.215 L 33.915 79.133 L 120.697 105.314 L 120.681 105.365 L 127.679 112.673 L 127.679 112.673 L 128.66 113.698 L 133.888 119.157 L 115.259 123.345 z M 119.167 110.391 L 120.682 105.366 L 120.66 105.343 L 119.139 110.383 L 61.575 93.016 C 59.394 91.123 57.362 89.001 55.519 86.641 C 55.009 86.487 36.195 80.811 34.549 80.314 C 34.403 80.8 33.911 82.429 33.291 84.483 L 32.384 84.21 L 29.992 92.14 L 30.899 92.413 C 30.279 94.468 29.788 96.097 29.641 96.582 C 31.365 97.103 100.189 117.864 104.024 119.02 C 102.959 116.888 101.79 115.032 100.503 113.412 L 116.746 118.312 L 115.226 123.351 L 115.259 123.344 L 117.722 115.178 L 119.167 110.391 z "
   style="opacity:0.2;stroke:none;"
   id="path617" /><path
   d="M 31.498 75.404 L 25.314 95.904 L 116.932 123.544 C 116.932 123.544 117.092 123.013 117.247 122.5 C 119.696 121.949 138.798 117.656 138.798 117.656 C 138.798 117.656 125.255 103.513 123.521 101.7 C 123.681 101.169 123.847 100.626 123.847 100.626 L 32.227 72.986 L 31.498 75.404 z "
   style="fill:#999999;stroke:none;"
   id="path618" /><linearGradient
   x1="144.841797"
   y1="87.4868011"
   x2="155.155502"
   y2="87.4868011"
   id="XMLID_9_"
   gradientUnits="userSpaceOnUse"
   gradientTransform="matrix(0.2888,-0.9574,0.9574,0.2888,-52.3257,216.0272)"><stop
   style="stop-color:#fee382;stop-opacity:1;"
   offset="0"
   id="stop620" /><stop
   style="stop-color:#ffe649;stop-opacity:1;"
   offset="0.5449"
   id="stop621" /><stop
   style="stop-color:#ffe34c;stop-opacity:1;"
   offset="0.63709998"
   id="stop622" /><stop
   style="stop-color:#fed953;stop-opacity:1;"
   offset="1"
   id="stop623" /><a:midPointStop
   offset="0"
   style="stop-color:#FEE382"
   id="midPointStop624" /><a:midPointStop
   offset="0.5"
   style="stop-color:#FEE382"
   id="midPointStop625" /><a:midPointStop
   offset="0.5449"
   style="stop-color:#FFE649"
   id="midPointStop626" /><a:midPointStop
   offset="0.4068"
   style="stop-color:#FFE649"
   id="midPointStop627" /><a:midPointStop
   offset="1"
   style="stop-color:#FED953"
   id="midPointStop628" /></linearGradient><path
   d="M 120.698 102.315 L 115.244 120.397 L 28.46 94.215 L 33.915 76.133 L 120.698 102.315 z "
   style="fill:url(#XMLID_9_);stroke:none;"
   id="path629" /><linearGradient
   x1="153.259796"
   y1="87.4872971"
   x2="144.470505"
   y2="87.4872971"
   id="XMLID_10_"
   gradientUnits="userSpaceOnUse"
   gradientTransform="matrix(0.2888,-0.9574,0.9574,0.2888,-52.3257,216.0272)"><stop
   style="stop-color:#ff7300;stop-opacity:1;"
   offset="0"
   id="stop631" /><stop
   style="stop-color:#ff9900;stop-opacity:1;"
   offset="0.66289997"
   id="stop632" /><a:midPointStop
   offset="0"
   style="stop-color:#FF7300"
   id="midPointStop633" /><a:midPointStop
   offset="0.5"
   style="stop-color:#FF7300"
   id="midPointStop634" /><a:midPointStop
   offset="0.6629"
   style="stop-color:#FF9900"
   id="midPointStop635" /></linearGradient><path
   d="M 119.167 107.391 L 116.773 115.322 L 29.992 89.14 L 32.384 81.21 L 119.167 107.391 z "
   style="fill:url(#XMLID_10_);stroke:none;"
   id="path636" /><linearGradient
   x1="149.138702"
   y1="136.154297"
   x2="157.083694"
   y2="144.099304"
   id="XMLID_11_"
   gradientUnits="userSpaceOnUse"
   gradientTransform="matrix(0.2888,-0.9574,0.9574,0.2888,-52.3257,216.0272)"><stop
   style="stop-color:#fedbb1;stop-opacity:1;"
   offset="0"
   id="stop638" /><stop
   style="stop-color:#deaf78;stop-opacity:1;"
   offset="1"
   id="stop639" /><a:midPointStop
   offset="0"
   style="stop-color:#FEDBB1"
   id="midPointStop640" /><a:midPointStop
   offset="0.5"
   style="stop-color:#FEDBB1"
   id="midPointStop641" /><a:midPointStop
   offset="1"
   style="stop-color:#DEAF78"
   id="midPointStop642" /></linearGradient><path
   d="M 120.66 102.343 L 133.889 116.158 L 115.226 120.352 L 120.66 102.343 z "
   style="fill:url(#XMLID_11_);stroke:none;"
   id="path643" /><linearGradient
   x1="119.422897"
   y1="132.775406"
   x2="121.731102"
   y2="129.807602"
   id="XMLID_12_"
   gradientUnits="userSpaceOnUse"
   gradientTransform="matrix(0.7833,-0.6216,0.6216,0.7833,-46.5797,86.3663)"><stop
   style="stop-color:#c2baad;stop-opacity:1;"
   offset="0"
   id="stop645" /><stop
   style="stop-color:#d4ccbf;stop-opacity:1;"
   offset="1"
   id="stop646" /><a:midPointStop
   offset="0"
   style="stop-color:#C2BAAD"
   id="midPointStop647" /><a:midPointStop
   offset="0.5"
   style="stop-color:#C2BAAD"
   id="midPointStop648" /><a:midPointStop
   offset="1"
   style="stop-color:#D4CCBF"
   id="midPointStop649" /></linearGradient><path
   d="M 127.68 109.673 L 133.887 116.157 L 125.127 118.126 L 127.68 109.673 z "
   style="fill:url(#XMLID_12_);stroke:none;"
   id="path650" /><linearGradient
   x1="148.493195"
   y1="81.0586014"
   x2="153.383896"
   y2="85.9493027"
   id="XMLID_13_"
   gradientUnits="userSpaceOnUse"
   gradientTransform="matrix(0.2888,-0.9574,0.9574,0.2888,-52.3257,216.0272)"><stop
   style="stop-color:#ffffff;stop-opacity:1;"
   offset="0"
   id="stop652" /><stop
   style="stop-color:#ffe649;stop-opacity:1;"
   offset="1"
   id="stop653" /><a:midPointStop
   offset="0"
   style="stop-color:#FFFFFF"
   id="midPointStop654" /><a:midPointStop
   offset="0.5"
   style="stop-color:#FFFFFF"
   id="midPointStop655" /><a:midPointStop
   offset="1"
   style="stop-color:#FFE649"
   id="midPointStop656" /></linearGradient><path
   d="M 29.641 93.583 C 31.365 94.104 100.189 114.865 104.024 116.021 C 101.281 110.534 97.883 106.824 93.427 104.47 C 89.468 102.444 85.207 101.036 81.087 99.674 C 75.514 97.833 69.752 95.929 64.635 92.46 C 61.255 90.041 58.2 87.075 55.519 83.641 C 55.009 83.487 36.195 77.811 34.549 77.314 C 34.082 78.863 30.109 92.033 29.641 93.583 z "
   style="opacity:0.4;fill:url(#XMLID_13_);stroke:none;"
   id="path657" /><path
   d="M 31.948 199.355 L 28.607 178.206 L 123.129 163.268 C 123.129 163.268 123.217 163.816 123.299 164.344 C 125.653 165.224 143.994 172.071 143.994 172.071 C 143.994 172.071 128.654 184.245 126.689 185.804 C 126.777 186.352 126.867 186.911 126.867 186.911 L 32.342 201.849 L 31.948 199.355 z "
   style="opacity:0.2;stroke:none;"
   id="path658" /><path
   d="M 28.948 197.355 L 25.607 176.206 L 120.13 161.268 C 120.13 161.268 120.217 161.816 120.299 162.344 C 122.653 163.224 140.995 170.071 140.995 170.071 C 140.995 170.071 125.655 182.245 123.69 183.804 C 123.778 184.352 123.868 184.911 123.868 184.911 L 29.343 199.849 L 28.948 197.355 z "
   style="fill:#999999;stroke:none;"
   id="path659" /><path
   d="M 120.976 182.813 L 118.028 164.157 L 28.494 178.306 L 31.442 196.962 L 120.976 182.813 z "
   style="fill:#33cc33;stroke:none;"
   id="path660" /><path
   d="M 120.151 177.575 L 118.856 169.391 L 29.321 183.541 L 30.614 191.723 L 120.151 177.575 z "
   style="fill:#009900;stroke:none;"
   id="path661" /><linearGradient
   x1="98.0444031"
   y1="163.145493"
   x2="105.988602"
   y2="171.089706"
   id="XMLID_14_"
   gradientUnits="userSpaceOnUse"
   gradientTransform="matrix(0.1561,0.9878,0.9878,-0.1561,-53.6923,101.332)"><stop
   style="stop-color:#fedbb1;stop-opacity:1;"
   offset="0"
   id="stop663" /><stop
   style="stop-color:#deaf78;stop-opacity:1;"
   offset="1"
   id="stop664" /><a:midPointStop
   offset="0"
   style="stop-color:#FEDBB1"
   id="midPointStop665" /><a:midPointStop
   offset="0.5"
   style="stop-color:#FEDBB1"
   id="midPointStop666" /><a:midPointStop
   offset="1"
   style="stop-color:#DEAF78"
   id="midPointStop667" /></linearGradient><path
   d="M 120.943 182.778 L 135.926 170.888 L 118.006 164.199 L 120.943 182.778 z "
   style="fill:url(#XMLID_14_);stroke:none;"
   id="path668" /><linearGradient
   x1="92.733902"
   y1="184.483398"
   x2="95.042099"
   y2="181.515701"
   id="XMLID_15_"
   gradientUnits="userSpaceOnUse"
   gradientTransform="matrix(0.6916,0.7223,0.7223,-0.6916,-65.815,230.9215)"><stop
   style="stop-color:#c2baad;stop-opacity:1;"
   offset="0"
   id="stop670" /><stop
   style="stop-color:#d4ccbf;stop-opacity:1;"
   offset="1"
   id="stop671" /><a:midPointStop
   offset="0"
   style="stop-color:#C2BAAD"
   id="midPointStop672" /><a:midPointStop
   offset="0.5"
   style="stop-color:#C2BAAD"
   id="midPointStop673" /><a:midPointStop
   offset="1"
   style="stop-color:#D4CCBF"
   id="midPointStop674" /></linearGradient><path
   d="M 128.893 176.471 L 135.924 170.889 L 127.514 167.749 L 128.893 176.471 z "
   style="fill:url(#XMLID_15_);stroke:none;"
   id="path675" /><linearGradient
   x1="97.3979034"
   y1="108.051804"
   x2="102.288498"
   y2="112.942299"
   id="XMLID_16_"
   gradientUnits="userSpaceOnUse"
   gradientTransform="matrix(0.1561,0.9878,0.9878,-0.1561,-53.6923,101.332)"><stop
   style="stop-color:#ffffff;stop-opacity:1;"
   offset="0"
   id="stop677" /><stop
   style="stop-color:#ffe649;stop-opacity:1;"
   offset="1"
   id="stop678" /><a:midPointStop
   offset="0"
   style="stop-color:#FFFFFF"
   id="midPointStop679" /><a:midPointStop
   offset="0.5"
   style="stop-color:#FFFFFF"
   id="midPointStop680" /><a:midPointStop
   offset="1"
   style="stop-color:#FFE649"
   id="midPointStop681" /></linearGradient><path
   d="M 29.577 179.094 C 31.356 178.811 102.363 167.592 106.318 166.968 C 102.857 172.032 98.985 175.246 94.251 176.971 C 90.053 178.442 85.642 179.258 81.374 180.048 C 75.603 181.114 69.636 182.218 64.095 184.96 C 60.418 186.898 56.987 189.421 53.866 192.459 C 53.339 192.541 33.929 195.609 32.23 195.877 C 31.977 194.279 29.83 180.691 29.577 179.094 z "
   style="opacity:0.4;fill:url(#XMLID_16_);stroke:none;"
   id="path682" /></g><g
   style="font-size:12;stroke:#000000;"
   id="Layer_2"><path
   d="M 256 256 L 0 256 L 0 0 L 256 0 L 256 256 z "
   style="opacity:0.2;fill:none;stroke:none;"
   id="path684" /></g></svg>
