<?xml version="1.0" encoding="UTF-8" standalone="no"?>
<!-- Created with Inkscape (http://www.inkscape.org/) -->
<svg
   xmlns:dc="http://purl.org/dc/elements/1.1/"
   xmlns:cc="http://creativecommons.org/ns#"
   xmlns:rdf="http://www.w3.org/1999/02/22-rdf-syntax-ns#"
   xmlns:svg="http://www.w3.org/2000/svg"
   xmlns="http://www.w3.org/2000/svg"
   xmlns:xlink="http://www.w3.org/1999/xlink"
   xmlns:sodipodi="http://sodipodi.sourceforge.net/DTD/sodipodi-0.dtd"
   xmlns:inkscape="http://www.inkscape.org/namespaces/inkscape"
   version="1.0"
   x="0.0000000"
   y="0.0000000"
   width="32"
   height="32"
   id="svg1"
   sodipodi:version="0.32"
   inkscape:version="0.45+devel"
   sodipodi:docname="folder-saved-search.svg"
   sodipodi:docbase="/home/lapo/Icone/cvs/gnome-icon-theme/scalable/places"
   inkscape:output_extension="org.inkscape.output.svg.inkscape">
  <metadata
     id="metadata162">
    <rdf:RDF>
      <cc:Work
         rdf:about="">
        <dc:format>image/svg+xml</dc:format>
        <dc:type
           rdf:resource="http://purl.org/dc/dcmitype/StillImage" />
        <dc:title>Folder</dc:title>
        <dc:creator>
          <cc:Agent>
            <dc:title>Jakub Steiner</dc:title>
          </cc:Agent>
        </dc:creator>
        <dc:date>2005-02-01</dc:date>
        <cc:license
           rdf:resource="http://creativecommons.org/licenses/GPL/2.0/" />
        <dc:identifier>http://jimmac.musichall.cz/</dc:identifier>
        <dc:subject>
          <rdf:Bag>
            <rdf:li>folder</rdf:li>
            <rdf:li>directory</rdf:li>
            <rdf:li>storage</rdf:li>
          </rdf:Bag>
        </dc:subject>
        <dc:contributor>
          <cc:Agent>
            <dc:title>Ulisse Perusin</dc:title>
          </cc:Agent>
        </dc:contributor>
      </cc:Work>
      <cc:License
         rdf:about="http://creativecommons.org/licenses/GPL/2.0/">
        <cc:permits
           rdf:resource="http://web.resource.org/cc/Reproduction" />
        <cc:permits
           rdf:resource="http://web.resource.org/cc/Distribution" />
        <cc:requires
           rdf:resource="http://web.resource.org/cc/Notice" />
        <cc:permits
           rdf:resource="http://web.resource.org/cc/DerivativeWorks" />
        <cc:requires
           rdf:resource="http://web.resource.org/cc/ShareAlike" />
        <cc:requires
           rdf:resource="http://web.resource.org/cc/SourceCode" />
      </cc:License>
    </rdf:RDF>
  </metadata>
  <sodipodi:namedview
     id="base"
     pagecolor="#ffffff"
     bordercolor="#e76f6f"
     borderopacity="0.38039216"
     inkscape:pageopacity="0.0"
     inkscape:pageshadow="2"
     inkscape:window-width="1014"
     inkscape:window-height="678"
     inkscape:cy="7.149877"
     inkscape:cx="8.4832497"
     inkscape:zoom="7.9999996"
     inkscape:document-units="px"
     showgrid="false"
     inkscape:window-x="52"
     inkscape:window-y="121"
     inkscape:current-layer="layer2"
     inkscape:showpageshadow="false"
     inkscape:object-paths="true"
     inkscape:object-nodes="true"
     objecttolerance="7"
     gridtolerance="7"
     guidetolerance="7"
     width="32px"
     height="32px"
     inkscape:snap-bbox="true">
    <inkscape:grid
       type="xygrid"
       id="grid5404"
       spacingx="0.5px"
       spacingy="0.5px"
       empspacing="2" />
  </sodipodi:namedview>
  <defs
     id="defs3">
    <linearGradient
       inkscape:collect="always"
       id="linearGradient5990">
      <stop
         style="stop-color:#b05f1e;stop-opacity:1"
         offset="0"
         id="stop5992" />
      <stop
         style="stop-color:#a0561b;stop-opacity:1"
         offset="1"
         id="stop5994" />
    </linearGradient>
    <linearGradient
       inkscape:collect="always"
       id="linearGradient6016">
      <stop
         style="stop-color:#000000;stop-opacity:1;"
         offset="0"
         id="stop6018" />
      <stop
         style="stop-color:#000000;stop-opacity:0;"
         offset="1"
         id="stop6020" />
    </linearGradient>
    <linearGradient
       id="linearGradient5985">
      <stop
         style="stop-color:#ffffff;stop-opacity:1;"
         offset="0"
         id="stop5987" />
      <stop
         style="stop-color:#ffffff;stop-opacity:0.13333334;"
         offset="1"
         id="stop5989" />
    </linearGradient>
    <linearGradient
       id="linearGradient4734">
      <stop
         style="stop-color:#eabd7c;stop-opacity:1"
         offset="0"
         id="stop4736" />
      <stop
         id="stop5982"
         offset="0.69824016"
         style="stop-color:#e3aa57;stop-opacity:1" />
      <stop
         style="stop-color:#e09f40;stop-opacity:1"
         offset="1"
         id="stop4738" />
    </linearGradient>
    <linearGradient
       id="linearGradient235">
      <stop
         style="stop-color:#a05f20;stop-opacity:1"
         offset="0.0000000"
         id="stop236" />
      <stop
         style="stop-color:#e4a05d;stop-opacity:1"
         offset="1.0000000"
         id="stop237" />
    </linearGradient>
    <radialGradient
       inkscape:collect="always"
       xlink:href="#linearGradient6016"
       id="radialGradient5612"
       gradientUnits="userSpaceOnUse"
       gradientTransform="matrix(1,0,0,0.8571429,0,7.7142857)"
       cx="7.5"
       cy="54"
       fx="7.5"
       fy="54"
       r="3.5" />
    <linearGradient
       inkscape:collect="always"
       xlink:href="#linearGradient6016"
       id="linearGradient5614"
       gradientUnits="userSpaceOnUse"
       gradientTransform="matrix(0.974359,0,0,0.9999324,-0.8974359,-2.9973634)"
       spreadMethod="reflect"
       x1="24.027025"
       y1="42.500237"
       x2="24.038048"
       y2="39.000473" />
    <radialGradient
       inkscape:collect="always"
       xlink:href="#linearGradient6016"
       id="radialGradient5616"
       gradientUnits="userSpaceOnUse"
       gradientTransform="matrix(1,0,0,0.8571429,0,7.7142857)"
       cx="7.5"
       cy="54"
       fx="7.5"
       fy="54"
       r="3.5" />
    <linearGradient
       inkscape:collect="always"
       xlink:href="#linearGradient235"
       id="linearGradient5618"
       gradientUnits="userSpaceOnUse"
       gradientTransform="matrix(1.0732403,0,0,0.9371473,-1.1247905,3.7529185e-2)"
       x1="25.273735"
       y1="46.91095"
       x2="24.983023"
       y2="8.3744106" />
    <linearGradient
       inkscape:collect="always"
       xlink:href="#linearGradient5990"
       id="linearGradient5620"
       gradientUnits="userSpaceOnUse"
       gradientTransform="translate(1,0)"
       x1="6"
       y1="9"
       x2="5.7599545"
       y2="27.345419" />
    <linearGradient
       inkscape:collect="always"
       xlink:href="#linearGradient5985"
       id="linearGradient5622"
       gradientUnits="userSpaceOnUse"
       gradientTransform="translate(1,0)"
       x1="10"
       y1="9"
       x2="22"
       y2="35" />
    <linearGradient
       inkscape:collect="always"
       xlink:href="#linearGradient4734"
       id="linearGradient5624"
       gradientUnits="userSpaceOnUse"
       gradientTransform="translate(4,0)"
       x1="28"
       y1="18"
       x2="28.016411"
       y2="38.807583" />
    <linearGradient
       inkscape:collect="always"
       xlink:href="#linearGradient5990"
       id="linearGradient5626"
       gradientUnits="userSpaceOnUse"
       gradientTransform="translate(2,0)"
       x1="19"
       y1="25"
       x2="7"
       y2="37" />
    <linearGradient
       inkscape:collect="always"
       xlink:href="#linearGradient5985"
       id="linearGradient5628"
       gradientUnits="userSpaceOnUse"
       gradientTransform="translate(2,0)"
       x1="23"
       y1="16"
       x2="30"
       y2="30" />
  </defs>
  <g
     inkscape:groupmode="layer"
     id="layer1"
     inkscape:label="pixmap"
     style="display:inline" />
  <g
     inkscape:groupmode="layer"
     id="layer2"
     inkscape:label="vectors"
     style="display:inline">
    <g
       id="g891"
       transform="matrix(0.186703,0,0,0.186703,-19.1073,57.62299)" />
    <g
       id="g5586">
      <g
         style="display:inline"
         inkscape:label="pixmap"
         id="g5588" />
      <g
         style="display:inline"
         inkscape:label="vectors"
         id="g5590">
        <g
           transform="matrix(0.6590909,0,0,0.7143061,1.0000001,-1.7151624)"
           style="opacity:0.20392157"
           id="g5592">
          <path
             sodipodi:type="arc"
             style="opacity:1;fill:url(#radialGradient5612);fill-opacity:1;stroke:none;stroke-width:1;stroke-linecap:round;stroke-linejoin:miter;stroke-miterlimit:4;stroke-dasharray:none;stroke-opacity:1"
             id="path5594"
             sodipodi:cx="7.5"
             sodipodi:cy="54"
             sodipodi:rx="3.5"
             sodipodi:ry="3"
             d="M 7.5000001,57 A 3.5,3 0 1 1 7.5000001,51 L 7.5,54 z"
             transform="matrix(0.8571428,0,0,1.1665878,-3.4285713,-23.495778)"
             sodipodi:start="1.5707963"
             sodipodi:end="4.712389" />
          <rect
             style="opacity:1;fill:url(#linearGradient5614);fill-opacity:1;stroke:none;stroke-width:1;stroke-linecap:round;stroke-linejoin:miter;stroke-miterlimit:4;stroke-dasharray:none;stroke-opacity:1"
             id="rect5596"
             width="38"
             height="6.999527"
             x="3.0000002"
             y="36.000473" />
          <path
             sodipodi:type="arc"
             style="opacity:1;fill:url(#radialGradient5616);fill-opacity:1;stroke:none;stroke-width:1;stroke-linecap:round;stroke-linejoin:miter;stroke-miterlimit:4;stroke-dasharray:none;stroke-opacity:1"
             id="path5598"
             sodipodi:cx="7.5"
             sodipodi:cy="54"
             sodipodi:rx="3.5"
             sodipodi:ry="3"
             d="M 7.5000001,57 A 3.5,3 0 1 1 7.5000001,51 L 7.5,54 z"
             transform="matrix(-0.8571428,0,0,1.1665878,47.428571,-23.495506)"
             sodipodi:start="1.5707963"
             sodipodi:end="4.712389" />
        </g>
        <path
           sodipodi:nodetypes="ccccccccccccc"
           id="path5600"
           style="fill:url(#linearGradient5618);fill-opacity:1;fill-rule:evenodd;stroke:url(#linearGradient5620);stroke-width:0.99999994;stroke-miterlimit:4;stroke-opacity:1"
           d="M 3.1578946,4.4999998 C 2.8505778,4.4999998 2.4999999,4.8286605 2.4999999,5.1470584 L 2.4999999,25.20588 C 2.4999999,26.176469 3.1578946,26.499999 5.1315787,26.499999 L 26.842104,25.852939 C 27.171052,25.852939 27.499999,25.529411 27.499999,25.20588 L 27.5,7.1875 C 27.5,6.8357593 27.173403,6.5 26.84375,6.5 L 15.8125,6.5 C 15.589757,6.5 15.193231,6.2392628 14.890623,6 L 13.355261,4.8235286 C 13.21127,4.6288361 12.74534,4.5 12.5,4.5 L 3.1578946,4.4999998 z" />
        <path
           sodipodi:nodetypes="cccccccc"
           id="path5602"
           d="M 3.5001027,5.5129449 C 3.5005097,12.229066 3.4992879,18.945191 3.5007149,25.661311 C 3.9831522,26.288042 5.0541995,26.049514 5.7980012,26.096086 C 12.896406,25.885568 19.357136,25.673473 26.455555,25.463943 C 26.455555,19.457191 26.5,13.506751 26.5,7.5 C 22.62139,7.4953011 19.378351,7.5164817 15.5,7.5 C 14.739337,7.388203 13,5.7530973 12.5,5.5 C 9.546389,5.5 6.4537144,5.5129449 3.5001027,5.5129449 z"
           style="opacity:0.34901961;fill:none;fill-opacity:1;fill-rule:evenodd;stroke:url(#linearGradient5622);stroke-width:1;stroke-linejoin:round;stroke-miterlimit:4;stroke-opacity:1;display:inline" />
        <g
           transform="matrix(0.186703,0,0,0.186703,-19.1073,57.62299)"
           id="g5604" />
        <path
           inkscape:r_cy="true"
           inkscape:r_cx="true"
           sodipodi:nodetypes="czzszccccccccc"
           id="path5606"
           d="M 7.4587959,12.018518 L 12.725356,12.018518 C 13.213654,12.018518 13.831862,11.704454 14.041996,11.388889 C 14.132017,11.253702 14.641271,10.211795 14.700316,10.129629 C 14.897014,9.855914 15.313169,9.4999997 15.687797,9.4999997 L 29.512518,9.4999997 C 30.041042,9.4999997 30.499999,9.940939 30.499999,10.444445 L 28.525039,24.296295 C 28.525039,25.555555 27.537558,26.5 25.891758,26.5 L 4.8255157,26.5 C 4.5419517,26.493241 3.8380356,26.5 3.4999997,26.257304 C 3.8602838,26.297301 4.1671956,25.870369 4.1671956,25.555555 L 5.4838358,13.907407 C 5.4838358,12.962963 6.2294547,12.018518 7.4587959,12.018518 z"
           style="fill:url(#linearGradient5624);fill-opacity:1;fill-rule:evenodd;stroke:url(#linearGradient5626);stroke-width:0.99999976;stroke-linecap:butt;stroke-linejoin:round;marker:none;marker-start:none;marker-mid:none;marker-end:none;stroke-miterlimit:4;stroke-dashoffset:0;stroke-opacity:1;visibility:visible;display:inline;overflow:visible" />
        <path
           sodipodi:nodetypes="ccccccccccccccccccccc"
           id="path5608"
           d="M 29.147906,10.000073 C 24.456091,10.045555 20.410319,10.005996 15.717294,10.019279 C 14.542824,10.349685 14.760053,12.011858 13.556387,12.312545 C 12.458322,12.640527 11.497403,12.477852 10.153946,12.479988 C 9.2173434,12.478393 8.179436,12.491155 7.2794353,12.503962 C 6.5764772,12.661081 6.1562035,13.088788 5.9790851,13.707139 L 4.6806573,25.385358 C 4.6288169,25.670691 4.6192934,25.867904 4.4777779,26 L 26.242425,25.992323 C 27.774723,25.900195 28.193404,24.350903 28.192801,23.153669 C 28.793918,19.197931 29.399523,14.628163 30,10.672338 C 29.984461,10.267234 29.547344,9.9948946 29.147906,10.000073 z M 29.350786,10.633924 L 27.423432,23.944787 C 27.563309,24.919009 26.471637,25.573869 25.539742,25.386723 C 18.587124,25.417765 12.280477,25.353171 5.3298711,25.404564 C 5.7686714,21.737487 6.2053395,18.066243 6.673681,14.404795 C 7.1738666,13.105252 9.0545614,13.932821 10.164773,13.709995 C 11.641056,13.623432 13.350191,14.038646 14.577663,13.047916 C 15.273104,12.302306 15.196359,10.633924 16.691115,10.633924 L 29.350786,10.633924 z"
           style="opacity:0.65490196;fill:url(#linearGradient5628);fill-opacity:1;fill-rule:evenodd;stroke:none;stroke-width:0.99999988;stroke-linecap:butt;stroke-linejoin:round;marker:none;stroke-miterlimit:4;stroke-dashoffset:0;stroke-opacity:1;visibility:visible;display:inline;overflow:visible" />
        <path
           transform="matrix(0.8205128,0,0,0.9974067,-1.9230768,-4.4727704)"
           d="M 7.21875,10 A 0.609375,0.5 0 1 1 6,10 A 0.609375,0.5 0 1 1 7.21875,10 z"
           sodipodi:ry="0.5"
           sodipodi:rx="0.609375"
           sodipodi:cy="10"
           sodipodi:cx="6.609375"
           id="path5610"
           style="opacity:1;fill:#ffffff;fill-opacity:1;stroke:none;stroke-width:1;stroke-linecap:round;stroke-linejoin:round;stroke-miterlimit:4;stroke-dasharray:none;stroke-opacity:1"
           sodipodi:type="arc" />
      </g>
    </g>
    <path
       style="display:inline;opacity:0.65000000000000002;fill:#ffffff;fill-opacity:1;fill-rule:evenodd;stroke:none;stroke-width:2.07019662999999987;stroke-linecap:round;stroke-linejoin:round;marker:none;stroke-miterlimit:4;stroke-dasharray:none;stroke-dashoffset:0;stroke-opacity:1;visibility:visible;overflow:visible;enable-background:accumulate"
       d="M 16.5 13.96875 C 14.080132 13.96875 12.03125 15.967943 12.03125 18.5 C 12.03125 21.032057 14.080132 23.03125 16.5 23.03125 C 17.63825 23.03125 18.670753 22.575805 19.46875 21.84375 L 22.90625 24.3125 C 23.354981 24.640419 23.984581 24.542481 24.3125 24.09375 C 24.640419 23.645019 24.542481 23.015419 24.09375 22.6875 L 20.625 20.21875 C 20.838305 19.691641 20.96875 19.10923 20.96875 18.5 C 20.96875 15.967943 18.919868 13.96875 16.5 13.96875 z M 16.5 16.03125 C 17.944132 16.03125 19.03125 17.168057 19.03125 18.5 C 19.03125 19.831943 17.944132 20.96875 16.5 20.96875 C 15.055868 20.96875 13.96875 19.831943 13.96875 18.5 C 13.96875 17.168057 15.055868 16.03125 16.5 16.03125 z "
       id="path6221" />
  </g>
</svg>
