<?xml version="1.0" encoding="UTF-8" standalone="no"?>
<!DOCTYPE svg PUBLIC "-//W3C//DTD SVG 20010904//EN"
"http://www.w3.org/TR/2001/REC-SVG-20010904/DTD/svg10.dtd">
<!-- Created with Sodipodi ("http://www.sodipodi.com/") -->
<svg
   width="32pt"
   height="32pt"
   viewBox="0 0 256 256"
   overflow="visible"
   enable-background="new 0 0 256 256"
   xml:space="preserve"
   xmlns="http://www.w3.org/2000/svg"
   xmlns:xml="http://www.w3.org/XML/1998/namespace"
   xmlns:a="http://ns.adobe.com/AdobeSVGViewerExtensions/3.0/"
   xmlns:sodipodi="http://sodipodi.sourceforge.net/DTD/sodipodi-0.dtd"
   xmlns:xlink="http://www.w3.org/1999/xlink"
   id="svg153"
   sodipodi:version="0.32pre"
   sodipodi:docname="/home/cschalle/gnome-themes-extras/Nuvola/icons/scalable/emblems/emblem-important.svg"
   sodipodi:docbase="/home/cschalle/gnome-themes-extras/Nuvola/icons/scalable/emblems">
  <defs
     id="defs203" />
  <sodipodi:namedview
     id="base" />
  <g
     id="Layer_2"
     stroke="#000000">
    <path
       fill="none"
       stroke="none"
       d="M256,256H0V0h256V256z"
       id="path155" />
  </g>
  <g
     id="Layer_1"
     stroke="#000000">
    <path
       opacity="0.2"
       stroke="none"
       d="M128.84,32.614l-56.121,97.204L11.625,235.635H256L133.813,24L128.84,32.614z"
       id="path157" />
    <linearGradient
       id="XMLID_1_"
       gradientUnits="userSpaceOnUse"
       x1="127.8125"
       y1="19.7324"
       x2="127.8125"
       y2="219.9586">
      <stop
         offset="0"
         style="stop-color:#CC0000"
         id="stop159" />
      <stop
         offset="1"
         style="stop-color:#990000"
         id="stop160" />
      <a:midPointStop
         offset="0"
         style="stop-color:#CC0000"
         id="midPointStop161" />
      <a:midPointStop
         offset="0.5"
         style="stop-color:#CC0000"
         id="midPointStop162" />
      <a:midPointStop
         offset="1"
         style="stop-color:#990000"
         id="midPointStop163" />
    </linearGradient>
    <path
       fill="url(#XMLID_1_)"
       stroke="none"
       d="M122.839,25.614l-56.12,97.204L5.625,228.635H250L127.813,17L122.839,25.614z"
       id="path164" />
    <linearGradient
       id="XMLID_2_"
       gradientUnits="userSpaceOnUse"
       x1="127.812"
       y1="106"
       x2="127.812"
       y2="236">
      <stop
         offset="0.0056"
         style="stop-color:#FF0000"
         id="stop166" />
      <stop
         offset="1"
         style="stop-color:#FF6666"
         id="stop167" />
      <a:midPointStop
         offset="0.0056"
         style="stop-color:#FF0000"
         id="midPointStop168" />
      <a:midPointStop
         offset="0.5"
         style="stop-color:#FF0000"
         id="midPointStop169" />
      <a:midPointStop
         offset="1"
         style="stop-color:#FF6666"
         id="midPointStop170" />
    </linearGradient>
    <path
       fill="url(#XMLID_2_)"
       stroke="none"
       d="M127.813,28.486l56.121,97.204l56.119,97.202h-112.24H15.572l56.121-97.202    L127.813,28.486z"
       id="path171" />
    <linearGradient
       id="XMLID_3_"
       gradientUnits="userSpaceOnUse"
       x1="129.1338"
       y1="138.5176"
       x2="129.1338"
       y2="55.5194">
      <stop
         offset="0"
         style="stop-color:#FF0000"
         id="stop173" />
      <stop
         offset="1"
         style="stop-color:#FF9999"
         id="stop174" />
      <a:midPointStop
         offset="0"
         style="stop-color:#FF0000"
         id="midPointStop175" />
      <a:midPointStop
         offset="0.5"
         style="stop-color:#FF0000"
         id="midPointStop176" />
      <a:midPointStop
         offset="1"
         style="stop-color:#FF9999"
         id="midPointStop177" />
    </linearGradient>
    <path
       fill="url(#XMLID_3_)"
       stroke="none"
       d="M127.813,28.486l-43.997,76.207c4.962,35.454,23.526,61.808,45.685,61.808    c21.192,0,39.092-24.111,44.953-57.23L127.813,28.486z"
       id="path178" />
    <path
       fill="#CC0000"
       stroke="none"
       d="M125.823,61.795l-41.199,71.36l-41.2,71.359c-0.41,0.711-0.41,1.586,0,2.297    s1.169,1.148,1.989,1.148h164.798c0.821,0,1.58-0.438,1.99-1.148c0.409-0.711,0.41-1.586,0-2.297l-82.399-142.72    c-0.411-0.71-1.169-1.148-1.99-1.148C126.992,60.646,126.233,61.084,125.823,61.795z"
       id="path179" />
    <linearGradient
       id="XMLID_4_"
       gradientUnits="userSpaceOnUse"
       x1="75.8188"
       y1="134.3027"
       x2="175.1593"
       y2="134.3027">
      <stop
         offset="0"
         style="stop-color:#FFFFFF"
         id="stop181" />
      <stop
         offset="1"
         style="stop-color:#F2F2F8"
         id="stop182" />
      <a:midPointStop
         offset="0"
         style="stop-color:#FFFFFF"
         id="midPointStop183" />
      <a:midPointStop
         offset="0.5"
         style="stop-color:#FFFFFF"
         id="midPointStop184" />
      <a:midPointStop
         offset="1"
         style="stop-color:#F2F2F8"
         id="midPointStop185" />
    </linearGradient>
    <path
       fill="url(#XMLID_4_)"
       stroke="none"
       d="M86.613,134.304c0,0-25.117,43.503-41.2,71.359c32.166,0,132.634,0,164.798,0    C194.13,177.807,143.895,90.8,127.813,62.943C111.73,90.8,86.613,134.304,86.613,134.304z"
       id="path186" />
    <path
       stroke="none"
       d="M126.295,164.765c0-11.732-9.8-40.719-9.8-52.313c0-6.763,4.693-11.456,11.318-11.456    c6.625,0,11.318,4.692,11.318,11.456c0,11.594-9.8,40.581-9.8,52.313H126.295z M116.909,185.468    c0-6.072,4.831-10.902,10.903-10.902c6.073,0,10.906,4.83,10.906,10.902c0,6.073-4.833,10.905-10.906,10.905    C121.74,196.373,116.909,191.541,116.909,185.468z"
       id="path187" />
    <radialGradient
       id="XMLID_5_"
       cx="120.8965"
       cy="103.436"
       r="11.4314"
       fx="120.8965"
       fy="103.436"
       gradientUnits="userSpaceOnUse">
      <stop
         offset="0"
         style="stop-color:#FFFFFF"
         id="stop189" />
      <stop
         offset="1"
         style="stop-color:#000000"
         id="stop190" />
      <a:midPointStop
         offset="0"
         style="stop-color:#FFFFFF"
         id="midPointStop191" />
      <a:midPointStop
         offset="0.5"
         style="stop-color:#FFFFFF"
         id="midPointStop192" />
      <a:midPointStop
         offset="1"
         style="stop-color:#000000"
         id="midPointStop193" />
    </radialGradient>
    <path
       opacity="0.5"
       fill="url(#XMLID_5_)"
       stroke="none"
       d="M118.365,109.614c0,5.661,2.552,16.246,5.02,26.482    c1.292,5.362,2.542,10.566,3.503,15.272c0.96-4.706,2.21-9.91,3.504-15.272c2.468-10.236,5.02-20.821,5.02-26.482    c0-5.185-3.426-8.668-8.524-8.668S118.365,104.429,118.365,109.614z"
       id="path194" />
    <radialGradient
       id="XMLID_6_"
       cx="118.8799"
       cy="179.3262"
       r="13.3472"
       fx="118.8799"
       fy="179.3262"
       gradientUnits="userSpaceOnUse">
      <stop
         offset="0"
         style="stop-color:#FFFFFF"
         id="stop196" />
      <stop
         offset="1"
         style="stop-color:#000000"
         id="stop197" />
      <a:midPointStop
         offset="0"
         style="stop-color:#FFFFFF"
         id="midPointStop198" />
      <a:midPointStop
         offset="0.5"
         style="stop-color:#FFFFFF"
         id="midPointStop199" />
      <a:midPointStop
         offset="1"
         style="stop-color:#000000"
         id="midPointStop200" />
    </radialGradient>
    <path
       opacity="0.5"
       fill="url(#XMLID_6_)"
       stroke="none"
       d="M118.246,184.544c0,4.847,3.797,8.644,8.643,8.644    c4.846,0,8.644-3.797,8.644-8.644c0-4.846-3.798-8.643-8.644-8.643C122.042,175.901,118.246,179.698,118.246,184.544z"
       id="path201" />
  </g>
</svg>
