<?xml version="1.0" encoding="UTF-8" standalone="no"?>
<!DOCTYPE svg PUBLIC "-//W3C//DTD SVG 20010904//EN"
"http://www.w3.org/TR/2001/REC-SVG-20010904/DTD/svg10.dtd">
<!-- Created with Sodipodi ("http://www.sodipodi.com/") -->
<svg
   width="32pt"
   height="32pt"
   viewBox="0 0 256 256"
   overflow="visible"
   enable-background="new 0 0 256 256"
   xml:space="preserve"
   xmlns="http://www.w3.org/2000/svg"
   xmlns:xml="http://www.w3.org/XML/1998/namespace"
   xmlns:a="http://ns.adobe.com/AdobeSVGViewerExtensions/3.0/"
   xmlns:sodipodi="http://sodipodi.sourceforge.net/DTD/sodipodi-0.dtd"
   xmlns:xlink="http://www.w3.org/1999/xlink"
   id="svg153"
   sodipodi:version="0.32pre"
   sodipodi:docname="/home/cschalle/gnome-themes-extras/Nuvola/icons/scalable/emblems/emblem-multimedia.svg"
   sodipodi:docbase="/home/cschalle/gnome-themes-extras/Nuvola/icons/scalable/emblems">
  <defs
     id="defs293">
    <linearGradient
       id="linearGradient557"
       gradientUnits="userSpaceOnUse"
       x1="177.9912"
       y1="163.7754"
       x2="177.9912"
       y2="222.4602">
      <stop
         offset="0"
         style="stop-color:#3399FF"
         id="stop558" />
      <stop
         offset="1"
         style="stop-color:#3399FF"
         id="stop559" />
      <a:midPointStop
         offset="0"
         style="stop-color:#3399FF"
         id="midPointStop560" />
      <a:midPointStop
         offset="0.5"
         style="stop-color:#3399FF"
         id="midPointStop561" />
      <a:midPointStop
         offset="1"
         style="stop-color:#3399FF"
         id="midPointStop562" />
    </linearGradient>
    <linearGradient
       id="linearGradient550"
       gradientUnits="userSpaceOnUse"
       x1="230.5273"
       y1="134.9355"
       x2="194.5305"
       y2="161.9332">
      <stop
         offset="0"
         style="stop-color:#3399FF"
         id="stop551" />
      <stop
         offset="1"
         style="stop-color:#000000"
         id="stop552" />
      <a:midPointStop
         offset="0"
         style="stop-color:#3399FF"
         id="midPointStop553" />
      <a:midPointStop
         offset="0.5"
         style="stop-color:#3399FF"
         id="midPointStop554" />
      <a:midPointStop
         offset="1"
         style="stop-color:#000000"
         id="midPointStop555" />
    </linearGradient>
    <linearGradient
       id="linearGradient543"
       gradientUnits="userSpaceOnUse"
       x1="48.0449"
       y1="34.686"
       x2="198.2324"
       y2="34.686"
       gradientTransform="matrix(0.9573 0.289 -0.289 0.9573 49.2305 38.3018)">
      <stop
         offset="0"
         style="stop-color:#A7ABAC"
         id="stop544" />
      <stop
         offset="1"
         style="stop-color:#85898A"
         id="stop545" />
      <a:midPointStop
         offset="0"
         style="stop-color:#A7ABAC"
         id="midPointStop546" />
      <a:midPointStop
         offset="0.5"
         style="stop-color:#A7ABAC"
         id="midPointStop547" />
      <a:midPointStop
         offset="1"
         style="stop-color:#85898A"
         id="midPointStop548" />
    </linearGradient>
    <linearGradient
       id="linearGradient535"
       gradientUnits="userSpaceOnUse"
       x1="92.0298"
       y1="3.5781"
       x2="261.5201"
       y2="173.0684"
       gradientTransform="matrix(0.9573 0.289 -0.289 0.9573 49.2305 38.3018)">
      <stop
         offset="0"
         style="stop-color:#FFFFFF"
         id="stop536" />
      <stop
         offset="1"
         style="stop-color:#99CCFF"
         id="stop537" />
      <a:midPointStop
         offset="0"
         style="stop-color:#FFFFFF"
         id="midPointStop538" />
      <a:midPointStop
         offset="0.5"
         style="stop-color:#FFFFFF"
         id="midPointStop539" />
      <a:midPointStop
         offset="1"
         style="stop-color:#99CCFF"
         id="midPointStop540" />
    </linearGradient>
    <linearGradient
       id="linearGradient527"
       gradientUnits="userSpaceOnUse"
       x1="0.9634"
       y1="77.1636"
       x2="234.9606"
       y2="239.1619">
      <stop
         offset="0"
         style="stop-color:#0066CC"
         id="stop528" />
      <stop
         offset="1"
         style="stop-color:#003399"
         id="stop529" />
      <a:midPointStop
         offset="0"
         style="stop-color:#0066CC"
         id="midPointStop530" />
      <a:midPointStop
         offset="0.5"
         style="stop-color:#0066CC"
         id="midPointStop531" />
      <a:midPointStop
         offset="1"
         style="stop-color:#003399"
         id="midPointStop532" />
    </linearGradient>
    <linearGradient
       id="linearGradient520"
       gradientUnits="userSpaceOnUse"
       x1="108.4741"
       y1="122.9473"
       x2="108.4741"
       y2="221.9355"
       gradientTransform="matrix(0.9907 -0.1364 0.1364 0.9907 -17.8313 20.72)">
      <stop
         offset="0"
         style="stop-color:#99CCFF"
         id="stop521" />
      <stop
         offset="1"
         style="stop-color:#3399FF"
         id="stop522" />
      <a:midPointStop
         offset="0"
         style="stop-color:#99CCFF"
         id="midPointStop523" />
      <a:midPointStop
         offset="0.5"
         style="stop-color:#99CCFF"
         id="midPointStop524" />
      <a:midPointStop
         offset="1"
         style="stop-color:#3399FF"
         id="midPointStop525" />
    </linearGradient>
    <linearGradient
       id="linearGradient509"
       gradientUnits="userSpaceOnUse"
       x1="40.9028"
       y1="91.4419"
       x2="40.9028"
       y2="75.4412"
       gradientTransform="matrix(0.9907 -0.1364 0.1364 0.9907 -17.8313 20.72)">
      <stop
         offset="0"
         style="stop-color:#3399FF"
         id="stop510" />
      <stop
         offset="0.0546"
         style="stop-color:#3B9DFF"
         id="stop511" />
      <stop
         offset="0.3437"
         style="stop-color:#64B1FF"
         id="stop512" />
      <stop
         offset="0.6075"
         style="stop-color:#81C0FF"
         id="stop513" />
      <stop
         offset="0.835"
         style="stop-color:#93C9FF"
         id="stop514" />
      <stop
         offset="1"
         style="stop-color:#99CCFF"
         id="stop515" />
      <a:midPointStop
         offset="0"
         style="stop-color:#3399FF"
         id="midPointStop516" />
      <a:midPointStop
         offset="0.3616"
         style="stop-color:#3399FF"
         id="midPointStop517" />
      <a:midPointStop
         offset="1"
         style="stop-color:#99CCFF"
         id="midPointStop518" />
    </linearGradient>
    <linearGradient
       id="linearGradient502"
       gradientUnits="userSpaceOnUse"
       x1="61.165"
       y1="85.0537"
       x2="144.3058"
       y2="193.4335"
       gradientTransform="matrix(0.9907 -0.1364 0.1364 0.9907 -17.8313 20.72)">
      <stop
         offset="0"
         style="stop-color:#FFFFFF"
         id="stop503" />
      <stop
         offset="1"
         style="stop-color:#99CCFF"
         id="stop504" />
      <a:midPointStop
         offset="0"
         style="stop-color:#FFFFFF"
         id="midPointStop505" />
      <a:midPointStop
         offset="0.5"
         style="stop-color:#FFFFFF"
         id="midPointStop506" />
      <a:midPointStop
         offset="1"
         style="stop-color:#99CCFF"
         id="midPointStop507" />
    </linearGradient>
    <linearGradient
       id="linearGradient491"
       gradientUnits="userSpaceOnUse"
       x1="129.8623"
       y1="110.3447"
       x2="260.6779"
       y2="241.1603">
      <stop
         offset="0"
         style="stop-color:#FFFFFF"
         id="stop492" />
      <stop
         offset="1"
         style="stop-color:#99CCFF"
         id="stop493" />
      <a:midPointStop
         offset="0"
         style="stop-color:#FFFFFF"
         id="midPointStop494" />
      <a:midPointStop
         offset="0.5"
         style="stop-color:#FFFFFF"
         id="midPointStop495" />
      <a:midPointStop
         offset="1"
         style="stop-color:#99CCFF"
         id="midPointStop496" />
    </linearGradient>
    <linearGradient
       id="linearGradient484"
       gradientUnits="userSpaceOnUse"
       x1="85.1934"
       y1="83.5146"
       x2="229.9093"
       y2="183.7028">
      <stop
         offset="0"
         style="stop-color:#3399FF"
         id="stop485" />
      <stop
         offset="1"
         style="stop-color:#0066CC"
         id="stop486" />
      <a:midPointStop
         offset="0"
         style="stop-color:#3399FF"
         id="midPointStop487" />
      <a:midPointStop
         offset="0.5"
         style="stop-color:#3399FF"
         id="midPointStop488" />
      <a:midPointStop
         offset="1"
         style="stop-color:#0066CC"
         id="midPointStop489" />
    </linearGradient>
    <linearGradient
       id="linearGradient476"
       gradientUnits="userSpaceOnUse"
       x1="64.084"
       y1="146.5732"
       x2="213.9453"
       y2="146.5732">
      <stop
         offset="0"
         style="stop-color:#A7ABAC"
         id="stop477" />
      <stop
         offset="1"
         style="stop-color:#85898A"
         id="stop478" />
      <a:midPointStop
         offset="0"
         style="stop-color:#A7ABAC"
         id="midPointStop479" />
      <a:midPointStop
         offset="0.5"
         style="stop-color:#A7ABAC"
         id="midPointStop480" />
      <a:midPointStop
         offset="1"
         style="stop-color:#85898A"
         id="midPointStop481" />
    </linearGradient>
    <linearGradient
       id="linearGradient469"
       gradientUnits="userSpaceOnUse"
       x1="199.2715"
       y1="120.0732"
       x2="212.5107"
       y2="120.0732">
      <stop
         offset="0"
         style="stop-color:#A7ABAC"
         id="stop470" />
      <stop
         offset="1"
         style="stop-color:#85898A"
         id="stop471" />
      <a:midPointStop
         offset="0"
         style="stop-color:#A7ABAC"
         id="midPointStop472" />
      <a:midPointStop
         offset="0.5"
         style="stop-color:#A7ABAC"
         id="midPointStop473" />
      <a:midPointStop
         offset="1"
         style="stop-color:#85898A"
         id="midPointStop474" />
    </linearGradient>
  </defs>
  <sodipodi:namedview
     id="base" />
  <metadata
     id="metadata154">
    <sfw>
      <slices />
      <sliceSourceBounds
         y="268"
         x="178"
         width="256"
         height="256"
         bottomLeftOrigin="true" />
      <optimizationSettings>
        <targetSettings
           fileFormat="PNG24Format"
           targetSettingsID="0">
          <PNG24Format
             transparency="true"
             includeCaption="false"
             interlaced="false"
             noMatteColor="false"
             matteColor="#FFFFFF"
             filtered="false" />
        </targetSettings>
      </optimizationSettings>
    </sfw>
  </metadata>
  <path
     opacity="0.4"
     fill="#FFFFFF"
     stroke="none"
     d="M185.594,99.265c16.331-8.092,33.403-9.344,50.755-7.288l9.866-32.68    c1.369-4.538-1.199-9.326-5.735-10.695L119.986,12.229c-4.538-1.37-9.326,1.198-10.696,5.735l-29.608,98.084    C112.854,128.856,152.089,114.929,185.594,99.265z"
     id="path186"
     style="font-size:12;opacity:0.4;fill:#ffffff;" />
  <g
     id="Layer_2"
     stroke="#000000">
    <path
       fill="none"
       stroke="none"
       d="M256,256H0V0h256V256z"
       id="path291" />
  </g>
  <g
     id="g833"
     transform="matrix(1.33093,0,0,1.43582,-0.655908,-109.147)">
    <path
       fill="#FFFFFF"
       stroke="none"
       d="M46.903,80.824L17.13,84.923c-4.916,0.677-8.311,5.625-7.566,11.028l0.546,3.963    c-0.744-5.404,2.65-10.352,7.566-11.029l29.773-4.099c4.916-0.677,9.521,3.169,10.266,8.574l-0.546-3.963    C56.425,83.994,51.819,80.147,46.903,80.824z"
       id="path219"
       style="font-size:12;fill:#ffffff;" />
    <path
       fill="#FFFFFF"
       stroke="none"
       d="M10.198,105.116L25.88,219.019c1.166,1.584,2.376,3.132,3.627,4.651L15.067,118.783    c-0.857-6.227,3.645-11.99,10.057-12.873l166.021-22.857c0.627-0.086,1.247-0.108,1.859-0.099l-0.406-2.951L10.198,105.116z"
       id="path220"
       style="font-size:12;fill:#ffffff;" />
    <path
       fill="url(#XMLID_13_)"
       stroke="none"
       d="M212.511,168.155l-13.239-96.164L212.511,168.155z"
       id="path251"
       style="font-size:12;fill:url(#linearGradient469);" />
    <g
       opacity="0.2"
       id="g252"
       style="font-size:12;opacity:0.2;stroke:#000000;">
      <g
         id="g253">
        <path
           stroke="none"
           d="M43.877,247.734l12.725-1.752c43.188-37.514,86.913-72.877,129.471-92.998      c-9.539-14.255-19.189-32.944-28.841-55.605c-46.318,5.052-93.378,30.194-139.605,59.972      C26.391,189.332,35.117,219.67,43.877,247.734z M50.92,243.602c-0.773-2.413-1.546-4.845-2.319-7.294      c1.639-1.361,3.28-2.722,4.923-4.079c0.773,2.413,1.548,4.807,2.322,7.182C54.203,240.806,52.561,242.203,50.92,243.602z       M60.281,235.658c-0.776-2.34-1.552-4.699-2.327-7.078c1.644-1.352,3.29-2.698,4.937-4.041c0.776,2.34,1.554,4.66,2.331,6.961      C63.574,232.882,61.927,234.269,60.281,235.658z M69.665,227.789c-0.778-2.266-1.555-4.552-2.333-6.857      c1.649-1.333,3.298-2.661,4.948-3.982c0.778,2.265,1.557,4.51,2.335,6.733C72.965,225.046,71.314,226.415,69.665,227.789z       M79.068,220.029c-0.78-2.188-1.56-4.398-2.339-6.63c1.65-1.31,3.301-2.612,4.952-3.906c0.78,2.189,1.561,4.357,2.342,6.504      C82.371,217.334,80.72,218.678,79.068,220.029z M88.479,212.414c-0.782-2.109-1.563-4.241-2.344-6.395      c1.652-1.279,3.305-2.551,4.957-3.813c0.781,2.11,1.563,4.198,2.345,6.265C91.784,209.777,90.131,211.092,88.479,212.414z       M77,146.642c11.243-6.438,22.489-12.296,33.716-17.354c5.328,14.651,10.667,28.249,16.013,40.692      c-11.235,7.026-22.502,14.767-33.774,22.994C87.622,178.518,82.305,163.035,77,146.642z M97.891,204.981      c-0.782-2.028-1.564-4.079-2.346-6.153c1.653-1.244,3.305-2.479,4.957-3.702c0.783,2.03,1.566,4.038,2.35,6.022      C101.198,202.415,99.545,203.693,97.891,204.981z M107.303,197.759c-0.783-1.945-1.566-3.913-2.35-5.904      c1.651-1.204,3.303-2.396,4.954-3.576c0.783,1.948,1.566,3.872,2.35,5.772C110.606,195.274,108.955,196.511,107.303,197.759z       M116.707,190.783c-0.784-1.86-1.568-3.745-2.352-5.653c1.65-1.157,3.299-2.301,4.948-3.431c0.784,1.864,1.567,3.704,2.352,5.52      C120.007,188.394,118.357,189.582,116.707,190.783z M126.097,184.084c-0.784-1.774-1.567-3.574-2.351-5.397      c1.648-1.104,3.296-2.194,4.942-3.27c0.784,1.777,1.567,3.53,2.35,5.258C129.393,181.797,127.745,182.934,126.097,184.084z       M135.475,177.689c-0.783-1.687-1.567-3.398-2.351-5.135c1.646-1.049,3.29-2.081,4.935-3.098      c0.782,1.689,1.565,3.354,2.348,4.993C138.764,175.514,137.119,176.594,135.475,177.689z M144.831,171.624      c-0.782-1.597-1.563-3.22-2.346-4.868c1.642-0.987,3.283-1.957,4.925-2.909c0.781,1.601,1.563,3.175,2.345,4.723      C148.114,169.571,146.473,170.589,144.831,171.624z M154.172,165.915c-0.78-1.505-1.562-3.036-2.343-4.595      c1.639-0.922,3.276-1.826,4.914-2.711c0.781,1.511,1.562,2.994,2.343,4.45C157.448,163.993,155.811,164.945,154.172,165.915z       M163.493,160.586c-0.779-1.412-1.56-2.852-2.34-4.318c1.636-0.853,3.271-1.687,4.906-2.501c0.778,1.419,1.557,2.81,2.334,4.172      C166.762,158.803,165.128,159.685,163.493,160.586z M175.359,149.344c0.776,1.324,1.552,2.621,2.327,3.889      c-1.63,0.789-3.26,1.599-4.892,2.427c-0.777-1.318-1.556-2.665-2.334-4.039C172.095,150.842,173.728,150.082,175.359,149.344z       M169.857,146.813c-11.148,4.898-22.329,10.737-33.547,17.347c-5.345-11.841-10.687-24.87-16.019-38.99      c11.217-4.592,22.411-8.329,33.591-11.049C159.215,126.257,164.545,137.182,169.857,146.813z M152.585,102.875      c0.781,1.851,1.563,3.675,2.345,5.474c-1.639,0.328-3.277,0.678-4.917,1.05c-0.781-1.843-1.563-3.711-2.344-5.604      C149.308,103.466,150.946,103.16,152.585,102.875z M143.252,104.735c0.782,1.932,1.564,3.838,2.346,5.72      c-1.64,0.411-3.279,0.843-4.92,1.295c-0.781-1.924-1.563-3.873-2.346-5.846C139.973,105.493,141.612,105.103,143.252,104.735z       M133.912,107.064c0.782,2.01,1.565,3.997,2.348,5.958c-1.641,0.491-3.282,1.002-4.925,1.534      c-0.78-2.004-1.562-4.032-2.342-6.083C130.633,107.982,132.272,107.513,133.912,107.064z M124.568,109.842      c0.78,2.088,1.561,4.152,2.342,6.193c-1.642,0.566-3.283,1.152-4.926,1.757c-0.781-2.082-1.562-4.186-2.343-6.314      C121.284,110.914,122.927,110.368,124.568,109.842z M115.215,113.047c0.781,2.164,1.562,4.304,2.343,6.421      c-1.644,0.639-3.288,1.296-4.933,1.972c-0.78-2.157-1.561-4.337-2.341-6.54C111.928,114.264,113.572,113.646,115.215,113.047z       M105.854,116.66c0.78,2.236,1.56,4.45,2.34,6.642c-1.645,0.707-3.291,1.432-4.937,2.173c-0.78-2.231-1.56-4.483-2.339-6.757      C102.563,118.014,104.208,117.328,105.854,116.66z M96.484,120.653c0.779,2.307,1.559,4.593,2.338,6.857      c-1.646,0.77-3.293,1.556-4.94,2.358c-0.779-2.301-1.558-4.623-2.336-6.966C93.192,122.137,94.838,121.387,96.484,120.653z       M87.11,125.001c0.778,2.375,1.556,4.73,2.334,7.065c-1.646,0.829-3.293,1.673-4.94,2.531c-0.778-2.37-1.556-4.761-2.333-7.17      C83.817,126.604,85.463,125.795,87.11,125.001z M77.733,129.68c0.777,2.44,1.554,4.861,2.332,7.263      c-1.647,0.884-3.293,1.78-4.94,2.689c-0.777-2.437-1.554-4.892-2.331-7.366C74.44,131.391,76.087,130.528,77.733,129.68z       M68.358,134.656c0.776,2.504,1.552,4.989,2.328,7.456c-1.646,0.932-3.292,1.876-4.938,2.831      c-0.776-2.501-1.552-5.021-2.327-7.557C65.066,136.464,66.712,135.554,68.358,134.656z M58.987,139.898      c0.775,2.565,1.55,5.113,2.326,7.644c-1.645,0.975-3.29,1.96-4.933,2.955c-0.775-2.563-1.549-5.144-2.324-7.74      C55.699,141.794,57.343,140.841,58.987,139.898z M49.63,145.376c0.774,2.625,1.548,5.232,2.322,7.823      c-1.643,1.012-3.285,2.032-4.926,3.061c-0.774-2.622-1.547-5.26-2.321-7.914C46.345,147.347,47.987,146.357,49.63,145.376z       M40.287,151.058c0.773,2.68,1.546,5.344,2.319,7.992c-1.64,1.043-3.278,2.093-4.915,3.149c-0.772-2.678-1.544-5.37-2.316-8.078      C37.01,153.093,38.648,152.071,40.287,151.058z M67.409,152.272c5.296,16.851,10.603,32.835,15.925,47.834      c-11.269,8.479-22.53,17.373-33.724,26.398c-5.276-16.789-10.54-34.413-15.805-52.737      C44.955,166.274,56.174,159.018,67.409,152.272z M33.284,165.061c-1.635,1.067-3.268,2.14-4.899,3.217      c-0.771-2.731-1.543-5.478-2.314-8.238c1.631-1.05,3.264-2.095,4.897-3.134C31.74,159.638,32.512,162.356,33.284,165.061z"
           id="path254" />
      </g>
    </g>
    <g
       id="g255"
       style="font-size:12;stroke:#000000;"
       transform="translate(0,-3.8147e-06)">
      <g
         id="g256">
        <path
           stroke="none"
           d="M141.587,92.746c-46.318,5.051-93.378,30.193-139.605,59.97c9.532,34.787,19.021,67.638,28.557,97.724      c46.56-40.815,93.906-80.35,139.889-102.09C160.889,134.095,151.238,115.406,141.587,92.746z M12.739,163.646      c-0.771-2.732-1.543-5.479-2.315-8.24c1.631-1.05,3.264-2.095,4.897-3.134c0.772,2.733,1.544,5.452,2.316,8.157      C16.003,161.495,14.37,162.568,12.739,163.646z M22.045,157.566c-0.772-2.679-1.545-5.372-2.317-8.08      c1.637-1.028,3.274-2.05,4.913-3.063c0.773,2.68,1.546,5.345,2.319,7.993C25.32,155.459,23.682,156.51,22.045,157.566z       M29.058,143.712c1.641-0.999,3.283-1.988,4.926-2.969c0.773,2.624,1.547,5.231,2.321,7.822      c-1.643,1.012-3.285,2.032-4.926,3.061C30.605,149.004,29.832,146.366,29.058,143.712z M35.273,238.968      c-0.773-2.413-1.546-4.845-2.318-7.295c1.64-1.361,3.281-2.721,4.924-4.078c0.773,2.413,1.547,4.807,2.321,7.183      C38.556,236.172,36.914,237.569,35.273,238.968z M38.411,138.125c1.643-0.964,3.286-1.917,4.93-2.859      c0.775,2.565,1.55,5.113,2.326,7.644c-1.645,0.974-3.289,1.958-4.933,2.952C39.959,143.3,39.185,140.721,38.411,138.125z       M44.634,231.024c-0.776-2.34-1.551-4.699-2.327-7.077c1.645-1.351,3.29-2.699,4.937-4.042c0.776,2.341,1.554,4.661,2.331,6.963      C47.927,228.249,46.28,229.636,44.634,231.024z M47.775,132.751c1.645-0.922,3.291-1.832,4.937-2.729      c0.776,2.504,1.552,4.989,2.328,7.456c-1.646,0.932-3.293,1.876-4.939,2.832C49.326,137.808,48.55,135.289,47.775,132.751z       M54.019,223.154c-0.778-2.265-1.555-4.551-2.332-6.855c1.648-1.334,3.297-2.662,4.947-3.983      c0.778,2.265,1.557,4.509,2.336,6.732C57.319,220.411,55.668,221.78,54.019,223.154z M57.148,127.631      c1.646-0.875,3.293-1.737,4.939-2.585c0.777,2.441,1.554,4.862,2.332,7.264c-1.647,0.884-3.293,1.78-4.94,2.689      C58.702,132.563,57.925,130.106,57.148,127.631z M63.422,215.396c-0.78-2.188-1.56-4.398-2.339-6.63      c1.65-1.31,3.302-2.612,4.953-3.907c0.78,2.189,1.561,4.358,2.341,6.505C66.725,212.7,65.073,214.044,63.422,215.396z       M66.524,122.793c1.646-0.823,3.293-1.631,4.939-2.425c0.778,2.375,1.556,4.73,2.334,7.064      c-1.646,0.829-3.293,1.673-4.939,2.531C68.08,127.594,67.302,125.204,66.524,122.793z M72.833,207.779      c-0.782-2.108-1.563-4.239-2.345-6.392c1.652-1.28,3.305-2.552,4.957-3.813c0.781,2.109,1.563,4.197,2.346,6.263      C76.138,205.143,74.485,206.457,72.833,207.779z M75.9,118.268c1.646-0.765,3.292-1.515,4.938-2.248      c0.779,2.307,1.558,4.592,2.337,6.856c-1.646,0.77-3.292,1.556-4.938,2.358C77.458,122.933,76.679,120.611,75.9,118.268z       M82.246,200.348c-0.782-2.029-1.564-4.08-2.346-6.154c1.652-1.244,3.305-2.479,4.956-3.701c0.783,2.029,1.566,4.037,2.35,6.021      C85.552,197.781,83.899,199.06,82.246,200.348z M85.271,114.084c1.646-0.703,3.291-1.39,4.936-2.058      c0.78,2.236,1.56,4.45,2.34,6.642c-1.646,0.707-3.291,1.431-4.938,2.172C86.831,118.609,86.051,116.358,85.271,114.084z       M91.657,193.126c-0.783-1.945-1.566-3.914-2.35-5.906c1.652-1.203,3.303-2.395,4.954-3.574c0.783,1.948,1.566,3.872,2.35,5.771      C94.96,190.642,93.309,191.878,91.657,193.126z M94.638,110.267c1.644-0.636,3.288-1.254,4.931-1.853      c0.781,2.164,1.562,4.304,2.343,6.421c-1.644,0.639-3.289,1.296-4.934,1.972C96.198,114.649,95.417,112.469,94.638,110.267z       M101.061,186.149c-0.784-1.859-1.568-3.744-2.352-5.652c1.65-1.156,3.3-2.301,4.949-3.431c0.784,1.863,1.567,3.703,2.352,5.518      C104.36,183.759,102.711,184.948,101.061,186.149z M103.996,106.844c1.643-0.565,3.284-1.11,4.926-1.636      c0.78,2.088,1.561,4.153,2.342,6.193c-1.642,0.567-3.284,1.153-4.927,1.758C105.557,111.078,104.776,108.973,103.996,106.844z       M110.451,179.45c-0.784-1.774-1.567-3.573-2.351-5.396c1.648-1.104,3.295-2.195,4.942-3.271      c0.784,1.777,1.567,3.53,2.351,5.258C113.747,177.163,112.099,178.3,110.451,179.45z M113.346,103.838      c1.641-0.49,3.281-0.959,4.92-1.408c0.782,2.01,1.565,3.997,2.348,5.958c-1.641,0.491-3.282,1.002-4.924,1.533      C114.908,107.917,114.127,105.89,113.346,103.838z M119.829,173.055c-0.784-1.686-1.568-3.397-2.352-5.134      c1.645-1.049,3.29-2.081,4.933-3.098c0.783,1.69,1.566,3.355,2.35,4.994C123.117,170.881,121.474,171.96,119.829,173.055z       M122.687,101.271c1.64-0.411,3.279-0.801,4.918-1.169c0.782,1.932,1.563,3.838,2.345,5.719      c-1.639,0.411-3.278,0.843-4.918,1.296C124.25,105.193,123.469,103.244,122.687,101.271z M129.186,166.989      c-0.782-1.596-1.564-3.219-2.347-4.868c1.642-0.986,3.283-1.956,4.924-2.909c0.781,1.602,1.563,3.176,2.346,4.724      C132.468,164.937,130.827,165.955,129.186,166.989z M132.022,99.162c1.64-0.329,3.278-0.636,4.917-0.92      c0.781,1.851,1.562,3.675,2.343,5.474c-1.639,0.328-3.277,0.678-4.917,1.05C133.584,102.923,132.804,101.055,132.022,99.162z       M138.526,161.281c-0.782-1.505-1.563-3.036-2.346-4.595c1.64-0.922,3.278-1.826,4.916-2.711      c0.781,1.51,1.563,2.993,2.344,4.449C141.803,159.359,140.165,160.312,138.526,161.281z M147.847,155.952      c-0.779-1.412-1.56-2.853-2.34-4.319c1.636-0.853,3.271-1.686,4.906-2.5c0.779,1.419,1.558,2.81,2.335,4.172      C151.115,154.168,149.481,155.051,147.847,155.952z M154.815,146.986c1.634-0.779,3.266-1.538,4.897-2.276      c0.776,1.324,1.553,2.62,2.328,3.889c-1.63,0.789-3.261,1.599-4.893,2.427C156.371,149.707,155.594,148.36,154.815,146.986z"
           id="path257" />
      </g>
    </g>
    <g
       id="g258"
       style="font-size:12;stroke:#000000;">
      <g
         id="g259">
        <linearGradient
           id="XMLID_14_"
           gradientUnits="userSpaceOnUse"
           x1="219.1943"
           y1="-127.8291"
           x2="220.5608"
           y2="-60.4142"
           gradientTransform="matrix(0.8241 -0.4595 0.3911 0.9954 -98.2116 386.9652)">
          <stop
             offset="0"
             style="stop-color:#FFFF99"
             id="stop261" />
          <stop
             offset="0.5"
             style="stop-color:#FFD100"
             id="stop262" />
          <stop
             offset="1"
             style="stop-color:#FFB30F"
             id="stop263" />
          <a:midPointStop
             offset="0"
             style="stop-color:#FFFF99"
             id="midPointStop264" />
          <a:midPointStop
             offset="0.5"
             style="stop-color:#FFFF99"
             id="midPointStop265" />
          <a:midPointStop
             offset="0.5"
             style="stop-color:#FFD100"
             id="midPointStop266" />
          <a:midPointStop
             offset="0.5"
             style="stop-color:#FFD100"
             id="midPointStop267" />
          <a:midPointStop
             offset="1"
             style="stop-color:#FFB30F"
             id="midPointStop268" />
        </linearGradient>
        <path
           fill="url(#XMLID_14_)"
           stroke="none"
           d="M67.675,195.278c-11.272,8.883-22.526,18.162-33.652,27.318      c-5.246-17.444-10.481-35.819-15.734-54.878c11.069-7.438,22.267-14.81,33.491-21.612      C57.063,163.555,62.358,180.017,67.675,195.278z"
           id="path269" />
        <linearGradient
           id="XMLID_15_"
           gradientUnits="userSpaceOnUse"
           x1="273.5195"
           y1="-130.313"
           x2="274.693"
           y2="-72.4203"
           gradientTransform="matrix(0.8241 -0.4595 0.3911 0.9954 -98.2116 386.9652)">
          <stop
             offset="0"
             style="stop-color:#FFFF99"
             id="stop271" />
          <stop
             offset="0.5"
             style="stop-color:#FFD100"
             id="stop272" />
          <stop
             offset="1"
             style="stop-color:#FFB30F"
             id="stop273" />
          <a:midPointStop
             offset="0"
             style="stop-color:#FFFF99"
             id="midPointStop274" />
          <a:midPointStop
             offset="0.5"
             style="stop-color:#FFFF99"
             id="midPointStop275" />
          <a:midPointStop
             offset="0.5"
             style="stop-color:#FFD100"
             id="midPointStop276" />
          <a:midPointStop
             offset="0.5"
             style="stop-color:#FFD100"
             id="midPointStop277" />
          <a:midPointStop
             offset="1"
             style="stop-color:#FFB30F"
             id="midPointStop278" />
        </linearGradient>
        <path
           fill="url(#XMLID_15_)"
           stroke="none"
           d="M111.083,163.897c-11.226,7.175-22.502,15.275-33.783,23.904      c-5.332-14.584-10.641-30.439-15.935-47.359c11.238-6.452,22.484-12.21,33.701-16.895      C100.391,138.374,105.733,151.882,111.083,163.897z"
           id="path279" />
        <linearGradient
           id="XMLID_16_"
           gradientUnits="userSpaceOnUse"
           x1="326.1914"
           y1="-128.5059"
           x2="327.2406"
           y2="-76.7441"
           gradientTransform="matrix(0.8241 -0.4595 0.3911 0.9954 -98.2116 386.9652)">
          <stop
             offset="0"
             style="stop-color:#FFFF99"
             id="stop281" />
          <stop
             offset="0.5"
             style="stop-color:#FFD100"
             id="stop282" />
          <stop
             offset="1"
             style="stop-color:#FFB30F"
             id="stop283" />
          <a:midPointStop
             offset="0"
             style="stop-color:#FFFF99"
             id="midPointStop284" />
          <a:midPointStop
             offset="0.5"
             style="stop-color:#FFFF99"
             id="midPointStop285" />
          <a:midPointStop
             offset="0.5"
             style="stop-color:#FFD100"
             id="midPointStop286" />
          <a:midPointStop
             offset="0.5"
             style="stop-color:#FFD100"
             id="midPointStop287" />
          <a:midPointStop
             offset="1"
             style="stop-color:#FFB30F"
             id="midPointStop288" />
        </linearGradient>
        <path
           fill="url(#XMLID_16_)"
           stroke="none"
           d="M154.12,141.451c-11.117,4.312-22.266,9.921-33.467,16.552      c-5.344-11.235-10.689-24.02-16.02-38.187c11.205-4.056,22.38-6.946,33.557-8.413      C143.521,123.052,148.842,133.111,154.12,141.451z"
           id="path289" />
      </g>
    </g>
  </g>
</svg>
