<?xml version="1.0" encoding="UTF-8" standalone="no"?>
<!DOCTYPE svg PUBLIC "-//W3C//DTD SVG 20010904//EN"
"http://www.w3.org/TR/2001/REC-SVG-20010904/DTD/svg10.dtd">
<!-- Created with Sodipodi ("http://www.sodipodi.com/") -->
<svg
   width="32pt"
   height="32pt"
   viewBox="0 0 256 256"
   overflow="visible"
   enable-background="new 0 0 256 256"
   xml:space="preserve"
   xmlns="http://www.w3.org/2000/svg"
   xmlns:xml="http://www.w3.org/XML/1998/namespace"
   xmlns:a="http://ns.adobe.com/AdobeSVGViewerExtensions/3.0/"
   xmlns:sodipodi="http://sodipodi.sourceforge.net/DTD/sodipodi-0.dtd"
   xmlns:xlink="http://www.w3.org/1999/xlink"
   id="svg153"
   sodipodi:version="0.32pre"
   sodipodi:docname="/home/cschalle/gnome-themes-extras/Nuvola/icons/scalable/emblems/emblem-audio.svg"
   sodipodi:docbase="/home/cschalle/gnome-themes-extras/Nuvola/icons/scalable/emblems">
  <defs
     id="defs183" />
  <sodipodi:namedview
     id="base" />
  <g
     id="Layer_2"
     stroke="#000000">
    <path
       opacity="0.2"
       fill="none"
       stroke="none"
       d="M256,256H0V0h256V256z"
       id="path155" />
  </g>
  <g
     id="Layer_1"
     stroke="#000000">
    <path
       opacity="0.2"
       stroke="none"
       d="M146.732,25.229c0,0,0,142.277,0,157.646c-12.777-6.068-29.005-9.505-46.005-9.505    c-40.275,0-71.824,18.148-71.824,41.315S60.453,256,100.728,256c40.276,0,71.826-18.147,71.826-41.314    c0-2.563-0.478-5.125-1.271-7.65c0-1.143,0-135.185,0-149.207c2.508,1.476,4.972,3.244,7.508,5.102    c5.934,4.348,12.658,9.275,21.405,10.65c14.881,2.34,27.748-2.416,40.189-7.014l5.283-1.93c2.588-0.944,3.971-3.781,3.1-6.393    c-0.872-2.61-3.644-4.062-6.277-3.264c-14.371,4.354-24.651-4.763-36.556-15.32c-11.134-9.875-22.647-20.086-38.666-19.47    c-0.183,0.007-0.353,0.078-0.534,0.105c-0.186-0.021-0.347-0.109-0.537-0.109h-3.15l-11.229-0.042    C149.012,20.144,146.732,22.421,146.732,25.229z"
       id="path157" />
    <path
       fill="#003366"
       stroke="none"
       d="M140.919,8.291c-3.359,0-6.089,2.729-6.089,6.085c0,0,0,153.133,0,156.123    c-12.809-5.782-28.699-8.981-45.006-8.981C48.988,161.517,17,180.104,17,203.832c0,23.728,31.988,42.314,72.824,42.314    c40.837,0,72.827-18.587,72.827-42.314c0-2.471-0.426-5.016-1.271-7.761c0-0.218,0-143.689,0-147.263    c2.012,1.281,4.016,2.683,5.916,4.076c6.03,4.417,12.858,9.419,21.841,10.832c15.141,2.38,28.13-2.421,40.692-7.064l5.279-1.928    c3.075-1.122,4.738-4.553,3.705-7.649c-1.051-3.148-4.353-4.862-7.516-3.904c-13.836,4.191-23.923-4.754-35.603-15.111    c-11.281-10.006-22.947-20.353-39.367-19.722c0,0-0.451,0.075-0.499,0.083c-0.076-0.012-0.534-0.087-0.534-0.087h-3.15    L140.919,8.291z M155.826,8.42c-0.001,0-0.012,0.002-0.013,0.002C155.816,8.422,155.824,8.42,155.826,8.42z"
       id="path158" />
    <linearGradient
       id="XMLID_1_"
       gradientUnits="userSpaceOnUse"
       x1="128.0728"
       y1="248.333"
       x2="128.0727"
       y2="-35.6665">
      <stop
         offset="0"
         style="stop-color:#3396FF"
         id="stop160" />
      <stop
         offset="1"
         style="stop-color:#99C8FF"
         id="stop161" />
      <a:midPointStop
         offset="0"
         style="stop-color:#3396FF"
         id="midPointStop162" />
      <a:midPointStop
         offset="0.5"
         style="stop-color:#3396FF"
         id="midPointStop163" />
      <a:midPointStop
         offset="1"
         style="stop-color:#99C8FF"
         id="midPointStop164" />
    </linearGradient>
    <path
       fill="url(#XMLID_1_)"
       stroke="none"
       d="M156.56,14.417l-1.266,0.461v-0.461h-3.15v-0.042h-11.229v166.189    c-12.241-7.917-30.564-12.963-51.091-12.963c-36.859,0-66.739,16.221-66.739,36.23s29.88,36.23,66.739,36.23    c36.858,0,66.741-16.221,66.741-36.23c0-2.411-0.444-4.765-1.271-7.045V39.184c12.658,3.524,20.881,16.334,34.786,18.521    c15.605,2.452,29.331-3.851,42.98-8.712C201.271,58.622,186.789,13.255,156.56,14.417z"
       id="path165" />
    <path
       opacity="0.6"
       fill="#FFFFFF"
       stroke="none"
       d="M192.624,56.433c-13.908-2.186-22.129-14.996-34.789-18.52l-2.541,1.271    c11.268,4.383,21.835,16.484,34.786,18.521c15.605,2.452,29.331-3.851,42.98-8.712c-1.026,0.311-2.034,0.562-3.023,0.762    C218.195,54.132,206.111,58.553,192.624,56.433z"
       id="path166" />
    <path
       opacity="0.4"
       fill="#FFFFFF"
       stroke="none"
       d="M89.338,235.432c-34.924,0-63.449-14.869-65.273-33.58    c-0.062,0.631-0.097,1.267-0.097,1.905c0,19.599,29.267,35.487,65.37,35.487c36.102,0,65.37-15.889,65.37-35.487    c0-0.634-0.036-1.264-0.098-1.89C152.77,220.572,124.252,235.432,89.338,235.432z"
       id="path167" />
    <linearGradient
       id="XMLID_2_"
       gradientUnits="userSpaceOnUse"
       x1="192.0859"
       y1="22.8779"
       x2="177.7213"
       y2="37.2439">
      <stop
         offset="0"
         style="stop-color:#FFFFFF"
         id="stop169" />
      <stop
         offset="1"
         style="stop-color:#99C8FF"
         id="stop170" />
      <a:midPointStop
         offset="0"
         style="stop-color:#FFFFFF"
         id="midPointStop171" />
      <a:midPointStop
         offset="0.5"
         style="stop-color:#FFFFFF"
         id="midPointStop172" />
      <a:midPointStop
         offset="1"
         style="stop-color:#99C8FF"
         id="midPointStop173" />
    </linearGradient>
    <path
       fill="url(#XMLID_2_)"
       stroke="none"
       d="M153.798,14.327l-1.359,0.495v-0.495h-3.382v-0.045h-8.347v0.045h3.38v0.495    l1.358-0.495c30.754-1.182,46.321,42.502,76.922,38.242C197.018,48.931,181.627,13.259,153.798,14.327z"
       id="path174" />
    <linearGradient
       id="XMLID_3_"
       gradientUnits="userSpaceOnUse"
       x1="88.0532"
       y1="162.6631"
       x2="88.0532"
       y2="211.7066">
      <stop
         offset="0"
         style="stop-color:#FFFFFF"
         id="stop176" />
      <stop
         offset="1"
         style="stop-color:#3396FF"
         id="stop177" />
      <a:midPointStop
         offset="0"
         style="stop-color:#FFFFFF"
         id="midPointStop178" />
      <a:midPointStop
         offset="0.5"
         style="stop-color:#FFFFFF"
         id="midPointStop179" />
      <a:midPointStop
         offset="1"
         style="stop-color:#3396FF"
         id="midPointStop180" />
    </linearGradient>
    <path
       fill="url(#XMLID_3_)"
       stroke="none"
       d="M38.712,188.932c0,10.899,22.09,19.735,49.341,19.735s49.341-8.836,49.341-19.735    c0-10.9-22.091-19.736-49.341-19.736S38.712,178.031,38.712,188.932z"
       id="path181" />
  </g>
</svg>
