<?xml version="1.0" encoding="UTF-8" standalone="no"?>
<!DOCTYPE svg PUBLIC "-//W3C//DTD SVG 20010904//EN"
"http://www.w3.org/TR/2001/REC-SVG-20010904/DTD/svg10.dtd">
<!-- Created with Sodipodi ("http://www.sodipodi.com/") -->
<svg
   width="32pt"
   height="32pt"
   viewBox="0 0 256 256"
   overflow="visible"
   enable-background="new 0 0 256 256"
   xml:space="preserve"
   xmlns="http://www.w3.org/2000/svg"
   xmlns:xml="http://www.w3.org/XML/1998/namespace"
   xmlns:a="http://ns.adobe.com/AdobeSVGViewerExtensions/3.0/"
   xmlns:sodipodi="http://sodipodi.sourceforge.net/DTD/sodipodi-0.dtd"
   xmlns:xlink="http://www.w3.org/1999/xlink"
   id="svg153"
   sodipodi:version="0.32pre"
   sodipodi:docname="/home/cschalle/gnome-themes-extras/Nuvola/icons/scalable/emblems/emblem-important.svg"
   sodipodi:docbase="/home/cschalle/gnome-themes-extras/Nuvola/icons/scalable/emblems">
  <defs
     id="defs196">
    <linearGradient
       id="XMLID_1_"
       gradientUnits="userSpaceOnUse"
       x1="23"
       y1="130"
       x2="233"
       y2="130">
      <stop
         offset="0"
         style="stop-color:#A7ABAC"
         id="stop158" />
      <stop
         offset="1"
         style="stop-color:#85898A"
         id="stop159" />
      <a:midPointStop
         offset="0"
         style="stop-color:#A7ABAC"
         id="midPointStop160" />
      <a:midPointStop
         offset="0.5"
         style="stop-color:#A7ABAC"
         id="midPointStop161" />
      <a:midPointStop
         offset="1"
         style="stop-color:#85898A"
         id="midPointStop162" />
    </linearGradient>
    <linearGradient
       id="XMLID_2_"
       gradientUnits="userSpaceOnUse"
       x1="84.5029"
       y1="86.5029"
       x2="321.5015"
       y2="323.5015">
      <stop
         offset="0"
         style="stop-color:#FFFFFF"
         id="stop166" />
      <stop
         offset="1"
         style="stop-color:#99CCFF"
         id="stop167" />
      <a:midPointStop
         offset="0"
         style="stop-color:#FFFFFF"
         id="midPointStop168" />
      <a:midPointStop
         offset="0.5"
         style="stop-color:#FFFFFF"
         id="midPointStop169" />
      <a:midPointStop
         offset="1"
         style="stop-color:#99CCFF"
         id="midPointStop170" />
    </linearGradient>
  </defs>
  <sodipodi:namedview
     id="base" />
  <metadata
     id="metadata154">
    <sfw>
      <slices />
      <sliceSourceBounds
         y="268"
         x="178"
         width="256"
         height="256"
         bottomLeftOrigin="true" />
      <optimizationSettings>
        <targetSettings
           fileFormat="PNG24Format"
           targetSettingsID="0">
          <PNG24Format
             transparency="true"
             includeCaption="false"
             interlaced="false"
             noMatteColor="false"
             matteColor="#FFFFFF"
             filtered="false" />
        </targetSettings>
      </optimizationSettings>
    </sfw>
  </metadata>
  <g
     id="g173"
     style="font-size:12;stroke:#000000;"
     transform="matrix(1.66532,0,0,1.65823,-3.62331,-86.0675)">
    <path
       opacity="0.36"
       fill="#999999"
       stroke="none"
       d="M16,133.141c0,38.047,30.953,69,69,69s69-30.953,69-69s-30.953-69-69-69     S16,95.094,16,133.141z"
       id="path174" />
    <path
       fill="#0066CC"
       stroke="none"
       d="M5.446,127.141c0,38.047,30.953,69,69,69s69-30.953,69-69s-30.953-69-69-69     S5.446,89.094,5.446,127.141z"
       id="path175" />
    <radialGradient
       id="XMLID_3_"
       cx="40.4497"
       cy="99.1455"
       r="106.0592"
       fx="40.4497"
       fy="99.1455"
       gradientUnits="userSpaceOnUse">
      <stop
         offset="0"
         style="stop-color:#0066CC"
         id="stop177" />
      <stop
         offset="1"
         style="stop-color:#003399"
         id="stop178" />
      <a:midPointStop
         offset="0"
         style="stop-color:#0066CC"
         id="midPointStop179" />
      <a:midPointStop
         offset="0.5"
         style="stop-color:#0066CC"
         id="midPointStop180" />
      <a:midPointStop
         offset="1"
         style="stop-color:#003399"
         id="midPointStop181" />
    </radialGradient>
    <path
       fill="url(#XMLID_3_)"
       stroke="none"
       d="M10.446,126.141c0,35.346,28.653,64,64,64s64-28.654,64-64s-28.653-64-64-64     S10.446,90.795,10.446,126.141z"
       id="path182" />
    <path
       opacity="0.36"
       fill="#FFFFFF"
       stroke="none"
       d="M17.446,132.391c0-37.531,26.813-68.185,60.562-70.146     c-1.18-0.064-2.366-0.104-3.562-0.104c-35.347,0-64,28.654-64,64c0,16.326,6.122,31.216,16.185,42.522     C20.803,158.074,17.446,145.664,17.446,132.391z"
       id="path183" />
    <linearGradient
       id="XMLID_4_"
       gradientUnits="userSpaceOnUse"
       x1="74.5024"
       y1="81.001"
       x2="74.5024"
       y2="138.0019">
      <stop
         offset="0"
         style="stop-color:#FFFFFF"
         id="stop185" />
      <stop
         offset="1"
         style="stop-color:#0D3692"
         id="stop186" />
      <a:midPointStop
         offset="0"
         style="stop-color:#FFFFFF"
         id="midPointStop187" />
      <a:midPointStop
         offset="0.5"
         style="stop-color:#FFFFFF"
         id="midPointStop188" />
      <a:midPointStop
         offset="1"
         style="stop-color:#0D3692"
         id="midPointStop189" />
    </linearGradient>
    <path
       opacity="0.5"
       fill="url(#XMLID_4_)"
       stroke="none"
       d="M75.429,123c21.671,0,41.616-3.148,57.454-8.429     c-5.058-29.82-29.285-52.431-58.433-52.431c-28.941,0-53.038,22.291-58.328,51.798C32.244,119.6,52.904,123,75.429,123z"
       id="path190" />
    <g
       id="g191">
      <path
         fill="#FFFFFF"
         stroke="none"
         d="M86.804,94.063c0,1.609-0.305,3.742-0.906,6.391s-1.359,5.762-2.273,9.332      c-0.875,3.375-1.871,7.586-2.992,12.629c-1.125,5.047-2.309,11.277-3.555,18.695H72.28c-1.25-7.496-2.434-13.738-3.555-18.723      c-1.125-4.984-2.121-9.168-2.992-12.543c-0.789-3.102-1.52-6.133-2.184-9.098c-0.664-2.961-0.996-5.191-0.996-6.684      c0-3.023,1.184-5.602,3.551-7.742s5.215-3.211,8.543-3.211c3.281,0,6.129,1.07,8.539,3.211S86.804,91.039,86.804,94.063z       M86.554,159.043c0,2.965-1.195,5.508-3.586,7.633c-2.391,2.121-5.184,3.184-8.383,3.184c-3.242,0-6.059-1.063-8.449-3.184      c-2.391-2.125-3.582-4.668-3.582-7.633c0-2.961,1.191-5.523,3.582-7.688s5.207-3.246,8.449-3.246      c3.199,0,5.992,1.082,8.383,3.246S86.554,156.082,86.554,159.043z"
         id="path192" />
    </g>
  </g>
  <g
     id="Layer_2"
     stroke="#000000">
    <path
       fill="none"
       stroke="none"
       d="M256,256H0V0h256V256z"
       id="path194" />
  </g>
</svg>
