<?xml version="1.0" encoding="UTF-8" standalone="no"?>
<!DOCTYPE svg PUBLIC "-//W3C//DTD SVG 20010904//EN"
"http://www.w3.org/TR/2001/REC-SVG-20010904/DTD/svg10.dtd">
<!-- Created with Sodipodi ("http://www.sodipodi.com/") -->
<svg
   i:viewOrigin="237 464"
   i:rulerOrigin="-242 -332"
   i:pageBounds="242 460 370 332"
   width="48pt"
   height="48pt"
   viewBox="0 0 140 143"
   overflow="visible"
   enable-background="new 0 0 140 143"
   xml:space="preserve"
   id="svg153"
   sodipodi:version="0.32pre"
   sodipodi:docname="/home/cschalle/gnome-themes-extras/Amaranth/icons/scalable/stock/gnome-logo.svg"
   sodipodi:docbase="/home/cschalle/gnome-themes-extras/Amaranth/icons/scalable/stock"
   xmlns="http://www.w3.org/2000/svg"
   xmlns:sodipodi="http://sodipodi.sourceforge.net/DTD/sodipodi-0.dtd"
   xmlns:ns="http://ns.adobe.com/Variables/1.0/"
   xmlns:i="http://ns.adobe.com/AdobeIllustrator/10.0/"
   xmlns:xml="http://www.w3.org/XML/1998/namespace"
   xmlns:a="http://ns.adobe.com/AdobeSVGViewerExtensions/3.0/"
   xmlns:xlink="http://www.w3.org/1999/xlink">
  <defs
     id="defs198" />
  <sodipodi:namedview
     id="base">
    <sodipodi:guide
       orientation="vertical"
       position="60.8433"
       id="guide176" />
  </sodipodi:namedview>
  <metadata
     id="metadata154">
    <sfw>
      <slices />
      <sliceSourceBounds
         x="237"
         y="321"
         width="140"
         height="143"
         bottomLeftOrigin="true" />
    </sfw>
    <ns:variableSets>
      <ns:variableSet
         varSetName="binding1"
         locked="none">
        <ns:variables />
        <ns:sampleDataSets />
      </ns:variableSet>
    </ns:variableSets>
  </metadata>
  <g
     id="g177"
     transform="matrix(1.02932,0,0,1,-0.191706,7.62939e-06)">
    <g
       id="g158"
       style="font-size:12;stroke:#000000;"
       transform="matrix(1.66871,0,0,1.71259,-54.0222,-53.4729)">
      <linearGradient
         id="XMLID_1_"
         gradientUnits="userSpaceOnUse"
         x1="52.3745"
         y1="51.5552"
         x2="97.1239"
         y2="96.3045">
        <stop
           offset="0"
           style="stop-color:#FFFFFF"
           id="stop160" />
        <stop
           offset="1"
           style="stop-color:#FFBF10"
           id="stop161" />
        <a:midPointStop
           offset="0"
           style="stop-color:#FFFFFF"
           id="midPointStop162" />
        <a:midPointStop
           offset="0.5"
           style="stop-color:#FFFFFF"
           id="midPointStop163" />
        <a:midPointStop
           offset="1"
           style="stop-color:#FFBF10"
           id="midPointStop164" />
      </linearGradient>
      <path
         i:knockout="Off"
         fill="url(#XMLID_1_)"
         stroke="none"
         d="M54.792,76.486c-1.474,1.596-4.929,1.126-7.717-1.046      c-2.788-2.171-3.854-5.224-2.38-6.817s4.928-1.124,7.716,1.047C55.199,71.843,56.265,74.895,54.792,76.486z M55.062,59.128      c-2.44-2.338-5.604-3.192-7.066-1.908c-1.462,1.285-0.668,4.222,1.772,6.561c2.44,2.338,5.604,3.192,7.066,1.907      C58.295,64.404,57.502,61.467,55.062,59.128z M65.267,49.932c-2.057-3.082-5.734-4.45-8.213-3.056      c-2.479,1.394-2.82,5.021-0.763,8.103c2.058,3.082,5.735,4.451,8.213,3.057C66.983,56.643,67.324,53.014,65.267,49.932z       M67.767,49.423c0.473,4.885,3.884,8.6,7.621,8.295c3.735-0.305,6.382-4.512,5.909-9.398c-0.473-4.886-3.885-8.6-7.621-8.295      C69.94,40.33,67.294,44.537,67.767,49.423z M75.381,59.623c-7.98,0-23.431,8.57-16.979,26.333      c6.452,17.762,13.922,23.839,25.299,19.943c11.375-3.895,17.997-13.556,16.979-22.126c-1.02-8.569-16.183-6.318-16.979,0      c-0.798,6.322-1.624,6.748-2.378,7.324c-5.087,3.893-8.828-4.363-8.828-6.232s0.17-4.676,2.886-6.233      c2.717-1.558,10.456-3.743,10.188-10.906C85.398,63.207,83.36,59.623,75.381,59.623z"
         id="path165" />
      <path
         i:knockout="Off"
         fill="none"
         d="M54.792,76.486c-1.474,1.596-4.929,1.126-7.717-1.046      c-2.788-2.171-3.854-5.224-2.38-6.817s4.928-1.124,7.716,1.047C55.199,71.843,56.265,74.895,54.792,76.486z M55.062,59.128      c-2.44-2.338-5.604-3.192-7.066-1.908c-1.462,1.285-0.668,4.222,1.772,6.561c2.44,2.338,5.604,3.192,7.066,1.907      C58.295,64.404,57.502,61.467,55.062,59.128z M65.267,49.932c-2.057-3.082-5.734-4.45-8.213-3.056      c-2.479,1.394-2.82,5.021-0.763,8.103c2.058,3.082,5.735,4.451,8.213,3.057C66.983,56.643,67.324,53.014,65.267,49.932z       M67.767,49.423c0.473,4.885,3.884,8.6,7.621,8.295c3.735-0.305,6.382-4.512,5.909-9.398c-0.473-4.886-3.885-8.6-7.621-8.295      C69.94,40.33,67.294,44.537,67.767,49.423z M75.381,59.623c-7.98,0-23.431,8.57-16.979,26.333      c6.452,17.762,13.922,23.839,25.299,19.943c11.375-3.895,17.997-13.556,16.979-22.126c-1.02-8.569-16.183-6.318-16.979,0      c-0.798,6.322-1.624,6.748-2.378,7.324c-5.087,3.893-8.828-4.363-8.828-6.232s0.17-4.676,2.886-6.233      c2.717-1.558,10.456-3.743,10.188-10.906C85.398,63.207,83.36,59.623,75.381,59.623z"
         id="path166" />
    </g>
    <g
       i:knockout="Off"
       opacity="0.5"
       id="g169"
       style="font-size:12;opacity:0.5;stroke:#000000;"
       transform="matrix(1.66871,0,0,1.71259,-54.0222,-53.4729)">
      <radialGradient
         id="XMLID_2_"
         cx="74.457"
         cy="73.8135"
         r="38.1655"
         fx="74.457"
         fy="73.8135"
         gradientUnits="userSpaceOnUse">
        <stop
           offset="0.0056"
           style="stop-color:#FFFFFF"
           id="stop171" />
        <stop
           offset="1"
           style="stop-color:#545454"
           id="stop172" />
        <a:midPointStop
           offset="0.0056"
           style="stop-color:#FFFFFF"
           id="midPointStop173" />
        <a:midPointStop
           offset="0.5"
           style="stop-color:#FFFFFF"
           id="midPointStop174" />
        <a:midPointStop
           offset="1"
           style="stop-color:#545454"
           id="midPointStop175" />
      </radialGradient>
      <path
         i:knockout="Off"
         fill="url(#XMLID_2_)"
         stroke="none"
         d="M47.47,46.826c14.904-14.903,39.07-14.903,53.974,0      c14.904,14.905,14.904,39.07,0,53.974c-14.904,14.905-39.07,14.905-53.974,0C32.566,85.896,32.565,61.731,47.47,46.826z"
         id="path176" />
    </g>
    <g
       i:knockout="Off"
       id="g191"
       style="font-size:12;stroke:#000000;"
       transform="matrix(1.66871,0,0,1.71259,-54.0222,-53.4729)">
      <path
         i:knockout="Off"
         opacity="0.1"
         fill="#FFFFFF"
         stroke="none"
         d="M100.268,54.252c0,5.298-11.392,9.593-25.443,9.593      c-14.053,0-25.444-4.295-25.444-9.593c0-5.298,11.391-9.593,25.444-9.593C88.876,44.659,100.268,48.954,100.268,54.252z"
         id="path192" />
    </g>
  </g>
</svg>
