<?xml version="1.0" encoding="iso-8859-1"?>
<!-- Generator: Adobe Illustrator 9.0, SVG Export Plug-In  -->
<!DOCTYPE svg PUBLIC "-//W3C//DTD SVG 20000303 Stylable//EN"   "http://www.w3.org/TR/2000/03/WD-SVG-20000303/DTD/svg-20000303-stylable.dtd" [
	<!ENTITY st0 "opacity:0.72;fill-rule:evenodd;clip-rule:evenodd;fill:url(#aigrd4);stroke:none;">
	<!ENTITY st1 "fill-rule:evenodd;clip-rule:evenodd;fill:url(#aigrd1);stroke:none;">
	<!ENTITY st2 "fill-rule:evenodd;clip-rule:evenodd;fill:url(#aigrd3);stroke:none;">
	<!ENTITY st3 "fill-rule:evenodd;clip-rule:evenodd;fill:url(#aigrd2);stroke:none;">
	<!ENTITY st4 "fill-rule:evenodd;clip-rule:evenodd;stroke:none;">
	<!ENTITY st5 "fill-rule:nonzero;clip-rule:nonzero;stroke:#000000;stroke-miterlimit:4;">
	<!ENTITY st6 "stroke:none;">
	<!ENTITY st7 "fill-rule:evenodd;clip-rule:evenodd;fill:none;stroke:none;">
]>
<svg  width="48pt" height="48pt" viewBox="0 0 48 48" xml:space="preserve">
	<g id="Layer_x0020_1" style="&st5;">
		<radialGradient id="aigrd1" cx="29.1787" cy="32.8711" r="27.8398" fx="29.1787" fy="32.8711" gradientUnits="userSpaceOnUse">
			<stop  offset="0" style="stop-color:#FED182"/>
			<stop  offset="0.2809" style="stop-color:#FFB310"/>
			<stop  offset="1" style="stop-color:#996E04"/>
		</radialGradient>
		<path style="&st1;" d="M3.8,24.7c0,11.5,9.3,20.8,20.8,20.8c11.5,0,20.8-9.3,20.8-20.8c0-11.5-9.3-20.8-20.8-20.8c-11.5,0-20.8,9.3-20.8,20.8z"/>
		<path style="&st6;" d="M21.4,22.6l0.1,0l0-0.2l-0.1,0l0,0.2z"/>
		<radialGradient id="aigrd2" cx="-0.5601" cy="-4.9063" r="106.7888" fx="-0.5601" fy="-4.9063" gradientUnits="userSpaceOnUse">
			<stop  offset="0" style="stop-color:#987A0E"/>
			<stop  offset="4.628235e-002" style="stop-color:#7D640B"/>
			<stop  offset="0.1143" style="stop-color:#5B4908"/>
			<stop  offset="0.1901" style="stop-color:#3F3206"/>
			<stop  offset="0.2744" style="stop-color:#282004"/>
			<stop  offset="0.3709" style="stop-color:#161202"/>
			<stop  offset="0.4869" style="stop-color:#090701"/>
			<stop  offset="0.642" style="stop-color:#020200"/>
			<stop  offset="1" style="stop-color:#000000"/>
		</radialGradient>
		<path style="&st3;" d="M5.7,24.6c0,10.5,8.5,18.9,18.9,18.9c10.5,0,18.9-8.5,18.9-18.9c0-10.5-8.5-18.9-18.9-18.9c-10.5,0-18.9,8.5-18.9,18.9 M2.2,24.6c0-12.4,10-22.4,22.4-22.4C37,2.2,47,12.2,47,24.6C47,37,37,47,24.6,47C12.2,47,2.2,37,2.2,24.6z"/>
		<linearGradient id="aigrd3" gradientUnits="userSpaceOnUse" x1="38.6152" y1="37.7598" x2="23.5292" y2="23.5545">
			<stop  offset="0" style="stop-color:#D9CEA3"/>
			<stop  offset="1" style="stop-color:#000000"/>
		</linearGradient>
		<path style="&st2;" d="M37.9,11.1c3.5,3.4,5.7,8.2,5.7,13.5c0,10.5-8.5,18.9-18.9,18.9c-5.3,0-10.1-2.2-13.5-5.7c3.4,3.4,8.1,5.4,13.3,5.4c10.5,0,18.9-8.5,18.9-18.9c0-5.2-2.1-9.9-5.4-13.3z"/>
		<g style="&st4;">
			<path d="M24.2,24.5L18,39.3l1,0.4c0,0,5.4-12.9,5.9-14.1c1,0.8,12.2,9,12.2,9l0.7-0.9l-13.3-9.8l-0.3,0.6z"/>
			<path d="M22.1,8.6l2.1,17l14-8.4l-0.6-0.9c0,0-11.2,6.8-12.5,7.6c-0.2-1.5-1.9-15.4-1.9-15.4l-1.1,0.1z"/>
			<path d="M10.5,22l14,3.3l0.3-1.1l-14-3.3L10.5,22z"/>
			<path d="M11.4,21.3l-0.3,0.3l8.2,16l16.1-5V18.2l-12.2-4.3l-8.6,8.6l6.5,10.8l10.6-3.3v-9.5l-8.1-2.9l-5,6l4.1,5.9l5.4-2v-4.7l-3.7-1.8l-0.5,1c0,0,2.6,1.2,3.1,1.5c0,0.5,0,2.7,0,3.3c-0.6,0.2-3.3,1.2-3.9,1.5c-0.4-0.6-2.8-3.9-3.1-4.5c0.4-0.5,3.5-4.2,3.9-4.7
				c0.6,0.2,6,2.2,6.7,2.4c0,0.7,0,7.2,0,8c-0.7,0.2-8.3,2.6-9,2.8c-0.4-0.7-5.2-8.6-5.6-9.3c0.5-0.5,7-7,7.5-7.5c0.6,0.2,10.1,3.6,10.8,3.8c0,0.7,0,12.1,0,12.8C33.6,32,20.7,36,19.9,36.3c-0.4-0.8-7.1-13.8-7.4-14.5c0.5-0.5,10.9-10.9,10.9-10.9l-0.8-0.8
				L11.4,21.3z"/>
		</g>
		<linearGradient id="aigrd4" gradientUnits="userSpaceOnUse" x1="48.5332" y1="11.2324" x2="48.5332" y2="36.4054" gradientTransform="matrix(0.9723 -0.2335 0.2335 0.9723 -28.9912 9.0241)">
			<stop  offset="0" style="stop-color:#F9FAE9"/>
			<stop  offset="1" style="stop-color:#F5C417"/>
		</linearGradient>
		<path style="&st0;" d="M6.9,28.2c14.4,6,19.2-16.1,35.1-8.8c-2.9-8.9-12.2-14.3-21.5-12C11.1,9.6,5.2,18.8,6.9,28.2z"/>
	</g>
	<g id="Layer_x0020_2" style="&st5;">
		<path style="&st7;" d="M48,48H0V0h48v48z"/>
	</g>
</svg>
