<?xml version="1.0" encoding="iso-8859-1"?>
<!-- Generator: Adobe Illustrator 9.0, SVG Export Plug-In  -->
<!DOCTYPE svg PUBLIC "-//W3C//DTD SVG 20000303 Stylable//EN"   "http://www.w3.org/TR/2000/03/WD-SVG-20000303/DTD/svg-20000303-stylable.dtd" [
	<!ENTITY st0 "fill:url(#aigrd1);">
	<!ENTITY st1 "fill:url(#aigrd2);">
	<!ENTITY st2 "fill:url(#aigrd3);">
	<!ENTITY st3 "fill:#595959;">
	<!ENTITY st4 "fill:none;stroke:none;">
	<!ENTITY st5 "fill-rule:nonzero;clip-rule:nonzero;stroke:#000000;stroke-miterlimit:4;">
	<!ENTITY st6 "stroke:none;">
	<!ENTITY st7 "opacity:0.33;fill:url(#aigrd4);">
	<!ENTITY st8 "opacity:0.33;fill:url(#aigrd5);">
	<!ENTITY st9 "opacity:0.33;fill:url(#aigrd6);">
]>
<svg  width="48px" height="48px" viewBox="0 0 48 48" xml:space="preserve">
	<g id="Layer_x0020_1" style="&st5;">
		<g style="&st6;">
			<path d="M15.8,7.2c-0.9,0-1.6,0.7-1.6,1.6c0,0,0,0.3,0,0.6c-0.5,0.3-0.8,0.8-0.8,1.4v5.2c0,0.4,0.2,0.8,0.4,1.1c-0.3,0.3-0.4,0.7-0.4,1.1v5.2c0,0.6,0.3,1.1,0.8,1.4c0,1.6,0,15.2,0,15.2c0,0.9,0.7,1.6,1.6,1.6h18.1c0.9,0,1.6-0.7,1.6-1.6V10.1
				c0-0.9-0.7-1.6-1.6-1.6c0,0-0.2,0-0.4,0c-0.1-0.7-0.8-1.3-1.5-1.3H15.8z"/>
			<path style="&st3;" d="M29.9,39.8c0,0.3,0.2,0.5,0.5,0.5h3.6c0.2,0,0.4-0.2,0.4-0.5V10c0-0.2-0.2-0.5-0.4-0.5h-3.6c-0.3,0-0.5,0.2-0.5,0.5v29.8z"/>
			<linearGradient id="aigrd1" gradientUnits="userSpaceOnUse" x1="15.3447" y1="24.2476" x2="32.3838" y2="24.2476">
				<stop  offset="0" style="stop-color:#FFFFFF"/>
				<stop  offset="8.988800e-002" style="stop-color:#D6D6D6"/>
				<stop  offset="0.9157" style="stop-color:#D6D6D6"/>
				<stop  offset="1" style="stop-color:#9C9C9C"/>
			</linearGradient>
			<path style="&st0;" d="M32.4,39.8c0,0.3-0.2,0.5-0.5,0.5H15.8c-0.2,0-0.5-0.2-0.5-0.5V8.7c0-0.2,0.2-0.5,0.5-0.5h16.1c0.3,0,0.5,0.2,0.5,0.5v31.1z"/>
			<linearGradient id="aigrd2" gradientUnits="userSpaceOnUse" x1="14.5381" y1="20.583" x2="33.1895" y2="20.583">
				<stop  offset="0" style="stop-color:#FFFFFF"/>
				<stop  offset="8.988800e-002" style="stop-color:#D6D6D6"/>
				<stop  offset="0.9157" style="stop-color:#D6D6D6"/>
				<stop  offset="1" style="stop-color:#9C9C9C"/>
			</linearGradient>
			<path style="&st1;" d="M33.2,23.2c0,0.2-0.2,0.5-0.5,0.5H15c-0.2,0-0.5-0.2-0.5-0.5V18c0-0.2,0.2-0.5,0.5-0.5h17.7c0.3,0,0.5,0.2,0.5,0.5v5.2z"/>
			<linearGradient id="aigrd3" gradientUnits="userSpaceOnUse" x1="14.5381" y1="13.252" x2="33.1895" y2="13.252">
				<stop  offset="0" style="stop-color:#FFFFFF"/>
				<stop  offset="8.988800e-002" style="stop-color:#D6D6D6"/>
				<stop  offset="0.9157" style="stop-color:#D6D6D6"/>
				<stop  offset="1" style="stop-color:#9C9C9C"/>
			</linearGradient>
			<path style="&st2;" d="M33.2,15.9c0,0.2-0.2,0.5-0.5,0.5H15c-0.2,0-0.5-0.2-0.5-0.5v-5.2c0-0.2,0.2-0.5,0.5-0.5h17.7c0.3,0,0.5,0.2,0.5,0.5v5.2z"/>
			<path d="M31.5,13.3c0,0.3-0.2,0.5-0.5,0.5H16.8c-0.2,0-0.5-0.2-0.5-0.5V13c0-0.3,0.2-0.5,0.5-0.5H31c0.3,0,0.5,0.2,0.5,0.5v0.3z"/>
			<path d="M29.6,20.6c0,0.2-0.2,0.5-0.5,0.5H18.3c-0.2,0-0.5-0.2-0.5-0.5v-0.3c0-0.2,0.2-0.5,0.5-0.5h10.9c0.3,0,0.5,0.2,0.5,0.5v0.3z"/>
			<path d="M27.4,21.3c0,0.2-0.2,0.5-0.5,0.5h-1.9c-0.2,0-0.5-0.2-0.5-0.5v-1.6c0-0.2,0.2-0.5,0.5-0.5h1.9c0.2,0,0.5,0.2,0.5,0.5v1.6z"/>
			<linearGradient id="aigrd4" gradientUnits="userSpaceOnUse" x1="23.2197" y1="38.584" x2="23.2197" y2="37.373">
				<stop  offset="0" style="stop-color:#FFFFFF"/>
				<stop  offset="1" style="stop-color:#000000"/>
			</linearGradient>
			<path style="&st7;" d="M29.6,38.1c0,0.2-0.2,0.4-0.5,0.4H17.3c-0.2,0-0.5-0.2-0.5-0.4v-0.3c0-0.3,0.2-0.5,0.5-0.5h11.9c0.3,0,0.5,0.2,0.5,0.5v0.3z"/>
			<linearGradient id="aigrd5" gradientUnits="userSpaceOnUse" x1="22.0918" y1="36.3623" x2="22.0918" y2="35.1503">
				<stop  offset="0" style="stop-color:#FFFFFF"/>
				<stop  offset="1" style="stop-color:#000000"/>
			</linearGradient>
			<path style="&st8;" d="M27.4,35.9c0,0.2-0.2,0.5-0.5,0.5h-9.7c-0.2,0-0.5-0.2-0.5-0.5v-0.3c0-0.2,0.2-0.5,0.5-0.5h9.7c0.2,0,0.5,0.2,0.5,0.5v0.3z"/>
			<linearGradient id="aigrd6" gradientUnits="userSpaceOnUse" x1="20.9639" y1="33.9385" x2="20.9639" y2="32.9798">
				<stop  offset="0" style="stop-color:#FFFFFF"/>
				<stop  offset="1" style="stop-color:#000000"/>
			</linearGradient>
			<path style="&st9;" d="M25.1,33.6c0,0.2-0.2,0.5-0.5,0.5h-7.4c-0.2,0-0.5-0.2-0.5-0.5v-0.3c0-0.2,0.2-0.4,0.5-0.4h7.4c0.3,0,0.5,0.2,0.5,0.4v0.3z"/>
		</g>
	</g>
	<g id="Layer_x0020_2" style="&st5;">
		<path style="&st4;" d="M48,48H0V0h48v48z"/>
	</g>
</svg>
