<?xml version="1.0" encoding="iso-8859-1"?>
<!-- Generator: Adobe Illustrator 9.0, SVG Export Plug-In  -->
<!DOCTYPE svg PUBLIC "-//W3C//DTD SVG 20000303 Stylable//EN"   "http://www.w3.org/TR/2000/03/WD-SVG-20000303/DTD/svg-20000303-stylable.dtd" [
	<!ENTITY st0 "fill:url(#aigrd1);">
	<!ENTITY st1 "fill:url(#aigrd2);">
	<!ENTITY st2 "fill:url(#aigrd3);">
	<!ENTITY st3 "fill:url(#aigrd6);">
	<!ENTITY st4 "fill:url(#aigrd7);">
	<!ENTITY st5 "fill:url(#aigrd8);">
	<!ENTITY st6 "fill:url(#aigrd9);">
	<!ENTITY st7 "fill:url(#aigrd21);stroke:#242622;stroke-width:0.3907;">
	<!ENTITY st8 "opacity:0.22;">
	<!ENTITY st9 "opacity:0.31;">
	<!ENTITY st10 "fill:url(#aigrd10);">
	<!ENTITY st11 "fill:url(#aigrd11);">
	<!ENTITY st12 "fill:url(#aigrd12);">
	<!ENTITY st13 "fill:url(#aigrd13);">
	<!ENTITY st14 "fill:url(#aigrd15);">
	<!ENTITY st15 "fill:url(#aigrd16);">
	<!ENTITY st16 "fill:url(#aigrd17);">
	<!ENTITY st17 "fill:url(#aigrd18);">
	<!ENTITY st18 "fill:url(#aigrd19);">
	<!ENTITY st19 "fill:url(#aigrd20);">
	<!ENTITY st20 "fill:url(#aigrd23);">
	<!ENTITY st21 "fill:url(#aigrd24);">
	<!ENTITY st22 "fill:url(#aigrd25);">
	<!ENTITY st23 "fill:url(#aigrd26);">
	<!ENTITY st24 "fill:url(#aigrd27);">
	<!ENTITY st25 "fill:url(#aigrd28);">
	<!ENTITY st26 "fill:url(#aigrd29);">
	<!ENTITY st27 "fill:url(#aigrd30);">
	<!ENTITY st28 "fill:url(#aigrd32);">
	<!ENTITY st29 "fill:url(#aigrd33);">
	<!ENTITY st30 "fill:url(#aigrd34);">
	<!ENTITY st31 "fill:url(#aigrd35);">
	<!ENTITY st32 "fill:url(#aigrd36);">
	<!ENTITY st33 "fill:url(#aigrd37);">
	<!ENTITY st34 "opacity:0.33;fill:url(#aigrd38);">
	<!ENTITY st35 "opacity:0.33;fill:url(#aigrd39);">
	<!ENTITY st36 "opacity:0.33;fill:url(#aigrd40);">
	<!ENTITY st37 "opacity:0.48;fill:url(#aigrd14);">
	<!ENTITY st38 "opacity:0.48;fill:url(#aigrd31);">
	<!ENTITY st39 "fill:#595959;">
	<!ENTITY st40 "fill:url(#aigrd4);stroke:#242622;stroke-width:0.3907;">
	<!ENTITY st41 "opacity:5.000000e-002;fill:#000000;">
	<!ENTITY st42 "opacity:0.58;fill:url(#aigrd5);">
	<!ENTITY st43 "fill:#FFFFFF;stroke:none;">
	<!ENTITY st44 "opacity:0.8;">
	<!ENTITY st45 "opacity:0.22;fill:#000000;">
	<!ENTITY st46 "opacity:0.17;fill:#000000;">
	<!ENTITY st47 "fill:none;stroke:none;">
	<!ENTITY st48 "opacity:0.58;fill:url(#aigrd22);">
	<!ENTITY st49 "fill:none;stroke:#242622;stroke-width:1.9917;">
	<!ENTITY st50 "fill:#000000;stroke:#000000;stroke-width:0.9959;">
	<!ENTITY st51 "fill-rule:nonzero;clip-rule:nonzero;stroke:#000000;stroke-miterlimit:4;">
	<!ENTITY st52 "stroke:none;">
]>
<svg  width="66px" height="48px" viewBox="0 0 66 48" xml:space="preserve">
	<g id="Layer_x0020_1" style="&st51;">
		<g style="&st43;">
			<linearGradient id="aigrd1" gradientUnits="userSpaceOnUse" x1="35.082" y1="21.3579" x2="35.0998" y2="21.7131">
				<stop  offset="0" style="stop-color:#303030"/>
				<stop  offset="1" style="stop-color:#D6D6D6"/>
			</linearGradient>
			<path style="&st0;" d="M31.7,21.5c0,0,0.1,0.1,0.2,0.1h6.3c0.1,0,0.2,0,0.2-0.1v-0.1c0,0-0.1-0.1-0.2-0.1h-6.3c-0.1,0-0.2,0-0.2,0.1v0.1z"/>
			<path style="&st44;" d="M38.4,21.3c0,0,0,0,0,0v0.1c0,0.1-0.1,0.1-0.2,0.1h-6.4c0,0,0,0-0.1,0c0,0,0.1,0.1,0.2,0.1h6.4c0.1,0,0.2,0,0.2-0.1v-0.1c0,0,0-0.1-0.1-0.1z"/>
			<path style="&st49;" d="M50.2,5.2H30.5c-0.4,0-0.8,0.4-0.8,0.8v16.4c0,0.4,0.4,0.8,0.8,0.8h0.9c0,0,0,0.1,0,0.1v0.8c0,0.5,0.4,0.9,0.9,0.9h16.3c0.5,0,0.9-0.4,0.9-0.9v-0.8c0,0,0-0.1,0-0.1h0.7c0.4,0,0.8-0.4,0.8-0.8V6c0-0.4-0.4-0.8-0.8-0.8z"/>
			<g>
				<linearGradient id="aigrd2" gradientUnits="userSpaceOnUse" x1="40.4482" y1="36.9355" x2="40.4482" y2="39.8797" gradientTransform="matrix(1 0 0 1.3999 0 -28.9672)">
					<stop  offset="0" style="stop-color:#676767"/>
					<stop  offset="0.121" style="stop-color:#878787"/>
					<stop  offset="0.2589" style="stop-color:#A4A4A4"/>
					<stop  offset="0.4067" style="stop-color:#BABABA"/>
					<stop  offset="0.5671" style="stop-color:#CACACA"/>
					<stop  offset="0.7492" style="stop-color:#D3D3D3"/>
					<stop  offset="1" style="stop-color:#D6D6D6"/>
				</linearGradient>
				<path style="&st1;" d="M49.5,24.2c0,0.4-0.4,0.8-0.8,0.8H32.2c-0.4,0-0.8-0.4-0.8-0.8v-1c0-0.4,0.4-0.8,0.8-0.8h16.5c0.4,0,0.8,0.4,0.8,0.8v1z"/>
			</g>
			<linearGradient id="aigrd3" gradientUnits="userSpaceOnUse" x1="31.9951" y1="6.1069" x2="48.895" y2="22.3675">
				<stop  offset="0" style="stop-color:#EFEFEF"/>
				<stop  offset="1" style="stop-color:#CCCCCC"/>
			</linearGradient>
			<path style="&st2;" d="M51,22.4c0,0.4-0.4,0.8-0.8,0.8H30.5c-0.4,0-0.8-0.4-0.8-0.8V6c0-0.4,0.4-0.8,0.8-0.8h19.7C50.6,5.2,51,5.5,51,6v16.4z"/>
			<linearGradient id="aigrd4" gradientUnits="userSpaceOnUse" x1="40.3984" y1="8.9961" x2="40.3984" y2="18.015">
				<stop  offset="0" style="stop-color:#000000"/>
				<stop  offset="1" style="stop-color:#3B4A70"/>
			</linearGradient>
			<path style="&st40;" d="M49.2,19.8H31.6V7.4h17.7v12.4z"/>
			<path style="&st9;" d="M31.4,20h18V7.3l0.3-0.3l0,13.4H31.2l0.3-0.4z"/>
			<path style="&st9;" d="M49.7,21.1l-0.2,0.2h-1.1V22l-0.2,0.1l0-1l1.5,0z"/>
			<path style="&st45;" d="M30.5,23.1h19.7c0.3,0,0.7-0.2,0.8-0.6c-0.2,0.2-0.9,0.2-0.9,0.2H32.5l-2,0.4z"/>
			<path style="&st45;" d="M49.4,7.3l0.3-0.3H31l0.1,13.4l0.3-0.4l0-12.7l18.1,0z"/>
			<path style="&st8;" d="M50.2,5.2H30.5c-0.4,0-0.8,0.2-0.8,0.8v16.4l0.5-16.7l20-0.4z"/>
			<g>
				<linearGradient id="aigrd5" gradientUnits="userSpaceOnUse" x1="40.4023" y1="8.752" x2="40.4023" y2="12.1247">
					<stop  offset="0" style="stop-color:#E3EBFF"/>
					<stop  offset="1" style="stop-color:#53699F"/>
				</linearGradient>
				<path style="&st42;" d="M32.6,8.2c-0.1,0-0.2,0.1-0.2,0.2v4.3c0,0.1,0.1,0.2,0.2,0.2L48.2,9c0.1,0,0.2-0.1,0.2-0.3V8.3c0-0.1-0.1-0.2-0.2-0.2l-15.6,0z"/>
			</g>
			<linearGradient id="aigrd6" gradientUnits="userSpaceOnUse" x1="46.7412" y1="27.9941" x2="46.7412" y2="27.9941">
				<stop  offset="0" style="stop-color:#FFFFFF"/>
				<stop  offset="1" style="stop-color:#CCCCCC"/>
			</linearGradient>
			<path style="&st3;" d="M46.7,28"/>
			<linearGradient id="aigrd7" gradientUnits="userSpaceOnUse" x1="46.501" y1="27.9941" x2="46.501" y2="27.9941">
				<stop  offset="0" style="stop-color:#FFFFFF"/>
				<stop  offset="1" style="stop-color:#CCCCCC"/>
			</linearGradient>
			<path style="&st4;" d="M46.5,28"/>
			<path style="&st50;" d="M32.1,24.7c-0.5,0.2-2.5,1.7-3.6,2.6c-0.8,0.6-1.5,1.2-2.1,1.7c-1,0.9-1.1,1-1.1,1.2c-0.2,0.6,0.4,1.1,0.6,1.2c0.3,0.2,0.6,0.4,0.6,0.4l0.1,0.1h27.6l0.1-0.1c0.9-0.5,1.3-1,1.3-1.4c0-0.3-0.1-0.4-1.1-1.3c-0.5-0.5-1.3-1.1-2.1-1.8
				c-1.1-0.9-3.1-2.5-3.7-2.6c-0.6-0.2-7.1-0.2-8.4-0.2c-2.9,0-7.9,0-8.4,0.1z"/>
			<linearGradient id="aigrd8" gradientUnits="userSpaceOnUse" x1="33.7607" y1="24.0356" x2="47.2161" y2="36.982">
				<stop  offset="0" style="stop-color:#EFEFEF"/>
				<stop  offset="1" style="stop-color:#CCCCCC"/>
			</linearGradient>
			<path style="&st5;" d="M26.8,31.4h27.3c0,0,1-0.6,1-1s-5.7-5-6.4-5.2C48,25.1,33,25,32.3,25.2c-0.7,0.2-6.4,4.8-6.5,5.2c-0.1,0.4,1,1,1,1z"/>
			<g>
				<linearGradient id="aigrd9" gradientUnits="userSpaceOnUse" x1="34.1484" y1="24.2534" x2="41.2343" y2="31.0712">
					<stop  offset="0" style="stop-color:#DFDFDF"/>
					<stop  offset="1" style="stop-color:#A1A1A1"/>
				</linearGradient>
				<path style="&st6;" d="M32.7,25.4l-2.8,2.3l2.7,0.4l-0.8,1l0.3,0.3h10.8l0.3-0.3L42.7,28l2.7-0.4l-2.2-2.2l-10.6,0z"/>
				<linearGradient id="aigrd10" gradientUnits="userSpaceOnUse" x1="34.8545" y1="26.6006" x2="40.0857" y2="31.6339">
					<stop  offset="0" style="stop-color:#DFDFDF"/>
					<stop  offset="1" style="stop-color:#A1A1A1"/>
				</linearGradient>
				<path style="&st10;" d="M43.1,29.1l-11.4,0l0.3,0.3h10.8l0.3-0.3z"/>
				<linearGradient id="aigrd11" gradientUnits="userSpaceOnUse" x1="30.5566" y1="27.1475" x2="31.9541" y2="28.4921">
					<stop  offset="0" style="stop-color:#DFDFDF"/>
					<stop  offset="1" style="stop-color:#A1A1A1"/>
				</linearGradient>
				<path style="&st11;" d="M32.5,28.1l0.3-0.3l-2.9-0.1l0.1,0.4h2.5z"/>
				<linearGradient id="aigrd12" gradientUnits="userSpaceOnUse" x1="43.2813" y1="27.0391" x2="44.7016" y2="28.4057">
					<stop  offset="0" style="stop-color:#DFDFDF"/>
					<stop  offset="1" style="stop-color:#A1A1A1"/>
				</linearGradient>
				<path style="&st12;" d="M42.7,28l-0.2-0.4h2.9L45.3,28h-2.6z"/>
			</g>
			<linearGradient id="aigrd13" gradientUnits="userSpaceOnUse" x1="45.1396" y1="26.5225" x2="50.3389" y2="29.2059">
				<stop  offset="0" style="stop-color:#AFAFAF"/>
				<stop  offset="1" style="stop-color:#CCCCCC"/>
			</linearGradient>
			<path style="&st13;" d="M47.1,27.1h1.4l0.8,0.8h1.3l1,1l-4.7,0l-0.5-1h1.1l-0.5-0.9z"/>
			<linearGradient id="aigrd14" gradientUnits="userSpaceOnUse" x1="40.4355" y1="30.6484" x2="40.4355" y2="31.5146">
				<stop  offset="0" style="stop-color:#EFEFEF"/>
				<stop  offset="1" style="stop-color:#000000"/>
			</linearGradient>
			<path style="&st37;" d="M55.1,30.5c0.2,0.2-29.7,0.5-29.4-0.1c-0.3,0.3,1,1,1,1h27.3c0,0,1-0.6,1-1z"/>
			<linearGradient id="aigrd15" gradientUnits="userSpaceOnUse" x1="48.1152" y1="28.0068" x2="50.286" y2="30.0955">
				<stop  offset="0" style="stop-color:#929292"/>
				<stop  offset="1" style="stop-color:#CCCCCC"/>
			</linearGradient>
			<path style="&st14;" d="M51.3,29.4l0.4-0.4l-4.7,0l0,0.5l4.3,0z"/>
			<linearGradient id="aigrd16" gradientUnits="userSpaceOnUse" x1="47" y1="27.2861" x2="47.6081" y2="27.8712">
				<stop  offset="0" style="stop-color:#929292"/>
				<stop  offset="1" style="stop-color:#CCCCCC"/>
			</linearGradient>
			<path style="&st15;" d="M47.1,27.1v0.4l0.3,0.4h0.2l-0.5-0.9z"/>
			<linearGradient id="aigrd17" gradientUnits="userSpaceOnUse" x1="47.2285" y1="28.6621" x2="46.1143" y2="28.6621">
				<stop  offset="0" style="stop-color:#929292"/>
				<stop  offset="1" style="stop-color:#CCCCCC"/>
			</linearGradient>
			<path style="&st16;" d="M46.5,27.9l0.1,0.6l0.4,0.8l0-0.5l-0.5-1z"/>
			<path d="M43.2,25.4l-10.6,0l-2.8,2.3l3.1-2l10.3-0.3z"/>
			<path d="M48.5,27.1l-1.4,0l0.5,0.9h-1.1l0.5,1l-0.2-0.8l1.2,0l-0.5-0.9l1.1-0.1z"/>
			<path style="&st46;" d="M51.6,28.9l-4.7,0l4.3-0.1l-0.8-0.9l-1.3,0l-0.6-0.8l0.8,0.8l1.3,0l1,1z"/>
			<path style="&st41;" d="M43.2,25.4l2.2,2.2h-2.9l0.6,1.5l-11.4,0l10.9-0.2l-0.4-1.6h2.6l-1.6-1.8z"/>
		</g>
		<g style="&st43;">
			<linearGradient id="aigrd18" gradientUnits="userSpaceOnUse" x1="43.7256" y1="32.9502" x2="43.7433" y2="33.3054">
				<stop  offset="0" style="stop-color:#303030"/>
				<stop  offset="1" style="stop-color:#D6D6D6"/>
			</linearGradient>
			<path style="&st17;" d="M40.4,33.1c0,0,0.1,0.1,0.2,0.1h6.3c0.1,0,0.2,0,0.2-0.1V33c0,0-0.1-0.1-0.2-0.1h-6.3c-0.1,0-0.2,0-0.2,0.1v0.1z"/>
			<path style="&st44;" d="M47,32.9c0,0,0,0,0,0v0.1c0,0.1-0.1,0.1-0.2,0.1h-6.4c0,0,0,0-0.1,0c0,0,0.1,0.1,0.2,0.1H47c0.1,0,0.2,0,0.2-0.1V33c0,0,0-0.1-0.1-0.1z"/>
			<path style="&st49;" d="M58.8,16.8H39.2c-0.4,0-0.8,0.4-0.8,0.8v16.4c0,0.4,0.4,0.8,0.8,0.8h0.9c0,0,0,0.1,0,0.1v0.8c0,0.5,0.4,0.9,0.9,0.9h16.3c0.5,0,0.9-0.4,0.9-0.9v-0.8c0,0,0-0.1,0-0.1h0.7c0.4,0,0.8-0.4,0.8-0.8V17.5c0-0.4-0.4-0.8-0.8-0.8z"/>
			<g>
				<linearGradient id="aigrd19" gradientUnits="userSpaceOnUse" x1="49.0918" y1="45.2168" x2="49.0918" y2="48.1639" gradientTransform="matrix(1 0 0 1.3999 0 -28.9672)">
					<stop  offset="0" style="stop-color:#676767"/>
					<stop  offset="0.121" style="stop-color:#878787"/>
					<stop  offset="0.2589" style="stop-color:#A4A4A4"/>
					<stop  offset="0.4067" style="stop-color:#BABABA"/>
					<stop  offset="0.5671" style="stop-color:#CACACA"/>
					<stop  offset="0.7492" style="stop-color:#D3D3D3"/>
					<stop  offset="1" style="stop-color:#D6D6D6"/>
				</linearGradient>
				<path style="&st18;" d="M58.1,35.8c0,0.4-0.4,0.8-0.8,0.8H40.9c-0.4,0-0.8-0.4-0.8-0.8v-1c0-0.4,0.4-0.8,0.8-0.8h16.5c0.4,0,0.8,0.4,0.8,0.8v1z"/>
			</g>
			<linearGradient id="aigrd20" gradientUnits="userSpaceOnUse" x1="40.6396" y1="17.6997" x2="57.5402" y2="33.9609">
				<stop  offset="0" style="stop-color:#EFEFEF"/>
				<stop  offset="1" style="stop-color:#CCCCCC"/>
			</linearGradient>
			<path style="&st19;" d="M59.6,33.9c0,0.4-0.4,0.8-0.8,0.8H39.2c-0.4,0-0.8-0.4-0.8-0.8V17.5c0-0.4,0.4-0.8,0.8-0.8h19.7c0.4,0,0.8,0.4,0.8,0.8v16.4z"/>
			<linearGradient id="aigrd21" gradientUnits="userSpaceOnUse" x1="49.042" y1="20.5889" x2="49.042" y2="29.6092">
				<stop  offset="0" style="stop-color:#000000"/>
				<stop  offset="1" style="stop-color:#3B4A70"/>
			</linearGradient>
			<path style="&st7;" d="M57.9,31.4H40.2V19h17.7v12.4z"/>
			<path style="&st9;" d="M40.1,31.6h18V18.8l0.3-0.3l0,13.4H39.8l0.3-0.4z"/>
			<path style="&st9;" d="M58.3,32.7l-0.2,0.2H57v0.7l-0.2,0.1l0-1l1.5,0z"/>
			<path style="&st45;" d="M39.2,34.7h19.7c0.3,0,0.7-0.2,0.8-0.6c-0.2,0.2-0.9,0.2-0.9,0.2H41.2l-2,0.4z"/>
			<path style="&st45;" d="M58.1,18.8l0.3-0.3H39.7L39.8,32l0.3-0.4l0-12.7l18.1,0z"/>
			<path style="&st8;" d="M58.8,16.8H39.2c-0.4,0-0.8,0.2-0.8,0.8v16.4l0.5-16.7l20-0.4z"/>
			<g>
				<linearGradient id="aigrd22" gradientUnits="userSpaceOnUse" x1="49.0469" y1="20.3452" x2="49.0469" y2="23.7173">
					<stop  offset="0" style="stop-color:#E3EBFF"/>
					<stop  offset="1" style="stop-color:#53699F"/>
				</linearGradient>
				<path style="&st48;" d="M41.3,19.7c-0.1,0-0.2,0.1-0.2,0.2v4.3c0,0.1,0.1,0.2,0.2,0.2l15.6-3.8c0.1,0,0.2-0.1,0.2-0.3v-0.4c0-0.1-0.1-0.2-0.2-0.2l-15.6,0z"/>
			</g>
			<linearGradient id="aigrd23" gradientUnits="userSpaceOnUse" x1="55.3857" y1="39.5869" x2="55.3857" y2="39.5869">
				<stop  offset="0" style="stop-color:#FFFFFF"/>
				<stop  offset="1" style="stop-color:#CCCCCC"/>
			</linearGradient>
			<path style="&st20;" d="M55.4,39.6"/>
			<linearGradient id="aigrd24" gradientUnits="userSpaceOnUse" x1="55.1455" y1="39.5869" x2="55.1455" y2="39.5869">
				<stop  offset="0" style="stop-color:#FFFFFF"/>
				<stop  offset="1" style="stop-color:#CCCCCC"/>
			</linearGradient>
			<path style="&st21;" d="M55.1,39.6"/>
			<path style="&st50;" d="M40.8,36.3c-0.5,0.2-2.5,1.7-3.6,2.6c-0.8,0.6-1.5,1.2-2.1,1.7c-1,0.9-1.1,1-1.1,1.2c-0.2,0.6,0.4,1.1,0.6,1.2c0.3,0.2,0.6,0.4,0.6,0.4l0.1,0.1h27.6l0.1-0.1c0.9-0.5,1.3-1,1.3-1.4c0-0.3-0.1-0.4-1.1-1.3c-0.5-0.5-1.3-1.1-2.1-1.8
				c-1.1-0.9-3.1-2.5-3.7-2.6c-0.6-0.2-7.1-0.2-8.4-0.2c-2.9,0-7.9,0-8.4,0.1z"/>
			<linearGradient id="aigrd25" gradientUnits="userSpaceOnUse" x1="42.4053" y1="35.6279" x2="55.8594" y2="48.5731">
				<stop  offset="0" style="stop-color:#EFEFEF"/>
				<stop  offset="1" style="stop-color:#CCCCCC"/>
			</linearGradient>
			<path style="&st22;" d="M35.4,43h27.3c0,0,1-0.6,1-1s-5.7-5-6.4-5.2c-0.7-0.2-15.7-0.3-16.4-0.1c-0.7,0.2-6.4,4.8-6.5,5.2c-0.1,0.4,1,1,1,1z"/>
			<g>
				<linearGradient id="aigrd26" gradientUnits="userSpaceOnUse" x1="42.793" y1="35.8457" x2="49.8788" y2="42.6635">
					<stop  offset="0" style="stop-color:#DFDFDF"/>
					<stop  offset="1" style="stop-color:#A1A1A1"/>
				</linearGradient>
				<path style="&st23;" d="M41.3,37l-2.8,2.3l2.7,0.4l-0.8,1l0.3,0.3h10.8l0.3-0.3l-0.4-1.1l2.7-0.4L51.9,37l-10.6,0z"/>
				<linearGradient id="aigrd27" gradientUnits="userSpaceOnUse" x1="43.499" y1="38.1943" x2="48.7296" y2="43.227">
					<stop  offset="0" style="stop-color:#DFDFDF"/>
					<stop  offset="1" style="stop-color:#A1A1A1"/>
				</linearGradient>
				<path style="&st24;" d="M51.8,40.7l-11.4,0l0.3,0.3h10.8l0.3-0.3z"/>
				<linearGradient id="aigrd28" gradientUnits="userSpaceOnUse" x1="39.2012" y1="38.7402" x2="40.5981" y2="40.0843">
					<stop  offset="0" style="stop-color:#DFDFDF"/>
					<stop  offset="1" style="stop-color:#A1A1A1"/>
				</linearGradient>
				<path style="&st25;" d="M41.2,39.7l0.3-0.3l-2.9-0.1l0.1,0.4h2.5z"/>
				<linearGradient id="aigrd29" gradientUnits="userSpaceOnUse" x1="51.9248" y1="38.6318" x2="53.3452" y2="39.9985">
					<stop  offset="0" style="stop-color:#DFDFDF"/>
					<stop  offset="1" style="stop-color:#A1A1A1"/>
				</linearGradient>
				<path style="&st26;" d="M51.3,39.6l-0.2-0.4h2.9l-0.2,0.4h-2.6z"/>
			</g>
			<linearGradient id="aigrd30" gradientUnits="userSpaceOnUse" x1="53.7842" y1="38.1162" x2="58.9824" y2="40.7992">
				<stop  offset="0" style="stop-color:#AFAFAF"/>
				<stop  offset="1" style="stop-color:#CCCCCC"/>
			</linearGradient>
			<path style="&st27;" d="M55.7,38.7h1.4l0.8,0.8h1.3l1,1l-4.7,0l-0.5-1h1.1l-0.5-0.9z"/>
			<linearGradient id="aigrd31" gradientUnits="userSpaceOnUse" x1="49.0781" y1="42.2412" x2="49.0781" y2="43.1057">
				<stop  offset="0" style="stop-color:#EFEFEF"/>
				<stop  offset="1" style="stop-color:#000000"/>
			</linearGradient>
			<path style="&st38;" d="M63.8,42.1c0.2,0.2-29.7,0.5-29.4-0.1c-0.3,0.3,1,1,1,1h27.3c0,0,1-0.6,1-1z"/>
			<linearGradient id="aigrd32" gradientUnits="userSpaceOnUse" x1="56.7598" y1="39.6016" x2="58.9293" y2="41.689">
				<stop  offset="0" style="stop-color:#929292"/>
				<stop  offset="1" style="stop-color:#CCCCCC"/>
			</linearGradient>
			<path style="&st28;" d="M59.9,40.9l0.4-0.4l-4.7,0l0,0.5l4.3,0z"/>
			<linearGradient id="aigrd33" gradientUnits="userSpaceOnUse" x1="55.6436" y1="38.8789" x2="56.2523" y2="39.4646">
				<stop  offset="0" style="stop-color:#929292"/>
				<stop  offset="1" style="stop-color:#CCCCCC"/>
			</linearGradient>
			<path style="&st29;" d="M55.7,38.7v0.4l0.3,0.4h0.2l-0.5-0.9z"/>
			<linearGradient id="aigrd34" gradientUnits="userSpaceOnUse" x1="55.8721" y1="40.2559" x2="54.7578" y2="40.2559">
				<stop  offset="0" style="stop-color:#929292"/>
				<stop  offset="1" style="stop-color:#CCCCCC"/>
			</linearGradient>
			<path style="&st30;" d="M55.1,39.5l0.1,0.6l0.4,0.8l0-0.5l-0.5-1z"/>
			<path d="M51.9,37l-10.6,0l-2.8,2.3l3.1-2L51.9,37z"/>
			<path d="M57.1,38.7l-1.4,0l0.5,0.9h-1.1l0.5,1l-0.2-0.8l1.2,0L56,38.8l1.1-0.1z"/>
			<path style="&st46;" d="M60.3,40.5l-4.7,0l4.3-0.1l-0.8-0.9l-1.3,0l-0.6-0.8l0.8,0.8l1.3,0l1,1z"/>
			<path style="&st41;" d="M51.9,37l2.2,2.2h-2.9l0.6,1.5l-11.4,0l10.9-0.2l-0.4-1.6h2.6L51.9,37z"/>
		</g>
		<g style="&st52;">
			<path d="M3.5,8.8c-0.9,0-1.6,0.7-1.6,1.6c0,0,0,0.3,0,0.6c-0.5,0.3-0.8,0.8-0.8,1.4v5.2c0,0.4,0.2,0.8,0.4,1.1c-0.3,0.3-0.4,0.7-0.4,1.1v5.2c0,0.6,0.3,1.1,0.8,1.4c0,1.6,0,15.2,0,15.2c0,0.9,0.7,1.6,1.6,1.6h18.1c0.9,0,1.6-0.7,1.6-1.6V11.6
				c0-0.9-0.7-1.6-1.6-1.6c0,0-0.2,0-0.4,0c-0.1-0.7-0.8-1.3-1.5-1.3H3.5z"/>
			<path style="&st39;" d="M17.6,41.3c0,0.3,0.2,0.5,0.5,0.5h3.6c0.2,0,0.5-0.2,0.5-0.5V11.5c0-0.2-0.2-0.5-0.5-0.5H18c-0.2,0-0.5,0.2-0.5,0.5v29.8z"/>
			<linearGradient id="aigrd35" gradientUnits="userSpaceOnUse" x1="3.0845" y1="25.791" x2="20.1235" y2="25.791">
				<stop  offset="0" style="stop-color:#FFFFFF"/>
				<stop  offset="8.988800e-002" style="stop-color:#D6D6D6"/>
				<stop  offset="0.9157" style="stop-color:#D6D6D6"/>
				<stop  offset="1" style="stop-color:#9C9C9C"/>
			</linearGradient>
			<path style="&st31;" d="M20.1,41.3c0,0.3-0.2,0.5-0.5,0.5H3.5c-0.2,0-0.5-0.2-0.5-0.5V10.2c0-0.2,0.2-0.5,0.5-0.5h16.1c0.3,0,0.5,0.2,0.5,0.5v31.1z"/>
			<linearGradient id="aigrd36" gradientUnits="userSpaceOnUse" x1="2.2778" y1="22.127" x2="20.9292" y2="22.127">
				<stop  offset="0" style="stop-color:#FFFFFF"/>
				<stop  offset="8.988800e-002" style="stop-color:#D6D6D6"/>
				<stop  offset="0.9157" style="stop-color:#D6D6D6"/>
				<stop  offset="1" style="stop-color:#9C9C9C"/>
			</linearGradient>
			<path style="&st32;" d="M20.9,24.7c0,0.2-0.2,0.5-0.5,0.5H2.7c-0.2,0-0.5-0.2-0.5-0.5v-5.2c0-0.2,0.2-0.5,0.5-0.5h17.7c0.3,0,0.5,0.2,0.5,0.5v5.2z"/>
			<linearGradient id="aigrd37" gradientUnits="userSpaceOnUse" x1="2.2778" y1="14.7959" x2="20.9292" y2="14.7959">
				<stop  offset="0" style="stop-color:#FFFFFF"/>
				<stop  offset="8.988800e-002" style="stop-color:#D6D6D6"/>
				<stop  offset="0.9157" style="stop-color:#D6D6D6"/>
				<stop  offset="1" style="stop-color:#9C9C9C"/>
			</linearGradient>
			<path style="&st33;" d="M20.9,17.4c0,0.2-0.2,0.5-0.5,0.5H2.7c-0.2,0-0.5-0.2-0.5-0.5v-5.2c0-0.2,0.2-0.5,0.5-0.5h17.7c0.3,0,0.5,0.2,0.5,0.5v5.2z"/>
			<path d="M19.2,14.8c0,0.3-0.2,0.5-0.5,0.5H4.5c-0.2,0-0.5-0.2-0.5-0.5v-0.3c0-0.3,0.2-0.5,0.5-0.5h14.2c0.2,0,0.5,0.2,0.5,0.5v0.3z"/>
			<path d="M17.3,22.2c0,0.2-0.2,0.5-0.5,0.5H6c-0.2,0-0.5-0.2-0.5-0.5v-0.3c0-0.2,0.2-0.5,0.5-0.5h10.9c0.2,0,0.5,0.2,0.5,0.5v0.3z"/>
			<path d="M15.1,22.9c0,0.2-0.2,0.5-0.5,0.5h-1.9c-0.2,0-0.5-0.2-0.5-0.5v-1.6c0-0.2,0.2-0.5,0.5-0.5h1.9c0.2,0,0.5,0.2,0.5,0.5v1.6z"/>
			<linearGradient id="aigrd38" gradientUnits="userSpaceOnUse" x1="10.959" y1="40.1279" x2="10.959" y2="38.9169">
				<stop  offset="0" style="stop-color:#FFFFFF"/>
				<stop  offset="1" style="stop-color:#000000"/>
			</linearGradient>
			<path style="&st34;" d="M17.4,39.7c0,0.2-0.2,0.4-0.5,0.4H5c-0.2,0-0.5-0.2-0.5-0.4v-0.3c0-0.3,0.2-0.5,0.5-0.5h11.9c0.2,0,0.5,0.2,0.5,0.5v0.3z"/>
			<linearGradient id="aigrd39" gradientUnits="userSpaceOnUse" x1="9.8315" y1="37.9063" x2="9.8315" y2="36.6943">
				<stop  offset="0" style="stop-color:#FFFFFF"/>
				<stop  offset="1" style="stop-color:#000000"/>
			</linearGradient>
			<path style="&st35;" d="M15.1,37.4c0,0.2-0.2,0.5-0.5,0.5H5c-0.2,0-0.5-0.2-0.5-0.5v-0.3c0-0.2,0.2-0.5,0.5-0.5h9.7c0.2,0,0.5,0.2,0.5,0.5v0.3z"/>
			<linearGradient id="aigrd40" gradientUnits="userSpaceOnUse" x1="8.7036" y1="35.4824" x2="8.7036" y2="34.5238">
				<stop  offset="0" style="stop-color:#FFFFFF"/>
				<stop  offset="1" style="stop-color:#000000"/>
			</linearGradient>
			<path style="&st36;" d="M12.9,35.2c0,0.2-0.2,0.5-0.5,0.5H5c-0.2,0-0.5-0.2-0.5-0.5v-0.3c0-0.2,0.2-0.4,0.5-0.4h7.4c0.3,0,0.5,0.2,0.5,0.4v0.3z"/>
		</g>
	</g>
	<g id="Layer_x0020_2" style="&st51;">
		<path style="&st47;" d="M66,48H0V0h66v48z"/>
	</g>
</svg>
