<?xml version="1.0" encoding="UTF-8" standalone="no"?>
<!DOCTYPE svg PUBLIC "-//W3C//DTD SVG 20010904//EN"
"http://www.w3.org/TR/2001/REC-SVG-20010904/DTD/svg10.dtd"
[
 <!ATTLIST svg
  xmlns:xlink CDATA #FIXED "http://www.w3.org/1999/xlink">
]>
<!-- Created with Sodipodi ("http://www.sodipodi.com/") -->
<svg
   xmlns="http://www.w3.org/2000/svg"
   xmlns:xlink="http://www.w3.org/1999/xlink"
   version="1"
   x="0.00000000"
   y="0.00000000"
   width="60.0000000"
   height="60.0000000"
   viewBox="0 0 256 256"
   id="svg153">
  <defs
     id="defs239">
    <linearGradient
       x1="0.00000000"
       y1="0.00000000"
       x2="1.00000000"
       y2="0.00000000"
       id="linearGradient759"
       gradientUnits="objectBoundingBox"
       spreadMethod="pad">
      <stop
         style="stop-color:#e6e6e6;stop-opacity:1;"
         offset="0.00000000"
         id="stop764" />
      <stop
         style="stop-color:#c2c2c2;stop-opacity:1;"
         offset="0.85949999"
         id="stop763" />
      <stop
         style="stop-color:#dbdbdb;stop-opacity:1;"
         offset="0.90649998"
         id="stop762" />
      <stop
         style="stop-color:#f5f5f5;stop-opacity:1;"
         offset="0.96499997"
         id="stop761" />
      <stop
         style="stop-color:#ffffff;stop-opacity:1;"
         offset="1.00000000"
         id="stop760" />
    </linearGradient>
    <linearGradient
       x1="0.00000000"
       y1="0.00000000"
       x2="1.00000000"
       y2="0.00000000"
       id="linearGradient267"
       gradientUnits="objectBoundingBox"
       spreadMethod="pad">
      <stop
         style="stop-color:#99ccff;stop-opacity:1;"
         offset="0.00000000"
         id="stop273" />
      <stop
         style="stop-color:#88c1f9;stop-opacity:1;"
         offset="0.08280000"
         id="stop272" />
      <stop
         style="stop-color:#4e9ae6;stop-opacity:1;"
         offset="0.39700001"
         id="stop271" />
      <stop
         style="stop-color:#247ed8;stop-opacity:1;"
         offset="0.66570002"
         id="stop270" />
      <stop
         style="stop-color:#0a6ccf;stop-opacity:1;"
         offset="0.87519997"
         id="stop269" />
      <stop
         style="stop-color:#0066cc;stop-opacity:1;"
         offset="1.00000000"
         id="stop268" />
    </linearGradient>
    <linearGradient
       x1="121.917999"
       y1="185.750000"
       x2="249.582001"
       y2="185.750000"
       id="linearGradient255"
       gradientUnits="userSpaceOnUse"
       spreadMethod="pad">
      <stop
         style="stop-color:#ffff66;stop-opacity:1;"
         offset="0.00000000"
         id="stop256" />
      <stop
         style="stop-color:#ffcc66;stop-opacity:1;"
         offset="1.00000000"
         id="stop257" />
    </linearGradient>
    <linearGradient
       x1="51.9355011"
       y1="51.8241997"
       x2="253.466705"
       y2="252.749893"
       id="XMLID_1_"
       gradientUnits="userSpaceOnUse"
       spreadMethod="pad">
      <stop
         style="stop-color:#f0f0f0;stop-opacity:1;"
         offset="0.00000000"
         id="stop157" />
      <stop
         style="stop-color:#bbd8f4;stop-opacity:1;"
         offset="0.21770000"
         id="stop158" />
      <stop
         style="stop-color:#81bdf9;stop-opacity:1;"
         offset="0.48550001"
         id="stop159" />
      <stop
         style="stop-color:#57a9fc;stop-opacity:1;"
         offset="0.71469998"
         id="stop160" />
      <stop
         style="stop-color:#3d9dfe;stop-opacity:1;"
         offset="0.89349997"
         id="stop161" />
      <stop
         style="stop-color:#3399ff;stop-opacity:1;"
         offset="1.00000000"
         id="stop162" />
    </linearGradient>
    <linearGradient
       x1="56.1963005"
       y1="54.8661995"
       x2="253.689499"
       y2="251.766006"
       id="XMLID_2_"
       xlink:href="#linearGradient267"
       gradientUnits="userSpaceOnUse"
       spreadMethod="pad" />
    <linearGradient
       x1="179.335907"
       y1="24.2318993"
       x2="61.9861984"
       y2="141.581604"
       id="XMLID_3_"
       gradientUnits="userSpaceOnUse"
       spreadMethod="pad">
      <stop
         style="stop-color:#c2c2c2;stop-opacity:1;"
         offset="0.00000000"
         id="stop181" />
      <stop
         style="stop-color:#e6e6e6;stop-opacity:1;"
         offset="1.00000000"
         id="stop182" />
    </linearGradient>
    <linearGradient
       x1="160.686493"
       y1="120.260696"
       x2="81.7116013"
       y2="6.65829992"
       id="XMLID_4_"
       gradientUnits="userSpaceOnUse"
       spreadMethod="pad">
      <stop
         style="stop-color:#ffffff;stop-opacity:1;"
         offset="0.00000000"
         id="stop188" />
      <stop
         style="stop-color:#e6e6e6;stop-opacity:1;"
         offset="0.66850001"
         id="stop189" />
      <stop
         style="stop-color:#ffffff;stop-opacity:1;"
         offset="1.00000000"
         id="stop190" />
    </linearGradient>
    <linearGradient
       x1="99.1532974"
       y1="152.325195"
       x2="174.419296"
       y2="255.512299"
       id="XMLID_5_"
       gradientUnits="userSpaceOnUse"
       spreadMethod="pad">
      <stop
         style="stop-color:#0066cc;stop-opacity:1;"
         offset="0.39890000"
         id="stop198" />
      <stop
         style="stop-color:#076dd3;stop-opacity:1;"
         offset="0.55559999"
         id="stop199" />
      <stop
         style="stop-color:#1a80e6;stop-opacity:1;"
         offset="0.78200001"
         id="stop200" />
      <stop
         style="stop-color:#3399ff;stop-opacity:1;"
         offset="1.00000000"
         id="stop201" />
    </linearGradient>
    <linearGradient
       x1="221.169907"
       y1="50.8828011"
       x2="221.169907"
       y2="32.2694016"
       id="XMLID_7_"
       gradientUnits="userSpaceOnUse"
       spreadMethod="pad">
      <stop
         style="stop-color:#3399ff;stop-opacity:1;"
         offset="0.00000000"
         id="stop223" />
      <stop
         style="stop-color:#000000;stop-opacity:1;"
         offset="1.00000000"
         id="stop224" />
    </linearGradient>
    <linearGradient
       x1="128.855499"
       y1="38.1977997"
       x2="115.906502"
       y2="9.06210041"
       id="XMLID_8_"
       gradientUnits="userSpaceOnUse"
       spreadMethod="pad">
      <stop
         style="stop-color:#b5e1ae;stop-opacity:1;"
         offset="0.00000000"
         id="stop230" />
      <stop
         style="stop-color:#cfeccf;stop-opacity:1;"
         offset="1.00000000"
         id="stop231" />
    </linearGradient>
    <linearGradient
       x1="6.02099991"
       y1="129.577103"
       x2="247.998993"
       y2="129.577103"
       id="linearGradient730"
       gradientUnits="userSpaceOnUse"
       spreadMethod="pad">
      <stop
         style="stop-color:#a1a1a1;stop-opacity:1;"
         offset="0.00000000"
         id="stop731" />
      <stop
         style="stop-color:#7d7b7c;stop-opacity:1;"
         offset="1.00000000"
         id="stop732" />
    </linearGradient>
    <linearGradient
       x1="10.9424000"
       y1="129.613297"
       x2="243.151398"
       y2="129.613297"
       id="linearGradient734"
       gradientUnits="userSpaceOnUse"
       spreadMethod="pad">
      <stop
         style="stop-color:#f0f0f0;stop-opacity:1;"
         offset="0.00000000"
         id="stop164" />
      <stop
         style="stop-color:#d4d4d4;stop-opacity:1;"
         offset="1.00000000"
         id="stop165" />
    </linearGradient>
    <linearGradient
       x1="56.1963348"
       y1="54.8662186"
       x2="253.689529"
       y2="251.766006"
       id="linearGradient274"
       xlink:href="#linearGradient759"
       gradientUnits="userSpaceOnUse"
       gradientTransform="translate(5.650368e-6,3.099948e-6)"
       spreadMethod="pad" />
    <linearGradient
       x1="51.9355049"
       y1="51.8242035"
       x2="253.466705"
       y2="252.749893"
       id="linearGradient765"
       xlink:href="#linearGradient730"
       gradientUnits="userSpaceOnUse"
       gradientTransform="translate(5.650368e-6,3.099948e-6)"
       spreadMethod="pad" />
  </defs>
  <g
     style="font-size:12;stroke:#000000;"
     id="Layer_2">
    <path
       d="M 256 256 L 0 256 L 0 0 L 256 0 L 256 256 z "
       style="fill:none;stroke:none;"
       id="path237" />
  </g>
  <g
     transform="matrix(0.785325,0.000000,0.000000,0.785325,-61.63664,-31.40310)"
     style="font-size:12;"
     id="g766">
    <path
       d="M 118.256 13.475 C 86.166 17.426 57.535 33.638 37.637 59.123 C 17.74 84.608 8.958 116.315 12.908 148.405 C 16.859 180.496 33.07 209.126 58.554 229.023 C 111.164 270.098 187.382 260.715 228.457 208.107 C 269.531 155.497 260.147 79.278 207.538 38.203 C 182.054 18.306 150.347 9.524 118.256 13.475 z M 121.412 133.602 C 121.412 131.098 122.215 128.575 123.872 126.452 C 127.823 121.392 135.152 120.489 140.211 124.438 C 145.27 128.388 146.173 135.72 142.222 140.779 C 138.273 145.837 130.944 146.738 125.884 142.788 C 122.948 140.496 121.412 137.066 121.412 133.602 z "
       transform="translate(79.08279,35.05733)"
       style="opacity:0.2;"
       id="path729" />
    <path
       d="M 112.256 9.475 C 80.166 13.426 51.535 29.638 31.637 55.123 C 11.74 80.608 2.958 112.315 6.908 144.405 C 10.859 176.496 27.07 205.126 52.554 225.023 C 105.164 266.098 181.382 256.715 222.457 204.107 C 263.531 151.497 254.147 75.278 201.538 34.203 C 176.054 14.306 144.347 5.524 112.256 9.475 z M 115.412 129.602 C 115.412 127.098 116.215 124.575 117.872 122.452 C 121.823 117.392 129.152 116.489 134.211 120.438 C 139.27 124.388 140.173 131.72 136.222 136.779 C 132.273 141.837 124.944 142.738 119.884 138.788 C 116.948 136.496 115.412 133.066 115.412 129.602 z "
       transform="translate(79.08279,35.05733)"
       style="fill:url(#linearGradient765);"
       id="path162" />
    <path
       d="M 35.503 58.141 C -3.971 108.7 5.015 181.685 55.573 221.158 C 106.133 260.633 179.118 251.647 218.593 201.089 C 258.067 150.528 249.08 77.544 198.521 38.069 C 147.962 -1.405 74.978 7.582 35.503 58.141 z M 140.088 139.797 C 134.474 146.987 124.056 148.268 116.866 142.654 C 109.676 137.04 108.393 126.624 114.007 119.433 C 119.62 112.243 130.038 110.958 137.229 116.572 C 144.418 122.186 145.702 132.606 140.088 139.797 z "
       transform="translate(79.08279,35.05733)"
       style="fill:url(#linearGradient274);"
       id="path169" />
    <path
       d="M 198.521 38.069 C 181.619 24.872 162.209 17.1 142.385 14.478 L 136.447 56.838 L 128.55 113.156 C 131.613 113.43 134.631 114.545 137.229 116.573 C 139.379 118.252 140.99 120.366 142.057 122.69 L 193.925 101.714 L 234.434 85.334 C 227.022 67.314 214.976 50.916 198.521 38.069 z "
       transform="translate(79.08279,35.05733)"
       style="fill:#efecf1;"
       id="path170" />
    <path
       d="M 222.84 63.896 C 216.273 54.33 208.153 45.589 198.521 38.069 C 188.406 30.171 177.391 24.218 165.928 20.146 C 156.387 46.267 147.714 70.012 147.714 70.012 C 147.714 70.012 140.353 90.165 131.734 113.762 C 133.672 114.333 135.542 115.256 137.229 116.573 C 138.432 117.513 139.457 118.598 140.324 119.769 C 165.126 102.975 199.999 79.362 222.84 63.896 z "
       transform="translate(79.08279,35.05733)"
       style="opacity:0.82;fill:#ffffff;"
       id="path171" />
    <path
       d="M 123.511 145.755 C 121.16 145.243 118.885 144.23 116.866 142.654 C 114.4 140.728 112.647 138.232 111.611 135.502 L 58.148 157.123 L 19.242 172.856 C 26.613 191.283 38.804 208.065 55.573 221.158 C 71.896 233.902 90.558 241.589 109.674 244.462 L 115.626 202 L 123.511 145.755 z "
       transform="translate(79.08279,35.05733)"
       style="fill:#f0f0f0;"
       id="path172" />
    <path
       d="M 116.866 142.654 C 115.641 141.698 114.603 140.594 113.726 139.4 C 92.626 153.688 74.461 165.988 74.461 165.988 C 74.461 165.988 53.959 179.87 31.213 195.271 C 37.787 204.861 45.92 213.621 55.572 221.158 C 65.44 228.862 76.166 234.713 87.326 238.776 C 96.973 212.365 111.403 172.857 121.508 145.19 C 119.875 144.612 118.305 143.777 116.866 142.654 z "
       transform="translate(79.08279,35.05733)"
       style="opacity:0.82;fill:#ffffff;"
       id="path173" />
    <path
       d="M 92.549 102.68 C 77.699 121.701 81.092 149.261 100.112 164.111 C 119.135 178.963 146.695 175.57 161.545 156.549 C 176.398 137.527 173.004 109.967 153.982 95.114 C 134.961 80.265 107.401 83.658 92.549 102.68 z M 140.088 139.797 C 134.474 146.987 124.056 148.268 116.866 142.654 C 109.676 137.04 108.393 126.624 114.007 119.433 C 119.62 112.243 130.038 110.958 137.229 116.572 C 144.418 122.186 145.702 132.606 140.088 139.797 z "
       transform="translate(79.08279,35.05733)"
       style="fill:#d4d4d4;"
       id="path174" />
    <path
       d="M 104.499 112.01 C 94.791 124.443 97.01 142.455 109.442 152.162 C 121.877 161.87 139.889 159.653 149.596 147.22 C 159.304 134.785 157.087 116.774 144.652 107.065 C 132.219 97.358 114.207 99.576 104.499 112.01 z M 140.088 139.797 C 134.474 146.987 124.056 148.268 116.866 142.654 C 109.676 137.04 108.393 126.624 114.007 119.433 C 119.62 112.243 130.038 110.958 137.229 116.572 C 144.418 122.186 145.702 132.606 140.088 139.797 z "
       transform="translate(79.08279,35.05733)"
       style="fill:#e6e6e6;"
       id="path175" />
  </g>
  <g
     transform="matrix(0.616930,0.000000,0.000000,0.616930,102.1292,102.5172)"
     style="font-size:12;"
     id="g684">
    <path
       d="M 49.381 24.5 C 38.143 24.5 29 33.891 29 45.434 L 29 227.53 C 29 239.074 38.143 248.465 49.381 248.465 L 224.694 248.465 C 235.932 248.465 245.075 239.074 245.075 227.53 L 245.075 45.434 C 245.075 33.891 235.932 24.5 224.694 24.5 L 49.381 24.5 L 49.381 24.5 z "
       style="opacity:0.2;"
       id="path155" />
    <path
       d="M 233.006 220.316 C 233.006 228.645 226.426 235.395 218.311 235.395 L 38.302 235.395 C 30.186 235.395 23.607 228.645 23.607 220.316 L 23.607 35.612 C 23.607 27.286 30.186 20.535 38.302 20.535 L 218.311 20.535 C 226.426 20.535 233.006 27.286 233.006 35.612 L 233.006 220.316 L 233.006 220.316 z "
       style="fill:url(#XMLID_1_);"
       id="path166" />
    <path
       d="M 43.381 17.5 C 32.143 17.5 23 26.891 23 38.434 L 23 220.53 C 23 232.074 32.143 241.465 43.381 241.465 L 218.694 241.465 C 229.932 241.465 239.075 232.074 239.075 220.53 L 239.075 38.434 C 239.075 26.891 229.932 17.5 218.694 17.5 L 43.381 17.5 L 43.381 17.5 z "
       style="fill:#003399;"
       id="path167" />
    <path
       d="M 233.006 220.53 C 233.006 228.74 226.598 235.395 218.693 235.395 L 43.381 235.395 C 35.477 235.395 29.069 228.74 29.069 220.53 L 29.069 38.434 C 29.069 30.226 35.476 23.57 43.381 23.57 L 218.694 23.57 C 226.598 23.57 233.007 30.226 233.007 38.434 L 233.007 220.53 L 233.006 220.53 z "
       style="fill:url(#XMLID_2_);"
       id="path178" />
    <path
       d="M 41.64 40.564 C 36.884 40.564 33.015 44.643 33.015 49.657 L 33.015 235.405 C 33.015 240.42 36.884 244.5 41.64 244.5 L 221.648 244.5 C 226.404 244.5 230.273 240.42 230.273 235.405 L 230.273 49.657 C 230.273 44.643 226.404 40.564 221.648 40.564 L 41.64 40.564 L 41.64 40.564 z "
       style="fill:none;"
       id="path179" />
    <path
       d="M 203.332 23.771 L 46.671 23.771 L 46.671 127.358 L 209.334 127.358 L 209.334 23.771 L 203.332 23.771 z "
       style="fill:url(#XMLID_3_);"
       id="path186" />
    <path
       d="M 204.479 122.629 L 52.133 122.629 L 52.133 24.735 L 204.478 24.735 L 204.478 122.629 L 204.479 122.629 z "
       style="fill:url(#XMLID_4_);stroke:#ffffff;"
       id="path196" />
    <path
       d="M 193.25 231.755 L 58.507 231.755 L 58.507 146.174 L 193.25 146.174 L 193.25 231.755 z "
       style="fill:url(#XMLID_5_);"
       id="path205" />
    <g
       style="stroke:#000000;"
       id="g206">
      <g
         id="g207">
        <linearGradient
           x1="117.987801"
           y1="166.129898"
           x2="117.987801"
           y2="231.275497"
           id="XMLID_6_"
           xlink:href="#linearGradient759"
           gradientUnits="userSpaceOnUse"
           spreadMethod="pad" />
        <path
           d="M 65.183 152.94 L 65.183 233.169 L 170.793 233.169 L 170.793 152.94 L 65.183 152.94 z M 102.95 211.869 L 79.171 211.869 L 79.171 168.559 L 102.95 168.559 L 102.95 211.869 z "
           style="fill:url(#XMLID_6_);stroke:none;"
           id="path219" />
      </g>
      <g
         id="g220">
        <path
           d="M 65.183 152.94 L 65.183 233.169 L 170.793 233.169 L 170.793 152.94 L 65.183 152.94 z M 102.95 211.869 L 79.171 211.869 L 79.171 168.559 L 102.95 168.559 L 102.95 211.869 z "
           style="fill:none;stroke:#999999;stroke-width:4;stroke-linejoin:round;"
           id="path221" />
      </g>
    </g>
    <path
       d="M 215.707 50.275 L 226.633 50.275 L 226.633 39.35 L 215.707 39.35 L 215.707 50.275 z "
       style="fill:url(#XMLID_7_);"
       id="path228" />
    <path
       d="M 204.378 48.24 L 51.83 48.24 L 51.83 24.772 L 204.378 24.772 L 204.378 48.24 z "
       style="fill:url(#XMLID_8_);"
       id="path235" />
  </g>
</svg>
