<?xml version="1.0" encoding="UTF-8" standalone="no"?>
<!DOCTYPE svg PUBLIC "-//W3C//DTD SVG 20010904//EN"
"http://www.w3.org/TR/2001/REC-SVG-20010904/DTD/svg10.dtd">
<!-- Created with Sodipodi ("http://www.sodipodi.com/") -->
<svg
   width="48pt"
   height="48pt"
   viewBox="0 0 256 256"
   overflow="visible"
   enable-background="new 0 0 256 256"
   xml:space="preserve"
   xmlns="http://www.w3.org/2000/svg"
   xmlns:xml="http://www.w3.org/XML/1998/namespace"
   xmlns:a="http://ns.adobe.com/AdobeSVGViewerExtensions/3.0/"
   xmlns:sodipodi="http://sodipodi.sourceforge.net/DTD/sodipodi-0.dtd"
   xmlns:xlink="http://www.w3.org/1999/xlink"
   id="svg153"
   sodipodi:version="0.32pre"
   sodipodi:docname="/home/cschalle/gnome-themes-extras/Nuvola/icons/scalable/apps/gnome-network.svg"
   sodipodi:docbase="/home/cschalle/gnome-themes-extras/Nuvola/icons/scalable/apps">
  <defs
     id="defs183" />
  <sodipodi:namedview
     id="base" />
  <g
     id="Layer_1"
     stroke="#000000">
    <path
       opacity="0.2"
       stroke="none"
       d="M15.67,134.278c0,66.354,53.902,120.337,120.161,120.337c4.584,0,9.373-0.295,14.237-0.873    c9.652-0.916,16.247-2.749,20.229-4.194C220.761,234.401,256,187.013,256,134.278c0-21.963-6.06-43.484-17.519-62.241    l-2.606-4.055l-0.852-1.261c-0.015-0.022-2.713-3.809-2.713-3.809c-0.002,0-0.513-0.679-0.513-0.679    c0.005,0.005-2.755-3.502-2.755-3.502c-0.001-0.002-0.968-1.173-0.968-1.173c0.01,0.009-3.178-3.669-3.178-3.669    c0.004,0.006-0.412-0.441-0.412-0.441l-3.114-3.271c-0.106-0.106-1.039-1.044-1.039-1.044l-3.526-3.365    c0.006,0.007-0.523-0.465-0.523-0.465l-0.226-0.196c0.009,0.006-3.154-2.737-3.154-2.737c-0.017-0.013-1.081-0.9-1.081-0.9    l-3.851-3.026l-0.852-0.625c-0.013-0.012-3.429-2.443-3.429-2.443c-0.002-0.002-1.066-0.732-1.066-0.732    c-0.014-0.009-4.167-2.674-4.167-2.674c-0.005-0.006-0.983-0.588-0.983-0.588c-0.003-0.002-3.669-2.116-3.669-2.116    c-0.024-0.013-1.048-0.579-1.048-0.579l-4.448-2.284c-0.005,0-1.064-0.505-1.064-0.505c-0.014-0.006-3.97-1.798-3.97-1.798    c0.02,0.008-0.248-0.107-0.248-0.107l-0.735-0.32c0.021,0.01-4.702-1.86-4.702-1.86c0.006,0.003-0.856-0.311-0.856-0.311    l-0.3-0.104l-4.26-1.448c-0.009-0.003-0.835-0.271-0.835-0.271c-0.009-0.002-4.977-1.417-4.977-1.417    c0.007,0-0.877-0.223-0.877-0.223l-0.323-0.083c-0.015-0.004-4.625-1.071-4.625-1.071c-0.123-0.028-0.65-0.142-0.65-0.142    L154.7,15.81c-0.015,0-1.287-0.194-1.287-0.194c0.009,0.004-4.985-0.635-4.985-0.635c-0.03-0.002-0.391-0.043-0.391-0.043    c-0.012-0.004-5.392-0.415-5.392-0.415l-1.316-0.064l-5.498-0.139C69.573,14.319,15.67,68.135,15.67,134.278z"
       id="path155" />
    <path
       fill="#0066CC"
       stroke="none"
       d="M7.716,129.278c0,66.354,53.902,120.337,120.161,120.337c4.584,0,9.373-0.295,14.237-0.873    c9.652-0.916,16.247-2.749,20.229-4.194c50.464-15.146,85.703-62.535,85.703-115.27c0-21.963-6.06-43.484-17.519-62.241    l-2.606-4.055l-0.852-1.261c-0.015-0.022-2.713-3.809-2.713-3.809c-0.002,0-0.513-0.679-0.513-0.679    c0.005,0.005-2.755-3.502-2.755-3.502c-0.001-0.002-0.968-1.173-0.968-1.173c0.01,0.009-3.178-3.669-3.178-3.669    c0.004,0.006-0.412-0.441-0.412-0.441l-3.114-3.271c-0.106-0.106-1.039-1.044-1.039-1.044l-3.526-3.365    c0.006,0.007-0.523-0.465-0.523-0.465l-0.226-0.196c0.009,0.006-3.154-2.737-3.154-2.737c-0.017-0.013-1.081-0.9-1.081-0.9    l-3.851-3.026l-0.852-0.625c-0.013-0.012-3.429-2.443-3.429-2.443c-0.002-0.002-1.066-0.732-1.066-0.732    c-0.014-0.009-4.167-2.674-4.167-2.674c-0.005-0.006-0.983-0.588-0.983-0.588c-0.003-0.002-3.669-2.116-3.669-2.116    c-0.024-0.013-1.048-0.579-1.048-0.579l-4.448-2.284c-0.005,0-1.064-0.505-1.064-0.505c-0.014-0.006-3.97-1.798-3.97-1.798    c0.02,0.008-0.248-0.107-0.248-0.107l-0.735-0.32c0.021,0.01-4.702-1.86-4.702-1.86c0.006,0.003-0.856-0.311-0.856-0.311    l-0.3-0.104l-4.26-1.448c-0.009-0.003-0.835-0.271-0.835-0.271c-0.009-0.002-4.977-1.417-4.977-1.417    c0.007,0-0.877-0.223-0.877-0.223l-0.323-0.083c-0.015-0.004-4.625-1.071-4.625-1.071c-0.123-0.028-0.65-0.142-0.65-0.142    l-5.186-0.933c-0.015,0-1.287-0.194-1.287-0.194c0.009,0.004-4.985-0.635-4.985-0.635c-0.03-0.002-0.391-0.043-0.391-0.043    c-0.012-0.004-5.392-0.415-5.392-0.415l-1.316-0.064l-5.498-0.139C61.619,9.319,7.716,63.135,7.716,129.278z"
       id="path156" />
    <radialGradient
       id="XMLID_1_"
       cx="-107.9492"
       cy="405.5967"
       r="140.5396"
       fx="-107.9492"
       fy="405.5967"
       gradientTransform="matrix(1.1009 0 0 -1.0433 241.2153 627.9246)"
       gradientUnits="userSpaceOnUse">
      <stop
         offset="0"
         style="stop-color:#FFFFFF"
         id="stop158" />
      <stop
         offset="0.6517"
         style="stop-color:#BFE3EE"
         id="stop159" />
      <a:midPointStop
         offset="0"
         style="stop-color:#FFFFFF"
         id="midPointStop160" />
      <a:midPointStop
         offset="0.5"
         style="stop-color:#FFFFFF"
         id="midPointStop161" />
      <a:midPointStop
         offset="0.6517"
         style="stop-color:#BFE3EE"
         id="midPointStop162" />
    </radialGradient>
    <path
       fill="url(#XMLID_1_)"
       stroke="none"
       d="M127.877,240.92c61.547,0,111.476-50.131,111.476-111.642    c0-61.121-49.924-111.264-111.476-111.264c-61.111,0-111.467,50.143-111.467,111.264C16.41,190.785,66.766,240.92,127.877,240.92z    "
       id="path163" />
    <radialGradient
       id="XMLID_2_"
       cx="-126.5571"
       cy="504.6367"
       r="147.9467"
       fx="-126.5571"
       fy="504.6367"
       gradientTransform="matrix(1 0 0 -1 224.5 604.5)"
       gradientUnits="userSpaceOnUse">
      <stop
         offset="0"
         style="stop-color:#66CC99"
         id="stop165" />
      <stop
         offset="0.5562"
         style="stop-color:#339966"
         id="stop166" />
      <stop
         offset="1"
         style="stop-color:#006633"
         id="stop167" />
      <a:midPointStop
         offset="0"
         style="stop-color:#66CC99"
         id="midPointStop168" />
      <a:midPointStop
         offset="0.5"
         style="stop-color:#66CC99"
         id="midPointStop169" />
      <a:midPointStop
         offset="0.5562"
         style="stop-color:#339966"
         id="midPointStop170" />
      <a:midPointStop
         offset="0.5"
         style="stop-color:#339966"
         id="midPointStop171" />
      <a:midPointStop
         offset="1"
         style="stop-color:#006633"
         id="midPointStop172" />
    </radialGradient>
    <path
       fill="url(#XMLID_2_)"
       stroke="none"
       d="M90.85,30.271c-0.55,0-1.155,0.228-1.773,0.579    C90.526,30.424,91.213,30.271,90.85,30.271z M126.742,37.277l0.359-5.252l-5.542,0.35l0.738,4.902H126.742z M64.211,128.008    c-1.114-1.049-0.371-5.604-0.371-5.604s-16.65-8.75-34.781-14.011c-2.239-0.649-1.107-5.25,1.103-6.999l-0.737-4.916    c-0.366-2.447,3.705-14.356,7.774-15.402c4.07-1.058-0.37,7.003-0.37,7.003l-4.072,2.453c0,0,4.808,5.599,5.924,5.599    c1.109,0,2.958-2.804,2.958-2.804l-5.182-3.493l4.813-2.109l0.303-1.846l0.807-0.254l7.964-12.061    c5.503-2.253,12.268-5.041,13.126-5.454c1.482-0.697,11.839-6.648,13.69-8.052c1.854-1.404,5.917-1.049,7.395-1.049    c1.485,0,3.703-0.702,4.073-4.561c0.371-3.851,1.852-4.556,2.962-3.501c1.11,1.044-1.113,2.801,1.48,3.501    c2.592,0.702,4.805,2.455,6.659,0.702c1.355-1.283-0.459-2.743-1.677-3.846h20.544l2.225-6.315l-4.811-0.701l-17.766-1.748v-2.103    l-1.418,0.237c1.924-10.568,13.349-8.823,4.751-14.945c-0.525-0.375-8.046,11.856-9.96,11.619    c-3.468-0.458-7.954-0.492-8.912,0.633c-1.257,1.489,2.84-5.123,6.371-7.128c-5.634,1.661-23.435,7.752-42.259,27.799    c-17.992,19.167-25.163,44.987-25.163,45.894c0,1.746,3.702,2.448,4.071,4.554c0.369,2.091-7.026,9.104-7.026,12.605    c0,1.616-1.747,23.209,4.434,40.994c7.222,20.761,22.63,38.097,24.424,39.234l3.695-1.755c0,0-8.508-15.062-8.875-16.469    c-0.369-1.393,9.621-21.719,14.429-21.011c4.807,0.691,3.7,2.104,6.662,0.348c2.959-1.747,4.81-16.118,8.138-17.512    c3.334-1.408,7.028-3.154,6.666-6.658c-0.374-3.513-12.952-9.811-14.063-10.865H64.211z M144.5,25.018l-9.988-3.507l1.851,5.611    L144.5,25.018z M107.129,37.979c1.111,0,23.31-14.706,21.09-15.064c-2.217-0.346-2.589,0-8.515-0.697    c-5.918-0.703-12.212,8.409-13.688,9.81c-1.476,1.406-0.98,5.952,1.11,5.952H107.129z M208.999,143.607l2.867-3.72l-2.867-1.008    l-2.146,2.705l-2.504,3.703l2.146,1.018L208.999,143.607z M221.532,155.769l-0.716-5.404h-4.65l-0.357,4.042l-4.305-0.665    l-1.067-4.396l-2.147-1.345l-2.514,3.036l-2.499-0.673l-0.722,2.358l2.867,0.682v21.942l10.136,2.439    c-0.232,0.408-0.41,0.746-0.469,0.931c-0.722,2.367,2.863,3.387,5.366,2.367c0.933-0.375,3.881-3.353,5.729-7.756    c2.582-6.136,4.837-14.238,5.288-17.106l1.159-2.478l-7.16,2.699l-3.94-0.673L221.532,155.769z M236.575,114.909l-1.87-3.621    c-2.215-12.486-7.293-28.479-18.179-44.997c-16.384-24.835-61.966-39.158-61.966-39.158l-2.502,3.029l-1.433-2.354l-3.582-1.358    v3.04l3.226,2.703l-2.149,1.013l-8.24,0.672l-18.62,10.131l1.788,8.102l-2.152,0.678l-1.069,1.684l6.087,9.113l0.359,3.047    l-5.013,1.008v6.075l-2.862,0.672l0.36,4.731L94.4,96.01l0.717,9.444c1.788,2.364,15.762,16.551,15.762,16.551    s16.109,0.667,19.694-1.353c3.581-2.028,1.072,2.022,2.148,3.039c1.071,1.018,1.433,8.101,2.503,8.779    c1.075,0.675,0,4.724,1.434,6.078c1.433,1.34,1.433,17.56,1.433,17.56s8.594,14.508,8.594,18.226c0,3.712-0.356,3.376,6.45,3.042    c6.805-0.338,8.231-3.042,9.665-4.047c1.436-1.018,1.436-3.379,2.869-5.41c1.436-2.026,3.936-9.792,7.162-12.487    c3.224-2.707,11.815-4.732,12.529-9.457c0.716-4.727,3.938-8.442,3.938-8.442l15.486-16.381l-0.438,2.206l-0.36,8.43l4.656-1.681    l-0.354-9.122l-1.673-1.771l0.237-0.257c0,0-1.078-2.023-2.504-2.023c-1.438,0-10.033,2.023-11.466,1.69    c-1.43-0.339-7.523-16.548-8.595-17.212c-1.077-0.679-7.879-11.823-7.879-11.823s15.757,18.908,18.264,26.332    c1.456,4.323,6.922,0.301,11.367-4.215l1.173,2.867l2.863-0.68l-0.36-3.375h3.226v5.064l-1.076,2.703l-0.367,4.383l2.866,2.707    l1.441-2.357l4.647-4.394l5.372-2.703l1.435,2.703l0.72,3.715l-1.439,4.048l-2.864,2.365l-1.431,6.077v3.031l-3.217-2.02    l-0.362-6.41l-4.651,0.338l-2.149,5.733l3.223,4.734l7.517,1.012l6.095-5.746l0.711-11.133l2.708-3.577    c1.766,4.533,3.028,9.285,3.028,13.705c0,4.848,2.216-3.359,0.332-18.145L236.575,114.909z M146.328,80.473l-19.338-0.685    l8.231-6.748h4.299l6.806,4.722v2.71L146.328,80.473z M169.967,78.111v3.039h-8.235l0.716,2.027l-5.019,0.681l-0.355,1.683    l-3.581-0.674l-6.447-1.356l1.075-1.681l1.076-2.036l3.579-3.709l1.436,2.704l5.375-0.339l2.861-3.041l11.099,2.028l-3.577,0.678    L169.967,78.111z M170.679,73.717l-4.295,0.672l-0.715-3.038l5.362-0.673l0.724-3.036l3.942,4.053l-5.019,2.019V73.717z     M191.454,178.715l-2.513,2.027l0.357,5.07h3.227v-4.385l2.868-3.724v-7.761l-1.79-0.347L191.454,178.715z M167.462,168.595    c0,0-2.508,0.664,0.354,1.687c2.862,1.015,14.323-16.54,14.323-16.54l-9.67,6.07l-5.01,8.783H167.462z M147.968,233.304    l-2.144-2.041l-4.295-0.682l-0.717,2.046l-5.726-0.674l-0.358-2.723h-4.296l-4.655,2.723h-8.232l-0.711-2.047l-13.244-1.365    l-2.152,2.04l-5.365-1.351l-0.713-4.768l-2.506-0.348l-2.865,5.115l-9.661-0.346c1.727,0.82,16.16,9.428,38.291,11.231    c29.35,2.369,43.311-4.765,43.311-4.765l-1.074-1.023l-12.887-1.021V233.304z"
       id="path173" />
    <radialGradient
       id="XMLID_3_"
       cx="85.8721"
       cy="43.4609"
       r="97.1884"
       fx="85.8721"
       fy="43.4609"
       gradientUnits="userSpaceOnUse">
      <stop
         offset="0"
         style="stop-color:#99CCFF"
         id="stop175" />
      <stop
         offset="1"
         style="stop-color:#FFFFFF"
         id="stop176" />
      <a:midPointStop
         offset="0"
         style="stop-color:#99CCFF"
         id="midPointStop177" />
      <a:midPointStop
         offset="0.5"
         style="stop-color:#99CCFF"
         id="midPointStop178" />
      <a:midPointStop
         offset="1"
         style="stop-color:#FFFFFF"
         id="midPointStop179" />
    </radialGradient>
    <path
       opacity="0.5"
       fill="url(#XMLID_3_)"
       stroke="none"
       d="M223.142,71.622c-19.57-32.061-54.919-53.607-95.265-53.607    c-61.111,0-111.467,50.143-111.467,111.264c0,1.582,0.054,3.153,0.122,4.718c18.471,4.49,38.955,7.007,60.544,7.007    C152.243,141.003,214.208,110.72,223.142,71.622z"
       id="path180" />
    <path
       opacity="0.2"
       fill="none"
       stroke="none"
       d="M256,256H0V0h256V256z"
       id="path181" />
  </g>
</svg>
