<?xml version="1.0" encoding="UTF-8" standalone="no"?>
<!DOCTYPE svg PUBLIC "-//W3C//DTD SVG 20010904//EN"
"http://www.w3.org/TR/2001/REC-SVG-20010904/DTD/svg10.dtd"
[
 <!ATTLIST svg
  xmlns:xlink CDATA #FIXED "http://www.w3.org/1999/xlink">
]>
<!-- Created with Sodipodi ("http://www.sodipodi.com/") -->
<svg
   xmlns="http://www.w3.org/2000/svg"
   xmlns:xlink="http://www.w3.org/1999/xlink"
   version="1"
   x="0.00000000"
   y="0.00000000"
   width="60.0000000"
   height="60.0000000"
   viewBox="0 0 256 256"
   id="svg153">
  <defs
     id="defs247">
    <linearGradient
       x1="0.00000000"
       y1="0.00000000"
       x2="1.00000000"
       y2="0.00000000"
       id="linearGradient831"
       gradientUnits="objectBoundingBox"
       spreadMethod="pad">
      <stop
         style="stop-color:#ffffff;stop-opacity:1;"
         offset="0.00000000"
         id="stop833" />
      <stop
         style="stop-color:#99ccff;stop-opacity:1;"
         offset="1.00000000"
         id="stop832" />
    </linearGradient>
    <linearGradient
       x1="0.00000000"
       y1="0.00000000"
       x2="1.00000000"
       y2="0.00000000"
       id="linearGradient828"
       gradientUnits="objectBoundingBox"
       spreadMethod="pad">
      <stop
         style="stop-color:#99ccff;stop-opacity:1;"
         offset="0.00000000"
         id="stop830" />
      <stop
         style="stop-color:#0066cc;stop-opacity:1;"
         offset="1.00000000"
         id="stop829" />
    </linearGradient>
    <linearGradient
       x1="0.00000000"
       y1="0.00000000"
       x2="1.00000000"
       y2="0.00000000"
       id="linearGradient825"
       gradientUnits="objectBoundingBox"
       spreadMethod="pad">
      <stop
         style="stop-color:#0066cc;stop-opacity:1;"
         offset="0.00000000"
         id="stop827" />
      <stop
         style="stop-color:#3399ff;stop-opacity:1;"
         offset="1.00000000"
         id="stop826" />
    </linearGradient>
    <linearGradient
       x1="0.00000000"
       y1="0.00000000"
       x2="1.00000000"
       y2="0.00000000"
       id="linearGradient818"
       gradientUnits="objectBoundingBox"
       spreadMethod="pad">
      <stop
         style="stop-color:#ffffff;stop-opacity:1;"
         offset="0.00000000"
         id="stop823" />
      <stop
         style="stop-color:#99ccff;stop-opacity:1;"
         offset="0.33149999"
         id="stop822" />
      <stop
         style="stop-color:#6db6ff;stop-opacity:1;"
         offset="0.58520001"
         id="stop821" />
      <stop
         style="stop-color:#43a1ff;stop-opacity:1;"
         offset="0.85920000"
         id="stop820" />
      <stop
         style="stop-color:#3399ff;stop-opacity:1;"
         offset="1.00000000"
         id="stop819" />
    </linearGradient>
    <linearGradient
       x1="0.00000000"
       y1="0.00000000"
       x2="1.00000000"
       y2="0.00000000"
       id="linearGradient814"
       gradientUnits="objectBoundingBox"
       spreadMethod="pad">
      <stop
         style="stop-color:#0066cc;stop-opacity:1;"
         offset="0.00000000"
         id="stop816" />
      <stop
         style="stop-color:#3399ff;stop-opacity:1;"
         offset="1.00000000"
         id="stop815" />
    </linearGradient>
    <linearGradient
       x1="0.00000000"
       y1="0.00000000"
       x2="1.00000000"
       y2="0.00000000"
       id="linearGradient810"
       gradientUnits="objectBoundingBox"
       spreadMethod="pad">
      <stop
         style="stop-color:#99ccff;stop-opacity:1;"
         offset="0.11240000"
         id="stop812" />
      <stop
         style="stop-color:#3399ff;stop-opacity:1;"
         offset="1.00000000"
         id="stop811" />
    </linearGradient>
    <linearGradient
       x1="0.00000000"
       y1="0.00000000"
       x2="1.00000000"
       y2="0.00000000"
       id="linearGradient806"
       gradientUnits="objectBoundingBox"
       spreadMethod="pad">
      <stop
         style="stop-color:#999999;stop-opacity:1;"
         offset="0.00000000"
         id="stop808" />
      <stop
         style="stop-color:#cccccc;stop-opacity:1;"
         offset="1.00000000"
         id="stop807" />
    </linearGradient>
    <linearGradient
       x1="0.00000000"
       y1="0.00000000"
       x2="1.00000000"
       y2="0.00000000"
       id="linearGradient802"
       gradientUnits="objectBoundingBox"
       spreadMethod="pad">
      <stop
         style="stop-color:#999999;stop-opacity:1;"
         offset="0.00000000"
         id="stop804" />
      <stop
         style="stop-color:#cccccc;stop-opacity:1;"
         offset="1.00000000"
         id="stop803" />
    </linearGradient>
    <linearGradient
       x1="177.991196"
       y1="163.775406"
       x2="177.991196"
       y2="222.460205"
       id="linearGradient683"
       gradientUnits="userSpaceOnUse"
       spreadMethod="pad">
      <stop
         style="stop-color:#3399ff;stop-opacity:1;"
         offset="0.00000000"
         id="stop158" />
      <stop
         style="stop-color:#3399ff;stop-opacity:1;"
         offset="1.00000000"
         id="stop159" />
    </linearGradient>
    <linearGradient
       x1="230.527298"
       y1="134.935501"
       x2="194.530502"
       y2="161.933197"
       id="linearGradient687"
       gradientUnits="userSpaceOnUse"
       spreadMethod="pad">
      <stop
         style="stop-color:#3399ff;stop-opacity:1;"
         offset="0.00000000"
         id="stop165" />
      <stop
         style="stop-color:#000000;stop-opacity:1;"
         offset="1.00000000"
         id="stop166" />
    </linearGradient>
    <linearGradient
       x1="47.6309013"
       y1="34.6528015"
       x2="197.811493"
       y2="34.6528015"
       id="linearGradient691"
       gradientUnits="userSpaceOnUse"
       gradientTransform="matrix(0.957300,0.289000,-0.289000,0.957300,49.61590,38.45550)"
       spreadMethod="pad">
      <stop
         style="stop-color:#a7abac;stop-opacity:1;"
         offset="0.00000000"
         id="stop172" />
      <stop
         style="stop-color:#85898a;stop-opacity:1;"
         offset="1.00000000"
         id="stop173" />
    </linearGradient>
    <linearGradient
       x1="91.6132965"
       y1="3.54439998"
       x2="261.098602"
       y2="173.029694"
       id="linearGradient696"
       gradientUnits="userSpaceOnUse"
       gradientTransform="matrix(0.957300,0.289000,-0.289000,0.957300,49.61590,38.45550)"
       spreadMethod="pad">
      <stop
         style="stop-color:#ffffff;stop-opacity:1;"
         offset="0.00000000"
         id="stop180" />
      <stop
         style="stop-color:#99ccff;stop-opacity:1;"
         offset="1.00000000"
         id="stop181" />
    </linearGradient>
    <linearGradient
       x1="0.96340001"
       y1="77.1635971"
       x2="234.960602"
       y2="239.161896"
       id="linearGradient701"
       gradientUnits="userSpaceOnUse"
       spreadMethod="pad">
      <stop
         style="stop-color:#0066cc;stop-opacity:1;"
         offset="0.00000000"
         id="stop188" />
      <stop
         style="stop-color:#003399;stop-opacity:1;"
         offset="1.00000000"
         id="stop189" />
    </linearGradient>
    <linearGradient
       x1="108.474098"
       y1="122.947304"
       x2="108.474098"
       y2="221.935501"
       id="linearGradient705"
       gradientUnits="userSpaceOnUse"
       gradientTransform="matrix(0.990700,-0.136400,0.136400,0.990700,-17.83130,20.72000)"
       spreadMethod="pad">
      <stop
         style="stop-color:#99ccff;stop-opacity:1;"
         offset="0.00000000"
         id="stop195" />
      <stop
         style="stop-color:#3399ff;stop-opacity:1;"
         offset="1.00000000"
         id="stop196" />
    </linearGradient>
    <linearGradient
       x1="40.9028015"
       y1="91.4419022"
       x2="40.9028015"
       y2="75.4412003"
       id="linearGradient709"
       gradientUnits="userSpaceOnUse"
       gradientTransform="matrix(0.990700,-0.136400,0.136400,0.990700,-17.83130,20.72000)"
       spreadMethod="pad">
      <stop
         style="stop-color:#3399ff;stop-opacity:1;"
         offset="0.00000000"
         id="stop202" />
      <stop
         style="stop-color:#3b9dff;stop-opacity:1;"
         offset="0.05460000"
         id="stop711" />
      <stop
         style="stop-color:#64b1ff;stop-opacity:1;"
         offset="0.34369999"
         id="stop712" />
      <stop
         style="stop-color:#81c0ff;stop-opacity:1;"
         offset="0.60750002"
         id="stop205" />
      <stop
         style="stop-color:#93c9ff;stop-opacity:1;"
         offset="0.83499998"
         id="stop206" />
      <stop
         style="stop-color:#99ccff;stop-opacity:1;"
         offset="1.00000000"
         id="stop207" />
    </linearGradient>
    <linearGradient
       x1="61.1650009"
       y1="85.0537033"
       x2="144.305801"
       y2="193.433502"
       id="linearGradient717"
       gradientUnits="userSpaceOnUse"
       gradientTransform="matrix(0.990700,-0.136400,0.136400,0.990700,-17.83130,20.72000)"
       spreadMethod="pad">
      <stop
         style="stop-color:#ffffff;stop-opacity:1;"
         offset="0.00000000"
         id="stop213" />
      <stop
         style="stop-color:#99ccff;stop-opacity:1;"
         offset="1.00000000"
         id="stop214" />
    </linearGradient>
    <linearGradient
       x1="129.862305"
       y1="110.344704"
       x2="260.677887"
       y2="241.160294"
       id="linearGradient725"
       gradientUnits="userSpaceOnUse"
       spreadMethod="pad">
      <stop
         style="stop-color:#ffffff;stop-opacity:1;"
         offset="0.00000000"
         id="stop224" />
      <stop
         style="stop-color:#99ccff;stop-opacity:1;"
         offset="1.00000000"
         id="stop225" />
    </linearGradient>
    <linearGradient
       x1="85.1933975"
       y1="83.5146027"
       x2="229.909302"
       y2="183.702805"
       id="XMLID_10_"
       gradientUnits="userSpaceOnUse"
       spreadMethod="pad">
      <stop
         style="stop-color:#3399ff;stop-opacity:1;"
         offset="0.00000000"
         id="stop231" />
      <stop
         style="stop-color:#0066cc;stop-opacity:1;"
         offset="1.00000000"
         id="stop232" />
    </linearGradient>
    <linearGradient
       x1="64.0839996"
       y1="146.573196"
       x2="213.945297"
       y2="146.573196"
       id="XMLID_12_"
       gradientUnits="userSpaceOnUse"
       spreadMethod="pad">
      <stop
         style="stop-color:#a7abac;stop-opacity:1;"
         offset="0.00000000"
         id="stop239" />
      <stop
         style="stop-color:#85898a;stop-opacity:1;"
         offset="1.00000000"
         id="stop240" />
    </linearGradient>
    <linearGradient
       x1="199.271500"
       y1="120.073196"
       x2="212.510696"
       y2="120.073196"
       id="XMLID_13_"
       gradientUnits="userSpaceOnUse"
       spreadMethod="pad">
      <stop
         style="stop-color:#a7abac;stop-opacity:1;"
         offset="0.00000000"
         id="stop246" />
      <stop
         style="stop-color:#85898a;stop-opacity:1;"
         offset="1.00000000"
         id="stop247" />
    </linearGradient>
    <linearGradient
       x1="211.907196"
       y1="148.397507"
       x2="121.907097"
       y2="167.063400"
       id="linearGradient805"
       xlink:href="#linearGradient701"
       gradientUnits="userSpaceOnUse"
       spreadMethod="pad" />
    <linearGradient
       x1="212.483398"
       y1="151.181595"
       x2="122.482803"
       y2="169.847702"
       id="linearGradient809"
       xlink:href="#linearGradient810"
       gradientUnits="userSpaceOnUse"
       spreadMethod="pad" />
    <linearGradient
       x1="64.0839996"
       y1="146.573196"
       x2="213.945297"
       y2="146.573196"
       id="linearGradient813"
       xlink:href="#linearGradient802"
       gradientUnits="userSpaceOnUse"
       spreadMethod="pad" />
    <linearGradient
       x1="-96.0702972"
       y1="76.7929993"
       x2="-10.7304077"
       y2="76.7929993"
       id="linearGradient817"
       xlink:href="#linearGradient802"
       gradientUnits="userSpaceOnUse"
       gradientTransform="scale(-1.000000,1.000000)"
       spreadMethod="pad" />
    <linearGradient
       x1="110.234901"
       y1="208.652298"
       x2="223.234894"
       y2="37.6524010"
       id="linearGradient824"
       xlink:href="#linearGradient825"
       gradientUnits="userSpaceOnUse"
       spreadMethod="pad" />
  </defs>
  <g
     style="font-size:12;stroke:#000000;"
     id="Layer_2">
    <path
       d="M 256 256 L 0 256 L 0 0 L 256 0 L 256 256 z "
       style="fill:none;stroke:none;"
       id="path155" />
  </g>
  <g
     transform="matrix(1.022014,0.000000,0.000000,1.022014,0.774876,-43.71137)"
     style="font-size:12;"
     id="g834">
    <path
       d="M 248.491 138.233 L 210.978 143.235 L 202.271 79.991 L 197.318 80.673 C 197.318 80.673 77.572 97.16 68.385 98.424 C 68.338 98.083 68.23 97.296 68.23 97.296 C 66.885 87.522 58.235 80.61 48.949 81.889 L 19.176 85.988 C 14.838 86.585 10.956 88.883 8.247 92.456 C 5.877 95.582 4.601 99.498 4.601 103.489 C 4.601 104.336 4.659 105.186 4.775 106.032 C 4.775 106.032 6.506 118.603 6.506 118.603 C 6.506 118.603 6.55 118.86 6.572 118.984 C 6.595 119.152 21.734 229.108 21.734 229.108 L 22.331 230.037 C 28.224 239.199 35.255 247.422 43.228 254.476 L 44.948 255.997 L 223.126 231.466 L 248.491 138.233 z "
       style="opacity:0.2;"
       id="path156" />
    <path
       d="M 218.491 220.233 L 115.991 226.233 L 110.491 148.233 L 245.491 130.233 L 218.491 220.233 z "
       style="fill:url(#XMLID_1_);stroke:#003399;stroke-width:5;stroke-linejoin:round;"
       id="path163" />
    <path
       d="M 110.491 153.247 C 110.845 158.267 115.213 220.208 115.584 225.477 C 121.048 225.157 209.127 220.001 213.03 219.773 C 214.124 216.125 235.735 144.085 238.093 136.233 C 229.685 137.354 115.664 152.557 110.491 153.247 z "
       style="opacity:0.5;fill:url(#linearGradient824);"
       id="path170" />
    <path
       d="M 194.318 72.674 C 194.318 72.674 74.572 89.161 65.385 90.425 C 65.338 90.084 65.23 89.297 65.23 89.297 C 63.885 79.523 55.235 72.611 45.949 73.89 L 16.176 77.989 C 11.838 78.586 7.956 80.884 5.247 84.457 C 2.877 87.583 1.601 91.499 1.601 95.49 C 1.601 96.337 1.659 97.187 1.775 98.033 C 1.775 98.033 3.506 110.604 3.506 110.604 C 3.506 110.604 3.55 110.861 3.572 110.985 C 3.595 111.153 18.734 221.109 18.734 221.109 L 19.331 222.038 C 25.224 231.2 32.255 239.423 40.228 246.477 L 41.948 247.998 L 220.126 223.467 L 199.271 71.992 L 194.318 72.674 z "
       transform="translate(0.000000,-7.629395e-6)"
       style="fill:url(#linearGradient805);"
       id="path193" />
    <path
       d="M 195 77.627 L 61.114 96.061 L 60.277 89.979 C 59.306 82.924 53.196 77.939 46.631 78.843 L 16.858 82.942 C 10.293 83.846 5.757 90.297 6.729 97.352 L 8.46 109.923 C 8.474 110.024 8.499 110.12 8.515 110.22 L 23.538 219.334 C 29.115 228.006 35.866 235.941 43.542 242.733 L 214.492 219.197 L 195 77.627 z "
       style="fill:url(#linearGradient809);"
       id="path708" />
    <path
       d="M 17.267 85.914 C 12.351 86.591 8.956 91.539 9.701 96.942 L 11.431 109.513 C 12.175 114.918 16.781 118.763 21.697 118.087 L 51.47 113.988 C 56.386 113.311 59.781 108.364 59.037 102.959 L 57.306 90.388 C 56.562 84.984 51.956 81.138 47.04 81.814 L 17.267 85.914 z "
       style="fill:url(#XMLID_7_);"
       id="path211" />
    <path
       d="M 10.96 105.994 C 11.546 110.25 22.03 186.402 26.733 220.557 C 27.755 221.914 28.81 223.252 29.896 224.564 C 30.183 203.701 38.739 182.208 55.919 170.384 C 82.544 151.152 115.166 153.47 146.21 144.331 C 171.689 136.3 189.6 112.963 193.385 87.889 C 192.865 84.118 192.53 81.676 192.438 81.008 C 186.773 81.788 16.625 105.214 10.96 105.994 z "
       transform="translate(0.000000,-7.629395e-6)"
       style="opacity:0.8;fill:url(#XMLID_8_);"
       id="path218" />
    <path
       d="M 46.903 80.824 L 17.13 84.923 C 12.214 85.6 8.819 90.548 9.564 95.951 L 10.11 99.914 C 9.366 94.51 12.76 89.562 17.676 88.885 L 47.449 84.786 C 52.365 84.109 56.97 87.955 57.715 93.36 L 57.169 89.397 C 56.425 83.994 51.819 80.147 46.903 80.824 z "
       style="fill:#ffffff;"
       id="path219" />
    <path
       d="M 10.198 105.116 L 25.88 219.019 C 27.046 220.603 28.256 222.151 29.507 223.67 L 15.067 118.783 C 14.21 112.556 18.712 106.793 25.124 105.91 L 191.145 83.053 C 191.772 82.967 192.392 82.945 193.004 82.954 L 192.598 80.003 L 10.198 105.116 z "
       style="fill:#ffffff;"
       id="path220" />
    <path
       d="M 175.149 223.25 L 213.301 217.997 L 207.68 177.166 L 175.149 223.25 z "
       style="fill:#3399ff;stroke:#0066cc;stroke-width:5;stroke-linejoin:round;"
       id="path221" />
    <path
       d="M 206.538 188.386 C 206.323 186.827 206.122 185.364 205.942 184.058 C 200.046 192.477 186.104 212.388 180.672 220.144 C 181.875 219.978 183.235 219.791 184.685 219.591 C 190.286 211.592 200.623 196.832 206.538 188.386 z "
       style="fill:#ffffff;"
       id="path724" />
    <path
       d="M 212.511 168.155 L 199.272 71.991 L 212.511 168.155 z "
       style="fill:url(#XMLID_13_);"
       id="path251" />
  </g>
  <g
     transform="matrix(0.732027,0.000000,0.000000,0.732027,69.43209,87.89674)"
     style="font-size:12;stroke:#000000;"
     id="Layer_1">
    <path
       d="M 61.292 46.801 L 8.132 122.286 C 8.132 122.286 32.007 123.737 38.379 124.123 C 38.379 130.648 38.379 197.239 38.379 197.239 L 113.708 228.242 L 226.252 198.123 C 226.252 198.123 226.906 131.984 226.938 128.706 C 232.671 128.144 253.055 126.146 253.055 126.146 L 194.73 45.56 L 62.777 44.691 L 61.292 46.801 z "
       style="opacity:0.2;stroke:none;"
       id="path157" />
    <path
       d="M 55.292 38.801 L 2.132 114.286 C 2.132 114.286 26.007 115.737 32.379 116.123 C 32.379 122.649 32.379 189.239 32.379 189.239 L 107.708 220.242 L 220.252 190.123 C 220.252 190.123 220.906 123.984 220.938 120.706 C 226.671 120.144 247.055 118.146 247.055 118.146 L 188.73 37.56 L 56.777 36.691 L 55.292 38.801 z "
       style="fill:#0066cc;stroke:none;"
       id="path158" />
    <linearGradient
       x1="45.5264015"
       y1="145.151398"
       x2="153.419907"
       y2="145.151398"
       id="XMLID_1_"
       gradientUnits="userSpaceOnUse"
       gradientTransform="matrix(-1.000000,0.000000,0.000000,1.000000,261.5195,0.000000)"
       spreadMethod="pad">
      <stop
         style="stop-color:#99ccff;stop-opacity:1;"
         offset="0.00000000"
         id="stop160" />
      <stop
         style="stop-color:#99ccff;stop-opacity:1;"
         offset="1.00000000"
         id="stop161" />
    </linearGradient>
    <path
       d="M 215.993 110.868 L 215.242 186.913 L 108.1 215.588 L 108.1 74.715 L 215.993 110.868 z "
       style="fill:url(#XMLID_1_);stroke:none;"
       id="path165" />
    <linearGradient
       x1="110.234901"
       y1="208.652298"
       x2="223.234894"
       y2="37.6524010"
       id="XMLID_2_"
       xlink:href="#linearGradient818"
       gradientUnits="userSpaceOnUse"
       spreadMethod="pad" />
    <path
       d="M 215.993 110.868 L 215.242 186.913 L 108.1 215.588 L 108.1 74.715 L 215.993 110.868 z "
       style="fill:url(#XMLID_2_);stroke:none;"
       id="path177" />
    <path
       d="M 152.688 183.049 L 152.542 157.832 L 152.543 157.831 L 152.507 151.709 L 152.461 143.818 L 152.46 143.819 L 152.433 139.202 L 146.709 140.079 L 128.019 142.944 L 128.194 173.209 L 128.196 173.638 L 128.282 188.459 L 128.283 188.458 L 128.284 188.593 L 152.688 183.049 z "
       style="fill:#3399ff;stroke:none;"
       id="path178" />
    <path
       d="M 133.248 182.338 L 147.665 179.063 L 147.53 155.763 C 142.057 161.199 138.525 168.85 133.205 175.048 L 133.248 182.338 z "
       style="fill:#99ccff;stroke:none;"
       id="path179" />
    <path
       d="M 133.044 147.232 L 133.205 175.047 C 138.525 168.849 142.058 161.197 147.53 155.762 L 147.467 145.021 L 133.044 147.232 z "
       style="opacity:0.91;fill:#ffffff;stroke:none;"
       id="path180" />
    <linearGradient
       x1="165.449203"
       y1="76.7929993"
       x2="250.789093"
       y2="76.7929993"
       id="XMLID_3_"
       xlink:href="#linearGradient814"
       gradientUnits="userSpaceOnUse"
       gradientTransform="matrix(-1.000000,0.000000,0.000000,1.000000,261.5195,0.000000)"
       spreadMethod="pad" />
    <path
       d="M 59.604 41.055 L 10.731 110.452 L 44.942 112.531 L 96.07 48.536 L 59.604 41.055 z "
       style="fill:url(#XMLID_3_);stroke:none;"
       id="path187" />
    <path
       d="M 21.333 108 L 40 108 L 76.667 55.333 L 64 47.333 L 21.333 108 z "
       style="opacity:0.8;fill:#0066cc;stroke:none;"
       id="path188" />
    <linearGradient
       x1="72.7612000"
       y1="187.721695"
       x2="72.7612000"
       y2="17.1329002"
       id="XMLID_4_"
       xlink:href="#linearGradient831"
       gradientUnits="userSpaceOnUse"
       spreadMethod="pad" />
    <path
       d="M 108.1 215.588 L 37.423 186.499 L 37.423 97.57 L 70.506 51.859 L 108.1 104.22 L 108.1 215.588 z "
       style="fill:url(#XMLID_4_);stroke:none;"
       id="path195" />
    <path
       d="M 99.453 205.2 C 105.488 178.238 104.795 128.222 103.675 98.056 L 107.755 103.738 C 107.869 104.402 107.983 105.066 108.1 105.744 L 108.1 215.588 L 97.928 211.401 C 98.429 209.558 98.937 207.505 99.453 205.2 z "
       style="opacity:0.6;fill:#f2f2f8;stroke:none;"
       id="path196" />
    <path
       d="M 37.423 186.499 L 108.1 215.588 L 108.1 209.071 L 37.423 181.14 L 37.423 186.499 z "
       style="opacity:0.7;fill:#99ccff;stroke:none;"
       id="path197" />
    <path
       d="M 203.501 173.973 L 203.063 140.564 L 202.975 133.791 L 197.365 134.566 L 180.372 136.915 L 179.997 166.256 L 179.998 166.255 L 179.841 178.594 L 203.501 173.973 z "
       style="fill:#3399ff;stroke:none;"
       id="path198" />
    <path
       d="M 198.133 145.955 L 198.049 139.518 L 185.316 141.278 L 185.155 153.898 C 188.82 150.179 193.26 147.688 198.133 145.955 z "
       style="opacity:0.91;fill:#ffffff;stroke:none;"
       id="path199" />
    <path
       d="M 185.154 153.898 L 184.918 172.506 L 198.446 169.864 L 198.133 145.954 C 193.26 147.688 188.82 150.179 185.154 153.898 z "
       style="fill:#99ccff;stroke:none;"
       id="path200" />
    <g
       id="g201">
      <linearGradient
         x1="211.907196"
         y1="148.397507"
         x2="121.907097"
         y2="167.063400"
         id="XMLID_5_"
         xlink:href="#linearGradient802"
         gradientUnits="userSpaceOnUse"
         spreadMethod="pad" />
      <path
         d="M 152.688 183.049 L 152.542 157.832 L 152.543 157.831 L 152.507 151.709 L 152.461 143.818 L 152.46 143.819 L 152.433 139.202 L 146.709 140.079 L 128.019 142.944 L 128.194 173.209 L 128.196 173.638 L 128.282 188.459 L 128.283 188.458 L 128.284 188.593 L 152.688 183.049 z "
         style="opacity:0.2;fill:url(#XMLID_5_);stroke:none;"
         id="path208" />
      <linearGradient
         x1="212.483398"
         y1="151.181595"
         x2="122.482803"
         y2="169.847702"
         id="XMLID_6_"
         xlink:href="#linearGradient806"
         gradientUnits="userSpaceOnUse"
         spreadMethod="pad" />
      <path
         d="M 203.501 173.973 L 203.063 140.564 L 202.975 133.791 L 197.365 134.566 L 180.372 136.915 L 179.997 166.256 L 179.998 166.255 L 179.841 178.594 L 203.501 173.973 z "
         style="opacity:0.2;fill:url(#XMLID_6_);stroke:none;"
         id="path215" />
    </g>
    <linearGradient
       x1="108.099602"
       y1="163.224594"
       x2="215.993195"
       y2="163.224594"
       id="XMLID_7_"
       xlink:href="#linearGradient810"
       gradientUnits="userSpaceOnUse"
       spreadMethod="pad" />
    <path
       d="M 215.242 181.724 L 108.1 209.071 L 108.1 215.588 L 215.243 186.913 L 215.994 110.868 L 215.976 110.862 L 215.242 181.724 z "
       style="opacity:0.7;fill:url(#XMLID_7_);stroke:none;"
       id="path222" />
    <path
       d="M 108.852 110.868 C 108.852 110.868 107.914 188.269 114.394 213.902 L 108.1 215.588 L 108.1 113.326 C 108.582 111.747 108.852 110.868 108.852 110.868 z "
       style="opacity:0.6;fill:#f2f2f8;stroke:none;"
       id="path223" />
    <path
       d="M 236.333 116 L 238.551 114.607 L 183.39 41.911 L 59.911 41.09 C 58.828 42.173 57.751 43.264 56.867 44.546 L 111.715 129.159 L 236.333 116 z "
       style="fill:#0066cc;stroke:none;"
       id="path224" />
    <linearGradient
       x1="60.9658012"
       y1="94.5087967"
       x2="215.993195"
       y2="94.5087967"
       id="XMLID_8_"
       xlink:href="#linearGradient828"
       gradientUnits="userSpaceOnUse"
       spreadMethod="pad" />
    <path
       d="M 108.1 104.22 L 70.505 51.859 L 60.965 65.04 L 107.714 137.159 L 215.846 125.741 L 215.992 110.868 L 108.1 74.715 L 108.1 104.22 z "
       style="opacity:0.5;fill:url(#XMLID_8_);stroke:none;"
       id="path231" />
    <linearGradient
       x1="22.9687996"
       y1="83.8569031"
       x2="201.916000"
       y2="83.8569031"
       id="XMLID_9_"
       xlink:href="#linearGradient825"
       gradientUnits="userSpaceOnUse"
       gradientTransform="matrix(-1.000000,0.000000,0.000000,1.000000,261.5195,0.000000)"
       spreadMethod="pad" />
    <path
       d="M 185.919 41.886 L 59.604 41.055 L 115.62 126.659 L 238.552 114.607 L 185.919 41.886 z "
       style="fill:url(#XMLID_9_);stroke:none;"
       id="path238" />
    <path
       d="M 85.568 192.475 L 86.253 147.587 L 55.811 141.187 L 55.745 145.518 L 55.635 152.669 L 55.634 152.668 L 55.513 160.618 L 55.47 163.472 L 55.47 163.473 L 55.013 193.531 L 85.346 207.055 L 85.568 192.475 z "
       style="fill:#999999;stroke:none;"
       id="path239" />
    <path
       d="M 59.104 162.651 L 59.689 195.688 L 79.685 203.825 L 82.311 204.479 L 82.111 193.155 C 73.603 183.321 67.824 171.303 59.104 162.651 z "
       style="fill:#cccccc;stroke:none;"
       id="path240" />
    <path
       d="M 81.48 149.978 L 82.072 193.201 C 73.603 183.334 67.871 171.292 59.186 162.606 L 58.959 145.919 L 81.48 149.978 z "
       style="fill:#ffffff;stroke:none;"
       id="path241" />
    <path
       d="M 37.423 186.499 L 37.423 151.647 C 38.623 164.206 40.242 176.782 42.419 188.554 L 37.423 186.499 z "
       style="opacity:0.6;fill:#ffffff;stroke:none;"
       id="path242" />
    <path
       d="M 215.825 127.898 L 215.242 186.913 L 212.544 187.636 C 213.24 172.873 214.678 147.587 215.825 127.898 z "
       style="opacity:0.5;fill:#d9e5f0;stroke:none;"
       id="path243" />
    <path
       d="M 121.394 123.4 L 183.36 117.484 C 174.991 116.103 165.049 114.548 153.265 112.821 C 111.47 106.698 90.024 64.174 82.115 44.041 L 68.009 43.951 L 121.394 123.4 z "
       style="fill:#99ccff;stroke:none;"
       id="path244" />
    <path
       style="opacity:0.8;fill:#ffffff;stroke:none;"
       id="path245" />
  </g>
</svg>
