<?xml version="1.0" encoding="UTF-8" standalone="no"?>
<!DOCTYPE svg PUBLIC "-//W3C//DTD SVG 20010904//EN"
"http://www.w3.org/TR/2001/REC-SVG-20010904/DTD/svg10.dtd">
<!-- Created with Sodipodi ("http://www.sodipodi.com/") -->
<svg
   width="48pt"
   height="48pt"
   viewBox="0 0 256 256"
   overflow="visible"
   enable-background="new 0 0 256 256"
   xml:space="preserve"
   xmlns="http://www.w3.org/2000/svg"
   xmlns:xml="http://www.w3.org/XML/1998/namespace"
   xmlns:sodipodi="http://sodipodi.sourceforge.net/DTD/sodipodi-0.dtd"
   xmlns:xlink="http://www.w3.org/1999/xlink"
   id="svg153"
   sodipodi:version="0.32pre"
   sodipodi:docname="/home/cschalle/gnome-themes-extras/Nuvola/icons/scalable/apps/gnome-logo.svg"
   sodipodi:docbase="/home/cschalle/gnome-themes-extras/Nuvola/icons/scalable/apps">
  <defs
     id="defs263">
    <linearGradient
       id="XMLID_5_"
       gradientUnits="userSpaceOnUse"
       x1="126.6685"
       y1="13.9976"
       x2="126.6684"
       y2="102.9979">
      <stop
         offset="0.0056"
         style="stop-color:#FFFFFF"
         id="stop197" />
      <stop
         offset="0.7303"
         style="stop-color:#99CCFF"
         id="stop198" />
      <stop
         offset="1"
         style="stop-color:#3399FF"
         id="stop199" />
    </linearGradient>
  </defs>
  <sodipodi:namedview
     id="base" />
  <g
     id="Layer_1"
     stroke="#000000">
    <path
       fill="none"
       stroke="none"
       d="M256,256H0V0h256V256z"
       id="path155" />
  </g>
  <g
     id="g157"
     style="font-size:12;stroke:#000000;">
    <path
       opacity="0.2"
       stroke="none"
       d="M8.285,130.645C8.285,198.111,63.174,253,130.643,253C198.11,253,253,198.111,253,130.645     c0-67.47-54.89-122.359-122.357-122.359C63.174,8.285,8.285,63.175,8.285,130.645z"
       id="path158" />
    <path
       fill="#003366"
       stroke="none"
       d="M5.602,125.798c0,67.468,54.889,122.356,122.358,122.356     c67.468,0,122.357-54.889,122.357-122.356c0-67.469-54.89-122.358-122.357-122.358C60.491,3.439,5.602,58.329,5.602,125.798z"
       id="path159" />
    <path
       fill="#003366"
       stroke="none"
       d="M127.96,5.439C61.594,5.439,7.602,59.432,7.602,125.798     c0,66.364,53.992,120.356,120.358,120.356c66.365,0,120.357-53.992,120.357-120.356C248.317,59.432,194.325,5.439,127.96,5.439z"
       id="path160" />
    <radialGradient
       id="XMLID_2_"
       cx="49.7393"
       cy="55.0098"
       r="259.5079"
       fx="49.7393"
       fy="55.0098"
       gradientUnits="userSpaceOnUse">
      <stop
         offset="0.0056"
         style="stop-color:#99CCFF"
         id="stop162" />
      <stop
         offset="0.5843"
         style="stop-color:#3399FF"
         id="stop163" />
      <stop
         offset="1"
         style="stop-color:#0066CC"
         id="stop164" />
    </radialGradient>
    <path
       fill="url(#XMLID_2_)"
       stroke="none"
       d="M13.602,125.798c0,63.157,51.199,114.356,114.358,114.356     c63.158,0,114.357-51.199,114.357-114.356c0-63.158-51.199-114.358-114.357-114.358C64.801,11.439,13.602,62.64,13.602,125.798z"
       id="path170" />
    <path
       opacity="0.5"
       fill="#FFFFFF"
       stroke="none"
       d="M16.602,129.813c0-63.158,51.199-114.358,114.358-114.358     c36.628,0,69.23,17.222,90.16,44.007c-20.735-29.068-54.733-48.022-93.16-48.022c-63.159,0-114.358,51.2-114.358,114.358     c0,26.53,9.037,50.946,24.196,70.349C24.454,177.439,16.602,154.543,16.602,129.813z"
       id="path171" />
  </g>
  <path
     stroke="none"
     d="M139.354,81.044l-0.067-0.177L139.354,81.044z"
     id="path194"
     style="font-size:12;" />
  <path
     stroke="none"
     d="M151.858,73.229l-0.071-0.176L151.858,73.229z"
     id="path195"
     style="font-size:12;" />
  <path
     opacity="0.6"
     fill="url(#XMLID_5_)"
     stroke="none"
     d="M34.825,72.752C56.837,82.767,87.755,89,122,89    c39.414,0,74.42-8.256,96.512-21.033c-18.02-31.361-51.86-52.527-90.552-52.527C87.332,15.439,52.056,38.779,34.825,72.752z"
     id="path205"
     style="font-size:12;opacity:0.6;fill:url(#XMLID_5_);" />
  <g
     id="g206"
     style="font-size:12;stroke:#000000;">
    <path
       opacity="0.2"
       stroke="none"
       d="M74.653,113.669c3.848-1.962,4.69-8.631,2.252-17.839c-1.133-4.284-3.864-7.672-7.488-9.292     c-2.884-1.292-5.92-1.262-8.554,0.082c-2.383,1.215-4.021,3.446-4.609,6.282c-0.841,4.033,0.474,8.647,3.515,12.345     C64.359,110.825,69.716,116.188,74.653,113.669z M124.679,88.473c5.375,0,10.088-7.164,12.618-19.165     c1.37-6.515,0.419-12.592-2.552-16.253c-1.92-2.363-4.567-3.612-7.666-3.612c-3.821,0-7.656,2.03-10.516,5.571     c-3.409,4.217-4.771,9.857-3.648,15.087C114.869,79.185,117.791,88.473,124.679,88.473z M95.464,98.737     c4.91-1.087,7.802-8.407,7.74-19.581c-0.027-5.188-2.125-9.823-5.753-12.721c-2.882-2.303-6.319-3.158-9.684-2.413     c-3.042,0.675-5.537,2.712-7.034,5.74c-2.133,4.323-1.996,9.944,0.371,15.032C84.675,92.476,89.172,100.134,95.464,98.737z      M146.879,176.377c-3.364,1.811-3.824,6.473-4.23,10.583c-0.271,2.731-0.525,5.311-1.536,6.613     c-2.582,3.32-9.31,4.708-14.831,1.396c-5.311-3.188-10.329-12.171-6.444-19.563c2.135-4.055,16.292-12.785,28.785-20.489     c10.151-6.263,19.739-12.176,23.246-15.683c8.283-8.282,2.832-23.571,0.955-28.074c-0.297-0.792-6.454-15.27-51.386-8.364     c-35.575,5.464-54.378,24.438-54.378,54.875c0,15.886,21.867,56.961,56.35,62.388c15.133,2.379,36.409-0.15,51.836-25.719     l0.669-1.085c2.506-3.757,6.255-13.598,1.067-18.354C171.894,170.238,152.169,173.531,146.879,176.377z M195.544,44.093     c-0.942-0.831-6.587-2.536-13.252-2.069c-6.121,0.426-15.011,2.793-22.585,11.627c-9.307,10.858-9.862,33.139-6.751,37.293     c3.903,5.195,8.711,4.618,16.168,3.047c6.14-1.292,26.347-19.22,30.371-34.506C201.181,53.067,199.855,47.887,195.544,44.093z      M176.338,109.889l-0.067-0.176c0.011,0.032,0.028,0.08,0.041,0.112C176.316,109.843,176.331,109.873,176.338,109.889z"
       id="path207" />
    <g
       id="g208">
      <path
         fill-rule="evenodd"
         clip-rule="evenodd"
         fill="#FFFFFF"
         stroke="none"
         d="M132.074,65.161      c-2.12,10.08-6.351,18.574-11.885,18.574c-5.941,0-8.911-7.902-11.033-17.782c-2.183-10.166,5.462-19.755,13.434-19.755      C130.562,46.197,134.217,54.992,132.074,65.161z"
         id="path209" />
      <path
         fill="#FFFFFF"
         stroke="none"
         d="M112.072,51.021c-3.407,4.216-4.771,9.857-3.646,15.087      c1.951,9.083,4.874,18.372,11.764,18.372c5.372,0,10.089-7.164,12.617-19.165c1.373-6.514,0.417-12.591-2.552-16.253      c-1.919-2.361-4.569-3.612-7.665-3.612C118.768,45.45,114.934,47.482,112.072,51.021z M109.885,65.795      c-1.03-4.794,0.223-9.965,3.349-13.834c2.575-3.188,5.986-5.017,9.356-5.017c2.631,0,4.878,1.059,6.503,3.062      c2.691,3.316,3.532,8.921,2.251,15.002c-2.336,11.09-6.61,17.98-11.154,17.98C115.617,82.987,112.439,77.686,109.885,65.795z"
         id="path210" />
      <path
         fill-rule="evenodd"
         clip-rule="evenodd"
         fill="#FFFFFF"
         stroke="none"
         d="M97.966,75.169      c0.053,9.354-2.121,17.732-7.154,18.844c-5.399,1.203-9.652-5.202-13.522-13.523c-3.981-8.565-1.096-18.123,6.148-19.73      C90.685,59.155,97.92,65.728,97.966,75.169z"
         id="path211" />
      <path
         fill="#FFFFFF"
         stroke="none"
         d="M83.276,60.032c-3.04,0.674-5.539,2.71-7.032,5.738      c-2.135,4.324-1.996,9.944,0.371,15.036c3.57,7.677,8.068,15.339,14.359,13.938c4.908-1.087,7.804-8.406,7.742-19.579      c-0.029-5.188-2.125-9.825-5.753-12.723C90.082,60.142,86.641,59.285,83.276,60.032z M77.967,80.173      c-2.144-4.612-2.292-9.878-0.385-13.742c1.291-2.613,3.429-4.367,6.019-4.942c2.914-0.646,5.904,0.105,8.428,2.121      c3.275,2.614,5.168,6.829,5.191,11.564c0.059,10.261-2.459,17.199-6.571,18.112C86.523,94.203,82.611,90.159,77.967,80.173z"
         id="path212" />
      <path
         fill-rule="evenodd"
         clip-rule="evenodd"
         fill="#FFFFFF"
         stroke="none"
         d="M71.69,92.03      c2.028,7.663,2.024,14.998-1.87,16.982c-4.172,2.129-9.021-2.224-13.963-8.23c-5.086-6.181-4.746-14.631,0.855-17.49      C62.314,80.437,69.646,84.292,71.69,92.03z"
         id="path213" />
      <path
         fill="#FFFFFF"
         stroke="none"
         d="M56.375,82.627c-2.384,1.215-4.024,3.448-4.614,6.282      c-0.839,4.033,0.476,8.65,3.52,12.347c4.591,5.578,9.946,10.94,14.881,8.422c3.85-1.964,4.691-8.633,2.253-17.839      c-1.134-4.286-3.864-7.672-7.487-9.294C62.045,81.257,59.005,81.286,56.375,82.627z M56.432,100.308      c-2.716-3.301-3.944-7.553-3.208-11.094c0.497-2.381,1.857-4.249,3.828-5.255c2.224-1.134,4.803-1.151,7.266-0.05      c3.209,1.437,5.635,4.464,6.652,8.314c2.21,8.351,1.64,14.528-1.488,16.123C66.348,109.946,62.323,107.465,56.432,100.308z"
         id="path214" />
      <path
         fill-rule="evenodd"
         clip-rule="evenodd"
         fill="#FFFFFF"
         stroke="none"
         d="M164.479,89.27      c-7.51,1.579-11.855,1.975-15.414-2.766c-2.864-3.821-2.558-25.536,6.719-36.359c14.229-16.594,33.517-10.593,34.774-9.483      C207.156,55.282,171.987,87.687,164.479,89.27z"
         id="path215" />
      <path
         fill="#FFFFFF"
         stroke="none"
         d="M177.803,38.031c-6.12,0.43-15.013,2.792-22.584,11.626      c-9.31,10.859-9.867,33.139-6.75,37.295c3.899,5.193,8.707,4.616,16.164,3.047c6.138-1.293,26.349-19.22,30.371-34.505      c1.689-6.419,0.358-11.6-3.949-15.393C190.113,39.27,184.468,37.564,177.803,38.031z M149.662,86.056      c-2.474-3.302-2.455-24.757,6.688-35.425c13.703-15.982,32.478-10.377,33.72-9.404c3.847,3.386,5.019,8.061,3.488,13.887      c-4.005,15.219-24.239,32.372-29.232,33.424C156.811,90.12,152.917,90.389,149.662,86.056z"
         id="path216" />
      <path
         fill-rule="evenodd"
         clip-rule="evenodd"
         fill="#FFFFFF"
         stroke="none"
         d="M167.641,107.444      c1.975,4.742,7.114,19.365-0.791,27.272c-7.905,7.9-48.21,28.844-52.163,36.352c-3.949,7.509,0.791,16.991,6.72,20.55      c5.926,3.556,13.04,1.975,15.806-1.578c2.764-3.562,0.394-14.229,5.531-16.995c5.138-2.768,24.503-5.927,29.243-1.582      c4.738,4.349,1.186,13.835-1.187,17.388c-2.369,3.558-16.598,32.01-51.766,26.479c-35.172-5.537-55.72-47.027-55.72-61.649      c0-14.619,3.807-46.466,53.746-54.138C162.181,92.609,167.641,107.444,167.641,107.444z"
         id="path217" />
      <path
         fill="#FFFFFF"
         stroke="none"
         d="M116.946,98.804c-35.575,5.464-54.38,24.44-54.38,54.876      c0,15.886,21.87,56.959,56.353,62.389c15.132,2.38,36.407-0.153,51.835-25.722l0.669-1.081      c2.505-3.759,6.255-13.595,1.069-18.353c-5.09-4.666-24.815-1.376-30.101,1.474c-3.365,1.813-3.828,6.469-4.232,10.582      c-0.271,2.729-0.526,5.311-1.538,6.61c-2.581,3.321-9.309,4.712-14.831,1.396c-5.311-3.185-10.331-12.167-6.441-19.56      c2.131-4.052,16.292-12.786,28.78-20.49c10.153-6.261,19.741-12.176,23.248-15.682c8.287-8.289,2.824-23.594,0.951-28.086      c0.008,0.011,0.01,0.021,0.011,0.03C168.111,106.558,162.148,91.859,116.946,98.804z M119.152,214.591      c-33.711-5.305-55.093-45.401-55.093-60.911c0-29.598,18.367-48.063,53.113-53.4c43.76-6.722,49.716,7.288,49.77,7.43      c0,0.005,0.007,0.018,0.011,0.023c1.778,4.277,7,18.823-0.631,26.454c-3.385,3.383-12.903,9.251-22.976,15.469      c-13.273,8.186-26.996,16.647-29.32,21.065c-3.969,7.543,0.42,17.589,6.993,21.535c6.284,3.772,13.75,2.135,16.781-1.761      c1.277-1.64,1.55-4.429,1.843-7.38c0.389-3.923,0.791-7.979,3.453-9.413c5.379-2.896,24.131-5.587,28.387-1.688      c4.179,3.834,1.158,12.73-1.305,16.423l-0.702,1.141C157.433,209.533,140.502,217.95,119.152,214.591z"
         id="path218" />
      <linearGradient
         id="XMLID_6_"
         gradientUnits="userSpaceOnUse"
         x1="55.4556"
         y1="37.605"
         x2="60.3706"
         y2="76.7061">
        <stop
           offset="0"
           style="stop-color:#99CCFF"
           id="stop220" />
        <stop
           offset="1"
           style="stop-color:#FFFFFF"
           id="stop221" />
      </linearGradient>
      <path
         opacity="0.7"
         fill="url(#XMLID_6_)"
         stroke="none"
         d="M70.47,94.158c-0.104-0.453-0.214-0.907-0.333-1.365      c-1.654-6.259-7.581-9.374-12.111-7.066c-3.265,1.665-4.306,5.682-3.097,9.668c2.006,1.374,4.416,2.178,7.011,2.178      C65.232,97.572,68.221,96.27,70.47,94.158z"
         id="path225" />
      <linearGradient
         id="XMLID_7_"
         gradientUnits="userSpaceOnUse"
         x1="81.832"
         y1="34.2891"
         x2="86.7471"
         y2="73.3901">
        <stop
           offset="0"
           style="stop-color:#99CCFF"
           id="stop227" />
        <stop
           offset="1"
           style="stop-color:#FFFFFF"
           id="stop228" />
      </linearGradient>
      <path
         opacity="0.7"
         fill="url(#XMLID_7_)"
         stroke="none"
         d="M95.988,76.602c0.011-0.46,0.014-0.925,0.011-1.394      c-0.04-7.69-5.933-13.043-11.833-11.737c-5.493,1.219-7.902,8.052-5.592,14.621c2.174,1.736,4.927,2.782,7.927,2.782      C90.278,80.874,93.659,79.218,95.988,76.602z"
         id="path232" />
      <linearGradient
         id="XMLID_8_"
         gradientUnits="userSpaceOnUse"
         x1="116.7539"
         y1="29.8994"
         x2="121.6689"
         y2="69.0005">
        <stop
           offset="0"
           style="stop-color:#99CCFF"
           id="stop234" />
        <stop
           offset="1"
           style="stop-color:#FFFFFF"
           id="stop235" />
      </linearGradient>
      <path
         opacity="0.7"
         fill="url(#XMLID_8_)"
         stroke="none"
         d="M122.305,48.902c-6.61,0-12.938,7.711-11.623,16.105      c2.753,2.059,6.129,3.288,9.791,3.288c3.757,0,7.212-1.294,10-3.452C132.176,56.264,129.049,48.902,122.305,48.902z"
         id="path239" />
      <linearGradient
         id="XMLID_9_"
         gradientUnits="userSpaceOnUse"
         x1="167.8916"
         y1="23.4712"
         x2="172.8066"
         y2="62.5723">
        <stop
           offset="0"
           style="stop-color:#99CCFF"
           id="stop241" />
        <stop
           offset="1"
           style="stop-color:#FFFFFF"
           id="stop242" />
      </linearGradient>
      <path
         opacity="0.7"
         fill="url(#XMLID_9_)"
         stroke="none"
         d="M190.588,60.142c2.824-6.408,3.096-12.674-1.946-17.117      c-1.136-0.998-18.513-6.405-31.328,8.543c-2.657,3.099-4.493,7.191-5.684,11.439c4.812,4.304,11.133,6.94,18.08,6.94      C178.095,69.948,185.587,66.132,190.588,60.142z"
         id="path246" />
      <path
         fill="#FFFFFF"
         stroke="none"
         d="M171.779,105.722c0.01,0.03,0.028,0.079,0.042,0.11c0.008,0.018,0.021,0.05,0.027,0.064      L171.779,105.722z"
         id="path247" />
      <linearGradient
         id="XMLID_10_"
         gradientUnits="userSpaceOnUse"
         x1="117.2129"
         y1="104.019"
         x2="117.2129"
         y2="158.8271">
        <stop
           offset="0"
           style="stop-color:#99CCFF"
           id="stop249" />
        <stop
           offset="1"
           style="stop-color:#FFFFFF"
           id="stop250" />
      </linearGradient>
      <path
         opacity="0.7"
         fill="url(#XMLID_10_)"
         stroke="none"
         d="M166.336,119.256c-0.652-4.548-2.249-8.686-2.822-10.057      c-0.183-0.335-6.615-11.244-45.773-5.227c-32.944,5.061-49.736,21.621-49.936,49.217c9.349,3.556,19.871,5.563,31.004,5.563      c11.978,0,23.251-2.316,33.116-6.399c2.893-1.821,6.042-3.77,9.46-5.879c3.696-2.279,7.433-4.586,10.809-6.738      c5.254-3.351,9.612-6.318,11.487-8.191c2.195-2.197,2.94-5.342,2.94-8.598C166.621,121.717,166.511,120.471,166.336,119.256z"
         id="path254" />
      <linearGradient
         id="XMLID_11_"
         gradientUnits="userSpaceOnUse"
         x1="156.3164"
         y1="174.3027"
         x2="156.3164"
         y2="188.3495">
        <stop
           offset="0"
           style="stop-color:#99CCFF"
           id="stop256" />
        <stop
           offset="1"
           style="stop-color:#FFFFFF"
           id="stop257" />
      </linearGradient>
      <path
         opacity="0.7"
         fill="url(#XMLID_11_)"
         stroke="none"
         d="M169.687,179.445c0.326-2.027,0.192-3.835-0.717-4.669      c-2.769-2.208-19.439-0.298-24.102,2.215c-0.914,0.49-1.314,4.545-1.507,6.493c-0.134,1.359-0.276,2.737-0.521,4.064      c2.185,0.499,4.52,0.782,6.961,0.782C158.792,188.331,166.484,184.653,169.687,179.445z"
         id="path261" />
    </g>
  </g>
</svg>
