<?xml version="1.0" encoding="UTF-8" standalone="no"?>
<!DOCTYPE svg PUBLIC "-//W3C//DTD SVG 20010904//EN"
"http://www.w3.org/TR/2001/REC-SVG-20010904/DTD/svg10.dtd">
<!-- Created with Sodipodi ("http://www.sodipodi.com/") -->
<svg
   width="48pt"
   height="48pt"
   viewBox="0 0 256 256"
   overflow="visible"
   enable-background="new 0 0 256 256"
   xml:space="preserve"
   xmlns="http://www.w3.org/2000/svg"
   xmlns:xml="http://www.w3.org/XML/1998/namespace"
   xmlns:a="http://ns.adobe.com/AdobeSVGViewerExtensions/3.0/"
   xmlns:sodipodi="http://sodipodi.sourceforge.net/DTD/sodipodi-0.dtd"
   xmlns:xlink="http://www.w3.org/1999/xlink"
   id="svg153"
   sodipodi:version="0.32pre"
   sodipodi:docname="/home/cschalle/gnome-themes-extras/Nuvola/icons/scalable/apps/mozilla-star.svg"
   sodipodi:docbase="/home/cschalle/gnome-themes-extras/Nuvola/icons/scalable/apps">
  <defs
     id="defs208" />
  <sodipodi:namedview
     id="base" />
  <g
     id="Layer_2"
     stroke="#000000">
    <path
       fill="none"
       stroke="none"
       d="M0,0h256v256H0V0z"
       id="path155" />
  </g>
  <g
     id="Layer_1"
     stroke="#000000">
    <path
       opacity="0.2"
       stroke="none"
       d="M254.82,124.527c-6.087-9.738-37.734-34.691-34.08-34.691c3.648,0,31.646,6.085,31.646,6.085    s-52.948-46.863-58.427-49.297c-5.477-2.436-26.172-11.563-26.172-11.563l-18.258-1.826l-32.865,9.737    c0,0-5.477-0.608-7.303-1.216c-1.825-0.608-21.91-0.608-21.91-0.608L73.455,55.752c0,0-1.217,10.348-1.217,12.782    c0,2.434-4.869,10.955-23.736,16.432c-18.867,5.478-39.56,18.867-39.56,18.867l-2.436,37.126l9.13,20.693    c0,0,12.172,0,13.998,0.607c1.825,0.608,15.215,12.173,15.215,12.173s4.26,0,12.78-1.218c8.521-1.216,20.084-6.695,20.084-6.695    s9.738,0,13.39,1.219c3.651,1.217,24.954,11.563,26.778,18.259c1.825,6.697,10.346,33.474,9.131,37.123    c-1.216,3.653-4.261,15.826-4.261,15.826s0.043-0.002,0.103-0.008l-1.391,6.002c2.426,0.346,4.873,0.625,7.329,0.872l-0.004,0.024    c0.986,0.099,1.979,0.178,2.971,0.26c0.209,0.018,0.414,0.043,0.623,0.06c0-0.002-0.001-0.004-0.001-0.005    c1.814,0.144,3.635,0.266,5.464,0.354c-0.002,0-0.003,0.001-0.004,0.001c0.385,0.019,0.771,0.026,1.156,0.042    c1.048,0.045,2.095,0.09,3.147,0.115c1.44,0.036,2.887,0.055,4.336,0.055c1.038,0,2.069-0.021,3.103-0.038l0.01-0.014    c26.81-0.466,52.155-6.917,74.756-18.094l0.004,0.003c0.175-0.087,0.345-0.182,0.52-0.27c1.645-0.82,3.274-1.664,4.889-2.534    c0.445-0.239,0.886-0.486,1.328-0.729c0.801-0.439,1.608-0.867,2.401-1.319l-0.022-0.029c4.676-2.666,9.234-5.514,13.631-8.584    c-4.654-2.328-8.711-4.159-8.711-4.159s14.604,3.043,9.739-1.829c-4.87-4.864-24.345-12.778-24.345-12.778l12.779-0.609    l-23.127-15.824c0,0,8.521,0,4.869-1.217c-2.032-0.677-5.384-5.124-7.957-8.937c10.073,2.058,17.496,20.404,14.043,8.328    c-3.65-12.782-15.826-16.433-6.692-15.216c9.124,1.217,16.43,13.388,16.43,7.304c0-6.086-27.389-26.168-15.823-23.736    c11.563,2.435,26.779,20.692,24.343,11.563c-2.433-9.129-23.732-29.214-18.864-29.823c4.869-0.607,27.389,14.608,24.952,10.958    c-1.691-2.537-15.124-17.698-23.173-26.722C244.104,118.023,260.659,133.864,254.82,124.527z M184.266,58.521l-10.547-7.878    C177.397,52.985,180.985,55.713,184.266,58.521z"
       id="path157" />
    <linearGradient
       id="XMLID_1_"
       gradientUnits="userSpaceOnUse"
       x1="3.9443"
       y1="133.4834"
       x2="226.9844"
       y2="133.4834">
      <stop
         offset="0"
         style="stop-color:#FF6666"
         id="stop159" />
      <stop
         offset="1"
         style="stop-color:#FF0000"
         id="stop160" />
      <a:midPointStop
         offset="0"
         style="stop-color:#FF6666"
         id="midPointStop161" />
      <a:midPointStop
         offset="0.5"
         style="stop-color:#FF6666"
         id="midPointStop162" />
      <a:midPointStop
         offset="1"
         style="stop-color:#FF0000"
         id="midPointStop163" />
    </linearGradient>
    <path
       fill="url(#XMLID_1_)"
       stroke="none"
       d="M139.975,237.719c31.654,0,61.35-8.364,87.01-22.995l-24.023-30.888    c0,0-3.648-12.781-3.648-14.607c0-1.824-6.092-20.083-6.092-20.083l15.219-18.868l-7.307-50.515V66.981l-50.514-37.733    l-36.516,7.303L84.891,32.9L72.717,46.897l-1.826,15.825l-8.52,8.519L9.422,93.761l-5.478,29.213l3.043,10.956l3.652,13.997    l22.518,4.869l12.78,6.087l32.257-8.521l31.04,9.13l15.822,49.3l-3.042,16.43l2.104,0.584l-1.838,11.031    C128.102,237.418,134.004,237.719,139.975,237.719z"
       id="path164" />
    <path
       fill="#333333"
       stroke="none"
       d="M131.336,237.507c2.863,0.138,5.742,0.212,8.639,0.212c1.039,0,2.07-0.021,3.104-0.038    l4.613-6.482C147.691,231.198,137.775,235.604,131.336,237.507z M231.883,201.951c0,0,14.604,3.043,9.738-1.829    c-4.869-4.864-24.344-12.778-24.344-12.778l12.779-0.609L206.93,170.91c0,0,8.521,0,4.869-1.217    c-2.033-0.677-5.385-5.124-7.957-8.937c10.072,2.058,17.496,20.404,14.043,8.328c-3.65-12.782-15.826-16.433-6.693-15.216    c9.125,1.217,16.43,13.388,16.43,7.304c0-6.086-27.389-26.168-15.822-23.736c11.563,2.435,26.779,20.692,24.342,11.563    c-2.432-9.129-23.732-29.214-18.863-29.823c4.869-0.607,27.389,14.608,24.951,10.958c-1.691-2.537-15.123-17.698-23.172-26.722    c18.541,5.61,35.096,21.451,29.258,12.114c-6.088-9.738-37.734-34.691-34.08-34.691c3.648,0,31.646,6.085,31.646,6.085    s-52.949-46.863-58.428-49.297c-5.477-2.436-26.172-11.563-26.172-11.563l-18.258-1.826l-32.865,9.737    c0,0-5.477-0.608-7.303-1.216c-1.825-0.608-21.91-0.608-21.91-0.608L66.948,46.752c0,0-1.217,10.348-1.217,12.782    c0,2.434-4.869,10.955-23.736,16.432c-18.867,5.478-39.56,18.867-39.56,18.867L0,131.959l9.13,20.693c0,0,12.172,0,13.998,0.607    c1.825,0.608,15.215,12.173,15.215,12.173s4.26,0,12.78-1.218c8.521-1.216,20.084-6.695,20.084-6.695s9.738,0,13.39,1.219    c3.651,1.217,24.954,11.563,26.778,18.259c1.825,6.697,10.346,33.474,9.131,37.123c-1.216,3.653-4.261,15.826-4.261,15.826    s0.043-0.002,0.103-0.008l-1.391,6.002c3.606,0.514,7.246,0.925,10.919,1.216c-0.531-2.151,0.522-6.836,1.777-11.165    c1.224-0.901,2.338-1.995,3.2-3.352c3.209-5.038,10.559-19.4,13.732-24.886c-3.73,3.154-13.125,7.24-13.125,7.24l-1.824-5.479    c0,0,6.549-11.016,10.486-16.805c-5.15,4.25-15.357,10.251-15.357,7.064c0-4.261-6.694-17.648-6.694-17.648l14.606,6.087    l-4.259-9.129c0,0-10.955-8.521-9.129-9.129c1.826-0.61,6.085-2.437,9.129-3.652c3.042-1.217,17.041-34.691,10.957-23.126    c-6.086,11.563-31.04,18.256-31.04,18.256l-34.692-7.302l-17.042,9.737c0,0-7.303,1.826-14.606,0    c-7.304-1.827-4.868-4.26-4.868-4.26l3.649-4.26c0,0,7.304-0.609,13.39-2.438c6.087-1.824,24.345-10.345,28.606-12.169    c4.259-1.83,11.563-6.696,11.563-6.696l-1.217,4.261l-4.26,7.304c0,0,3.042-1.827,8.519-2.435    c5.478-0.61,15.215-12.173,16.433-16.435c1.218-4.26-1.218-18.257-1.218-18.257l-2.435-1.827l-1.215,9.738l-4.261,5.478    c0,0-6.695-6.695-3.043-14c3.651-7.304,12.172-16.432,10.346-16.432S95.554,88.747,88.25,97.268    c-7.304,8.52-40.778,27.995-47.473,29.822c-6.695,1.828-29.213,3.654-29.213,3.654l-3.652-9.739l4.26-9.129l3.653,1.216    c0,0-3.045,7.913,0,7.913c3.043,0,5.476-13.389,5.476-13.389s-6.086-7.913-6.086-10.348c0-2.435,47.472-20.693,47.472-20.693    l15.216-10.954L70.599,79.01c0,0,12.782-1.826,15.825-1.826c3.042,0,10.345-7.304,10.345-7.304s4.261-3.652,1.827-7.302    c-2.435-3.651-11.564-4.87-11.564-4.87s3.042-3.043,5.478-3.043c2.436,0,9.738,2.435,13.39,5.477    c3.652,3.043-6.694,17.042-1.217,15.215c5.479-1.826,3.653-12.172,7.303-12.172c3.65,0,16.434-4.869,16.434-4.869    s-8.52,1.218-13.39-2.434c-4.87-3.651-25.561-10.955-25.561-10.955l-12.781,4.26c0,0,6.694-6.087,7.911-9.129    c1.216-3.043,40.168,7.912,40.168,7.912l-4.259-6.086c0,0,12.171-10.955,32.255-6.695c20.088,4.26,46.258,34.691,39.561,32.867    c-6.695-1.825-16.432-8.521-6.086,6.086c10.348,14.607,3.041,40.168,6.695,31.647c3.652-8.521,5.479-12.172,5.479-12.172    l3.969,6.177c0.146,7.475,0.289,15.542,0.289,18.776c0,6.696-8.52,18.26-11.563,21.911c-3.045,3.651-5.479,6.693-4.869,9.129    c0.609,2.433,4.869,10.955,4.869,10.955s0.014,0,1.521,0l-0.305,9.129l-14.607-0.608l24.953,17.649l-21.301-4.87l27.389,17.042    l-12.172,1.216l18.258,10.958l-11.564-1.216l14.57,9.712c7.938-3.927,15.537-8.433,22.746-13.466    C235.939,203.782,231.883,201.951,231.883,201.951z"
       id="path165" />
    <linearGradient
       id="XMLID_2_"
       gradientUnits="userSpaceOnUse"
       x1="26.1016"
       y1="62.5762"
       x2="303.0316"
       y2="62.5762">
      <stop
         offset="0"
         style="stop-color:#666666"
         id="stop167" />
      <stop
         offset="1"
         style="stop-color:#333333"
         id="stop168" />
      <a:midPointStop
         offset="0"
         style="stop-color:#666666"
         id="midPointStop169" />
      <a:midPointStop
         offset="0.5"
         style="stop-color:#666666"
         id="midPointStop170" />
      <a:midPointStop
         offset="1"
         style="stop-color:#333333"
         id="midPointStop171" />
    </linearGradient>
    <path
       fill="url(#XMLID_2_)"
       stroke="none"
       d="M134.504,48.578l13.391,9.738l0.609,18.258c0,0,10.344-9.738,9.736-12.78    c-0.609-3.043,6.693,1.218,8.521,2.434c1.824,1.218-9.131-15.823-9.131-15.823L134.504,48.578z"
       id="path172" />
    <linearGradient
       id="XMLID_3_"
       gradientUnits="userSpaceOnUse"
       x1="26.1016"
       y1="117.3521"
       x2="303.034"
       y2="117.3521">
      <stop
         offset="0"
         style="stop-color:#666666"
         id="stop174" />
      <stop
         offset="1"
         style="stop-color:#333333"
         id="stop175" />
      <a:midPointStop
         offset="0"
         style="stop-color:#666666"
         id="midPointStop176" />
      <a:midPointStop
         offset="0.5"
         style="stop-color:#666666"
         id="midPointStop177" />
      <a:midPointStop
         offset="1"
         style="stop-color:#333333"
         id="midPointStop178" />
    </linearGradient>
    <path
       fill="url(#XMLID_3_)"
       stroke="none"
       d="M158.24,88.747c0.607,1.827,8.521,12.172,8.521,12.172l1.824,29.215l-17.648,15.822    l9.738-17.649l-14.607,1.827l13.998-21.304v-7.912L158.24,88.747z"
       id="path179" />
    <linearGradient
       id="XMLID_4_"
       gradientUnits="userSpaceOnUse"
       x1="26.1035"
       y1="76.2705"
       x2="303.0307"
       y2="76.2705">
      <stop
         offset="0"
         style="stop-color:#666666"
         id="stop181" />
      <stop
         offset="1"
         style="stop-color:#333333"
         id="stop182" />
      <a:midPointStop
         offset="0"
         style="stop-color:#666666"
         id="midPointStop183" />
      <a:midPointStop
         offset="0.5"
         style="stop-color:#666666"
         id="midPointStop184" />
      <a:midPointStop
         offset="1"
         style="stop-color:#333333"
         id="midPointStop185" />
    </linearGradient>
    <path
       fill="url(#XMLID_4_)"
       stroke="none"
       d="M152.762,88.139l-33.472,0.608l3.65-9.737l-6.694-3.652l15.824-11.563l-3.043,8.521    l13.389,2.434l-4.869,3.653l15.215,7.911V88.139z"
       id="path186" />
    <linearGradient
       id="XMLID_5_"
       gradientUnits="userSpaceOnUse"
       x1="26.1006"
       y1="78.4014"
       x2="303.0327"
       y2="78.4014">
      <stop
         offset="0"
         style="stop-color:#666666"
         id="stop188" />
      <stop
         offset="1"
         style="stop-color:#333333"
         id="stop189" />
      <a:midPointStop
         offset="0"
         style="stop-color:#666666"
         id="midPointStop190" />
      <a:midPointStop
         offset="0.5"
         style="stop-color:#666666"
         id="midPointStop191" />
      <a:midPointStop
         offset="1"
         style="stop-color:#333333"
         id="midPointStop192" />
    </linearGradient>
    <path
       fill="url(#XMLID_5_)"
       stroke="none"
       d="M101.031,72.924l-6.085,10.955l-18.258-1.218l13.387-3.651L101.031,72.924z"
       id="path193" />
    <path
       stroke="none"
       d="M146.068,195.862c0.148-0.752-0.441,0.098-1.482,1.892C145.408,197.061,145.959,196.411,146.068,195.862z"
       id="path194" />
    <path
       stroke="none"
       d="M143.023,179.431c0-0.729-1.211,0.795-2.9,3.28C141.861,181.279,143.023,180.045,143.023,179.431z"
       id="path195" />
    <g
       id="g196">
      <path
         fill="#FFFFFF"
         stroke="none"
         d="M83.989,65.012c0,0,0.608,3.651,3.043,5.477c2.436,1.827-7.912,1.827-7.912,1.827     L83.989,65.012z"
         id="path197" />
      <path
         fill="#FFFFFF"
         stroke="none"
         d="M92.51,67.446l-3.651-4.261c0,0,2.433-0.609,4.26,0.609     C94.945,65.012,92.51,67.446,92.51,67.446z"
         id="path198" />
    </g>
    <g
       id="g199">
      <path
         fill="#FFFFFF"
         stroke="none"
         d="M12.781,138.655l4.87,7.302l1.826-7.302H12.781z"
         id="path200" />
      <path
         fill="#FFFFFF"
         stroke="none"
         d="M23.737,137.437l4.261-0.607l-0.609,5.476C27.388,142.305,25.562,137.437,23.737,137.437z"
         id="path201" />
      <path
         fill="#FFFFFF"
         stroke="none"
         d="M31.648,134.396h4.869v6.693C36.517,141.089,29.215,134.396,31.648,134.396z"
         id="path202" />
      <path
         fill="#FFFFFF"
         stroke="none"
         d="M41.386,133.785h3.652l-0.608,6.086C44.429,139.871,39.56,134.396,41.386,133.785z"
         id="path203" />
      <path
         fill="#FFFFFF"
         stroke="none"
         d="M48.081,131.959l3.651-1.216l0.609,4.869L48.081,131.959z"
         id="path204" />
      <path
         fill="#FFFFFF"
         stroke="none"
         d="M54.167,127.699h6.087l-1.217,5.479L54.167,127.699z"
         id="path205" />
      <path
         fill="#FFFFFF"
         stroke="none"
         d="M63.296,122.22h6.086l-1.827,4.869C67.556,127.089,61.47,122.829,63.296,122.22z"
         id="path206" />
    </g>
  </g>
</svg>
