<?xml version="1.0" encoding="UTF-8" standalone="no"?>
<!DOCTYPE svg PUBLIC "-//W3C//DTD SVG 20010904//EN"
"http://www.w3.org/TR/2001/REC-SVG-20010904/DTD/svg10.dtd"
[
 <!ATTLIST svg
  xmlns:xlink CDATA #FIXED "http://www.w3.org/1999/xlink">
]>
<!-- Created with Sodipodi ("http://www.sodipodi.com/") -->
<svg
   xmlns="http://www.w3.org/2000/svg"
   xmlns:xlink="http://www.w3.org/1999/xlink"
   version="1"
   x="0.00000000"
   y="0.00000000"
   width="60.0000000"
   height="60.0000000"
   viewBox="0 0 256 256"
   id="svg548">
  <defs
     id="defs609" />
  <g
     style="font-size:12;stroke:#000000;"
     id="Layer_2">
    <path
       d="M 256 256 L 0 256 L 0 0 L 256 0 L 256 256 z "
       style="fill:none;stroke:none;"
       id="path550" />
  </g>
  <g
     style="font-size:12;stroke:#000000;"
     id="Layer_1">
    <path
       d="M 139.315 114.14 C 132.709 117.916 36.333 190.333 36.333 190.333 L 5.667 203 L 136.626 253.462 L 256 151.667 L 215.667 141 C 215.667 141 132.723 105.866 139.315 114.14 z "
       style="opacity:0.2;stroke:none;"
       id="path552" />
    <linearGradient
       x1="5.23969984"
       y1="125.710403"
       x2="235.162094"
       y2="125.710403"
       id="XMLID_1_"
       gradientUnits="userSpaceOnUse"
       spreadMethod="pad">
      <stop
         style="stop-color:#a7abac;stop-opacity:1;"
         offset="0.00000000"
         id="stop554" />
      <stop
         style="stop-color:#85898a;stop-opacity:1;"
         offset="1.00000000"
         id="stop555" />
      <a:midPointStop
         offset="0"
         style="stop-color:#A7ABAC"
         id="midPointStop556" />
      <a:midPointStop
         offset="0.5"
         style="stop-color:#A7ABAC"
         id="midPointStop557" />
      <a:midPointStop
         offset="1"
         style="stop-color:#85898A"
         id="midPointStop558" />
    </linearGradient>
    <path
       d="M 63.769 21.102 C 63.769 21.102 121.332 93.336 127.925 101.61 C 121.318 105.386 6.675 171.112 6.675 171.112 L 5.264 196.5 C 5.271 196.521 5.272 196.645 5.272 196.709 C 5.272 196.731 5.24 200.885 5.24 200.885 L 9.165 202.24 L 125.235 240.932 L 234.875 146.486 C 234.875 146.486 235.643 120.279 234.875 119.198 C 234.875 118.48 234.097 117.447 233.555 117.338 C 231.814 114.886 165.82 21.938 165.82 21.938 L 55.312 10.488 L 63.769 21.102 z "
       style="fill:url(#XMLID_1_);stroke:none;"
       id="path559" />
    <path
       d="M 135.896 103.616 L 134.25 104.555 L 10.959 175.008 L 85.063 199.708 L 11.813 175.291 L 11.152 175.557 L 10.959 196.552 L 10.968 196.556 C 10.968 196.676 10.967 196.778 10.966 196.837 C 12.33 197.292 116.955 232.168 119.542 233.03 C 119.542 232.951 119.542 232.854 119.542 232.747 L 121.568 233.422 L 121.629 233.444 L 229.18 143.818 L 229.18 143.261 L 229.18 124.352 L 229.18 122.271 L 135.896 103.616 z "
       style="fill:#ffffff;stroke:none;"
       id="path560" />
    <path
       d="M 225.128 124.297 L 228.165 122.272 "
       style="fill:#b5b5b5;stroke:none;"
       id="path561" />
    <linearGradient
       x1="67.4785004"
       y1="192.685501"
       x2="199.666504"
       y2="107.092697"
       id="XMLID_2_"
       gradientUnits="userSpaceOnUse"
       spreadMethod="pad">
      <stop
         style="stop-color:#ffffff;stop-opacity:1;"
         offset="0.00000000"
         id="stop563" />
      <stop
         style="stop-color:#e6e6e6;stop-opacity:1;"
         offset="0.29780000"
         id="stop564" />
      <stop
         style="stop-color:#c2c2c2;stop-opacity:1;"
         offset="1.00000000"
         id="stop565" />
      <a:midPointStop
         offset="0"
         style="stop-color:#FFFFFF"
         id="midPointStop566" />
      <a:midPointStop
         offset="0.5"
         style="stop-color:#FFFFFF"
         id="midPointStop567" />
      <a:midPointStop
         offset="0.2978"
         style="stop-color:#E6E6E6"
         id="midPointStop568" />
      <a:midPointStop
         offset="0.5"
         style="stop-color:#E6E6E6"
         id="midPointStop569" />
      <a:midPointStop
         offset="1"
         style="stop-color:#C2C2C2"
         id="midPointStop570" />
    </linearGradient>
    <path
       d="M 134.25 104.555 L 10.959 175.008 L 121.628 211.897 L 229.179 122.272 L 135.895 103.616 L 134.25 104.555 z "
       style="fill:url(#XMLID_2_);stroke:none;"
       id="path571" />
    <path
       d="M 36.921 169.134 C 55.04 174.966 119.96 195.866 124.92 197.462 C 129.1 194.097 198.876 137.942 213.501 126.173 C 196.568 122.904 141.697 111.133 138.283 110.472 C 137.729 110.778 54.831 159.25 36.921 169.134 z "
       style="fill:#095aa6;stroke:none;"
       id="path572" />
    <linearGradient
       x1="69.2817001"
       y1="174.004898"
       x2="236.418106"
       y2="122.527298"
       id="XMLID_3_"
       gradientUnits="userSpaceOnUse"
       spreadMethod="pad">
      <stop
         style="stop-color:#ffffff;stop-opacity:1;"
         offset="0.00000000"
         id="stop574" />
      <stop
         style="stop-color:#a6cae1;stop-opacity:1;"
         offset="0.29780000"
         id="stop575" />
      <stop
         style="stop-color:#183394;stop-opacity:1;"
         offset="1.00000000"
         id="stop576" />
      <a:midPointStop
         offset="0"
         style="stop-color:#FFFFFF"
         id="midPointStop577" />
      <a:midPointStop
         offset="0.5"
         style="stop-color:#FFFFFF"
         id="midPointStop578" />
      <a:midPointStop
         offset="0.2978"
         style="stop-color:#A6CAE1"
         id="midPointStop579" />
      <a:midPointStop
         offset="0.5"
         style="stop-color:#A6CAE1"
         id="midPointStop580" />
      <a:midPointStop
         offset="1"
         style="stop-color:#183394"
         id="midPointStop581" />
    </linearGradient>
    <path
       d="M 125.782 196.322 C 129.77 193.124 194.034 141.585 211.672 127.438 C 192.375 123.62 143.226 113.116 140.015 112.499 C 139.486 112.79 62.611 157.581 41.578 169.312 C 62.68 176.079 121.109 194.825 125.782 196.322 z "
       style="fill:url(#XMLID_3_);stroke:none;"
       id="path582" />
    <path
       d="M 11.813 175.291 L 11.152 175.557 L 10.959 196.552 L 121.567 233.422 C 121.567 225.967 121.567 219.052 121.567 211.876 L 11.813 175.291 z "
       style="fill:#ffffff;stroke:none;"
       id="path583" />
    <linearGradient
       x1="85.6118011"
       y1="181.047897"
       x2="67.3784027"
       y2="202.826599"
       id="XMLID_4_"
       gradientUnits="userSpaceOnUse"
       spreadMethod="pad">
      <stop
         style="stop-color:#dddde8;stop-opacity:1;"
         offset="0.00000000"
         id="stop585" />
      <stop
         style="stop-color:#f0f0f0;stop-opacity:1;"
         offset="1.00000000"
         id="stop586" />
      <a:midPointStop
         offset="0"
         style="stop-color:#DDDDE8"
         id="midPointStop587" />
      <a:midPointStop
         offset="0.5"
         style="stop-color:#DDDDE8"
         id="midPointStop588" />
      <a:midPointStop
         offset="1"
         style="stop-color:#F0F0F0"
         id="midPointStop589" />
    </linearGradient>
    <path
       d="M 10.966 196.837 C 12.33 197.292 116.955 232.168 119.542 233.03 C 119.542 230.662 119.542 214.89 119.542 213.62 C 118.181 213.166 12.447 177.922 11.144 177.485 C 11.129 179.088 10.979 195.526 10.966 196.837 z "
       style="fill:url(#XMLID_4_);stroke:none;"
       id="path590" />
    <path
       d="M 121.568 233.422 L 121.629 233.444 L 229.18 143.818 L 229.18 122.271 L 121.629 211.896 L 121.568 211.875 "
       style="fill:#ffffff;stroke:none;"
       id="path591" />
    <path
       d="M 123.594 212.342 C 123.594 213.277 123.594 227.938 123.594 231.251 C 126.688 228.672 228.467 143.858 229.179 143.262 C 229.179 142.448 229.179 127.768 229.179 124.353 C 225.97 127.029 124.185 211.849 123.594 212.342 z "
       style="fill:#e6e6e6;stroke:none;"
       id="path592" />
    <linearGradient
       x1="180.419907"
       y1="125.250504"
       x2="177.909500"
       y2="97.2498016"
       id="XMLID_5_"
       gradientUnits="userSpaceOnUse"
       spreadMethod="pad">
      <stop
         style="stop-color:#b5b5b5;stop-opacity:1;"
         offset="0.00000000"
         id="stop594" />
      <stop
         style="stop-color:#ffffff;stop-opacity:1;"
         offset="1.00000000"
         id="stop595" />
      <a:midPointStop
         offset="0"
         style="stop-color:#B5B5B5"
         id="midPointStop596" />
      <a:midPointStop
         offset="0.5"
         style="stop-color:#B5B5B5"
         id="midPointStop597" />
      <a:midPointStop
         offset="1"
         style="stop-color:#FFFFFF"
         id="midPointStop598" />
    </linearGradient>
    <path
       d="M 132.857 105.641 L 226.138 124.297 "
       style="fill:url(#XMLID_5_);stroke:none;"
       id="path599" />
    <path
       style="fill:#999999;stroke:none;"
       id="path600" />
    <linearGradient
       x1="145.392593"
       y1="110.418900"
       x2="145.392593"
       y2="5.81829977"
       id="XMLID_6_"
       gradientUnits="userSpaceOnUse"
       gradientTransform="matrix(1.095900,1.420000e-2,-0.522200,0.938700,26.99660,0.575600)"
       spreadMethod="pad">
      <stop
         style="stop-color:#999999;stop-opacity:1;"
         offset="0.00000000"
         id="stop602" />
      <stop
         style="stop-color:#cccccc;stop-opacity:1;"
         offset="1.00000000"
         id="stop603" />
      <a:midPointStop
         offset="0"
         style="stop-color:#999999"
         id="midPointStop604" />
      <a:midPointStop
         offset="0.5"
         style="stop-color:#999999"
         id="midPointStop605" />
      <a:midPointStop
         offset="1"
         style="stop-color:#CCCCCC"
         id="midPointStop606" />
    </linearGradient>
    <path
       d="M 229.805 121.896 L 136.066 102.687 L 68.223 17.552 L 162.668 27.338 L 229.805 121.896 z "
       style="fill:url(#XMLID_6_);stroke:none;"
       id="path607" />
  </g>
</svg>
