<?xml version="1.0" encoding="UTF-8" standalone="no"?>
<!DOCTYPE svg PUBLIC "-//W3C//DTD SVG 20010904//EN"
"http://www.w3.org/TR/2001/REC-SVG-20010904/DTD/svg10.dtd">
<!-- Created with Sodipodi ("http://www.sodipodi.com/") -->
<svg
   i:viewOrigin="263 444.2495"
   i:rulerOrigin="-242 -332"
   i:pageBounds="242 460 370 332"
   width="48pt"
   height="48pt"
   viewBox="0 0 103 116.25"
   overflow="visible"
   enable-background="new 0 0 103 116.25"
   xml:space="preserve"
   id="svg153"
   sodipodi:version="0.32pre"
   sodipodi:docname="/home/cschalle/gnome-themes-extras/Amaranth/icons/scalable/filesystems/gnome-fs-trash-full.svg"
   sodipodi:docbase="/home/cschalle/gnome-themes-extras/Amaranth/icons/scalable/filesystems"
   xmlns="http://www.w3.org/2000/svg"
   xmlns:sodipodi="http://sodipodi.sourceforge.net/DTD/sodipodi-0.dtd"
   xmlns:ns="http://ns.adobe.com/Variables/1.0/"
   xmlns:i="http://ns.adobe.com/AdobeIllustrator/10.0/"
   xmlns:xml="http://www.w3.org/XML/1998/namespace"
   xmlns:a="http://ns.adobe.com/AdobeSVGViewerExtensions/3.0/"
   xmlns:xlink="http://www.w3.org/1999/xlink">
  <defs
     id="defs231">
    <linearGradient
       id="XMLID_1_"
       gradientUnits="userSpaceOnUse"
       x1="21.9858"
       y1="0.2622"
       x2="77.6482"
       y2="39.2374">
      <stop
         offset="0.0056"
         style="stop-color:#FFFFFF"
         id="stop157" />
      <stop
         offset="0.9831"
         style="stop-color:#1C1C1C"
         id="stop158" />
      <a:midPointStop
         offset="0.0056"
         style="stop-color:#FFFFFF"
         id="midPointStop159" />
      <a:midPointStop
         offset="0.5"
         style="stop-color:#FFFFFF"
         id="midPointStop160" />
      <a:midPointStop
         offset="0.9831"
         style="stop-color:#1C1C1C"
         id="midPointStop161" />
    </linearGradient>
    <linearGradient
       id="XMLID_2_"
       gradientUnits="userSpaceOnUse"
       x1="5.5474"
       y1="26.543"
       x2="94.2374"
       y2="88.6444">
      <stop
         offset="0.0056"
         style="stop-color:#FFFFFF"
         id="stop171" />
      <stop
         offset="0.9831"
         style="stop-color:#1C1C1C"
         id="stop172" />
      <a:midPointStop
         offset="0.0056"
         style="stop-color:#FFFFFF"
         id="midPointStop173" />
      <a:midPointStop
         offset="0.5"
         style="stop-color:#FFFFFF"
         id="midPointStop174" />
      <a:midPointStop
         offset="0.9831"
         style="stop-color:#1C1C1C"
         id="midPointStop175" />
    </linearGradient>
  </defs>
  <sodipodi:namedview
     id="base" />
  <metadata
     id="metadata154">
    <sfw>
      <slices />
      <sliceSourceBounds
         x="263"
         y="328"
         width="103"
         height="116.25"
         bottomLeftOrigin="true" />
    </sfw>
    <ns:variableSets>
      <ns:variableSet
         varSetName="binding1"
         locked="none">
        <ns:variables />
        <ns:sampleDataSets />
      </ns:variableSet>
    </ns:variableSets>
  </metadata>
  <path
     i:knockout="Off"
     fill="url(#XMLID_1_)"
     stroke-width="2"
     d="M90.688,19.75c0-7.732-18.297-14-40.872-14    c-22.573,0-40.873,6.268-40.873,14s18.299,14,40.873,14C72.392,33.75,90.688,27.481,90.688,19.75z"
     id="path162"
     style="font-size:12;fill:url(#XMLID_1_);stroke:#000000;stroke-width:2;" />
  <g
     i:knockout="Off"
     opacity="0.3"
     id="g163"
     style="font-size:12;opacity:0.3;stroke:#000000;">
    <path
       i:knockout="Off"
       fill="#FFFFFF"
       stroke="none"
       d="M80.112,10.352C72.635,7.525,61.831,5.75,49.816,5.75     c-22.573,0-40.873,6.268-40.873,14c0,3.455,3.653,6.617,9.708,9.058c7.497,3.023,15.107-6.516,35.023-6.516     S80.112,10.352,80.112,10.352z"
       id="path164" />
  </g>
  <g
     id="g165"
     style="font-size:12;stroke:#000000;">
    <path
       i:knockout="Off"
       fill="#FFFFFF"
       d="M53.162,50.465c0.108,1.095-0.699,2.079-1.793,2.188l-32.946,3.264     c-1.095,0.108-2.079-0.698-2.188-1.793L11.463,5.949c-0.108-1.095,0.698-2.079,1.793-2.188l32.946-3.264     c1.094-0.108,2.079,0.698,2.188,1.793L53.162,50.465z"
       id="path166" />
    <path
       i:knockout="Off"
       fill="#FFFFFF"
       d="M67.516,61.196c-0.186,1.085-1.225,1.819-2.309,1.634l-32.633-5.586     c-1.084-0.186-1.819-1.225-1.634-2.309l8.168-47.716c0.186-1.084,1.225-1.82,2.309-1.634l32.633,5.586     c1.083,0.186,1.819,1.224,1.634,2.309L67.516,61.196z"
       id="path167" />
  </g>
  <path
     i:knockout="Off"
     fill="url(#XMLID_2_)"
     stroke-width="2"
     d="M90.877,93.443c0,0-9.954,10-41.15,10     c-31.196,0-40.82-10-40.82-10V21.744c0,0,12.277,10,41.15,10c28.874,0,40.82-10,40.82-10V93.443z"
     id="path176"
     style="font-size:12;fill:url(#XMLID_2_);stroke:#000000;stroke-width:2;" />
  <g
     i:knockout="On"
     id="g177"
     style="font-size:12;stroke:#000000;">
    <g
       i:knockout="Off"
       id="g178">
      <linearGradient
         id="XMLID_3_"
         gradientUnits="userSpaceOnUse"
         x1="7.9258"
         y1="32.3843"
         x2="21.9674"
         y2="42.2163"
         gradientTransform="matrix(-0.5052 -0.863 0.863 -0.5052 12.1147 107.6615)">
        <stop
           offset="0.0056"
           style="stop-color:#FFFFFF"
           id="stop180" />
        <stop
           offset="0.9831"
           style="stop-color:#1C1C1C"
           id="stop181" />
        <a:midPointStop
           offset="0.0056"
           style="stop-color:#FFFFFF"
           id="midPointStop182" />
        <a:midPointStop
           offset="0.5"
           style="stop-color:#FFFFFF"
           id="midPointStop183" />
        <a:midPointStop
           offset="0.9831"
           style="stop-color:#1C1C1C"
           id="midPointStop184" />
      </linearGradient>
      <path
         i:knockout="Off"
         opacity="0"
         fill="url(#XMLID_3_)"
         stroke="none"
         d="M43.394,85.059c0,0-12.256-0.647-14.024-3.668      s3.757-14.366,3.757-14.366"
         id="path185" />
      <path
         i:knockout="Off"
         fill="none"
         stroke="#FF4F00"
         stroke-width="6"
         d="M43.394,85.059c0,0-12.256-0.647-14.024-3.668      s3.757-14.366,3.757-14.366"
         id="path186" />
    </g>
    <radialGradient
       id="XMLID_4_"
       cx="30.9277"
       cy="65.939"
       r="9.1784"
       fx="30.9277"
       fy="65.939"
       gradientUnits="userSpaceOnUse">
      <stop
         offset="0.0056"
         style="stop-color:#FFFFD6"
         id="stop188" />
      <stop
         offset="1"
         style="stop-color:#FF0000"
         id="stop189" />
      <a:midPointStop
         offset="0.0056"
         style="stop-color:#FFFFD6"
         id="midPointStop190" />
      <a:midPointStop
         offset="0.5"
         style="stop-color:#FFFFD6"
         id="midPointStop191" />
      <a:midPointStop
         offset="1"
         style="stop-color:#FF0000"
         id="midPointStop192" />
    </radialGradient>
    <path
       i:knockout="Off"
       fill="url(#XMLID_4_)"
       stroke="#FF4A00"
       d="M38.412,56.173c-0.592,6.029-0.445,13.939,1.065,19.532     l-7.044-7.256l-10.056-1.072C27.712,65.119,34.031,60.358,38.412,56.173z"
       id="path193" />
  </g>
  <g
     i:knockout="On"
     id="g194"
     style="font-size:12;stroke:#000000;">
    <g
       i:knockout="Off"
       id="g195">
      <linearGradient
         id="XMLID_5_"
         gradientUnits="userSpaceOnUse"
         x1="43.4312"
         y1="46.5444"
         x2="57.4719"
         y2="56.3759">
        <stop
           offset="0.0056"
           style="stop-color:#FFFFFF"
           id="stop197" />
        <stop
           offset="0.9831"
           style="stop-color:#1C1C1C"
           id="stop198" />
        <a:midPointStop
           offset="0.0056"
           style="stop-color:#FFFFFF"
           id="midPointStop199" />
        <a:midPointStop
           offset="0.5"
           style="stop-color:#FFFFFF"
           id="midPointStop200" />
        <a:midPointStop
           offset="0.9831"
           style="stop-color:#1C1C1C"
           id="midPointStop201" />
      </linearGradient>
      <path
         i:knockout="Off"
         opacity="0"
         fill="url(#XMLID_5_)"
         stroke="none"
         d="M39.209,52.573c0,0,6.75-10.25,10.25-10.25      s10.5,10.5,10.5,10.5"
         id="path202" />
      <path
         i:knockout="Off"
         fill="none"
         stroke="#FF4F00"
         stroke-width="6"
         d="M39.209,52.573c0,0,6.75-10.25,10.25-10.25      s10.5,10.5,10.5,10.5"
         id="path203" />
    </g>
    <radialGradient
       id="XMLID_6_"
       cx="57.957"
       cy="53.1167"
       r="9.2381"
       fx="57.957"
       fy="53.1167"
       gradientUnits="userSpaceOnUse">
      <stop
         offset="0.0056"
         style="stop-color:#FFFFD6"
         id="stop205" />
      <stop
         offset="1"
         style="stop-color:#FF0000"
         id="stop206" />
      <a:midPointStop
         offset="0.0056"
         style="stop-color:#FFFFD6"
         id="midPointStop207" />
      <a:midPointStop
         offset="0.5"
         style="stop-color:#FFFFD6"
         id="midPointStop208" />
      <a:midPointStop
         offset="1"
         style="stop-color:#FF0000"
         id="midPointStop209" />
    </radialGradient>
    <path
       i:knockout="Off"
       fill="url(#XMLID_6_)"
       stroke="#FF4A00"
       d="M66.654,62.866C61.75,59.309,54.85,55.44,49.26,53.918     l9.82-2.414l6.005-8.137C64.34,49.113,65.257,56.971,66.654,62.866z"
       id="path210" />
  </g>
  <g
     i:knockout="On"
     id="g211"
     style="font-size:12;stroke:#000000;">
    <g
       i:knockout="Off"
       id="g212">
      <linearGradient
         id="XMLID_7_"
         gradientUnits="userSpaceOnUse"
         x1="-5.3267"
         y1="43.4468"
         x2="8.7125"
         y2="53.2771"
         gradientTransform="matrix(-0.418 0.9085 -0.9085 -0.418 108.82 94.613)">
        <stop
           offset="0.0056"
           style="stop-color:#FFFFFF"
           id="stop214" />
        <stop
           offset="0.9831"
           style="stop-color:#1C1C1C"
           id="stop215" />
        <a:midPointStop
           offset="0.0056"
           style="stop-color:#FFFFFF"
           id="midPointStop216" />
        <a:midPointStop
           offset="0.5"
           style="stop-color:#FFFFFF"
           id="midPointStop217" />
        <a:midPointStop
           offset="0.9831"
           style="stop-color:#1C1C1C"
           id="midPointStop218" />
      </linearGradient>
      <path
         i:knockout="Off"
         opacity="0"
         fill="url(#XMLID_7_)"
         stroke="none"
         d="M67.863,65.258c0,0,6.491,10.416,5.026,13.596      c-1.461,3.179-13.926,5.149-13.926,5.149"
         id="path219" />
      <path
         i:knockout="Off"
         fill="none"
         stroke="#FF4F00"
         stroke-width="6"
         d="M67.863,65.258c0,0,6.491,10.416,5.026,13.596      c-1.461,3.179-13.926,5.149-13.926,5.149"
         id="path220" />
    </g>
    <radialGradient
       id="XMLID_8_"
       cx="56.2246"
       cy="83.2202"
       r="9.2892"
       fx="56.2246"
       fy="83.2202"
       gradientUnits="userSpaceOnUse">
      <stop
         offset="0.0056"
         style="stop-color:#FFFFD6"
         id="stop222" />
      <stop
         offset="1"
         style="stop-color:#FF0000"
         id="stop223" />
      <a:midPointStop
         offset="0.0056"
         style="stop-color:#FFFFD6"
         id="midPointStop224" />
      <a:midPointStop
         offset="0.5"
         style="stop-color:#FFFFD6"
         id="midPointStop225" />
      <a:midPointStop
         offset="1"
         style="stop-color:#FF0000"
         id="midPointStop226" />
    </radialGradient>
    <path
       i:knockout="Off"
       fill="url(#XMLID_8_)"
       stroke="#FF4A00"
       d="M47.041,85.888c5.281-2.969,11.681-7.62,15.398-12.062     l-1.912,9.93l4.882,8.856C60.503,89.535,52.98,87.083,47.041,85.888z"
       id="path227" />
  </g>
  <g
     i:knockout="Off"
     opacity="0.3"
     id="g228"
     style="font-size:12;opacity:0.3;stroke:#000000;">
    <path
       i:knockout="Off"
       fill="#FFFFFF"
       stroke="none"
       d="M49.691,63.866C28.099,72.461,8.907,53.803,8.907,53.803V23.744     c0,0,12.277,10,41.15,10c28.874,0,40.82-10,40.82-10v51.699C90.877,75.443,71.284,55.27,49.691,63.866z"
       id="path229" />
  </g>
</svg>
