<?xml version="1.0" encoding="UTF-8" standalone="no"?>
<!DOCTYPE svg PUBLIC "-//W3C//DTD SVG 20010904//EN"
"http://www.w3.org/TR/2001/REC-SVG-20010904/DTD/svg10.dtd">
<!-- Created with Sodipodi ("http://www.sodipodi.com/") -->
<svg
   width="48pt"
   height="48pt"
   viewBox="0 0 53.011 47.859"
   overflow="visible"
   enable-background="new 0 0 53.011 47.859"
   xml:space="preserve"
   xmlns="http://www.w3.org/2000/svg"
   xmlns:xml="http://www.w3.org/XML/1998/namespace"
   xmlns:a="http://ns.adobe.com/AdobeSVGViewerExtensions/3.0/"
   xmlns:sodipodi="http://sodipodi.sourceforge.net/DTD/sodipodi-0.dtd"
   xmlns:xlink="http://www.w3.org/1999/xlink"
   id="svg153"
   sodipodi:version="0.32pre"
   sodipodi:docname="/home/cschalle/gnome-themes-extras/Wasp/icons/scalable/apps/gnome-search-tool.svg"
   sodipodi:docbase="/home/cschalle/gnome-themes-extras/Wasp/icons/scalable/apps">
  <defs
     id="defs226" />
  <sodipodi:namedview
     id="base" />
  <metadata
     id="metadata154">
    <sfw>
      <slices />
      <sliceSourceBounds
         y="395.366"
         x="270.034"
         width="53.011"
         height="47.859"
         bottomLeftOrigin="true" />
    </sfw>
  </metadata>
  <g
     id="Layer_1_2_"
     style="font-size:12;stroke:#000000;">
    <path
       stroke="none"
       d="M39.119,17.555c1.249-1.859,0.755-4.38-1.105-5.63c-1.859-1.249-3.762-0.79-5.629,1.105L42.856,2.494     c1.677-1.792,3.771-2.354,5.63-1.104c1.859,1.25,2.354,3.77,1.104,5.629L39.119,17.555z"
       id="path157" />
    <path
       stroke="none"
       d="M42.271,1.947c0.017-0.017-10.455,10.518-10.455,10.518s-0.001,0.001-0.003,0.002l1.139,1.125l0.002-0.002     c2.18-2.212,3.677-1.632,4.613-1.002c1.49,1.001,1.889,3.028,0.887,4.52l1.232,1.009l10.525-10.59l0.042-0.063     c1.493-2.223,0.9-5.246-1.323-6.74C46.841-0.679,44.29-0.211,42.271,1.947z M43.423,3.058c0.721-0.771,2.578-2.374,4.615-1.005     c0.935,0.628,1.439,1.659,1.439,2.708c0,0.611-0.177,1.225-0.533,1.773c-0.125,0.125-5.775,5.81-8.38,8.43     c-0.101-1.444-0.813-2.834-2.105-3.703c-0.642-0.431-1.447-0.775-2.373-0.823C39.165,7.342,43.423,3.058,43.423,3.058z"
       id="path158" />
    <path
       fill="#CCCCCC"
       stroke="none"
       d="M29.061,16.086l3.245-3.093c1.455-1.674,3.848-2.318,5.707-1.069     c1.859,1.25,2.354,3.771,1.105,5.63l-1.733,1.972"
       id="path159" />
    <path
       stroke="none"
       d="M31.703,12.469l0.052-0.054l-3.245,3.093l1.104,1.158l3.272-3.119l0.024-0.029     c1.107-1.272,3.061-2.001,4.657-0.929c0.935,0.627,1.439,1.659,1.439,2.708c0,0.617-0.178,1.238-0.541,1.789     c-0.1,0.113-1.682,1.913-1.682,1.913l1.202,1.057l1.768-2.011l0.029-0.042c1.493-2.223,0.899-5.246-1.323-6.74     C36.371,9.858,33.53,10.365,31.703,12.469z"
       id="path160" />
    <g
       id="g161">
      <path
         fill="#3D3D3D"
         stroke="none"
         d="M35.396,10.883l2.093,0.517L47.537,1.36c0,0-0.407-0.33-0.897-0.448      c-0.555-0.134-1.198-0.056-1.198-0.056L35.396,10.883z"
         id="path162" />
      <path
         fill="#717171"
         stroke="none"
         d="M46.669,0.944c-0.138-0.033-0.415-0.085-0.544-0.089c-0.217-0.007-0.4,0.028-0.4,0.028      l-9.918,9.887l0.336,0.106l1.295,0.189l9.791-9.783C47.229,1.282,46.997,1.023,46.669,0.944z"
         id="path163" />
      <path
         fill="#A5A5A5"
         stroke="none"
         d="M46.701,0.976c-0.069-0.017-0.404-0.1-0.47-0.102C46.124,0.871,46.01,0.91,46.01,0.91      l-9.791,9.747l0.363,0.135l0.805-0.063l9.534-9.525C46.921,1.204,46.864,1.016,46.701,0.976z"
         id="path164" />
      <path
         fill="#D9D9D9"
         stroke="none"
         d="M36.63,10.542l0.392,0.165l9.709-9.699l-0.393-0.115L36.63,10.542z"
         id="path165" />
    </g>
    <path
       fill="#FFFFFF"
       stroke-width="4"
       d="M1.894,26.523c0,6.249,8.336,10.961,19.392,10.961c11.056,0,19.392-4.712,19.392-10.961     c0-6.249-8.337-10.96-19.392-10.96C10.23,15.563,1.894,20.274,1.894,26.523z"
       id="path166" />
    <path
       a:adobe-blending-mode="multiply"
       opacity="0.2"
       stroke="none"
       d="M21.318,45.831c2.045,0.393,3.875,0.319,6.217,0.319     c11.056,0,19.393-6.556,19.393-12.805c0-3.515-2.687-7.393-7.004-10.113c0.571,1.884,0.94,2.868,0.817,3.729     c-0.124,0.861,0,0,0,0v7.881C40.167,41.582,32.012,45.892,21.318,45.831z"
       id="path167" />
    <g
       id="g168">
      <linearGradient
         id="XMLID_1_"
         gradientUnits="userSpaceOnUse"
         x1="-229.6958"
         y1="372.4155"
         x2="-190.9116"
         y2="372.4155"
         gradientTransform="matrix(1 0 0 -1 231.5898 408.6123)">
        <stop
           offset="0.0056"
           style="stop-color:#9494BB"
           id="stop170" />
        <stop
           offset="0.1026"
           style="stop-color:#9898BE"
           id="stop171" />
        <stop
           offset="0.2035"
           style="stop-color:#A5A5C6"
           id="stop172" />
        <stop
           offset="0.3064"
           style="stop-color:#BABAD3"
           id="stop173" />
        <stop
           offset="0.4105"
           style="stop-color:#D7D7E5"
           id="stop174" />
        <stop
           offset="0.5147"
           style="stop-color:#FCFCFD"
           id="stop175" />
        <stop
           offset="0.5225"
           style="stop-color:#FFFFFF"
           id="stop176" />
        <stop
           offset="0.5631"
           style="stop-color:#EBEBF2"
           id="stop177" />
        <stop
           offset="0.6398"
           style="stop-color:#CCCCDE"
           id="stop178" />
        <stop
           offset="0.7198"
           style="stop-color:#B3B3CF"
           id="stop179" />
        <stop
           offset="0.8035"
           style="stop-color:#A2A2C4"
           id="stop180" />
        <stop
           offset="0.8933"
           style="stop-color:#9797BD"
           id="stop181" />
        <stop
           offset="1"
           style="stop-color:#9494BB"
           id="stop182" />
        <a:midPointStop
           offset="0.0056"
           style="stop-color:#9494BB"
           id="midPointStop183" />
        <a:midPointStop
           offset="0.5"
           style="stop-color:#9494BB"
           id="midPointStop184" />
        <a:midPointStop
           offset="0.1026"
           style="stop-color:#9898BE"
           id="midPointStop185" />
        <a:midPointStop
           offset="0.5"
           style="stop-color:#9898BE"
           id="midPointStop186" />
        <a:midPointStop
           offset="0.2035"
           style="stop-color:#A5A5C6"
           id="midPointStop187" />
        <a:midPointStop
           offset="0.5"
           style="stop-color:#A5A5C6"
           id="midPointStop188" />
        <a:midPointStop
           offset="0.3064"
           style="stop-color:#BABAD3"
           id="midPointStop189" />
        <a:midPointStop
           offset="0.5"
           style="stop-color:#BABAD3"
           id="midPointStop190" />
        <a:midPointStop
           offset="0.4105"
           style="stop-color:#D7D7E5"
           id="midPointStop191" />
        <a:midPointStop
           offset="0.5"
           style="stop-color:#D7D7E5"
           id="midPointStop192" />
        <a:midPointStop
           offset="0.5147"
           style="stop-color:#FCFCFD"
           id="midPointStop193" />
        <a:midPointStop
           offset="0.5"
           style="stop-color:#FCFCFD"
           id="midPointStop194" />
        <a:midPointStop
           offset="0.5225"
           style="stop-color:#FFFFFF"
           id="midPointStop195" />
        <a:midPointStop
           offset="0.5"
           style="stop-color:#FFFFFF"
           id="midPointStop196" />
        <a:midPointStop
           offset="0.5631"
           style="stop-color:#EBEBF2"
           id="midPointStop197" />
        <a:midPointStop
           offset="0.5"
           style="stop-color:#EBEBF2"
           id="midPointStop198" />
        <a:midPointStop
           offset="0.6398"
           style="stop-color:#CCCCDE"
           id="midPointStop199" />
        <a:midPointStop
           offset="0.5"
           style="stop-color:#CCCCDE"
           id="midPointStop200" />
        <a:midPointStop
           offset="0.7198"
           style="stop-color:#B3B3CF"
           id="midPointStop201" />
        <a:midPointStop
           offset="0.5"
           style="stop-color:#B3B3CF"
           id="midPointStop202" />
        <a:midPointStop
           offset="0.8035"
           style="stop-color:#A2A2C4"
           id="midPointStop203" />
        <a:midPointStop
           offset="0.5"
           style="stop-color:#A2A2C4"
           id="midPointStop204" />
        <a:midPointStop
           offset="0.8933"
           style="stop-color:#9797BD"
           id="midPointStop205" />
        <a:midPointStop
           offset="0.5"
           style="stop-color:#9797BD"
           id="midPointStop206" />
        <a:midPointStop
           offset="1"
           style="stop-color:#9494BB"
           id="midPointStop207" />
      </linearGradient>
      <path
         fill="url(#XMLID_1_)"
         stroke="none"
         d="M1.894,34.911c0,6.248,8.336,10.96,19.392,10.96      c11.056,0,19.392-4.712,19.392-10.96v-8.388c0,6.249-8.337,10.961-19.392,10.961c-11.056,0-19.392-4.712-19.392-10.961V34.911z"
         id="path208" />
      <path
         fill="none"
         stroke-width="4"
         d="M1.894,34.911c0,6.248,8.336,10.96,19.392,10.96c11.056,0,19.392-4.712,19.392-10.96      v-8.388c0,6.249-8.337,10.961-19.392,10.961c-11.056,0-19.392-4.712-19.392-10.961V34.911z"
         id="path209" />
    </g>
    <g
       id="g210">
      <path
         fill="none"
         stroke-width="4"
         d="M21.286,19.147c-8.147,0-14.751,3.302-14.751,7.375c0,1.242,0.618,2.414,1.706,3.441      c1.873-2.997,7.47-5.174,14.083-5.174c5.66,0,10.572,1.595,13.046,3.933c0.435-0.694,0.669-1.435,0.669-2.2      C36.038,22.449,29.433,19.147,21.286,19.147z"
         id="path211" />
    </g>
    <path
       fill="none"
       stroke-width="4"
       d="M6.535,26.523c0-4.074,6.604-7.375,14.751-7.375c8.146,0,14.751,3.301,14.751,7.375     c0,4.074-6.604,7.375-14.751,7.375C13.139,33.898,6.535,30.597,6.535,26.523z"
       id="path212" />
    <g
       id="g213">
      <g
         opacity="0.39"
         id="g214">
        <path
           fill="#8C8CDF"
           stroke="none"
           d="M21.286,33.267c7.208,0,13.158-2.549,14.079-5.85c-2.027-2.55-7.213-4.363-13.292-4.363       c-7.208,0-13.157,2.548-14.079,5.85C10.021,31.454,15.206,33.267,21.286,33.267z"
           id="path215" />
      </g>
    </g>
    <g
       opacity="0.39"
       id="g216">
      <path
         fill="#8C8CDF"
         stroke="none"
         d="M7.079,26.523c0-3.724,6.36-6.744,14.208-6.744c7.847,0,14.208,3.02,14.208,6.744      c0,3.725-6.361,6.744-14.208,6.744C13.439,33.267,7.079,30.248,7.079,26.523z"
         id="path217" />
    </g>
    <path
       a:adobe-blending-mode="multiply"
       opacity="0.2"
       stroke="none"
       d="M39.37,21.797L53.011,8.076c0,0-1.427-1.587-2.569-1.294     L37.485,19.545L39.37,21.797z"
       id="path218" />
    <path
       fill="#FFFFFF"
       stroke="none"
       d="M31.034,16.111l0.788,0.236l4.23-4.136c0,0-0.284-0.129-0.55-0.138     c-0.235-0.006-0.459,0.109-0.459,0.109L31.034,16.111z"
       id="path219" />
    <g
       id="g220">
      <path
         a:adobe-blending-mode="lighten"
         opacity="0.5"
         fill="#FFFFFF"
         stroke="none"
         d="M13.981,24.471      c0.789-1.188,2.032-1.751,2.776-1.256c0.745,0.494,0.71,1.858-0.078,3.046c-0.788,1.188-2.031,1.75-2.776,1.257      C13.158,27.023,13.193,25.659,13.981,24.471z"
         id="path221" />
      <path
         a:adobe-blending-mode="lighten"
         opacity="0.7"
         fill="#FFFFFF"
         stroke="none"
         d="M16.044,23.884      c0.597,0.247,0.762,1.11,0.368,1.93c-0.395,0.818-1.198,1.281-1.795,1.034s-0.762-1.11-0.368-1.93      C14.643,24.1,15.447,23.637,16.044,23.884z"
         id="path222" />
      <path
         a:adobe-blending-mode="lighten"
         opacity="0.9"
         fill="#FFFFFF"
         stroke="none"
         d="M14.517,25.367      c0-0.449,0.364-0.813,0.813-0.813s0.814,0.364,0.814,0.813s-0.365,0.813-0.814,0.813S14.517,25.816,14.517,25.367z"
         id="path223" />
    </g>
    <path
       opacity="0.67"
       fill="#FFFFFF"
       stroke="none"
       d="M26.504,29.45c0,0,4.107-1.556,4.592-3.64     c0.485-2.084,0.945,0.106,0.821,0.516c-0.642,2.115-3.399,4.696-4.744,4.483C25.828,30.597,25.756,29.765,26.504,29.45z"
       id="path224" />
  </g>
</svg>
